<?xml version="1.0" encoding="utf-8" standalone="no"?>
<!DOCTYPE svg PUBLIC "-//W3C//DTD SVG 1.1//EN"
  "http://www.w3.org/Graphics/SVG/1.1/DTD/svg11.dtd">
<svg xmlns:xlink="http://www.w3.org/1999/xlink" width="1080pt" height="1080pt" viewBox="0 0 1080 1080" xmlns="http://www.w3.org/2000/svg" version="1.1">
 <metadata>
  <rdf:RDF xmlns:dc="http://purl.org/dc/elements/1.1/" xmlns:cc="http://creativecommons.org/ns#" xmlns:rdf="http://www.w3.org/1999/02/22-rdf-syntax-ns#">
   <cc:Work>
    <dc:type rdf:resource="http://purl.org/dc/dcmitype/StillImage"/>
    <dc:date>2022-07-01T13:43:17.744159</dc:date>
    <dc:format>image/svg+xml</dc:format>
    <dc:creator>
     <cc:Agent>
      <dc:title>Matplotlib v3.5.1, https://matplotlib.org/</dc:title>
     </cc:Agent>
    </dc:creator>
   </cc:Work>
  </rdf:RDF>
 </metadata>
 <defs>
  <style type="text/css">*{stroke-linejoin: round; stroke-linecap: butt}</style>
 </defs>
 <g id="figure_1">
  <g id="patch_1">
   <path d="M 0 1080 
L 1080 1080 
L 1080 0 
L 0 0 
L 0 1080 
z
" style="fill: none; opacity: 0"/>
  </g>
  <g id="axes_1">
   <g id="PatchCollection_1">
    <path d="M 555.736929 88.952724 
L 555.841494 89.611224 
L 556.364315 93.764841 
L 558.246473 111.08846 
L 558.507884 121.827078 
L 557.93278 128.462733 
L 556.887137 141.531428 
L 556.939419 142.595159 
L 557.409959 155.714509 
L 557.93278 160.425317 
L 560.337759 165.440049 
L 565.618257 172.784859 
L 567.291286 174.000551 
L 568.546058 174.912321 
L 575.185892 176.735859 
L 585.276349 182.25713 
L 596.151037 191.982671 
L 597.039834 193.603594 
L 598.294606 195.933672 
L 599.863071 204.84875 
L 601.954357 210.370021 
L 606.555187 218.069407 
L 612.044813 227.440371 
L 615.495436 229.821102 
L 621.351037 231.391372 
L 627.154357 231.897911 
L 632.225726 231.948564 
L 640.695436 231.948564 
L 643.832365 232.961642 
L 644.355187 233.113603 
L 645.505394 233.518834 
L 648.694606 236.406104 
L 651.256432 241.066259 
L 652.19751 243.953529 
L 652.249793 247.043414 
L 651.256432 249.474799 
L 648.224066 259.909494 
L 648.903734 266.646457 
L 650.472199 273.38342 
L 652.877178 276.27069 
L 658.157676 280.829537 
L 658.419087 280.981499 
L 662.758506 283.463538 
L 667.20249 284.881846 
L 673.424066 285.692307 
L 686.756017 285.793615 
L 695.06888 286.553423 
L 701.342739 287.363885 
L 703.695436 289.086116 
L 706.414108 291.416193 
L 707.93029 294.303463 
L 708.296266 298.710349 
L 706.570954 303.725081 
L 701.604149 308.18262 
L 684.821577 318.060122 
L 675.463071 324.645124 
L 671.960166 328.79874 
L 671.698755 332.040587 
L 671.751037 336.14355 
L 674.156017 339.03082 
L 679.80249 342.779205 
L 691.670539 347.084783 
L 704.479668 346.831514 
L 716.870539 344.653398 
L 731.039004 340.651743 
L 744.946058 337.815127 
L 752.056432 337.46055 
L 760.055602 339.385397 
L 765.179253 342.272666 
L 768.682158 341.968743 
L 770.302905 345.261244 
L 770.982573 348.047206 
L 771.453112 349.465514 
L 767.322822 365.725403 
L 766.329461 369.676403 
L 764.499585 377.426444 
L 763.767635 380.26306 
L 763.715353 380.617637 
L 762.826556 384.366022 
L 757.023237 398.751718 
L 755.768465 403.817104 
L 755.088797 408.527912 
L 755.873029 421.039415 
L 757.964315 437.805842 
L 759.846473 451.836961 
L 763.663071 465.918733 
L 767.741079 476.859966 
L 768.2639 478.430236 
L 769.989212 482.077314 
L 772.917012 488.409046 
L 780.550207 504.922204 
L 781.020747 505.935281 
L 789.33361 524.5759 
L 792.941079 531.819402 
L 793.620747 533.136402 
L 796.653112 537.087403 
L 800.312863 539.316173 
L 803.345228 540.278596 
L 816.572614 541.24102 
L 820.912033 542.203443 
L 826.035685 544.229597 
L 830.165975 546.76229 
L 834.296266 549.953483 
L 837.642324 553.448599 
L 847.628216 563.022178 
L 849.144398 564.49114 
L 852.019917 566.567948 
L 855.052282 567.986256 
L 858.084647 568.94868 
L 861.901245 569.404564 
L 866.39751 569.100641 
L 879.154357 567.37841 
L 889.506224 565.960102 
L 896.093776 566.010756 
L 898.13278 566.618602 
L 908.536929 573.254258 
L 922.705394 580.90299 
L 927.253942 582.929144 
L 942.154357 589.767415 
L 942.624896 589.716761 
L 944.088797 589.463492 
L 947.434855 586.626876 
L 952.087967 580.295144 
L 959.564315 577.914412 
L 969.497925 574.773873 
L 978.438174 575.280412 
L 982.097925 576.242835 
L 984.346058 573.406219 
L 986.907884 574.014065 
L 1003.951867 581.81476 
L 1007.977593 583.688952 
L 1014.826556 588.754338 
L 1017.388382 590.8818 
L 1027.897095 599.54361 
L 1033.648133 606.027304 
L 1036.889627 610.940728 
L 1039.817427 615.347613 
L 1040.444813 616.310037 
L 1044.104564 622.641769 
L 1045.254772 624.566615 
L 1045.516183 625.123808 
L 1048.078008 630.847694 
L 1053.358506 642.447427 
L 1061.462241 661.543932 
L 1063.082988 666.356048 
L 1065.121992 672.333203 
L 1066.063071 680.083243 
L 1067.631535 697.001632 
L 1069.2 706.473903 
L 1069.2 709.614443 
L 1066.167635 714.071982 
L 1065.174274 717.06056 
L 1065.644813 720.35306 
L 1066.690456 729.116178 
L 1065.958506 729.268139 
L 1063.553527 729.622716 
L 1061.305394 729.926639 
L 1060.625726 729.825332 
L 1055.763485 729.166832 
L 1050.430705 727.343293 
L 1040.078838 722.733792 
L 1038.301245 725.114523 
L 1036.837344 728.457678 
L 1034.380083 734.13091 
L 1033.282158 736.916872 
L 1030.406639 740.158719 
L 1029.831535 741.728988 
L 1030.511203 742.083565 
L 1031.975104 742.742065 
L 1035.478008 743.349912 
L 1037.621577 743.653835 
L 1038.092116 744.869527 
L 1037.778423 745.983912 
L 1036.680498 747.65549 
L 1034.118672 749.276413 
L 1029.9361 751.099952 
L 1027.792531 751.454529 
L 1024.185062 751.049298 
L 1020.943568 750.846683 
L 1017.440664 752.467606 
L 1012.892116 755.608145 
L 1010.853112 757.988877 
L 1010.434855 759.305877 
L 1010.121162 761.889224 
L 1009.59834 765.232378 
L 1008.082158 767.967687 
L 1006.879668 768.423571 
L 1005.938589 768.423571 
L 1001.756017 767.461148 
L 1000.971784 768.01834 
L 1000.501245 768.778148 
L 1000.762656 770.449726 
L 1002.383402 775.768381 
L 1004.108714 785.189998 
L 1006.827386 795.624693 
L 1006.827386 798.309347 
L 1006.879668 800.284848 
L 1005.206639 803.222772 
L 1002.06971 805.248926 
L 998.514523 806.717888 
L 997.050622 807.528349 
L 995.952697 808.997311 
L 995.639004 811.023466 
L 995.53444 812.695043 
L 995.900415 815.227736 
L 996.370954 817.405852 
L 989.940249 818.16566 
L 981.156846 822.825814 
L 970.177593 828.600354 
L 968.138589 829.46147 
L 960.296266 836.806279 
L 957.107054 840.048126 
L 955.956846 842.07428 
L 955.747718 845.062858 
L 956.165975 845.468089 
L 956.897925 848.304705 
L 956.584232 849.925628 
L 952.192531 855.649514 
L 961.655602 865.83094 
L 956.218257 867.451863 
L 951.66971 869.883248 
L 951.356017 870.136518 
L 951.042324 870.69371 
L 950.362656 873.023787 
L 949.99668 874.188826 
L 949.682988 875.252557 
L 949.00332 877.278712 
L 948.323651 878.899635 
L 947.748548 879.912712 
L 947.225726 880.469905 
L 945.970954 881.381674 
L 943.775104 882.90129 
L 927.149378 887.206868 
L 871.312033 897.388293 
L 887.676349 934.365609 
L 890.917842 941.710419 
L 873.66473 948.143458 
L 872.409959 948.649997 
L 855.365975 955.437614 
L 837.694606 962.4785 
L 836.648963 962.883731 
L 835.289627 963.339616 
L 820.546058 967.746501 
L 790.849793 976.610926 
L 752.683817 988.311968 
L 751.429046 988.717198 
L 744.423237 977.168119 
L 744.26639 976.91485 
L 719.484647 935.631956 
L 711.694606 942.824803 
L 704.793361 931.832916 
L 686.285477 951.132036 
L 688.585892 954.829768 
L 659.255602 983.09462 
L 651.151867 973.318426 
L 641.165975 982.942659 
L 640.695436 983.34789 
L 631.755187 995.3022 
L 614.502075 1019.210821 
L 612.410788 1022.148745 
L 607.078008 1016.678128 
L 606.502905 1017.437936 
L 604.777593 1019.869321 
L 602.581743 1022.959206 
L 600.385892 1025.998438 
L 598.712863 1028.379169 
L 595.471369 1032.684747 
L 592.595851 1036.585094 
L 589.249793 1041.194595 
L 588.46556 1042.359634 
L 584.021577 1048.438097 
L 581.041494 1052.541059 
L 579.943568 1054.010021 
L 578.375104 1056.036175 
L 524.576763 1009.434626 
L 522.485477 1007.661741 
L 517.623237 1003.457471 
L 496.187552 984.867505 
L 493.155187 983.145274 
L 484.99917 975.547195 
L 472.608299 963.947462 
L 458.230705 955.741537 
L 442.127801 946.72515 
L 431.619087 940.646688 
L 428.639004 938.924456 
L 413.634025 930.465262 
L 399.204149 921.651491 
L 397.897095 920.891683 
L 380.33029 910.659604 
L 359.208299 898.755947 
L 327.839004 880.520558 
L 327.420747 880.267289 
L 328.518672 878.646366 
L 312.311203 873.175749 
L 307.39668 871.554826 
L 278.484647 864.969824 
L 278.014108 864.868516 
L 275.609129 864.311324 
L 176.586722 841.66905 
L 174.652282 841.263819 
L 140.616598 834.577509 
L 126.082158 828.347085 
L 125.088797 827.131392 
L 90.53029 782.657305 
L 87.707054 778.807612 
L 78.871369 767.714417 
L 75.891286 764.016686 
L 78.766805 760.622877 
L 65.121162 737.524718 
L 55.762656 721.568753 
L 51.580083 714.477213 
L 35.372614 678.918205 
L 27.791701 670.813588 
L 10.8 652.476891 
L 17.33527 627.504539 
L 14.355187 624.515962 
L 12.420747 620.615615 
L 11.009129 610.434189 
L 123.781743 607.597573 
L 128.591701 607.546919 
L 133.349378 604.760957 
L 155.20332 585.917722 
L 168.744398 574.216681 
L 176.116183 563.17414 
L 197.86556 520.320976 
L 201.577593 513.026821 
L 219.039834 484.154122 
L 233.208299 466.881156 
L 243.40332 454.470961 
L 254.957676 442.668612 
L 295.26722 419.621107 
L 303.736929 415.06226 
L 309.644813 411.921721 
L 326.322822 402.348142 
L 389.113693 366.333249 
L 403.073029 358.329939 
L 424.404149 344.450782 
L 428.273029 342.475282 
L 430.155187 338.574935 
L 423.776763 300.888465 
L 417.764315 291.314886 
L 411.176763 285.844269 
L 388.06805 266.545149 
L 386.917842 256.870262 
L 386.238174 239.394681 
L 385.349378 216.245868 
L 366.214108 178.71136 
L 347.078838 139.302659 
L 344.882988 123.853232 
L 346.712863 117.014961 
L 352.097925 110.784537 
L 353.352697 109.670152 
L 357.430705 106.326997 
L 358.319502 99.488726 
L 357.639834 88.800762 
L 361.979253 81.911838 
L 372.592531 65.196065 
L 385.244813 56.280986 
L 399.46556 51.2156 
L 406.314523 47.213945 
L 409.503734 27.306979 
L 411.647303 28.421364 
L 414.470539 30.59948 
L 427.175104 33.993288 
L 434.965145 33.891981 
L 451.434025 24.976902 
L 456.296266 23.963825 
L 457.289627 25.888671 
L 460.321992 32.57498 
L 459.537759 44.174714 
L 445.160166 63.676449 
L 436.53361 76.339913 
L 442.180083 78.821953 
L 450.074689 81.15203 
L 477.836515 75.174875 
L 479.039004 74.921605 
L 500.213278 74.161798 
L 516.473029 75.884029 
L 535.817427 86.318723 
L 547.162656 89.104686 
L 555.736929 88.952724 
" clip-path="url(#p7ab8f67c4d)"/>
   </g>
  </g>
 </g>
 <defs>
  <clipPath id="p7ab8f67c4d">
   <rect x="10.8" y="23.963825" width="1058.4" height="1032.072351"/>
  </clipPath>
 </defs>
</svg>
