<?xml version="1.0" encoding="utf-8" standalone="no"?>
<!DOCTYPE svg PUBLIC "-//W3C//DTD SVG 1.1//EN"
  "http://www.w3.org/Graphics/SVG/1.1/DTD/svg11.dtd">
<svg xmlns:xlink="http://www.w3.org/1999/xlink" width="1080pt" height="1080pt" viewBox="0 0 1080 1080" xmlns="http://www.w3.org/2000/svg" version="1.1">
 <metadata>
  <rdf:RDF xmlns:dc="http://purl.org/dc/elements/1.1/" xmlns:cc="http://creativecommons.org/ns#" xmlns:rdf="http://www.w3.org/1999/02/22-rdf-syntax-ns#">
   <cc:Work>
    <dc:type rdf:resource="http://purl.org/dc/dcmitype/StillImage"/>
    <dc:date>2022-07-01T13:43:17.885528</dc:date>
    <dc:format>image/svg+xml</dc:format>
    <dc:creator>
     <cc:Agent>
      <dc:title>Matplotlib v3.5.1, https://matplotlib.org/</dc:title>
     </cc:Agent>
    </dc:creator>
   </cc:Work>
  </rdf:RDF>
 </metadata>
 <defs>
  <style type="text/css">*{stroke-linejoin: round; stroke-linecap: butt}</style>
 </defs>
 <g id="figure_1">
  <g id="patch_1">
   <path d="M 0 1080 
L 1080 1080 
L 1080 0 
L 0 0 
L 0 1080 
z
" style="fill: none; opacity: 0"/>
  </g>
  <g id="axes_1">
   <g id="PatchCollection_1">
    <path d="M 289.887611 328.517035 
L 287.393176 330.478454 
L 283.814202 332.825151 
L 281.898186 333.73581 
L 277.921549 335.031747 
L 276.620105 335.557127 
L 275.644021 336.117532 
L 275.282508 336.818039 
L 275.282508 337.553571 
L 275.860928 338.779458 
L 277.053919 341.09113 
L 277.053919 342.527168 
L 276.873163 344.488587 
L 274.45103 350.407869 
L 273.728005 352.369287 
L 273.728005 354.856086 
L 275.101752 356.642378 
L 275.860928 358.393645 
L 275.89708 360.355063 
L 275.174055 365.889066 
L 274.270274 369.496675 
L 274.342576 376.957072 
L 273.474946 385.538278 
L 274.053366 388.200204 
L 275.427113 391.247408 
L 276.005533 393.173801 
L 276.041685 394.960093 
L 275.644021 396.221005 
L 274.74024 398.917956 
L 274.378727 401.579881 
L 274.053366 409.250429 
L 274.487181 411.912355 
L 275.246357 413.173267 
L 277.523886 414.749407 
L 281.753581 416.325547 
L 284.971042 416.290521 
L 288.40541 416.465648 
L 292.201291 417.656509 
L 295.635659 419.232649 
L 297.732432 420.668688 
L 299.865355 422.419955 
L 301.781371 423.645841 
L 305.215739 425.046855 
L 310.16846 426.447868 
L 316.061113 427.638729 
L 323.472118 427.568679 
L 328.027175 428.269185 
L 331.461543 428.584413 
L 335.076668 428.549388 
L 337.534952 428.724515 
L 338.691792 429.425021 
L 339.342515 430.931111 
L 339.993237 433.067656 
L 340.716262 435.204202 
L 341.583892 437.550899 
L 343.174547 439.687444 
L 344.006025 440.24785 
L 344.475991 440.24785 
L 345.452075 439.897596 
L 356.442053 435.869683 
L 357.77965 435.414354 
L 358.502674 434.608771 
L 359.551061 432.682377 
L 360.852505 431.876795 
L 362.44316 431.666643 
L 370.468737 430.020452 
L 371.553274 429.880351 
L 373.216231 430.440756 
L 376.361389 431.981871 
L 377.915893 432.647352 
L 379.86806 432.997605 
L 381.784076 432.612327 
L 383.193975 432.156997 
L 384.278512 432.156997 
L 384.423117 432.367149 
L 384.531571 432.822479 
L 384.314663 433.733137 
L 382.398647 437.480848 
L 381.241808 439.72247 
L 380.771841 441.088458 
L 380.193421 442.664598 
L 379.361943 446.167131 
L 379.036582 448.548854 
L 379.28964 449.109259 
L 379.759607 449.424487 
L 381.097203 449.529563 
L 381.820227 449.984892 
L 382.398647 451.000627 
L 383.04937 453.137172 
L 383.04937 454.923464 
L 382.47095 456.53463 
L 381.061051 459.897062 
L 380.374178 462.734114 
L 379.904211 465.220913 
L 379.687304 467.427509 
L 380.952598 466.867103 
L 383.121672 465.46609 
L 384.567722 464.590456 
L 385.507654 464.48538 
L 386.158377 464.625482 
L 386.772948 465.290963 
L 387.062158 465.851369 
L 387.062158 466.586901 
L 385.977621 468.233091 
L 385.07384 469.564054 
L 384.965386 470.19451 
L 385.543806 471.175219 
L 387.279065 472.926486 
L 389.918106 474.712778 
L 391.400307 475.518361 
L 394.0755 476.429019 
L 397.148355 476.814298 
L 399.425884 476.779273 
L 400.618875 476.393994 
L 401.088841 475.833589 
L 400.871934 474.992981 
L 399.498186 473.556942 
L 399.100523 472.506182 
L 399.389733 471.385371 
L 401.378051 470.054409 
L 404.631663 468.443243 
L 405.643898 468.408218 
L 406.547679 469.073699 
L 407.343006 469.914307 
L 408.89751 473.732069 
L 409.801291 475.028006 
L 410.198955 475.238158 
L 410.885828 475.203133 
L 411.391946 474.92293 
L 412.151122 473.451866 
L 412.765693 472.856435 
L 413.669474 472.576233 
L 417.356901 471.875726 
L 418.802951 471.560498 
L 419.598279 471.700599 
L 421.478143 472.576233 
L 421.839656 472.891461 
L 422.237319 473.732069 
L 422.056563 475.588411 
L 421.984261 476.919374 
L 422.165017 477.619881 
L 422.237319 478.145261 
L 422.490378 480.597034 
L 423.502613 481.892971 
L 424.623302 482.523427 
L 425.129419 483.293985 
L 425.093268 484.239669 
L 424.659453 485.150327 
L 423.900277 485.640682 
L 422.851891 485.920885 
L 422.128866 485.990935 
L 421.803504 486.306163 
L 421.333538 487.952354 
L 421.152782 488.968089 
L 421.116631 489.948798 
L 421.225085 490.859457 
L 421.225085 491.279761 
L 421.188933 491.665039 
L 420.068245 498.144726 
L 419.887488 499.54574 
L 419.742883 500.14117 
L 419.309069 500.841677 
L 418.405287 502.067564 
L 417.718414 502.943197 
L 417.465355 503.538628 
L 417.465355 504.204109 
L 417.718414 505.885325 
L 417.971472 506.760958 
L 420.249001 509.247757 
L 423.647218 511.769581 
L 424.984814 512.855366 
L 431.022072 516.813229 
L 433.914172 517.653837 
L 437.384691 518.494445 
L 438.649985 518.844698 
L 441.867445 519.720332 
L 446.169444 520.070585 
L 450.326837 519.755357 
L 453.002029 519.05485 
L 456.038733 517.058406 
L 457.37633 516.322874 
L 458.497018 517.373634 
L 459.473102 518.634546 
L 459.473102 519.720332 
L 460.449185 520.420838 
L 462.545958 521.296472 
L 465.79957 521.996978 
L 468.113249 521.821852 
L 473.06597 519.615256 
L 476.861851 517.618812 
L 478.741715 515.622368 
L 480.260068 513.625924 
L 481.597664 512.014758 
L 483.116016 511.1041 
L 485.212788 510.543694 
L 487.88798 510.543694 
L 489.803996 510.893948 
L 491.539256 511.769581 
L 493.816785 511.944708 
L 496.130464 511.734556 
L 498.805656 510.999024 
L 500.866277 509.177706 
L 501.80621 507.741668 
L 502.203873 506.130502 
L 502.167722 504.134058 
L 501.770058 501.64726 
L 500.432462 500.211221 
L 498.516446 499.160461 
L 496.88964 498.03965 
L 494.792868 496.358434 
L 493.419121 494.221889 
L 492.009222 491.349811 
L 492.22613 490.229001 
L 493.636028 489.143215 
L 496.31122 488.05743 
L 498.769505 486.936619 
L 500.287857 485.675707 
L 501.625453 483.889415 
L 503.722226 482.243225 
L 507.156594 480.597034 
L 509.831786 479.861502 
L 511.422441 479.581299 
L 520.713311 476.814298 
L 522.014756 476.429019 
L 522.954688 476.429019 
L 523.858469 477.02445 
L 525.05146 478.355413 
L 526.135998 480.70211 
L 526.931325 482.173174 
L 527.835106 482.768605 
L 528.775038 482.908706 
L 531.377928 483.364035 
L 532.426314 483.364035 
L 533.4747 482.873681 
L 534.378481 481.367591 
L 534.92075 480.526983 
L 536.07759 480.246781 
L 538.065908 480.386882 
L 540.668798 480.842211 
L 541.934092 481.367591 
L 542.910175 481.822921 
L 544.356225 482.173174 
L 546.995266 482.173174 
L 548.441316 481.647794 
L 550.140424 480.912262 
L 562.648755 472.085878 
L 563.046419 471.700599 
L 563.805595 470.579789 
L 564.564771 465.185887 
L 567.999139 454.328034 
L 568.794467 452.226514 
L 569.806702 449.984892 
L 573.421826 441.613838 
L 573.927943 440.598103 
L 574.867876 439.862571 
L 576.169321 439.477292 
L 579.169874 438.846836 
L 581.917369 438.356482 
L 585.315586 437.09557 
L 587.954626 436.079835 
L 589.50913 434.853948 
L 593.919582 431.001161 
L 596.016354 428.75954 
L 598.076975 425.782387 
L 598.22158 424.801677 
L 598.076975 424.066145 
L 594.895666 419.652953 
L 592.509683 414.994584 
L 590.919029 412.052456 
L 589.183769 409.495607 
L 586.797787 406.308301 
L 586.110913 404.837237 
L 585.857854 403.471249 
L 585.966308 402.245362 
L 587.918475 399.758564 
L 590.37676 397.166689 
L 592.365078 395.695625 
L 593.377313 395.065169 
L 594.570304 394.925068 
L 596.160959 394.434713 
L 597.06474 393.664156 
L 598.763849 392.05299 
L 599.342269 391.00223 
L 599.776084 390.231673 
L 600.82447 388.480406 
L 601.728251 386.27381 
L 602.885091 383.296657 
L 603.246603 381.580416 
L 604.150384 379.093617 
L 604.294989 377.622553 
L 604.294989 376.887021 
L 603.752721 375.906312 
L 603.355057 374.925602 
L 603.355057 374.084994 
L 603.861174 372.333727 
L 605.379527 368.515966 
L 606.572518 366.904801 
L 607.620904 365.78399 
L 608.127021 365.538813 
L 609.175407 365.538813 
L 610.766062 365.889066 
L 611.922902 365.748965 
L 613.513557 364.663179 
L 615.574178 362.526634 
L 617.526345 360.179937 
L 617.779404 359.199227 
L 624.142023 351.283502 
L 625.985736 349.427159 
L 627.395635 347.465741 
L 627.54024 346.450006 
L 627.25103 344.873866 
L 626.853366 343.017523 
L 627.106425 342.14189 
L 627.901752 340.916003 
L 629.962373 339.199762 
L 631.661482 338.184027 
L 645.001291 330.723631 
L 646.302736 330.478454 
L 648.544113 330.688606 
L 654.581371 332.369822 
L 658.558008 333.455607 
L 660.220965 333.455607 
L 664.306056 333.420582 
L 667.342761 332.790126 
L 672.042422 331.529214 
L 678.188134 329.53277 
L 682.237073 327.151047 
L 684.478451 325.785059 
L 685.635291 325.434806 
L 687.768214 325.39978 
L 689.720381 325.750034 
L 692.359422 326.590642 
L 693.263203 327.221098 
L 693.660867 327.816528 
L 693.697018 328.797238 
L 693.950077 329.53277 
L 694.600799 330.163226 
L 696.444513 330.408403 
L 701.57799 331.213986 
L 703.421703 331.459163 
L 705.120812 331.073884 
L 707.615247 329.953074 
L 709.965078 328.727187 
L 710.86886 328.096731 
L 711.374977 327.116022 
L 712.314909 326.590642 
L 713.363295 326.485566 
L 714.267077 326.590642 
L 717.55684 328.55206 
L 719.545158 329.392668 
L 720.593544 329.392668 
L 722.039594 329.252567 
L 723.449493 328.02668 
L 725.365509 326.555616 
L 727.13692 325.785059 
L 729.739809 325.014502 
L 734.475623 324.138868 
L 735.632462 324.489122 
L 736.572395 325.224654 
L 739.609099 328.271858 
L 740.657485 329.147491 
L 742.392745 329.988099 
L 744.344912 330.338352 
L 748.032339 330.933783 
L 750.924439 331.669315 
L 753.27427 332.509923 
L 761.444451 336.642912 
L 764.336551 338.359154 
L 765.131878 339.094686 
L 765.16803 339.935294 
L 763.866585 342.912447 
L 763.468921 344.523612 
L 762.85435 348.586551 
L 762.203627 352.999743 
L 761.733661 356.467251 
L 761.733661 357.553037 
L 762.239779 358.288569 
L 764.083492 359.654557 
L 766.216416 360.880443 
L 767.264802 361.966229 
L 768.602398 364.312926 
L 769.795389 366.274345 
L 771.639102 367.990586 
L 772.940547 368.586017 
L 774.784261 369.321549 
L 777.96557 370.162157 
L 779.520074 370.757587 
L 782.556778 371.843373 
L 785.304273 372.578905 
L 786.497264 373.174335 
L 787.943314 374.785501 
L 789.28091 376.992097 
L 791.666892 380.42458 
L 793.655211 382.736252 
L 794.956655 383.471784 
L 797.740301 384.557569 
L 801.789241 385.783456 
L 804.68134 386.238785 
L 808.766431 386.974317 
L 810.718598 386.939292 
L 812.164648 386.834216 
L 813.39379 386.343861 
L 814.406025 385.468228 
L 815.273655 384.62762 
L 817.551184 378.498186 
L 818.527267 376.186514 
L 819.033385 374.925602 
L 819.17799 374.225095 
L 819.033385 373.594639 
L 817.44273 373.629665 
L 816.141285 372.999209 
L 815.526714 372.053525 
L 815.056748 371.177891 
L 814.008362 368.971295 
L 813.683 367.570282 
L 813.610698 367.325105 
L 813.610698 366.904801 
L 813.610698 366.484497 
L 813.719152 365.503787 
L 813.936059 364.488053 
L 814.116815 363.542369 
L 814.369874 362.946938 
L 814.659084 362.351507 
L 815.237504 361.756077 
L 816.828159 360.249987 
L 818.816477 358.638822 
L 819.503351 358.253543 
L 821.600123 357.342885 
L 822.250845 357.237809 
L 823.010022 357.167758 
L 823.8415 357.37791 
L 825.612911 357.973341 
L 826.697449 358.148467 
L 828.17965 358.253543 
L 829.698002 358.078417 
L 831.1079 357.728163 
L 833.276975 356.85253 
L 833.855395 356.607353 
L 837.289763 355.416491 
L 840.579527 354.155579 
L 841.700215 353.805326 
L 842.206333 353.840351 
L 842.531694 354.330706 
L 842.603996 355.976897 
L 842.857055 357.728163 
L 843.29087 358.743898 
L 844.664617 359.829683 
L 846.580633 361.195671 
L 848.424347 362.386533 
L 851.931018 364.453027 
L 852.87095 365.25861 
L 853.630126 366.134243 
L 853.955487 367.220029 
L 854.497756 367.815459 
L 856.088411 368.515966 
L 860.209653 369.776878 
L 861.619551 369.881954 
L 863.824777 369.46165 
L 865.740793 368.971295 
L 868.162927 368.060637 
L 872.284168 366.729674 
L 874.525546 366.729674 
L 877.489948 366.799725 
L 881.430433 367.079927 
L 884.069474 367.465206 
L 885.98549 367.850485 
L 888.335321 368.831194 
L 889.347556 369.041346 
L 890.468245 369.321549 
L 892.384261 369.426625 
L 893.866462 369.391599 
L 894.806394 369.601751 
L 895.240209 370.092106 
L 896.830864 372.473829 
L 898.45767 375.345906 
L 899.3253 377.622553 
L 900.265232 379.724073 
L 900.373686 380.704782 
L 900.409837 381.895644 
L 900.301383 383.716961 
L 900.518291 384.907822 
L 901.169013 386.20376 
L 902.217399 387.184469 
L 903.301937 387.674824 
L 906.700154 388.060102 
L 908.182355 388.445381 
L 909.989917 389.321014 
L 913.171227 391.492585 
L 914.798033 393.138776 
L 909.19459 403.050945 
L 907.965447 403.681401 
L 907.423179 403.681401 
L 906.555549 403.191046 
L 905.290255 401.895109 
L 904.024962 400.704248 
L 902.83197 400.704248 
L 902.000492 401.019476 
L 901.349769 402.000185 
L 900.952106 403.01592 
L 900.735198 403.996629 
L 900.735198 405.187491 
L 900.952106 406.483428 
L 900.988257 407.499163 
L 900.879803 408.094593 
L 900.337535 408.690024 
L 898.855334 410.091037 
L 897.30083 411.176823 
L 895.890931 411.702203 
L 894.734092 411.702203 
L 892.637319 411.807279 
L 891.335875 412.122507 
L 890.829757 412.717937 
L 890.287488 414.609305 
L 889.889825 416.290521 
L 889.889825 416.991028 
L 890.215186 417.831636 
L 890.649001 418.392041 
L 891.118967 418.672244 
L 892.058899 419.162599 
L 893.396496 420.108283 
L 893.83031 421.088992 
L 894.770243 423.750917 
L 894.770243 424.626551 
L 894.553335 425.116905 
L 893.866462 426.272741 
L 893.432647 427.498628 
L 893.468798 428.934667 
L 894.191823 429.705224 
L 895.095604 430.090503 
L 895.601721 430.090503 
L 906.157885 427.918932 
L 916.46099 427.008273 
L 917.798586 427.008273 
L 919.967661 427.078324 
L 924.558869 427.743805 
L 926.294128 428.199135 
L 927.957086 428.969692 
L 933.199016 431.491516 
L 936.380326 432.892529 
L 936.922595 433.277808 
L 937.0672 433.452935 
L 937.320258 433.908264 
L 937.428712 434.328568 
L 937.320258 434.818923 
L 936.886443 435.484404 
L 936.127267 436.780342 
L 935.801906 437.410798 
L 935.693452 438.006228 
L 935.729603 438.846836 
L 935.838057 439.512318 
L 936.994897 441.578812 
L 938.477098 444.205712 
L 939.70624 445.5717 
L 940.899231 446.202156 
L 942.670642 446.692511 
L 945.345835 447.568144 
L 946.791884 448.548854 
L 947.623363 449.564588 
L 948.274085 450.545298 
L 948.310237 451.701134 
L 947.912573 452.821944 
L 946.177313 456.709756 
L 945.273532 457.865592 
L 944.875868 458.496048 
L 944.04439 459.23158 
L 941.513803 460.247315 
L 940.176207 460.877771 
L 939.525484 461.508227 
L 938.874762 462.769139 
L 938.224039 465.290963 
L 938.079434 467.427509 
L 938.224039 468.303142 
L 939.055518 469.809231 
L 942.670642 474.92293 
L 944.695112 476.919374 
L 946.719582 477.935109 
L 948.852505 479.160995 
L 950.334706 480.421907 
L 952.069966 483.434086 
L 955.034368 486.656417 
L 956.805779 488.162506 
L 957.601107 488.407683 
L 958.251829 488.652861 
L 959.480971 488.652861 
L 960.529358 488.512759 
L 961.866954 487.882303 
L 963.457608 485.885859 
L 966.638918 481.717845 
L 968.374178 479.826477 
L 969.856379 478.670641 
L 970.76016 478.425463 
L 971.302429 478.565565 
L 972.531571 479.055919 
L 973.869167 480.562009 
L 974.556041 483.048807 
L 974.411436 485.080277 
L 973.760713 487.707177 
L 972.856932 489.458443 
L 972.459268 490.474178 
L 972.459268 491.20971 
L 972.856932 491.489913 
L 973.507654 491.980267 
L 974.845251 491.349811 
L 976.833569 489.703621 
L 980.701752 486.656417 
L 982.979281 484.37977 
L 984.316877 483.889415 
L 985.907532 483.889415 
L 987.932001 484.134593 
L 989.124992 484.730023 
L 989.811866 485.745758 
L 990.751798 488.127481 
L 991.980941 491.489913 
L 992.920873 493.381281 
L 993.969259 494.116813 
L 995.198401 494.502091 
L 996.644451 494.502091 
L 997.873594 494.36199 
L 999.861912 493.591433 
L 1002.139441 491.945242 
L 1003.983154 490.053874 
L 1005.573809 488.05743 
L 1007.959791 484.414795 
L 1009.152782 483.153883 
L 1010.888042 482.523427 
L 1014.756225 481.472667 
L 1018.913618 480.597034 
L 1022.528743 480.211755 
L 1024.806271 480.17673 
L 1026.143867 480.421907 
L 1027.481463 481.297541 
L 1029.216723 482.558453 
L 1029.758992 483.539162 
L 1030.156655 485.920885 
L 1030.59047 486.936619 
L 1030.843529 487.812253 
L 1031.638856 488.302607 
L 1032.723394 488.687886 
L 1033.916385 489.423418 
L 1036.736182 491.419862 
L 1040.242853 494.046762 
L 1041.182785 494.922395 
L 1041.435844 495.798029 
L 1041.435844 496.91884 
L 1040.929726 497.794473 
L 1039.736735 498.56503 
L 1036.121611 499.09041 
L 1033.446419 499.966044 
L 1032.398033 500.5965 
L 1031.313495 501.367057 
L 1029.72284 502.76807 
L 1029.578235 503.503602 
L 1029.578235 504.519337 
L 1030.156655 506.025426 
L 1030.662773 507.006136 
L 1030.698924 507.776693 
L 1030.409714 508.512225 
L 1029.108269 510.298517 
L 1026.686136 512.540138 
L 1025.782355 513.170594 
L 1025.240086 514.081253 
L 1025.240086 516.568052 
L 1025.673901 520.350788 
L 1025.818506 523.608144 
L 1025.818506 524.974132 
L 1026.360775 525.989867 
L 1027.662219 527.285804 
L 1028.385244 527.986311 
L 1029.469782 529.352299 
L 1031.205042 532.364477 
L 1031.638856 534.360921 
L 1031.494251 536.882745 
L 1030.59047 542.276647 
L 1029.831294 546.689839 
L 1029.144421 547.950751 
L 1028.096034 549.071561 
L 1026.613833 550.192372 
L 1026.360775 551.453284 
L 1026.360775 552.469019 
L 1027.047648 553.484753 
L 1028.240639 554.360387 
L 1030.915832 555.341096 
L 1034.675561 556.076628 
L 1036.555426 556.707084 
L 1039.230618 558.073072 
L 1046.858531 563.011644 
L 1053.22115 567.705039 
L 1055.896342 571.172547 
L 1057.776207 574.640055 
L 1059.366861 579.578627 
L 1062.837381 582.55578 
L 1066.814018 585.497909 
L 1068.115463 587.73953 
L 1069.2 589.981151 
L 1069.2 592.678102 
L 1067.898555 596.180635 
L 1065.006456 600.663878 
L 1059.511466 606.12783 
L 1055.570981 608.369451 
L 1047.328497 612.327314 
L 1044.21949 613.308023 
L 1042.122717 613.903454 
L 1040.387458 614.043555 
L 1039.628282 613.763353 
L 1038.652198 612.502441 
L 1038.218383 612.187213 
L 1037.639963 612.117162 
L 1036.700031 612.187213 
L 1033.663326 613.202947 
L 1031.855764 613.693302 
L 1030.988134 613.763353 
L 1030.482017 613.763353 
L 1029.43363 613.518175 
L 1028.855211 613.378074 
L 1027.806824 613.378074 
L 1025.92696 613.868429 
L 1022.637196 615.51462 
L 1019.636643 617.476038 
L 1016.63609 619.19228 
L 1013.888595 621.538977 
L 1013.274024 622.204458 
L 1013.310175 622.764864 
L 1013.74399 623.640497 
L 1014.503166 624.866384 
L 1015.045435 626.162321 
L 1015.117737 627.703436 
L 1015.045435 629.489728 
L 1014.792376 631.240994 
L 1014.973132 632.712058 
L 1015.696157 634.323224 
L 1017.142207 635.934389 
L 1018.299047 636.915098 
L 1019.672794 637.720681 
L 1020.974239 637.720681 
L 1021.552659 637.790732 
L 1022.16723 638.281086 
L 1022.673348 639.471948 
L 1023.90249 642.624228 
L 1024.517061 644.725748 
L 1024.553212 647.177521 
L 1023.287919 649.559244 
L 1022.962558 650.119649 
L 1021.950323 651.835891 
L 1020.215063 654.287664 
L 1018.696711 658.981059 
L 1017.50372 662.728769 
L 1017.539871 664.830289 
L 1018.588257 672.605913 
L 1018.443652 674.392205 
L 1017.937535 675.197788 
L 1016.889148 676.003371 
L 1014.503166 676.98408 
L 1012.767907 677.159207 
L 1011.032647 677.159207 
L 1010.165017 677.334334 
L 1009.478143 677.824688 
L 1008.827421 679.295752 
L 1007.272917 683.358691 
L 1005.067691 687.386604 
L 1003.693944 689.838378 
L 1002.681709 690.64396 
L 1000.946449 691.134315 
L 999.247341 692.290151 
L 998.379711 693.095734 
L 997.873594 694.741924 
L 997.873594 697.824154 
L 997.728989 702.167295 
L 997.76514 706.895715 
L 997.584384 707.701298 
L 996.89751 708.506881 
L 995.704519 709.172362 
L 992.089394 709.662717 
L 990.534891 709.837843 
L 989.667261 710.643426 
L 989.522656 711.939363 
L 988.510421 717.613467 
L 987.31743 720.695697 
L 985.618322 723.462698 
L 983.557701 725.108889 
L 979.942576 727.210409 
L 978.568829 727.87589 
L 977.556594 727.87589 
L 975.640578 726.930206 
L 971.483185 724.338331 
L 967.145035 720.310418 
L 963.674516 715.617023 
L 962.120012 714.496213 
L 961.252382 714.180985 
L 959.878635 714.180985 
L 952.142269 715.196719 
L 945.960406 716.702809 
L 940.28466 718.489101 
L 939.41703 718.524126 
L 938.187888 718.173873 
L 935.078881 716.107378 
L 932.512143 714.811441 
L 930.776883 714.811441 
L 928.897018 715.336821 
L 927.342515 716.632758 
L 925.46265 718.734278 
L 924.59502 720.030215 
L 923.582785 722.09671 
L 922.136735 723.182495 
L 919.786904 723.322597 
L 913.062773 722.201786 
L 910.134522 721.746457 
L 909.266892 720.765747 
L 908.580018 719.785038 
L 908.03775 716.387581 
L 907.676237 712.499769 
L 907.133969 711.203831 
L 906.266339 710.398249 
L 904.711835 709.942919 
L 902.325853 709.942919 
L 898.891485 710.783527 
L 896.288595 711.764237 
L 894.734092 711.939363 
L 892.348109 712.11449 
L 888.552229 712.11449 
L 883.382601 711.519059 
L 881.141223 711.028705 
L 880.273594 711.028705 
L 879.58672 711.203831 
L 878.71909 712.009414 
L 878.393729 713.795706 
L 878.502183 731.938829 
L 878.682939 733.900247 
L 879.912081 736.141869 
L 883.201844 739.714453 
L 885.11786 742.131201 
L 885.11786 742.936784 
L 884.756348 743.56724 
L 883.924869 743.742366 
L 881.141223 742.936784 
L 875.103966 740.555061 
L 873.043345 739.924605 
L 871.669597 739.924605 
L 867.873717 740.590086 
L 864.945466 741.255568 
L 859.595081 741.290593 
L 857.895973 741.46572 
L 855.654596 742.761657 
L 852.220227 745.038304 
L 849.798094 745.878912 
L 848.098986 746.19414 
L 846.544482 746.229165 
L 844.628466 745.73881 
L 840.326468 744.793126 
L 835.15684 744.022569 
L 828.794221 743.56724 
L 827.745835 743.252012 
L 826.372087 742.58653 
L 825.142945 740.975365 
L 823.949954 739.854554 
L 822.214694 739.539326 
L 818.59957 739.714453 
L 815.309806 740.379934 
L 812.381555 740.41496 
L 807.57344 739.95963 
L 802.042299 739.189073 
L 797.378789 737.402781 
L 794.956655 735.966742 
L 793.582908 735.651514 
L 792.389917 735.651514 
L 790.654657 735.826641 
L 786.714172 736.842376 
L 784.798156 737.017502 
L 783.099047 737.017502 
L 780.85767 736.702274 
L 776.700277 735.931717 
L 775.904949 735.371312 
L 774.278143 734.320551 
L 771.530649 731.658626 
L 769.470028 729.311929 
L 768.855457 728.786549 
L 768.421642 728.681473 
L 767.590163 728.681473 
L 765.999508 729.417005 
L 764.445005 729.592131 
L 762.85435 729.627157 
L 761.805964 729.101777 
L 760.82988 728.121067 
L 759.96225 727.35051 
L 759.275377 727.070307 
L 758.5162 727.035282 
L 757.033999 727.420561 
L 755.154135 728.086042 
L 752.948909 728.821574 
L 750.346019 729.241878 
L 747.092407 729.522081 
L 745.971718 729.522081 
L 745.610206 729.276903 
L 744.85103 728.40127 
L 744.27261 727.420561 
L 743.766492 726.965231 
L 743.296526 726.650003 
L 742.175838 726.650003 
L 740.982847 726.720054 
L 738.199201 726.755079 
L 736.319336 726.614978 
L 733.24648 726.194674 
L 730.282078 725.354066 
L 727.064617 724.128179 
L 725.257055 723.532749 
L 723.702551 723.217521 
L 722.762619 723.077419 
L 722.328804 723.042394 
L 719.111343 723.042394 
L 717.773747 722.867267 
L 716.183093 722.026659 
L 712.748724 718.839354 
L 711.374977 718.208898 
L 708.988995 717.683518 
L 708.012911 717.718543 
L 706.603013 718.629202 
L 706.349954 719.539861 
L 706.783769 720.205342 
L 707.759852 721.921583 
L 707.904457 723.602799 
L 707.904457 724.653559 
L 707.651399 725.844421 
L 707.10913 727.035282 
L 706.386105 727.945941 
L 705.699231 728.366245 
L 705.301568 728.366245 
L 704.180879 727.175383 
L 702.626376 725.739345 
L 701.361082 725.494167 
L 700.095789 725.354066 
L 696.191454 725.77437 
L 685.852198 725.844421 
L 680.97178 726.264725 
L 679.706486 726.29975 
L 679.308823 725.77437 
L 679.164218 724.828686 
L 678.441193 720.660671 
L 677.718168 719.189607 
L 676.886689 718.559151 
L 675.910606 718.313974 
L 674.066892 718.173873 
L 668.933415 718.594177 
L 663.040762 719.294683 
L 661.52241 719.504835 
L 660.65478 719.049506 
L 660.148663 718.384025 
L 660.148663 717.123113 
L 661.160898 715.827175 
L 661.992376 715.021593 
L 662.173132 714.040883 
L 661.667015 712.744946 
L 660.257117 710.503325 
L 658.377252 709.067286 
L 655.268245 707.491146 
L 653.243775 706.685563 
L 651.508515 706.720589 
L 648.291054 707.38607 
L 645.037442 708.682007 
L 641.78383 709.837843 
L 640.590839 710.153071 
L 639.578604 710.153071 
L 638.891731 709.697742 
L 637.156471 707.596222 
L 635.782724 706.510437 
L 632.854473 705.389626 
L 629.781617 705.074398 
L 626.3834 705.915006 
L 623.129788 707.210943 
L 621.611436 707.561197 
L 619.550815 707.561197 
L 617.67095 705.80993 
L 616.947925 704.058663 
L 616.080295 701.466788 
L 614.525792 697.964255 
L 612.248263 692.325176 
L 609.645374 685.600312 
L 608.09087 682.868336 
L 606.35561 680.171386 
L 605.126468 679.050575 
L 603.427359 677.754638 
L 601.872856 676.808954 
L 599.992991 676.353624 
L 596.739379 676.213523 
L 594.678758 676.528751 
L 592.798893 677.334334 
L 591.280541 678.630271 
L 589.581433 679.295752 
L 586.508577 679.470879 
L 583.074208 678.385094 
L 580.326714 677.124182 
L 578.085337 674.567332 
L 576.530833 673.761749 
L 574.470212 673.446521 
L 572.590347 672.991192 
L 571.2166 671.695255 
L 570.855088 669.453633 
L 570.855088 667.036885 
L 570.132063 665.775973 
L 569.119828 665.460745 
L 568.432954 665.460745 
L 567.565324 666.091201 
L 567.420719 667.247037 
L 567.095358 670.784596 
L 565.757762 672.220635 
L 563.697141 673.061243 
L 558.238303 673.726724 
L 549.345097 674.602357 
L 546.452997 674.462256 
L 544.717737 673.971901 
L 541.283369 672.570888 
L 539.728866 670.959723 
L 538.535875 669.838912 
L 537.162127 669.698811 
L 534.776145 669.873937 
L 530.148786 670.854647 
L 528.124316 672.325711 
L 525.91909 673.131293 
L 522.990839 673.341445 
L 521.110974 673.341445 
L 519.592622 673.201344 
L 517.676606 671.765305 
L 515.109868 670.819621 
L 513.736121 670.644495 
L 511.6755 670.67952 
L 510.157147 670.994748 
L 508.7834 671.835356 
L 506.939686 673.761749 
L 504.879065 676.038396 
L 503.360713 678.455144 
L 502.38463 681.047019 
L 501.191638 685.705388 
L 500.396311 689.558175 
L 499.890194 691.029239 
L 498.697203 692.325176 
L 497.17885 693.130759 
L 492.913003 693.971367 
L 488.791761 694.811975 
L 484.887427 695.792684 
L 482.139932 696.633292 
L 480.946941 697.894204 
L 478.741715 700.03075 
L 476.030372 702.13227 
L 473.319029 703.428207 
L 471.258408 703.463232 
L 468.872425 703.323131 
L 467.317922 703.148004 
L 465.112696 703.18303 
L 464.245066 703.498258 
L 463.558192 704.163739 
L 460.376883 711.729211 
L 459.72616 713.515503 
L 457.846296 715.932251 
L 456.327943 717.403315 
L 455.315709 718.699253 
L 455.134952 719.329709 
L 455.315709 720.765747 
L 456.183338 722.692141 
L 456.364095 723.322597 
L 456.038733 723.988078 
L 454.845742 724.303306 
L 449.206148 724.513458 
L 440.132186 724.093154 
L 437.565447 723.953053 
L 436.697817 723.953053 
L 436.1917 724.443407 
L 436.227851 725.24899 
L 438.79459 728.121067 
L 439.336858 729.417005 
L 439.336858 730.222587 
L 438.649985 730.712942 
L 437.456994 730.572841 
L 435.577129 729.136802 
L 428.527636 724.513458 
L 426.286259 723.252546 
L 424.731755 721.501279 
L 419.706732 715.26677 
L 417.646111 713.340377 
L 417.465355 712.534794 
L 417.465355 711.729211 
L 418.296834 709.312463 
L 418.441439 708.191653 
L 418.441439 707.38607 
L 417.60996 706.440386 
L 416.886935 706.510437 
L 415.368583 706.545462 
L 413.054903 706.33531 
L 410.596619 705.599778 
L 409.222871 705.354601 
L 407.596065 705.529727 
L 406.58383 706.615513 
L 405.571595 708.016526 
L 404.848571 709.872869 
L 404.125546 712.534794 
L 404.017092 715.161694 
L 404.378604 717.823619 
L 406.366923 723.14747 
L 408.89751 727.700763 
L 413.235659 734.495678 
L 414.970919 737.647958 
L 416.200061 741.220542 
L 416.561574 744.407848 
L 416.561574 747.279925 
L 415.260129 752.078396 
L 412.910298 756.876866 
L 409.222871 761.815438 
L 407.089948 763.636756 
L 404.740117 764.722541 
L 399.678943 767.104264 
L 395.955364 769.906291 
L 394.834676 771.377355 
L 393.822441 769.591063 
L 392.91866 768.084973 
L 390.749585 766.018479 
L 387.929788 763.951984 
L 383.772395 761.990565 
L 381.169505 761.535236 
L 378.747372 761.570261 
L 374.806886 762.165692 
L 373.18008 762.165692 
L 371.697879 761.920514 
L 370.360283 761.255033 
L 369.348048 759.538792 
L 368.408116 757.087018 
L 367.576637 754.355042 
L 366.347495 751.903269 
L 364.106117 748.961141 
L 362.262404 746.894646 
L 361.069413 746.054038 
L 356.875868 744.267746 
L 355.46597 742.446429 
L 354.923701 740.134757 
L 354.562189 737.017502 
L 354.959852 735.616489 
L 356.658961 733.374867 
L 357.092776 732.07893 
L 356.658961 730.782993 
L 354.453735 726.650003 
L 353.296895 725.564218 
L 351.886997 725.073863 
L 350.079434 725.003813 
L 347.512696 725.424117 
L 344.295235 726.860155 
L 340.06554 728.996701 
L 336.956532 731.623601 
L 332.943744 736.387046 
L 330.630065 738.31344 
L 328.063326 739.749478 
L 324.628958 740.800238 
L 320.290808 740.94034 
L 317.579465 741.045416 
L 312.988257 740.765213 
L 311.289148 740.48501 
L 310.819182 739.504301 
L 310.927636 738.698718 
L 312.084476 737.052528 
L 318.121734 730.467765 
L 322.785244 725.809395 
L 323.002152 724.513458 
L 322.893698 723.112445 
L 322.134522 721.781482 
L 320.399262 720.905849 
L 301.528312 716.212454 
L 299.178481 716.037327 
L 296.069474 716.282505 
L 293.936551 716.702809 
L 292.671257 717.613467 
L 291.405964 719.434785 
L 290.646788 720.555595 
L 289.923763 721.04595 
L 289.056133 721.151026 
L 287.754688 721.151026 
L 285.18795 720.800773 
L 281.247464 719.399759 
L 278.210759 718.033771 
L 276.547802 716.597733 
L 271.884291 709.172362 
L 266.678512 701.186586 
L 260.496649 691.869847 
L 258.797541 689.908428 
L 258.616785 689.768327 
L 256.592315 688.262238 
L 252.579527 686.651072 
L 244.951614 684.409451 
L 242.710237 683.919096 
L 241.191884 683.919096 
L 239.60123 684.3394 
L 237.251399 685.775439 
L 235.443836 687.911984 
L 234.720812 689.733302 
L 234.323148 693.235835 
L 234.359299 697.053596 
L 233.961635 699.365268 
L 233.238611 700.591155 
L 231.937166 701.221611 
L 229.695789 701.116535 
L 216.609038 698.314508 
L 208.149646 696.177963 
L 203.522287 694.917051 
L 199.328743 692.850556 
L 198.461113 691.834822 
L 198.461113 690.64396 
L 199.617953 687.49168 
L 199.581801 686.300819 
L 199.039533 684.899806 
L 196.255887 681.782551 
L 195.17135 681.011994 
L 193.869905 681.011994 
L 189.820965 683.673919 
L 188.881033 684.059198 
L 187.579588 683.989147 
L 186.820412 683.393716 
L 184.470581 680.276462 
L 182.843775 678.700322 
L 180.457793 677.194232 
L 176.58961 675.513016 
L 171.130772 673.866825 
L 169.612419 673.866825 
L 167.804857 674.392205 
L 166.539563 675.618092 
L 162.526775 680.486614 
L 159.996188 684.444476 
L 158.839348 687.246503 
L 158.8755 689.172896 
L 159.743129 691.16934 
L 162.38217 694.356646 
L 162.815985 695.37238 
L 162.67138 696.318064 
L 161.839902 697.40385 
L 160.357701 697.894204 
L 159.345466 697.99928 
L 158.947802 698.034306 
L 157.320996 697.123647 
L 155.911097 695.337355 
L 152.982847 690.819087 
L 152.22367 688.822643 
L 151.428343 684.899806 
L 151.428343 682.483058 
L 151.681402 677.649562 
L 152.042914 671.835356 
L 152.910544 661.467857 
L 153.018998 659.12116 
L 152.765939 657.825223 
L 151.356041 656.424209 
L 148.463941 654.147563 
L 144.161943 651.730815 
L 134.256502 647.632851 
L 128.906117 645.46128 
L 128.363849 645.251128 
L 126.37553 644.445545 
L 122.86886 643.289709 
L 115.710913 640.978037 
L 115.457854 640.978037 
L 114.843283 640.978037 
L 113.975653 641.468392 
L 110.577436 645.531331 
L 107.359975 650.71508 
L 107.576883 652.641473 
L 108.806025 656.003905 
L 110.722041 659.541464 
L 112.13194 662.903896 
L 112.13194 664.199833 
L 111.481217 666.126227 
L 105.371657 672.325711 
L 100.274331 677.999815 
L 99.406702 678.315043 
L 97.526837 678.350068 
L 83.283246 675.372915 
L 81.475684 674.742459 
L 80.318844 673.726724 
L 78.728189 670.854647 
L 77.245988 668.332823 
L 75.980695 667.52724 
L 74.96846 667.422164 
L 70.485706 669.138405 
L 69.473471 669.593735 
L 67.774362 669.908963 
L 66.436766 669.488659 
L 63.689271 667.52724 
L 61.411743 665.110492 
L 61.303289 664.480036 
L 61.230987 664.094757 
L 61.267138 662.588668 
L 62.49628 660.347047 
L 62.749339 659.751616 
L 63.508515 658.175476 
L 63.616969 656.949589 
L 63.002398 654.988171 
L 61.411743 653.026752 
L 58.664248 649.594269 
L 50.060252 636.319668 
L 49.084168 633.482616 
L 48.975715 623.500396 
L 49.445681 621.36385 
L 51.108638 618.842026 
L 54.94067 616.355228 
L 56.712081 615.129341 
L 56.784384 614.568935 
L 56.928989 613.237973 
L 56.422871 612.292289 
L 54.398401 612.082137 
L 45.794405 612.642542 
L 44.276053 611.942035 
L 43.769935 610.996351 
L 43.733784 609.104983 
L 44.456809 604.621741 
L 43.191516 602.940525 
L 40.624777 603.465905 
L 36.142023 605.847627 
L 33.864494 606.092805 
L 30.972395 604.761842 
L 27.501875 602.625297 
L 25.947372 600.033422 
L 25.947372 597.896877 
L 26.634245 593.623786 
L 27.682631 586.723795 
L 27.501875 585.042579 
L 27.031909 584.13192 
L 26.561943 583.676591 
L 25.549708 583.431414 
L 22.729911 582.730907 
L 18.427913 581.119742 
L 16.367292 579.718728 
L 15.065847 578.597918 
L 12.101445 575.900967 
L 10.8 573.589295 
L 10.908454 572.643611 
L 11.486874 571.417724 
L 15.499662 566.058848 
L 16.258838 565.533468 
L 16.511897 565.358342 
L 17.668737 565.21824 
L 18.861728 565.883722 
L 22.657608 568.020267 
L 24.826683 568.160368 
L 28.044144 567.84514 
L 31.514663 566.444127 
L 34.117553 564.237531 
L 36.105872 561.505555 
L 36.105872 560.524846 
L 35.4913 559.859364 
L 34.768275 559.474086 
L 32.888411 559.474086 
L 28.116446 561.575606 
L 26.272733 561.925859 
L 25.368952 561.715707 
L 24.754381 561.47053 
L 23.886751 560.524846 
L 24.429019 559.123832 
L 24.645927 558.773579 
L 24.682078 558.528402 
L 27.682631 555.971552 
L 29.634799 553.449728 
L 31.189302 550.752777 
L 33.105318 547.250244 
L 36.105872 539.824873 
L 37.335014 538.458885 
L 38.3834 538.108632 
L 39.359484 538.108632 
L 40.190962 538.108632 
L 44.49296 538.739088 
L 62.062465 542.416748 
L 63.291608 542.416748 
L 64.918414 541.716241 
L 67.195942 538.528936 
L 68.244328 535.411681 
L 69.111958 526.830475 
L 68.678143 524.623878 
L 66.83443 521.541649 
L 65.569136 519.720332 
L 65.207624 518.039116 
L 65.38838 517.058406 
L 66.075254 515.83252 
L 70.485706 514.361456 
L 74.245435 512.505113 
L 75.619182 511.17415 
L 76.99293 509.07263 
L 78.728189 505.184818 
L 80.21039 500.5965 
L 81.981801 495.903105 
L 83.68091 486.516315 
L 84.078574 484.449821 
L 83.97012 482.383326 
L 86.211497 481.963022 
L 86.57301 482.27825 
L 87.729849 483.784339 
L 88.92284 486.306163 
L 91.200369 491.139659 
L 94.309376 497.199042 
L 95.140855 497.9696 
L 96.116938 498.109701 
L 97.093022 498.354878 
L 97.816047 498.845233 
L 98.900584 500.841677 
L 100.274331 503.188374 
L 100.744298 503.503602 
L 104.034061 504.974666 
L 106.203136 505.745224 
L 106.92616 505.885325 
L 107.50458 505.465021 
L 108.263757 504.27416 
L 108.552966 503.888881 
L 109.23984 503.783805 
L 111.372764 504.414261 
L 111.770427 504.86959 
L 111.770427 506.515781 
L 112.095789 507.49649 
L 113.975653 510.12339 
L 114.843283 511.209176 
L 116.036274 511.559429 
L 117.66308 511.559429 
L 120.374424 510.893948 
L 122.615801 510.508669 
L 126.990101 510.298517 
L 127.857731 510.473644 
L 129.84605 511.909682 
L 130.894436 512.540138 
L 132.195881 512.960442 
L 133.93114 512.960442 
L 135.08798 513.135569 
L 136.642484 513.660949 
L 137.365509 514.396481 
L 138.341592 516.007646 
L 138.5585 517.828964 
L 138.5585 519.124901 
L 139.064617 519.930484 
L 140.908331 520.736066 
L 142.860498 520.771092 
L 143.836582 520.140636 
L 144.66806 518.9848 
L 145.969505 516.287849 
L 147.993975 511.664505 
L 148.717 509.913238 
L 149.58463 509.282782 
L 150.524562 508.827453 
L 151.898309 508.267048 
L 152.295973 507.846744 
L 152.295973 507.461465 
L 152.079065 506.585832 
L 151.392192 504.028982 
L 150.524562 501.297006 
L 150.307654 500.07112 
L 150.307654 497.128992 
L 149.982293 495.272649 
L 149.29542 493.346255 
L 148.463941 492.085343 
L 147.415555 490.964533 
L 145.029573 488.933063 
L 144.342699 488.232557 
L 144.342699 487.637126 
L 144.631909 486.726467 
L 145.101875 485.850834 
L 146.873286 483.784339 
L 149.367722 481.297541 
L 150.307654 480.737135 
L 151.139133 480.421907 
L 151.717553 480.211755 
L 152.476729 480.211755 
L 153.344359 480.351857 
L 155.11577 481.052363 
L 155.802644 481.052363 
L 156.453366 480.597034 
L 157.899416 479.371147 
L 158.58629 478.880793 
L 159.490071 478.460489 
L 160.285398 478.250337 
L 161.22533 478.110235 
L 162.09296 477.935109 
L 162.888288 476.043741 
L 163.647464 473.34679 
L 163.755918 473.066587 
L 164.298186 471.630549 
L 166.648017 468.443243 
L 167.407193 467.112281 
L 167.29874 465.746293 
L 167.045681 465.150862 
L 166.72032 464.380304 
L 166.864925 463.784874 
L 166.973378 463.049342 
L 167.117983 461.578278 
L 167.226437 460.772695 
L 167.081832 460.142239 
L 166.648017 460.072188 
L 166.105749 460.107214 
L 165.27427 460.177264 
L 164.298186 459.862036 
L 162.562927 458.741226 
L 161.406087 457.935643 
L 161.008423 457.65544 
L 160.285398 456.814832 
L 158.260928 453.102147 
L 157.790962 451.596058 
L 157.790962 450.405196 
L 157.863265 449.389462 
L 158.044021 448.864082 
L 158.477836 448.513828 
L 159.381617 448.583879 
L 160.285398 448.583879 
L 161.369935 447.988448 
L 163.2498 446.272207 
L 164.334338 445.151396 
L 165.310421 443.540231 
L 165.310421 442.594547 
L 164.478943 441.088458 
L 163.466708 440.072723 
L 161.261482 438.566634 
L 158.911651 437.130595 
L 157.42945 436.04481 
L 155.802644 433.698112 
L 155.260375 432.927555 
L 155.224224 432.156997 
L 155.513434 431.38644 
L 156.308761 430.370705 
L 158.767046 426.833147 
L 159.670827 425.677311 
L 159.851583 425.221981 
L 159.996188 424.661576 
L 159.996188 423.260563 
L 160.176944 421.824524 
L 160.430003 421.018941 
L 160.936121 419.863105 
L 161.550692 418.882396 
L 161.767599 418.146864 
L 161.876053 416.850927 
L 161.876053 415.134685 
L 161.659145 412.507785 
L 161.622994 412.122507 
L 161.333784 411.737228 
L 160.646911 411.422 
L 159.381617 411.036721 
L 158.767046 410.826569 
L 158.405533 410.441291 
L 158.260928 410.020987 
L 158.260928 409.530632 
L 158.333231 409.040277 
L 158.730895 408.654999 
L 159.381617 408.094593 
L 160.068491 407.569213 
L 160.430003 407.113884 
L 160.936121 405.677845 
L 161.478389 403.5413 
L 161.912204 402.000185 
L 162.237565 400.564146 
L 163.358254 397.341816 
L 164.912757 394.049434 
L 165.093514 393.839282 
L 165.382724 393.699181 
L 165.816539 393.62913 
L 166.105749 393.55908 
L 166.684168 393.348928 
L 167.190286 392.998674 
L 167.660252 392.57837 
L 168.419428 391.247408 
L 169.070151 389.846394 
L 169.467814 389.040812 
L 169.467814 388.585482 
L 169.250907 387.394621 
L 168.310974 384.767721 
L 167.696403 383.787012 
L 167.190286 382.946404 
L 167.190286 382.59615 
L 167.29874 382.315948 
L 167.841008 381.615441 
L 169.142453 380.249453 
L 170.046234 378.883465 
L 171.130772 377.517477 
L 169.033999 376.957072 
L 167.045681 375.731185 
L 166.069597 374.330171 
L 165.346572 372.123575 
L 164.623547 371.177891 
L 163.53901 370.372309 
L 161.080725 369.356574 
L 158.333231 368.656067 
L 154.935014 368.095662 
L 153.525115 368.41089 
L 152.657485 368.93627 
L 152.042914 369.286523 
L 151.500646 369.391599 
L 150.633016 369.006321 
L 149.042361 367.780434 
L 148.572395 366.904801 
L 148.861605 366.379421 
L 150.596864 365.25861 
L 150.886074 364.73323 
L 150.958377 363.927647 
L 150.958377 362.071305 
L 150.922226 360.670291 
L 150.560713 359.654557 
L 152.079065 358.008366 
L 153.488964 357.342885 
L 156.923332 355.80177 
L 162.562927 352.509389 
L 165.27427 350.372843 
L 166.250354 348.516501 
L 168.16637 343.367776 
L 171.058469 334.051038 
L 171.528435 331.284036 
L 172.757578 330.093175 
L 174.239779 329.392668 
L 178.686382 328.657136 
L 180.927759 328.166782 
L 182.40996 327.221098 
L 184.579035 323.963742 
L 186.531202 321.72212 
L 188.266462 319.725676 
L 191.194713 316.713498 
L 192.676914 315.522636 
L 199.83486 313.386091 
L 205.293698 311.915027 
L 209.234184 311.21452 
L 211.981678 311.179495 
L 214.946081 312.090153 
L 221.670212 314.331775 
L 228.86431 317.308928 
L 234.576207 317.939384 
L 238.805902 317.904359 
L 242.276422 317.203852 
L 244.951614 315.557662 
L 248.169075 312.965787 
L 249.651276 312.020103 
L 252.10956 311.074419 
L 258.544482 309.848532 
L 266.461605 308.622645 
L 268.702982 309.288127 
L 273.691854 314.82213 
L 277.198524 318.990144 
L 278.716877 322.002323 
L 281.247464 324.313995 
L 286.200184 326.800794 
L 289.887611 328.517035 
" clip-path="url(#p3e04a8d1e4)"/>
   </g>
  </g>
 </g>
 <defs>
  <clipPath id="p3e04a8d1e4">
   <rect x="10.8" y="308.622645" width="1058.4" height="462.754709"/>
  </clipPath>
 </defs>
</svg>
