<?xml version="1.0" encoding="utf-8" standalone="no"?>
<!DOCTYPE svg PUBLIC "-//W3C//DTD SVG 1.1//EN"
  "http://www.w3.org/Graphics/SVG/1.1/DTD/svg11.dtd">
<svg xmlns:xlink="http://www.w3.org/1999/xlink" width="1080pt" height="1080pt" viewBox="0 0 1080 1080" xmlns="http://www.w3.org/2000/svg" version="1.1">
 <metadata>
  <rdf:RDF xmlns:dc="http://purl.org/dc/elements/1.1/" xmlns:cc="http://creativecommons.org/ns#" xmlns:rdf="http://www.w3.org/1999/02/22-rdf-syntax-ns#">
   <cc:Work>
    <dc:type rdf:resource="http://purl.org/dc/dcmitype/StillImage"/>
    <dc:date>2022-07-01T13:43:17.930465</dc:date>
    <dc:format>image/svg+xml</dc:format>
    <dc:creator>
     <cc:Agent>
      <dc:title>Matplotlib v3.5.1, https://matplotlib.org/</dc:title>
     </cc:Agent>
    </dc:creator>
   </cc:Work>
  </rdf:RDF>
 </metadata>
 <defs>
  <style type="text/css">*{stroke-linejoin: round; stroke-linecap: butt}</style>
 </defs>
 <g id="figure_1">
  <g id="patch_1">
   <path d="M 0 1080 
L 1080 1080 
L 1080 0 
L 0 0 
L 0 1080 
z
" style="fill: none; opacity: 0"/>
  </g>
  <g id="axes_1">
   <g id="PatchCollection_1">
    <path d="M 931.420374 410.375342 
L 934.71617 418.013014 
L 936.675833 420.645205 
L 939.615327 422.543836 
L 943.757342 423.708904 
L 947.364903 424.615068 
L 950.705237 426.125342 
L 956.940528 430.267808 
L 966.961531 442.522603 
L 968.253127 444.162329 
L 969.58926 446.665068 
L 971.148083 450.419178 
L 971.41531 452.058904 
L 971.41531 453.655479 
L 971.281696 454.432192 
L 970.301865 455.510959 
L 967.228757 457.625342 
L 964.912792 459.869178 
L 961.438845 463.062329 
L 958.053973 467.808904 
L 955.738007 471.778767 
L 952.6649 479.028082 
L 950.749775 482.782192 
L 950.348935 484.033562 
L 950.170784 485.630137 
L 949.63633 489.902055 
L 948.923725 493.742466 
L 948.879188 496.245205 
L 950.081708 498.618493 
L 952.843051 503.019863 
L 954.090109 505.95411 
L 956.49515 508.974658 
L 960.147249 516.741781 
L 961.884223 519.632877 
L 963.576659 521.358904 
L 964.912792 521.876712 
L 966.78338 521.402055 
L 969.366571 519.934932 
L 970.969932 519.330822 
L 972.172452 519.330822 
L 989.408577 533.915753 
L 991.680005 535.943836 
L 995.19849 539.525342 
L 999.02874 544.056164 
L 999.964034 545.911644 
L 1000.053109 547.55137 
L 999.919496 551.046575 
L 999.741345 553.031507 
L 997.024539 567.789041 
L 996.445548 570.421233 
L 996.445548 571.802055 
L 996.00017 576.54863 
L 995.287566 581.381507 
L 993.639667 587.379452 
L 991.991769 592.212329 
L 990.878324 596.441096 
L 990.210257 597.821918 
L 988.027906 599.289041 
L 980.590095 604.294521 
L 978.585894 605.804795 
L 976.804382 607.660274 
L 974.399342 610.767123 
L 973.152284 612.752055 
L 973.063208 613.744521 
L 973.01867 615.254795 
L 972.974132 615.686301 
L 973.01867 616.721918 
L 972.795981 619.742466 
L 972.662368 624.014384 
L 972.929595 625.956164 
L 974.755644 629.365068 
L 978.318667 635.363014 
L 981.035473 638.340411 
L 983.173287 639.980137 
L 985.801016 641.360959 
L 986.869923 642.353425 
L 987.404377 644.122603 
L 986.424545 647.229452 
L 984.821185 649.947945 
L 982.638833 652.580137 
L 979.432112 654.910274 
L 958.09851 672.90411 
L 954.312798 676.485616 
L 948.656499 683.087671 
L 947.0086 684.684247 
L 945.40524 686.065068 
L 944.469946 686.669178 
L 943.401039 686.669178 
L 941.530452 686.021918 
L 940.595159 685.633562 
L 939.793478 685.633562 
L 938.590958 686.108219 
L 927.05567 701.815068 
L 926.922057 702.591781 
L 927.545586 703.713699 
L 930.351467 705.828082 
L 931.954827 708.244521 
L 932.845583 710.74726 
L 932.845583 712.473288 
L 932.132978 714.717123 
L 931.464912 715.839041 
L 930.663231 716.313699 
L 922.735505 722.527397 
L 922.201051 723.131507 
L 921.532984 723.519863 
L 920.731304 723.476712 
L 919.261557 722.09589 
L 917.524583 720.973973 
L 915.653996 720.973973 
L 914.451475 721.44863 
L 913.382568 722.7 
L 906.434673 732.581507 
L 905.588455 734.911644 
L 905.009464 739.787671 
L 902.827112 749.021918 
L 900.911987 753.984247 
L 899.932156 755.753425 
L 899.130475 756.357534 
L 898.195182 756.573288 
L 894.053167 756.573288 
L 887.283423 756.141781 
L 882.740568 755.235616 
L 869.022929 751.524658 
L 864.613688 752.128767 
L 859.981757 752.517123 
L 858.779237 753.250685 
L 857.042263 754.760959 
L 856.062432 756.74589 
L 855.127138 760.586301 
L 853.746467 763.347945 
L 852.009493 765.462329 
L 851.207813 765.807534 
L 850.406132 765.807534 
L 849.203612 765.419178 
L 848.001092 764.685616 
L 847.065798 764.038356 
L 846.130504 763.520548 
L 845.195211 763.520548 
L 843.725464 763.908904 
L 836.643955 766.972603 
L 835.708661 768.094521 
L 834.862443 770.338356 
L 834.862443 772.323288 
L 835.085132 785.872603 
L 835.352359 787.857534 
L 836.376728 791.093836 
L 837.801938 794.243836 
L 838.336391 796.487671 
L 838.336391 798.860959 
L 838.15824 800.112329 
L 836.95572 802.744521 
L 834.951519 804.815753 
L 832.501941 806.455479 
L 831.29942 807.059589 
L 830.89858 807.793151 
L 830.89858 809.907534 
L 831.29942 811.806164 
L 832.056563 813.791096 
L 834.32799 815.30137 
L 837.312022 816.897945 
L 841.008659 820.177397 
L 844.348993 824.060959 
L 846.575882 828.073973 
L 847.600252 831.439726 
L 847.867478 834.805479 
L 847.822941 839.681507 
L 847.377563 845.420548 
L 845.685127 849.390411 
L 844.393531 850.641781 
L 844.170842 851.030137 
L 844.393531 851.461644 
L 845.061598 851.591096 
L 847.466638 852.065753 
L 849.159074 852.799315 
L 850.762435 854.093836 
L 851.608653 855.043151 
L 851.697728 856.078767 
L 851.519577 857.977397 
L 851.118737 863.543836 
L 850.673359 867.341096 
L 850.539746 874.245205 
L 850.673359 877.006849 
L 851.029661 880.113699 
L 851.163275 883.738356 
L 850.85151 886.715753 
L 850.539746 888.916438 
L 850.227981 889.995205 
L 849.782603 890.728767 
L 848.84731 890.944521 
L 846.486807 890.556164 
L 843.636388 890.25411 
L 841.275885 890.728767 
L 836.733031 892.239041 
L 834.817906 893.317808 
L 833.882612 894.267123 
L 833.348159 895.993151 
L 833.259083 900.135616 
L 833.437234 902.379452 
L 833.882612 903.113014 
L 834.550679 903.50137 
L 835.352359 903.285616 
L 836.822106 902.422603 
L 837.846475 901.775342 
L 838.291853 901.689041 
L 839.672525 901.689041 
L 844.438068 902.379452 
L 847.154874 902.983562 
L 848.312856 903.717123 
L 848.758234 904.450685 
L 848.802772 905.184247 
L 848.44647 906.478767 
L 847.4221 907.773288 
L 846.531345 908.636301 
L 843.59185 911.182192 
L 838.781769 914.763699 
L 836.376728 916.273973 
L 833.971688 918.129452 
L 833.615385 918 
L 828.671691 916.273973 
L 820.164973 914.547945 
L 810.589347 913.080822 
L 804.843972 913.123973 
L 799.900278 913.426027 
L 791.705324 914.547945 
L 788.676754 914.030137 
L 785.959949 913.037671 
L 783.73306 912.045205 
L 782.619615 911.009589 
L 781.773397 907.730137 
L 781.194406 903.889726 
L 779.813734 901.084932 
L 777.586845 898.797945 
L 773.177603 894.741781 
L 768.189371 890.944521 
L 765.160801 889.693151 
L 758.569208 887.190411 
L 756.787696 886.456849 
L 756.119629 886.154795 
L 753.358286 886.715753 
L 750.908708 888.269178 
L 749.038121 891.591781 
L 746.098627 896.079452 
L 743.916275 899.919863 
L 743.60451 900.610274 
L 743.292746 901.732192 
L 742.580141 907.341781 
L 741.733923 909.887671 
L 739.907874 913.167123 
L 738.037286 915.540411 
L 736.077624 917.136986 
L 733.850734 918.474658 
L 729.975946 920.589041 
L 727.615443 922.056164 
L 725.522167 923.65274 
L 724.408722 924.3 
L 723.161664 923.782192 
L 722.04822 922.876027 
L 719.910406 921.581507 
L 717.950743 920.589041 
L 715.144862 919.553425 
L 695.859999 916.360274 
L 694.033949 916.230822 
L 692.2079 916.878082 
L 690.738153 918.388356 
L 689.001179 921.624658 
L 688.244036 925.163014 
L 688.288574 927.406849 
L 688.466725 929.391781 
L 689.090254 932.455479 
L 689.090254 933.189041 
L 688.823028 933.879452 
L 687.754121 934.440411 
L 684.903702 935.044521 
L 683.433955 935.087671 
L 680.984377 935.217123 
L 679.470092 935.519178 
L 678.579336 936.080137 
L 678.000345 937.374658 
L 677.866731 939.057534 
L 677.599504 941.991781 
L 677.154127 946.091096 
L 675.550766 948.939041 
L 672.878499 951.786986 
L 667.934804 955.066438 
L 663.881865 957.612329 
L 661.476824 958.475342 
L 658.002877 959.510959 
L 654.261702 960.373973 
L 652.435653 961.236986 
L 647.358345 965.508904 
L 645.265068 966.932877 
L 642.726414 967.536986 
L 639.38608 967.580137 
L 637.114653 967.450685 
L 632.438185 966.50137 
L 627.89533 965.552055 
L 624.287769 965.89726 
L 620.858359 967.191781 
L 617.117185 970.29863 
L 609.501222 979.964384 
L 607.14072 982.812329 
L 602.820554 986.350685 
L 601.172656 987.774658 
L 597.743246 993.470548 
L 596.006272 997.958219 
L 590.216359 1007.623973 
L 588.880225 1009.047945 
L 587.455016 1009.652055 
L 580.952499 1010.903425 
L 579.70544 1011.162329 
L 578.547458 1011.032877 
L 576.765946 1010.342466 
L 574.316368 1008.573288 
L 571.510487 1007.063014 
L 568.838219 1006.027397 
L 568.036539 1006.027397 
L 567.41301 1006.286301 
L 567.279397 1006.760959 
L 567.457548 1007.710274 
L 568.21469 1010.428767 
L 568.882757 1013.406164 
L 568.927295 1015.65 
L 568.303766 1017.936986 
L 565.80965 1021.518493 
L 564.651667 1022.338356 
L 563.003769 1022.856164 
L 554.897891 1024.236986 
L 551.824783 1024.366438 
L 546.079408 1023.84863 
L 525.725638 1022.252055 
L 520.603792 1022.295205 
L 519.178583 1022.59726 
L 517.575222 1022.942466 
L 515.036568 1023.891781 
L 512.898754 1025.013699 
L 509.55842 1027.947945 
L 504.035734 1034.765753 
L 502.165147 1038.002055 
L 501.675231 1039.684932 
L 501.318929 1041.799315 
L 501.09624 1044.302055 
L 499.581955 1054.010959 
L 497.087839 1066.524658 
L 496.686999 1067.387671 
L 495.573554 1068.207534 
L 494.192882 1068.725342 
L 492.144144 1068.854795 
L 485.151711 1068.897945 
L 481.455074 1069.2 
L 480.029865 1068.59589 
L 477.847513 1066.610959 
L 474.640792 1063.892466 
L 472.324827 1062.25274 
L 470.810542 1061.691781 
L 465.955923 1060.915068 
L 462.3929 1060.440411 
L 459.943321 1059.534247 
L 457.13744 1057.765068 
L 451.213914 1053.665753 
L 450.456772 1052.84589 
L 450.456772 1052.155479 
L 450.946687 1050.94726 
L 452.460972 1048.660274 
L 452.950888 1047.236301 
L 452.90635 1045.078767 
L 452.238283 1042.834932 
L 451.481141 1041.324658 
L 450.323158 1040.030137 
L 449.031562 1039.210274 
L 448.764336 1038.606164 
L 448.764336 1038.131507 
L 448.853411 1036.793836 
L 449.209714 1034.895205 
L 449.966856 1031.788356 
L 451.70383 1027.386986 
L 452.90635 1025.315753 
L 456.7366 1019.576712 
L 459.898783 1012.888356 
L 461.813908 1009.004795 
L 461.947522 1006.84726 
L 461.947522 1005.164384 
L 460.655926 1001.841781 
L 460.611388 999.339041 
L 460.789539 997.181507 
L 461.99206 994.333562 
L 463.105504 992.262329 
L 463.907185 990.795205 
L 465.154243 988.939726 
L 465.510545 987.602055 
L 465.466007 986.264384 
L 464.753403 984.279452 
L 463.105504 982.467123 
L 462.749202 981.474658 
L 462.927353 979.532877 
L 463.283655 978.626712 
L 463.773571 977.375342 
L 465.020629 976.296575 
L 467.158443 975.735616 
L 472.725667 974.743151 
L 474.150876 974.225342 
L 474.28449 973.534932 
L 473.705499 972.456164 
L 471.968525 970.90274 
L 466.802141 966.544521 
L 464.887016 964.300685 
L 464.308025 962.402055 
L 464.174411 952.00274 
L 463.729033 950.535616 
L 462.882815 949.715753 
L 460.834077 948.291781 
L 457.092903 946.047945 
L 456.380298 945.141781 
L 456.602987 944.580822 
L 458.117272 942.466438 
L 462.882815 936.9 
L 467.069368 931.20411 
L 469.608022 927.752055 
L 470.587853 926.069178 
L 470.899618 925.119863 
L 470.85508 923.997945 
L 470.85508 921.79726 
L 469.207182 910.146575 
L 467.960124 902.810959 
L 467.336594 901.689041 
L 465.955923 900.869178 
L 464.040798 899.963014 
L 462.838278 899.013699 
L 461.635757 897.244521 
L 460.121472 893.749315 
L 458.918952 892.19589 
L 455.93492 888.959589 
L 451.926519 884.644521 
L 451.481141 883.263699 
L 451.436603 881.365068 
L 452.327359 876.747945 
L 452.817275 874.849315 
L 454.242484 871.785616 
L 454.910551 869.714384 
L 455.088702 868.592466 
L 455.044164 865.09726 
L 454.866013 864.363699 
L 454.064333 863.630137 
L 451.792905 861.860959 
L 449.254251 859.703425 
L 446.938286 857.934247 
L 446.537446 857.330137 
L 446.270219 854.913699 
L 445.64669 850.59863 
L 445.201312 849.390411 
L 444.087868 848.009589 
L 443.330725 846.15411 
L 442.751734 843.04726 
L 442.306356 835.797945 
L 441.549214 834.287671 
L 437.629888 831.05137 
L 431.706362 828.850685 
L 428.900481 828.376027 
L 425.025693 828.764384 
L 420.972754 830.188356 
L 419.324856 830.360959 
L 418.211411 830.015753 
L 415.583682 826.779452 
L 413.178641 824.406164 
L 409.660155 822.378082 
L 407.789568 822.032877 
L 405.963519 822.076027 
L 402.979487 822.766438 
L 399.861842 823.5 
L 395.942516 823.370548 
L 392.602182 822.680137 
L 389.707225 821.515068 
L 387.213109 819.616438 
L 383.382859 815.646575 
L 380.977818 812.367123 
L 379.196307 809.173973 
L 377.771097 806.584932 
L 375.945048 805.074658 
L 372.560176 802.917123 
L 363.162702 799.206164 
L 354.522371 795.15 
L 351.894641 794.589041 
L 350.736658 794.286986 
L 349.311449 794.330137 
L 348.019853 794.847945 
L 346.861871 795.624658 
L 342.185403 801.924658 
L 341.339185 803.434932 
L 341.071958 805.160959 
L 340.582042 808.569863 
L 340.181202 813.40274 
L 339.691286 814.395205 
L 338.177001 815.732877 
L 332.520702 818.494521 
L 329.447594 819.659589 
L 326.597176 819.875342 
L 323.123228 819.918493 
L 317.24424 818.537671 
L 316.353484 818.537671 
L 315.329115 818.753425 
L 314.304746 819.616438 
L 312.790461 822.507534 
L 310.608109 825.39863 
L 308.960211 826.347945 
L 308.069455 826.693151 
L 304.595507 826.908904 
L 294.529966 827.728767 
L 293.416522 828.160274 
L 292.258539 829.282192 
L 291.100557 831.439726 
L 289.719885 833.381507 
L 288.2056 834.115068 
L 281.480394 835.064384 
L 278.763589 834.805479 
L 273.419054 833.338356 
L 272.661911 833.338356 
L 272.127458 833.467808 
L 271.548466 833.856164 
L 270.702248 835.107534 
L 269.544266 836.531507 
L 268.119057 837.265068 
L 262.19553 839.422603 
L 259.166961 840.371918 
L 256.049315 843.04726 
L 254.445955 845.506849 
L 254.13419 847.232877 
L 254.178728 849.390411 
L 253.73335 850.684932 
L 252.842594 852.799315 
L 250.660243 857.286986 
L 249.50226 860.134932 
L 247.186295 864.838356 
L 247.052682 866.219178 
L 247.186295 867.082192 
L 247.987975 867.945205 
L 249.190496 868.808219 
L 249.724949 869.541781 
L 249.769487 870.404795 
L 249.635873 870.75 
L 246.47369 873.25274 
L 245.582934 874.158904 
L 245.048481 875.626027 
L 245.182094 877.222603 
L 245.894699 879.207534 
L 247.542597 883.393151 
L 247.943437 884.730822 
L 247.987975 887.449315 
L 247.186295 888.959589 
L 246.696379 889.347945 
L 245.894699 889.347945 
L 244.825792 888.743836 
L 243.489658 887.406164 
L 242.153525 886.284247 
L 240.817391 885.939041 
L 239.882097 885.939041 
L 239.21403 886.327397 
L 239.21403 886.802055 
L 239.392182 888.916438 
L 241.619071 895.216438 
L 241.663609 895.691096 
L 241.529996 896.036301 
L 240.63924 896.381507 
L 229.460254 898.064384 
L 227.678743 898.064384 
L 225.540929 897.84863 
L 221.577065 896.726712 
L 220.018243 895.820548 
L 217.835891 892.713699 
L 216.321606 891.073973 
L 214.762783 890.383562 
L 211.956902 889.606849 
L 208.393879 889.04589 
L 205.098083 888.700685 
L 202.559429 888.528082 
L 200.644304 887.837671 
L 197.437583 886.197945 
L 194.898929 885.119178 
L 194.230862 884.817123 
L 193.340106 883.867808 
L 192.315737 882.09863 
L 187.639269 874.331507 
L 185.946833 870.534247 
L 184.877926 869.153425 
L 183.497254 867.858904 
L 175.92583 863.414384 
L 169.022472 859.703425 
L 163.900626 857.761644 
L 163.00987 856.941781 
L 162.742644 855.992466 
L 163.00987 849.390411 
L 163.410711 841.839041 
L 163.366173 839.465753 
L 162.564493 838.430137 
L 160.293065 837.696575 
L 157.754411 837.739726 
L 153.033405 837.394521 
L 152.632565 837.35137 
L 151.029205 835.711644 
L 150.182987 833.510959 
L 150.004836 830.360959 
L 149.603995 824.319863 
L 149.381307 820.565753 
L 148.579626 818.321918 
L 147.956097 817.2 
L 147.109879 815.689726 
L 145.773745 812.237671 
L 145.061141 807.361644 
L 145.016603 803.909589 
L 145.150216 800.80274 
L 145.28383 798.256849 
L 143.45778 795.452055 
L 141.05274 792.64726 
L 134.149382 786.692466 
L 130.898123 783.456164 
L 126.93426 778.14863 
L 124.039304 772.711644 
L 122.346868 770.381507 
L 116.24519 764.815068 
L 115.532586 763.779452 
L 115.532586 763.00274 
L 116.200652 761.837671 
L 120.07544 758.644521 
L 121.188885 757.220548 
L 121.856952 755.235616 
L 121.812414 752.905479 
L 121.233423 749.626027 
L 121.188885 748.029452 
L 121.812414 746.605479 
L 124.128379 743.757534 
L 128.047705 738.924658 
L 128.047705 738.104795 
L 127.379638 736.982877 
L 125.197286 733.660274 
L 123.861152 732.15 
L 122.836783 731.847945 
L 121.856952 731.761644 
L 118.605693 731.675342 
L 117.714937 730.941781 
L 116.556955 727.878082 
L 115.977963 725.591096 
L 115.84435 721.836986 
L 116.24519 717.737671 
L 117.091408 715.105479 
L 118.828382 712.084932 
L 123.014934 707.338356 
L 123.772077 706.777397 
L 125.375437 706.216438 
L 128.448545 705.482877 
L 129.606527 704.533562 
L 130.051905 703.023288 
L 130.007368 700.952055 
L 129.517452 696.982192 
L 128.893923 693.659589 
L 129.027536 692.580822 
L 129.740141 691.329452 
L 137.578792 682.871918 
L 141.542655 680.067123 
L 148.000635 677.909589 
L 148.71324 677.34863 
L 149.158618 676.528767 
L 149.292231 674.889041 
L 149.11408 672.558904 
L 149.069542 670.487671 
L 147.911559 669.279452 
L 144.036772 668.071233 
L 132.056106 663.540411 
L 130.541821 663.281507 
L 129.072074 663.713014 
L 124.70737 665.956849 
L 123.282161 666.560959 
L 120.921658 664.187671 
L 117.04687 659.009589 
L 114.64183 655.126027 
L 113.751074 652.75274 
L 113.617461 651.242466 
L 113.751074 648.394521 
L 113.884687 647.229452 
L 114.107376 646.45274 
L 114.953594 645.460274 
L 116.022501 644.208904 
L 116.200652 643.863699 
L 116.24519 643.259589 
L 115.977963 642.223973 
L 112.637629 635.449315 
L 111.969562 634.068493 
L 111.034269 633.593836 
L 110.366202 633.593836 
L 109.876286 633.766438 
L 108.718304 634.456849 
L 107.471245 635.665068 
L 106.892254 635.967123 
L 106.313263 635.967123 
L 105.288894 635.449315 
L 103.55192 634.456849 
L 101.859484 633.24863 
L 99.677132 630.70274 
L 97.628394 627.423288 
L 94.6889 622.892466 
L 90.502347 618.534247 
L 88.898987 616.937671 
L 84.578821 612.665753 
L 81.193949 609.127397 
L 79.946891 606.15 
L 79.946891 603.690411 
L 80.16958 603.172603 
L 81.683865 602.697945 
L 82.663696 602.223288 
L 83.109074 601.576027 
L 83.59899 600.669863 
L 83.821679 599.332192 
L 84.445208 593.55 
L 84.534283 592.126027 
L 84.756972 590.658904 
L 85.692266 589.321233 
L 86.983862 588.199315 
L 89.344365 587.595205 
L 90.324196 587.163699 
L 90.680498 586.818493 
L 90.769574 585.826027 
L 90.502347 583.927397 
L 88.988062 577.282192 
L 87.251088 568.738356 
L 86.538484 564.250685 
L 85.736804 559.849315 
L 84.890586 555.016438 
L 85.20235 554.282877 
L 85.825879 553.592466 
L 87.696466 552.858904 
L 100.656963 548.80274 
L 102.393937 548.19863 
L 103.284693 547.465068 
L 104.75444 545.091781 
L 105.333432 544.789726 
L 106.402338 544.789726 
L 107.515783 545.264384 
L 109.475446 546.386301 
L 113.795612 548.586986 
L 114.998132 548.759589 
L 116.64603 548.241781 
L 119.540987 545.436986 
L 125.909891 539.136986 
L 126.13258 538.662329 
L 126.13258 538.230822 
L 125.687202 537.324658 
L 123.371237 535.123973 
L 119.719138 532.707534 
L 115.755275 530.938356 
L 113.973763 529.600685 
L 112.771243 528.306164 
L 112.860318 527.486301 
L 113.083007 527.054795 
L 113.617461 526.75274 
L 116.24519 526.321233 
L 123.10401 525.415068 
L 129.16115 523.775342 
L 146.575426 516.69863 
L 147.466182 515.835616 
L 147.421644 514.843151 
L 145.996434 513.505479 
L 141.631731 511.04589 
L 135.79728 507.421233 
L 133.79308 504.74589 
L 133.39224 502.545205 
L 133.347702 500.732877 
L 133.525853 498.186986 
L 135.084676 493.656164 
L 137.534254 490.074658 
L 140.607362 488.176027 
L 142.210722 487.830822 
L 145.461981 488.132877 
L 148.000635 488.262329 
L 151.251894 487.399315 
L 152.855254 486.536301 
L 153.74601 484.853425 
L 154.057775 483.860959 
L 154.369539 480.322603 
L 155.037606 474.756164 
L 155.171219 470.570548 
L 154.814917 467.981507 
L 153.122481 463.882192 
L 153.077943 462.371918 
L 154.369539 460.818493 
L 157.130882 459.437671 
L 160.070376 458.488356 
L 168.220792 457.193836 
L 171.516589 456.373973 
L 172.808184 455.165753 
L 173.743478 453.310274 
L 174.322469 445.974658 
L 175.970368 436.222603 
L 176.103981 433.331507 
L 175.079612 430.915068 
L 173.743478 428.800685 
L 172.89726 426.686301 
L 172.89726 423.795205 
L 173.164487 421.810274 
L 174.367007 419.134932 
L 175.92583 415.25137 
L 176.460283 413.35274 
L 178.375408 397.775342 
L 178.509022 396.135616 
L 179.043475 394.754795 
L 181.181289 393.115068 
L 182.78465 392.079452 
L 195.656071 387.936986 
L 197.660272 387.419178 
L 199.70901 387.376027 
L 202.114051 388.109589 
L 210.130853 390.526027 
L 221.621603 393.805479 
L 224.427484 393.632877 
L 226.075382 393.115068 
L 227.411516 391.993151 
L 230.306472 387.419178 
L 235.472856 378.70274 
L 237.699746 375.55274 
L 237.699746 374.819178 
L 237.432519 374.430822 
L 236.630839 374.30137 
L 235.250167 374.560274 
L 233.78042 375.207534 
L 229.103952 379.306849 
L 225.006475 383.837671 
L 223.803955 384.312329 
L 223.447652 384.312329 
L 220.06278 383.449315 
L 218.45942 382.629452 
L 216.677908 381.550685 
L 215.653539 380.256164 
L 215.163623 379.263699 
L 214.62917 375.768493 
L 214.183792 373.65411 
L 214.540094 372.877397 
L 214.807321 371.582877 
L 216.098917 368.993836 
L 217.613202 366.14589 
L 218.05858 364.24726 
L 218.014042 363.341096 
L 217.123286 361.70137 
L 213.471187 356.436986 
L 212.446818 354.236301 
L 212.446818 353.891096 
L 212.624969 353.50274 
L 213.248498 353.330137 
L 214.807321 353.286986 
L 220.107318 353.157534 
L 220.552696 352.769178 
L 220.775385 351.949315 
L 221.398914 348.238356 
L 221.710679 343.189726 
L 222.28967 334.991096 
L 223.89303 327.871233 
L 224.472022 326.576712 
L 225.362777 325.584247 
L 234.136722 317.644521 
L 244.781254 309.316438 
L 258.677045 299.650685 
L 262.19553 297.708904 
L 266.248469 296.543836 
L 267.183763 296.112329 
L 267.45099 295.594521 
L 267.45099 294.94726 
L 266.604772 293.609589 
L 264.867798 291.365753 
L 263.62074 288.863014 
L 262.329144 284.720548 
L 261.482926 273.673973 
L 261.482926 272.89726 
L 261.883766 271.818493 
L 262.462757 270.523973 
L 266.203932 265.820548 
L 267.361914 263.490411 
L 267.762754 261.332877 
L 267.718216 259.822603 
L 265.001411 248.215068 
L 264.466958 245.712329 
L 262.819059 242.562329 
L 261.349312 239.628082 
L 260.503094 235.70137 
L 259.701414 233.414384 
L 256.628307 228.75411 
L 253.599737 225.733562 
L 249.9031 221.547945 
L 245.805623 217.232877 
L 242.465289 215.291096 
L 239.169493 214.514384 
L 232.711513 214.600685 
L 231.108152 214.471233 
L 230.261934 213.65137 
L 229.326641 211.709589 
L 228.079583 207.523973 
L 225.229164 202.993151 
L 222.556897 199.627397 
L 217.2569 195.786986 
L 213.738414 191.946575 
L 211.422449 188.235616 
L 210.887996 185.819178 
L 210.665307 183.057534 
L 210.620769 180.123288 
L 210.932533 177.059589 
L 212.268667 172.658219 
L 212.580432 171.191096 
L 212.40228 170.241781 
L 210.843458 168.645205 
L 197.393045 155.311644 
L 191.380443 149.227397 
L 190.311536 147.458219 
L 190.266998 145.64589 
L 190.712376 139.647945 
L 192.894728 131.880822 
L 193.206493 131.923973 
L 199.263632 131.837671 
L 202.069513 130.5 
L 203.450184 128.903425 
L 203.628336 120.273288 
L 203.851025 113.973288 
L 204.919932 111.341096 
L 207.993039 108.406849 
L 211.645138 106.033562 
L 214.762783 105.731507 
L 222.913199 105.084247 
L 226.030844 103.746575 
L 229.326641 98.482192 
L 231.019077 96.885616 
L 234.359411 94.771233 
L 239.703946 93.649315 
L 248.477891 93.045205 
L 252.085452 93.174658 
L 254.13419 93.217808 
L 264.600571 94.684932 
L 269.677879 94.382877 
L 271.147626 93.649315 
L 272.394684 91.880137 
L 272.350147 89.247945 
L 271.28124 80.186301 
L 270.613173 75.828082 
L 270.568635 73.8 
L 270.8804 73.19589 
L 271.503929 71.124658 
L 288.027449 58.999315 
L 294.307278 57.489041 
L 299.340048 57.40274 
L 317.867769 57.791096 
L 320.851801 57.834247 
L 323.123228 57.186986 
L 324.5039 55.029452 
L 331.496333 42.645205 
L 337.019019 36.258904 
L 345.213972 29.182192 
L 347.752626 28.578082 
L 352.785397 29.09589 
L 359.154301 32.159589 
L 366.191272 35.309589 
L 370.555975 35.913699 
L 372.827403 35.741096 
L 373.851772 34.74863 
L 374.163536 31.684932 
L 374.69799 30.30411 
L 375.855972 27.456164 
L 377.236644 24.996575 
L 377.904711 24.521918 
L 379.32992 24.478767 
L 380.710592 25.94589 
L 382.35849 31.59863 
L 382.937481 33.540411 
L 383.96185 34.489726 
L 384.674455 34.144521 
L 386.901344 31.210274 
L 395.318987 20.595205 
L 396.566045 19.947945 
L 397.946717 19.904795 
L 405.295452 21.630822 
L 406.854275 21.458219 
L 407.923182 20.465753 
L 411.17444 15.891781 
L 413.223179 13.777397 
L 416.02906 11.792466 
L 419.324856 10.8 
L 428.232414 10.843151 
L 430.32569 11.317808 
L 431.7509 12.267123 
L 434.423167 16.45274 
L 435.313923 18.178767 
L 437.629888 22.450685 
L 439.856778 24.608219 
L 441.727365 25.428082 
L 445.379464 26.075342 
L 447.561815 26.981507 
L 449.343327 28.836986 
L 449.966856 32.24589 
L 450.011394 33.713014 
L 449.298789 35.223288 
L 446.403833 38.330137 
L 443.954254 40.660274 
L 443.108036 42.3 
L 442.84081 43.378767 
L 443.286187 46.744521 
L 445.112237 51.318493 
L 447.027362 55.202055 
L 449.699629 57.877397 
L 452.772737 60.293836 
L 457.449205 62.278767 
L 465.065167 64.220548 
L 467.960124 64.867808 
L 469.563484 65.687671 
L 469.608022 67.197945 
L 465.376932 74.015753 
L 463.283655 76.863699 
L 460.076935 80.574658 
L 456.202147 83.940411 
L 445.023161 92.182192 
L 440.970222 96.367808 
L 437.095435 102.883562 
L 432.730731 111.211644 
L 429.078632 120.230137 
L 427.831574 121.567808 
L 426.050062 122.603425 
L 422.397964 123.034932 
L 419.814772 123.55274 
L 417.409731 124.84726 
L 415.00469 127.263699 
L 414.559312 129.291781 
L 415.138304 129.593836 
L 420.750065 133.218493 
L 425.916449 136.368493 
L 427.475272 137.663014 
L 428.855943 139.259589 
L 436.204679 149.702055 
L 441.504676 157.59863 
L 443.553414 160.360274 
L 443.820641 161.39589 
L 443.776103 162.863014 
L 443.419801 163.89863 
L 442.974423 165.020548 
L 441.950054 166.40137 
L 440.034929 167.868493 
L 436.828208 170.241781 
L 435.98199 171.191096 
L 435.18031 172.571918 
L 434.55678 174.125342 
L 434.289554 174.902055 
L 434.334092 176.067123 
L 435.002158 176.757534 
L 443.24165 184.999315 
L 443.865179 185.171918 
L 444.622321 185.171918 
L 453.30719 183.273288 
L 456.157609 182.626027 
L 457.092903 182.539726 
L 457.627356 182.582877 
L 458.117272 182.79863 
L 460.210548 184.956164 
L 464.486176 190.004795 
L 466.891217 192.593836 
L 469.385333 194.75137 
L 470.810542 196.520548 
L 471.879449 198.160274 
L 472.45844 199.239041 
L 472.547516 199.886301 
L 472.592054 201.05137 
L 472.324827 201.482877 
L 469.073568 204.417123 
L 463.99626 208.343836 
L 463.105504 209.508904 
L 462.036597 211.882192 
L 460.255086 218.441096 
L 460.255086 218.743151 
L 460.210548 219.908219 
L 460.611388 220.469178 
L 462.971891 221.936301 
L 466.401301 224.223288 
L 468.539115 225.517808 
L 469.65256 226.337671 
L 470.320626 226.812329 
L 471.790374 227.54589 
L 472.85928 227.675342 
L 474.418103 227.675342 
L 475.531548 227.373288 
L 476.110539 227.157534 
L 476.912219 226.337671 
L 477.669362 225.431507 
L 478.070202 225.086301 
L 478.782807 224.913699 
L 479.361798 224.913699 
L 480.029865 225 
L 480.787007 225.043151 
L 481.722301 225.560959 
L 484.483644 228.840411 
L 485.908853 230.825342 
L 488.269356 235.571918 
L 489.160112 238.592466 
L 489.872717 240.922603 
L 490.318094 241.915068 
L 490.897086 242.64863 
L 492.544984 244.50411 
L 494.281958 246.359589 
L 496.286158 248.94863 
L 497.488679 250.588356 
L 501.274391 256.284247 
L 511.963461 258.139726 
L 516.194551 258.959589 
L 518.777743 259.347945 
L 521.227321 259.04589 
L 523.632362 257.880822 
L 530.535719 254.169863 
L 531.916391 253.910959 
L 533.252525 253.867808 
L 534.365969 254.515068 
L 535.078574 256.5 
L 534.722272 261.850685 
L 534.722272 262.713699 
L 535.56849 264.482877 
L 536.503783 264.871233 
L 540.20042 265.432192 
L 543.852519 265.043836 
L 551.735708 261.807534 
L 556.189487 259.995205 
L 560.286964 259.434247 
L 569.684438 259.736301 
L 575.830653 261.936986 
L 581.442414 265.043836 
L 587.722243 267.287671 
L 595.382743 269.876712 
L 602.419714 273.026712 
L 603.933999 274.278082 
L 607.630635 278.55 
L 612.039876 284.24589 
L 613.37601 286.403425 
L 614.533993 287.482192 
L 615.736513 287.784247 
L 616.226429 287.913699 
L 619.878528 287.093836 
L 622.996173 286.015068 
L 625.178525 283.986986 
L 632.037345 272.940411 
L 634.486923 268.107534 
L 635.823057 263.231507 
L 637.025577 259.693151 
L 639.341542 256.629452 
L 644.374313 252.357534 
L 646.734815 251.149315 
L 647.981874 250.976712 
L 659.784388 250.890411 
L 661.788589 251.192466 
L 665.262536 253.867808 
L 668.513795 256.197945 
L 670.874298 256.327397 
L 673.591103 255.982192 
L 681.91967 251.753425 
L 683.433955 250.760959 
L 686.996978 244.590411 
L 689.223868 241.785616 
L 690.560002 241.052055 
L 692.786891 240.75 
L 697.908737 240.447945 
L 700.625542 239.714384 
L 703.164196 238.160959 
L 706.148228 234.752055 
L 707.350749 233.630137 
L 708.553269 233.19863 
L 718.752423 230.566438 
L 722.805362 229.271918 
L 724.898638 228.408904 
L 725.477629 227.157534 
L 726.190234 223.10137 
L 727.08099 221.979452 
L 731.31208 220.253425 
L 736.923842 217.966438 
L 744.762493 214.859589 
L 746.23224 214.341781 
L 747.969214 214.384932 
L 749.884339 215.334247 
L 751.621313 216.585616 
L 752.69022 216.715068 
L 754.738958 216.456164 
L 761.286013 213.910274 
L 765.338952 212.184247 
L 768.857438 209.681507 
L 770.327185 207.826027 
L 772.509536 204.244521 
L 773.84567 200.360959 
L 774.959115 196.520548 
L 775.760795 195.528082 
L 776.4734 195.139726 
L 777.141467 195.139726 
L 780.214574 196.563699 
L 784.712891 199.713699 
L 789.122132 202.216438 
L 792.99692 203.252055 
L 796.248179 204.330822 
L 797.539775 204.373973 
L 798.964984 203.985616 
L 803.28515 200.878767 
L 806.091031 200.145205 
L 812.014557 199.19589 
L 814.152371 199.19589 
L 815.488504 200.188356 
L 816.022958 201.69863 
L 815.97842 204.20137 
L 815.844807 205.323288 
L 815.310353 206.574658 
L 814.597749 207.567123 
L 810.455734 209.767808 
L 808.273382 212.011644 
L 806.803635 215.118493 
L 806.491871 216.499315 
L 805.690191 220.469178 
L 805.823804 221.116438 
L 807.026324 221.634247 
L 811.702792 223.015068 
L 815.711193 223.317123 
L 819.185141 223.317123 
L 821.456568 223.834932 
L 828.538077 229.013014 
L 830.007824 229.876027 
L 830.631353 230.997945 
L 830.631353 232.119863 
L 829.963286 233.371233 
L 827.380095 236.34863 
L 826.890179 237.772603 
L 827.023792 239.930137 
L 828.092699 242.907534 
L 828.627153 243.597945 
L 829.918749 243.986301 
L 831.744798 243.9 
L 834.194377 243.511644 
L 835.708661 243.080137 
L 836.243115 243.080137 
L 836.643955 243.727397 
L 836.643955 244.590411 
L 835.842275 245.582877 
L 833.52631 246.963699 
L 830.720429 248.430822 
L 829.651522 249.768493 
L 829.473371 251.019863 
L 831.165807 254.299315 
L 833.882612 259.865753 
L 835.174208 261.850685 
L 836.243115 262.929452 
L 836.777568 263.576712 
L 837.935551 264.439726 
L 841.18681 265.086986 
L 850.272519 267.632877 
L 854.325458 268.754795 
L 856.196045 269.358904 
L 857.264952 270.135616 
L 857.532179 271.128082 
L 857.576717 272.293151 
L 857.71033 274.364384 
L 857.621254 279.326712 
L 857.443103 281.09589 
L 857.175877 283.857534 
L 856.997725 284.720548 
L 856.463272 286.10137 
L 854.815374 289.337671 
L 854.013693 292.573973 
L 853.033862 297.579452 
L 852.855711 300.945205 
L 853.301089 304.008904 
L 855.438903 308.237671 
L 857.398566 311.862329 
L 857.532179 314.019863 
L 857.220414 315.012329 
L 841.275885 334.732192 
L 838.380929 338.011644 
L 834.862443 340.730137 
L 830.453202 343.707534 
L 829.339757 344.7 
L 828.805304 346.296575 
L 828.805304 347.332192 
L 829.072531 348.669863 
L 831.165807 350.827397 
L 835.708661 354.495205 
L 837.312022 355.876027 
L 838.113702 358.206164 
L 838.514542 364.290411 
L 838.425467 367.613014 
L 837.935551 371.410274 
L 836.822106 375.380137 
L 835.307821 378.486986 
L 835.174208 379.867808 
L 835.53051 381.421233 
L 837.712862 386.29726 
L 839.182609 390.353425 
L 841.231348 394.021233 
L 842.033028 395.013699 
L 843.725464 396.135616 
L 845.729664 396.912329 
L 848.001092 397.041781 
L 849.916217 396.567123 
L 853.924618 394.366438 
L 857.532179 393.373973 
L 858.868313 393.373973 
L 861.718731 393.891781 
L 865.415368 394.970548 
L 869.379231 396.35137 
L 870.715365 397.041781 
L 873.120406 398.422603 
L 874.812842 400.407534 
L 876.549816 401.702055 
L 878.954856 402.219863 
L 880.825443 402.090411 
L 883.943089 400.105479 
L 888.931321 395.790411 
L 894.186781 391.34589 
L 897.438039 388.109589 
L 899.308627 385.477397 
L 900.64476 385.132192 
L 909.196016 384.614384 
L 911.022066 385.304795 
L 912.090973 385.65 
L 912.714502 385.952055 
L 915.075005 387.462329 
L 917.925423 390.05137 
L 922.468278 394.064384 
L 923.047269 394.668493 
L 923.136345 395.315753 
L 923.047269 395.919863 
L 922.201051 399.544521 
L 922.468278 402.00411 
L 923.403571 403.514384 
L 925.496848 405.283562 
L 927.85735 405.844521 
L 930.663231 406.880137 
L 931.464912 408.519863 
L 931.420374 410.375342 
" clip-path="url(#p274cb3a501)"/>
   </g>
  </g>
 </g>
 <defs>
  <clipPath id="p274cb3a501">
   <rect x="79.946891" y="10.8" width="920.106218" height="1058.4"/>
  </clipPath>
 </defs>
</svg>
