<?xml version="1.0" encoding="utf-8" standalone="no"?>
<!DOCTYPE svg PUBLIC "-//W3C//DTD SVG 1.1//EN"
  "http://www.w3.org/Graphics/SVG/1.1/DTD/svg11.dtd">
<svg xmlns:xlink="http://www.w3.org/1999/xlink" width="1080pt" height="1080pt" viewBox="0 0 1080 1080" xmlns="http://www.w3.org/2000/svg" version="1.1">
 <metadata>
  <rdf:RDF xmlns:dc="http://purl.org/dc/elements/1.1/" xmlns:cc="http://creativecommons.org/ns#" xmlns:rdf="http://www.w3.org/1999/02/22-rdf-syntax-ns#">
   <cc:Work>
    <dc:type rdf:resource="http://purl.org/dc/dcmitype/StillImage"/>
    <dc:date>2022-07-01T13:43:17.998147</dc:date>
    <dc:format>image/svg+xml</dc:format>
    <dc:creator>
     <cc:Agent>
      <dc:title>Matplotlib v3.5.1, https://matplotlib.org/</dc:title>
     </cc:Agent>
    </dc:creator>
   </cc:Work>
  </rdf:RDF>
 </metadata>
 <defs>
  <style type="text/css">*{stroke-linejoin: round; stroke-linecap: butt}</style>
 </defs>
 <g id="figure_1">
  <g id="patch_1">
   <path d="M 0 1080 
L 1080 1080 
L 1080 0 
L 0 0 
L 0 1080 
z
" style="fill: none; opacity: 0"/>
  </g>
  <g id="axes_1">
   <g id="PatchCollection_1">
    <path d="M 249.047932 89.637985 
L 249.97781 90.281497 
L 253.033122 94.786082 
L 254.162259 97.874941 
L 254.560778 104.503117 
L 257.94819 106.948463 
L 261.999799 107.077165 
L 271.763514 104.953575 
L 280.863031 102.894336 
L 284.715381 102.186473 
L 286.973655 100.384639 
L 289.16551 97.746239 
L 291.556624 94.078219 
L 291.955143 91.375468 
L 290.759586 88.35096 
L 290.294647 86.22737 
L 291.025265 85.069048 
L 291.822303 84.682941 
L 301.253919 82.301946 
L 307.231704 81.207975 
L 313.010229 80.307058 
L 317.659617 79.406141 
L 319.984311 78.82698 
L 320.781349 79.148736 
L 321.844067 79.599194 
L 322.906784 81.98019 
L 322.242586 86.034316 
L 320.44925 92.340736 
L 321.644807 94.271273 
L 323.504562 94.528678 
L 327.224073 92.662492 
L 335.393712 86.613477 
L 340.574459 82.494999 
L 343.164832 80.95057 
L 345.821625 80.628814 
L 354.057684 84.875994 
L 359.50411 86.22737 
L 364.219918 86.999585 
L 368.337948 87.707448 
L 372.123878 88.801419 
L 373.917214 91.697224 
L 374.448572 97.617536 
L 374.514992 103.6022 
L 376.441167 104.631819 
L 378.699441 104.374414 
L 386.204882 98.90456 
L 387.798958 98.389751 
L 389.060935 98.518453 
L 390.721431 98.840209 
L 392.116247 100.255936 
L 394.440941 103.6022 
L 395.902178 104.889224 
L 397.496254 104.953575 
L 398.75823 104.374414 
L 407.592068 97.874941 
L 408.721205 96.523565 
L 408.920464 95.107839 
L 408.986884 92.598141 
L 409.318983 88.994473 
L 410.315281 87.836151 
L 412.241456 87.771799 
L 414.69899 89.509282 
L 420.809614 94.850434 
L 423.732087 97.939292 
L 424.130606 99.161965 
L 423.997766 100.44899 
L 419.746897 105.339683 
L 419.414798 107.591975 
L 419.946156 108.428541 
L 420.942454 108.943351 
L 432.698764 110.616483 
L 443.325937 112.547019 
L 444.920013 112.225263 
L 448.772363 107.84938 
L 453.68743 101.414258 
L 455.414346 100.320287 
L 457.274101 99.612424 
L 461.259291 98.647156 
L 466.440038 97.29578 
L 468.499052 97.424482 
L 469.827449 98.003643 
L 470.292388 99.226317 
L 469.960289 101.156853 
L 468.166953 103.923956 
L 468.366213 105.146629 
L 469.096831 106.111897 
L 478.395607 109.329458 
L 480.188943 108.943351 
L 482.912156 108.557244 
L 488.823521 105.918844 
L 492.94155 102.894336 
L 496.262542 100.642043 
L 498.454396 95.429595 
L 499.185014 92.405087 
L 502.970944 90.925009 
L 503.701563 90.860658 
L 512.5354 90.796307 
L 515.856392 89.89539 
L 518.978124 88.222258 
L 520.970719 86.935234 
L 522.431955 87.643097 
L 523.561092 89.251877 
L 528.2769 97.038375 
L 531.99641 101.542961 
L 534.188265 105.017926 
L 535.715921 107.591975 
L 538.306294 107.527624 
L 539.634691 106.047546 
L 541.095927 107.527624 
L 546.343094 117.88817 
L 553.383596 133.718571 
L 554.047794 137.837049 
L 554.379893 142.727742 
L 555.176931 149.548971 
L 554.446313 156.949361 
L 553.317176 163.770591 
L 552.719398 168.46823 
L 550.328284 182.496796 
L 548.00359 201.480406 
L 546.542353 214.994162 
L 544.483339 233.977772 
L 544.0184 239.254572 
L 540.298889 276.771333 
L 537.642096 289.448524 
L 535.91518 296.076699 
L 535.782341 298.007236 
L 535.450242 301.417851 
L 537.044318 333.786515 
L 554.911252 353.60669 
L 593.368334 396.979413 
L 594.497471 398.009032 
L 597.154264 400.776135 
L 610.039711 377.545344 
L 610.836749 378.124505 
L 614.689099 380.376798 
L 618.47503 382.500388 
L 620.334785 383.65871 
L 621.862441 384.559627 
L 623.057998 385.331842 
L 624.187135 385.846652 
L 626.711089 382.629091 
L 628.836523 379.668935 
L 632.223935 382.56474 
L 634.747888 385.138788 
L 635.279247 385.717949 
L 634.947148 387.198027 
L 634.482209 388.485052 
L 633.88443 389.836427 
L 635.744186 391.766964 
L 638.932338 395.434984 
L 639.330857 395.949793 
L 651.286426 406.052935 
L 655.138776 408.240876 
L 656.865692 407.91912 
L 657.59631 407.533013 
L 658.526188 407.082554 
L 658.725447 406.245989 
L 658.791867 405.023315 
L 658.592607 402.577969 
L 658.858287 401.419647 
L 661.116561 397.815979 
L 664.039034 394.984525 
L 664.703232 395.048876 
L 670.348917 397.36552 
L 672.075833 397.88033 
L 679.514854 399.746515 
L 686.156837 401.934457 
L 691.935362 403.543237 
L 695.123514 404.444154 
L 698.843025 408.755686 
L 699.640063 410.364467 
L 699.772902 411.908896 
L 699.839322 413.131569 
L 699.374383 415.126457 
L 698.843025 416.091725 
L 697.846727 417.893559 
L 696.98327 419.051881 
L 692.665981 425.229599 
L 695.920552 427.93235 
L 696.451911 428.189755 
L 701.433398 429.862886 
L 702.429696 429.927238 
L 704.223031 429.798535 
L 705.883527 429.090672 
L 709.603037 427.481891 
L 712.924029 430.892506 
L 714.186006 432.308233 
L 714.385265 438.679004 
L 714.518105 440.09473 
L 714.783784 440.545189 
L 721.093668 443.24794 
L 724.14898 444.341911 
L 725.145278 444.470613 
L 729.794666 442.411374 
L 732.2522 440.931296 
L 733.182077 440.60954 
L 737.964305 438.550301 
L 739.093442 438.421599 
L 741.617396 437.391979 
L 745.602586 437.005872 
L 749.654195 436.748467 
L 752.510248 436.298008 
L 754.104324 436.555413 
L 760.082109 445.693287 
L 763.46952 446.722906 
L 768.517427 446.722906 
L 770.974961 445.88634 
L 778.347562 455.34597 
L 782.067072 454.187648 
L 783.727568 453.865892 
L 785.985842 453.544136 
L 787.845598 453.672838 
L 792.162887 454.445053 
L 794.354741 455.152916 
L 797.011534 456.632994 
L 799.203389 457.340858 
L 801.594503 457.662614 
L 803.122159 457.791316 
L 804.317716 457.662614 
L 806.044631 457.212155 
L 807.439448 456.697345 
L 807.970806 456.053833 
L 808.236486 455.34597 
L 808.502165 453.351082 
L 808.967104 450.390926 
L 810.42834 441.381755 
L 810.49476 440.030379 
L 810.56118 437.906789 
L 810.694019 436.491062 
L 811.358218 432.17953 
L 811.291798 431.536018 
L 809.232783 427.224486 
L 809.764142 425.100896 
L 815.941186 423.685169 
L 821.653291 429.283725 
L 822.38391 429.734184 
L 822.915268 430.184643 
L 823.513047 430.828155 
L 823.778726 431.407316 
L 824.177245 433.20915 
L 824.575764 433.852662 
L 825.439222 434.496174 
L 827.099718 435.590145 
L 828.760213 436.36236 
L 829.95577 436.555413 
L 831.217747 436.426711 
L 836.597753 432.243882 
L 840.051585 431.664721 
L 842.708378 431.857774 
L 843.239736 431.986477 
L 844.036774 429.798535 
L 845.165912 428.382808 
L 847.025667 427.867999 
L 848.752582 428.382808 
L 850.745177 429.862886 
L 852.737772 429.991589 
L 859.446175 428.768916 
L 861.30593 428.44716 
L 862.102968 427.41754 
L 861.903709 418.086613 
L 863.497785 418.794477 
L 865.822479 419.888447 
L 868.080753 420.338906 
L 869.541989 420.081501 
L 870.737546 418.730125 
L 871.468164 415.963023 
L 873.859278 412.423706 
L 875.320515 411.007979 
L 876.117553 410.428818 
L 877.977308 408.94874 
L 880.766941 407.91912 
L 881.16546 407.790418 
L 888.604481 405.666828 
L 896.77412 402.835374 
L 898.965974 402.320564 
L 902.419805 401.870106 
L 905.076599 402.577969 
L 907.932651 403.221481 
L 909.925246 403.414535 
L 910.655864 402.964076 
L 911.452902 402.964076 
L 912.117101 403.092779 
L 919.954641 400.776135 
L 922.080075 403.478886 
L 923.209212 405.216369 
L 925.068968 408.047823 
L 926.131685 409.399198 
L 930.847493 415.705618 
L 932.375149 415.383862 
L 932.906508 415.126457 
L 935.098362 415.126457 
L 937.423056 416.027374 
L 940.611208 418.665774 
L 941.076147 419.051881 
L 928.522799 430.313345 
L 931.378852 434.367472 
L 937.157377 441.381755 
L 940.279109 445.435882 
L 942.404543 448.717794 
L 945.991214 448.202984 
L 947.78455 448.267335 
L 949.046527 449.103901 
L 950.574183 450.648331 
L 953.363816 455.474672 
L 954.692212 456.826048 
L 957.548265 458.306126 
L 964.190248 460.944526 
L 972.492727 464.226438 
L 983.252739 468.795375 
L 988.699165 470.404155 
L 991.887317 470.339804 
L 994.212011 470.404155 
L 995.540408 470.211102 
L 996.802385 469.245833 
L 997.665842 467.958809 
L 997.997942 465.706516 
L 998.46288 461.459336 
L 999.392758 455.989482 
L 1000.787575 451.227492 
L 1003.245108 444.921072 
L 1003.577207 442.797482 
L 1003.577207 440.287784 
L 1002.51449 435.590145 
L 1002.315231 432.629989 
L 1002.780169 431.08556 
L 1004.772764 429.991589 
L 1006.5661 430.05594 
L 1009.222893 430.892506 
L 1011.680427 432.69434 
L 1015.399937 435.268389 
L 1017.591792 435.590145 
L 1019.451547 435.525794 
L 1020.315005 435.010984 
L 1021.377722 433.595257 
L 1026.824148 419.952799 
L 1028.351804 418.150964 
L 1031.207857 415.705618 
L 1034.06391 414.032486 
L 1036.521443 413.903784 
L 1038.248359 414.675998 
L 1042.831327 419.437989 
L 1047.015777 424.843491 
L 1048.809112 428.768916 
L 1049.008372 431.986477 
L 1048.941952 436.684116 
L 1049.274051 437.713735 
L 1053.059981 439.901677 
L 1062.225918 446.465501 
L 1063.355055 447.881228 
L 1063.222215 449.296955 
L 1062.026658 450.004818 
L 1057.975049 452.514516 
L 1056.779492 453.80154 
L 1056.447393 455.732077 
L 1057.045171 459.013989 
L 1059.569125 462.23155 
L 1063.554314 466.671784 
L 1066.875306 470.725911 
L 1068.668641 473.879121 
L 1069.2 476.839277 
L 1069.2 480.12119 
L 1068.402962 483.016994 
L 1066.742466 487.972038 
L 1066.078268 487.392877 
L 1065.28123 487.199824 
L 1063.753574 486.813716 
L 1062.093078 486.749365 
L 1060.366163 487.328526 
L 1058.439987 488.744253 
L 1058.041468 489.13036 
L 1056.248133 491.060897 
L 1054.853317 492.540975 
L 1054.521217 492.862731 
L 1053.65776 493.570595 
L 1053.059981 494.021053 
L 1052.595042 494.342809 
L 1052.130104 494.664565 
L 1050.004669 495.629834 
L 1049.40689 495.822887 
L 1047.414296 496.466399 
L 1044.691083 497.367317 
L 1040.440213 498.718692 
L 1039.045397 499.169151 
L 1035.591566 500.263121 
L 1032.536254 501.164039 
L 1029.414521 502.129307 
L 1025.96069 503.223278 
L 1021.377722 505.089463 
L 1018.986608 506.119083 
L 1017.193273 506.891297 
L 1016.329815 507.277404 
L 1014.934998 507.920917 
L 1011.680427 509.465346 
L 1008.425855 511.009775 
L 1007.894496 511.26718 
L 1004.839184 513.004663 
L 1001.252513 514.999551 
L 996.603125 517.5736 
L 991.953737 520.147649 
L 988.367066 522.142536 
L 991.688058 532.37438 
L 993.082874 539.002556 
L 993.680653 541.898361 
L 995.473988 549.877912 
L 997.068064 557.471356 
L 997.599423 560.431512 
L 997.997942 563.005561 
L 998.5293 565.450908 
L 1005.702642 598.334381 
L 1010.617709 626.069757 
L 1010.949809 627.035025 
L 1000.056956 634.692821 
L 1000.920414 638.489543 
L 1001.850292 642.608021 
L 1002.315231 644.66726 
L 1005.237703 654.19124 
L 1012.145366 677.228977 
L 1013.473762 681.60486 
L 1010.48487 682.891885 
L 996.071767 687.782577 
L 991.090279 689.841816 
L 959.142341 704.25649 
L 918.692664 722.274831 
L 869.608409 744.025544 
L 868.014333 744.797759 
L 867.947913 746.406539 
L 869.27631 751.940744 
L 869.608409 754.450442 
L 867.748654 756.831437 
L 865.42396 758.182812 
L 855.593825 760.563808 
L 853.800489 761.20732 
L 848.021964 763.137856 
L 833.077502 769.315574 
L 803.653517 781.349252 
L 780.340157 791.001935 
L 763.33668 798.016218 
L 754.237163 802.585154 
L 752.709507 803.42172 
L 742.812953 808.569818 
L 730.658124 815.197994 
L 713.654647 822.92014 
L 702.695375 827.875184 
L 690.474126 832.637174 
L 656.467173 845.378716 
L 628.969363 855.867965 
L 604.128346 864.491028 
L 600.076737 866.035458 
L 588.785366 870.346989 
L 570.918431 877.683028 
L 551.92236 886.048687 
L 531.863571 894.478697 
L 519.775162 900.656414 
L 510.874904 905.675809 
L 491.480314 917.32338 
L 462.919787 934.1834 
L 459.864474 936.113937 
L 452.956812 940.489819 
L 434.757778 952.266093 
L 427.053078 957.929 
L 409.451823 973.437644 
L 391.319209 989.847205 
L 380.891296 1001.366074 
L 376.507587 1006.385469 
L 371.39326 1013.206698 
L 369.334245 1016.038152 
L 360.500408 1028.522289 
L 350.803113 1041.521235 
L 342.168535 1052.074835 
L 336.32359 1057.158582 
L 333.334697 1060.054387 
L 330.478644 1060.955304 
L 328.28679 1060.76225 
L 325.829256 1059.024767 
L 321.644807 1056.064611 
L 323.305303 1045.253606 
L 325.032218 1036.115733 
L 325.231478 1033.477333 
L 322.641104 1030.002367 
L 315.135664 1025.111674 
L 311.615413 1021.70106 
L 310.951214 1018.419147 
L 311.084054 1014.493723 
L 311.814672 1009.281274 
L 310.353436 1006.642874 
L 301.785278 999.950347 
L 286.110198 985.921781 
L 282.722786 982.897274 
L 280.663772 981.481547 
L 277.741299 981.545898 
L 265.58647 987.208805 
L 260.870662 991.391635 
L 256.819052 995.960571 
L 256.420533 996.153625 
L 255.357816 996.604084 
L 252.236084 996.668435 
L 246.856078 995.89622 
L 235.431867 993.77263 
L 224.007656 990.040259 
L 220.221726 987.594913 
L 219.291848 985.406971 
L 219.424688 984.956513 
L 219.756787 983.090327 
L 222.812099 979.744064 
L 223.210618 977.877878 
L 223.011359 976.011693 
L 220.288146 975.432532 
L 211.188629 974.531615 
L 194.782931 973.115888 
L 191.461939 973.952454 
L 187.808848 978.135283 
L 185.152055 981.6746 
L 182.893781 982.125059 
L 180.768346 981.288493 
L 174.524882 977.877878 
L 168.281418 975.689937 
L 162.702152 974.531615 
L 155.196712 973.566347 
L 148.753988 969.126113 
L 141.182127 962.240532 
L 127.101123 946.989293 
L 121.256178 943.514327 
L 116.075431 942.162951 
L 111.691723 942.420356 
L 97.07936 944.865702 
L 90.636636 947.053644 
L 84.260333 950.399907 
L 80.142303 951.493878 
L 75.758594 949.692044 
L 69.44871 942.999517 
L 63.404506 936.435693 
L 60.880552 935.277371 
L 55.301286 936.371341 
L 45.205472 939.524551 
L 44.939793 937.400961 
L 43.810656 935.663478 
L 39.692626 933.15378 
L 34.910398 930.772785 
L 33.117063 928.456141 
L 32.187185 925.882092 
L 31.788666 924.530717 
L 31.788666 923.436746 
L 32.386445 922.664531 
L 34.046941 922.278424 
L 36.902993 921.570561 
L 39.294107 919.96178 
L 40.821763 918.803458 
L 40.954603 917.32338 
L 40.556084 914.68498 
L 39.825466 911.789175 
L 37.567192 908.700317 
L 35.906696 906.962834 
L 35.176078 905.933214 
L 34.843979 904.453136 
L 35.508177 902.329546 
L 36.637314 898.790229 
L 38.032131 895.958775 
L 39.759046 893.191673 
L 39.759046 891.840297 
L 41.818061 878.455243 
L 41.950901 876.460355 
L 42.34942 871.698365 
L 43.345717 868.223399 
L 44.740533 865.842404 
L 46.533869 863.847516 
L 49.788441 862.689194 
L 52.910173 862.238736 
L 54.570668 861.080414 
L 58.423019 857.348043 
L 60.814132 854.387887 
L 61.61117 851.105975 
L 62.806727 845.507418 
L 62.275369 839.458404 
L 63.205246 837.013057 
L 65.66278 833.47374 
L 68.319573 829.998774 
L 69.249451 828.132589 
L 68.718092 825.55854 
L 70.976366 824.850677 
L 73.69958 824.335867 
L 90.038858 820.539145 
L 90.902316 820.088686 
L 90.437377 812.044784 
L 89.839598 805.674013 
L 89.507499 801.81294 
L 88.976141 800.718969 
L 88.444782 799.624998 
L 86.717866 795.50652 
L 85.655149 793.125525 
L 84.725271 791.774149 
L 84.393172 791.452393 
L 80.275143 786.690403 
L 79.876624 786.304296 
L 78.813906 785.853837 
L 75.825014 786.175593 
L 65.994879 789.71491 
L 60.482033 792.803769 
L 58.821537 793.189876 
L 55.566966 785.725135 
L 46.998808 765.390149 
L 45.471152 761.400373 
L 26.34224 757.5393 
L 25.146683 757.217544 
L 23.685447 756.445329 
L 23.087669 755.673115 
L 22.821989 753.227768 
L 22.290631 750.846773 
L 21.227913 743.382032 
L 21.427173 742.352412 
L 20.829394 740.67928 
L 18.70396 738.04088 
L 17.774082 737.333017 
L 15.914327 736.689505 
L 13.456793 736.4321 
L 11.464198 735.080724 
L 10.8 734.30851 
L 10.8 732.442324 
L 10.86642 715.453602 
L 11.264939 715.711007 
L 14.320251 716.41887 
L 18.969639 715.453602 
L 21.427173 713.973524 
L 22.888409 713.072607 
L 28.932614 706.187026 
L 32.652124 701.939846 
L 37.168673 696.791748 
L 45.603991 687.139065 
L 48.194365 684.24326 
L 49.85486 682.248372 
L 52.179554 678.45165 
L 52.843753 675.620197 
L 52.843753 672.531338 
L 54.03931 669.313777 
L 58.489438 665.517055 
L 69.315871 658.695826 
L 74.828717 655.22086 
L 87.116385 647.498714 
L 91.167995 644.088099 
L 92.031453 643.380235 
L 105.04974 631.346557 
L 114.215676 622.852196 
L 98.274917 605.541718 
L 71.706985 581.731766 
L 60.814132 572.915649 
L 51.648196 562.040293 
L 41.552382 547.368215 
L 41.884481 545.566381 
L 41.751641 544.150654 
L 40.290405 541.447902 
L 38.09855 539.131259 
L 37.567192 536.428507 
L 37.035833 531.409112 
L 37.035833 528.770712 
L 38.563489 526.775824 
L 45.205472 515.964819 
L 46.733128 516.930088 
L 47.330907 516.286575 
L 80.142303 481.794321 
L 118.665805 442.411374 
L 84.260333 420.53196 
L 79.345265 427.546243 
L 60.349194 421.754633 
L 60.548453 421.368525 
L 61.87685 419.631042 
L 66.858337 409.46355 
L 68.053894 407.018203 
L 76.821312 386.940623 
L 87.647744 364.160291 
L 98.474176 361.586242 
L 103.588503 360.814027 
L 107.175174 361.200134 
L 116.67321 362.680212 
L 114.879874 356.438144 
L 112.355921 346.849812 
L 110.164067 333.850866 
L 110.496166 329.796739 
L 110.296906 311.842748 
L 110.961104 299.165558 
L 112.68802 291.37906 
L 112.82086 290.671197 
L 117.603088 283.206455 
L 119.330003 272.845909 
L 121.721117 253.154436 
L 121.654697 246.461909 
L 124.975689 242.343431 
L 127.898161 240.091138 
L 133.145328 239.640679 
L 141.381387 240.284191 
L 145.233737 245.046182 
L 149.351767 246.461909 
L 151.94214 245.689694 
L 157.122887 237.130982 
L 163.69845 226.641733 
L 164.429068 223.295469 
L 159.8461 218.919586 
L 157.521406 214.157596 
L 157.853505 210.425225 
L 160.443878 205.92064 
L 164.163389 205.148425 
L 174.724142 203.990103 
L 173.661425 203.024835 
L 170.008334 199.61422 
L 168.480678 197.168874 
L 167.949319 193.693908 
L 167.68364 188.288405 
L 168.480678 184.29863 
L 168.082159 184.105576 
L 163.69845 179.472288 
L 162.370053 176.447781 
L 161.838695 173.423274 
L 161.772275 170.141361 
L 163.034252 165.379371 
L 165.226106 158.49379 
L 165.691045 155.018825 
L 165.159686 153.21699 
L 163.56561 151.736912 
L 160.775977 150.514239 
L 157.986345 149.548971 
L 155.72807 149.548971 
L 153.137697 149.870727 
L 150.148805 151.929966 
L 145.100897 155.726688 
L 142.377684 157.335469 
L 140.584349 157.850278 
L 138.060395 157.078064 
L 137.263357 155.340581 
L 136.731999 154.117908 
L 136.798419 152.830883 
L 136.798419 152.316073 
L 137.661876 145.752249 
L 138.857433 142.212932 
L 140.584349 138.673615 
L 143.573241 135.327351 
L 145.100897 133.847273 
L 145.831516 132.817654 
L 146.097195 131.530629 
L 146.030775 130.307956 
L 145.300157 128.763527 
L 143.97176 127.283449 
L 137.329777 123.358024 
L 131.684092 119.496951 
L 124.842849 114.284502 
L 118.732225 110.680834 
L 115.344813 107.978083 
L 112.023822 102.894336 
L 106.577396 92.662492 
L 101.263809 82.945458 
L 101.263809 80.757516 
L 101.463069 79.534843 
L 101.994427 78.569575 
L 104.385541 71.104833 
L 105.780358 64.347955 
L 105.846778 58.105887 
L 104.98332 54.309165 
L 101.595908 46.522667 
L 100.99813 42.146784 
L 101.529489 38.607467 
L 104.98332 31.014023 
L 110.164067 22.197906 
L 111.160364 20.910882 
L 112.090242 19.688208 
L 116.009012 19.044696 
L 116.075431 19.430803 
L 117.270988 27.925165 
L 119.529263 32.687155 
L 123.115933 36.998687 
L 126.901864 43.240755 
L 128.49594 47.74534 
L 130.754214 53.601301 
L 132.813229 58.363292 
L 136.532739 68.015975 
L 138.392495 69.624755 
L 141.049288 70.91178 
L 154.333254 74.129341 
L 162.702152 78.376521 
L 170.871792 84.361185 
L 173.661425 84.425536 
L 175.52118 83.782024 
L 179.705629 76.317282 
L 187.609589 66.149789 
L 190.797741 62.48177 
L 192.856756 61.259097 
L 195.11503 61.194745 
L 196.775526 63.125282 
L 195.380709 71.683994 
L 196.974785 79.792248 
L 198.170342 86.999585 
L 199.10022 92.147682 
L 199.764418 94.078219 
L 201.889853 95.107839 
L 204.945165 95.107839 
L 210.922949 95.043487 
L 220.885924 94.914785 
L 226.133091 95.043487 
L 228.324945 95.107839 
L 229.454082 94.65738 
L 235.963226 92.212034 
L 244.597804 88.222258 
L 246.391139 87.707448 
L 249.047932 89.637985 
" clip-path="url(#p0e1a0e4fb0)"/>
   </g>
  </g>
 </g>
 <defs>
  <clipPath id="p0e1a0e4fb0">
   <rect x="10.8" y="19.044696" width="1058.4" height="1041.910608"/>
  </clipPath>
 </defs>
</svg>
