<?xml version="1.0" encoding="utf-8" standalone="no"?>
<!DOCTYPE svg PUBLIC "-//W3C//DTD SVG 1.1//EN"
  "http://www.w3.org/Graphics/SVG/1.1/DTD/svg11.dtd">
<svg xmlns:xlink="http://www.w3.org/1999/xlink" width="1080pt" height="1080pt" viewBox="0 0 1080 1080" xmlns="http://www.w3.org/2000/svg" version="1.1">
 <metadata>
  <rdf:RDF xmlns:dc="http://purl.org/dc/elements/1.1/" xmlns:cc="http://creativecommons.org/ns#" xmlns:rdf="http://www.w3.org/1999/02/22-rdf-syntax-ns#">
   <cc:Work>
    <dc:type rdf:resource="http://purl.org/dc/dcmitype/StillImage"/>
    <dc:date>2022-07-01T13:43:18.044419</dc:date>
    <dc:format>image/svg+xml</dc:format>
    <dc:creator>
     <cc:Agent>
      <dc:title>Matplotlib v3.5.1, https://matplotlib.org/</dc:title>
     </cc:Agent>
    </dc:creator>
   </cc:Work>
  </rdf:RDF>
 </metadata>
 <defs>
  <style type="text/css">*{stroke-linejoin: round; stroke-linecap: butt}</style>
 </defs>
 <g id="figure_1">
  <g id="patch_1">
   <path d="M 0 1080 
L 1080 1080 
L 1080 0 
L 0 0 
L 0 1080 
z
" style="fill: none; opacity: 0"/>
  </g>
  <g id="axes_1">
   <g id="PatchCollection_1">
    <path d="M 1037.42545 525.203364 
L 1031.78803 536.127055 
L 1028.30308 549.136178 
L 1027.790587 556.981375 
L 1028.508077 563.138364 
L 1029.123068 567.905066 
L 1032.095526 577.835694 
L 1038.655433 595.909438 
L 1042.242882 608.42203 
L 1044.395352 613.089426 
L 1045.93283 623.814504 
L 1046.035328 637.121546 
L 1048.290296 652.414714 
L 1051.775247 661.749505 
L 1053.517722 664.728694 
L 1057.720163 671.77944 
L 1065.920046 682.107293 
L 1068.790006 686.774689 
L 1069.2 689.257346 
L 1067.970017 691.839309 
L 1059.770134 700.677569 
L 1052.800232 707.33109 
L 1041.217897 718.453394 
L 1030.968042 728.880553 
L 1024.203138 739.009794 
L 1023.178152 742.783433 
L 1021.845671 747.848054 
L 1021.845671 754.998106 
L 1023.793144 765.127347 
L 1027.483091 777.441327 
L 1027.58559 785.286523 
L 1024.818129 791.2449 
L 1014.568274 798.792178 
L 997.24602 810.113094 
L 983.81871 819.547191 
L 975.208832 827.491694 
L 968.853922 835.336891 
L 965.778966 843.281393 
L 965.881464 853.311328 
L 967.931435 862.248894 
L 969.263916 865.82392 
L 944.766764 862.546813 
L 929.49448 861.156525 
L 925.29204 861.156525 
L 904.79233 869.29964 
L 898.43742 869.29964 
L 882.652644 860.064155 
L 869.430331 855.198148 
L 860.512958 855.297454 
L 849.955607 858.276642 
L 833.248344 868.902415 
L 804.343754 881.017782 
L 771.339221 893.133148 
L 756.681929 896.708174 
L 738.232191 898.396381 
L 723.574898 902.96447 
L 710.967577 908.525622 
L 701.230215 918.555557 
L 695.387798 924.513934 
L 692.41534 915.874287 
L 683.702963 907.830478 
L 682.267984 906.936722 
L 687.905404 900.183894 
L 694.055317 891.544248 
L 697.540267 885.287952 
L 698.462754 881.613619 
L 698.462754 879.428881 
L 696.515282 876.350386 
L 694.157815 874.264954 
L 689.545381 872.179522 
L 678.783033 869.498252 
L 673.555607 868.604496 
L 671.608135 868.604496 
L 668.943173 869.200334 
L 665.048228 871.682991 
L 661.768274 872.676054 
L 656.233353 872.378135 
L 652.030912 871.484378 
L 649.36595 868.803109 
L 642.396049 859.567624 
L 637.783614 854.999535 
L 629.891226 848.643933 
L 619.231377 840.500817 
L 618.001395 839.507755 
L 615.438931 839.209836 
L 611.133992 839.209836 
L 605.291575 841.096655 
L 602.319117 842.685556 
L 600.371644 844.572375 
L 598.219175 849.835608 
L 594.939221 863.341263 
L 590.941778 877.542062 
L 589.4043 884.096276 
L 579.666938 882.507376 
L 573.927019 881.812232 
L 570.749564 882.606682 
L 566.342127 885.287952 
L 562.344683 886.082402 
L 559.474724 884.990033 
L 558.244741 883.103213 
L 557.834747 879.230268 
L 558.142243 872.77536 
L 559.577223 868.703802 
L 559.474724 863.937101 
L 559.372225 852.914103 
L 552.914817 848.941852 
L 543.382452 843.082781 
L 542.562464 842.884168 
L 541.537478 842.983474 
L 539.077513 843.777925 
L 533.030099 846.161276 
L 528.622661 848.147401 
L 526.982684 849.140464 
L 525.8552 849.339077 
L 524.932714 849.140464 
L 524.215224 848.544626 
L 521.65276 846.260582 
L 516.937827 841.891105 
L 513.657873 838.911917 
L 509.762929 836.032035 
L 507.50796 834.54244 
L 503.100523 832.258396 
L 497.770598 828.881982 
L 496.95061 828.186838 
L 496.95061 827.293082 
L 497.6681 823.916668 
L 489.468216 825.108343 
L 482.190819 825.902794 
L 479.32086 828.584063 
L 476.553399 832.059783 
L 474.605927 838.117467 
L 471.838466 845.068906 
L 467.431028 852.318265 
L 451.543754 842.784862 
L 440.576409 839.90498 
L 427.251598 840.004286 
L 410.85183 840.898043 
L 406.136897 837.22371 
L 404.49692 829.875045 
L 403.676932 825.406262 
L 378.052295 832.159089 
L 365.547472 836.826485 
L 361.550029 839.507755 
L 357.552586 844.075844 
L 346.790238 851.821734 
L 340.742824 856.489129 
L 337.975363 858.375949 
L 333.567926 859.567624 
L 330.697966 859.567624 
L 325.47054 857.184273 
L 318.398141 852.71549 
L 307.84079 845.366825 
L 305.175828 842.586249 
L 304.35584 837.422323 
L 304.35584 836.528566 
L 298.615921 836.826485 
L 295.540965 838.911917 
L 288.263568 844.770988 
L 279.961185 846.061969 
L 275.553748 845.664744 
L 272.068797 844.075844 
L 270.326322 842.486943 
L 267.251365 841.295268 
L 263.766415 840.500817 
L 260.998954 840.103592 
L 256.489018 826.498631 
L 257.821499 825.306956 
L 263.356421 822.427074 
L 271.556304 821.136092 
L 279.346194 819.447885 
L 282.728646 815.277021 
L 283.241139 811.602689 
L 282.626148 811.106157 
L 272.171296 797.898421 
L 269.608832 795.117845 
L 269.096339 792.635188 
L 269.096339 791.840738 
L 269.916328 787.76918 
L 274.631261 780.420515 
L 293.900988 762.346771 
L 301.178385 753.806431 
L 306.508309 744.273028 
L 311.325741 734.739624 
L 310.505752 718.751312 
L 309.378268 718.056168 
L 299.025915 711.799872 
L 296.668449 709.317215 
L 295.643463 706.635946 
L 294.310982 698.592137 
L 292.978501 695.612948 
L 284.676119 680.021861 
L 280.473678 674.162791 
L 276.78373 677.042673 
L 276.066241 677.737817 
L 272.376293 663.537018 
L 269.916328 660.259911 
L 266.123881 654.500146 
L 261.408948 655.98974 
L 250.544102 659.46546 
L 243.266705 661.550892 
L 239.986752 662.345343 
L 220.512028 660.955055 
L 201.549797 659.366154 
L 188.019988 657.181416 
L 177.360139 654.301534 
L 173.157699 651.223039 
L 167.725276 647.151481 
L 160.755375 640.200041 
L 154.297966 616.763758 
L 152.350494 610.606768 
L 149.480535 607.031742 
L 148.045555 605.74076 
L 146.200581 605.74076 
L 136.770715 609.415093 
L 117.090994 620.239478 
L 110.223591 622.920748 
L 107.251133 623.317973 
L 105.303661 621.53046 
L 91.671354 591.937187 
L 90.953864 588.759386 
L 90.54387 580.914189 
L 89.518884 575.253731 
L 86.033934 565.422409 
L 81.216502 556.981375 
L 75.579082 551.618835 
L 57.33434 539.106243 
L 55.694364 537.517343 
L 61.331784 529.274921 
L 55.079372 525.898508 
L 37.757118 524.408913 
L 36.322138 522.919319 
L 32.017199 517.954005 
L 31.402208 515.868573 
L 33.144683 513.683835 
L 34.477164 513.187303 
L 36.834631 513.187303 
L 39.602092 512.889384 
L 42.164555 510.406727 
L 44.419524 507.526845 
L 44.932016 506.434476 
L 44.932016 504.845575 
L 42.57455 501.965693 
L 42.267054 500.873324 
L 42.57455 499.780955 
L 55.489367 489.552407 
L 60.511795 484.189868 
L 66.55921 477.337734 
L 67.071702 473.862014 
L 67.379198 469.889763 
L 66.764207 467.3078 
L 55.181871 446.652092 
L 48.826961 437.416608 
L 49.134457 434.735338 
L 56.616851 424.606097 
L 58.564323 421.031071 
L 58.564323 419.44217 
L 53.951888 415.96645 
L 45.034515 408.915704 
L 43.702034 404.943453 
L 43.702034 397.892707 
L 45.239512 392.72878 
L 53.951888 375.35018 
L 58.05183 367.802902 
L 57.641836 366.214002 
L 52.926903 363.135507 
L 33.042185 350.324996 
L 16.027426 342.380494 
L 15.71993 337.415179 
L 13.772458 333.64154 
L 18.077397 325.994957 
L 25.764788 319.043517 
L 30.069727 317.454616 
L 32.324695 315.766409 
L 33.554678 313.978896 
L 39.192098 298.785035 
L 39.089599 284.584236 
L 37.552121 277.930715 
L 34.579663 271.972338 
L 29.352237 261.048646 
L 26.99477 258.764602 
L 24.22731 258.466683 
L 22.177339 258.863908 
L 19.512377 259.956277 
L 15.207438 262.637547 
L 12.849971 263.431997 
L 10.8 262.935466 
L 11.927484 253.898594 
L 14.797443 240.790164 
L 15.924927 239.002651 
L 17.257408 238.605426 
L 23.407321 239.30057 
L 30.274724 238.804039 
L 37.654619 238.009588 
L 40.012086 238.208201 
L 43.599535 239.30057 
L 46.981987 239.797101 
L 49.441952 239.201264 
L 52.004416 237.115832 
L 52.824404 235.82485 
L 54.259384 231.753292 
L 55.694364 230.263698 
L 60.511795 227.185203 
L 65.944218 223.312258 
L 69.531668 221.12752 
L 70.249157 219.240701 
L 70.249157 216.261512 
L 66.661708 209.607991 
L 66.55921 207.423253 
L 66.969204 206.330884 
L 68.199187 205.238514 
L 89.006392 204.642677 
L 91.671354 205.139208 
L 93.413829 205.735046 
L 94.643812 207.22464 
L 95.873794 208.714234 
L 95.156304 210.402441 
L 91.671354 216.758043 
L 91.568855 221.028214 
L 91.773852 222.120583 
L 92.081348 223.908096 
L 98.538757 230.76023 
L 106.328646 236.321382 
L 110.121092 237.513057 
L 114.938524 236.6193 
L 117.808483 235.328319 
L 130.518303 230.462311 
L 133.388263 230.76023 
L 136.975712 233.044274 
L 141.178152 240.194327 
L 145.688088 248.337442 
L 148.968042 251.217324 
L 154.092969 253.004837 
L 194.477397 261.445872 
L 199.807321 261.346565 
L 202.267286 260.452809 
L 216.719582 244.365191 
L 234.041836 226.787978 
L 235.88681 221.326133 
L 235.88681 217.6518 
L 231.889367 208.118397 
L 226.456944 198.088462 
L 222.971993 188.555059 
L 222.357002 183.093213 
L 231.479372 168.395883 
L 241.114236 156.876354 
L 243.574201 155.486066 
L 245.316676 155.486066 
L 246.034166 155.486066 
L 266.328879 162.040281 
L 276.271238 165.317388 
L 281.908658 167.601433 
L 283.446136 168.19727 
L 298.615921 174.35426 
L 326.700523 185.973095 
L 338.89785 192.825229 
L 347.097734 199.280137 
L 351.095177 203.252389 
L 351.812667 206.926721 
L 351.505171 213.580242 
L 349.045206 242.974903 
L 348.020221 259.459746 
L 347.302731 273.164013 
L 347.302731 280.016147 
L 349.557699 291.138451 
L 351.710169 296.798909 
L 360.012551 309.60942 
L 364.009994 314.67404 
L 368.622429 317.256004 
L 369.749913 317.156697 
L 372.619872 316.858778 
L 376.822313 315.46849 
L 379.179779 312.389996 
L 379.589773 309.708726 
L 378.359791 306.828844 
L 370.877397 297.791972 
L 368.417432 292.131513 
L 368.314933 286.669668 
L 371.594887 278.725165 
L 378.769785 267.503555 
L 390.147124 253.699981 
L 393.734573 250.224261 
L 398.8595 248.734667 
L 403.164439 248.734667 
L 418.64172 253.402062 
L 429.609064 258.168764 
L 436.373969 262.438934 
L 440.986403 266.907717 
L 447.648809 275.745977 
L 449.801278 277.434183 
L 453.491226 277.632796 
L 456.156188 276.540427 
L 467.636026 268.993149 
L 471.325973 268.993149 
L 474.40093 271.177887 
L 482.293318 280.016147 
L 483.830796 283.988398 
L 483.933295 287.364812 
L 480.653341 296.302377 
L 480.653341 299.678791 
L 483.113306 302.558673 
L 495.003138 308.417744 
L 508.122952 311.99277 
L 532.107612 318.050454 
L 569.212086 325.994957 
L 575.566996 326.292875 
L 579.256944 324.505362 
L 581.306915 321.029642 
L 582.434399 314.475428 
L 582.3319 303.651043 
L 583.459384 293.720414 
L 585.509355 288.556487 
L 590.634282 282.498804 
L 597.296688 278.427246 
L 601.806624 277.235571 
L 606.111563 277.235571 
L 612.466473 278.625859 
L 634.093666 284.981461 
L 645.471005 289.54955 
L 651.210924 293.81972 
L 651.723417 294.216945 
L 656.540848 299.778097 
L 674.0681 326.193569 
L 688.827891 348.835402 
L 702.050203 369.888334 
L 706.765137 373.959892 
L 715.375015 377.832837 
L 726.547356 381.805089 
L 733.824753 382.798151 
L 737.514701 382.798151 
L 739.974666 382.500233 
L 742.024637 381.109945 
L 744.177106 377.932143 
L 747.764555 372.768217 
L 751.352005 370.186253 
L 757.399419 368.994578 
L 766.214294 368.299434 
L 772.8767 368.795965 
L 826.380941 382.103007 
L 831.300872 384.585665 
L 833.453341 388.359303 
L 833.760837 392.331555 
L 833.145845 396.005887 
L 819.923533 409.213623 
L 802.806275 427.883205 
L 799.526322 432.5506 
L 799.218826 434.834645 
L 800.551307 437.615221 
L 805.368739 438.409671 
L 818.386055 439.204121 
L 826.073446 438.906202 
L 838.373271 438.508977 
L 848.110633 435.529789 
L 855.38803 431.458231 
L 861.947937 425.996385 
L 873.325276 412.49073 
L 882.140151 405.042759 
L 894.132481 398.985076 
L 903.254852 394.913518 
L 910.532249 393.721843 
L 915.657176 393.920455 
L 919.654619 395.310743 
L 922.934573 398.389238 
L 929.186984 410.10738 
L 930.416967 413.781712 
L 929.186984 417.456045 
L 924.369553 423.811647 
L 923.242069 427.783898 
L 924.267054 436.622158 
L 925.804532 443.176372 
L 929.801976 448.340299 
L 941.691807 453.40492 
L 945.074259 455.788271 
L 950.301685 461.647341 
L 956.656595 469.989069 
L 960.141546 476.940509 
L 962.499012 484.686399 
L 965.163974 491.637839 
L 968.033934 496.503847 
L 971.82638 498.390667 
L 976.02882 499.085811 
L 980.641255 499.085811 
L 991.813597 497.397604 
L 998.680999 497.298298 
L 1006.060895 498.589279 
L 1017.848228 504.150431 
L 1025.843114 510.009502 
L 1031.993027 515.868573 
L 1034.555491 520.138743 
L 1037.42545 525.203364 
" clip-path="url(#p2d9466e3f2)"/>
   </g>
  </g>
 </g>
 <defs>
  <clipPath id="p2d9466e3f2">
   <rect x="10.8" y="155.486066" width="1058.4" height="769.027868"/>
  </clipPath>
 </defs>
</svg>
