<?xml version="1.0" encoding="utf-8" standalone="no"?>
<!DOCTYPE svg PUBLIC "-//W3C//DTD SVG 1.1//EN"
  "http://www.w3.org/Graphics/SVG/1.1/DTD/svg11.dtd">
<svg xmlns:xlink="http://www.w3.org/1999/xlink" width="1080pt" height="1080pt" viewBox="0 0 1080 1080" xmlns="http://www.w3.org/2000/svg" version="1.1">
 <metadata>
  <rdf:RDF xmlns:dc="http://purl.org/dc/elements/1.1/" xmlns:cc="http://creativecommons.org/ns#" xmlns:rdf="http://www.w3.org/1999/02/22-rdf-syntax-ns#">
   <cc:Work>
    <dc:type rdf:resource="http://purl.org/dc/dcmitype/StillImage"/>
    <dc:date>2022-07-01T13:43:17.837929</dc:date>
    <dc:format>image/svg+xml</dc:format>
    <dc:creator>
     <cc:Agent>
      <dc:title>Matplotlib v3.5.1, https://matplotlib.org/</dc:title>
     </cc:Agent>
    </dc:creator>
   </cc:Work>
  </rdf:RDF>
 </metadata>
 <defs>
  <style type="text/css">*{stroke-linejoin: round; stroke-linecap: butt}</style>
 </defs>
 <g id="figure_1">
  <g id="patch_1">
   <path d="M 0 1080 
L 1080 1080 
L 1080 0 
L 0 0 
L 0 1080 
z
" style="fill: none; opacity: 0"/>
  </g>
  <g id="axes_1">
   <g id="PatchCollection_1">
    <path d="M 187.034139 1069.181869 
L 186.82829 1069.2 
L 186.585013 1069.163739 
L 186.397878 1069.109346 
L 186.285596 1069.073085 
L 186.154601 1068.982431 
L 186.023607 1068.891777 
L 185.855184 1068.728601 
L 185.78033 1068.601686 
L 185.705476 1068.492901 
L 185.630622 1068.275332 
L 185.593195 1068.112156 
L 185.593195 1067.948979 
L 185.593195 1067.803933 
L 185.611908 1067.677018 
L 185.668049 1067.513841 
L 185.742903 1067.332534 
L 185.799044 1067.223749 
L 185.911325 1067.096834 
L 186.023607 1066.98805 
L 186.173315 1066.861135 
L 186.341737 1066.770481 
L 186.510159 1066.716089 
L 186.716008 1066.679827 
L 186.88443 1066.661697 
L 187.015425 1066.679827 
L 187.165134 1066.697958 
L 187.296129 1066.73422 
L 187.464551 1066.824873 
L 187.632973 1066.933658 
L 187.726541 1067.006181 
L 187.820109 1067.114965 
L 187.913676 1067.205619 
L 187.969817 1067.332534 
L 188.025958 1067.441318 
L 188.082098 1067.568234 
L 188.119526 1067.749541 
L 188.138239 1067.930848 
L 188.119526 1068.075894 
L 188.100812 1068.239071 
L 188.063385 1068.365986 
L 188.007244 1068.492901 
L 187.913676 1068.637947 
L 187.820109 1068.764862 
L 187.726541 1068.855516 
L 187.632973 1068.94617 
L 187.501978 1069.036823 
L 187.333556 1069.109346 
L 187.165134 1069.163739 
L 187.034139 1069.181869 
" clip-path="url(#p787aa862e0)"/>
    <path d="M 219.782873 1055.112416 
L 219.595738 1055.112416 
L 219.371175 1055.076155 
L 219.184039 1054.876716 
L 219.015617 1054.677278 
L 218.996904 1054.314664 
L 219.034331 1053.98831 
L 219.258894 1053.788872 
L 219.427316 1053.643826 
L 219.745446 1053.535042 
L 220.08229 1053.625695 
L 220.28814 1053.807003 
L 220.456562 1054.115225 
L 220.493989 1054.441579 
L 220.34428 1054.731671 
L 220.213285 1054.840455 
L 220.02615 1054.985501 
L 219.782873 1055.112416 
" clip-path="url(#p787aa862e0)"/>
    <path d="M 213.888101 1053.299342 
L 213.738393 1053.299342 
L 213.551257 1053.263081 
L 213.401549 1053.226819 
L 213.270554 1053.172427 
L 213.120845 1053.099904 
L 213.008564 1053.00925 
L 212.896282 1052.918597 
L 212.784001 1052.773551 
L 212.709147 1052.646636 
L 212.634293 1052.483459 
L 212.559438 1052.247759 
L 212.540725 1052.048321 
L 212.540725 1051.903275 
L 212.559438 1051.77636 
L 212.615579 1051.613184 
L 212.67172 1051.468138 
L 212.765287 1051.304961 
L 212.896282 1051.159915 
L 213.008564 1051.051131 
L 213.139559 1050.942346 
L 213.307981 1050.869823 
L 213.476403 1050.7973 
L 213.682252 1050.761039 
L 213.850674 1050.761039 
L 213.981669 1050.77917 
L 214.131378 1050.7973 
L 214.2998 1050.851692 
L 214.430795 1050.924215 
L 214.61793 1051.033 
L 214.767639 1051.178046 
L 214.87992 1051.341222 
L 214.992201 1051.558791 
L 215.048342 1051.758229 
L 215.085769 1051.957668 
L 215.085769 1052.138975 
L 215.048342 1052.338413 
L 214.973488 1052.537851 
L 214.917347 1052.664766 
L 214.823779 1052.791682 
L 214.692784 1052.954858 
L 214.543076 1053.063643 
L 214.412081 1053.154296 
L 214.262372 1053.226819 
L 214.09395 1053.263081 
L 213.888101 1053.299342 
" clip-path="url(#p787aa862e0)"/>
    <path d="M 412.682277 1045.231163 
L 412.532568 1045.285556 
L 412.345433 1045.285556 
L 412.158297 1045.249294 
L 411.896307 1045.122379 
L 411.802739 1044.977333 
L 411.765312 1044.814157 
L 411.802739 1044.596588 
L 412.008589 1044.379019 
L 412.195724 1044.233973 
L 412.345433 1044.125188 
L 412.476428 1044.125188 
L 412.663563 1044.16145 
L 412.869412 1044.306496 
L 412.925553 1044.433411 
L 412.925553 1044.614718 
L 412.925553 1044.796026 
L 412.90684 1044.941072 
L 412.813272 1045.086118 
L 412.682277 1045.231163 
" clip-path="url(#p787aa862e0)"/>
    <path d="M 447.2088 1043.019213 
L 446.815815 1043.146129 
L 446.647393 1043.146129 
L 446.553825 1043.055475 
L 446.347976 1042.475291 
L 446.142127 1041.496231 
L 446.142127 1041.22427 
L 446.179554 1041.042963 
L 446.42283 1040.71661 
L 446.647393 1039.973249 
L 446.797101 1039.882596 
L 446.965524 1039.882596 
L 447.115232 1039.918857 
L 447.283654 1040.100164 
L 447.583071 1040.22708 
L 447.845061 1040.24521 
L 449.36086 1040.680348 
L 449.585422 1040.789133 
L 449.622849 1040.897917 
L 449.566709 1041.042963 
L 449.36086 1041.151747 
L 448.780739 1041.478101 
L 448.462609 1041.7138 
L 448.144478 1042.112676 
L 447.508217 1042.874167 
L 447.2088 1043.019213 
" clip-path="url(#p787aa862e0)"/>
    <path d="M 441.613445 1042.003892 
L 441.332741 1042.022023 
L 441.108178 1042.022023 
L 440.864902 1041.858846 
L 440.677766 1041.7138 
L 440.640339 1041.586885 
L 440.715194 1041.405578 
L 440.827475 1040.952309 
L 440.921043 1040.24521 
L 441.145606 1039.973249 
L 441.351455 1039.846334 
L 441.501163 1039.810073 
L 441.80058 1039.955119 
L 442.174851 1040.335864 
L 442.249706 1040.571564 
L 442.230992 1041.042963 
L 442.137424 1041.423708 
L 441.931575 1041.786323 
L 441.781867 1041.913238 
L 441.613445 1042.003892 
" clip-path="url(#p787aa862e0)"/>
    <path d="M 411.091624 1031.197972 
L 411.316187 1031.65124 
L 411.840166 1032.013855 
L 412.364146 1032.122639 
L 412.569995 1032.213293 
L 412.813272 1032.575908 
L 412.850699 1032.974784 
L 412.850699 1033.446183 
L 412.925553 1033.881321 
L 413.524387 1034.33459 
L 413.917372 1034.534028 
L 414.198075 1034.497766 
L 414.478779 1034.207674 
L 414.684628 1033.86319 
L 415.002759 1033.573099 
L 415.37703 1033.573099 
L 416.368849 1033.990106 
L 417.173532 1034.58842 
L 418.165351 1035.186734 
L 419.288164 1035.748787 
L 420.616827 1036.147663 
L 421.009812 1036.31084 
L 421.140807 1036.56467 
L 421.178234 1036.872893 
L 420.934958 1037.199246 
L 420.410978 1037.634384 
L 419.924426 1038.395875 
L 419.194597 1039.066712 
L 418.277632 1039.50185 
L 416.986396 1039.574373 
L 416.144286 1039.701288 
L 415.058899 1040.73474 
L 414.085794 1042.003892 
L 413.692809 1042.837906 
L 413.674096 1043.67192 
L 413.48696 1044.034535 
L 413.243684 1044.107058 
L 413.000407 1044.16145 
L 412.719704 1043.962012 
L 412.607423 1043.635658 
L 412.439 1042.801645 
L 412.364146 1042.475291 
L 411.765312 1042.239592 
L 410.717353 1042.112676 
L 410.249514 1041.750062 
L 410.155946 1041.45997 
L 410.249514 1040.952309 
L 410.567644 1040.752871 
L 410.848348 1040.589694 
L 410.885775 1040.263341 
L 410.642498 1039.628765 
L 410.567644 1038.105783 
L 410.623785 1036.745978 
L 410.455363 1036.202056 
L 410.268227 1035.803179 
L 409.950097 1035.785049 
L 409.669393 1035.984487 
L 409.38869 1036.347102 
L 409.014419 1036.836631 
L 408.771142 1037.579992 
L 408.378157 1037.77943 
L 408.041313 1037.743168 
L 407.816751 1037.380554 
L 407.816751 1036.818501 
L 407.573474 1036.455886 
L 406.806218 1036.220186 
L 406.244811 1036.220186 
L 405.645977 1036.455886 
L 405.252992 1036.492147 
L 405.009716 1036.256448 
L 404.729013 1035.56748 
L 404.354741 1034.262067 
L 403.999184 1033.047307 
L 403.999184 1032.050116 
L 404.130179 1030.65405 
L 404.24246 1029.656859 
L 404.541877 1029.294244 
L 404.934862 1029.294244 
L 405.814399 1029.384898 
L 406.375806 1029.620598 
L 406.899786 1030.019474 
L 407.367625 1030.835357 
L 407.741896 1031.234233 
L 407.985173 1031.270495 
L 408.209735 1031.197972 
L 408.789856 1030.146389 
L 408.958278 1028.714061 
L 408.958278 1028.043223 
L 409.107986 1027.807524 
L 409.519685 1027.807524 
L 409.987524 1027.880047 
L 410.436649 1028.043223 
L 410.75478 1028.369577 
L 410.867061 1028.677799 
L 411.054197 1029.965082 
L 411.091624 1031.197972 
" clip-path="url(#p787aa862e0)"/>
    <path d="M 470.937597 1025.541181 
L 471.16216 1025.631835 
L 471.349296 1025.577443 
L 471.966843 1024.77969 
L 473.05223 1023.365493 
L 473.407787 1022.839701 
L 473.63235 1022.80344 
L 473.89434 1022.930355 
L 474.605455 1023.637454 
L 475.615988 1025.160436 
L 475.840551 1025.432397 
L 476.196108 1025.613704 
L 476.514239 1025.559312 
L 476.832369 1025.251089 
L 477.318922 1024.453337 
L 477.899042 1023.002878 
L 478.048751 1021.479896 
L 478.048751 1020.863451 
L 478.142319 1020.645882 
L 478.441736 1020.645882 
L 480.369233 1021.226066 
L 481.398479 1022.114472 
L 481.828891 1023.184185 
L 481.77275 1023.818761 
L 481.697896 1024.398945 
L 481.903745 1025.26922 
L 482.259303 1025.577443 
L 482.708428 1025.359874 
L 483.382116 1025.01539 
L 483.999664 1025.01539 
L 484.579784 1025.160436 
L 484.935342 1025.50492 
L 485.328327 1026.230149 
L 485.159905 1026.629026 
L 483.157554 1028.025093 
L 482.764569 1028.351446 
L 482.465152 1028.423969 
L 482.240589 1028.387707 
L 481.885031 1027.843785 
L 481.585614 1027.662478 
L 481.005494 1027.662478 
L 480.743504 1027.843785 
L 479.377414 1029.004152 
L 478.572731 1029.566205 
L 478.217173 1029.711251 
L 477.917756 1029.656859 
L 476.88851 1028.986022 
L 476.270963 1028.532753 
L 475.971546 1028.496492 
L 475.653415 1028.478361 
L 475.241717 1028.623407 
L 474.68031 1028.297054 
L 473.744632 1027.408647 
L 472.939948 1026.574633 
L 472.603104 1026.24828 
L 472.116552 1026.030711 
L 471.573858 1026.103234 
L 470.937597 1026.520241 
L 470.600753 1027.027902 
L 470.095487 1028.641538 
L 470.05806 1030.055735 
L 469.889638 1031.506194 
L 469.814783 1031.868809 
L 469.515366 1031.905071 
L 469.159809 1031.905071 
L 468.111849 1031.379279 
L 466.614764 1030.472742 
L 465.95979 1029.548075 
L 465.510664 1028.079485 
L 464.986684 1026.919117 
L 464.33171 1026.030711 
L 463.339891 1025.087913 
L 462.684916 1024.598383 
L 462.011228 1024.018199 
L 461.749238 1023.492408 
L 461.674384 1022.060079 
L 461.786665 1020.392052 
L 462.011228 1019.938783 
L 462.628775 1019.594299 
L 464.967971 1019.666822 
L 466.109498 1019.684953 
L 466.858041 1019.793737 
L 467.625297 1020.156352 
L 468.729397 1021.226066 
L 469.53408 1022.785309 
L 470.507185 1024.652775 
L 470.937597 1025.541181 
" clip-path="url(#p787aa862e0)"/>
    <path d="M 413.412106 1018.742154 
L 413.000407 1018.8872 
L 412.308006 1018.778416 
L 411.690458 1018.724024 
L 411.391041 1018.542716 
L 411.353614 1018.089448 
L 411.353614 1017.853748 
L 411.27876 1017.636179 
L 411.147765 1017.364218 
L 411.110338 1017.128519 
L 411.260046 1016.91095 
L 411.709172 1016.367028 
L 412.64485 1016.095066 
L 412.869412 1016.131328 
L 413.056548 1016.385158 
L 413.019121 1016.747773 
L 413.056548 1017.074126 
L 413.543101 1017.871879 
L 413.617955 1018.14384 
L 413.543101 1018.506455 
L 413.412106 1018.742154 
" clip-path="url(#p787aa862e0)"/>
    <path d="M 499.681629 1013.212279 
L 499.775197 1013.375456 
L 500.055901 1013.393586 
L 500.224323 1013.429848 
L 500.486313 1013.756201 
L 500.710875 1014.118816 
L 500.710875 1014.300123 
L 500.617307 1014.699 
L 500.636021 1015.242922 
L 500.692162 1015.950021 
L 500.692162 1016.475812 
L 500.598594 1016.765904 
L 500.31789 1017.110388 
L 500.055901 1017.853748 
L 499.812624 1018.814677 
L 499.513207 1019.141031 
L 499.232504 1019.394861 
L 499.082795 1019.394861 
L 498.933087 1018.941592 
L 498.839519 1018.597108 
L 498.839519 1018.252624 
L 498.858233 1018.089448 
L 498.9518 1017.672441 
L 498.9518 1017.527395 
L 498.839519 1017.346087 
L 498.596243 1017.128519 
L 498.278112 1016.947211 
L 497.52957 1016.620858 
L 497.043017 1016.457681 
L 496.799741 1016.475812 
L 496.275761 1016.874688 
L 495.976344 1016.92908 
L 495.770495 1016.802165 
L 495.751781 1016.620858 
L 495.90149 1016.131328 
L 496.126052 1015.569275 
L 496.21962 1015.369837 
L 496.388042 1015.170399 
L 496.575178 1015.007222 
L 496.986876 1014.4633 
L 497.174012 1014.046293 
L 497.286293 1013.574894 
L 497.436002 1013.321063 
L 497.52957 1013.194148 
L 497.679278 1013.194148 
L 497.922554 1013.284802 
L 498.072263 1013.212279 
L 498.10969 1013.085364 
L 498.259399 1012.74088 
L 498.652383 1012.070042 
L 498.839519 1011.725558 
L 498.933087 1011.634905 
L 499.138936 1011.580513 
L 499.363499 1011.562382 
L 499.550634 1011.653035 
L 499.73777 1011.834343 
L 499.812624 1011.979389 
L 499.831338 1012.160696 
L 499.812624 1012.396396 
L 499.700343 1012.759011 
L 499.681629 1013.212279 
" clip-path="url(#p787aa862e0)"/>
    <path d="M 407.105635 1006.86652 
L 407.386339 1006.86652 
L 407.704469 1006.84839 
L 408.116168 1006.920913 
L 408.359444 1007.029697 
L 408.415585 1007.247266 
L 408.116168 1007.863711 
L 407.592188 1008.679594 
L 407.330198 1009.06034 
L 407.124349 1009.169124 
L 406.824932 1009.241647 
L 405.907967 1009.078471 
L 405.159425 1008.969686 
L 404.392169 1008.82464 
L 403.905616 1008.842771 
L 403.40035 1008.80651 
L 402.820229 1008.625202 
L 402.520812 1008.425764 
L 402.35239 1008.135672 
L 402.277536 1007.35605 
L 402.277536 1007.120351 
L 402.389817 1006.884651 
L 402.520812 1006.648952 
L 402.857656 1006.467644 
L 403.550058 1006.304468 
L 404.167606 1006.35886 
L 404.598018 1006.449513 
L 405.08457 1006.594559 
L 405.477555 1006.630821 
L 405.926681 1006.630821 
L 406.768791 1006.793998 
L 407.105635 1006.86652 
" clip-path="url(#p787aa862e0)"/>
    <path d="M 427.054293 994.229396 
L 426.56774 994.374442 
L 426.099901 994.356311 
L 425.501067 994.320049 
L 425.070655 994.229396 
L 424.902233 994.08435 
L 424.88352 993.921173 
L 424.93966 993.812389 
L 425.070655 993.685473 
L 425.257791 993.522297 
L 425.706916 993.268466 
L 426.043761 993.177813 
L 426.5116 993.10529 
L 426.904584 993.050898 
L 427.185288 993.087159 
L 427.334996 993.214074 
L 427.391137 993.377251 
L 427.391137 993.685473 
L 427.35371 993.957435 
L 427.054293 994.229396 
" clip-path="url(#p787aa862e0)"/>
    <path d="M 463.414745 982.244977 
L 463.452172 982.5532 
L 463.377318 982.970207 
L 463.227609 983.350952 
L 463.227609 983.641044 
L 463.470886 983.822352 
L 463.826443 983.822352 
L 464.537559 984.003659 
L 465.024111 984.203097 
L 465.49195 984.76515 
L 465.903649 985.363464 
L 465.941076 985.925517 
L 465.791367 986.48757 
L 465.473237 987.085885 
L 464.799549 987.46663 
L 463.845157 988.173729 
L 463.003047 988.44569 
L 461.880233 988.44569 
L 461.562102 988.155598 
L 461.281399 987.666068 
L 461.094263 986.832054 
L 460.850987 985.798602 
L 460.719992 985.599164 
L 460.514143 985.454118 
L 460.158585 985.417857 
L 458.39951 985.272811 
L 458.287229 985.381595 
L 458.13752 985.653556 
L 457.650968 986.922708 
L 457.613541 987.267192 
L 457.744536 987.684199 
L 457.744536 988.173729 
L 457.707108 988.69952 
L 457.632254 989.134658 
L 457.407691 989.551665 
L 457.407691 989.714842 
L 457.576114 989.751103 
L 458.08138 989.515404 
L 458.680214 989.479142 
L 458.998344 989.479142 
L 459.241621 989.660449 
L 459.484897 989.968672 
L 459.784314 990.16811 
L 460.327007 990.186241 
L 461.39368 990.331287 
L 461.842806 990.367548 
L 462.329358 990.802686 
L 463.003047 991.364739 
L 463.321177 991.854269 
L 463.358604 992.343799 
L 463.358604 992.942113 
L 462.834625 995.06341 
L 462.591348 995.389763 
L 461.749238 996.386954 
L 461.487248 996.640784 
L 459.840455 996.767699 
L 457.257983 996.731438 
L 456.210023 996.405084 
L 455.573762 996.078731 
L 455.14335 995.843031 
L 454.787793 995.843031 
L 453.795974 996.169385 
L 452.785441 996.749568 
L 451.737482 997.909936 
L 451.157362 998.907126 
L 450.633382 1000.266932 
L 450.240397 1001.608606 
L 450.165543 1002.515143 
L 450.20297 1003.602988 
L 450.184256 1004.382609 
L 450.390105 1004.944662 
L 451.381924 1005.688022 
L 452.841582 1006.503906 
L 454.30124 1007.428573 
L 456.921139 1009.767439 
L 459.073199 1011.27229 
L 460.719992 1012.487049 
L 461.150404 1012.99471 
L 461.281399 1013.447979 
L 461.13169 1014.082554 
L 460.981982 1014.390777 
L 460.383148 1014.20947 
L 459.784314 1014.082554 
L 458.792495 1014.318254 
L 457.838103 1014.880307 
L 457.482546 1015.152268 
L 457.29541 1015.152268 
L 456.846285 1014.898438 
L 456.677862 1014.481431 
L 456.415873 1013.864986 
L 455.517622 1012.940318 
L 453.870828 1011.834343 
L 452.841582 1011.489859 
L 451.250929 1011.163506 
L 449.847412 1010.728368 
L 449.304719 1010.746499 
L 448.518749 1011.145375 
L 447.845061 1011.707428 
L 447.002951 1012.650226 
L 446.647393 1013.393586 
L 446.497684 1014.517692 
L 446.572539 1015.279183 
L 446.067272 1016.258243 
L 445.674288 1016.765904 
L 445.505866 1016.92908 
L 445.019313 1016.602727 
L 444.439193 1015.605537 
L 444.027494 1015.061614 
L 443.821645 1014.807784 
L 443.540942 1014.844045 
L 443.278952 1014.95283 
L 442.249706 1015.44236 
L 440.902329 1016.367028 
L 439.648521 1017.255434 
L 439.161968 1017.744964 
L 438.394712 1018.506455 
L 437.552602 1019.449253 
L 437.084762 1019.703083 
L 436.485928 1019.938783 
L 435.007557 1020.537097 
L 433.697608 1021.443634 
L 432.724502 1022.259518 
L 432.275377 1022.894093 
L 431.751397 1023.981938 
L 431.45198 1024.76156 
L 431.470694 1025.541181 
L 431.470694 1025.921927 
L 431.788824 1026.556503 
L 432.312804 1027.299863 
L 432.630935 1027.499301 
L 433.154914 1027.71687 
L 433.435618 1028.006962 
L 433.92217 1028.913499 
L 434.689426 1031.125449 
L 435.175979 1031.723763 
L 436.785345 1033.627491 
L 437.533888 1034.82412 
L 438.469566 1036.927285 
L 439.087114 1038.486529 
L 439.161968 1038.939797 
L 439.143254 1039.193628 
L 438.899978 1039.374935 
L 438.207576 1039.628765 
L 437.140903 1039.556242 
L 435.643818 1039.26615 
L 433.34205 1038.214568 
L 431.208704 1037.416815 
L 428.513951 1036.727847 
L 427.6157 1036.582801 
L 427.297569 1036.619063 
L 426.960725 1036.727847 
L 426.56774 1037.108593 
L 426.006333 1037.144854 
L 424.808665 1037.144854 
L 422.99345 1037.090462 
L 422.057772 1036.872893 
L 421.62736 1036.673455 
L 421.552505 1036.455886 
L 421.664787 1036.274579 
L 421.870636 1036.183925 
L 422.338475 1036.220186 
L 422.899882 1036.220186 
L 423.218013 1036.183925 
L 423.461289 1035.875702 
L 423.461289 1035.549349 
L 423.180585 1035.241126 
L 421.421511 1033.935713 
L 419.119742 1031.560587 
L 418.202778 1029.801905 
L 416.406276 1026.955379 
L 415.37703 1024.815952 
L 414.366497 1022.458956 
L 414.104508 1021.352981 
L 414.179362 1019.956914 
L 414.684628 1019.231684 
L 415.751301 1018.560847 
L 416.48113 1017.835617 
L 417.06125 1017.16478 
L 417.472949 1016.638989 
L 417.697512 1015.877498 
L 417.697512 1015.351706 
L 417.753652 1014.789653 
L 417.903361 1014.572084 
L 418.184064 1014.499561 
L 419.381732 1015.043484 
L 420.392265 1015.351706 
L 420.598114 1015.315445 
L 420.822677 1015.116007 
L 421.140807 1013.991901 
L 421.88935 1011.743689 
L 422.113912 1010.710237 
L 422.301048 1009.132863 
L 422.525611 1008.171934 
L 422.768887 1007.809319 
L 422.937309 1007.682404 
L 423.25544 1007.682404 
L 423.704565 1008.135672 
L 424.303399 1008.516418 
L 424.733811 1008.697725 
L 425.126796 1008.625202 
L 426.099901 1008.498287 
L 427.204001 1008.31698 
L 427.634413 1008.08128 
L 427.915117 1007.773057 
L 427.915117 1007.211005 
L 427.989971 1006.250075 
L 427.316283 1005.089708 
L 427.222715 1004.14691 
L 427.372423 1003.131588 
L 427.784122 1001.717391 
L 428.757227 1000.103755 
L 429.187639 999.378525 
L 429.973609 999.052172 
L 430.928 999.106564 
L 432.050814 999.106564 
L 432.724502 999.577964 
L 433.098774 999.686748 
L 433.304623 999.432918 
L 433.529186 999.070303 
L 433.529186 998.689557 
L 433.678894 998.381335 
L 437.140903 996.713307 
L 437.608742 996.241908 
L 438.151436 995.190325 
L 438.619275 994.972756 
L 439.199395 994.972756 
L 440.041505 995.353501 
L 440.95847 996.078731 
L 441.669585 996.640784 
L 441.987716 996.640784 
L 442.436841 996.368823 
L 443.073102 995.915554 
L 443.615796 995.099671 
L 444.21463 993.939304 
L 444.364338 993.177813 
L 444.177203 992.760806 
L 443.971353 992.579498 
L 443.653223 992.579498 
L 443.297665 992.543237 
L 443.091816 992.12623 
L 443.016962 991.763615 
L 443.035675 991.274085 
L 443.16667 990.857078 
L 443.316379 990.530725 
L 444.083635 990.222502 
L 445.954991 989.42475 
L 446.535112 989.42475 
L 446.778388 989.642319 
L 447.096518 990.059326 
L 447.264941 990.059326 
L 447.714066 989.932411 
L 448.462609 989.569796 
L 449.136297 988.989612 
L 449.884839 988.246252 
L 450.558528 986.995231 
L 451.04508 986.505701 
L 451.512919 986.179348 
L 452.298889 985.907387 
L 453.51527 985.816733 
L 454.525803 985.852994 
L 455.236918 985.889256 
L 455.948034 985.707948 
L 457.070847 985.290941 
L 457.594827 985.01898 
L 457.950385 984.348143 
L 457.931671 983.659175 
L 458.362083 982.390023 
L 458.736354 982.172454 
L 459.522324 982.226847 
L 460.121158 982.390023 
L 460.682565 982.371893 
L 461.636957 982.081801 
L 462.310645 981.954886 
L 462.70363 981.846101 
L 463.096614 981.954886 
L 463.414745 982.244977 
" clip-path="url(#p787aa862e0)"/>
    <path d="M 488.28507 972.019241 
L 487.611381 972.49064 
L 487.049975 972.345594 
L 486.731844 971.801672 
L 486.451141 971.203358 
L 486.525995 970.750089 
L 486.582136 970.387474 
L 486.844125 970.151775 
L 487.18097 970.006729 
L 487.630095 969.916075 
L 488.097934 970.151775 
L 488.28507 970.605043 
L 488.378638 971.239619 
L 488.28507 972.019241 
" clip-path="url(#p787aa862e0)"/>
    <path d="M 659.270891 214.643895 
L 659.139896 214.716418 
L 658.615917 214.643895 
L 657.998369 214.462587 
L 657.605384 214.081842 
L 657.474389 213.265959 
L 657.493103 212.885213 
L 657.324681 212.468206 
L 656.931696 212.014938 
L 656.576138 211.489146 
L 656.576138 210.963355 
L 656.931696 210.655132 
L 657.567957 210.437563 
L 657.867374 210.401302 
L 658.297786 210.618871 
L 659.008901 211.32597 
L 659.720017 212.32316 
L 660.00072 212.939605 
L 660.075574 213.447266 
L 659.888439 214.04558 
L 659.68259 214.426326 
L 659.270891 214.643895 
" clip-path="url(#p787aa862e0)"/>
    <path d="M 668.627673 205.487872 
L 668.066266 205.705441 
L 667.61714 205.252172 
L 667.61714 204.526943 
L 667.87913 203.348445 
L 668.309542 201.680417 
L 668.796095 200.77388 
L 669.282647 200.356873 
L 669.806627 200.139304 
L 669.993763 200.28435 
L 669.844054 201.082102 
L 669.750486 201.843593 
L 669.750486 202.786392 
L 669.638205 203.294052 
L 669.544637 204.109936 
L 669.226507 204.871427 
L 668.627673 205.487872 
" clip-path="url(#p787aa862e0)"/>
    <path d="M 672.201963 198.253707 
L 671.771551 198.670714 
L 671.247571 198.525668 
L 670.779732 198.09053 
L 670.742305 197.637262 
L 671.341139 196.694463 
L 671.734124 196.404372 
L 672.463953 196.168672 
L 672.651089 196.440633 
L 672.688516 196.821379 
L 672.482666 197.455955 
L 672.201963 198.253707 
" clip-path="url(#p787aa862e0)"/>
    <path d="M 697.390418 180.286145 
L 697.072288 180.340537 
L 696.585735 180.15923 
L 696.005615 179.488392 
L 695.444208 178.763163 
L 695.257072 178.346156 
L 695.238359 178.019803 
L 695.575203 177.657188 
L 696.248891 177.276442 
L 696.567022 177.095135 
L 696.903866 177.149527 
L 697.184569 177.385227 
L 697.352991 177.96541 
L 697.540127 178.581856 
L 697.689835 179.488392 
L 697.689835 179.887269 
L 697.614981 180.122968 
L 697.390418 180.286145 
" clip-path="url(#p787aa862e0)"/>
    <path d="M 694.452389 177.22205 
L 694.30268 178.309894 
L 694.377535 179.162039 
L 694.171686 179.996053 
L 693.853555 180.539975 
L 693.067585 182.262396 
L 692.581033 184.129862 
L 692.206761 187.919186 
L 691.757636 191.45468 
L 691.364651 192.542524 
L 691.009093 193.013924 
L 689.848853 193.503453 
L 688.688612 193.702892 
L 686.480411 193.702892 
L 683.299106 193.66663 
L 682.475709 193.66663 
L 681.427749 193.92046 
L 680.173941 194.446252 
L 679.350544 195.026436 
L 678.863991 195.117089 
L 678.377439 194.736344 
L 678.246444 194.029245 
L 678.078022 191.364026 
L 677.685037 189.460299 
L 677.104916 187.465918 
L 676.899067 186.613773 
L 676.955208 186.323681 
L 677.628896 185.852282 
L 678.583288 185.272098 
L 680.454644 184.166123 
L 681.465177 182.933233 
L 681.74588 182.026696 
L 681.839448 181.029505 
L 681.802021 180.268014 
L 681.315468 179.270824 
L 680.529498 178.418679 
L 680.080373 177.94728 
L 679.837097 177.512142 
L 679.837097 177.131396 
L 680.304936 176.805043 
L 683.242965 176.877566 
L 685.675728 177.077004 
L 688.276913 177.602796 
L 689.081597 177.802234 
L 689.512008 177.620926 
L 690.14827 177.185789 
L 690.578682 176.569344 
L 690.952953 175.717199 
L 691.345938 174.665616 
L 691.177516 173.323941 
L 691.046521 172.489927 
L 691.196229 172.109182 
L 691.5705 172.018528 
L 692.730741 172.272359 
L 693.759987 172.888804 
L 694.003263 173.05198 
L 694.24654 173.414595 
L 694.452389 174.502439 
L 694.56467 175.427107 
L 694.620811 175.971029 
L 694.620811 176.333644 
L 694.452389 177.22205 
" clip-path="url(#p787aa862e0)"/>
    <path d="M 863.080302 26.338043 
L 862.64989 31.432781 
L 862.107196 37.79667 
L 863.585568 38.268069 
L 871.276842 44.903919 
L 874.308439 47.895491 
L 877.452318 51.811731 
L 879.24882 54.24125 
L 880.409061 56.797684 
L 880.951754 60.605139 
L 880.596196 65.083432 
L 880.521342 69.180978 
L 880.67105 71.592367 
L 880.93304 73.38731 
L 884.544758 82.543333 
L 888.586887 90.212635 
L 890.233681 93.059161 
L 892.292173 98.443991 
L 892.479308 98.951651 
L 892.516736 100.764725 
L 892.535449 100.927902 
L 892.572876 102.287707 
L 892.703871 102.668453 
L 893.489841 110.845416 
L 893.358846 113.691942 
L 893.377559 115.233055 
L 893.508554 117.952665 
L 894.406805 122.376566 
L 892.198605 123.591325 
L 889.765842 125.005523 
L 887.258224 126.89112 
L 884.058205 130.190914 
L 880.652337 134.560422 
L 878.238287 138.803015 
L 868.095536 152.564246 
L 866.804301 154.032835 
L 865.887336 154.649281 
L 864.708382 154.848719 
L 862.462754 154.866849 
L 859.431157 154.758065 
L 855.03347 155.211333 
L 851.328184 155.102549 
L 849.026416 155.410772 
L 846.069673 156.58927 
L 844.47902 157.640852 
L 842.027544 160.161025 
L 839.01466 163.587735 
L 835.608792 168.428642 
L 834.298842 169.933493 
L 833.849717 170.223585 
L 833.307024 170.513677 
L 832.633335 170.549938 
L 822.172454 171.311429 
L 819.814545 171.293299 
L 815.529139 170.966945 
L 810.626186 170.477415 
L 806.808619 170.495546 
L 802.934911 170.676854 
L 799.959455 170.894422 
L 797.975817 171.528998 
L 796.553587 172.145443 
L 795.075215 172.707496 
L 793.57813 173.559641 
L 792.548884 174.176086 
L 791.538352 174.810662 
L 790.247116 175.554022 
L 789.180443 176.061683 
L 788.469328 176.134206 
L 788.282192 175.662807 
L 788.226051 175.2458 
L 788.469328 174.937577 
L 789.835418 173.885994 
L 791.875196 172.634973 
L 793.129005 172.000397 
L 793.57813 171.692175 
L 793.690411 171.456475 
L 793.559417 171.275168 
L 793.428422 171.202645 
L 792.941869 170.930684 
L 792.024904 170.894422 
L 791.407357 171.039468 
L 790.602674 171.492737 
L 789.012021 172.453666 
L 788.076343 172.834411 
L 787.159378 173.070111 
L 785.980424 173.124503 
L 784.651761 173.432726 
L 783.903218 174.012909 
L 783.192103 174.865054 
L 782.799118 175.408976 
L 782.64941 175.844114 
L 782.574555 176.22486 
L 782.611982 176.623736 
L 782.96754 176.659997 
L 783.75351 176.297382 
L 784.782756 175.644676 
L 785.288022 175.336453 
L 786.073991 174.973839 
L 786.504403 175.100754 
L 786.541831 175.372715 
L 786.2237 176.406167 
L 785.718434 177.095135 
L 784.146495 177.874757 
L 781.938294 178.527463 
L 779.954657 179.143908 
L 779.280968 179.343347 
L 776.941773 180.539975 
L 771.683262 183.948554 
L 770.073895 185.344621 
L 765.657495 189.170207 
L 759.27617 195.117089 
L 755.720593 199.287159 
L 751.65975 204.091805 
L 746.401239 210.673263 
L 744.904154 212.268768 
L 744.529883 212.413814 
L 743.987189 212.631383 
L 741.423431 213.157174 
L 738.522829 213.53792 
L 738.073703 213.574181 
L 737.736859 213.53792 
L 737.400015 213.501658 
L 736.539191 212.631383 
L 735.004679 210.763917 
L 733.395313 208.950843 
L 731.074831 206.557585 
L 728.904058 204.291243 
L 728.099375 203.167137 
L 727.500541 202.2606 
L 726.789425 200.918926 
L 726.190591 200.556311 
L 723.907537 200.175565 
L 720.370673 200.084912 
L 717.713347 200.465657 
L 712.922675 201.680417 
L 708.712124 202.877045 
L 707.58931 203.003961 
L 707.271179 202.949568 
L 706.971762 202.822653 
L 706.934335 202.550692 
L 706.934335 202.333123 
L 707.084044 202.024901 
L 707.963581 201.354063 
L 709.891078 200.447526 
L 710.957751 200.030519 
L 711.68758 199.540989 
L 712.136706 199.015198 
L 712.436123 198.489407 
L 712.52969 197.782308 
L 712.567118 196.839509 
L 712.548404 196.204934 
L 712.248987 194.790736 
L 712.061851 193.757284 
L 712.061851 193.231492 
L 712.061851 192.343086 
L 712.117992 191.309634 
L 712.155419 190.439359 
L 712.174133 190.040482 
L 712.361268 189.677868 
L 712.454836 189.460299 
L 712.567118 189.278991 
L 712.585831 189.170207 
L 712.436123 189.025161 
L 712.155419 188.825723 
L 711.837289 188.843854 
L 711.42559 189.025161 
L 711.201028 189.297122 
L 710.602193 189.967959 
L 708.450134 193.721022 
L 705.736667 197.165863 
L 704.576426 197.945484 
L 703.622035 198.797629 
L 702.873492 199.921735 
L 700.609151 204.508812 
L 699.785754 205.741702 
L 699.149493 206.811416 
L 698.382237 208.189352 
L 697.839544 208.588228 
L 694.976369 209.531026 
L 690.634822 211.380362 
L 687.359949 213.139043 
L 683.448814 215.405386 
L 681.090905 217.309113 
L 677.011349 220.935261 
L 673.380917 224.162533 
L 670.311893 227.861203 
L 667.523572 231.904358 
L 665.446367 235.603029 
L 664.136418 238.431424 
L 663.593724 239.301699 
L 663.294307 239.501137 
L 662.882609 239.55553 
L 657.624098 235.113499 
L 657.118832 234.569577 
L 656.781987 233.989393 
L 656.763274 232.93781 
L 656.763274 232.158188 
L 657.231113 231.487351 
L 657.811233 230.907167 
L 658.11065 230.580814 
L 658.11065 229.710539 
L 657.661525 228.550171 
L 656.407716 227.335412 
L 654.349224 226.011868 
L 652.178451 224.633932 
L 651.54219 223.781787 
L 651.429909 223.201603 
L 651.355054 222.548897 
L 651.691898 221.044045 
L 652.459154 219.140318 
L 652.534009 218.251912 
L 652.028743 217.617336 
L 649.277849 215.477909 
L 649.072 214.825202 
L 649.072 213.664835 
L 649.427557 211.380362 
L 650.232241 209.676072 
L 650.924642 209.077758 
L 651.486049 209.041497 
L 651.822893 209.005235 
L 652.403014 209.095889 
L 653.450973 209.766726 
L 655.434611 212.141853 
L 656.969123 214.807071 
L 657.436962 215.441647 
L 658.279072 215.768001 
L 658.859193 215.949308 
L 659.439313 215.949308 
L 660.955112 214.843333 
L 661.348097 214.462587 
L 662.227634 213.338482 
L 662.227634 212.975867 
L 660.749263 209.730465 
L 660.749263 208.842058 
L 660.880258 208.38879 
L 661.516519 207.64543 
L 661.984358 207.445992 
L 662.601905 207.445992 
L 663.967995 207.808606 
L 665.93292 208.443182 
L 666.344618 208.443182 
L 667.111874 208.280005 
L 669.806627 206.811416 
L 671.060436 206.231232 
L 671.734124 205.777964 
L 672.370385 204.671988 
L 673.02536 202.097424 
L 674.035892 199.812951 
L 674.634726 199.287159 
L 676.487369 198.181184 
L 676.880354 197.945484 
L 677.685037 197.455955 
L 678.283871 197.492216 
L 678.770424 197.782308 
L 679.27569 198.253707 
L 679.575107 198.797629 
L 679.724815 199.667905 
L 679.911951 199.831081 
L 680.1178 199.921735 
L 680.230081 199.921735 
L 680.454644 199.957996 
L 680.810202 199.885473 
L 681.48389 199.395944 
L 681.839448 198.924544 
L 681.839448 197.637262 
L 682.138865 197.147732 
L 682.569277 196.658202 
L 683.149397 196.36811 
L 684.290924 196.331849 
L 687.547084 196.476895 
L 689.530722 196.204934 
L 692.019626 194.681951 
L 692.693314 193.974853 
L 693.497997 192.778224 
L 693.741274 191.907948 
L 694.283967 186.722557 
L 694.377535 185.743497 
L 694.414962 185.598451 
L 694.545957 185.108921 
L 694.789233 183.658462 
L 695.107364 182.389311 
L 695.462921 181.954173 
L 695.837193 181.772866 
L 696.436027 181.936042 
L 696.735444 182.153611 
L 697.315564 182.316788 
L 700.403302 181.718473 
L 701.750678 181.047636 
L 702.050095 180.41306 
L 701.806819 180.104838 
L 701.395121 179.977922 
L 698.831363 179.633438 
L 698.513232 179.343347 
L 698.120247 178.20111 
L 697.783403 177.113266 
L 697.259423 176.206729 
L 696.623162 174.919446 
L 696.230177 174.121694 
L 696.230177 173.505249 
L 696.379886 173.124503 
L 696.941293 172.598712 
L 697.614981 171.873482 
L 698.775222 169.915362 
L 699.542478 168.845649 
L 700.216166 168.337988 
L 701.60097 167.503974 
L 701.975241 167.213882 
L 702.255945 166.887529 
L 702.293372 166.597437 
L 702.106236 166.397999 
L 701.788106 166.252953 
L 701.376407 166.198561 
L 700.871141 166.198561 
L 700.085171 166.325476 
L 699.355342 166.561176 
L 698.513232 166.923791 
L 697.802117 167.377059 
L 697.034861 168.410511 
L 696.492167 169.317048 
L 696.061755 170.423023 
L 695.631343 170.803769 
L 694.882801 170.912553 
L 694.209113 170.84003 
L 691.982199 170.423023 
L 690.092129 169.915362 
L 689.661717 169.915362 
L 689.231305 170.205454 
L 689.081597 170.713115 
L 689.081597 171.003207 
L 689.137737 171.293299 
L 689.437154 172.363012 
L 689.530722 173.142634 
L 689.530722 174.484309 
L 689.006742 174.901316 
L 688.763466 174.955708 
L 688.370481 174.865054 
L 688.127205 174.538701 
L 688.089778 173.867864 
L 688.089778 173.487118 
L 687.940069 172.834411 
L 687.453517 171.202645 
L 686.480411 170.296108 
L 685.469879 170.205454 
L 684.122502 170.549938 
L 683.392673 171.220776 
L 682.868694 171.891613 
L 682.868694 172.363012 
L 683.055829 172.834411 
L 683.411387 173.686556 
L 683.355246 174.03104 
L 682.924834 174.357393 
L 682.438282 174.321132 
L 681.427749 173.614033 
L 680.660493 172.943196 
L 680.080373 171.855352 
L 679.0137 170.332369 
L 678.377439 169.679663 
L 677.890886 168.39238 
L 677.834745 167.15949 
L 677.834745 166.434261 
L 677.591469 165.781554 
L 676.580937 165.636508 
L 676.375087 165.636508 
L 674.784435 165.600247 
L 673.34349 165.980992 
L 672.482666 166.41613 
L 671.71541 166.996314 
L 671.378566 167.286405 
L 671.284998 167.358928 
L 670.704878 167.848458 
L 670.311893 168.573688 
L 669.638205 168.954433 
L 669.24522 169.172002 
L 668.833522 169.244525 
L 667.766849 169.008826 
L 666.363331 168.718734 
L 665.390226 168.62808 
L 664.828819 168.736864 
L 664.679111 169.063218 
L 664.828819 169.35331 
L 665.801925 169.969755 
L 667.149301 170.622461 
L 668.777381 170.858161 
L 670.330607 170.803769 
L 671.154004 170.694984 
L 671.621843 170.549938 
L 672.258104 169.697794 
L 673.118928 168.646211 
L 674.260455 167.540236 
L 674.840575 167.268275 
L 675.327128 167.213882 
L 675.720113 167.449582 
L 675.963389 167.830328 
L 676.000816 168.301727 
L 675.907248 169.35331 
L 675.813681 170.114801 
L 675.869821 170.5862 
L 676.113098 171.148253 
L 676.580937 171.492737 
L 677.067489 171.81909 
L 677.834745 172.471797 
L 678.078022 172.852542 
L 678.134162 173.378334 
L 677.797318 174.194217 
L 677.217198 175.427107 
L 676.936494 176.533082 
L 676.936494 177.330835 
L 676.936494 178.527463 
L 677.292052 179.615308 
L 678.059308 180.558106 
L 678.639429 181.283336 
L 678.639429 181.555297 
L 678.452293 181.899781 
L 678.021881 181.954173 
L 676.768072 182.13548 
L 674.110746 182.099219 
L 673.156355 182.153611 
L 672.426526 182.389311 
L 672.052255 182.915102 
L 671.621843 183.676593 
L 671.472134 184.256777 
L 671.472134 185.163314 
L 671.434707 185.961066 
L 671.13529 186.30555 
L 669.151652 186.976388 
L 666.700176 187.610963 
L 665.034669 188.064232 
L 663.238167 188.426847 
L 662.021785 188.426847 
L 660.842831 188.191147 
L 658.952761 187.647225 
L 657.698952 187.121433 
L 655.90245 185.652844 
L 653.095416 183.567809 
L 649.988964 181.682212 
L 648.585447 180.703152 
L 646.976081 179.089516 
L 646.152684 177.657188 
L 643.102373 172.344881 
L 642.952665 171.674044 
L 643.326936 171.202645 
L 644.206473 170.676854 
L 644.973729 169.915362 
L 645.591277 168.918172 
L 645.965548 167.866589 
L 645.984262 166.815006 
L 645.81584 166.506784 
L 645.628704 166.198561 
L 645.460282 165.908469 
L 645.422855 165.43707 
L 645.478996 165.255763 
L 645.684845 164.512402 
L 646.807659 162.953159 
L 647.481347 162.391106 
L 648.117608 162.191668 
L 648.941005 162.064753 
L 649.352703 162.173537 
L 649.726974 162.119145 
L 649.932824 161.974099 
L 650.007678 161.75653 
L 650.082532 161.629615 
L 649.951537 161.067562 
L 649.970251 160.378594 
L 650.288381 159.272619 
L 650.400663 158.511128 
L 650.269668 158.438605 
L 649.951537 158.31169 
L 649.296562 158.583651 
L 648.529306 158.964396 
L 645.87198 161.357654 
L 644.318755 163.098205 
L 643.476644 165.600247 
L 642.709388 167.522105 
L 642.484826 167.757805 
L 642.185409 167.848458 
L 641.642715 167.830328 
L 639.902354 167.213882 
L 637.114033 166.198561 
L 636.646194 165.999123 
L 636.215782 166.271084 
L 635.673089 167.739674 
L 635.485953 168.700603 
L 635.373672 169.552748 
L 634.924546 169.933493 
L 634.007582 169.679663 
L 632.903482 168.827518 
L 632.26722 168.066027 
L 619.991123 168.845649 
L 621.619203 155.900301 
L 621.731485 155.12068 
L 621.881193 154.177881 
L 622.218037 153.289475 
L 622.611022 152.491723 
L 623.153715 152.038454 
L 623.565414 151.820885 
L 623.733836 151.748362 
L 624.557233 151.276963 
L 625.17478 150.787433 
L 626.166599 149.826504 
L 627.120991 148.73866 
L 627.90696 147.505769 
L 628.636789 144.731766 
L 628.805211 144.33289 
L 629.011061 144.006537 
L 629.497613 143.625791 
L 630.395864 142.8643 
L 632.566637 140.706742 
L 634.063722 139.292545 
L 635.130396 138.041524 
L 635.616948 136.863026 
L 635.691802 136.192189 
L 635.673089 136.065273 
L 635.635662 135.158736 
L 635.52338 134.687337 
L 635.242677 134.27033 
L 634.587702 133.907715 
L 633.427461 133.454447 
L 631.312829 132.910525 
L 630.171301 132.402864 
L 629.179483 131.732027 
L 628.150237 130.426614 
L 627.963101 129.646992 
L 627.963101 128.740455 
L 628.019242 128.359709 
L 628.150237 127.743264 
L 628.356086 126.945512 
L 628.69293 126.147759 
L 629.441472 124.896738 
L 632.21108 121.379375 
L 634.344426 117.970796 
L 634.812265 117.100521 
L 635.167823 116.067069 
L 635.280104 115.305578 
L 635.336245 114.797917 
L 635.336245 114.362779 
L 635.317531 113.909511 
L 635.074255 111.878868 
L 633.951441 109.612526 
L 631.855522 106.421516 
L 630.826276 105.025449 
L 629.329191 103.738166 
L 628.786498 103.284898 
L 626.671865 101.834439 
L 624.613373 100.311457 
L 622.96658 99.042305 
L 621.750198 96.993532 
L 621.319786 95.162327 
L 621.413354 93.222338 
L 622.611022 91.80814 
L 625.11864 90.176374 
L 626.859001 90.720296 
L 628.187664 91.898794 
L 629.722176 92.53337 
L 630.807563 92.207017 
L 630.583 90.81095 
L 629.366618 87.14854 
L 631.144407 86.40518 
L 634.269572 85.081636 
L 639.939781 82.343895 
L 642.016987 81.165397 
L 644.524604 80.494559 
L 647.256784 80.385775 
L 649.895396 80.476429 
L 652.515295 81.111005 
L 654.704782 82.289503 
L 657.324681 82.488941 
L 663.78086 82.561464 
L 668.159834 82.978471 
L 669.020657 82.108195 
L 670.330607 80.385775 
L 672.070968 78.427655 
L 673.923611 77.031588 
L 676.655791 74.964684 
L 679.051127 73.332918 
L 684.814904 68.256311 
L 685.919004 67.386035 
L 686.779828 63.487927 
L 687.958783 59.825517 
L 688.707325 56.471331 
L 688.782179 52.845183 
L 688.800893 51.503508 
L 688.857034 46.88017 
L 688.669898 43.018323 
L 688.445335 40.788242 
L 688.033637 39.75479 
L 687.621939 38.558161 
L 690.223124 38.77573 
L 695.687484 39.26526 
L 702.255945 34.696314 
L 705.11912 32.266795 
L 708.824405 28.368686 
L 711.126173 26.736919 
L 712.21156 26.192997 
L 716.702815 26.174866 
L 718.443176 25.630944 
L 720.857226 24.5431 
L 720.969507 31.577827 
L 720.988221 32.194272 
L 724.057245 32.828847 
L 726.265445 33.010155 
L 726.789425 33.046416 
L 728.642068 33.028286 
L 729.858449 32.593148 
L 730.606992 31.741003 
L 730.943836 30.761943 
L 731.205826 30.127367 
L 731.261967 30.000452 
L 731.729806 30.000452 
L 731.860801 30.000452 
L 732.459635 29.982322 
L 734.873684 30.852597 
L 736.520478 31.378388 
L 738.597683 32.139879 
L 747.149781 34.043607 
L 765.414218 34.406222 
L 765.5265 36.454995 
L 766.087907 39.700397 
L 767.192007 44.323736 
L 767.753414 47.242785 
L 768.221253 54.023681 
L 766.462178 56.19937 
L 765.825917 58.248143 
L 765.825917 59.535426 
L 764.871525 66.660806 
L 766.406037 68.691449 
L 768.277393 70.740222 
L 770.785011 73.532356 
L 772.113674 74.602069 
L 773.423623 75.037207 
L 774.789713 75.291037 
L 774.976849 75.127861 
L 777.072768 73.314787 
L 779.767521 71.392929 
L 782.44356 70.504522 
L 785.587439 70.631438 
L 789.966413 70.849006 
L 789.386292 69.362286 
L 788.562895 66.461368 
L 788.282192 63.125312 
L 788.020202 59.952433 
L 788.001488 58.284405 
L 788.544182 56.797684 
L 790.396824 54.767041 
L 791.557065 54.059942 
L 792.436603 53.352844 
L 793.428422 51.938646 
L 793.690411 49.599781 
L 793.783979 48.965205 
L 794.158251 47.206523 
L 795.224924 45.792326 
L 797.283415 44.704481 
L 800.558289 43.254022 
L 801.662389 42.45627 
L 802.616781 41.314033 
L 802.972339 40.49815 
L 803.271756 38.322461 
L 804.263574 36.745087 
L 805.592237 35.512197 
L 809.802789 32.484363 
L 810.794608 31.269604 
L 811.468296 30.43559 
L 812.198125 29.492792 
L 812.216838 29.384007 
L 812.366547 29.238961 
L 813.807491 27.153926 
L 815.248436 26.084213 
L 816.95137 25.377114 
L 817.924475 25.377114 
L 819.440274 25.902905 
L 821.236776 26.156736 
L 822.041459 26.247389 
L 822.490584 25.975428 
L 824.268373 23.926655 
L 828.553779 17.290804 
L 830.312853 14.48054 
L 832.202923 12.413636 
L 833.5503 11.162615 
L 834.616973 10.8 
L 836.057917 10.8 
L 837.405294 11.017569 
L 838.43454 12.087282 
L 850.710637 24.361793 
L 852.132867 26.283651 
L 854.004224 27.371495 
L 856.418273 27.897287 
L 859.038172 27.570933 
L 860.666252 27.24458 
L 862.930593 26.338043 
L 863.080302 26.338043 
" clip-path="url(#p787aa862e0)"/>
   </g>
  </g>
 </g>
 <defs>
  <clipPath id="p787aa862e0">
   <rect x="185.593195" y="10.8" width="708.813611" height="1058.4"/>
  </clipPath>
 </defs>
</svg>
