<?xml version="1.0" encoding="utf-8" standalone="no"?>
<!DOCTYPE svg PUBLIC "-//W3C//DTD SVG 1.1//EN"
  "http://www.w3.org/Graphics/SVG/1.1/DTD/svg11.dtd">
<svg xmlns:xlink="http://www.w3.org/1999/xlink" width="1080pt" height="1080pt" viewBox="0 0 1080 1080" xmlns="http://www.w3.org/2000/svg" version="1.1">
 <metadata>
  <rdf:RDF xmlns:dc="http://purl.org/dc/elements/1.1/" xmlns:cc="http://creativecommons.org/ns#" xmlns:rdf="http://www.w3.org/1999/02/22-rdf-syntax-ns#">
   <cc:Work>
    <dc:type rdf:resource="http://purl.org/dc/dcmitype/StillImage"/>
    <dc:date>2022-07-01T13:43:18.128251</dc:date>
    <dc:format>image/svg+xml</dc:format>
    <dc:creator>
     <cc:Agent>
      <dc:title>Matplotlib v3.5.1, https://matplotlib.org/</dc:title>
     </cc:Agent>
    </dc:creator>
   </cc:Work>
  </rdf:RDF>
 </metadata>
 <defs>
  <style type="text/css">*{stroke-linejoin: round; stroke-linecap: butt}</style>
 </defs>
 <g id="figure_1">
  <g id="patch_1">
   <path d="M 0 1080 
L 1080 1080 
L 1080 0 
L 0 0 
L 0 1080 
z
" style="fill: none; opacity: 0"/>
  </g>
  <g id="axes_1">
   <g id="PatchCollection_1">
    <path d="M 1045.315631 372.27107 
L 1044.331836 399.012383 
L 1045.151665 399.330102 
L 1050.179954 403.619302 
L 1058.651526 414.739452 
L 1066.52189 425.912556 
L 1069.2 430.201756 
L 1068.981379 435.550019 
L 1068.598792 440.315798 
L 1066.029992 445.717013 
L 1063.406538 450.906417 
L 1060.564462 453.712931 
L 1059.4167 456.09582 
L 1059.635321 458.902334 
L 1061.111015 461.444083 
L 1064.390333 465.309659 
L 1067.232409 470.022484 
L 1067.942928 474.73531 
L 1068.38017 481.195587 
L 1066.685856 487.23224 
L 1058.924802 499.940983 
L 1055.262897 505.606964 
L 1041.052517 523.875782 
L 1030.941286 535.737276 
L 1019.24505 549.452128 
L 1012.686414 557.18328 
L 1001.973974 564.702619 
L 997.71086 567.932758 
L 991.917397 571.321756 
L 988.364802 573.069208 
L 987.872905 573.122161 
L 963.988536 598.274882 
L 954.915755 601.769786 
L 928.189311 612.148593 
L 921.576019 619.45612 
L 908.240124 630.57627 
L 903.485112 635.183189 
L 895.450782 639.525343 
L 893.428536 640.743264 
L 891.242324 643.126154 
L 883.153338 655.411272 
L 880.584539 660.33591 
L 874.845732 666.902093 
L 871.894345 669.655654 
L 878.289016 695.284953 
L 888.181627 734.787962 
L 892.499396 740.559849 
L 895.724059 748.60872 
L 898.62079 756.922356 
L 900.36976 761.846994 
L 903.813044 767.407069 
L 912.175306 776.303189 
L 923.434299 790.229853 
L 926.494996 795.154491 
L 927.314826 800.873425 
L 926.33103 804.791954 
L 925.073958 810.352029 
L 918.132734 821.207414 
L 910.098404 836.087234 
L 897.80096 853.085177 
L 889.438699 864.787812 
L 881.677645 873.525072 
L 878.398327 877.443601 
L 872.003656 884.539316 
L 869.216235 887.028112 
L 865.171743 889.411001 
L 864.187947 889.993485 
L 863.258807 889.993485 
L 863.040186 888.828517 
L 863.204152 887.875361 
L 863.860015 886.65744 
L 868.287095 881.044412 
L 872.604864 875.643196 
L 875.610906 870.612652 
L 876.212115 866.852982 
L 876.212115 864.681905 
L 876.321425 860.922236 
L 875.665562 860.127939 
L 874.5178 860.127939 
L 872.276933 862.034251 
L 868.177785 867.276607 
L 864.078637 874.00165 
L 856.918792 881.36213 
L 852.601022 885.598378 
L 849.594981 888.298986 
L 849.48567 888.934423 
L 850.032223 889.516907 
L 853.256886 889.622813 
L 855.279132 889.887579 
L 856.426894 890.628922 
L 856.918792 892.905905 
L 856.973447 896.083091 
L 856.098962 898.46598 
L 855.552409 898.571887 
L 855.224477 898.307121 
L 854.240682 897.142153 
L 853.202231 896.188997 
L 851.398606 895.288795 
L 850.086878 895.235842 
L 848.611185 895.500607 
L 845.386522 897.459872 
L 844.020139 898.677793 
L 843.145655 900.00162 
L 841.833927 903.602431 
L 841.178064 905.032164 
L 840.358234 906.144179 
L 835.384601 909.692037 
L 833.253044 910.115661 
L 830.629589 910.43338 
L 826.20251 910.168614 
L 815.49007 905.98532 
L 808.822122 902.596322 
L 800.623826 915.146205 
L 788.654314 903.655384 
L 780.838606 891.95275 
L 774.443935 882.368239 
L 764.496669 868.918153 
L 754.494748 859.704314 
L 742.689202 848.954836 
L 736.567808 843.341808 
L 718.422246 828.83266 
L 704.047901 815.32962 
L 700.276685 811.093373 
L 692.515631 802.409065 
L 674.861967 781.863264 
L 663.056421 768.677943 
L 653.327777 758.140277 
L 639.062742 745.749253 
L 623.977878 735.635212 
L 623.649946 735.370446 
L 609.439566 728.009966 
L 594.136081 721.867407 
L 576.427761 714.983504 
L 562.162727 706.511009 
L 542.924059 695.708577 
L 531.5011 686.971317 
L 526.746088 683.370506 
L 523.958668 681.199429 
L 509.529667 673.097606 
L 500.456886 667.961155 
L 494.718079 664.78397 
L 491.493416 662.983564 
L 490.892208 662.454033 
L 479.359938 652.392945 
L 465.696112 637.989703 
L 431.700511 621.997868 
L 429.787576 621.097666 
L 424.486011 618.185246 
L 416.287715 613.631279 
L 415.577196 613.154702 
L 402.02268 604.152675 
L 393.769729 595.150649 
L 384.751603 584.295264 
L 372.344849 566.503024 
L 358.462401 541.191445 
L 354.035321 534.625261 
L 350.865314 529.965388 
L 338.403904 511.908383 
L 323.974903 494.857486 
L 314.902122 484.796398 
L 305.50141 471.769936 
L 294.843625 454.507227 
L 290.853788 447.88809 
L 286.590674 442.275062 
L 276.807374 432.002162 
L 275.277026 430.413569 
L 266.696143 421.411543 
L 253.961456 407.431925 
L 247.894717 402.401381 
L 236.417103 394.987948 
L 233.028474 392.552105 
L 231.006228 392.552105 
L 226.141905 393.134589 
L 220.075167 395.305666 
L 217.451712 395.305666 
L 215.648087 395.093854 
L 215.101534 394.670229 
L 214.500325 394.246604 
L 214.063083 393.875933 
L 200.781844 375.024631 
L 197.44787 372.112211 
L 193.130101 370.04704 
L 190.943888 368.882072 
L 179.138342 362.474747 
L 175.913679 359.244608 
L 169.081766 351.40755 
L 166.512967 347.012443 
L 157.822773 331.973764 
L 153.723625 327.525704 
L 149.515167 323.024691 
L 141.863424 316.405554 
L 126.505283 307.933059 
L 113.224043 302.902515 
L 98.904353 300.25486 
L 84.475352 299.089892 
L 72.341875 298.878079 
L 48.129574 297.607205 
L 37.417134 296.336331 
L 30.47591 294.006395 
L 24.026584 289.8231 
L 23.37072 288.922897 
L 19.982091 284.210072 
L 18.779675 280.979933 
L 18.83433 280.291543 
L 18.888985 279.497246 
L 19.65416 260.751851 
L 10.8 256.939228 
L 11.073277 240.73558 
L 12.494314 235.122552 
L 18.779675 221.937232 
L 40.040589 232.263085 
L 45.396809 234.857787 
L 67.368242 245.713171 
L 75.621193 249.737607 
L 81.687932 251.749824 
L 86.333633 252.385262 
L 93.220201 252.597074 
L 98.139179 251.908684 
L 104.041952 249.525794 
L 115.738187 243.80686 
L 120.383888 242.800751 
L 130.713741 242.218267 
L 144.213602 242.906657 
L 152.84914 243.330282 
L 159.353122 243.277329 
L 162.905716 243.224376 
L 168.644524 242.218267 
L 169.355043 242.059408 
L 179.247653 238.299738 
L 190.397335 233.533959 
L 202.749435 227.3914 
L 208.105655 224.796699 
L 225.376731 216.483063 
L 237.510209 210.075738 
L 254.398699 201.444384 
L 255.819737 201.073712 
L 257.350085 200.597134 
L 263.307514 198.902635 
L 277.244617 195.725449 
L 297.685701 193.236654 
L 319.602479 191.224436 
L 333.102339 188.629734 
L 367.261905 181.163348 
L 369.994671 180.898583 
L 373.437955 183.122613 
L 374.148474 183.705097 
L 385.516778 192.971888 
L 388.741441 193.977997 
L 393.168521 193.977997 
L 402.459923 191.436249 
L 426.9455 182.751941 
L 460.12127 171.737697 
L 468.920775 168.825277 
L 479.851836 166.230575 
L 483.076499 165.701044 
L 487.886166 164.853795 
L 500.128954 165.80695 
L 516.088304 167.925074 
L 523.576081 170.202057 
L 523.958668 170.307963 
L 525.32505 170.731588 
L 527.784539 172.055416 
L 534.99904 175.973945 
L 563.201177 193.713232 
L 590.474175 210.340504 
L 593.917459 210.975941 
L 599.765577 210.975941 
L 612.281642 210.44641 
L 624.797707 210.287551 
L 628.8422 210.922988 
L 630.864446 211.876143 
L 639.172053 215.847626 
L 650.595012 223.79059 
L 662.673834 232.68671 
L 669.505747 236.711145 
L 687.432688 243.383235 
L 691.258559 245.236594 
L 692.898218 246.401562 
L 697.707885 251.855731 
L 704.157211 258.898492 
L 710.442572 263.187693 
L 715.689481 265.252864 
L 739.519194 272.136766 
L 768.923749 280.503355 
L 789.966042 288.869944 
L 796.415368 290.51149 
L 818.222835 293.053239 
L 828.498033 294.482972 
L 848.66584 298.931032 
L 864.62519 302.47889 
L 880.748505 304.755873 
L 896.489233 305.603123 
L 898.62079 305.920841 
L 905.562014 306.873997 
L 915.017382 309.733464 
L 925.292579 314.97582 
L 934.529326 322.230395 
L 949.176948 336.104106 
L 962.786119 345.953381 
L 964.371123 347.065396 
L 981.860821 357.39125 
L 997.984136 365.493074 
L 1009.461751 370.311805 
L 1019.463672 372.112211 
L 1034.548536 372.588788 
L 1045.315631 372.27107 
" clip-path="url(#p41cbd6f4df)"/>
   </g>
  </g>
 </g>
 <defs>
  <clipPath id="p41cbd6f4df">
   <rect x="10.8" y="164.853795" width="1058.4" height="750.292411"/>
  </clipPath>
 </defs>
</svg>
