<?xml version="1.0" encoding="utf-8" standalone="no"?>
<!DOCTYPE svg PUBLIC "-//W3C//DTD SVG 1.1//EN"
  "http://www.w3.org/Graphics/SVG/1.1/DTD/svg11.dtd">
<svg xmlns:xlink="http://www.w3.org/1999/xlink" width="1080pt" height="1080pt" viewBox="0 0 1080 1080" xmlns="http://www.w3.org/2000/svg" version="1.1">
 <metadata>
  <rdf:RDF xmlns:dc="http://purl.org/dc/elements/1.1/" xmlns:cc="http://creativecommons.org/ns#" xmlns:rdf="http://www.w3.org/1999/02/22-rdf-syntax-ns#">
   <cc:Work>
    <dc:type rdf:resource="http://purl.org/dc/dcmitype/StillImage"/>
    <dc:date>2022-07-01T13:43:18.459623</dc:date>
    <dc:format>image/svg+xml</dc:format>
    <dc:creator>
     <cc:Agent>
      <dc:title>Matplotlib v3.5.1, https://matplotlib.org/</dc:title>
     </cc:Agent>
    </dc:creator>
   </cc:Work>
  </rdf:RDF>
 </metadata>
 <defs>
  <style type="text/css">*{stroke-linejoin: round; stroke-linecap: butt}</style>
 </defs>
 <g id="figure_1">
  <g id="patch_1">
   <path d="M 0 1080 
L 1080 1080 
L 1080 0 
L 0 0 
L 0 1080 
z
" style="fill: none; opacity: 0"/>
  </g>
  <g id="axes_1">
   <g id="PatchCollection_1">
    <path d="M 1031.27113 574.26465 
L 1030.205021 573.509835 
L 1028.974895 572.238566 
L 1026.719665 569.894666 
L 1024.259414 568.86176 
L 1022.373222 568.742579 
L 1014.623431 569.854939 
L 1011.835146 570.768663 
L 1009.333891 572.039931 
L 1007.529707 573.470108 
L 1003.962343 577.522275 
L 1002.404184 579.508631 
L 1001.133054 581.057989 
L 996.376569 584.911521 
L 991.907113 588.089692 
L 985.223431 591.426771 
L 973.742259 593.969307 
L 970.584937 593.810398 
L 967.304603 591.903496 
L 966.115481 591.784315 
L 964.762343 592.062405 
L 961.646025 593.691217 
L 956.766527 598.140656 
L 953.486192 600.643465 
L 950.943933 601.67637 
L 946.023431 601.994187 
L 940.651883 601.994187 
L 938.929707 602.550367 
L 937.371548 603.702454 
L 924.906276 613.793145 
L 922.815063 616.77268 
L 922.076987 621.182391 
L 922.405021 626.625008 
L 921.666946 635.007433 
L 920.108787 640.807594 
L 920.969874 642.277498 
L 922.076987 648.236567 
L 922.076987 653.281913 
L 921.748954 656.539538 
L 919.739749 659.439618 
L 914.614226 664.167147 
L 907.807531 675.012653 
L 903.789121 680.17718 
L 901.6159 684.030712 
L 901.287866 685.103345 
L 901.287866 686.533521 
L 901.574895 687.685608 
L 903.748117 689.354148 
L 904.732218 690.188417 
L 906.249372 691.499413 
L 908.176569 694.280312 
L 908.791632 695.909124 
L 908.463598 696.783121 
L 907.192469 698.491388 
L 905.265272 700.755834 
L 904.527197 702.305192 
L 904.281172 703.57646 
L 904.445188 704.96691 
L 904.896234 706.555995 
L 905.798326 708.105353 
L 906.782427 709.495803 
L 908.87364 710.608162 
L 912.523013 711.601341 
L 915.639331 712.356156 
L 921.789958 714.183604 
L 922.897071 714.66033 
L 924.332218 715.613781 
L 926.423431 717.401502 
L 937.371548 725.903108 
L 940.405858 728.445644 
L 941.430962 730.114184 
L 942.620084 733.808807 
L 943.399163 738.139064 
L 943.768201 742.667957 
L 944.178243 744.495405 
L 944.137238 747.911938 
L 943.891213 749.103752 
L 941.635983 752.04356 
L 937.494561 757.803994 
L 934.993305 761.617798 
L 934.74728 762.372614 
L 934.74728 764.875423 
L 936.592469 769.920768 
L 938.601674 775.125023 
L 941.758996 783.944446 
L 947.622594 793.915955 
L 949.385774 796.259856 
L 950.902929 796.418765 
L 953.732218 796.259856 
L 960.169874 795.862585 
L 965.705439 795.465313 
L 969.477824 795.465313 
L 971.282008 795.862585 
L 972.102092 796.776309 
L 973.250209 800.033933 
L 974.767364 802.973741 
L 974.931381 803.331285 
L 892.102929 822.122218 
L 884.476151 823.830485 
L 876.439331 824.903117 
L 810.012552 838.966521 
L 807.511297 839.482974 
L 806.978243 839.641883 
L 800.622594 840.992605 
L 789.633473 843.376233 
L 785.615063 844.210503 
L 778.890377 845.839315 
L 766.3841 849.335303 
L 762.078661 850.805206 
L 761.791632 851.401113 
L 760.028452 854.102558 
L 750.638494 865.663153 
L 749.367364 867.013876 
L 745.8 869.596139 
L 742.970711 871.66195 
L 740.961506 872.178403 
L 737.804184 872.416765 
L 734.195816 872.098948 
L 731.735565 871.304406 
L 729.931381 870.82768 
L 728.45523 870.54959 
L 727.635146 870.54959 
L 726.241004 871.264679 
L 725.2159 872.49622 
L 724.682845 874.283941 
L 724.682845 875.67439 
L 725.133891 878.534744 
L 725.174895 880.004647 
L 725.010879 881.434824 
L 724.272803 882.944455 
L 722.714644 884.612995 
L 714.882845 889.698067 
L 708.486192 895.418774 
L 698.153138 904.238197 
L 696.30795 906.661552 
L 694.831799 910.713719 
L 694.667782 913.812436 
L 695.610879 918.778327 
L 699.383264 927.04157 
L 702.376569 932.365005 
L 703.483682 934.510271 
L 703.647699 937.648714 
L 703.483682 938.045985 
L 701.884519 942.773514 
L 698.194142 947.342134 
L 693.27364 951.910754 
L 686.50795 956.201284 
L 683.760669 959.260273 
L 683.145607 962.716533 
L 685.359833 965.53716 
L 687.328033 967.88106 
L 688.148117 970.582505 
L 688.353138 974.475764 
L 687.369038 978.170387 
L 686.425941 980.315652 
L 682.284519 982.460917 
L 678.143096 983.851367 
L 674.985774 983.056824 
L 672.19749 981.348558 
L 670.516318 979.878654 
L 668.835146 979.838927 
L 667.235983 980.395106 
L 663.504603 983.53355 
L 662.39749 986.314449 
L 662.725523 987.784353 
L 665.513808 991.081705 
L 665.923849 992.829698 
L 663.955649 995.769506 
L 659.85523 1000.258672 
L 655.83682 1002.08612 
L 650.219247 1002.602572 
L 647.635983 1003.873841 
L 646.856904 1005.899924 
L 644.76569 1009.237003 
L 642.01841 1014.004259 
L 639.722176 1017.539974 
L 636.564854 1019.645511 
L 628.815063 1022.98259 
L 621.639331 1024.690857 
L 611.306276 1025.76349 
L 605.606695 1025.803217 
L 602.039331 1026.240215 
L 601.629289 1028.10739 
L 602.244351 1028.94166 
L 603.966527 1029.974565 
L 607.738912 1032.239012 
L 609.87113 1035.337728 
L 610.117155 1037.204903 
L 609.912134 1041.972159 
L 609.133054 1044.951694 
L 608.846025 1046.024326 
L 607.984937 1046.739415 
L 606.83682 1046.858596 
L 603.556485 1045.627055 
L 599.415063 1043.561244 
L 595.314644 1041.932432 
L 592.239331 1041.53516 
L 590.148117 1041.415979 
L 587.933891 1042.568066 
L 585.924686 1044.03797 
L 583.546444 1045.905145 
L 581.865272 1048.129864 
L 579.569038 1053.294391 
L 578.2159 1056.830106 
L 577.354812 1058.30001 
L 576.124686 1058.498645 
L 574.730544 1057.584921 
L 573.049372 1054.684841 
L 570.794142 1051.78476 
L 569.523013 1050.871036 
L 568.046862 1050.473765 
L 564.88954 1050.275129 
L 562.675314 1050.394311 
L 561.117155 1051.22858 
L 560.051046 1052.698484 
L 559.846025 1053.493027 
L 560.010042 1055.479383 
L 559.558996 1054.486205 
L 558.533891 1051.983396 
L 559.230962 1049.599768 
L 561.609205 1046.024326 
L 565.955649 1043.163973 
L 569.523013 1041.733796 
L 573.377406 1038.873443 
L 575.263598 1035.576091 
L 575.222594 1026.121034 
L 574.238494 1020.91678 
L 571.819247 1015.712526 
L 568.169874 1010.786361 
L 564.807531 1007.489009 
L 559.476987 1004.906746 
L 554.433473 1003.993022 
L 547.954812 1003.079298 
L 542.173222 1002.403937 
L 537.580753 1001.927211 
L 533.275314 1002.920389 
L 527.780753 1005.304017 
L 525.607531 1009.078095 
L 523.721339 1013.84535 
L 522.532218 1016.904339 
L 520.112971 1016.944067 
L 519.087866 1016.864612 
L 516.996653 1016.705704 
L 511.953138 1016.507068 
L 506.417573 1016.546795 
L 501.415063 1021.035961 
L 495.674477 1027.233393 
L 489.687866 1034.821275 
L 489.482845 1037.919992 
L 490.712971 1041.932432 
L 493.870293 1047.812047 
L 494.485356 1052.34094 
L 493.542259 1051.943669 
L 490.794979 1050.712128 
L 483.373222 1047.732593 
L 477.878661 1046.064053 
L 476.68954 1045.666782 
L 475.459414 1044.03797 
L 474.803347 1040.422801 
L 474.024268 1035.854181 
L 473.901255 1032.67601 
L 474.639331 1029.77593 
L 475.91046 1027.630665 
L 477.304603 1025.604581 
L 480.256904 1023.220953 
L 482.307113 1020.837325 
L 482.799163 1019.287967 
L 482.758159 1016.546795 
L 482.266109 1015.275527 
L 481.076987 1014.163167 
L 479.067782 1013.249443 
L 478.001674 1012.732991 
L 476.68954 1011.342541 
L 475.377406 1008.164371 
L 475.008368 1001.966938 
L 474.844351 988.539168 
L 474.844351 986.632266 
L 475.746444 985.043181 
L 476.033473 984.725364 
L 472.958159 980.633469 
L 472.179079 980.236198 
L 443.435146 971.933228 
L 438.350628 976.184031 
L 434.660251 978.726567 
L 430.108787 981.110195 
L 415.388285 978.806021 
L 404.440167 977.058027 
L 400.913808 975.786759 
L 389.350628 957.393098 
L 384.1841 947.779132 
L 385.701255 928.670382 
L 389.883682 928.233384 
L 393.205021 928.352565 
L 395.583264 927.995021 
L 398.494561 926.644299 
L 402.758996 924.260671 
L 405.178243 922.592131 
L 407.351464 920.009868 
L 421.333891 904.357378 
L 422.646025 902.609385 
L 423.302092 901.179208 
L 423.343096 899.470941 
L 423.097071 897.365403 
L 423.097071 895.140684 
L 423.999163 893.432417 
L 424.819247 892.598148 
L 424.778243 892.240604 
L 420.226778 870.390682 
L 413.502092 860.736989 
L 412.025941 861.13426 
L 409.524686 861.094533 
L 404.440167 862.047984 
L 400.913808 863.954887 
L 396.485356 866.775513 
L 389.022594 870.112592 
L 382.830962 871.304406 
L 382.010879 872.575674 
L 379.468619 873.449671 
L 374.589121 874.085305 
L 370.119665 875.793572 
L 366.306276 878.336108 
L 365.035146 881.474551 
L 365.076151 885.447264 
L 365.732218 889.419977 
L 368.766527 894.822867 
L 371.103766 900.066848 
L 370.488703 903.801199 
L 367.536402 907.615003 
L 362.041841 910.753446 
L 357.162343 912.700076 
L 356.096234 915.202885 
L 355.932218 918.341328 
L 355.522176 920.446866 
L 352.52887 922.353769 
L 348.51046 923.188038 
L 344.902092 922.592131 
L 341.703766 922.592131 
L 339.98159 922.830494 
L 339.571548 925.333303 
L 339.817573 928.273111 
L 339.817573 931.212919 
L 337.72636 932.245824 
L 334.323013 932.086916 
L 333.789958 932.086916 
L 332.846862 934.986996 
L 331.821757 939.198072 
L 331.616736 941.065247 
L 326.327197 945.911957 
L 321.447699 949.288763 
L 318.700418 953.698475 
L 316.609205 958.942456 
L 315.133054 958.267095 
L 312.672803 956.797191 
L 311.934728 956.161557 
L 303.938912 956.916372 
L 297.296234 961.763082 
L 290.530544 979.719745 
L 290.571548 980.951286 
L 290.48954 981.944465 
L 288.603347 993.942058 
L 286.881172 1003.238207 
L 280.976569 1003.436842 
L 276.630126 1003.198479 
L 276.343096 1003.119025 
L 270.766527 1001.728576 
L 269.987448 1001.371031 
L 263.713808 998.749041 
L 260.720502 998.07368 
L 253.380753 997.716135 
L 249.280335 997.994225 
L 242.842678 998.788768 
L 236.035983 997.636681 
L 228.286192 995.650325 
L 226.605021 994.816055 
L 225.456904 994.100966 
L 222.299582 980.673196 
L 221.848536 975.826486 
L 222.422594 968.357786 
L 200.854393 974.95249 
L 199.050209 975.349761 
L 193.842678 976.382666 
L 177.974059 983.096551 
L 175.14477 984.725364 
L 171.700418 986.234995 
L 169.158159 986.751447 
L 166.32887 986.632266 
L 163.335565 985.87745 
L 161.367364 984.804818 
L 159.153138 983.295187 
L 156.651883 979.560837 
L 153.78159 975.031944 
L 150.952301 972.131863 
L 145.334728 968.198877 
L 148.328033 965.656341 
L 151.444351 960.213724 
L 152.838494 955.605377 
L 154.396653 950.16276 
L 154.560669 946.348955 
L 154.355649 943.210512 
L 153.617573 940.548794 
L 150.706276 936.297991 
L 147.917992 931.491009 
L 147.384937 929.584106 
L 147.712971 927.637477 
L 150.870293 922.75104 
L 154.806695 918.976962 
L 159.153138 916.196063 
L 162.392469 915.123431 
L 166.656904 913.415164 
L 169.937238 911.190445 
L 177.153975 904.317651 
L 179.532218 900.74221 
L 181.41841 897.96131 
L 180.557322 896.531134 
L 164.032636 868.483779 
L 163.868619 868.245417 
L 162.925523 869.834502 
L 160.83431 873.290762 
L 159.399163 875.356573 
L 155.011715 881.752641 
L 151.813389 884.930812 
L 149.435146 885.36781 
L 146.23682 885.208901 
L 142.99749 883.540362 
L 136.313808 877.660747 
L 127.90795 871.622223 
L 111.137238 862.286347 
L 101.25523 856.645095 
L 95.678661 854.380648 
L 90.512134 853.586105 
L 72.224268 853.864195 
L 68.697908 852.83129 
L 55.248536 851.838112 
L 46.924686 851.877839 
L 39.420921 850.844933 
L 37.94477 850.686025 
L 35.238494 850.884661 
L 33.14728 852.036747 
L 32.368201 852.473746 
L 29.005858 855.095736 
L 26.176569 857.995817 
L 24.700418 854.22174 
L 24.167364 850.606571 
L 23.880335 846.276313 
L 25.807531 841.588512 
L 27.980753 835.311625 
L 29.538912 829.511464 
L 32.122176 819.897499 
L 33.14728 815.44806 
L 35.320502 811.078076 
L 40.405021 806.469729 
L 44.546444 803.808011 
L 50.656067 803.768284 
L 57.790795 806.827273 
L 63.654393 807.502634 
L 70.010042 806.271093 
L 75.87364 803.569648 
L 82.475314 799.914752 
L 84.894561 795.584495 
L 88.748954 788.791155 
L 92.111297 783.984173 
L 93.546444 779.375826 
L 93.423431 778.382647 
L 93.259414 773.615392 
L 91.988285 766.424781 
L 90.922176 764.756241 
L 88.666946 759.869804 
L 87.805858 757.605358 
L 86.862762 755.102549 
L 86.45272 751.407926 
L 87.682845 749.064025 
L 88.953975 746.958487 
L 90.020084 745.170766 
L 89.446025 742.667957 
L 86.739749 739.529514 
L 82.393305 736.510252 
L 77.308787 734.801985 
L 73.167364 733.2129 
L 71.158159 730.749818 
L 69.271967 727.214103 
L 68.779916 723.161936 
L 69.353975 718.553589 
L 69.148954 714.461694 
L 68.205858 711.283524 
L 66.360669 707.231356 
L 62.219247 703.338098 
L 60.579079 701.073651 
L 57.257741 692.214501 
L 57.216736 689.751419 
L 57.05272 689.155512 
L 56.027615 685.222526 
L 54.838494 680.17718 
L 54.674477 675.529106 
L 54.551464 672.192027 
L 56.068619 661.942427 
L 56.314644 655.347724 
L 52.214226 647.005026 
L 43.070293 637.629423 
L 33.229289 623.764655 
L 28.062762 615.143868 
L 24.003347 605.212085 
L 20.394979 591.824042 
L 14.982427 575.774281 
L 21.379079 558.850523 
L 25.315481 552.216093 
L 30.933054 545.104936 
L 39.2159 531.160713 
L 49.261925 515.905495 
L 50.49205 513.323232 
L 50.164017 511.217694 
L 46.309623 506.132621 
L 42.414226 501.762637 
L 40.856067 498.783102 
L 40.938075 488.533502 
L 41.061088 483.726519 
L 41.594142 481.899071 
L 43.398326 478.124994 
L 47.334728 472.523469 
L 49.302929 470.576839 
L 50.697071 470.537112 
L 52.706276 471.887835 
L 55.617573 472.761831 
L 58.405858 473.516647 
L 62.219247 472.722104 
L 66.483682 471.172746 
L 68.492887 470.457658 
L 68.246862 469.901478 
L 66.811715 466.326036 
L 25.971548 386.355322 
L 11.743096 361.04914 
L 10.8 356.957246 
L 25.930544 361.088867 
L 29.333891 361.406684 
L 32.204184 361.088867 
L 34.500418 359.817599 
L 35.279498 358.466877 
L 36.632636 355.129798 
L 39.2159 350.918722 
L 42.701255 347.263826 
L 46.063598 344.840471 
L 48.441841 343.88702 
L 50.779079 343.489748 
L 56.314644 343.410294 
L 58.651883 343.370567 
L 62.998326 345.793922 
L 67.877824 349.170728 
L 70.830126 352.46808 
L 74.069456 356.798337 
L 78.866946 359.181965 
L 84.853556 360.373779 
L 90.061088 360.929959 
L 95.596653 361.168322 
L 101.583264 359.777872 
L 106.626778 357.195608 
L 116.713808 351.832446 
L 120.404184 351.196812 
L 124.217573 351.35572 
L 129.138075 352.944806 
L 131.92636 353.977711 
L 136.641841 360.731323 
L 138.323013 363.830039 
L 236.774059 357.513426 
L 237.348117 361.525866 
L 238.906276 368.756203 
L 240.136402 371.378194 
L 242.145607 372.013828 
L 244.400837 371.060377 
L 244.851883 370.663106 
L 245.0159 368.557568 
L 244.851883 365.498579 
L 246.533054 361.287503 
L 248.583264 358.864148 
L 251.125523 357.59288 
L 252.191632 357.59288 
L 253.216736 358.188787 
L 253.749791 360.612142 
L 253.913808 362.558771 
L 254.774895 365.379397 
L 256.333054 367.882207 
L 258.916318 369.391838 
L 263.549791 370.345289 
L 267.404184 370.345289 
L 269.700418 368.795931 
L 270.356485 367.206845 
L 270.069456 365.61776 
L 269.495397 364.545128 
L 266.051046 362.280681 
L 264.287866 361.04914 
L 262.934728 359.023056 
L 261.909623 355.527069 
L 261.868619 351.991354 
L 262.893724 348.217277 
L 264.820921 345.198015 
L 265.969038 344.721289 
L 268.429289 344.125383 
L 273.14477 347.422734 
L 281.222594 353.659894 
L 285.651046 356.957246 
L 288.931381 359.380601 
L 295.246025 364.425946 
L 304.30795 367.763025 
L 315.994142 366.769847 
L 325.056067 365.458852 
L 330.386611 363.432768 
L 337.480335 358.069605 
L 345.968201 347.025463 
L 347.567364 345.198015 
L 351.298745 339.914307 
L 354.374059 336.060775 
L 356.506276 332.564788 
L 359.048536 328.830437 
L 362.369874 320.408286 
L 367.61841 307.179151 
L 374.056067 292.162296 
L 384.061088 278.337254 
L 396.772385 260.102501 
L 404.850209 250.448809 
L 408.991632 246.83364 
L 412.066946 245.72128 
L 416.536402 244.847283 
L 434.127197 244.489739 
L 440.277824 245.006192 
L 444.501255 247.747364 
L 450.077824 252.355711 
L 453.358159 255.533881 
L 460.779916 260.301137 
L 467.463598 261.09568 
L 472.220084 261.334042 
L 475.295397 260.777862 
L 478.370711 259.387413 
L 484.193305 256.606514 
L 493.706276 254.620157 
L 501.907113 254.699612 
L 508.631799 255.13661 
L 522.122176 258.394235 
L 530.158996 260.380591 
L 533.275314 262.406675 
L 535.079498 265.227301 
L 535.612552 266.975295 
L 541.189121 267.332839 
L 561.85523 262.923128 
L 568.497908 261.016225 
L 574.279498 257.520238 
L 602.367364 240.119755 
L 618.030962 232.889417 
L 618.276987 232.770235 
L 628.117992 214.57521 
L 636.974895 207.305145 
L 669.122176 194.155464 
L 672.730544 192.645833 
L 674.042678 191.136203 
L 675.559833 187.203217 
L 679.291213 178.224885 
L 681.751464 173.934355 
L 686.343933 168.571192 
L 689.583264 166.505382 
L 695.077824 165.154659 
L 703.811715 163.247757 
L 706.271967 162.135397 
L 707.215063 160.824402 
L 707.748117 158.957227 
L 707.748117 156.891416 
L 706.6 154.865332 
L 702.991632 151.885797 
L 698.604184 148.906263 
L 697.661088 147.595267 
L 698.030126 144.615733 
L 700.654393 139.173116 
L 702.335565 136.749761 
L 703.483682 136.352489 
L 704.795816 136.352489 
L 707.666109 138.4183 
L 711.11046 140.245748 
L 714.349791 142.669103 
L 715.661925 143.026647 
L 718.327197 143.582827 
L 720.582427 143.026647 
L 722.304603 140.007385 
L 724.559833 136.471671 
L 724.723849 135.637401 
L 725.092887 133.651045 
L 725.871967 130.67151 
L 725.830962 126.38098 
L 727.143096 121.891814 
L 728.660251 117.561557 
L 730.546444 115.138202 
L 737.353138 109.338041 
L 752.975732 96.823994 
L 756.256067 95.234909 
L 768.311297 82.720863 
L 775.69205 69.372547 
L 777.496234 64.605292 
L 781.432636 54.315965 
L 783.318828 49.429528 
L 787.624268 44.980089 
L 794.143933 43.073187 
L 797.916318 42.47728 
L 805.502092 40.570378 
L 810.791632 38.504567 
L 814.974059 36.041485 
L 817.43431 33.61813 
L 820.427615 28.930328 
L 823.666946 24.997342 
L 826.578243 23.408257 
L 830.760669 22.613714 
L 837.649372 21.501355 
L 840.478661 31.472865 
L 842.200837 40.212833 
L 854.133054 117.521829 
L 854.830126 122.050722 
L 859.791632 158.242138 
L 861.759833 168.452011 
L 862.333891 192.089654 
L 859.217573 196.618547 
L 857.782427 198.724084 
L 860.447699 206.073604 
L 862.4159 210.801132 
L 869.386611 211.714856 
L 875.414226 212.390217 
L 870.903766 221.646639 
L 866.557322 228.28107 
L 865.860251 230.426335 
L 866.844351 234.200412 
L 867.336402 236.822403 
L 864.507113 239.245758 
L 863.728033 239.960846 
L 864.466109 251.243351 
L 866.229289 266.657478 
L 866.024268 275.635809 
L 866.065272 283.223691 
L 865.614226 290.295121 
L 865.122176 297.167914 
L 864.179079 300.862537 
L 863.933054 301.736534 
L 864.466109 301.974897 
L 865.983264 302.531077 
L 867.131381 301.974897 
L 868.074477 300.82281 
L 869.017573 297.287096 
L 870.534728 293.910289 
L 872.789958 291.486934 
L 875.250209 290.930755 
L 876.480335 291.049936 
L 876.767364 291.089663 
L 878.653556 292.758203 
L 880.006695 295.181558 
L 880.006695 297.247368 
L 878.694561 300.226903 
L 877.546444 302.689985 
L 877.587448 304.159889 
L 879.842678 306.384608 
L 884.025105 309.006599 
L 890.954812 311.668317 
L 909.201674 317.031479 
L 912.235983 317.230115 
L 915.065272 317.389024 
L 916.377406 316.832844 
L 918.468619 315.323213 
L 920.723849 312.899858 
L 924.127197 310.834047 
L 926.792469 309.880596 
L 929.662762 310.436776 
L 931.548954 312.462859 
L 932.328033 314.886214 
L 931.548954 318.064385 
L 931.179916 320.130196 
L 932.164017 321.242555 
L 934.993305 322.553551 
L 942.210042 324.579634 
L 945.449372 325.33445 
L 948.278661 325.493358 
L 950.533891 324.539907 
L 952.133054 323.030276 
L 954.470293 324.023454 
L 963.614226 331.015429 
L 974.931381 339.755398 
L 977.350628 342.933569 
L 983.788285 359.301146 
L 987.355649 363.035497 
L 990.225941 364.545128 
L 990.225941 365.021853 
L 990.389958 372.371372 
L 990.430962 375.112544 
L 990.8 377.694808 
L 990.841004 378.012625 
L 991.702092 379.720892 
L 992.481172 380.118163 
L 993.588285 380.396253 
L 994.859414 380.674343 
L 995.269456 381.151068 
L 995.433473 381.905884 
L 995.392469 382.263428 
L 995.269456 384.011422 
L 995.023431 385.362144 
L 994.203347 389.533493 
L 994.121339 390.367763 
L 993.998326 391.797939 
L 993.875314 392.671936 
L 993.83431 393.069207 
L 993.342259 393.58566 
L 992.973222 393.982931 
L 992.235146 394.41993 
L 991.989121 394.578838 
L 993.05523 394.856928 
L 994.982427 395.810379 
L 997.934728 398.670733 
L 999.000837 399.703638 
L 1003.880335 401.213269 
L 1006.955649 401.213269 
L 1007.447699 401.610541 
L 1010.235983 403.914714 
L 1013.639331 406.139433 
L 1016.632636 408.602515 
L 1026.514644 420.163111 
L 1028.687866 425.605727 
L 1042.260251 450.435184 
L 1045.048536 455.877801 
L 1047.34477 468.749391 
L 1049.723013 470.537112 
L 1051.937238 471.371382 
L 1056.857741 471.927562 
L 1060.056067 472.007016 
L 1062.762343 472.841286 
L 1069.2 476.377 
L 1068.051883 479.872988 
L 1060.999163 496.161111 
L 1059.646025 499.100919 
L 1059.235983 500.014643 
L 1058.087866 503.987356 
L 1057.923849 504.3449 
L 1055.709623 508.714885 
L 1048.861925 516.660311 
L 1046.360669 521.030295 
L 1045.909623 524.367374 
L 1046.360669 526.711275 
L 1048.902929 531.041532 
L 1049.805021 531.994983 
L 1050.87113 532.670344 
L 1050.502092 533.504614 
L 1049.353975 535.133426 
L 1047.713808 536.523876 
L 1045.212552 537.71569 
L 1039.635983 538.589687 
L 1037.134728 539.185594 
L 1036.27364 540.218499 
L 1035.658577 542.681581 
L 1034.961506 545.859752 
L 1034.961506 548.759832 
L 1036.437657 552.25582 
L 1038.077824 556.744986 
L 1038.364854 560.519063 
L 1038.692887 564.730139 
L 1037.216736 568.067218 
L 1034.428452 571.722114 
L 1031.27113 574.26465 
" clip-path="url(#pfbdf3506bd)"/>
   </g>
  </g>
 </g>
 <defs>
  <clipPath id="pfbdf3506bd">
   <rect x="10.8" y="21.501355" width="1058.4" height="1036.99729"/>
  </clipPath>
 </defs>
</svg>
