<?xml version="1.0" encoding="utf-8" standalone="no"?>
<!DOCTYPE svg PUBLIC "-//W3C//DTD SVG 1.1//EN"
  "http://www.w3.org/Graphics/SVG/1.1/DTD/svg11.dtd">
<svg xmlns:xlink="http://www.w3.org/1999/xlink" width="1080pt" height="1080pt" viewBox="0 0 1080 1080" xmlns="http://www.w3.org/2000/svg" version="1.1">
 <metadata>
  <rdf:RDF xmlns:dc="http://purl.org/dc/elements/1.1/" xmlns:cc="http://creativecommons.org/ns#" xmlns:rdf="http://www.w3.org/1999/02/22-rdf-syntax-ns#">
   <cc:Work>
    <dc:type rdf:resource="http://purl.org/dc/dcmitype/StillImage"/>
    <dc:date>2022-07-01T13:43:18.388917</dc:date>
    <dc:format>image/svg+xml</dc:format>
    <dc:creator>
     <cc:Agent>
      <dc:title>Matplotlib v3.5.1, https://matplotlib.org/</dc:title>
     </cc:Agent>
    </dc:creator>
   </cc:Work>
  </rdf:RDF>
 </metadata>
 <defs>
  <style type="text/css">*{stroke-linejoin: round; stroke-linecap: butt}</style>
 </defs>
 <g id="figure_1">
  <g id="patch_1">
   <path d="M 0 1080 
L 1080 1080 
L 1080 0 
L 0 0 
L 0 1080 
z
" style="fill: none; opacity: 0"/>
  </g>
  <g id="axes_1">
   <g id="PatchCollection_1">
    <path d="M 1021.96745 338.807124 
L 1028.091395 352.756497 
L 1029.45951 356.417418 
L 1029.264065 357.742924 
L 1027.765653 358.563475 
L 1026.071796 359.06843 
L 1020.273593 362.539993 
L 1015.387468 365.506602 
L 1013.498166 368.788807 
L 1011.152825 374.532667 
L 1008.546892 382.675061 
L 1008.286298 387.409011 
L 1007.569666 391.25929 
L 1006.006106 396.498195 
L 1005.745513 400.664071 
L 1005.745513 406.092334 
L 1005.810661 413.666654 
L 1006.853035 420.925377 
L 1010.892232 432.602454 
L 1011.608864 436.578972 
L 1011.413419 438.535671 
L 1010.305897 439.356222 
L 1007.765111 440.681728 
L 1003.791062 442.38595 
L 995.712668 443.080263 
L 986.005564 441.944115 
L 980.467955 441.312922 
L 978.643802 442.322831 
L 977.340835 444.153292 
L 977.275686 445.163201 
L 977.14539 446.930542 
L 978.383208 451.096418 
L 980.402807 456.840278 
L 981.380032 461.637347 
L 983.660224 462.836615 
L 985.484378 465.298269 
L 987.438828 469.148548 
L 989.393278 474.261214 
L 989.067537 477.606539 
L 988.220608 481.709295 
L 986.005564 486.00141 
L 984.963191 487.453155 
L 980.793697 490.104167 
L 976.949945 491.871508 
L 972.650154 492.881417 
L 964.441463 493.070775 
L 962.226419 493.701969 
L 961.444639 494.901236 
L 961.444639 497.741606 
L 962.291567 503.422346 
L 963.855127 509.608041 
L 966.721655 517.687316 
L 968.08977 521.03264 
L 968.545808 522.168788 
L 970.109368 524.125488 
L 972.389561 524.630442 
L 976.689351 523.620533 
L 981.05429 522.610624 
L 992.585547 523.178698 
L 1001.315425 525.82971 
L 1009.589265 528.480722 
L 1015.126874 531.51045 
L 1018.84033 535.360729 
L 1020.143297 536.875593 
L 1024.508236 540.599634 
L 1031.088219 546.217254 
L 1034.150191 549.183863 
L 1035.388009 551.140562 
L 1035.388009 553.412858 
L 1031.935147 557.136899 
L 1028.938323 561.113417 
L 1027.635356 562.817639 
L 1027.439911 564.080026 
L 1028.67773 565.342412 
L 1030.957922 566.289202 
L 1032.391186 567.046634 
L 1037.537905 567.362231 
L 1040.599877 568.056544 
L 1041.25136 568.245902 
L 1046.202634 570.960033 
L 1048.613123 572.853613 
L 1055.258254 581.564081 
L 1064.574468 593.0518 
L 1067.440995 595.765931 
L 1068.613665 597.280795 
L 1069.2 600.121165 
L 1068.939407 603.655848 
L 1067.766736 605.423189 
L 1063.076056 607.506127 
L 1054.215881 607.25365 
L 1050.893315 607.758605 
L 1049.069162 610.030901 
L 1048.35253 613.502464 
L 1048.091936 618.61513 
L 1048.091936 624.800825 
L 1051.675095 637.298453 
L 1057.668743 644.872773 
L 1063.857836 649.543604 
L 1065.942583 652.69957 
L 1067.180401 657.685998 
L 1067.766736 661.473158 
L 1067.24555 663.303618 
L 1062.880611 663.303618 
L 1058.450523 664.502886 
L 1055.518848 666.396466 
L 1053.694694 668.731881 
L 1044.443629 684.385476 
L 1041.381657 688.677591 
L 1040.07869 690.508051 
L 1037.34246 696.756865 
L 1034.671378 707.045317 
L 1034.345636 714.30404 
L 1036.365235 718.280558 
L 1040.86047 724.087537 
L 1042.358882 731.283141 
L 1041.707399 737.847551 
L 1040.404432 743.71765 
L 1037.798498 746.431781 
L 1030.762477 749.903344 
L 1028.026246 749.272151 
L 1025.680906 745.106275 
L 1020.534187 738.289387 
L 1018.644885 736.395807 
L 1015.908654 735.512136 
L 1012.260347 736.017091 
L 1008.481743 738.794342 
L 1001.054832 745.484991 
L 998.058008 747.883526 
L 995.973261 752.17564 
L 997.406525 760.002438 
L 997.145931 763.726478 
L 995.582371 765.935655 
L 985.875268 770.16465 
L 982.943592 771.553276 
L 980.27251 774.330526 
L 979.09984 777.80209 
L 977.992318 783.040994 
L 978.057466 792.445775 
L 978.057466 797.305964 
L 976.7545 803.744136 
L 971.60778 806.521387 
L 967.894325 806.521387 
L 962.291567 802.41863 
L 956.232771 798.315873 
L 949.717937 796.990367 
L 940.92291 799.767618 
L 923.267709 807.215699 
L 914.016644 808.667444 
L 906.068546 806.836983 
L 893.950954 800.966885 
L 867.826468 783.609068 
L 859.422332 775.84539 
L 856.164914 769.028502 
L 847.174443 749.777106 
L 842.939801 740.119848 
L 840.138422 736.458926 
L 834.535664 735.13342 
L 821.571144 737.027 
L 797.857146 743.149576 
L 792.775576 747.315452 
L 791.863499 750.534538 
L 791.928647 753.248669 
L 793.752801 755.584084 
L 803.590201 763.347762 
L 811.08226 770.606486 
L 814.339677 777.486493 
L 815.772941 785.31329 
L 814.926013 790.362837 
L 811.668595 796.801009 
L 805.218909 800.52505 
L 788.475785 803.870375 
L 779.22472 807.089461 
L 768.540391 814.537542 
L 753.295679 829.307466 
L 751.927564 834.357013 
L 751.536674 840.795185 
L 752.44875 845.402896 
L 759.354475 855.375751 
L 765.608716 864.275577 
L 769.843358 869.072646 
L 783.850252 882.075229 
L 786.065296 884.284406 
L 787.433411 886.68294 
L 787.433411 888.63964 
L 785.674406 890.848816 
L 777.27027 894.383499 
L 764.957233 898.549375 
L 764.566342 898.675614 
L 761.374074 902.336535 
L 743.588576 899.622404 
L 740.26601 899.938 
L 732.578505 900.632313 
L 732.057319 901.579103 
L 732.057319 902.336535 
L 731.731577 907.57544 
L 731.796725 916.601505 
L 732.187615 920.704261 
L 745.999064 934.906111 
L 749.061037 937.87272 
L 754.794091 942.354193 
L 759.419623 945.320801 
L 763.980007 945.320801 
L 767.43287 946.078233 
L 777.009676 953.147599 
L 807.238508 973.976979 
L 811.798892 976.564872 
L 814.469974 979.973316 
L 816.424424 985.21222 
L 817.597095 991.965989 
L 818.769765 996.826178 
L 822.222627 1000.928934 
L 827.173901 1002.001963 
L 831.799434 1002.001963 
L 836.359818 1000.865815 
L 843.200394 999.287832 
L 848.151668 999.287832 
L 853.102942 1000.739576 
L 857.728475 1004.274259 
L 848.933448 1009.071328 
L 839.486938 1015.130784 
L 830.36617 1023.020701 
L 817.857688 1036.654477 
L 806.130986 1050.982566 
L 773.035627 1061.649733 
L 762.351299 1059.188079 
L 760.461997 1058.746244 
L 760.852887 1055.716516 
L 763.458821 1048.584031 
L 763.393672 1042.966411 
L 761.50437 1037.34879 
L 756.097058 1032.109885 
L 748.409553 1023.525656 
L 743.067389 1017.529319 
L 732.448209 1028.890799 
L 726.063671 1038.29558 
L 727.562083 1041.640905 
L 729.516533 1049.530821 
L 731.145242 1058.17817 
L 708.278173 1066.573041 
L 705.216201 1056.032113 
L 704.369272 1050.414492 
L 703.978382 1043.660723 
L 702.414822 1040.315399 
L 699.74374 1038.421819 
L 689.776043 1030.216305 
L 689.320005 1029.711351 
L 687.886741 1028.007129 
L 680.199237 1022.010792 
L 663.390964 1016.51941 
L 658.43969 1013.552801 
L 655.442866 1016.582529 
L 653.944454 1021.442718 
L 652.836932 1027.060339 
L 651.33852 1035.518329 
L 649.514367 1041.325308 
L 649.905257 1043.97632 
L 654.856531 1054.959084 
L 648.732586 1064.174507 
L 645.475169 1062.785881 
L 641.761714 1062.785881 
L 639.090632 1062.785881 
L 631.859165 1061.712853 
L 625.995814 1057.736335 
L 617.721975 1047.826599 
L 610.42536 1038.548057 
L 609.64358 1034.255943 
L 613.943371 1027.375935 
L 614.790299 1025.545475 
L 618.634051 1017.276842 
L 618.959793 1012.984727 
L 618.894645 1004.337378 
L 611.858624 986.790204 
L 603.780229 972.146518 
L 600.131922 969.243029 
L 594.724609 968.927432 
L 583.975132 971.830922 
L 579.935935 973.408905 
L 575.049809 973.724502 
L 559.544503 967.412568 
L 553.616004 962.741737 
L 547.88295 955.104298 
L 546.058796 950.433467 
L 546.384538 945.005205 
L 546.710279 937.809601 
L 546.710279 929.288491 
L 546.710279 910.289571 
L 545.472461 883.400735 
L 544.299791 877.27816 
L 542.084747 874.753386 
L 539.934852 874.059074 
L 537.394066 874.122193 
L 533.420017 874.816506 
L 523.973507 878.856143 
L 518.501046 879.613575 
L 511.725619 877.972472 
L 505.471378 874.564028 
L 498.109615 868.252095 
L 492.637154 862.886952 
L 489.379737 857.584928 
L 490.356962 853.229694 
L 496.480906 843.067481 
L 497.91417 837.008025 
L 497.458131 830.128017 
L 495.243088 826.908931 
L 492.311412 823.689845 
L 487.946473 821.922504 
L 465.665739 818.703418 
L 462.017432 816.557361 
L 457.001009 809.551115 
L 455.828339 802.039914 
L 455.828339 795.601742 
L 461.821987 785.755126 
L 468.01108 777.865209 
L 468.01108 773.95181 
L 467.62019 771.427037 
L 464.688514 768.207951 
L 460.193278 766.44061 
L 457.261603 766.819326 
L 454.134482 768.27107 
L 451.789142 770.354008 
L 449.834692 773.320617 
L 448.075686 780.516221 
L 444.101637 782.346682 
L 440.779072 782.409801 
L 437.521655 782.094204 
L 434.850572 779.758789 
L 434.068792 779.064476 
L 432.049194 773.446856 
L 429.117518 764.673268 
L 427.228216 759.81308 
L 422.407239 754.447936 
L 420.583085 752.680595 
L 418.43319 751.607566 
L 415.501514 752.364998 
L 412.634987 756.341516 
L 410.15935 766.756206 
L 406.901933 768.586667 
L 402.927884 768.649786 
L 382.536452 765.872536 
L 375.239837 762.716569 
L 367.943223 757.351426 
L 351.851582 743.843888 
L 338.235578 723.077627 
L 337.974985 721.689002 
L 337.77954 717.712484 
L 339.473397 713.420369 
L 343.968632 707.928987 
L 349.245648 701.04898 
L 352.568214 696.251911 
L 353.740884 693.853376 
L 353.219697 692.212273 
L 351.069802 690.318693 
L 347.942681 689.876858 
L 344.098929 690.63429 
L 339.994583 692.590989 
L 336.411424 692.590989 
L 331.85104 690.949887 
L 326.704321 684.132999 
L 324.489277 679.146571 
L 325.205909 676.306201 
L 327.225508 674.223263 
L 327.681546 673.907666 
L 336.411424 671.69849 
L 339.994583 669.363074 
L 342.86111 662.293709 
L 343.512594 652.257735 
L 343.512594 646.513876 
L 342.405072 644.052222 
L 341.68844 642.600477 
L 334.456974 638.813317 
L 327.681546 634.584322 
L 320.05919 627.451837 
L 312.762575 619.751278 
L 311.264163 618.173295 
L 307.224966 614.891089 
L 299.016275 609.841543 
L 290.221248 606.685576 
L 284.292749 605.233831 
L 276.605244 605.296951 
L 269.373778 606.622457 
L 262.077164 607.379889 
L 257.321334 607.064292 
L 254.259362 606.180621 
L 250.676203 605.170712 
L 248.396011 603.340251 
L 244.747704 600.310523 
L 244.226517 597.596392 
L 245.659781 595.071619 
L 248.526308 591.095101 
L 249.047495 588.380969 
L 247.549083 585.47748 
L 245.008297 582.700229 
L 238.62376 579.291785 
L 235.431491 578.408115 
L 230.871107 578.281876 
L 225.528943 578.218757 
L 222.141229 578.597473 
L 219.404998 580.364814 
L 217.450548 582.826468 
L 216.994509 585.603719 
L 216.864213 589.012163 
L 216.994509 590.842623 
L 218.688366 593.114919 
L 223.183602 597.659511 
L 225.268349 600.058046 
L 226.441019 603.592729 
L 224.877459 609.715304 
L 222.07608 613.376225 
L 219.274701 616.090357 
L 214.127982 617.794579 
L 210.805417 618.047056 
L 208.655521 618.236414 
L 203.639099 616.974027 
L 197.580303 614.512373 
L 189.501908 607.001173 
L 186.765678 603.403371 
L 185.202117 600.184285 
L 184.941524 597.407034 
L 186.179343 593.430516 
L 188.980721 590.085191 
L 192.303287 586.42427 
L 193.736551 583.268303 
L 193.671402 579.607382 
L 191.977545 576.198938 
L 189.43676 572.853613 
L 186.505084 568.940215 
L 183.50826 565.153054 
L 181.16292 562.817639 
L 178.947876 561.933968 
L 172.237597 560.040388 
L 161.292675 557.894331 
L 156.276253 556.631944 
L 149.30538 555.558916 
L 113.0829 535.486968 
L 110.542115 532.078524 
L 108.327071 528.543841 
L 106.893808 524.946039 
L 106.502918 521.600714 
L 106.307473 516.29869 
L 106.307473 515.41502 
L 99.466896 481.646176 
L 98.880561 478.995164 
L 98.815413 474.008737 
L 98.424523 466.813133 
L 96.926111 460.43808 
L 94.711067 453.621192 
L 90.997612 447.435497 
L 85.785744 439.924296 
L 83.961591 439.229984 
L 82.00714 439.293103 
L 80.05269 440.113654 
L 76.404383 443.017144 
L 73.407559 446.804304 
L 71.062218 448.382287 
L 68.195691 448.12981 
L 65.459461 446.930542 
L 60.117297 441.628518 
L 55.687209 435.75842 
L 51.843457 430.645754 
L 51.648012 428.120981 
L 52.625237 426.29052 
L 54.058501 425.091253 
L 64.938274 419.978587 
L 68.325988 417.895649 
L 71.583405 414.865921 
L 73.016669 412.15179 
L 72.886372 410.068852 
L 70.60618 407.733436 
L 68.456285 407.35472 
L 61.615708 408.490868 
L 52.49494 408.743346 
L 51.32227 407.922794 
L 51.257122 406.092334 
L 52.10405 403.188844 
L 56.859879 382.864419 
L 59.791555 373.27028 
L 59.791555 370.556149 
L 59.009775 368.599449 
L 57.902253 366.137795 
L 56.664434 364.622931 
L 52.755534 362.413755 
L 47.739111 361.656323 
L 45.524067 362.476874 
L 44.025656 363.928619 
L 42.722689 367.715779 
L 42.396947 371.629177 
L 42.006057 374.090831 
L 41.028832 375.100741 
L 39.465271 375.353218 
L 37.119931 373.712115 
L 34.318552 369.735597 
L 25.653822 354.208241 
L 25.197784 350.484201 
L 25.914416 347.643831 
L 27.217383 345.876489 
L 31.452025 336.850424 
L 35.100332 326.625092 
L 37.771415 318.861414 
L 40.768238 311.097736 
L 40.507645 307.752412 
L 40.442497 307.184338 
L 39.204678 302.892223 
L 36.403299 298.915705 
L 30.995987 293.424323 
L 19.008691 285.534406 
L 13.080192 281.305411 
L 10.8 278.338802 
L 10.995445 274.867239 
L 13.015044 269.565215 
L 16.533054 264.073833 
L 43.113579 222.60443 
L 61.615708 186.184575 
L 63.895901 180.188238 
L 68.782026 156.581607 
L 73.928746 132.091306 
L 76.143789 124.075151 
L 76.795273 113.344864 
L 78.554278 105.328708 
L 80.769322 99.269252 
L 84.026739 94.78778 
L 87.609898 93.462274 
L 93.929287 92.957319 
L 103.571242 90.874381 
L 112.69201 87.781534 
L 121.096147 83.741896 
L 130.41236 77.68244 
L 137.774123 72.632894 
L 144.875292 67.583347 
L 150.412902 60.261504 
L 154.908137 51.992871 
L 160.445747 42.209375 
L 164.419796 35.392487 
L 168.719586 30.34294 
L 173.801157 25.040916 
L 178.296393 20.433205 
L 183.638557 16.267329 
L 184.876376 15.573016 
L 188.198941 13.742555 
L 192.498732 13.426959 
L 194.844072 13.679436 
L 206.766219 15.320539 
L 219.991333 15.257419 
L 241.35999 16.835403 
L 246.962748 18.476505 
L 276.018909 18.03467 
L 284.227601 19.297057 
L 293.087775 22.894859 
L 308.788526 31.857804 
L 335.434199 46.690847 
L 348.78961 56.284986 
L 359.40879 65.626648 
L 364.555509 68.27766 
L 369.63708 68.530137 
L 373.415684 67.835824 
L 378.497255 62.786278 
L 385.468128 52.624065 
L 387.74832 49.341859 
L 391.070885 43.850477 
L 392.569297 41.325704 
L 392.82989 41.70442 
L 419.084673 86.26667 
L 420.452788 88.538966 
L 417.455965 92.957319 
L 413.677361 98.638059 
L 402.211252 109.557704 
L 396.999384 113.092386 
L 390.223957 115.806518 
L 385.077237 117.51074 
L 378.171513 121.929093 
L 371.917272 127.92543 
L 366.900849 135.689108 
L 366.379663 138.781955 
L 367.226591 141.811683 
L 371.656679 149.449123 
L 376.282211 156.202891 
L 377.454881 160.431887 
L 377.780623 165.418314 
L 377.52003 171.47777 
L 375.044392 180.125119 
L 372.829349 187.446962 
L 367.878075 196.09431 
L 363.122245 200.133948 
L 372.047569 206.382762 
L 376.542804 210.990473 
L 381.103188 218.186077 
L 385.077237 224.119294 
L 388.595248 226.517829 
L 391.722369 228.222051 
L 396.478198 229.421319 
L 400.973433 229.610677 
L 405.012631 228.790125 
L 410.485092 226.39159 
L 414.980327 223.803698 
L 440.192737 213.13653 
L 448.466576 211.495428 
L 451.333104 210.864234 
L 485.601133 200.386425 
L 484.689056 212.25286 
L 485.405688 219.953418 
L 490.42211 241.287753 
L 492.246264 242.423901 
L 494.917346 243.749407 
L 507.230383 246.905374 
L 518.045008 248.735835 
L 528.273298 247.473448 
L 534.788132 247.031613 
L 546.449686 247.599687 
L 551.205515 248.672715 
L 561.173212 252.838591 
L 562.41103 253.406665 
L 571.271205 255.615842 
L 571.727244 255.742081 
L 578.632968 256.120797 
L 588.01433 255.8052 
L 590.75056 241.035276 
L 593.747384 221.973237 
L 593.877681 220.395254 
L 593.812532 218.438554 
L 604.562009 189.908616 
L 615.116041 182.208057 
L 627.819968 181.00879 
L 628.992638 182.018699 
L 632.901539 184.354114 
L 635.246879 185.427143 
L 638.569445 177.095391 
L 642.934384 170.089145 
L 650.687037 164.724001 
L 659.091173 157.023443 
L 659.416915 154.056834 
L 661.045624 147.366185 
L 662.544035 142.758473 
L 663.390964 142.758473 
L 668.798276 143.010951 
L 672.120842 141.369848 
L 672.120842 136.699017 
L 671.729952 132.028187 
L 672.381435 128.051669 
L 675.117666 127.672953 
L 680.199237 127.672953 
L 685.932291 128.619743 
L 692.316829 127.294237 
L 697.072658 124.264509 
L 697.724141 120.919184 
L 697.984735 115.932757 
L 699.678592 111.956238 
L 707.431245 108.863391 
L 716.161123 103.876964 
L 720.851804 97.817508 
L 721.829029 91.88429 
L 718.115573 83.552538 
L 713.294596 74.968309 
L 712.252222 68.656376 
L 712.187074 62.344442 
L 714.206672 57.358015 
L 720.265468 53.318377 
L 727.366638 50.604246 
L 735.119291 49.594337 
L 739.158488 48.205711 
L 740.461455 46.185893 
L 750.298855 44.292313 
L 762.155854 38.990289 
L 769.191875 34.508816 
L 774.794633 31.479088 
L 782.873027 29.964224 
L 786.847076 30.027343 
L 789.192417 29.39615 
L 799.876745 44.734148 
L 807.108211 79.449782 
L 807.17336 80.017856 
L 805.870393 81.343362 
L 804.437129 84.057493 
L 804.437129 87.592176 
L 804.828019 90.9375 
L 804.762871 93.651632 
L 803.720497 95.923928 
L 801.63575 98.701178 
L 779.420165 123.570196 
L 775.967303 127.672953 
L 772.12355 130.323965 
L 765.348123 134.111125 
L 760.72259 136.257182 
L 756.943986 136.825256 
L 751.66697 136.635898 
L 745.021839 137.330211 
L 742.61135 167.69061 
L 750.820042 182.965489 
L 769.191875 212.18974 
L 774.794633 214.209559 
L 792.18924 216.98681 
L 815.577496 220.647731 
L 822.808962 216.860571 
L 828.672313 212.820934 
L 836.750708 206.067165 
L 882.419697 219.259106 
L 883.657516 219.890299 
L 888.543642 226.39159 
L 888.087603 226.896545 
L 886.65434 229.421319 
L 886.65434 232.451047 
L 886.914933 253.785381 
L 887.501268 263.631997 
L 889.586015 268.681544 
L 891.670762 270.890721 
L 893.364619 271.711272 
L 896.556888 273.163017 
L 898.44619 274.930358 
L 899.22797 276.950177 
L 899.293118 281.305411 
L 898.511338 283.767065 
L 895.253921 287.554225 
L 890.56324 291.341385 
L 888.348196 294.560471 
L 886.328598 297.968915 
L 885.155928 302.576626 
L 885.351373 307.626173 
L 886.589191 314.884896 
L 887.631565 320.628756 
L 889.586015 323.216648 
L 891.475317 323.847842 
L 900.205195 326.498854 
L 911.997045 331.232804 
L 916.361984 333.189503 
L 917.860396 333.820696 
L 916.883171 326.625092 
L 911.866749 317.283431 
L 909.912298 310.908378 
L 910.23804 305.98507 
L 919.749698 293.929278 
L 928.870467 284.082661 
L 936.818565 276.950177 
L 945.613591 276.887057 
L 953.626837 277.202654 
L 956.949403 277.455131 
L 958.578112 277.58137 
L 962.421864 277.518251 
L 964.311166 272.658062 
L 967.30799 265.083742 
L 970.760852 259.087405 
L 979.49073 255.300245 
L 986.331306 253.722262 
L 993.627921 254.479694 
L 1002.813837 255.552723 
L 1013.107276 257.004467 
L 1021.120522 258.456212 
L 1029.589807 262.558969 
L 1034.931971 267.797873 
L 1040.730174 275.624671 
L 1044.573926 283.893303 
L 1046.137486 292.161936 
L 1046.202634 307.184338 
L 1043.205811 312.423242 
L 1037.081866 316.967834 
L 1031.41396 319.24013 
L 1024.508236 323.784722 
L 1020.729632 329.465462 
L 1019.62211 333.252622 
L 1021.250819 337.22914 
L 1021.96745 338.807124 
" clip-path="url(#p6b747c6fa6)"/>
   </g>
  </g>
 </g>
 <defs>
  <clipPath id="p6b747c6fa6">
   <rect x="10.8" y="13.426959" width="1058.4" height="1053.146083"/>
  </clipPath>
 </defs>
</svg>
