<?xml version="1.0" encoding="utf-8" standalone="no"?>
<!DOCTYPE svg PUBLIC "-//W3C//DTD SVG 1.1//EN"
  "http://www.w3.org/Graphics/SVG/1.1/DTD/svg11.dtd">
<svg xmlns:xlink="http://www.w3.org/1999/xlink" width="1080pt" height="1080pt" viewBox="0 0 1080 1080" xmlns="http://www.w3.org/2000/svg" version="1.1">
 <metadata>
  <rdf:RDF xmlns:dc="http://purl.org/dc/elements/1.1/" xmlns:cc="http://creativecommons.org/ns#" xmlns:rdf="http://www.w3.org/1999/02/22-rdf-syntax-ns#">
   <cc:Work>
    <dc:type rdf:resource="http://purl.org/dc/dcmitype/StillImage"/>
    <dc:date>2022-07-01T13:43:18.715742</dc:date>
    <dc:format>image/svg+xml</dc:format>
    <dc:creator>
     <cc:Agent>
      <dc:title>Matplotlib v3.5.1, https://matplotlib.org/</dc:title>
     </cc:Agent>
    </dc:creator>
   </cc:Work>
  </rdf:RDF>
 </metadata>
 <defs>
  <style type="text/css">*{stroke-linejoin: round; stroke-linecap: butt}</style>
 </defs>
 <g id="figure_1">
  <g id="patch_1">
   <path d="M 0 1080 
L 1080 1080 
L 1080 0 
L 0 0 
L 0 1080 
z
" style="fill: none; opacity: 0"/>
  </g>
  <g id="axes_1">
   <g id="PatchCollection_1">
    <path d="M 1069.125989 1037.050692 
L 1068.139182 1038.365293 
L 1066.214908 1038.365293 
L 1066.214908 1034.995134 
L 1066.584961 1034.134668 
L 1068.459895 1034.134668 
L 1069.2 1035.544876 
L 1069.125989 1037.050692 
" clip-path="url(#p7b36e59aad)"/>
    <path d="M 1050.919398 1026.820705 
L 1049.80924 1028.135306 
L 1049.019794 1028.087503 
L 1048.600401 1027.322644 
L 1048.649741 1025.84073 
L 1049.463857 1024.526129 
L 1051.166099 1024.573932 
L 1051.462142 1025.19538 
L 1051.462142 1025.888533 
L 1050.919398 1026.820705 
" clip-path="url(#p7b36e59aad)"/>
    <path d="M 1001.973763 988.792879 
L 1002.023104 990.991849 
L 1000.641574 990.991849 
L 999.778118 990.107481 
L 998.815981 988.864585 
L 998.76664 988.14753 
L 999.013342 987.860708 
L 1000.962286 987.860708 
L 1001.973763 988.792879 
" clip-path="url(#p7b36e59aad)"/>
    <path d="M 958.184197 987.095849 
L 956.087231 987.119751 
L 955.445807 986.522205 
L 955.421137 985.183702 
L 956.309263 984.418843 
L 957.24673 984.036413 
L 958.134856 984.036413 
L 959.072323 984.872978 
L 959.146334 985.852953 
L 958.184197 987.095849 
" clip-path="url(#p7b36e59aad)"/>
    <path d="M 997.40978 713.945633 
L 997.237089 713.969535 
L 996.990387 713.897829 
L 996.793026 713.730517 
L 996.645005 713.5154 
L 996.595665 713.300283 
L 996.620335 713.085167 
L 996.694345 712.893952 
L 996.867037 712.702737 
L 997.089068 712.583228 
L 997.33577 712.559326 
L 997.508461 712.583228 
L 997.705823 712.678836 
L 997.878514 712.822247 
L 997.952524 712.965658 
L 998.001865 713.132971 
L 998.001865 713.348087 
L 997.927854 713.587106 
L 997.804503 713.77832 
L 997.631812 713.873928 
L 997.40978 713.945633 
" clip-path="url(#p7b36e59aad)"/>
    <path d="M 996.768356 707.994075 
L 995.92957 709.404284 
L 995.633528 710.479866 
L 995.559517 710.934001 
L 995.436166 711.053511 
L 995.115454 711.149118 
L 994.62205 711.149118 
L 993.24052 711.268627 
L 992.697776 711.196922 
L 992.327724 710.79059 
L 991.908331 709.954026 
L 991.908331 709.189167 
L 992.130362 708.735032 
L 992.574425 708.543817 
L 993.462552 708.543817 
L 993.709254 708.304799 
L 993.758594 707.970173 
L 993.635243 706.990198 
L 993.339201 705.914615 
L 993.487222 705.19756 
L 993.832605 704.67172 
L 994.301338 704.313192 
L 994.745401 704.265388 
L 995.658198 704.576112 
L 996.447643 704.862934 
L 997.089068 705.101953 
L 997.28643 705.293167 
L 997.582472 705.675597 
L 997.508461 706.129732 
L 997.237089 707.133609 
L 996.768356 707.994075 
" clip-path="url(#p7b36e59aad)"/>
    <path d="M 993.339201 702.520554 
L 993.14184 702.544456 
L 992.919808 702.496652 
L 992.771787 702.424947 
L 992.623766 702.281536 
L 992.525085 702.090321 
L 992.475745 701.899106 
L 992.475745 701.707892 
L 992.574425 701.468873 
L 992.747117 701.277658 
L 992.969148 701.182051 
L 993.19118 701.134247 
L 993.413212 701.182051 
L 993.635243 701.30156 
L 993.783264 701.444971 
L 993.857275 701.660088 
L 993.881945 701.875204 
L 993.832605 702.114223 
L 993.709254 702.305438 
L 993.536562 702.448849 
L 993.339201 702.520554 
" clip-path="url(#p7b36e59aad)"/>
    <path d="M 991.710969 700.39329 
L 988.873899 700.751818 
L 986.036828 700.417192 
L 982.755694 699.341609 
L 979.795273 697.907499 
L 978.093031 697.14264 
L 976.218097 695.947548 
L 973.627728 694.632947 
L 973.158995 693.772481 
L 972.591581 692.07545 
L 971.752795 688.657487 
L 970.469945 681.247917 
L 970.075223 678.116776 
L 969.335117 677.065096 
L 968.249629 676.132924 
L 967.682215 674.937832 
L 967.830236 673.886151 
L 968.595012 672.213022 
L 969.70517 670.922323 
L 970.889338 670.037955 
L 972.887623 669.105783 
L 973.775749 669.05798 
L 975.3053 669.249194 
L 979.153848 669.607722 
L 980.461368 669.703329 
L 984.260575 669.918446 
L 986.086168 670.300875 
L 987.270337 671.041832 
L 988.849228 672.284728 
L 989.342632 673.09739 
L 989.293292 674.029562 
L 988.849228 675.415869 
L 988.577857 676.849979 
L 988.577857 678.260188 
L 989.268622 679.574789 
L 990.107408 680.937193 
L 990.354109 681.391328 
L 990.822843 687.318984 
L 992.327724 690.545733 
L 993.21585 691.119377 
L 994.671391 691.310592 
L 995.732208 691.621315 
L 996.422973 693.055426 
L 996.398303 696.664604 
L 995.9049 697.859695 
L 994.696061 699.102591 
L 991.710969 700.39329 
" clip-path="url(#p7b36e59aad)"/>
    <path d="M 990.230758 669.416507 
L 990.033397 669.464311 
L 989.786695 669.440409 
L 989.564664 669.368703 
L 989.416643 669.201391 
L 989.268622 668.986274 
L 989.243951 668.747256 
L 989.293292 668.532139 
L 989.416643 668.293121 
L 989.614004 668.14971 
L 989.811365 668.078004 
L 989.959387 668.054102 
L 990.156748 668.078004 
L 990.354109 668.173611 
L 990.50213 668.317022 
L 990.625481 668.508237 
L 990.674822 668.699452 
L 990.650152 668.890667 
L 990.600811 669.05798 
L 990.45279 669.249194 
L 990.230758 669.416507 
" clip-path="url(#p7b36e59aad)"/>
    <path d="M 986.727593 669.201391 
L 986.480891 669.273096 
L 986.28353 669.273096 
L 986.086168 669.201391 
L 985.888807 669.05798 
L 985.765456 668.866765 
L 985.691446 668.651648 
L 985.716116 668.436532 
L 985.790126 668.221415 
L 985.938147 668.0302 
L 986.184849 667.910691 
L 986.431551 667.862888 
L 986.579572 667.910691 
L 986.776933 667.982397 
L 986.924955 668.101906 
L 987.048305 668.269219 
L 987.097646 668.41263 
L 987.122316 668.603845 
L 987.072976 668.795059 
L 987.023635 668.93847 
L 986.900284 669.081881 
L 986.727593 669.201391 
" clip-path="url(#p7b36e59aad)"/>
    <path d="M 986.826274 666.763403 
L 986.554902 666.835108 
L 986.3082 666.787305 
L 986.110839 666.691697 
L 985.962818 666.548286 
L 985.864137 666.357072 
L 985.839467 666.141955 
L 985.864137 665.926839 
L 985.962818 665.711722 
L 986.160179 665.544409 
L 986.382211 665.4249 
L 986.554902 665.4249 
L 986.727593 665.448802 
L 986.900284 665.496605 
L 987.072976 665.640017 
L 987.196327 665.855133 
L 987.245667 666.094151 
L 987.220997 666.309268 
L 987.072976 666.59609 
L 986.826274 666.763403 
" clip-path="url(#p7b36e59aad)"/>
    <path d="M 936.351089 628.161933 
L 936.129057 628.161933 
L 935.981036 628.161933 
L 935.808345 628.114129 
L 935.586313 628.066326 
L 935.364281 627.946816 
L 935.16692 627.779504 
L 935.018899 627.612191 
L 934.895548 627.420976 
L 934.796867 627.229761 
L 934.747527 627.038547 
L 934.722857 626.727823 
L 934.747527 626.512706 
L 934.796867 626.321491 
L 934.846208 626.17808 
L 934.944888 625.986866 
L 935.068239 625.819553 
L 935.24093 625.65224 
L 935.462962 625.508829 
L 935.660324 625.437123 
L 935.981036 625.341516 
L 936.203067 625.341516 
L 936.351089 625.365418 
L 936.52378 625.38932 
L 936.671801 625.437123 
L 936.844492 625.508829 
L 937.041854 625.65224 
L 937.189875 625.795651 
L 937.313225 625.939062 
L 937.411906 626.106375 
L 937.485917 626.249786 
L 937.535257 626.441001 
L 937.584597 626.680019 
L 937.584597 626.871234 
L 937.535257 627.062448 
L 937.485917 627.253663 
L 937.411906 627.420976 
L 937.288555 627.612191 
L 937.140534 627.779504 
L 936.992513 627.899013 
L 936.869162 627.970718 
L 936.696471 628.066326 
L 936.54845 628.114129 
L 936.351089 628.161933 
" clip-path="url(#p7b36e59aad)"/>
    <path d="M 266.38305 609.255578 
L 266.161018 609.255578 
L 266.012997 609.255578 
L 265.815636 609.231677 
L 265.618274 609.159971 
L 265.396243 609.040462 
L 265.174211 608.873149 
L 265.02619 608.705836 
L 264.902839 608.514621 
L 264.828828 608.323407 
L 264.779488 608.132192 
L 264.730148 607.84537 
L 264.754818 607.606352 
L 264.804158 607.439039 
L 264.853499 607.295628 
L 264.952179 607.104413 
L 265.1002 606.913198 
L 265.248222 606.769787 
L 265.470253 606.626376 
L 265.667615 606.530769 
L 265.988327 606.459063 
L 266.210358 606.435161 
L 266.38305 606.459063 
L 266.531071 606.482965 
L 266.679092 606.530769 
L 266.851783 606.602474 
L 267.049145 606.745885 
L 267.197166 606.889296 
L 267.320517 607.032707 
L 267.443867 607.20002 
L 267.493208 607.343431 
L 267.567218 607.534646 
L 267.591888 607.773664 
L 267.591888 607.964879 
L 267.567218 608.156094 
L 267.493208 608.347309 
L 267.419197 608.514621 
L 267.320517 608.681934 
L 267.172495 608.873149 
L 267.024474 608.992658 
L 266.901123 609.064364 
L 266.728432 609.159971 
L 266.580411 609.207775 
L 266.38305 609.255578 
" clip-path="url(#p7b36e59aad)"/>
    <path d="M 386.058086 581.696758 
L 384.972598 581.816267 
L 384.232493 581.577249 
L 383.714419 581.386034 
L 383.467717 580.907997 
L 383.541728 580.429961 
L 383.91178 579.999728 
L 384.380514 579.6412 
L 384.898587 579.497789 
L 385.811384 579.545593 
L 386.452809 579.6412 
L 386.773521 579.928022 
L 386.946212 580.429961 
L 386.946212 581.051408 
L 386.6255 581.529445 
L 386.058086 581.696758 
" clip-path="url(#p7b36e59aad)"/>
    <path d="M 579.743658 446.579662 
L 579.176244 447.248914 
L 578.781521 447.248914 
L 578.041415 447.129405 
L 577.005268 446.627466 
L 576.783236 445.719196 
L 577.079278 445.049945 
L 577.868724 444.715319 
L 578.559489 444.619712 
L 579.077563 444.882632 
L 579.743658 445.790902 
L 579.743658 446.579662 
" clip-path="url(#p7b36e59aad)"/>
    <path d="M 912.347005 246.234448 
L 912.371675 246.401761 
L 912.347005 246.592976 
L 912.322335 246.760289 
L 912.297664 246.975405 
L 912.272994 247.142718 
L 912.223654 247.310031 
L 912.174314 247.477344 
L 912.050963 247.716362 
L 911.927612 247.907577 
L 911.804261 248.050988 
L 911.68091 248.170497 
L 911.434208 248.385614 
L 911.261517 248.576828 
L 911.138166 248.720239 
L 910.990145 248.911454 
L 910.817454 249.174374 
L 910.718773 249.317785 
L 910.595422 249.461196 
L 910.472071 249.628509 
L 910.29938 249.77192 
L 910.102019 249.939233 
L 909.953997 250.010939 
L 909.805976 250.082644 
L 909.633285 250.15435 
L 909.460594 250.202153 
L 909.287903 250.226055 
L 909.115211 250.273859 
L 908.94252 250.297761 
L 908.745159 250.321663 
L 908.572467 250.345564 
L 908.399776 250.369466 
L 908.227085 250.369466 
L 908.029724 250.369466 
L 907.807692 250.369466 
L 907.56099 250.369466 
L 907.314288 250.393368 
L 907.116927 250.393368 
L 906.919566 250.393368 
L 906.598853 250.41727 
L 906.401492 250.41727 
L 906.228801 250.41727 
L 906.056109 250.393368 
L 905.883418 250.345564 
L 904.625239 249.795822 
L 904.255186 249.150473 
L 904.255186 248.911454 
L 904.279856 248.720239 
L 904.353867 248.552927 
L 904.427877 248.385614 
L 904.501888 248.218301 
L 904.600569 248.07489 
L 904.674579 247.931479 
L 904.77326 247.788068 
L 904.871941 247.644657 
L 904.970621 247.501246 
L 905.093972 247.357835 
L 905.192653 247.214424 
L 905.316004 247.071013 
L 905.439355 246.951503 
L 905.562706 246.855896 
L 905.710727 246.736387 
L 905.908088 246.640779 
L 906.13012 246.545172 
L 906.302811 246.473467 
L 906.450832 246.425663 
L 906.623523 246.377859 
L 906.796215 246.353957 
L 906.993576 246.330056 
L 907.240278 246.306154 
L 907.462309 246.282252 
L 907.635001 246.282252 
L 907.807692 246.25835 
L 908.054394 246.25835 
L 908.325766 246.25835 
L 908.597138 246.282252 
L 908.769829 246.282252 
L 909.041201 246.282252 
L 909.213892 246.306154 
L 909.485264 246.306154 
L 909.781306 246.330056 
L 910.077348 246.306154 
L 910.29938 246.186644 
L 910.422731 246.067135 
L 910.521412 245.899822 
L 910.644762 245.684706 
L 910.718773 245.565197 
L 910.817454 245.397884 
L 910.940805 245.254473 
L 911.138166 245.063258 
L 911.335527 244.872043 
L 911.532889 244.800338 
L 911.65624 244.895945 
L 911.804261 245.063258 
L 911.927612 245.254473 
L 912.050963 245.421786 
L 912.149643 245.589099 
L 912.223654 245.73251 
L 912.297664 245.899822 
L 912.322335 246.067135 
L 912.347005 246.234448 
" clip-path="url(#p7b36e59aad)"/>
    <path d="M 932.502541 181.412661 
L 930.726288 181.412661 
L 930.553597 181.436563 
L 930.232884 181.436563 
L 930.010853 181.412661 
L 929.764151 181.340955 
L 926.112964 180.528293 
L 923.201883 180.815115 
L 919.772729 181.603876 
L 917.947135 182.775066 
L 916.861647 184.089667 
L 916.318904 185.16525 
L 915.924181 186.240832 
L 915.726819 186.551556 
L 915.332096 186.981789 
L 914.986714 187.292513 
L 914.814023 187.412022 
L 914.567321 187.435924 
L 908.079064 189.32417 
L 906.919566 189.515384 
L 894.707827 192.096783 
L 891.476034 192.479212 
L 888.688304 192.598722 
L 887.479465 192.670427 
L 886.83804 192.670427 
L 886.418647 192.694329 
L 885.851233 192.789936 
L 885.037117 193.028955 
L 883.778938 193.435286 
L 883.310205 193.674304 
L 882.767461 194.080636 
L 882.249387 194.558672 
L 881.533952 195.371335 
L 880.621155 197.187875 
L 876.747937 208.660757 
L 876.550576 209.234401 
L 875.73646 209.401714 
L 873.244772 209.258303 
L 872.578677 209.258303 
L 868.508098 210.38169 
L 868.286066 210.453395 
L 867.965354 210.572904 
L 867.669311 210.692414 
L 867.397939 210.811923 
L 867.151238 210.931432 
L 866.978546 211.003138 
L 865.942399 211.457272 
L 865.695697 211.672389 
L 865.029602 212.102622 
L 864.388178 212.652364 
L 863.968785 213.034794 
L 863.549392 213.488929 
L 863.179339 213.966966 
L 862.833956 214.468904 
L 862.414563 215.185959 
L 862.143191 215.950818 
L 861.797809 216.88299 
L 861.723798 217.050303 
L 861.427756 217.910769 
L 861.304405 218.245395 
L 861.230395 218.508315 
L 861.131714 218.914646 
L 861.033033 219.249272 
L 860.885012 219.894622 
L 860.391609 222.834548 
L 860.342268 223.001861 
L 860.342268 223.169174 
L 860.342268 223.718916 
L 860.342268 224.125247 
L 859.898205 230.148511 
L 859.626833 230.937271 
L 859.552823 231.17629 
L 856.715752 244.035479 
L 856.641742 244.274497 
L 856.543061 244.680829 
L 856.44438 245.039356 
L 856.3457 245.421786 
L 856.296359 245.613 
L 856.098998 246.019332 
L 855.235541 247.69246 
L 852.990555 252.162104 
L 852.817864 252.23381 
L 852.571162 252.448926 
L 852.127099 252.831356 
L 851.831057 253.118178 
L 851.337653 253.66792 
L 850.84425 254.241564 
L 850.498867 254.695699 
L 850.276836 255.054227 
L 850.104144 255.48446 
L 849.783432 256.249319 
L 849.46272 257.18149 
L 848.944646 258.878521 
L 848.722614 259.834595 
L 848.377232 261.507723 
L 848.303221 261.961858 
L 848.204541 262.702815 
L 848.13053 264.089122 
L 848.031849 265.308116 
L 847.957839 266.598815 
L 848.007179 267.05295 
L 847.933169 268.152435 
L 847.859158 268.965097 
L 847.834488 269.323625 
L 847.760477 269.77776 
L 847.242404 271.833318 
L 846.823011 273.673759 
L 846.69966 274.008385 
L 846.551639 274.247403 
L 846.378947 274.486422 
L 846.058235 274.797146 
L 845.589502 275.179575 
L 844.479344 275.968336 
L 844.01061 276.302962 
L 843.319845 276.685391 
L 842.900452 276.948311 
L 841.000848 278.023894 
L 840.285413 278.430225 
L 840.038711 278.549734 
L 839.717999 278.645342 
L 838.311799 279.410201 
L 837.10296 280.509685 
L 836.091483 282.469636 
L 834.611272 284.668605 
L 834.512591 284.931525 
L 834.36457 285.170544 
L 834.093198 285.457366 
L 833.649135 285.839795 
L 833.279083 286.150519 
L 832.489637 286.556851 
L 832.242935 286.628556 
L 831.60151 286.819771 
L 831.330138 286.843673 
L 831.083437 286.771967 
L 830.812065 286.580752 
L 830.688714 286.389538 
L 830.664044 286.054912 
L 830.14597 282.230618 
L 829.997949 281.489661 
L 829.948608 280.7009 
L 829.874598 279.481906 
L 829.504545 277.689268 
L 828.961801 277.06782 
L 826.445443 275.37079 
L 825.853359 275.036164 
L 825.211934 274.749342 
L 824.151116 274.343011 
L 823.26299 273.984483 
L 822.276183 273.55425 
L 821.388057 273.195723 
L 820.647951 272.9089 
L 819.488453 272.502569 
L 817.292807 271.785514 
L 816.306 271.450888 
L 814.727108 270.925048 
L 813.863652 270.614324 
L 812.531462 270.279698 
L 810.631859 269.753858 
L 809.941094 269.753858 
L 809.077637 269.586545 
L 806.487269 269.586545 
L 796.865899 269.65825 
L 793.584765 269.77776 
L 788.280677 270.614324 
L 787.713263 270.733833 
L 787.244529 270.805539 
L 786.923817 270.901146 
L 786.455084 271.068459 
L 785.838329 271.331379 
L 785.048884 271.73771 
L 784.284108 272.12014 
L 783.544003 272.502569 
L 782.606536 272.956704 
L 781.81709 273.386937 
L 781.373027 273.673759 
L 780.780943 274.056189 
L 780.46023 274.247403 
L 780.139518 274.486422 
L 778.560627 277.641465 
L 778.412605 277.904385 
L 777.203767 279.338495 
L 777.055746 279.434102 
L 776.858384 279.52971 
L 776.636353 279.601415 
L 776.34031 279.625317 
L 776.044268 279.601415 
L 775.797567 279.553612 
L 775.575535 279.458004 
L 775.427514 279.314593 
L 775.304163 279.123379 
L 775.230152 278.860458 
L 775.230152 278.62144 
L 775.304163 277.784876 
L 775.452184 276.470274 
L 775.452184 276.27906 
L 775.402844 276.087845 
L 775.279493 275.89663 
L 775.106802 275.777121 
L 774.810759 275.63371 
L 774.465377 275.466397 
L 774.045984 275.251281 
L 773.700601 275.10787 
L 773.4539 275.036164 
L 773.133187 274.964459 
L 772.590443 274.821048 
L 772.09704 274.701538 
L 771.850338 274.653735 
L 771.455615 274.605931 
L 770.78952 274.510324 
L 770.074085 274.414716 
L 769.728703 274.390814 
L 767.95245 274.271305 
L 767.039653 274.1996 
L 766.447569 274.175698 
L 766.003506 274.151796 
L 765.658123 274.127894 
L 764.103902 274.080091 
L 763.511818 274.056189 
L 762.895063 274.056189 
L 762.47567 274.056189 
L 762.278309 274.080091 
L 761.760235 274.151796 
L 760.452715 274.319109 
L 759.860631 274.390814 
L 759.416568 274.486422 
L 759.169866 274.558127 
L 758.602452 274.749342 
L 756.90021 275.346888 
L 756.332796 275.514201 
L 755.296648 275.944434 
L 755.049946 276.040041 
L 754.679894 276.231256 
L 753.619076 276.8049 
L 753.026992 277.115624 
L 752.064855 277.665366 
L 751.719472 277.880483 
L 750.880686 278.406323 
L 750.707995 278.549734 
L 750.313272 278.836557 
L 750.140581 278.979968 
L 749.671847 279.410201 
L 749.400476 279.673121 
L 749.203114 279.864336 
L 748.61103 280.509685 
L 747.747574 281.585268 
L 747.476202 281.967697 
L 746.908787 282.684753 
L 746.686756 282.995477 
L 746.390714 283.449611 
L 745.477917 284.812016 
L 745.009184 285.457366 
L 744.565121 285.935403 
L 744.071717 286.365636 
L 742.369475 287.226102 
L 741.629369 287.58463 
L 739.754436 288.301685 
L 737.164067 288.75582 
L 736.892695 288.803623 
L 736.20193 288.899231 
L 728.085441 290.787476 
L 727.740059 290.978691 
L 727.370006 291.146004 
L 727.024624 291.337218 
L 722.707342 291.910862 
L 722.287949 291.958666 
L 721.893226 292.078175 
L 721.523174 292.221586 
L 721.153121 292.364997 
L 720.783068 292.53231 
L 720.437686 292.699623 
L 720.067633 292.890838 
L 719.722251 293.082053 
L 719.352198 293.273267 
L 719.006816 293.464482 
L 718.661433 293.655697 
L 718.316051 293.846911 
L 717.970668 294.062028 
L 717.649956 294.301046 
L 717.329243 294.540065 
L 717.008531 294.779083 
L 716.687819 295.018102 
L 716.391777 295.281022 
L 716.071064 295.543942 
L 715.775022 295.78296 
L 715.47898 296.045881 
L 715.158268 296.308801 
L 714.862226 296.571721 
L 710.618955 301.280383 
L 710.421593 301.615009 
L 710.174892 301.925733 
L 709.95286 302.260359 
L 709.706158 302.571083 
L 709.459456 302.881807 
L 709.212755 303.19253 
L 708.990723 303.527156 
L 708.744021 303.83788 
L 708.497319 304.148604 
L 708.275288 304.48323 
L 708.028586 304.793954 
L 707.806554 305.128579 
L 707.584523 305.463205 
L 707.362491 305.797831 
L 707.16513 306.132457 
L 706.943098 306.467082 
L 706.721067 306.801708 
L 706.523705 307.136334 
L 706.326344 307.494861 
L 706.128982 307.829487 
L 705.931621 308.164113 
L 705.734259 308.522641 
L 704.550091 311.104039 
L 704.254049 311.773291 
L 704.032017 312.107916 
L 703.834656 312.442542 
L 702.724498 314.115671 
L 702.502466 314.450297 
L 702.305105 314.784922 
L 702.107743 315.119548 
L 700.25748 318.65702 
L 699.418694 320.879891 
L 699.270673 321.238419 
L 699.147322 321.620848 
L 698.999301 321.979376 
L 698.85128 322.361805 
L 698.678588 322.720333 
L 698.505897 323.07886 
L 698.012494 324.154443 
L 697.839802 324.512971 
L 697.642441 324.871498 
L 697.46975 325.230026 
L 697.321729 325.588554 
L 697.149037 325.947081 
L 696.828325 326.664136 
L 696.655634 327.046566 
L 696.507613 327.405093 
L 696.384262 327.763621 
L 696.236241 328.14605 
L 696.08822 328.504578 
L 695.940199 328.887007 
L 695.792178 329.245535 
L 695.644156 329.627964 
L 695.471465 329.986492 
L 695.323444 330.345019 
L 695.150753 330.703547 
L 695.002732 331.062075 
L 694.830041 331.420602 
L 694.657349 331.803032 
L 694.484658 332.161559 
L 694.336637 332.520087 
L 694.163946 332.878614 
L 694.015925 333.237142 
L 693.843233 333.59567 
L 693.275819 335.077584 
L 693.029118 335.842442 
L 692.782416 336.607301 
L 692.659065 336.965829 
L 692.560384 337.348258 
L 692.437033 337.730688 
L 691.770938 339.595031 
L 691.622917 339.977461 
L 691.474896 340.335988 
L 691.326875 340.718418 
L 691.203524 341.076945 
L 691.055503 341.459375 
L 690.907482 341.817902 
L 690.759461 342.200332 
L 690.61144 342.558859 
L 690.488089 342.941289 
L 690.340068 343.299816 
L 690.192047 343.682246 
L 690.068696 344.064675 
L 689.920675 344.423203 
L 689.797324 344.805632 
L 689.673973 345.188061 
L 689.575293 345.570491 
L 689.501282 345.95292 
L 689.402601 346.33535 
L 689.328591 346.717779 
L 689.25458 347.12411 
L 689.18057 347.50654 
L 689.106559 347.888969 
L 689.007878 348.295301 
L 688.909198 348.67773 
L 688.810517 349.060159 
L 688.711836 349.442589 
L 688.613156 349.825018 
L 688.489805 350.207448 
L 688.391124 350.589877 
L 688.292443 350.972307 
L 688.193763 351.354736 
L 688.095082 351.737165 
L 688.021071 352.119595 
L 687.922391 352.502024 
L 687.84838 352.908355 
L 687.774369 353.290785 
L 687.700359 353.673214 
L 687.601678 354.055644 
L 687.527668 354.461975 
L 687.453657 354.844404 
L 687.379647 355.202932 
L 687.256296 356.302417 
L 687.428987 357.234588 
L 687.79904 357.927742 
L 688.243103 358.596993 
L 688.563815 359.266245 
L 688.440464 359.744281 
L 687.774369 360.055005 
L 687.256296 360.174515 
L 686.244818 360.389631 
L 685.13466 360.652551 
L 684.345215 360.748159 
L 683.407748 361.130588 
L 682.519621 361.752036 
L 682.174239 361.943251 
L 681.853527 362.158367 
L 681.508144 362.373484 
L 681.162762 362.564698 
L 680.817379 362.779815 
L 680.471997 362.97103 
L 680.126614 363.186146 
L 679.756561 363.377361 
L 679.411179 363.568576 
L 679.065796 363.735889 
L 678.695744 363.927103 
L 678.325691 364.094416 
L 677.955638 364.213925 
L 677.536245 364.237827 
L 677.116852 364.190023 
L 676.7468 364.046612 
L 676.376747 363.903201 
L 676.031365 363.711987 
L 675.685982 363.520772 
L 675.3406 363.305655 
L 674.995217 363.090539 
L 674.674505 362.85152 
L 674.329122 362.636404 
L 673.98374 362.469091 
L 670.899967 360.198416 
L 670.579255 359.911594 
L 670.258543 359.672576 
L 669.493767 359.481361 
L 669.099044 359.481361 
L 668.704321 359.481361 
L 668.309599 359.481361 
L 667.890206 359.481361 
L 667.495483 359.481361 
L 667.10076 359.481361 
L 666.706037 359.505263 
L 666.286644 359.505263 
L 665.891921 359.529165 
L 665.497198 359.529165 
L 665.077805 359.529165 
L 664.683082 359.553067 
L 664.28836 359.553067 
L 663.893637 359.576969 
L 663.474244 359.60087 
L 663.079521 359.648674 
L 662.709468 359.72038 
L 662.314745 359.815987 
L 661.920022 359.935496 
L 661.54997 360.078907 
L 661.155247 360.222318 
L 660.785194 360.365729 
L 660.415141 360.533042 
L 660.069759 360.724257 
L 659.724376 360.939373 
L 659.378994 361.15449 
L 659.058282 361.393508 
L 658.737569 361.608625 
L 658.416857 361.847643 
L 658.096145 362.110563 
L 657.800103 362.349582 
L 657.50406 362.636404 
L 657.208018 362.899324 
L 656.936646 363.186146 
L 656.640604 363.472968 
L 656.369232 363.75979 
L 656.09786 364.046612 
L 655.826488 364.333435 
L 655.555116 364.620257 
L 655.283744 364.93098 
L 653.976225 367.034342 
L 653.014088 368.970391 
L 651.95327 370.954244 
L 650.399049 372.675176 
L 649.313561 373.033704 
L 648.450105 372.436158 
L 648.178733 371.766906 
L 648.129393 369.854759 
L 647.685329 369.20941 
L 647.315277 368.994293 
L 646.920554 368.850882 
L 646.155778 368.755275 
L 645.736385 368.731373 
L 645.341662 368.731373 
L 644.94694 368.755275 
L 644.552217 368.779177 
L 644.132824 368.803078 
L 643.738101 368.82698 
L 643.343378 368.82698 
L 642.948655 368.850882 
L 642.529262 368.874784 
L 642.134539 368.898686 
L 641.739816 368.922588 
L 641.345093 368.946489 
L 640.9257 368.970391 
L 640.530978 368.994293 
L 640.136255 369.018195 
L 639.741532 369.042097 
L 639.322139 369.065999 
L 638.927416 369.0899 
L 634.585465 368.540158 
L 630.761587 367.607986 
L 630.342194 367.512379 
L 629.947471 367.488477 
L 629.552748 367.464575 
L 629.158025 367.464575 
L 628.738632 367.464575 
L 628.343909 367.464575 
L 627.949187 367.488477 
L 627.554464 367.536281 
L 627.159741 367.607986 
L 626.765018 367.703594 
L 626.394965 367.847005 
L 626.024913 368.014318 
L 625.67953 368.205532 
L 625.309477 368.420649 
L 624.964095 368.611864 
L 624.618712 368.82698 
L 624.298 369.042097 
L 623.952618 369.257213 
L 623.631905 369.496232 
L 623.311193 369.73525 
L 617.933094 373.511741 
L 617.612382 373.750759 
L 616.995627 374.2766 
L 616.724255 374.563422 
L 614.972673 376.738489 
L 614.725971 377.025311 
L 614.454599 377.336035 
L 614.183227 377.622857 
L 613.911855 377.933581 
L 613.665153 378.220403 
L 613.393781 378.531127 
L 613.147079 378.841851 
L 612.900378 379.152575 
L 612.678346 379.463299 
L 612.234283 380.13255 
L 612.012251 380.491078 
L 611.81489 380.825703 
L 611.642198 381.184231 
L 611.444837 381.518857 
L 611.272146 381.877384 
L 611.099455 382.235912 
L 610.926763 382.594439 
L 610.778742 382.952967 
L 610.606051 383.335396 
L 610.45803 383.693924 
L 609.816605 385.151936 
L 609.668584 385.510464 
L 609.520563 385.892893 
L 609.372542 386.251421 
L 609.224521 386.609948 
L 609.0765 386.992378 
L 608.953149 387.374807 
L 608.805128 387.733335 
L 608.706447 388.044059 
L 608.533756 388.474292 
L 608.410405 388.856721 
L 608.262384 389.239151 
L 608.139033 389.597678 
L 607.991012 389.980108 
L 607.867661 390.338635 
L 607.497609 391.390316 
L 606.782173 393.302463 
L 606.116079 395.33412 
L 605.844707 396.314095 
L 605.548664 397.700402 
L 605.326633 398.752083 
L 604.98125 400.114487 
L 604.685208 401.476892 
L 604.487847 402.289555 
L 603.969773 404.894855 
L 602.686924 415.698486 
L 602.711594 415.913603 
L 602.686924 416.439443 
L 602.612913 416.869677 
L 602.538903 417.204302 
L 602.514232 417.538928 
L 602.489562 417.754045 
L 602.415552 417.945259 
L 602.292201 418.160376 
L 601.872808 418.949137 
L 601.552095 419.474977 
L 601.034022 420.215934 
L 600.639299 420.431051 
L 600.318587 420.431051 
L 599.011067 420.478854 
L 598.591674 420.454952 
L 598.369642 420.454952 
L 598.02426 420.431051 
L 597.703548 420.407149 
L 597.432176 420.263738 
L 597.210144 420.048621 
L 596.69207 419.522781 
L 595.409221 416.606756 
L 594.866477 416.00921 
L 594.175712 415.435566 
L 592.720172 414.814118 
L 592.251438 414.551198 
L 591.807375 414.455591 
L 591.06727 414.407787 
L 590.055792 414.359983 
L 588.674262 414.5751 
L 587.218722 414.83802 
L 586.404606 415.077039 
L 585.6645 415.387763 
L 584.924395 415.794094 
L 583.666216 416.893578 
L 582.457377 418.136474 
L 581.347219 419.403271 
L 580.311072 420.81348 
L 579.200914 422.63002 
L 578.362128 424.159737 
L 577.696033 425.426535 
L 577.227299 426.741136 
L 576.783236 428.151345 
L 576.018461 430.613234 
L 575.648408 431.73662 
L 575.303025 433.218534 
L 575.006983 434.365823 
L 574.735611 435.752129 
L 574.760282 437.783786 
L 574.858962 438.978878 
L 575.229015 442.683663 
L 575.253685 443.018288 
L 575.179675 443.233405 
L 574.710941 443.448521 
L 573.872155 443.735344 
L 573.058039 443.95046 
L 572.786667 443.998264 
L 572.391944 443.974362 
L 571.158436 443.783147 
L 566.471102 442.540252 
L 566.051709 442.110019 
L 565.681656 441.536374 
L 565.459624 441.153945 
L 565.434954 440.819319 
L 565.484294 440.508595 
L 566.24907 428.724989 
L 565.953028 427.936228 
L 565.582975 427.434289 
L 565.138912 427.05186 
L 563.905403 426.239197 
L 562.277171 425.402633 
L 560.204876 424.494363 
L 557.91055 423.657799 
L 555.887595 422.916842 
L 554.407384 422.534412 
L 552.335089 421.865161 
L 550.336805 421.291517 
L 548.585222 420.741774 
L 546.118204 419.929112 
L 544.045909 419.498879 
L 542.467018 419.164253 
L 540 418.710118 
L 538.66781 418.423296 
L 537.532982 418.184278 
L 536.225463 417.993063 
L 534.843933 417.945259 
L 533.511743 417.873554 
L 532.204224 417.873554 
L 530.205939 418.040867 
L 524.285096 419.522781 
L 522.730875 420.120327 
L 520.68325 421.004695 
L 518.339583 422.056376 
L 516.736022 422.940744 
L 515.995916 423.41878 
L 514.762407 424.231443 
L 511.826656 426.52602 
L 509.063596 428.653283 
L 508.767554 428.916203 
L 508.298821 429.13132 
L 508.027449 429.155222 
L 504.993017 429.920081 
L 498.702121 431.4737 
L 493.965447 432.525381 
L 492.337215 432.979516 
L 491.325738 433.218534 
L 488.982071 433.505356 
L 486.465713 433.122927 
L 481.087614 432.214657 
L 477.88049 431.784424 
L 476.597641 431.306387 
L 476.252259 431.091271 
L 475.931546 430.780547 
L 475.413473 430.708841 
L 474.99408 430.756645 
L 473.809911 431.21078 
L 471.959648 431.999541 
L 471.170202 432.214657 
L 470.208065 432.620988 
L 468.012419 433.624866 
L 465.915454 434.604841 
L 464.139201 435.584816 
L 462.387618 436.779908 
L 460.981418 437.998902 
L 460.414004 438.715957 
L 459.84659 439.648129 
L 459.254506 440.532497 
L 458.637751 441.058338 
L 457.996327 441.34516 
L 457.354902 441.369062 
L 456.910839 441.369062 
L 456.713477 441.297356 
L 456.688807 441.130043 
L 456.861498 440.747614 
L 457.009519 440.197871 
L 457.05886 439.815442 
L 457.05886 439.480816 
L 456.910839 439.14619 
L 456.590126 438.907172 
L 456.368095 438.954976 
L 455.504638 439.098387 
L 455.035905 439.122289 
L 454.517831 439.098387 
L 454.172449 439.14619 
L 453.703715 439.122289 
L 451.63142 439.385209 
L 449.509785 439.887147 
L 447.930894 440.532497 
L 446.1053 441.703687 
L 444.329048 442.922681 
L 442.947518 443.974362 
L 442.059391 444.85873 
L 440.875223 446.006018 
L 438.482215 448.49181 
L 437.71744 449.663 
L 436.607282 451.503441 
L 435.669815 452.937552 
L 434.608997 454.443367 
L 433.054776 456.522827 
L 432.21599 457.837429 
L 428.540133 464.195318 
L 427.923379 465.318704 
L 427.355965 466.17917 
L 426.64053 467.661084 
L 426.023775 469.023489 
L 425.259 470.433698 
L 422.471269 475.739906 
L 422.002536 476.719881 
L 418.598051 483.962139 
L 413.984728 494.455046 
L 408.581959 510.421474 
L 406.978397 516.516443 
L 406.238292 519.671486 
L 406.065601 520.914382 
L 405.843569 521.703142 
L 405.498187 523.161154 
L 404.462039 528.061031 
L 404.388029 528.419559 
L 404.141327 529.638553 
L 403.869955 531.096565 
L 403.697264 532.267755 
L 403.623253 532.889203 
L 403.425892 533.24773 
L 403.327211 533.677964 
L 399.898056 551.293619 
L 399.651354 553.970625 
L 399.577344 554.233545 
L 399.330642 554.807189 
L 399.10861 555.141815 
L 398.541196 556.480318 
L 396.024838 560.92606 
L 394.569297 563.148931 
L 392.768374 565.873741 
L 392.571013 566.088857 
L 391.090802 567.881495 
L 387.859009 571.873102 
L 386.872202 573.450624 
L 386.329458 575.028145 
L 386.57616 576.988096 
L 386.403468 577.752955 
L 386.082756 577.968071 
L 385.638693 578.015875 
L 385.317981 578.015875 
L 384.923258 577.944169 
L 384.429854 577.418329 
L 382.332889 575.601789 
L 380.630647 574.765225 
L 379.323127 574.215482 
L 375.203207 573.474525 
L 373.352944 573.450624 
L 372.119435 573.856955 
L 370.959937 574.765225 
L 368.69028 576.486157 
L 367.925505 577.011998 
L 367.358091 577.011998 
L 367.037378 576.772979 
L 366.617985 576.318844 
L 366.198592 575.458378 
L 365.162445 574.215482 
L 364.126297 573.355016 
L 362.374714 572.375041 
L 359.414293 571.227753 
L 352.950706 568.646354 
L 348.411393 567.236146 
L 343.872081 566.064955 
L 336.125644 564.654747 
L 331.857704 564.296219 
L 327.713114 564.009397 
L 325.986201 563.818183 
L 322.853088 563.842084 
L 320.090028 564.224514 
L 319.695306 564.296219 
L 317.400979 564.845962 
L 314.317207 565.682526 
L 311.800848 566.782011 
L 311.554147 566.973225 
L 309.580532 567.379557 
L 304.843858 568.957078 
L 301.439373 570.128268 
L 297.393464 572.398943 
L 294.137001 574.693519 
L 293.248874 574.956439 
L 292.65679 574.884734 
L 291.571302 574.239384 
L 288.660221 573.450624 
L 287.303361 573.331114 
L 284.935024 573.570133 
L 281.801911 574.860832 
L 278.940171 576.294942 
L 273.414051 580.525568 
L 268.035952 586.070795 
L 262.460491 592.404782 
L 258.463922 597.734892 
L 254.368673 601.702597 
L 249.85403 605.909321 
L 249.730679 606.02883 
L 246.671577 608.347309 
L 243.686485 609.900928 
L 235.520656 614.513983 
L 233.423691 615.302744 
L 221.754697 619.867995 
L 219.879763 620.441639 
L 218.424223 620.632854 
L 217.437416 620.513345 
L 214.230292 619.557271 
L 212.083987 619.389958 
L 209.666309 619.198743 
L 205.66974 619.389958 
L 203.128712 619.867995 
L 202.437947 620.011406 
L 196.714466 622.234277 
L 192.249163 623.931308 
L 186.846394 626.871234 
L 184.87278 628.329246 
L 181.270934 631.603798 
L 177.570407 634.280804 
L 176.854972 634.806644 
L 174.930698 635.834423 
L 171.600224 637.340239 
L 167.356953 639.061172 
L 163.952468 640.160656 
L 163.237033 640.327969 
L 159.832549 641.164533 
L 152.752207 643.530815 
L 148.015533 645.395159 
L 134.027542 652.015968 
L 130.277675 654.167134 
L 125.886383 657.226569 
L 123.937439 658.182643 
L 121.865144 659.306029 
L 120.680975 653.47398 
L 120.508284 649.888705 
L 120.483614 647.857048 
L 120.656305 644.10446 
L 119.620158 633.32473 
L 119.447466 632.822792 
L 119.398126 631.030154 
L 119.373456 630.815037 
L 119.324115 628.424853 
L 119.077414 627.755602 
L 116.363694 620.656756 
L 114.192718 616.904167 
L 108.86396 606.793689 
L 104.102615 594.72326 
L 103.757233 592.356978 
L 103.559871 589.178034 
L 103.658552 583.776218 
L 104.127285 577.872464 
L 103.41185 572.853078 
L 101.882299 569.482918 
L 99.513962 566.280072 
L 95.369372 561.117275 
L 91.372803 557.173471 
L 81.23336 548.425398 
L 79.284416 547.80395 
L 79.999851 539.414405 
L 80.567265 532.697988 
L 86.192066 532.172148 
L 90.509347 531.024859 
L 95.566733 528.730283 
L 100.451429 525.455731 
L 104.916731 522.157277 
L 110.097469 518.452492 
L 114.710792 514.604296 
L 117.449182 511.473155 
L 120.187572 508.485425 
L 121.618442 505.210873 
L 123.049312 501.099757 
L 124.480183 496.821328 
L 124.628204 494.12042 
L 124.208811 490.272224 
L 124.184141 489.865893 
L 123.147993 486.017697 
L 121.791133 483.627513 
L 120.409603 481.189525 
L 114.192718 472.250237 
L 114.36541 448.683024 
L 114.513431 428.892302 
L 103.43652 403.771469 
L 99.020558 398.345751 
L 95.295362 394.449752 
L 89.374519 390.553752 
L 85.920694 387.231396 
L 83.601697 384.148059 
L 81.948795 382.283716 
L 79.457107 380.825703 
L 79.259745 380.7779 
L 76.743387 380.323765 
L 73.536264 381.56666 
L 68.108825 384.506587 
L 64.901702 385.008525 
L 61.694578 385.247544 
L 58.980859 384.769507 
L 54.268855 381.853482 
L 49.088117 378.100894 
L 45.116218 373.320526 
L 41.884425 370.90644 
L 38.4306 368.946489 
L 28.069125 366.986539 
L 25.256725 366.126072 
L 22.863717 365.098293 
L 19.533243 362.994932 
L 16.030078 360.389631 
L 12.452902 359.146735 
L 10.8 358.596993 
L 12.526912 357.162883 
L 13.53839 356.565337 
L 14.303165 356.421926 
L 15.561344 356.35022 
L 17.288257 356.708748 
L 22.617016 358.453582 
L 23.801184 358.477484 
L 24.713981 358.16676 
L 26.490234 356.254613 
L 29.006592 352.717141 
L 30.314111 349.920626 
L 30.560813 348.247497 
L 30.314111 346.837288 
L 29.574006 345.235865 
L 28.537858 343.682246 
L 28.192476 342.295939 
L 28.661209 340.981338 
L 31.029546 338.041412 
L 33.299203 335.412209 
L 34.680733 334.527841 
L 36.777698 333.739081 
L 37.715165 333.906394 
L 38.40593 334.480038 
L 39.047354 336.105363 
L 39.491418 337.133142 
L 40.182183 337.515571 
L 40.971628 337.133142 
L 42.402499 334.934173 
L 45.856324 325.970983 
L 47.484555 322.2901 
L 48.07664 320.377953 
L 48.07664 319.350174 
L 47.163843 318.035572 
L 45.190229 315.66929 
L 41.21833 312.323033 
L 38.553951 310.626002 
L 36.901049 308.666052 
L 35.69221 306.323671 
L 35.69221 304.268113 
L 36.728358 303.096923 
L 41.341681 301.017463 
L 47.410545 297.479991 
L 50.222945 294.9942 
L 50.963051 293.512286 
L 52.443261 289.257758 
L 53.331388 284.262274 
L 52.936665 282.326225 
L 52.615953 280.7009 
L 52.2459 279.099477 
L 52.689963 278.788753 
L 53.874132 278.549734 
L 54.712918 278.430225 
L 56.982574 278.430225 
L 58.166743 278.286814 
L 58.610806 277.808777 
L 59.12888 276.637587 
L 59.474262 273.124017 
L 58.882178 268.86949 
L 60.066347 264.877883 
L 60.658431 263.682791 
L 61.719249 263.109146 
L 63.150119 262.989637 
L 64.605659 264.041318 
L 65.321095 264.160827 
L 66.03653 263.634987 
L 67.344049 261.07749 
L 69.589035 254.83911 
L 69.589035 254.145957 
L 69.367004 253.309393 
L 68.528218 252.257712 
L 68.404867 251.636264 
L 68.404867 251.206031 
L 68.528218 250.967012 
L 69.120302 249.89143 
L 69.515025 249.365589 
L 70.057769 248.959258 
L 70.748534 248.911454 
L 71.389959 249.198276 
L 72.94418 250.823601 
L 73.906317 251.516755 
L 74.621752 251.899184 
L 75.68257 251.994791 
L 76.521356 251.755773 
L 77.11344 250.106546 
L 77.11344 247.16662 
L 76.940749 245.852019 
L 76.694047 245.230571 
L 75.361857 243.294522 
L 74.671092 241.740902 
L 74.523071 240.426301 
L 74.720433 238.872682 
L 75.041145 237.94051 
L 75.608559 237.510277 
L 76.743387 237.438571 
L 79.284416 237.486375 
L 81.924125 237.319062 
L 83.009613 237.247357 
L 84.662515 236.984436 
L 85.673992 236.554203 
L 86.463438 235.406915 
L 86.83349 233.901099 
L 87.252883 232.227971 
L 88.091669 231.678228 
L 90.756049 231.654326 
L 91.323463 231.70213 
L 91.890877 229.120731 
L 91.742856 227.256388 
L 91.175442 222.428217 
L 90.731378 219.440487 
L 88.979796 215.042548 
L 88.387712 211.911407 
L 89.103147 208.636855 
L 90.830059 206.079359 
L 91.422143 204.788659 
L 91.274122 203.091629 
L 90.534017 201.227285 
L 89.52254 198.669789 
L 88.511062 195.82547 
L 88.363041 194.415261 
L 89.349848 193.124562 
L 91.101431 191.690452 
L 93.839821 190.280243 
L 96.43019 187.985667 
L 99.020558 183.99406 
L 100.59945 179.45271 
L 102.326362 175.461103 
L 103.485861 170.60903 
L 104.053275 166.354502 
L 104.76871 162.793128 
L 104.349317 160.379043 
L 105.755517 157.654233 
L 108.789949 154.809914 
L 118.485329 150.531485 
L 120.656305 149.81443 
L 124.11013 150.364172 
L 125.41765 151.941693 
L 127.317253 154.49919 
L 129.044166 157.056687 
L 131.807226 159.877104 
L 134.989679 163.295067 
L 137.308676 165.852564 
L 140.935192 169.96368 
L 143.969624 172.807999 
L 150.3592 176.082551 
L 155.984001 178.042502 
L 160.325952 178.616146 
L 165.679381 178.879066 
L 168.861834 178.879066 
L 172.907743 179.882943 
L 177.126344 182.058011 
L 177.274365 182.153618 
L 181.468295 184.280882 
L 185.810247 185.404268 
L 192.027132 185.810599 
L 197.799953 185.523777 
L 201.549821 184.376489 
L 206.039793 181.962403 
L 209.222246 179.954649 
L 211.541243 177.970796 
L 213.539527 175.126477 
L 215.143089 172.401668 
L 216.302587 169.557349 
L 216.72198 167.430085 
L 216.573959 164.585766 
L 217.166044 162.649717 
L 217.314065 162.745325 
L 218.276202 164.251141 
L 219.312349 165.063803 
L 220.373167 165.613545 
L 221.409314 165.756956 
L 223.136227 165.207214 
L 224.394406 164.298944 
L 226.39269 161.430724 
L 227.132796 160.73757 
L 227.77422 160.402944 
L 228.958389 160.140024 
L 230.956673 160.068319 
L 233.793744 160.546355 
L 234.780551 160.594159 
L 235.742688 160.402944 
L 236.236092 159.781497 
L 236.285432 159.327362 
L 243.316433 158.442994 
L 248.965904 158.275681 
L 258.809305 157.845448 
L 261.769726 157.582527 
L 263.299277 157.439116 
L 266.901123 157.128393 
L 276.300462 157.964957 
L 280.593073 158.180073 
L 287.451382 158.538601 
L 308.717076 159.948809 
L 321.002825 160.785374 
L 331.117598 161.932662 
L 341.528414 163.773104 
L 344.661526 164.753079 
L 346.462449 165.326723 
L 349.34886 167.191067 
L 350.212316 168.601275 
L 351.223794 171.015361 
L 352.975376 172.592882 
L 355.294373 172.592882 
L 358.180784 172.019238 
L 360.499781 171.158772 
L 363.534213 169.748563 
L 365.705189 169.748563 
L 367.728143 170.87195 
L 370.04714 172.449471 
L 376.683418 175.150379 
L 382.332889 176.703999 
L 388.253732 178.831262 
L 391.140143 180.552195 
L 391.929588 180.791213 
L 394.199245 181.53217 
L 399.972067 182.96628 
L 403.869955 183.970158 
L 407.34845 185.093544 
L 407.915864 187.651041 
L 409.075362 193.769912 
L 409.519426 197.331286 
L 409.223384 202.183359 
L 410.08684 204.740856 
L 412.257815 208.851972 
L 414.996205 212.556757 
L 417.01916 215.687898 
L 417.611244 217.958573 
L 416.895809 221.089714 
L 415.884332 224.077443 
L 416.451746 227.065173 
L 417.315202 228.786106 
L 419.486178 231.773836 
L 421.805175 234.04451 
L 422.49594 234.976682 
L 423.137364 235.837148 
L 421.903855 238.633663 
L 420.645676 241.740902 
L 419.658869 247.16662 
L 418.918764 254.57619 
L 423.828129 253.381098 
L 425.703063 252.257712 
L 425.974435 250.68019 
L 425.851084 248.266104 
L 425.407021 244.991553 
L 425.407021 242.003823 
L 425.999105 239.446326 
L 427.874039 236.745418 
L 431.204513 234.331332 
L 434.510317 232.204069 
L 437.988812 228.929517 
L 452.8896 222.523824 
L 455.208596 221.543849 
L 455.455298 221.376536 
L 456.935509 220.39656 
L 457.379572 218.125886 
L 457.774295 216.739579 
L 458.5144 214.277689 
L 459.550548 210.572904 
L 461.721523 207.035432 
L 462.436959 206.031555 
L 463.744478 206.461788 
L 464.607934 207.322254 
L 465.619412 209.879751 
L 466.334847 211.720193 
L 468.505823 211.720193 
L 470.232735 209.879751 
L 472.847774 207.609076 
L 476.178248 205.601322 
L 479.903445 203.904291 
L 484.418088 202.207261 
L 490.042888 201.059973 
L 494.680882 200.940463 
L 500.182332 199.936586 
L 503.784178 198.956611 
L 506.84328 196.948856 
L 509.58167 193.985028 
L 511.308582 191.40363 
L 520.436548 184.304783 
L 532.746968 173.644563 
L 536.077442 171.230477 
L 539.555937 169.246625 
L 543.305804 167.549594 
L 546.784299 165.422331 
L 550.262794 162.434601 
L 553.445247 159.590282 
L 555.764244 156.172319 
L 558.083241 153.471411 
L 560.969652 151.344147 
L 563.337989 148.691043 
L 564.004084 147.950086 
L 572.564636 138.986897 
L 576.610545 135.568934 
L 580.237061 132.318284 
L 582.90144 129.593474 
L 580.163051 124.096051 
L 577.005268 119.913229 
L 574.217538 114.415806 
L 571.010414 110.926138 
L 569.456193 109.874457 
L 567.58126 109.77885 
L 565.903687 110.926138 
L 564.8182 113.053401 
L 563.43667 114.033377 
L 562.326512 114.607021 
L 561.167013 113.722653 
L 558.848016 109.731046 
L 557.121104 106.886727 
L 555.394191 103.468764 
L 553.8153 100.194212 
L 552.359759 96.632838 
L 551.792345 93.071464 
L 552.088387 90.657378 
L 556.57836 78.563048 
L 557.022423 76.579195 
L 559.193399 73.878287 
L 568.469386 66.63603 
L 571.528488 65.321429 
L 581.643261 60.947392 
L 584.973735 59.680595 
L 595.828614 61.401527 
L 600.022544 60.971294 
L 603.772412 60.445454 
L 606.831514 61.712251 
L 608.287054 64.843392 
L 609.421882 67.831122 
L 612.456314 72.946116 
L 615.786788 72.970017 
L 618.253806 72.539784 
L 621.288238 71.535907 
L 623.607235 70.125699 
L 625.506839 67.855024 
L 627.233751 64.867294 
L 629.133355 62.166386 
L 632.735201 61.736153 
L 650.275698 59.083049 
L 651.85459 59.513282 
L 653.162109 60.373748 
L 654.469628 61.783957 
L 657.059997 65.632153 
L 659.798387 67.066263 
L 663.844296 66.922852 
L 668.062897 66.229699 
L 671.664743 65.799466 
L 676.006694 65.679957 
L 678.621733 65.679957 
L 691.376216 59.728399 
L 695.570146 59.035245 
L 698.333206 58.605012 
L 700.923575 58.891834 
L 704.106028 59.48938 
L 707.288481 60.636669 
L 709.755499 62.190288 
L 712.641909 64.484865 
L 714.812885 66.062386 
L 717.255233 68.046239 
L 719.426209 69.910582 
L 722.608662 71.344692 
L 725.643094 72.34857 
L 727.96209 72.061748 
L 730.577129 71.201281 
L 734.203646 68.954509 
L 737.53412 66.253601 
L 738.348236 65.560447 
L 740.001137 64.126337 
L 741.75272 61.425429 
L 742.912219 57.864055 
L 744.367759 53.466117 
L 745.8233 50.621798 
L 748.018946 46.773602 
L 750.0419 44.502927 
L 752.80496 42.519075 
L 755.765382 41.634707 
L 759.317887 41.825921 
L 764.671316 42.280056 
L 768.865246 42.710289 
L 772.343742 43.140522 
L 776.24163 44.168302 
L 779.276062 44.598535 
L 781.891101 45.028768 
L 785.517617 45.028768 
L 789.711547 45.196081 
L 793.338063 45.100473 
L 794.620913 49.617921 
L 796.495846 54.469994 
L 799.061545 61.879564 
L 801.503893 68.428668 
L 804.094261 74.547539 
L 804.908377 75.933846 
L 806.240567 78.252324 
L 808.559564 81.957109 
L 810.286476 84.82533 
L 812.013389 87.956471 
L 814.159694 91.087611 
L 816.898084 93.812421 
L 819.932516 95.796274 
L 823.707053 97.517206 
L 828.320377 98.975218 
L 831.354809 99.26204 
L 835.129346 99.118629 
L 839.027234 98.138654 
L 842.801771 96.585034 
L 846.576309 95.174826 
L 851.485674 93.788519 
L 855.260212 93.645108 
L 858.886728 93.66901 
L 863.080658 94.099243 
L 866.263111 94.959709 
L 866.534483 96.967464 
L 866.509813 101.07858 
L 866.06575 105.643831 
L 865.325644 112.455855 
L 864.856911 120.008837 
L 864.412848 125.984296 
L 863.820764 129.832492 
L 864.240157 131.959756 
L 866.978546 133.537277 
L 876.081842 139.68005 
L 880.251103 142.835093 
L 883.285534 144.699436 
L 888.490942 147.543755 
L 893.104266 149.288589 
L 898.605715 150.866111 
L 904.082495 151.463657 
L 907.56099 151.89389 
L 912.470356 153.06508 
L 915.085395 153.208491 
L 917.527742 153.208491 
L 918.687241 153.638724 
L 919.131304 154.786012 
L 919.402676 156.913276 
L 919.822069 159.064441 
L 920.833546 160.761472 
L 922.979852 162.912638 
L 927.889217 167.477889 
L 934.106102 168.075435 
L 936.129057 168.099337 
L 938.719426 171.230477 
L 938.423384 174.218207 
L 937.97932 176.775704 
L 937.239215 178.185913 
L 935.364281 178.902968 
L 933.193306 179.165888 
L 932.502541 181.412661 
" clip-path="url(#p7b36e59aad)"/>
   </g>
  </g>
 </g>
 <defs>
  <clipPath id="p7b36e59aad">
   <rect x="10.8" y="41.634707" width="1058.4" height="996.730587"/>
  </clipPath>
 </defs>
</svg>
