<?xml version="1.0" encoding="utf-8" standalone="no"?>
<!DOCTYPE svg PUBLIC "-//W3C//DTD SVG 1.1//EN"
  "http://www.w3.org/Graphics/SVG/1.1/DTD/svg11.dtd">
<svg xmlns:xlink="http://www.w3.org/1999/xlink" width="1080pt" height="1080pt" viewBox="0 0 1080 1080" xmlns="http://www.w3.org/2000/svg" version="1.1">
 <metadata>
  <rdf:RDF xmlns:dc="http://purl.org/dc/elements/1.1/" xmlns:cc="http://creativecommons.org/ns#" xmlns:rdf="http://www.w3.org/1999/02/22-rdf-syntax-ns#">
   <cc:Work>
    <dc:type rdf:resource="http://purl.org/dc/dcmitype/StillImage"/>
    <dc:date>2022-07-01T13:43:18.176450</dc:date>
    <dc:format>image/svg+xml</dc:format>
    <dc:creator>
     <cc:Agent>
      <dc:title>Matplotlib v3.5.1, https://matplotlib.org/</dc:title>
     </cc:Agent>
    </dc:creator>
   </cc:Work>
  </rdf:RDF>
 </metadata>
 <defs>
  <style type="text/css">*{stroke-linejoin: round; stroke-linecap: butt}</style>
 </defs>
 <g id="figure_1">
  <g id="patch_1">
   <path d="M 0 1080 
L 1080 1080 
L 1080 0 
L 0 0 
L 0 1080 
z
" style="fill: none; opacity: 0"/>
  </g>
  <g id="axes_1">
   <g id="PatchCollection_1">
    <path d="M 883.331913 1002.973071 
L 883.014307 1002.973071 
L 882.661412 1002.938881 
L 882.379095 1002.8705 
L 882.061489 1002.733738 
L 881.779173 1002.562786 
L 881.602725 1002.391834 
L 881.390988 1002.186691 
L 881.214541 1001.947358 
L 881.108672 1001.742215 
L 881.038093 1001.502882 
L 880.967514 1001.229358 
L 880.967514 1000.921644 
L 881.002803 1000.613929 
L 881.073382 1000.340406 
L 881.179251 1000.032692 
L 881.390988 999.724977 
L 881.673305 999.451454 
L 881.920331 999.246311 
L 882.273227 999.075359 
L 882.555543 998.972787 
L 882.837859 998.938597 
L 883.120176 998.938597 
L 883.402492 998.972787 
L 883.790677 999.075359 
L 884.037704 999.17793 
L 884.249441 999.280501 
L 884.425888 999.451454 
L 884.602336 999.622406 
L 884.778784 999.827549 
L 884.919942 1000.101072 
L 885.025811 1000.442977 
L 885.09639 1000.68231 
L 885.09639 1000.990025 
L 885.09639 1001.297739 
L 885.025811 1001.537072 
L 884.919942 1001.776405 
L 884.814073 1001.981548 
L 884.672915 1002.186691 
L 884.425888 1002.426024 
L 884.143572 1002.665357 
L 883.825966 1002.83631 
L 883.614229 1002.904691 
L 883.331913 1002.973071 
" clip-path="url(#pac928df7a7)"/>
    <path d="M 875.356477 990.459362 
L 874.827134 990.561933 
L 873.874317 990.425171 
L 873.062657 990.254219 
L 869.498414 988.954981 
L 866.604672 987.518982 
L 865.298959 986.66422 
L 863.358034 985.15984 
L 862.369927 984.168316 
L 858.699815 979.655175 
L 856.617733 977.364414 
L 855.876652 976.543843 
L 854.465071 973.979558 
L 853.829859 971.415273 
L 853.406385 969.261274 
L 853.406385 966.902132 
L 853.653412 965.397752 
L 854.076886 964.54299 
L 854.959124 964.132704 
L 856.194258 963.722419 
L 857.923446 963.517276 
L 858.735105 963.688228 
L 859.440896 964.064324 
L 860.534871 965.021657 
L 862.228769 967.756894 
L 862.652244 968.714227 
L 864.134404 971.278511 
L 865.016643 972.577749 
L 866.040039 973.842796 
L 866.604672 974.321463 
L 867.204594 974.83432 
L 870.168915 977.0567 
L 873.239105 980.202223 
L 876.026978 983.72384 
L 876.591611 984.886316 
L 877.120954 985.980411 
L 876.979796 988.236982 
L 876.344584 989.502029 
L 875.956399 989.980695 
L 875.356477 990.459362 
" clip-path="url(#pac928df7a7)"/>
    <path d="M 779.68654 924.164052 
L 779.298356 924.232433 
L 778.380828 924.129862 
L 777.145694 923.924719 
L 776.863377 923.856338 
L 776.228166 923.514433 
L 775.945849 923.206719 
L 775.769402 922.830624 
L 775.734112 922.386148 
L 775.769402 921.941672 
L 776.228166 920.33472 
L 776.439903 919.616721 
L 776.828088 918.727768 
L 777.145694 918.556816 
L 777.498589 918.522626 
L 777.780905 918.591007 
L 778.063222 918.796149 
L 778.769012 919.685101 
L 779.827699 921.463006 
L 780.180594 922.351958 
L 780.321752 922.967386 
L 780.286463 923.685386 
L 780.145304 923.890528 
L 779.933567 924.095671 
L 779.68654 924.164052 
" clip-path="url(#pac928df7a7)"/>
    <path d="M 766.558832 921.292053 
L 764.829645 921.428815 
L 764.44146 921.360434 
L 763.982696 920.779196 
L 763.947407 920.266339 
L 763.947407 919.479959 
L 764.229723 918.693578 
L 764.512039 918.317483 
L 765.006093 918.043959 
L 766.100068 917.496912 
L 766.558832 917.39434 
L 766.805859 917.39434 
L 767.123465 917.565293 
L 767.335202 918.11234 
L 767.51165 919.309006 
L 767.829256 920.232149 
L 767.829256 920.779196 
L 767.652808 921.01853 
L 767.194044 921.223672 
L 766.558832 921.292053 
" clip-path="url(#pac928df7a7)"/>
    <path d="M 820.022482 849.936555 
L 819.704876 849.970746 
L 819.210823 849.765603 
L 818.928506 849.423698 
L 818.610901 848.739889 
L 818.434453 848.192841 
L 816.422949 846.449128 
L 816.281791 846.209795 
L 816.281791 845.90208 
L 816.422949 845.355033 
L 816.740555 844.705414 
L 817.12874 844.500271 
L 817.799241 844.876366 
L 819.316691 845.86789 
L 820.093061 846.551699 
L 820.763562 847.406461 
L 821.010589 847.816746 
L 821.045879 848.158651 
L 821.045879 848.80827 
L 820.94001 849.286936 
L 820.728273 849.628841 
L 820.340088 849.799793 
L 820.022482 849.936555 
" clip-path="url(#pac928df7a7)"/>
    <path d="M 761.335981 764.152681 
L 760.136137 764.426205 
L 759.183319 764.255253 
L 758.301081 763.33211 
L 758.089343 761.998682 
L 757.912896 759.126683 
L 758.689265 753.211733 
L 758.901003 752.015067 
L 759.395056 747.912211 
L 759.430346 746.852306 
L 759.571504 745.929164 
L 760.030268 744.629926 
L 760.63019 743.911927 
L 761.547718 743.43326 
L 762.429956 743.296498 
L 763.135747 743.535832 
L 763.735669 743.980308 
L 764.512039 744.766688 
L 766.347095 746.681354 
L 769.276127 750.237162 
L 770.475971 752.596304 
L 770.899446 755.331542 
L 770.511261 756.596589 
L 769.629022 758.613826 
L 768.323309 760.460111 
L 767.546939 761.075539 
L 764.582618 762.61411 
L 761.335981 764.152681 
" clip-path="url(#pac928df7a7)"/>
    <path d="M 822.633908 745.792402 
L 822.316302 745.826593 
L 821.998696 745.826593 
L 821.751669 745.758212 
L 821.539932 745.689831 
L 821.292905 745.587259 
L 821.010589 745.382117 
L 820.798852 745.176974 
L 820.622404 744.971831 
L 820.445957 744.732498 
L 820.375377 744.527355 
L 820.269509 744.253831 
L 820.234219 743.911927 
L 820.234219 743.638403 
L 820.269509 743.364879 
L 820.375377 743.091355 
L 820.481246 742.852022 
L 820.657694 742.578499 
L 820.869431 742.339165 
L 821.081168 742.168213 
L 821.257616 742.031451 
L 821.504643 741.92888 
L 821.822248 741.826308 
L 822.139854 741.792118 
L 822.386881 741.792118 
L 822.704487 741.826308 
L 823.127961 741.92888 
L 823.445567 742.099832 
L 823.763173 742.339165 
L 823.97491 742.578499 
L 824.151358 742.852022 
L 824.257227 743.125546 
L 824.327806 743.39907 
L 824.398385 743.843546 
L 824.363095 744.15126 
L 824.292516 744.424784 
L 824.221937 744.629926 
L 824.045489 744.90345 
L 823.869042 745.142783 
L 823.622015 745.382117 
L 823.304409 745.587259 
L 822.986803 745.724021 
L 822.633908 745.792402 
" clip-path="url(#pac928df7a7)"/>
    <path d="M 862.758112 730.475074 
L 862.440506 730.475074 
L 862.122901 730.475074 
L 861.875874 730.406693 
L 861.664137 730.338312 
L 861.41711 730.235741 
L 861.134794 730.030598 
L 860.923056 729.825455 
L 860.711319 729.620313 
L 860.570161 729.380979 
L 860.464292 729.175837 
L 860.393713 728.902313 
L 860.358424 728.560408 
L 860.358424 728.286885 
L 860.393713 728.013361 
L 860.499582 727.739837 
L 860.60545 727.500504 
L 860.781898 727.22698 
L 860.993635 726.987647 
L 861.205373 726.816695 
L 861.38182 726.714123 
L 861.628847 726.577361 
L 861.911163 726.47479 
L 862.264059 726.4406 
L 862.511086 726.4406 
L 862.828691 726.47479 
L 863.252166 726.577361 
L 863.569772 726.748314 
L 863.887377 726.987647 
L 864.063825 727.22698 
L 864.275562 727.500504 
L 864.381431 727.808218 
L 864.45201 728.047551 
L 864.4873 728.492027 
L 864.4873 728.833932 
L 864.416721 729.073265 
L 864.310852 729.278408 
L 864.169694 729.551932 
L 863.993246 729.791265 
L 863.746219 730.030598 
L 863.428614 730.235741 
L 863.111008 730.372503 
L 862.758112 730.475074 
" clip-path="url(#pac928df7a7)"/>
    <path d="M 866.74583 728.594599 
L 866.428224 728.628789 
L 866.075329 728.594599 
L 865.863592 728.560408 
L 865.616565 728.492027 
L 865.404828 728.355266 
L 865.122511 728.184313 
L 864.875485 727.97917 
L 864.699037 727.739837 
L 864.557879 727.500504 
L 864.45201 727.295361 
L 864.381431 727.021837 
L 864.346141 726.714123 
L 864.346141 726.406409 
L 864.381431 726.132885 
L 864.45201 725.859362 
L 864.557879 725.620028 
L 864.734326 725.380695 
L 864.981353 725.141362 
L 865.157801 724.97041 
L 865.369538 724.833648 
L 865.616565 724.731076 
L 865.898881 724.628505 
L 866.251777 724.560124 
L 866.463514 724.560124 
L 866.816409 724.594315 
L 867.204594 724.731076 
L 867.5222 724.902029 
L 867.839806 725.141362 
L 868.051543 725.346505 
L 868.227991 725.654219 
L 868.369149 725.927743 
L 868.439728 726.201266 
L 868.475017 726.611552 
L 868.439728 726.953457 
L 868.369149 727.19279 
L 868.29857 727.432123 
L 868.157412 727.705647 
L 867.945674 727.94498 
L 867.698648 728.150123 
L 867.416331 728.355266 
L 867.098725 728.492027 
L 866.74583 728.594599 
" clip-path="url(#pac928df7a7)"/>
    <path d="M 836.255669 726.850885 
L 835.938064 726.885076 
L 835.620458 726.850885 
L 835.373431 726.816695 
L 835.161694 726.748314 
L 834.914667 726.611552 
L 834.632351 726.4406 
L 834.385324 726.235457 
L 834.208876 725.996124 
L 834.067718 725.75679 
L 833.961849 725.551647 
L 833.89127 725.278124 
L 833.855981 724.97041 
L 833.855981 724.662695 
L 833.89127 724.389172 
L 833.997139 724.115648 
L 834.103008 723.876315 
L 834.279455 723.636982 
L 834.491193 723.397648 
L 834.70293 723.226696 
L 834.879377 723.089934 
L 835.126404 722.987363 
L 835.408721 722.884791 
L 835.761616 722.81641 
L 836.008643 722.81641 
L 836.326249 722.850601 
L 836.749723 722.987363 
L 837.067329 723.158315 
L 837.349645 723.397648 
L 837.561382 723.636982 
L 837.77312 723.910505 
L 837.878988 724.184029 
L 837.949567 724.457553 
L 837.984857 724.867838 
L 837.949567 725.209743 
L 837.914278 725.449076 
L 837.808409 725.688409 
L 837.667251 725.961933 
L 837.490803 726.201266 
L 837.243776 726.4406 
L 836.926171 726.611552 
L 836.608565 726.748314 
L 836.255669 726.850885 
" clip-path="url(#pac928df7a7)"/>
    <path d="M 820.94001 509.80982 
L 819.457849 510.49363 
L 817.763952 510.425249 
L 817.09345 509.741439 
L 817.058161 508.715726 
L 817.763952 507.826773 
L 818.540321 507.245536 
L 819.634297 506.630107 
L 820.093061 506.356584 
L 822.49275 506.356584 
L 823.022093 506.903631 
L 823.022093 508.066107 
L 822.245723 508.989249 
L 820.94001 509.80982 
" clip-path="url(#pac928df7a7)"/>
    <path d="M 731.62219 430.21442 
L 731.304584 430.248611 
L 730.986978 430.21442 
L 730.739952 430.18023 
L 730.528214 430.111849 
L 730.281188 429.975087 
L 729.998871 429.804135 
L 729.751844 429.598992 
L 729.575397 429.359659 
L 729.434239 429.120326 
L 729.32837 428.915183 
L 729.257791 428.641659 
L 729.222501 428.333945 
L 729.222501 428.026231 
L 729.257791 427.752707 
L 729.32837 427.479183 
L 729.434239 427.274041 
L 729.610686 427.000517 
L 729.857713 426.761184 
L 730.034161 426.590231 
L 730.245898 426.453469 
L 730.492925 426.350898 
L 730.775241 426.248327 
L 731.128136 426.179946 
L 731.339874 426.179946 
L 731.692769 426.214136 
L 732.080954 426.350898 
L 732.433849 426.52185 
L 732.716166 426.761184 
L 732.927903 426.966326 
L 733.13964 427.274041 
L 733.245509 427.547564 
L 733.316088 427.821088 
L 733.351377 428.231374 
L 733.316088 428.573278 
L 733.280798 428.812611 
L 733.17493 429.051945 
L 733.033772 429.325468 
L 732.857324 429.564802 
L 732.610297 429.804135 
L 732.292691 429.975087 
L 731.975085 430.111849 
L 731.62219 430.21442 
" clip-path="url(#pac928df7a7)"/>
    <path d="M 739.421178 417.769092 
L 739.103572 417.803282 
L 738.750677 417.803282 
L 738.538939 417.734901 
L 738.327202 417.66652 
L 738.080175 417.563949 
L 737.797859 417.358806 
L 737.550832 417.153663 
L 737.374385 416.94852 
L 737.233227 416.709187 
L 737.127358 416.504044 
L 737.056779 416.230521 
L 737.021489 415.888616 
L 737.021489 415.615092 
L 737.056779 415.341569 
L 737.127358 415.068045 
L 737.233227 414.828712 
L 737.409674 414.555188 
L 737.656701 414.315855 
L 737.833149 414.144902 
L 738.044886 414.008141 
L 738.291913 413.905569 
L 738.574229 413.802998 
L 738.927124 413.768807 
L 739.138862 413.768807 
L 739.491757 413.802998 
L 739.879942 413.905569 
L 740.232837 414.076522 
L 740.515154 414.315855 
L 740.726891 414.555188 
L 740.903338 414.828712 
L 741.044497 415.102235 
L 741.115076 415.375759 
L 741.150365 415.820235 
L 741.115076 416.16214 
L 741.079786 416.401473 
L 740.973918 416.606616 
L 740.832759 416.88014 
L 740.656312 417.119473 
L 740.409285 417.358806 
L 740.091679 417.563949 
L 739.774073 417.700711 
L 739.421178 417.769092 
" clip-path="url(#pac928df7a7)"/>
    <path d="M 738.997703 413.290141 
L 738.680098 413.324331 
L 738.327202 413.290141 
L 738.080175 413.25595 
L 737.868438 413.187569 
L 737.621411 413.084998 
L 737.339095 412.879855 
L 737.127358 412.674712 
L 736.95091 412.46957 
L 736.774463 412.230236 
L 736.703883 411.990903 
L 736.598015 411.75157 
L 736.562725 411.409665 
L 736.562725 411.136142 
L 736.598015 410.828427 
L 736.703883 410.589094 
L 736.809752 410.349761 
L 736.9862 410.076237 
L 737.197937 409.836904 
L 737.409674 409.665952 
L 737.586122 409.52919 
L 737.833149 409.426618 
L 738.150754 409.324047 
L 738.46836 409.289857 
L 738.715387 409.255666 
L 739.068282 409.324047 
L 739.456467 409.426618 
L 739.774073 409.597571 
L 740.091679 409.836904 
L 740.303416 410.076237 
L 740.479864 410.349761 
L 740.621022 410.623285 
L 740.691601 410.896808 
L 740.726891 411.341284 
L 740.691601 411.648999 
L 740.621022 411.922522 
L 740.550443 412.127665 
L 740.409285 412.401189 
L 740.197548 412.640522 
L 739.950521 412.879855 
L 739.668205 413.084998 
L 739.350599 413.22176 
L 738.997703 413.290141 
" clip-path="url(#pac928df7a7)"/>
    <path d="M 624.447864 117.918723 
L 623.283309 119.047009 
L 621.201226 119.594056 
L 618.801538 119.354723 
L 615.801927 118.568342 
L 615.060847 118.739294 
L 614.84911 118.773485 
L 613.719844 120.106913 
L 611.037839 124.825197 
L 610.543786 128.073291 
L 611.77892 135.868717 
L 613.825713 142.262334 
L 619.436749 158.776328 
L 622.753966 167.016229 
L 625.612419 172.555085 
L 638.104915 199.223646 
L 638.210784 199.428789 
L 641.457421 203.87355 
L 654.54984 225.823827 
L 659.208059 233.892777 
L 661.36072 237.858871 
L 661.36072 240.76506 
L 660.65493 243.568678 
L 657.055397 246.816772 
L 654.938024 251.432485 
L 654.126365 255.911436 
L 655.467368 263.570099 
L 658.855163 272.254477 
L 661.325431 277.041142 
L 663.160487 280.596951 
L 663.478093 281.212379 
L 663.936857 283.571521 
L 663.583961 286.067425 
L 661.254852 288.63171 
L 659.984428 291.879804 
L 659.243348 297.281897 
L 659.208059 302.581419 
L 659.737402 303.983228 
L 672.618083 326.001887 
L 684.934132 342.823595 
L 688.568954 348.567593 
L 697.955971 361.423207 
L 705.296195 371.23587 
L 712.107076 380.125391 
L 712.954025 381.151105 
L 714.224448 382.792247 
L 714.85966 383.305104 
L 715.459582 383.407675 
L 715.918346 383.407675 
L 716.765295 383.168342 
L 717.365217 383.099961 
L 717.965139 383.476056 
L 718.212166 383.852151 
L 718.247455 384.50177 
L 717.753402 385.356532 
L 716.800584 386.72415 
L 716.518268 386.929293 
L 715.988925 386.997674 
L 715.106686 386.826722 
L 714.259737 386.963484 
L 713.553947 387.168626 
L 713.059893 387.40796 
L 712.601129 387.818245 
L 712.036497 388.536245 
L 711.648312 389.561959 
L 711.648312 391.476625 
L 712.001207 394.348624 
L 712.389392 395.613671 
L 713.130472 397.152242 
L 714.577343 399.887479 
L 715.283134 401.118336 
L 716.37711 402.827859 
L 718.353324 405.83662 
L 719.094404 406.930715 
L 720.258959 408.708619 
L 720.576565 409.153095 
L 721.070618 409.700142 
L 721.882278 410.452332 
L 723.858492 411.819951 
L 724.352545 412.127665 
L 724.74073 412.537951 
L 724.987757 412.982427 
L 725.058336 413.358522 
L 725.128915 413.97395 
L 725.234784 414.828712 
L 725.340652 415.820235 
L 725.55239 416.91433 
L 725.622969 417.290425 
L 725.869995 418.076806 
L 727.281577 422.384804 
L 727.669762 423.786613 
L 727.987368 424.29947 
L 728.446132 424.846518 
L 728.728448 425.120041 
L 728.869606 425.393565 
L 728.940185 425.73547 
L 728.975475 426.077374 
L 728.940185 426.692803 
L 728.940185 427.684326 
L 728.904896 428.094612 
L 728.799027 428.333945 
L 728.552 428.778421 
L 727.77563 429.735754 
L 725.270073 432.915467 
L 724.952467 433.12061 
L 724.564282 433.291562 
L 724.352545 433.291562 
L 723.99965 433.257372 
L 723.787913 433.1548 
L 723.470307 432.949658 
L 723.082122 432.641943 
L 722.658647 432.231658 
L 722.129304 431.65042 
L 721.952857 431.411087 
L 721.388224 430.864039 
L 721.141197 430.658896 
L 720.92946 430.556325 
L 720.647144 430.487944 
L 720.364827 430.487944 
L 719.976643 430.556325 
L 719.729616 430.624706 
L 719.447299 430.727277 
L 718.67093 431.069182 
L 718.000428 431.411087 
L 717.224059 432.129086 
L 715.353713 434.864324 
L 714.753791 436.231942 
L 714.436185 437.394418 
L 714.224448 439.480036 
L 714.048 441.668226 
L 714.118579 443.958987 
L 714.330317 445.600129 
L 715.247844 450.147461 
L 715.60074 451.651841 
L 716.130083 453.292984 
L 716.730005 454.968316 
L 717.365217 456.985554 
L 718.071008 459.139553 
L 719.270852 461.738028 
L 721.000039 465.53317 
L 723.117411 470.183073 
L 724.423124 472.815738 
L 726.152312 476.268975 
L 729.187212 481.465926 
L 731.833927 485.602972 
L 737.974307 496.099444 
L 739.385888 498.492777 
L 740.938628 500.886109 
L 743.303027 504.476108 
L 745.596847 507.792583 
L 747.290745 509.980773 
L 748.984643 512.032201 
L 749.796302 512.681819 
L 750.466803 512.886962 
L 751.137304 512.886962 
L 751.701937 512.784391 
L 752.337149 512.510867 
L 753.431124 511.895439 
L 754.101626 511.621915 
L 754.666258 511.587725 
L 755.26618 511.929629 
L 755.513207 512.374105 
L 755.407338 513.365629 
L 755.054443 514.322962 
L 753.325256 518.083913 
L 752.937071 519.109627 
L 752.090122 520.443055 
L 751.313752 521.434578 
L 750.819699 522.015816 
L 750.325645 522.494482 
L 749.584565 522.938959 
L 748.525879 523.246673 
L 747.67893 523.451815 
L 745.949742 523.417625 
L 744.961635 523.144101 
L 743.161869 522.28934 
L 742.31492 521.947435 
L 741.044497 521.366197 
L 740.232837 520.955912 
L 739.632915 520.750769 
L 739.032993 520.579817 
L 738.115465 520.511436 
L 736.245119 520.614007 
L 735.398171 520.614007 
L 734.798248 520.545626 
L 734.198326 520.340483 
L 733.633694 519.930198 
L 733.245509 519.417341 
L 732.822034 518.63096 
L 729.716555 512.237343 
L 727.105129 506.664298 
L 725.340652 503.279442 
L 724.070229 501.296395 
L 718.494482 493.022303 
L 716.730005 490.321256 
L 713.130472 485.021734 
L 711.365995 482.628402 
L 709.742677 480.782117 
L 709.178044 480.235069 
L 708.295806 479.824784 
L 707.378278 479.824784 
L 706.672487 479.995736 
L 705.437353 480.611164 
L 697.320759 483.619925 
L 696.262073 484.098592 
L 696.015046 484.782401 
L 696.932574 487.927924 
L 698.308866 491.176018 
L 698.485314 492.133351 
L 698.379445 492.680398 
L 698.06184 493.227445 
L 697.038443 493.364207 
L 696.332652 493.466779 
L 695.873888 493.671921 
L 695.626861 494.048017 
L 695.803309 495.107921 
L 696.262073 495.894302 
L 697.638365 497.808968 
L 698.591183 498.69792 
L 699.614579 499.005634 
L 700.35566 499.176586 
L 700.814424 499.621062 
L 701.026161 500.510014 
L 701.167319 503.997442 
L 701.167319 507.55325 
L 701.449635 509.673059 
L 702.014268 513.399819 
L 702.861217 516.784675 
L 703.708166 519.314769 
L 703.919903 519.827626 
L 705.472643 522.562863 
L 706.249012 523.622768 
L 706.707776 524.033053 
L 707.94291 524.54591 
L 710.060282 524.990386 
L 714.965528 525.879338 
L 718.988535 526.323814 
L 720.894171 526.255434 
L 722.44691 526.084481 
L 723.646754 525.742577 
L 724.493703 525.22972 
L 725.375942 524.682672 
L 726.611076 523.79372 
L 727.740341 523.315054 
L 728.304973 523.178292 
L 729.010764 523.007339 
L 730.140029 523.04153 
L 731.163426 523.212482 
L 733.280798 523.75953 
L 734.057168 523.896292 
L 734.868827 523.930482 
L 735.715776 523.827911 
L 736.421567 523.486006 
L 737.056779 522.938959 
L 737.656701 522.391911 
L 738.044886 522.32353 
L 738.397781 522.32353 
L 738.680098 522.391911 
L 739.032993 522.562863 
L 739.315309 522.870578 
L 739.350599 523.315054 
L 739.209441 523.691149 
L 738.574229 524.374958 
L 737.268516 525.605815 
L 736.668594 526.289624 
L 735.998093 527.417909 
L 735.645197 528.375242 
L 735.292302 530.084765 
L 735.221723 532.307146 
L 735.186433 534.016669 
L 735.398171 535.999716 
L 735.609908 537.333144 
L 736.350988 540.854762 
L 737.092068 543.213904 
L 737.76257 545.060189 
L 740.162258 551.932472 
L 741.750287 556.445613 
L 743.514764 560.924564 
L 745.420399 565.471896 
L 748.631747 571.831322 
L 751.807806 577.814653 
L 756.218998 585.541698 
L 759.183319 590.738648 
L 764.123854 598.875979 
L 767.864545 605.235405 
L 770.440682 609.611784 
L 773.369713 614.46683 
L 773.934346 615.219021 
L 774.569557 615.595116 
L 775.16948 615.663497 
L 775.945849 615.526735 
L 776.898667 615.595116 
L 777.498589 616.005401 
L 777.886774 616.723401 
L 778.345538 618.432924 
L 778.839592 620.655304 
L 778.698433 621.646828 
L 778.486696 622.330637 
L 777.498589 624.416255 
L 776.051718 626.057398 
L 774.816584 627.048921 
L 773.61674 627.459207 
L 772.910949 627.664349 
L 772.522764 627.903683 
L 772.311027 628.313968 
L 772.487475 629.579015 
L 773.157976 631.869776 
L 773.687319 633.5793 
L 774.181373 635.357204 
L 774.39311 636.143584 
L 774.569557 636.759013 
L 774.957742 637.784727 
L 775.945849 639.357488 
L 776.616351 639.938726 
L 777.216273 640.314821 
L 778.592565 641.067011 
L 779.72183 641.71663 
L 780.321752 642.46882 
L 781.309859 644.6912 
L 781.803913 646.263962 
L 781.803913 647.494818 
L 781.027543 648.828247 
L 780.215883 649.888151 
L 779.72183 650.298436 
L 779.263066 650.435198 
L 778.663144 650.401008 
L 777.286852 649.81977 
L 776.581061 649.477865 
L 775.769402 649.170151 
L 775.310638 649.170151 
L 774.781295 649.272723 
L 774.604847 649.477865 
L 774.428399 649.751389 
L 774.110793 650.777103 
L 773.934346 652.00796 
L 773.969635 653.307197 
L 774.322531 655.153482 
L 775.063611 657.478434 
L 776.616351 661.136814 
L 777.957353 664.795193 
L 778.20438 665.513193 
L 778.451407 666.162812 
L 778.98075 666.538907 
L 780.039436 667.085954 
L 780.992253 667.291097 
L 781.733334 667.188526 
L 782.580283 666.915002 
L 783.109626 666.983383 
L 783.56839 667.49624 
L 783.850706 668.658716 
L 783.850706 669.205763 
L 783.427231 669.75281 
L 781.486307 670.846905 
L 779.439514 671.872619 
L 778.592565 672.214524 
L 777.075115 672.248714 
L 776.122297 672.248714 
L 775.098901 672.453857 
L 774.040214 672.829952 
L 772.381606 673.684714 
L 770.123076 675.325856 
L 768.923231 676.31738 
L 768.535046 677.001189 
L 768.25273 678.232045 
L 768.217441 680.967283 
L 768.323309 683.873472 
L 768.535046 685.17271 
L 769.240837 687.771185 
L 770.264234 690.574803 
L 771.640526 694.233183 
L 772.628633 696.28461 
L 775.275348 701.481561 
L 777.604458 706.234035 
L 779.72183 710.610415 
L 782.086229 714.302985 
L 783.5331 716.627936 
L 786.991475 721.482982 
L 790.167533 725.449076 
L 792.567222 728.355266 
L 794.19054 730.304122 
L 796.166755 732.150407 
L 798.989918 734.748882 
L 800.930842 736.458405 
L 802.271845 737.210596 
L 803.930453 738.133738 
L 804.812691 738.407262 
L 806.612458 738.441452 
L 808.129908 738.304691 
L 809.647358 737.996976 
L 810.635465 737.894405 
L 812.294073 737.928595 
L 814.340866 738.167929 
L 815.717158 738.509833 
L 816.811134 739.159452 
L 817.269898 739.809071 
L 817.799241 740.663833 
L 818.187426 742.886213 
L 818.258005 743.638403 
L 818.046268 744.288022 
L 817.728662 744.595736 
L 816.105343 745.553069 
L 815.364263 745.963354 
L 814.552604 746.954878 
L 814.129129 748.390877 
L 813.635076 751.126114 
L 813.493918 753.792971 
L 813.740944 760.186587 
L 813.917392 765.828014 
L 813.952682 769.349632 
L 814.164419 770.614679 
L 815.081947 775.264582 
L 815.999475 779.777723 
L 817.16403 784.290864 
L 818.187426 786.957721 
L 818.963796 788.530482 
L 819.175533 790.513529 
L 818.822638 792.291433 
L 816.775845 794.411242 
L 813.917392 796.49686 
L 811.835309 798.377336 
L 810.459017 800.599716 
L 808.72983 804.702571 
L 807.741723 806.753999 
L 807.106511 809.147332 
L 806.859484 811.335521 
L 807.000643 813.660473 
L 808.024039 817.1479 
L 810.317859 823.131231 
L 812.258784 827.644373 
L 813.035154 830.003515 
L 813.564497 832.533609 
L 813.811523 834.79018 
L 814.09384 837.457036 
L 814.023261 840.021321 
L 813.670365 841.901796 
L 812.470521 844.500271 
L 811.164808 846.893604 
L 810.494307 848.227032 
L 810.070832 850.107507 
L 810.106122 851.987983 
L 810.423728 853.731697 
L 810.529596 855.236077 
L 810.211991 856.15922 
L 809.5062 856.672076 
L 808.835699 856.774648 
L 808.129908 856.501124 
L 807.494696 855.612172 
L 804.495085 850.688745 
L 803.965742 849.902365 
L 803.577557 849.59465 
L 802.660029 849.252746 
L 801.389606 849.184365 
L 799.695708 849.252746 
L 798.460575 849.389508 
L 797.048993 849.902365 
L 795.072779 850.996459 
L 793.378881 852.124745 
L 792.426064 852.876935 
L 791.473246 853.389792 
L 789.744059 853.594935 
L 785.897499 853.731697 
L 784.097733 853.458173 
L 780.074725 852.603411 
L 778.274959 852.056364 
L 777.039825 851.269983 
L 776.334034 850.551983 
L 775.91056 850.004936 
L 775.91056 849.355317 
L 776.228166 848.945032 
L 777.075115 848.466365 
L 778.592565 847.953508 
L 779.827699 847.406461 
L 781.521596 846.243985 
L 783.5331 844.43189 
L 784.485918 843.235224 
L 785.156419 842.312082 
L 785.191708 841.594082 
L 785.226998 840.910273 
L 784.768234 840.123892 
L 783.215494 839.200749 
L 781.309859 838.072464 
L 779.862988 837.115131 
L 779.157197 836.431322 
L 778.698433 835.713322 
L 778.416117 834.653418 
L 778.557275 832.63618 
L 778.839592 830.858276 
L 778.98075 829.832562 
L 779.192487 828.806848 
L 779.510093 828.430753 
L 780.039436 828.15723 
L 780.639358 828.396563 
L 781.309859 828.977801 
L 781.839202 829.764181 
L 782.580283 830.687324 
L 783.286073 830.960848 
L 783.885995 830.926657 
L 784.415338 830.550562 
L 784.697655 829.935134 
L 784.662365 827.678563 
L 784.521207 824.909136 
L 784.344759 822.960279 
L 784.415338 822.447422 
L 785.015261 821.968756 
L 785.438735 821.934565 
L 786.991475 822.105518 
L 790.026375 822.584184 
L 794.896331 823.165422 
L 797.507757 823.541517 
L 798.531154 823.609898 
L 799.730998 823.199612 
L 801.495475 821.934565 
L 802.236555 821.182375 
L 802.413003 820.327613 
L 802.307134 818.857423 
L 801.671922 815.199044 
L 801.354317 812.942473 
L 801.248448 810.583331 
L 801.389606 809.386665 
L 802.024818 808.224189 
L 803.754005 806.514666 
L 804.671533 805.625714 
L 805.165587 804.326476 
L 805.059718 802.548572 
L 804.671533 800.633906 
L 804.248059 799.642383 
L 802.765898 798.958573 
L 801.777791 798.924383 
L 800.436789 799.266288 
L 799.378102 800.18943 
L 798.672312 801.933144 
L 797.684205 804.360667 
L 795.213937 809.386665 
L 793.625908 812.600569 
L 792.531932 814.241711 
L 791.614404 814.822949 
L 790.485139 814.857139 
L 789.532321 814.583615 
L 788.508925 813.797235 
L 787.838424 812.839902 
L 786.532711 809.933712 
L 784.238891 805.454762 
L 783.5331 802.651144 
L 783.391942 800.360382 
L 783.286073 795.129242 
L 782.933178 792.257243 
L 782.086229 785.316578 
L 781.168701 778.512676 
L 779.827699 770.443727 
L 778.663144 763.810777 
L 777.216273 755.434113 
L 775.839981 749.895258 
L 773.863767 743.330689 
L 773.087397 738.783357 
L 772.981528 738.2705 
L 772.311027 735.432692 
L 771.428789 731.432407 
L 770.758287 729.107456 
L 769.452574 725.996124 
L 768.605626 724.731076 
L 767.51165 724.013077 
L 766.417674 723.705362 
L 764.547329 723.431839 
L 764.088565 723.50022 
L 763.735669 723.602791 
L 762.041772 719.739269 
L 760.66548 717.004032 
L 759.500925 715.226127 
L 758.724555 713.96108 
L 758.054054 712.388319 
L 756.466025 708.524796 
L 754.983864 706.097274 
L 754.136915 705.208321 
L 753.042939 704.285179 
L 752.019543 703.977465 
L 751.349042 704.080036 
L 751.066725 704.250988 
L 751.066725 704.490322 
L 751.066725 704.900607 
L 752.054832 706.473369 
L 753.00765 707.909368 
L 754.207494 710.952319 
L 755.054443 713.653366 
L 754.948574 714.508128 
L 754.56039 715.123556 
L 754.101626 715.704794 
L 753.148808 716.046699 
L 752.478307 716.969841 
L 751.807806 718.542602 
L 752.090122 719.260602 
L 752.584175 719.534126 
L 753.536993 720.183745 
L 753.78402 720.320507 
L 755.089733 721.243649 
L 755.477918 722.337744 
L 755.230891 723.466029 
L 753.325256 724.662695 
L 751.349042 725.825171 
L 751.031436 726.406409 
L 751.102015 726.953457 
L 752.054832 727.603075 
L 753.042939 727.568885 
L 755.513207 726.919266 
L 756.713051 726.679933 
L 757.807027 726.885076 
L 758.548107 727.842409 
L 758.583397 729.004884 
L 758.442239 730.543455 
L 757.489421 732.868407 
L 756.360156 734.270216 
L 754.666258 736.287453 
L 754.066336 737.689262 
L 753.572282 739.467166 
L 753.78402 741.005737 
L 754.419231 743.125546 
L 755.019154 744.971831 
L 755.548497 748.014782 
L 755.795523 750.271353 
L 755.689655 754.408399 
L 755.477918 757.998398 
L 755.619076 761.998682 
L 755.513207 764.939062 
L 755.442628 768.768394 
L 751.172594 769.657346 
L 750.396224 775.743248 
L 749.584565 778.888771 
L 749.055222 781.76077 
L 749.231669 784.427626 
L 750.078618 785.863626 
L 751.4902 787.64153 
L 752.760623 790.513529 
L 753.607572 792.599147 
L 753.431124 795.813051 
L 753.607572 801.044192 
L 753.889888 804.6 
L 753.995757 807.677142 
L 754.066336 808.771237 
L 756.395446 813.045045 
L 755.936682 818.5839 
L 754.807416 820.566947 
L 753.148808 822.27647 
L 751.948964 823.06285 
L 751.45491 823.404755 
L 749.93746 825.900659 
L 749.619854 827.47342 
L 749.443407 828.19142 
L 765.18254 831.952371 
L 765.253119 835.918465 
L 766.205937 837.149322 
L 771.711105 838.106655 
L 774.181373 838.619512 
L 775.451796 839.23494 
L 776.369324 840.670939 
L 776.369324 841.696653 
L 776.263455 841.970177 
L 775.628244 842.277891 
L 771.675815 841.662463 
L 766.699991 841.935987 
L 763.559222 842.619796 
L 760.63019 843.508748 
L 757.736448 845.1157 
L 752.831202 848.568937 
L 750.71383 850.791317 
L 748.772905 853.355601 
L 746.90256 856.603696 
L 745.314531 860.364647 
L 744.679319 863.817883 
L 745.279241 866.655692 
L 746.196769 868.912263 
L 747.64364 871.271405 
L 748.208273 874.485308 
L 747.64364 877.938545 
L 746.796691 882.793591 
L 746.443796 887.785399 
L 746.973139 889.905207 
L 748.4553 893.01654 
L 749.16109 894.349968 
L 750.396224 897.221967 
L 751.807806 902.795012 
L 753.536993 908.915105 
L 754.630969 912.436723 
L 755.936682 915.103579 
L 758.301081 919.069673 
L 760.277295 922.249386 
L 761.088954 924.676909 
L 761.194823 927.412146 
L 760.63019 929.258431 
L 760.065557 930.181574 
L 758.653976 928.130146 
L 756.995368 925.907766 
L 752.619465 924.02729 
L 737.339095 920.881768 
L 735.715776 916.984055 
L 734.268905 913.325675 
L 732.610297 910.658819 
L 729.893003 910.043391 
L 726.752234 910.0092 
L 722.411621 912.436723 
L 719.588458 914.45396 
L 717.400506 915.582246 
L 713.095183 916.813102 
L 710.448467 917.599483 
L 704.413956 919.309006 
L 697.638365 921.326244 
L 692.944857 924.540147 
L 691.462696 927.959194 
L 690.827484 932.062049 
L 689.980535 935.925572 
L 689.521771 939.378809 
L 689.027718 948.473472 
L 689.027718 952.439566 
L 689.451192 955.106422 
L 688.992428 959.175087 
L 688.780691 961.807753 
L 686.875056 964.269466 
L 684.157762 965.671275 
L 681.440467 966.04737 
L 678.087961 965.431942 
L 675.15893 962.970229 
L 669.336156 959.277659 
L 665.383728 955.790231 
L 661.819484 954.93547 
L 659.243348 959.072516 
L 661.995932 967.654322 
L 665.277859 974.731748 
L 664.007436 975.962605 
L 661.254852 977.979842 
L 656.984818 983.108412 
L 655.890842 987.895077 
L 656.949528 1006.939165 
L 655.043893 1007.725546 
L 652.538336 1006.494689 
L 649.009382 1004.648404 
L 646.503825 1005.229642 
L 642.692555 1008.067451 
L 639.763523 1011.930973 
L 638.704837 1014.802972 
L 634.575961 1018.632304 
L 631.964535 1021.059827 
L 625.47126 1022.73516 
L 625.047786 1023.077064 
L 619.189723 1023.042874 
L 610.826102 1022.974493 
L 602.60364 1024.99173 
L 595.969207 1029.470681 
L 593.42836 1032.513632 
L 590.075854 1036.377155 
L 587.535007 1041.266391 
L 581.641655 1048.54896 
L 578.042122 1053.643339 
L 574.266141 1058.12229 
L 569.643212 1060.34467 
L 562.550015 1062.327717 
L 544.940535 1069.2 
L 539.294209 1068.960667 
L 531.354063 1068.721334 
L 523.837392 1068.276857 
L 517.979328 1068.037524 
L 514.83856 1068.037524 
L 512.54474 1066.601525 
L 509.192234 1064.139811 
L 498.570083 1057.164957 
L 492.747309 1053.848482 
L 488.759591 1051.591911 
L 473.726248 1047.454865 
L 468.503397 1046.839437 
L 461.445489 1048.241246 
L 457.034297 1049.232769 
L 452.587815 1050.01915 
L 447.364963 1051.010673 
L 441.718637 1052.002197 
L 437.130997 1052.207339 
L 434.837177 1045.676961 
L 430.284827 1037.676392 
L 417.792331 1021.948779 
L 418.392253 1020.307637 
L 418.709859 1017.948495 
L 418.921596 1014.495258 
L 418.321674 1011.110402 
L 417.08654 1006.52888 
L 415.639669 1003.246595 
L 414.157508 1001.024215 
L 407.628944 989.672981 
L 402.794277 972.406797 
L 399.865246 966.491846 
L 396.865635 960.952991 
L 395.312895 956.063755 
L 393.760156 952.986613 
L 392.419153 947.789663 
L 390.866413 941.156713 
L 390.584097 937.29319 
L 390.689966 933.190335 
L 390.301781 928.40367 
L 389.984175 925.258147 
L 389.59599 921.77072 
L 388.890199 918.625197 
L 387.655066 905.974725 
L 390.090044 905.359297 
L 393.019075 905.359297 
L 395.73637 904.060059 
L 398.347795 902.62406 
L 399.618219 901.735108 
L 400.888642 900.709394 
L 401.523854 899.68368 
L 401.947328 898.555395 
L 401.947328 896.845872 
L 401.417985 894.589301 
L 400.712194 891.648921 
L 399.053586 889.084636 
L 397.25382 887.13578 
L 396.44216 885.392066 
L 396.653898 884.366352 
L 398.453664 882.964543 
L 402.123776 877.459879 
L 402.864856 874.109213 
L 403.394199 871.544928 
L 403.923542 869.42512 
L 403.041304 857.355886 
L 401.523854 848.910841 
L 397.500847 826.857992 
L 397.747873 824.601421 
L 397.112662 822.379041 
L 395.030579 819.814756 
L 392.207416 816.429901 
L 389.701859 814.070758 
L 386.878696 812.327045 
L 385.00835 811.814188 
L 383.561479 811.916759 
L 377.068204 811.677426 
L 374.950832 810.241427 
L 372.868749 808.600284 
L 370.680798 805.318 
L 369.02219 802.787905 
L 368.316399 799.915906 
L 367.963503 798.582478 
L 367.787056 797.96705 
L 367.681187 796.428479 
L 367.857635 796.291717 
L 368.492847 795.813051 
L 369.375085 794.548004 
L 368.951611 792.257243 
L 367.504739 787.709911 
L 366.940107 783.162579 
L 366.375474 777.897248 
L 366.410764 772.221631 
L 365.422657 769.657346 
L 362.528915 766.819537 
L 357.306063 764.221062 
L 355.188691 762.956015 
L 354.906374 762.785063 
L 351.589158 760.494302 
L 348.977732 757.930017 
L 346.578044 754.955446 
L 345.025304 752.083447 
L 344.213645 749.758496 
L 343.684301 747.912211 
L 343.084379 746.168497 
L 341.813956 743.228117 
L 341.108165 740.868975 
L 340.578822 738.817547 
L 337.790949 730.440884 
L 329.215591 725.209743 
L 325.757216 721.927458 
L 323.781002 719.294793 
L 323.075211 716.935651 
L 323.075211 711.465176 
L 323.145791 697.652229 
L 323.251659 695.293087 
L 323.463396 693.27585 
L 324.098608 688.694327 
L 324.345635 686.232614 
L 324.663241 685.617186 
L 331.191805 671.154619 
L 332.885703 668.521954 
L 333.626783 666.470526 
L 333.83852 664.145574 
L 333.026861 662.196718 
L 330.83891 658.606719 
L 329.356749 655.256054 
L 329.603776 653.204626 
L 332.850413 650.059103 
L 335.355971 647.905104 
L 337.896817 645.37501 
L 339.802452 643.15263 
L 340.01419 642.229487 
L 339.802452 641.101202 
L 339.061372 640.178059 
L 331.685859 624.450446 
L 330.344856 620.963018 
L 330.133119 619.321876 
L 330.980068 617.920067 
L 333.062151 616.176354 
L 333.803231 614.364259 
L 333.944389 611.902546 
L 334.156126 609.338261 
L 334.261995 605.987595 
L 333.767941 603.525882 
L 332.603387 600.688073 
L 331.474121 599.046931 
L 328.439221 595.867218 
L 325.51019 594.944075 
L 325.192584 594.841504 
L 321.204866 593.09779 
L 317.464175 591.354077 
L 314.429275 589.200078 
L 311.817849 587.353792 
L 309.700477 584.686936 
L 307.300788 582.122652 
L 305.218705 579.660938 
L 302.924885 576.925701 
L 301.160408 574.361416 
L 299.995854 571.489417 
L 298.972457 568.03618 
L 297.949061 563.215325 
L 297.525586 560.172374 
L 296.713927 556.172089 
L 295.761109 553.23171 
L 294.420107 550.462282 
L 292.973236 548.10314 
L 290.679416 545.743998 
L 288.456175 544.307998 
L 286.268224 543.179713 
L 284.927221 541.948856 
L 282.809849 539.521334 
L 277.586997 533.161907 
L 270.246773 519.417341 
L 268.341138 515.793152 
L 263.64763 504.544489 
L 262.483075 502.937537 
L 254.366481 490.047732 
L 253.096058 488.40659 
L 252.707873 487.175733 
L 253.519533 485.842305 
L 260.57744 478.012689 
L 261.636126 477.021166 
L 262.271338 475.995452 
L 261.741995 474.969738 
L 258.848253 472.508024 
L 259.624623 471.687453 
L 262.518365 468.302597 
L 264.459289 465.943455 
L 265.659134 464.439075 
L 266.153187 463.139837 
L 266.223766 461.8406 
L 265.270949 457.156506 
L 263.929946 454.421269 
L 262.90655 451.856984 
L 262.236048 449.292699 
L 262.236048 447.070319 
L 262.483075 443.41194 
L 262.624233 439.616798 
L 262.271338 437.086704 
L 261.35381 435.650704 
L 261.036204 435.274609 
L 260.259834 434.419848 
L 258.036593 432.094896 
L 255.919221 429.940897 
L 255.672194 429.735754 
L 253.307795 427.821088 
L 253.060769 427.650136 
L 254.295902 418.623853 
L 253.943007 415.068045 
L 252.037372 411.819951 
L 250.484632 410.452332 
L 247.132126 408.537666 
L 244.697148 405.323763 
L 243.673751 403.101383 
L 242.967961 400.70805 
L 242.967961 397.630908 
L 243.144408 394.382814 
L 245.120623 388.433674 
L 246.179309 386.040341 
L 246.179309 383.407675 
L 244.944175 379.920248 
L 243.744331 376.672154 
L 242.368039 372.056441 
L 241.4858 369.526347 
L 235.38071 358.072542 
L 234.710209 354.140638 
L 233.651523 350.755782 
L 231.392992 344.430547 
L 228.958014 337.934358 
L 226.170141 330.617599 
L 223.452846 324.463316 
L 223.17053 324.121411 
L 221.264895 322.069983 
L 218.759338 320.668174 
L 217.277177 319.300556 
L 216.359649 316.325985 
L 216.677255 314.513891 
L 218.229995 311.607701 
L 222.147133 306.068846 
L 223.311688 303.265228 
L 223.241109 302.273705 
L 221.547211 300.598372 
L 219.147523 298.307611 
L 216.571386 294.58085 
L 215.971464 291.845613 
L 216.430228 289.041995 
L 215.830306 284.699806 
L 213.818803 278.682285 
L 212.371931 275.36581 
L 210.395717 270.613335 
L 209.372321 264.288099 
L 208.984136 260.014291 
L 207.784292 258.270578 
L 205.314024 256.800388 
L 203.831863 255.53534 
L 202.667309 253.210389 
L 202.455571 247.910867 
L 203.161362 245.791058 
L 204.361206 243.842202 
L 203.867153 240.662489 
L 201.502754 235.704871 
L 198.856039 232.62773 
L 196.562219 230.576302 
L 194.90361 226.199922 
L 195.115348 224.866494 
L 196.103455 224.285256 
L 198.185537 225.174209 
L 200.26762 227.020494 
L 201.926228 228.456493 
L 203.620126 228.456493 
L 205.419893 226.917922 
L 207.89016 227.020494 
L 208.984136 227.909446 
L 209.972243 230.40535 
L 211.948457 233.038015 
L 214.912778 234.405634 
L 220.065051 235.192014 
L 223.452846 234.918491 
L 225.852535 233.653444 
L 228.463961 231.772968 
L 229.416778 229.618969 
L 229.028593 226.815351 
L 229.063883 220.900401 
L 230.475464 213.652022 
L 231.251834 210.472309 
L 230.969518 207.839643 
L 229.205041 202.711074 
L 228.53454 200.488694 
L 227.617012 198.950123 
L 225.146744 197.377361 
L 223.382267 195.633648 
L 222.111844 192.419744 
L 221.900107 189.616126 
L 223.417557 187.222794 
L 225.393771 184.624318 
L 225.993693 182.572891 
L 225.111455 180.145368 
L 221.264895 175.119369 
L 220.276788 172.999561 
L 220.170919 171.426799 
L 222.958793 167.392325 
L 224.052768 165.54604 
L 223.876321 164.007469 
L 222.005975 161.477374 
L 220.312077 158.673756 
L 218.935786 154.810234 
L 218.194705 148.519189 
L 218.159416 144.245381 
L 218.724048 142.501667 
L 220.13563 141.646905 
L 221.547211 141.817858 
L 226.628905 143.903476 
L 228.958014 144.96338 
L 230.05199 144.96338 
L 230.863649 144.279571 
L 231.357703 142.501667 
L 231.251834 140.381858 
L 231.075387 138.398811 
L 229.734384 134.090813 
L 228.958014 130.979481 
L 229.240331 129.748624 
L 230.05199 129.304148 
L 232.381099 128.346815 
L 235.521868 126.808244 
L 241.097615 123.765293 
L 246.426335 120.346246 
L 253.519533 117.132343 
L 258.071883 115.662153 
L 261.142073 113.781677 
L 262.236048 111.867011 
L 261.989022 110.020726 
L 261.31852 107.729965 
L 261.847863 105.986251 
L 263.824078 103.456157 
L 265.023922 102.020158 
L 266.259056 101.780824 
L 267.4589 102.088539 
L 269.646851 103.866443 
L 271.446618 105.84949 
L 272.78762 106.020442 
L 276.387153 104.41349 
L 280.021975 102.054348 
L 281.751163 99.558444 
L 283.48035 95.660731 
L 284.433168 91.89978 
L 285.068379 87.933687 
L 286.197644 86.019021 
L 287.750384 85.642925 
L 289.232545 86.258354 
L 289.62073 87.42083 
L 288.914939 89.540638 
L 289.161966 91.010828 
L 290.079494 92.754542 
L 292.338024 95.079493 
L 295.72582 97.370255 
L 301.442725 100.515777 
L 307.477236 103.900633 
L 313.405878 108.379584 
L 315.064486 108.789869 
L 317.146569 108.311203 
L 320.463786 106.567489 
L 323.533975 105.746918 
L 327.839299 105.199871 
L 332.709255 103.763871 
L 335.532418 102.567205 
L 337.932107 100.584158 
L 339.343688 98.806254 
L 339.696584 97.267683 
L 339.026082 94.703398 
L 338.143844 89.540638 
L 337.826238 85.335211 
L 338.179134 83.249593 
L 339.484846 80.582737 
L 341.49635 78.257785 
L 342.413878 75.932834 
L 342.837353 72.958263 
L 342.696194 67.795503 
L 342.060983 60.854839 
L 341.249323 54.666365 
L 339.520136 49.024939 
L 337.826238 42.973227 
L 337.332185 40.545704 
L 337.579211 38.0498 
L 339.343688 35.382944 
L 342.166851 31.929707 
L 344.390092 29.775707 
L 346.048701 29.604755 
L 348.554258 29.878279 
L 353.565372 33.502468 
L 356.81201 36.169324 
L 359.282277 36.511229 
L 364.646287 36.6138 
L 371.033693 37.024086 
L 374.844963 36.477038 
L 380.526579 35.86161 
L 384.196691 34.904277 
L 387.33746 33.570849 
L 391.713362 31.553612 
L 394.96 30.356945 
L 397.289109 28.852565 
L 399.688798 25.467709 
L 402.406092 20.270758 
L 404.241148 16.578188 
L 406.464389 14.560951 
L 409.040525 14.49257 
L 410.94616 16.304665 
L 412.992954 22.424758 
L 414.722141 23.963329 
L 416.768934 24.03171 
L 418.180516 23.553043 
L 418.427542 22.59571 
L 419.027465 19.450187 
L 420.439046 17.227807 
L 421.956496 16.646569 
L 424.850238 16.578188 
L 430.81417 16.543998 
L 435.084204 17.125236 
L 437.977946 18.561235 
L 442.106822 21.330663 
L 445.918092 22.56152 
L 449.870521 22.732472 
L 453.364185 22.014472 
L 457.740087 21.228091 
L 462.398306 20.783615 
L 464.903864 20.783615 
L 466.491893 20.236568 
L 467.409421 19.108283 
L 467.832895 17.330379 
L 468.821002 16.202093 
L 470.373742 15.415713 
L 476.090647 13.808761 
L 480.043075 12.372761 
L 481.066472 11.996666 
L 484.383689 10.868381 
L 487.524457 10.8 
L 492.323834 11.381238 
L 495.464603 12.30438 
L 497.864292 14.389999 
L 501.005061 17.46714 
L 505.133937 20.168187 
L 512.015397 25.091614 
L 514.273927 22.185424 
L 515.756088 21.946091 
L 518.155776 22.937615 
L 522.319942 26.527613 
L 524.931367 28.749994 
L 529.519007 33.297325 
L 532.095144 34.425611 
L 534.918307 34.528182 
L 540.282316 33.741801 
L 543.387796 32.784468 
L 545.716905 32.374183 
L 547.234355 33.092182 
L 548.857674 35.14361 
L 551.539679 36.682181 
L 553.939367 36.750562 
L 556.197898 36.203515 
L 558.174112 35.485515 
L 559.515114 35.690658 
L 562.444146 37.263419 
L 567.031786 40.716656 
L 570.596029 45.263988 
L 574.513168 50.802843 
L 575.995329 52.580747 
L 578.92436 54.871508 
L 581.394628 55.76046 
L 583.582579 57.504174 
L 585.664662 60.854839 
L 589.299484 66.291123 
L 592.016779 70.975216 
L 592.581411 74.086549 
L 593.004886 79.454451 
L 592.934307 81.916165 
L 591.734462 85.301021 
L 591.13454 88.002067 
L 591.452146 89.882543 
L 592.722569 91.968161 
L 595.051679 95.147874 
L 597.027893 97.370255 
L 598.439475 98.293397 
L 600.521557 98.737873 
L 601.474375 99.626825 
L 603.874063 102.635586 
L 605.850277 104.310919 
L 608.955757 106.157204 
L 611.602472 108.003489 
L 613.966871 110.089107 
L 616.719455 113.439773 
L 618.977985 114.944153 
L 621.801149 116.2092 
L 624.200837 117.67939 
L 624.447864 117.918723 
" clip-path="url(#pac928df7a7)"/>
   </g>
  </g>
 </g>
 <defs>
  <clipPath id="pac928df7a7">
   <rect x="194.90361" y="10.8" width="690.192779" height="1058.4"/>
  </clipPath>
 </defs>
</svg>
