<?xml version="1.0" encoding="utf-8" standalone="no"?>
<!DOCTYPE svg PUBLIC "-//W3C//DTD SVG 1.1//EN"
  "http://www.w3.org/Graphics/SVG/1.1/DTD/svg11.dtd">
<svg xmlns:xlink="http://www.w3.org/1999/xlink" width="1080pt" height="1080pt" viewBox="0 0 1080 1080" xmlns="http://www.w3.org/2000/svg" version="1.1">
 <metadata>
  <rdf:RDF xmlns:dc="http://purl.org/dc/elements/1.1/" xmlns:cc="http://creativecommons.org/ns#" xmlns:rdf="http://www.w3.org/1999/02/22-rdf-syntax-ns#">
   <cc:Work>
    <dc:type rdf:resource="http://purl.org/dc/dcmitype/StillImage"/>
    <dc:date>2022-07-01T13:43:19.154871</dc:date>
    <dc:format>image/svg+xml</dc:format>
    <dc:creator>
     <cc:Agent>
      <dc:title>Matplotlib v3.5.1, https://matplotlib.org/</dc:title>
     </cc:Agent>
    </dc:creator>
   </cc:Work>
  </rdf:RDF>
 </metadata>
 <defs>
  <style type="text/css">*{stroke-linejoin: round; stroke-linecap: butt}</style>
 </defs>
 <g id="figure_1">
  <g id="patch_1">
   <path d="M 0 1080 
L 1080 1080 
L 1080 0 
L 0 0 
L 0 1080 
z
" style="fill: none; opacity: 0"/>
  </g>
  <g id="axes_1">
   <g id="PatchCollection_1">
    <path d="M 459.7976 1069.131718 
L 459.409979 1069.2 
L 459.057596 1069.2 
L 458.846166 1069.131718 
L 458.599498 1069.029296 
L 458.282353 1068.824451 
L 458.035685 1068.551324 
L 457.894732 1068.312338 
L 457.789017 1068.107493 
L 457.71854 1067.868507 
L 457.71854 1067.595381 
L 457.71854 1067.288113 
L 457.824255 1066.946705 
L 458.035685 1066.571156 
L 458.282353 1066.33217 
L 458.529021 1066.161466 
L 458.846166 1066.024902 
L 459.128072 1065.956621 
L 459.374741 1065.92248 
L 459.691885 1065.956621 
L 460.00903 1066.059043 
L 460.22046 1066.195607 
L 460.502367 1066.400452 
L 460.713797 1066.639437 
L 460.819511 1066.844282 
L 460.925226 1067.117409 
L 460.995703 1067.458817 
L 460.995703 1067.731944 
L 460.960465 1068.005071 
L 460.85475 1068.244057 
L 460.713797 1068.483042 
L 460.537605 1068.722028 
L 460.326175 1068.892732 
L 460.114745 1069.029296 
L 459.7976 1069.131718 
" clip-path="url(#pf42c081b1f)"/>
    <path d="M 437.068889 1034.273927 
L 437.491748 1034.376349 
L 437.985085 1034.342208 
L 438.795566 1034.239786 
L 439.359379 1034.308067 
L 439.747 1034.478772 
L 440.028907 1034.751898 
L 440.064145 1035.161588 
L 440.064145 1035.502997 
L 439.852715 1035.878546 
L 439.147949 1036.800348 
L 438.443183 1037.961137 
L 437.949847 1038.780517 
L 437.773655 1039.292629 
L 437.66794 1039.838883 
L 437.526987 1040.316854 
L 437.315557 1040.726544 
L 437.03365 1040.897248 
L 436.681267 1040.96553 
L 436.117454 1040.96553 
L 435.412688 1041.033812 
L 434.919352 1041.033812 
L 434.672683 1041.136234 
L 434.355539 1041.341079 
L 433.932679 1041.750769 
L 433.650772 1041.887333 
L 433.298389 1041.853192 
L 432.805053 1041.750769 
L 432.065048 1041.37522 
L 431.712665 1041.033812 
L 431.430759 1040.658263 
L 430.866946 1039.497474 
L 430.655516 1038.336686 
L 430.620278 1037.414883 
L 430.690754 1036.697926 
L 430.831707 1036.288236 
L 431.007899 1035.912687 
L 431.747904 1035.127448 
L 432.734576 1034.205645 
L 433.545057 1033.625251 
L 434.003156 1033.352124 
L 434.461254 1033.317983 
L 434.848875 1033.352124 
L 435.201258 1033.454547 
L 435.835548 1033.659392 
L 436.540314 1033.966659 
L 437.068889 1034.273927 
" clip-path="url(#pf42c081b1f)"/>
    <path d="M 425.123101 1016.520693 
L 424.594526 1016.82796 
L 424.171666 1016.930383 
L 423.537377 1016.964524 
L 423.149755 1016.862101 
L 422.83261 1016.759679 
L 422.409751 1016.657256 
L 421.986891 1016.725538 
L 421.493555 1016.930383 
L 421.035456 1017.305932 
L 420.75355 1017.749763 
L 420.54212 1018.364298 
L 420.401167 1019.25196 
L 420.577358 1020.310325 
L 421.000218 1021.744241 
L 421.282125 1022.93917 
L 421.634508 1023.656127 
L 422.092606 1024.441366 
L 422.515466 1025.158324 
L 422.726895 1025.636296 
L 422.797372 1026.011845 
L 422.83261 1026.592239 
L 422.762134 1027.206774 
L 422.726895 1027.548182 
L 422.585942 1027.992013 
L 422.339274 1028.333422 
L 421.986891 1028.640689 
L 420.824027 1029.118661 
L 419.379256 1029.630773 
L 418.25163 1030.177027 
L 417.61734 1030.620857 
L 417.088765 1031.064688 
L 416.172569 1031.713364 
L 415.11542 1032.225477 
L 413.987794 1032.601026 
L 412.19064 1032.908293 
L 411.063014 1033.113138 
L 410.358248 1033.18142 
L 409.90015 1033.215561 
L 408.983954 1033.078997 
L 408.525855 1032.908293 
L 407.962042 1032.703448 
L 407.081085 1032.088913 
L 405.882982 1030.928125 
L 404.614403 1029.460069 
L 404.015351 1028.777252 
L 403.662968 1028.333422 
L 403.310585 1027.957872 
L 403.169632 1027.582323 
L 403.134394 1027.275056 
L 403.345824 1026.660521 
L 404.015351 1025.977704 
L 405.072501 1024.885197 
L 405.953459 1024.134099 
L 407.680136 1022.461198 
L 408.807762 1021.33455 
L 409.618243 1020.446889 
L 410.11158 1019.729931 
L 410.604916 1018.978833 
L 410.957299 1018.43258 
L 411.239206 1018.05703 
L 411.626827 1017.715622 
L 412.40207 1017.271791 
L 413.600172 1016.657256 
L 414.304939 1016.213425 
L 414.69256 1015.906158 
L 414.974467 1015.59889 
L 415.150658 1015.1892 
L 415.256373 1014.813651 
L 415.362088 1014.164975 
L 415.432565 1013.379736 
L 415.467803 1012.73106 
L 415.573518 1012.32137 
L 415.74971 1011.945821 
L 416.066854 1011.604413 
L 416.665906 1011.126441 
L 417.899247 1010.648469 
L 419.167826 1009.999794 
L 419.766877 1009.555963 
L 420.471643 1009.077991 
L 420.929742 1008.497597 
L 421.317363 1007.985484 
L 421.458316 1007.712358 
L 421.669746 1007.336808 
L 422.127844 1006.449147 
L 422.409751 1005.493203 
L 422.691657 1004.810387 
L 422.938325 1004.434838 
L 423.784045 1003.581317 
L 424.418334 1002.966782 
L 424.700241 1002.761937 
L 424.946909 1002.659514 
L 425.193577 1002.693655 
L 425.405007 1002.830218 
L 425.510722 1003.035063 
L 425.616437 1003.342331 
L 425.686914 1003.888584 
L 425.651675 1004.503119 
L 425.792629 1004.810387 
L 425.96882 1005.015232 
L 426.250727 1005.254218 
L 426.708825 1005.595626 
L 427.166923 1005.902893 
L 427.378353 1006.17602 
L 427.660259 1006.824696 
L 427.977404 1007.234386 
L 428.646932 1007.81478 
L 428.999315 1008.190329 
L 429.175507 1008.463456 
L 429.210745 1008.804864 
L 429.210745 1009.316977 
L 428.928839 1010.648469 
L 428.752647 1011.604413 
L 428.68217 1012.287229 
L 428.646932 1012.73106 
L 428.505979 1013.209032 
L 428.329787 1013.618722 
L 428.188834 1013.891849 
L 427.977404 1014.096694 
L 427.307876 1014.642947 
L 426.744063 1015.086778 
L 426.462157 1015.291623 
L 426.074535 1015.633031 
L 425.616437 1016.145144 
L 425.123101 1016.520693 
" clip-path="url(#pf42c081b1f)"/>
    <path d="M 178.384436 622.125777 
L 178.173006 622.228199 
L 177.926337 622.125777 
L 177.609193 621.989213 
L 176.974903 621.511242 
L 176.164422 620.657721 
L 175.917754 620.316312 
L 175.7768 620.111467 
L 175.741562 619.838341 
L 175.882515 619.462792 
L 176.19966 619.223806 
L 176.446328 619.155524 
L 176.974903 619.053102 
L 177.186333 618.950679 
L 177.397763 618.711693 
L 177.609193 618.506848 
L 177.820623 618.438566 
L 178.067291 618.506848 
L 178.208244 618.814116 
L 178.525389 619.087242 
L 178.948249 619.39451 
L 179.582538 619.974904 
L 179.582538 620.384594 
L 179.441585 620.862566 
L 179.194917 621.477101 
L 179.018725 621.784368 
L 178.772057 621.989213 
L 178.384436 622.125777 
" clip-path="url(#pf42c081b1f)"/>
    <path d="M 146.070903 566.032386 
L 145.683281 566.066527 
L 145.330898 566.032386 
L 144.943277 565.7934 
L 144.238511 565.042302 
L 143.216599 563.847373 
L 141.595637 562.51588 
L 140.573726 561.798923 
L 140.115628 561.389233 
L 139.763245 560.945402 
L 139.551815 560.365008 
L 139.481338 559.921177 
L 139.410862 559.170078 
L 139.269908 558.350698 
L 139.02324 557.667882 
L 138.81181 556.916783 
L 138.776572 556.37053 
L 138.776572 555.55115 
L 138.847049 554.868333 
L 138.988002 554.356221 
L 139.199432 553.946531 
L 139.798483 553.366137 
L 140.468011 552.785742 
L 141.031824 552.376052 
L 141.560399 551.86394 
L 141.877544 551.45425 
L 142.088973 551.249405 
L 142.37088 551.215264 
L 142.652786 551.317687 
L 142.828978 551.556672 
L 143.357553 552.478475 
L 144.273749 554.390362 
L 145.154707 556.063262 
L 145.894711 557.531318 
L 146.493763 558.350698 
L 147.198529 559.23836 
L 147.550912 559.750473 
L 147.762342 560.05774 
L 147.868057 560.365008 
L 148.00901 561.355092 
L 147.938533 562.481739 
L 147.656627 563.574246 
L 147.022337 565.076443 
L 146.705192 565.622696 
L 146.388048 565.895823 
L 146.070903 566.032386 
" clip-path="url(#pf42c081b1f)"/>
    <path d="M 388.440017 356.510087 
L 388.158111 356.544228 
L 387.840966 356.475946 
L 387.559059 356.373523 
L 387.34763 356.271101 
L 387.1362 356.100397 
L 386.960008 355.929693 
L 386.819055 355.724848 
L 386.678102 355.383439 
L 386.607625 354.973749 
L 386.642863 354.529918 
L 386.71334 354.222651 
L 386.854293 353.983665 
L 387.065723 353.744679 
L 387.312391 353.539834 
L 387.629536 353.36913 
L 387.981919 353.266708 
L 388.263826 353.232567 
L 388.475256 353.266708 
L 388.757162 353.334989 
L 389.039069 353.437412 
L 389.285737 353.642257 
L 389.532405 353.847102 
L 389.673358 354.086088 
L 389.814311 354.325073 
L 389.84955 354.564059 
L 389.884788 354.768904 
L 389.884788 355.00789 
L 389.84955 355.246876 
L 389.779073 355.520003 
L 389.602882 355.82727 
L 389.356213 356.100397 
L 389.144784 356.271101 
L 388.933354 356.373523 
L 388.686685 356.475946 
L 388.440017 356.510087 
" clip-path="url(#pf42c081b1f)"/>
    <path d="M 800.693037 157.673869 
L 810.771194 160.746544 
L 813.37883 157.025193 
L 831.632276 168.633076 
L 811.194054 189.527267 
L 793.786328 207.826754 
L 793.469183 208.168162 
L 792.658702 207.65605 
L 789.13487 213.39171 
L 788.324389 214.450076 
L 788.324389 215.84985 
L 788.606296 218.512835 
L 788.888202 219.94675 
L 790.051067 221.17582 
L 790.826309 222.609735 
L 790.896786 223.360834 
L 790.720595 224.316777 
L 796.076818 232.100887 
L 800.939705 237.870688 
L 806.718789 242.547982 
L 820.814114 255.180091 
L 829.271309 264.363975 
L 824.408421 268.870565 
L 817.501712 275.254901 
L 817.043614 275.630451 
L 814.894077 277.439915 
L 808.374989 281.536815 
L 805.450209 283.38042 
L 799.706364 286.999348 
L 797.345397 289.013658 
L 796.711108 290.720699 
L 796.711108 292.359459 
L 796.358725 293.861656 
L 795.125384 295.875965 
L 794.244426 296.934331 
L 792.870132 298.470669 
L 788.394866 303.591794 
L 785.998661 306.323061 
L 784.025315 308.576356 
L 780.818629 312.229425 
L 780.043386 312.707397 
L 778.739568 313.492636 
L 776.272886 314.004748 
L 774.651924 313.629199 
L 774.440494 313.492636 
L 774.405256 322.505816 
L 774.405256 323.4959 
L 774.757639 323.90559 
L 775.814788 324.622548 
L 777.118606 324.759111 
L 778.105279 325.100519 
L 778.598615 325.476069 
L 779.726241 326.875843 
L 780.043386 327.763504 
L 779.937671 328.309758 
L 780.501484 332.270095 
L 780.78339 333.533305 
L 780.924344 334.830657 
L 781.241488 335.240347 
L 782.016731 335.650037 
L 782.651021 335.820741 
L 792.799655 337.869191 
L 793.610136 339.985923 
L 798.155879 350.774427 
L 799.882556 354.734763 
L 800.763514 354.529918 
L 803.688294 352.891158 
L 808.903564 351.013412 
L 810.489288 350.842708 
L 811.053101 351.081694 
L 811.264531 351.286539 
L 813.449306 353.812961 
L 813.625498 353.983665 
L 814.118834 354.700623 
L 814.682647 355.963833 
L 815.598843 358.148847 
L 815.88075 358.729241 
L 816.162656 359.309635 
L 816.338848 361.358085 
L 816.655993 364.738028 
L 816.902661 369.005632 
L 816.444563 369.244618 
L 807.775938 371.258927 
L 806.331167 371.532054 
L 805.133064 371.907603 
L 805.414971 373.273236 
L 804.921635 374.263321 
L 803.512102 376.106926 
L 802.208284 377.984671 
L 801.714948 379.282023 
L 801.996855 382.491262 
L 801.362565 385.461514 
L 800.939705 387.202697 
L 799.671126 388.773175 
L 797.627304 390.753343 
L 796.746346 391.367878 
L 795.090145 391.606864 
L 793.363468 392.221399 
L 792.412034 393.279765 
L 791.672029 394.542976 
L 791.143454 396.386581 
L 790.932024 398.913003 
L 790.861548 399.971369 
L 789.76916 407.072662 
L 789.76916 407.78962 
L 788.852964 409.257676 
L 788.112959 410.759872 
L 787.513908 412.637618 
L 787.161525 413.764266 
L 787.337717 414.549505 
L 787.725338 415.095758 
L 788.606296 416.017561 
L 789.804398 417.656321 
L 790.19202 419.192658 
L 790.40345 420.592433 
L 790.332973 421.377672 
L 789.522492 421.992207 
L 788.253913 422.845728 
L 786.738665 423.221277 
L 785.857707 423.426122 
L 785.540563 423.835812 
L 785.540563 424.416206 
L 785.751992 425.133163 
L 786.245329 426.498797 
L 787.196763 427.727867 
L 789.733922 428.991078 
L 791.918697 430.32257 
L 792.517749 431.244373 
L 792.658702 432.37102 
L 798.014925 430.698119 
L 800.974944 430.117725 
L 802.313999 430.73226 
L 805.520686 434.214625 
L 808.868326 437.765272 
L 811.194054 438.721215 
L 813.37883 438.140821 
L 816.761708 436.365498 
L 820.179824 435.20471 
L 827.932253 433.907358 
L 830.257981 433.770794 
L 833.00657 434.487752 
L 836.107541 436.331357 
L 843.578064 444.422735 
L 847.595231 448.075804 
L 851.013348 450.431522 
L 854.995277 450.943634 
L 857.955295 451.558169 
L 861.267696 452.718957 
L 864.580098 454.528422 
L 865.707724 454.972253 
L 866.905827 454.733267 
L 868.315359 452.855521 
L 870.253466 450.636367 
L 872.015382 450.192536 
L 880.719245 450.943634 
L 885.546894 451.421606 
L 886.991665 451.728873 
L 887.09738 452.718957 
L 886.88595 453.709042 
L 885.264987 455.484365 
L 885.088796 456.474449 
L 885.018319 456.713435 
L 885.511656 457.874223 
L 887.520239 459.171575 
L 893.581229 461.151743 
L 899.642219 462.278391 
L 902.496522 462.688081 
L 904.152723 462.65394 
L 904.716536 462.414954 
L 904.927966 462.312532 
L 907.077503 459.888533 
L 909.579423 457.669378 
L 916.028034 454.664985 
L 917.57852 454.630844 
L 918.670908 455.381943 
L 920.468062 456.986562 
L 928.784304 464.429264 
L 933.330046 467.97991 
L 934.105289 469.379685 
L 933.717667 472.145092 
L 933.647191 474.227683 
L 933.999574 475.968866 
L 935.867204 477.77833 
L 939.849134 480.373033 
L 941.223428 482.216638 
L 941.117713 483.616412 
L 940.201517 488.464411 
L 939.320559 494.200071 
L 939.073891 494.16593 
L 938.615793 494.097648 
L 937.911027 494.336634 
L 937.347214 495.019451 
L 937.030069 496.760634 
L 937.065307 498.843224 
L 936.607209 500.481984 
L 935.1272 502.564575 
L 931.3567 507.24187 
L 927.797631 510.655953 
L 924.908089 513.831051 
L 922.582361 517.006148 
L 920.820445 520.420232 
L 919.481389 523.800174 
L 917.966142 528.887158 
L 916.239464 535.408058 
L 915.182315 540.153634 
L 914.688978 544.113971 
L 914.65374 544.318816 
L 914.054689 548.381575 
L 913.314684 552.649179 
L 910.918479 559.64805 
L 907.324171 569.924441 
L 905.456541 574.123764 
L 903.130812 577.64027 
L 900.100317 581.703029 
L 896.893631 586.004774 
L 896.012673 588.155647 
L 894.497425 593.345053 
L 892.559318 601.026741 
L 889.634538 609.391245 
L 886.46309 617.072933 
L 882.586876 625.53986 
L 875.997311 639.674165 
L 872.825863 645.546389 
L 868.280121 653.808471 
L 865.179149 658.110216 
L 861.725795 662.78751 
L 858.166725 666.304016 
L 853.902889 669.171846 
L 852.458118 670.605761 
L 851.365731 671.664127 
L 848.687619 674.873365 
L 845.375217 680.984575 
L 842.697106 684.501081 
L 836.918022 689.963614 
L 831.456084 695.289584 
L 822.787459 705.634257 
L 811.652152 717.822535 
L 808.304513 721.100055 
L 802.384476 724.445857 
L 795.19586 727.347827 
L 786.315805 729.703545 
L 776.625269 732.434812 
L 767.815691 734.346698 
L 765.666154 734.449121 
L 763.728047 733.083488 
L 762.459468 732.77622 
L 761.825178 732.946924 
L 761.508033 733.049347 
L 761.120412 734.278417 
L 760.591837 735.029515 
L 757.138483 736.156163 
L 748.610811 738.750866 
L 740.083139 741.584555 
L 733.669766 744.24754 
L 730.533557 746.091145 
L 728.630688 747.695765 
L 726.410674 750.188046 
L 724.648758 753.22658 
L 721.68874 759.235367 
L 719.926824 762.410464 
L 717.142998 765.687984 
L 713.583928 768.555814 
L 708.33342 772.345447 
L 703.541009 776.54477 
L 700.757182 779.515022 
L 699.206697 781.563472 
L 696.00001 786.991865 
L 693.004754 791.942286 
L 691.489506 794.468707 
L 686.979002 802.525944 
L 684.758988 805.359634 
L 683.067549 806.281436 
L 682.151353 806.281436 
L 681.411349 806.281436 
L 681.164681 806.281436 
L 680.812297 806.86183 
L 680.847536 808.773717 
L 681.904685 812.017096 
L 682.750405 815.943292 
L 682.468498 818.879404 
L 681.340872 820.893713 
L 678.733237 824.068811 
L 672.460817 831.545653 
L 663.651239 840.080862 
L 662.312183 840.934383 
L 660.761697 841.344073 
L 658.61216 841.719622 
L 647.899713 844.655734 
L 640.323476 847.489423 
L 634.086295 850.869366 
L 631.619613 852.234999 
L 630.491987 852.303281 
L 629.822459 852.098436 
L 628.976739 851.44976 
L 627.637684 850.288971 
L 627.144347 849.981704 
L 625.488147 849.913422 
L 622.91575 849.947563 
L 619.35668 851.005929 
L 614.916653 852.610548 
L 611.463298 854.31759 
L 606.318504 856.878152 
L 601.208949 859.404574 
L 592.505086 863.569756 
L 589.298399 864.593981 
L 585.985998 865.37922 
L 584.118367 865.823051 
L 580.805966 867.769078 
L 574.110687 872.309809 
L 571.820196 873.675443 
L 571.432575 873.812006 
L 568.437318 874.870372 
L 566.781118 875.041076 
L 565.970636 874.80209 
L 563.926814 873.880288 
L 562.55252 873.197471 
L 562.12966 872.992626 
L 560.720128 872.651218 
L 558.817259 872.480514 
L 554.588661 872.719499 
L 553.214367 872.924344 
L 551.48769 873.265753 
L 549.373391 873.846147 
L 547.681952 874.289978 
L 546.096228 874.631386 
L 544.898125 875.109358 
L 543.735261 875.723893 
L 542.114299 876.987104 
L 540.775243 878.011329 
L 538.978089 879.820793 
L 537.744748 880.981581 
L 536.793314 881.630257 
L 534.819968 882.517919 
L 532.07138 883.473862 
L 528.618025 884.327383 
L 525.79896 884.839496 
L 522.45132 885.522312 
L 520.37226 885.863721 
L 516.918905 886.273411 
L 515.051275 886.409974 
L 512.655069 886.64896 
L 510.505532 886.990368 
L 506.206458 887.809748 
L 501.801669 888.765691 
L 474.879598 895.115887 
L 466.950978 897.232618 
L 465.153824 897.471604 
L 462.651904 897.813012 
L 460.185222 898.188562 
L 459.304264 898.290984 
L 457.894732 898.461688 
L 455.42805 898.598252 
L 450.248018 899.383491 
L 444.504173 900.407716 
L 442.777495 900.749124 
L 441.544154 900.98811 
L 438.231753 901.295378 
L 436.469837 901.602645 
L 435.095543 902.114758 
L 433.298389 902.831715 
L 430.972661 903.992503 
L 429.31646 904.402193 
L 427.801212 904.607038 
L 425.792629 904.846024 
L 423.220232 904.982588 
L 419.978307 904.846024 
L 417.088765 904.538757 
L 413.882079 903.787658 
L 409.583005 902.456166 
L 408.208711 901.705068 
L 407.257276 900.714983 
L 406.55251 899.383491 
L 405.70679 898.222702 
L 404.26202 897.130196 
L 402.112483 895.593858 
L 400.033422 894.398929 
L 395.311488 892.452902 
L 389.814311 890.506874 
L 385.86762 889.209522 
L 382.026644 888.117016 
L 379.348533 887.502481 
L 375.85994 886.853805 
L 368.495132 885.624735 
L 361.130325 884.259101 
L 355.069335 883.132454 
L 350.699784 882.074088 
L 346.294995 880.742595 
L 343.017832 879.854934 
L 340.692104 879.137976 
L 336.146361 877.738202 
L 328.852031 875.21178 
L 324.024382 873.470598 
L 319.936737 871.729415 
L 317.681485 870.534486 
L 316.412906 869.680965 
L 315.390995 868.281191 
L 314.439561 866.778994 
L 313.664318 865.276798 
L 312.959552 863.228347 
L 312.642407 861.28232 
L 312.3605 858.82418 
L 312.430977 855.614941 
L 312.501453 853.942041 
L 312.254785 852.337421 
L 311.514781 849.776859 
L 310.28144 846.328635 
L 309.85858 844.280185 
L 309.717627 843.221819 
L 309.682388 841.992749 
L 310.351916 839.773594 
L 312.078594 836.154666 
L 313.382411 834.345202 
L 314.968135 832.945428 
L 316.871004 831.648076 
L 319.231971 830.555569 
L 320.782457 829.872752 
L 323.037709 829.428922 
L 324.975816 829.394781 
L 327.442498 829.531344 
L 330.155848 829.975175 
L 333.327296 830.692133 
L 335.159689 831.170104 
L 336.428268 831.81878 
L 337.908277 832.706442 
L 339.388286 833.86723 
L 340.656865 835.267004 
L 341.502585 836.530215 
L 341.925445 838.237257 
L 342.524496 841.070946 
L 342.700687 842.300016 
L 343.194024 842.777988 
L 343.581645 842.777988 
L 344.53308 842.163453 
L 347.035 840.558834 
L 348.233103 839.60289 
L 348.585486 839.124919 
L 348.585486 838.476243 
L 348.585486 837.588581 
L 348.550247 836.769201 
L 348.90263 836.188807 
L 349.783588 835.574272 
L 350.699784 835.198723 
L 353.624564 834.413483 
L 368.706562 830.487288 
L 373.851356 829.053372 
L 376.776136 828.302274 
L 383.224747 825.67343 
L 384.986663 825.127177 
L 388.193349 824.137092 
L 390.660031 823.522557 
L 391.787657 823.522557 
L 393.197189 824.000529 
L 394.078147 824.512642 
L 395.628633 825.332022 
L 397.179119 826.629373 
L 397.637217 826.936641 
L 397.954362 826.970782 
L 398.41246 826.800077 
L 399.575324 825.980697 
L 400.632473 825.878275 
L 401.478193 825.878275 
L 402.535342 826.219683 
L 402.817249 825.980697 
L 402.817249 825.434444 
L 401.971529 824.751627 
L 400.456282 824.307797 
L 398.62389 823.863966 
L 397.35531 823.112867 
L 394.959105 821.064417 
L 392.421947 818.640418 
L 388.933354 814.748363 
L 386.360957 812.051237 
L 383.3657 808.329886 
L 379.806631 803.994 
L 378.749481 802.423522 
L 378.009477 800.648198 
L 377.30471 798.292481 
L 376.177084 793.990736 
L 375.683748 791.874004 
L 375.155173 790.713216 
L 374.133262 789.381723 
L 372.93516 787.811245 
L 372.477062 786.78702 
L 372.477062 785.011696 
L 373.358019 782.758401 
L 374.274216 780.470965 
L 375.119935 778.251811 
L 376.07137 775.34984 
L 377.234234 772.857559 
L 378.432336 770.809109 
L 379.630439 769.20449 
L 381.533308 766.951195 
L 383.259985 764.971027 
L 384.387611 763.741957 
L 386.819055 761.761788 
L 387.805728 761.215535 
L 388.757162 761.147253 
L 390.307648 761.556943 
L 392.35147 762.308042 
L 394.677199 760.874127 
L 397.249595 759.303648 
L 396.403876 758.723254 
L 396.298161 758.108719 
L 396.509591 757.494184 
L 397.496264 756.5041 
L 399.258179 755.650579 
L 400.773427 755.343312 
L 401.724861 755.343312 
L 402.288674 755.787142 
L 402.570581 756.026128 
L 408.243949 752.577904 
L 408.138234 751.451256 
L 408.349664 750.76844 
L 408.666809 750.461172 
L 409.68872 750.392891 
L 410.710631 750.563595 
L 412.472546 750.802581 
L 413.635411 750.76844 
L 414.90399 750.631876 
L 417.159242 750.085623 
L 423.502138 748.207877 
L 433.298389 745.613174 
L 440.346052 743.974414 
L 441.967014 743.39402 
L 445.067986 741.686978 
L 448.063242 739.604387 
L 449.226107 739.023993 
L 450.036588 738.716725 
L 450.670877 738.238754 
L 451.833742 736.395149 
L 453.560419 733.527318 
L 455.815671 730.591207 
L 456.767106 729.362137 
L 457.683302 727.347827 
L 458.35283 725.538363 
L 459.233787 722.841237 
L 460.43189 719.324731 
L 461.27761 717.173859 
L 462.51095 714.510874 
L 463.638576 712.598987 
L 464.449058 711.335776 
L 465.118586 710.516396 
L 466.28145 709.321467 
L 466.880501 708.980059 
L 468.184319 708.263101 
L 469.030038 707.921693 
L 471.179575 707.853411 
L 472.624346 707.81927 
L 473.646257 707.443721 
L 474.562453 706.726764 
L 475.161505 705.429412 
L 475.690079 703.824793 
L 476.359607 702.186033 
L 477.910093 699.079217 
L 478.614859 697.030767 
L 478.932004 694.197078 
L 478.791051 691.636515 
L 478.156761 689.075952 
L 477.733902 687.983446 
L 477.205327 687.33477 
L 476.606276 687.164066 
L 475.901509 687.368911 
L 475.196743 688.017587 
L 474.879598 688.905248 
L 474.456738 691.158543 
L 474.280547 691.568233 
L 474.069117 691.909642 
L 473.787211 692.216909 
L 473.540542 692.387613 
L 468.57194 694.811613 
L 467.409076 695.460288 
L 464.308104 696.860063 
L 463.35667 697.16733 
L 462.088091 697.645302 
L 454.511853 700.342428 
L 454.194709 700.717977 
L 453.489942 701.059385 
L 449.860396 701.981188 
L 446.583233 703.005413 
L 433.756487 707.614425 
L 422.163082 711.50648 
L 409.90015 716.320338 
L 400.91438 718.198084 
L 397.179119 718.163943 
L 396.932451 718.129802 
L 396.650544 718.061521 
L 394.395292 717.173859 
L 392.739091 716.456901 
L 391.50575 715.774085 
L 389.920026 714.374311 
L 383.682845 706.931609 
L 383.57713 706.692623 
L 376.07137 697.338034 
L 374.908505 694.914035 
L 373.604688 691.738937 
L 373.005636 690.305022 
L 371.772295 687.676178 
L 370.468478 684.227954 
L 370.186571 681.906377 
L 369.975141 678.560575 
L 370.151333 676.409703 
L 370.750384 671.186155 
L 370.997052 669.001142 
L 371.87801 663.333763 
L 372.054202 662.172975 
L 372.794206 658.622328 
L 373.710403 654.935118 
L 374.661837 651.623457 
L 375.507557 648.243515 
L 376.141846 646.024361 
L 378.925673 635.406561 
L 380.828542 628.100423 
L 381.7095 624.379072 
L 382.766649 619.940763 
L 383.400939 617.653327 
L 383.647607 615.980426 
L 383.894275 615.126906 
L 384.387611 612.634625 
L 385.444761 607.001387 
L 386.466672 600.787755 
L 386.92477 594.710687 
L 387.206676 592.7988 
L 387.382868 590.818632 
L 388.545732 582.385846 
L 388.686685 580.644663 
L 388.616209 577.708551 
L 388.721924 573.850637 
L 388.862877 569.446469 
L 388.968592 567.875991 
L 389.109545 565.656837 
L 389.109545 564.666753 
L 389.391452 562.10619 
L 389.63812 558.726248 
L 389.779073 555.346305 
L 390.096218 546.469688 
L 390.342886 541.450985 
L 390.448601 539.129409 
L 390.624793 536.500564 
L 390.800984 532.23296 
L 390.871461 530.525919 
L 390.413363 521.717583 
L 390.448601 519.839837 
L 390.378124 518.644908 
L 390.27241 516.528177 
L 390.06098 515.43567 
L 389.320975 505.60311 
L 389.039069 497.067901 
L 389.320975 492.52717 
L 390.131456 490.615283 
L 391.681942 488.805819 
L 393.761002 487.849876 
L 399.258179 487.132918 
L 400.103899 487.098777 
L 401.583908 486.518383 
L 402.605819 485.460017 
L 402.711534 484.811342 
L 402.817249 484.060243 
L 402.500104 483.138441 
L 401.936291 482.216638 
L 401.724861 482.011793 
L 401.12581 481.46554 
L 400.385805 481.158272 
L 398.729605 480.612019 
L 394.606722 479.451231 
L 393.972432 479.109822 
L 391.999087 477.36864 
L 391.646704 476.719964 
L 390.871461 475.32019 
L 390.519078 474.466669 
L 390.483839 473.817993 
L 390.483839 471.803684 
L 390.483839 470.950163 
L 390.448601 468.150614 
L 391.118129 462.141828 
L 391.71718 456.235463 
L 391.893372 453.743182 
L 392.175278 450.329099 
L 392.386708 447.392987 
L 392.457185 445.310396 
L 392.880045 442.237721 
L 393.197189 440.189271 
L 393.443858 437.355582 
L 393.690526 432.302739 
L 394.007671 426.669501 
L 394.078147 424.928318 
L 394.360054 421.684939 
L 394.43053 419.021954 
L 395.205773 407.482352 
L 395.346727 404.887649 
L 395.48768 400.107932 
L 395.522918 392.801793 
L 395.663871 391.504442 
L 395.69911 386.144331 
L 395.69911 380.579375 
L 395.522918 378.155376 
L 395.241012 372.453856 
L 395.311488 365.625689 
L 395.205773 363.065127 
L 394.959105 361.392226 
L 394.571484 358.353692 
L 394.395292 355.997974 
L 394.465769 355.554143 
L 394.501007 352.413187 
L 394.64196 351.252398 
L 395.945778 347.189639 
L 396.685782 344.594936 
L 397.35531 342.239218 
L 398.165792 339.234825 
L 398.518175 337.83505 
L 398.905796 336.093868 
L 399.258179 334.1137 
L 399.892469 330.631334 
L 400.350567 327.387955 
L 400.984857 323.291055 
L 401.724861 318.716183 
L 402.429627 313.799903 
L 403.099155 308.849482 
L 403.662968 304.377033 
L 403.909637 300.96295 
L 404.05059 299.085204 
L 404.47345 293.793374 
L 404.579164 292.3936 
L 404.720118 291.949769 
L 404.896309 290.515854 
L 405.671552 284.268082 
L 406.059174 280.205322 
L 406.023935 279.385942 
L 406.023935 278.05445 
L 406.023935 276.620535 
L 406.200127 273.240592 
L 406.200127 271.738396 
L 406.235365 270.031354 
L 406.270603 269.348537 
L 406.587748 264.329835 
L 406.97537 260.369498 
L 407.081085 259.072146 
L 407.468706 255.384936 
L 407.680136 254.053443 
L 408.772524 236.880604 
L 409.05443 233.02269 
L 409.26586 224.316777 
L 409.442052 219.298074 
L 409.583005 215.337737 
L 409.723958 211.001852 
L 409.653481 205.027206 
L 409.512528 202.944615 
L 409.829673 199.598813 
L 411.168729 184.986536 
L 411.415397 180.923777 
L 411.521112 176.075778 
L 411.76778 171.978878 
L 412.084925 164.843444 
L 412.261117 162.078036 
L 412.437308 159.449192 
L 412.578261 154.328067 
L 412.578261 151.835786 
L 412.860168 146.578097 
L 413.106836 145.690436 
L 413.247789 145.45145 
L 413.459219 145.280746 
L 413.741126 145.144182 
L 414.304939 145.007619 
L 414.798275 144.871056 
L 415.150658 144.768633 
L 415.362088 144.427225 
L 415.009705 143.949253 
L 414.551607 143.539563 
L 414.199224 143.129873 
L 413.987794 142.686042 
L 413.917317 141.969085 
L 413.952556 138.759846 
L 414.622084 124.249992 
L 415.185897 109.535292 
L 415.256373 102.05845 
L 415.573518 93.659805 
L 416.066854 86.968201 
L 416.454476 79.320654 
L 416.947812 71.707248 
L 417.088765 63.99142 
L 417.758293 48.150073 
L 418.322106 39.614864 
L 419.978307 39.717287 
L 420.506882 39.717287 
L 420.96498 39.717287 
L 421.986891 39.683146 
L 423.995475 39.683146 
L 425.863105 40.195258 
L 428.012642 40.946357 
L 429.245983 42.209567 
L 430.796469 44.77013 
L 431.254567 45.452947 
L 432.311717 46.886862 
L 432.593623 47.262411 
L 432.981244 47.740383 
L 435.130782 50.369227 
L 438.161276 53.37362 
L 439.324141 54.431986 
L 439.606047 54.705113 
L 441.121295 56.002464 
L 441.790823 56.582859 
L 442.566066 57.231534 
L 442.847972 57.436379 
L 445.279416 59.348266 
L 451.375644 64.162124 
L 452.045172 64.708377 
L 454.441377 66.85925 
L 455.850909 68.224883 
L 457.789017 70.13677 
L 459.938554 72.321783 
L 460.149984 72.458347 
L 462.405236 68.122461 
L 463.004287 66.927531 
L 463.814768 65.391194 
L 464.343343 64.366969 
L 465.294777 62.489223 
L 466.210973 60.679759 
L 467.197646 58.767872 
L 467.585267 58.016774 
L 467.867174 57.436379 
L 469.170992 54.841676 
L 470.756716 51.871424 
L 471.07386 51.256888 
L 471.320529 50.813058 
L 472.835776 47.774523 
L 478.015808 37.771259 
L 478.544383 36.781175 
L 484.781564 24.900165 
L 486.437765 21.725067 
L 492.075895 10.8 
L 493.661619 13.906816 
L 495.599726 15.784562 
L 498.594983 18.788955 
L 500.145468 20.325293 
L 502.61215 22.851714 
L 506.17122 26.163375 
L 508.003612 28.109403 
L 509.448383 29.543318 
L 512.161733 32.206303 
L 513.606504 33.674359 
L 517.764625 37.737118 
L 519.244634 35.75695 
L 521.781792 32.172162 
L 524.142759 28.928783 
L 525.728483 26.74377 
L 526.997063 24.866024 
L 529.181838 22.237179 
L 530.133272 21.110532 
L 533.058052 17.457463 
L 533.868534 18.686533 
L 535.665688 20.052166 
L 536.194262 20.530138 
L 539.436187 23.978362 
L 541.867631 25.651263 
L 545.180032 27.255882 
L 546.448611 27.904558 
L 548.386718 28.860501 
L 550.183872 29.475036 
L 552.298171 29.987149 
L 554.377232 30.328557 
L 555.504858 30.43098 
L 556.773437 30.567543 
L 557.478203 30.704106 
L 557.724871 30.806529 
L 558.182969 30.977233 
L 558.746782 31.2845 
L 558.922974 31.455205 
L 560.332506 32.172162 
L 561.283941 32.650134 
L 562.55252 30.669965 
L 564.384912 27.870417 
L 565.68873 25.890249 
L 566.886833 21.656785 
L 567.098262 21.008109 
L 567.274454 20.325293 
L 567.450646 19.779039 
L 567.697314 18.754814 
L 567.803029 18.447547 
L 567.908744 18.071998 
L 568.789701 14.8969 
L 587.959344 26.470643 
L 590.74317 28.245966 
L 591.412698 28.655656 
L 602.336575 35.278978 
L 610.934723 40.400103 
L 612.696639 41.424328 
L 620.695736 46.067482 
L 620.942404 46.169904 
L 623.620516 47.740383 
L 624.149091 48.04765 
L 624.501474 48.252495 
L 638.702514 56.958408 
L 660.056931 70.000206 
L 674.504639 78.74026 
L 685.886614 85.636708 
L 687.366624 86.52437 
L 688.459011 87.173046 
L 688.705679 87.34375 
L 695.612389 91.543073 
L 704.069584 96.73248 
L 727.679253 111.242334 
L 735.88978 116.295178 
L 738.004079 117.62667 
L 767.322355 136.369988 
L 780.219577 144.563788 
L 799.001598 156.581362 
L 800.693037 157.673869 
" clip-path="url(#pf42c081b1f)"/>
   </g>
  </g>
 </g>
 <defs>
  <clipPath id="pf42c081b1f">
   <rect x="138.776572" y="10.8" width="802.446856" height="1058.4"/>
  </clipPath>
 </defs>
</svg>
