<?xml version="1.0" encoding="utf-8" standalone="no"?>
<!DOCTYPE svg PUBLIC "-//W3C//DTD SVG 1.1//EN"
  "http://www.w3.org/Graphics/SVG/1.1/DTD/svg11.dtd">
<svg xmlns:xlink="http://www.w3.org/1999/xlink" width="1080pt" height="1080pt" viewBox="0 0 1080 1080" xmlns="http://www.w3.org/2000/svg" version="1.1">
 <metadata>
  <rdf:RDF xmlns:dc="http://purl.org/dc/elements/1.1/" xmlns:cc="http://creativecommons.org/ns#" xmlns:rdf="http://www.w3.org/1999/02/22-rdf-syntax-ns#">
   <cc:Work>
    <dc:type rdf:resource="http://purl.org/dc/dcmitype/StillImage"/>
    <dc:date>2022-07-01T13:43:19.293911</dc:date>
    <dc:format>image/svg+xml</dc:format>
    <dc:creator>
     <cc:Agent>
      <dc:title>Matplotlib v3.5.1, https://matplotlib.org/</dc:title>
     </cc:Agent>
    </dc:creator>
   </cc:Work>
  </rdf:RDF>
 </metadata>
 <defs>
  <style type="text/css">*{stroke-linejoin: round; stroke-linecap: butt}</style>
 </defs>
 <g id="figure_1">
  <g id="patch_1">
   <path d="M 0 1080 
L 1080 1080 
L 1080 0 
L 0 0 
L 0 1080 
z
" style="fill: none; opacity: 0"/>
  </g>
  <g id="axes_1">
   <g id="PatchCollection_1">
    <path d="M 792.07057 521.105911 
L 793.821996 522.280673 
L 833.498523 547.211733 
L 835.856212 548.712818 
L 840.773676 551.780252 
L 849.598167 558.110914 
L 864.215835 570.184857 
L 872.501426 577.037635 
L 880.113391 582.324064 
L 897.897098 590.612663 
L 907.058401 595.181182 
L 912.177953 597.987558 
L 914.333554 599.684436 
L 927.671334 610.648881 
L 934.609674 616.392162 
L 956.030957 628.009253 
L 962.49776 632.577772 
L 966.472149 635.384148 
L 972.130601 641.388487 
L 983.110692 656.529864 
L 983.85168 657.574097 
L 986.748269 661.555235 
L 991.463646 668.146955 
L 996.179022 674.738675 
L 998.469348 677.936638 
L 1003.790988 685.376797 
L 1017.330855 706.457249 
L 1032.622149 733.150452 
L 1035.653462 738.371616 
L 1046.498829 752.011908 
L 1053.504532 760.692094 
L 1056.199033 764.085851 
L 1068.6611 779.357757 
L 1069.2 779.945138 
L 1060.712322 785.492625 
L 1058.893534 787.450562 
L 1054.447607 787.450562 
L 1052.628819 787.842149 
L 1049.260692 789.99588 
L 1044.680041 793.520166 
L 1041.514002 797.436039 
L 1034.238849 802.265616 
L 1028.176222 806.507812 
L 1025.346996 810.032098 
L 1024.808096 811.20686 
L 998.940886 814.731146 
L 965.461711 820.996544 
L 960.678971 821.779718 
L 957.310845 822.106041 
L 954.953157 822.432364 
L 954.346894 824.194507 
L 953.807994 826.282973 
L 953.336456 827.066147 
L 953.067006 827.457735 
L 952.595468 827.784057 
L 952.123931 827.914586 
L 951.517668 827.914586 
L 950.911405 827.849322 
L 950.372505 827.784057 
L 949.564155 827.522999 
L 948.823167 827.131412 
L 947.745367 826.544031 
L 929.018585 821.061808 
L 928.344959 821.061808 
L 925.785183 820.148104 
L 922.080244 819.560723 
L 920.059369 819.169136 
L 916.960692 818.581755 
L 901.332587 811.272125 
L 893.249084 806.116225 
L 888.331619 802.918262 
L 884.828768 800.89506 
L 882.471079 802.787733 
L 875.869552 802.657203 
L 873.040326 801.612971 
L 871.693075 800.111886 
L 869.806925 797.501304 
L 864.754735 793.259107 
L 864.013747 792.802256 
L 862.464409 792.019081 
L 862.194959 795.739161 
L 860.443534 799.655034 
L 853.842006 808.987865 
L 849.261354 814.861675 
L 841.110489 822.301835 
L 840.369501 823.019745 
L 828.648422 821.192337 
L 828.042159 828.763026 
L 813.559216 826.544031 
L 812.481415 826.739824 
L 811.403615 827.914586 
L 810.19109 829.676729 
L 809.113289 830.720962 
L 801.299236 834.049455 
L 799.951986 834.506307 
L 793.889358 836.333714 
L 788.769807 838.813767 
L 781.359929 844.883371 
L 771.592363 854.216202 
L 770.581925 853.237234 
L 767.281161 850.365593 
L 760.679633 844.230725 
L 751.24888 835.746333 
L 756.435794 831.11255 
L 758.389308 829.415671 
L 764.384572 823.802919 
L 764.923473 823.346068 
L 765.597098 822.758687 
L 766.876986 821.649189 
L 770.312475 818.581755 
L 771.188187 817.79858 
L 772.468075 816.558554 
L 773.545876 815.449056 
L 775.095214 813.817442 
L 775.432026 813.425855 
L 776.038289 812.64268 
L 776.84664 811.533183 
L 775.027851 810.358421 
L 772.265988 809.575246 
L 767.281161 807.878368 
L 752.461405 807.878368 
L 753.741293 800.372944 
L 740.336151 795.804425 
L 731.579022 791.496964 
L 731.376935 792.214875 
L 730.097047 794.694928 
L 729.827597 796.261277 
L 730.097047 797.631833 
L 731.174847 799.002388 
L 731.51166 800.242415 
L 731.174847 801.808764 
L 729.153971 809.183659 
L 726.661558 813.556384 
L 722.687169 818.059639 
L 715.412016 821.975512 
L 713.323778 821.975512 
L 711.23554 820.343898 
L 709.349389 818.777549 
L 707.463238 818.51649 
L 705.64445 820.343898 
L 702.343686 824.977681 
L 700.726986 827.522999 
L 700.726986 830.329375 
L 700.457536 833.527338 
L 698.369297 837.247418 
L 683.482179 843.447551 
L 675.735489 835.158952 
L 674.186151 833.527338 
L 659.366395 817.668051 
L 654.516293 812.512151 
L 649.396741 807.029929 
L 648.925204 806.507812 
L 628.110183 784.12207 
L 623.664257 779.292493 
L 620.902393 777.856672 
L 618.073167 776.290323 
L 618.40998 775.115561 
L 621.912831 767.544873 
L 622.249644 766.696433 
L 606.890988 760.039449 
L 603.051324 768.328047 
L 598.740122 777.791408 
L 587.086405 772.896566 
L 567.012373 817.276464 
L 575.365326 820.80075 
L 565.59776 831.765195 
L 566.540835 832.613634 
L 557.581619 852.584588 
L 551.316904 851.279297 
L 545.456365 864.201679 
L 539.528462 877.711442 
L 535.621436 888.610623 
L 516.759929 870.923928 
L 486.312067 843.121228 
L 471.963849 830.003052 
L 445.220927 805.071992 
L 444.075764 804.027759 
L 386.817617 752.077173 
L 385.335642 749.858178 
L 384.392566 748.87921 
L 374.288187 739.154791 
L 364.049084 729.560901 
L 353.80998 719.967012 
L 352.530092 718.79225 
L 340.068024 707.109894 
L 335.824185 702.998227 
L 328.077495 695.753862 
L 320.330804 688.444231 
L 308.475 677.610315 
L 307.3972 679.372458 
L 284.291853 657.639361 
L 268.326935 643.476953 
L 247.91609 624.876554 
L 247.377189 624.223909 
L 234.915122 609.474119 
L 231.749084 593.28851 
L 230.806008 588.85052 
L 228.71777 578.603985 
L 221.846792 570.380651 
L 215.784165 563.462608 
L 214.706365 562.287846 
L 209.384725 555.891919 
L 205.140886 550.997078 
L 167.013697 508.640381 
L 156.033605 520.257472 
L 148.96054 512.49099 
L 149.634165 511.77308 
L 143.436813 504.985566 
L 134.477597 513.665752 
L 117.906415 495.848528 
L 99.112271 477.96604 
L 76.815275 459.887758 
L 10.8 406.566616 
L 20.769654 392.795795 
L 23.464155 389.010451 
L 45.693788 358.205581 
L 57.21278 342.803146 
L 57.819043 342.281029 
L 70.685285 329.880764 
L 81.126477 342.476823 
L 118.916853 306.059201 
L 115.952902 301.294888 
L 139.799236 276.429093 
L 148.69109 290.591501 
L 158.728106 281.323934 
L 190.657943 334.514547 
L 190.860031 334.84087 
L 199.886609 349.721189 
L 201.50331 349.199072 
L 250.677953 334.12296 
L 288.939868 322.701663 
L 307.9361 317.023646 
L 309.687525 316.436265 
L 311.034776 315.914149 
L 333.80331 306.842376 
L 355.763493 298.096925 
L 357.380193 297.44428 
L 379.609827 289.155681 
L 375.43335 279.692321 
L 354.34888 232.049195 
L 426.292057 218.931019 
L 447.71334 213.383532 
L 450.542566 211.425596 
L 452.159267 210.250834 
L 452.832892 209.532923 
L 453.57388 208.227632 
L 454.449593 206.139167 
L 455.325305 203.528584 
L 455.729481 202.158029 
L 456.201018 200.656944 
L 457.076731 197.654774 
L 457.480906 196.936864 
L 457.885081 196.610541 
L 463.745621 193.477843 
L 470.751324 191.389377 
L 473.378462 194.195753 
L 503.220061 224.347978 
L 507.4639 227.023824 
L 513.998065 229.438613 
L 520.195418 231.918666 
L 535.554073 240.85991 
L 552.866242 252.281207 
L 564.250509 261.548774 
L 576.510489 271.403722 
L 578.93554 273.818511 
L 595.035183 289.155681 
L 613.694603 305.798143 
L 617.466904 309.452958 
L 630.669959 322.114282 
L 650.541904 342.476823 
L 657.951782 351.74439 
L 662.465071 357.6182 
L 666.97836 363.361481 
L 673.647251 373.869074 
L 679.50779 387.183043 
L 680.316141 389.14098 
L 683.886354 399.256986 
L 689.275356 421.903787 
L 693.182383 430.649237 
L 699.716548 438.024132 
L 722.619807 459.039319 
L 734.273523 470.134293 
L 738.9889 476.008103 
L 747.139766 486.058845 
L 751.720418 491.86739 
L 756.637882 498.002259 
L 759.803921 500.612841 
L 792.07057 521.105911 
" clip-path="url(#pa0471b5e5a)"/>
   </g>
  </g>
 </g>
 <defs>
  <clipPath id="pa0471b5e5a">
   <rect x="10.8" y="191.389377" width="1058.4" height="697.221246"/>
  </clipPath>
 </defs>
</svg>
