<?xml version="1.0" encoding="utf-8" standalone="no"?>
<!DOCTYPE svg PUBLIC "-//W3C//DTD SVG 1.1//EN"
  "http://www.w3.org/Graphics/SVG/1.1/DTD/svg11.dtd">
<svg xmlns:xlink="http://www.w3.org/1999/xlink" width="1080pt" height="1080pt" viewBox="0 0 1080 1080" xmlns="http://www.w3.org/2000/svg" version="1.1">
 <metadata>
  <rdf:RDF xmlns:dc="http://purl.org/dc/elements/1.1/" xmlns:cc="http://creativecommons.org/ns#" xmlns:rdf="http://www.w3.org/1999/02/22-rdf-syntax-ns#">
   <cc:Work>
    <dc:type rdf:resource="http://purl.org/dc/dcmitype/StillImage"/>
    <dc:date>2022-07-01T13:43:19.383650</dc:date>
    <dc:format>image/svg+xml</dc:format>
    <dc:creator>
     <cc:Agent>
      <dc:title>Matplotlib v3.5.1, https://matplotlib.org/</dc:title>
     </cc:Agent>
    </dc:creator>
   </cc:Work>
  </rdf:RDF>
 </metadata>
 <defs>
  <style type="text/css">*{stroke-linejoin: round; stroke-linecap: butt}</style>
 </defs>
 <g id="figure_1">
  <g id="patch_1">
   <path d="M 0 1080 
L 1080 1080 
L 1080 0 
L 0 0 
L 0 1080 
z
" style="fill: none; opacity: 0"/>
  </g>
  <g id="axes_1">
   <g id="PatchCollection_1">
    <path d="M 887.064278 751.194988 
L 883.320126 752.738623 
L 882.762487 752.995895 
L 880.399157 754.102167 
L 879.390095 754.565258 
L 878.354478 754.488076 
L 876.655005 754.410894 
L 874.875869 754.385167 
L 873.149842 754.565258 
L 870.733404 754.771076 
L 867.6 754.925439 
L 867.095469 754.976894 
L 866.537829 755.054075 
L 866.086407 755.259893 
L 862.023604 758.707345 
L 861.864278 759.016072 
L 861.99705 759.247617 
L 862.289146 759.427708 
L 862.660906 759.813616 
L 863.351317 760.559707 
L 864.307271 762.000433 
L 864.360379 762.463523 
L 856.048894 768.766699 
L 855.225711 769.101153 
L 854.747734 769.22979 
L 853.897998 768.972517 
L 852.756164 768.457972 
L 851.29568 767.531791 
L 848.534036 766.374065 
L 845.613066 765.010521 
L 844.842993 764.933339 
L 844.072919 764.907612 
L 843.276291 764.933339 
L 841.922023 765.036248 
L 841.098841 765.139157 
L 840.328767 765.242066 
L 838.708957 765.679429 
L 836.212856 766.60561 
L 835.522445 767.068701 
L 835.522445 767.660427 
L 835.708325 768.252154 
L 836.398736 768.792426 
L 837.460906 769.101153 
L 838.151317 769.461335 
L 838.469968 769.872971 
L 838.60274 770.361789 
L 838.469968 770.824879 
L 837.885774 771.28797 
L 836.664278 771.802515 
L 834.646154 772.162696 
L 832.521812 772.831605 
L 831.645522 773.474786 
L 831.379979 774.143694 
L 831.486196 774.658239 
L 832.07039 775.018421 
L 833.716754 775.455784 
L 835.177239 775.893147 
L 835.68177 776.253329 
L 836.05353 776.793601 
L 836.05353 777.565418 
L 835.575553 778.440145 
L 834.486828 779.623598 
L 832.601475 780.44687 
L 831.273762 781.167233 
L 829.680506 781.604596 
L 828.724552 781.784687 
L 828.591781 781.964778 
L 828.591781 782.247778 
L 828.777661 782.607959 
L 829.14942 783.045322 
L 830.158483 783.456958 
L 831.379979 783.585595 
L 833.212223 783.714231 
L 834.858588 784.10014 
L 835.230348 784.511776 
L 835.310011 784.871957 
L 835.283456 785.463684 
L 834.43372 787.6505 
L 833.796417 788.756772 
L 833.026344 789.116953 
L 828.060695 791.252315 
L 826.786091 791.895496 
L 819.165016 794.725494 
L 818.501159 795.085675 
L 814.332139 796.089038 
L 812.553003 796.500674 
L 811.065964 796.757946 
L 809.924131 796.757946 
L 808.516754 796.449219 
L 806.233087 795.703129 
L 804.586723 795.111402 
L 803.524552 794.159494 
L 802.648261 793.361949 
L 801.692308 792.770223 
L 800.683246 792.590132 
L 799.036881 792.332859 
L 798.027819 792.564405 
L 797.045311 793.07895 
L 795.319283 794.622585 
L 794.17745 795.420129 
L 793.168388 795.548765 
L 791.867229 795.445857 
L 791.044046 795.188584 
L 790.141201 794.596857 
L 788.946259 793.156131 
L 787.379557 791.072224 
L 785.308325 788.911135 
L 784.378925 788.139318 
L 781.935933 787.213137 
L 779.386723 786.544228 
L 775.377028 785.798138 
L 772.562276 785.720956 
L 772.057745 785.746684 
L 771.420443 786.132592 
L 770.278609 787.496137 
L 767.729399 789.631498 
L 765.312961 791.792587 
L 765.127081 791.921223 
L 764.011802 792.615859 
L 758.966491 795.651674 
L 756.178293 796.037583 
L 752.620021 796.680764 
L 750.389463 796.938037 
L 749.114858 796.938037 
L 748.238567 796.449219 
L 744.388198 794.005131 
L 743.458799 793.25904 
L 735.731507 785.540866 
L 735.226976 784.820503 
L 735.280084 784.10014 
L 735.731507 783.637049 
L 736.68746 782.942413 
L 737.138883 782.402141 
L 737.61686 781.295869 
L 737.80274 780.292507 
L 737.723077 778.002782 
L 737.510643 776.073238 
L 737.510643 774.992693 
L 737.457534 774.27233 
L 737.377871 773.963603 
L 736.899895 773.243241 
L 733.500948 769.538517 
L 732.040464 768.406518 
L 730.52687 767.223064 
L 729.703688 766.374065 
L 729.703688 765.910975 
L 729.783351 765.010521 
L 730.102002 763.904249 
L 730.579979 762.643614 
L 730.579979 762.129069 
L 730.340991 761.357251 
L 729.624025 760.636888 
L 728.057323 759.556344 
L 727.366913 759.299071 
L 727.10137 759.299071 
L 726.331296 759.659253 
L 725.136354 760.71407 
L 723.649315 762.000433 
L 722.427819 762.592159 
L 721.232877 762.746523 
L 720.223815 762.695068 
L 718.604004 762.231978 
L 717.594942 761.74316 
L 716.506217 761.331524 
L 714.727081 760.533979 
L 712.894837 759.376253 
L 709.628662 757.369528 
L 704.609905 754.127894 
L 698.714858 749.445535 
L 698.051001 748.622263 
L 697.838567 746.666992 
L 697.626133 744.480176 
L 695.793888 741.084179 
L 692.899473 737.585273 
L 689.898841 735.166912 
L 687.455848 733.829095 
L 671.60295 728.812281 
L 668.230558 727.577373 
L 666.424868 727.577373 
L 665.336143 727.808919 
L 653.280506 731.616551 
L 650.784405 733.185914 
L 649.934668 734.189276 
L 649.350474 735.141185 
L 649.005269 736.170275 
L 648.102424 738.588636 
L 647.385458 739.720635 
L 646.349842 740.904088 
L 644.225501 742.962268 
L 642.818124 744.197176 
L 641.543519 745.303448 
L 640.640674 746.666992 
L 636.418546 755.800166 
L 635.595364 757.137983 
L 635.223604 758.4758 
L 635.19705 759.40198 
L 635.303267 760.328161 
L 635.648472 761.846069 
L 635.621918 762.669341 
L 635.250158 764.598885 
L 633.869336 768.457972 
L 631.399789 773.732058 
L 630.948367 774.889784 
L 629.753425 776.510601 
L 629.779979 775.404329 
L 629.302002 774.426694 
L 627.629083 773.80924 
L 626.221707 773.474786 
L 624.973656 772.419969 
L 624.416017 771.519515 
L 624.256691 770.053062 
L 624.761222 767.891973 
L 624.814331 767.531791 
L 624.761222 767.145882 
L 624.416017 766.785701 
L 621.707482 764.393067 
L 620.008008 762.849432 
L 618.600632 761.948978 
L 618.228872 761.768887 
L 617.59157 761.563069 
L 616.502845 761.151433 
L 611.404426 761.46016 
L 610.607798 761.665978 
L 609.492518 763.235341 
L 607.554057 765.164884 
L 604.420653 767.814791 
L 601.446575 770.387516 
L 599.587777 771.570969 
L 598.472497 771.648151 
L 597.038567 771.339424 
L 596.00295 770.567607 
L 594.993888 769.384153 
L 593.559958 768.560881 
L 592.76333 768.149245 
L 590.4 767.325973 
L 588.195996 766.682792 
L 586.496523 766.374065 
L 585.699895 766.374065 
L 583.548999 766.965792 
L 581.159115 768.277881 
L 580.017281 768.560881 
L 578.663014 768.483699 
L 577.468072 768.020609 
L 576.459009 767.3517 
L 575.981033 766.759974 
L 574.759536 764.573158 
L 573.883246 762.154796 
L 572.582086 759.247617 
L 572.369652 758.321436 
L 572.449315 757.498164 
L 573.35216 755.645802 
L 574.016017 753.278895 
L 574.308114 751.014897 
L 574.361222 749.033899 
L 574.122234 745.406357 
L 573.644257 744.017086 
L 572.688303 743.193814 
L 569.979768 741.006997 
L 568.731718 739.720635 
L 568.572392 738.92309 
L 568.572392 738.305636 
L 568.891043 737.353728 
L 569.5549 736.762001 
L 572.183772 734.986821 
L 574.28156 733.366004 
L 576.007587 731.410733 
L 585.514015 719.653381 
L 585.699895 719.061654 
L 585.620232 717.775291 
L 584.451844 715.614202 
L 583.177239 713.092932 
L 582.911697 711.266297 
L 583.017914 709.259572 
L 583.602107 706.275211 
L 584.080084 704.345667 
L 585.062592 702.416124 
L 585.381243 701.592852 
L 585.48746 701.078307 
L 585.646786 699.431763 
L 585.753003 698.376946 
L 585.806112 695.418312 
L 585.726449 694.183404 
L 585.699895 693.488768 
L 585.540569 692.897042 
L 584.903267 692.433951 
L 583.787987 692.07377 
L 581.371549 691.404861 
L 575.954478 689.886953 
L 574.016017 689.501045 
L 573.325606 688.9865 
L 573.006955 688.600591 
L 572.369652 687.95741 
L 571.599579 686.773956 
L 569.979768 683.455141 
L 568.970706 681.49987 
L 569.076923 680.75378 
L 569.714226 679.956235 
L 571.387144 679.081509 
L 572.767966 678.258237 
L 573.245943 677.66651 
L 573.245943 677.151965 
L 573.006955 676.766056 
L 572.688303 676.766056 
L 571.785458 677.023329 
L 570.324974 677.254874 
L 569.236249 677.306329 
L 568.466175 677.074783 
L 568.147524 676.663147 
L 567.510221 674.887967 
L 567.430558 673.601605 
L 567.722655 672.752605 
L 569.262803 670.977425 
L 569.661117 670.231335 
L 569.661117 669.562427 
L 569.289357 668.893518 
L 568.413066 668.378973 
L 564.190938 665.291703 
L 562.83667 664.982976 
L 560.765437 664.982976 
L 558.375553 664.802885 
L 555.587355 663.979614 
L 554.87039 663.670887 
L 554.790727 663.284978 
L 555.268704 660.918071 
L 555.454584 660.094799 
L 556.330875 658.242437 
L 557.632034 656.90462 
L 560.101581 655.59253 
L 560.526449 655.000804 
L 560.8451 654.254713 
L 560.924763 653.585805 
L 560.951317 652.093624 
L 560.632666 651.193171 
L 559.836038 650.601444 
L 558.561433 650.601444 
L 555.029715 651.167443 
L 553.356797 651.604807 
L 550.781033 653.457169 
L 549.931296 653.688714 
L 549.161222 653.662987 
L 547.222761 653.019805 
L 544.91254 652.402351 
L 542.283667 650.910171 
L 539.601686 649.032082 
L 537.769442 648.183083 
L 537.371128 648.183083 
L 536.946259 648.414628 
L 536.468282 649.006355 
L 535.804426 651.29608 
L 535.007798 653.611532 
L 533.706639 655.746894 
L 532.830348 656.853165 
L 530.732561 658.345346 
L 528.316122 659.374436 
L 524.412645 660.892344 
L 523.191149 661.046707 
L 522.553846 660.969525 
L 521.51823 660.223435 
L 520.376396 659.657436 
L 519.34078 659.631708 
L 518.464489 659.940435 
L 513.790938 661.792797 
L 510.4451 663.156342 
L 507.922445 664.185431 
L 507.391359 664.85434 
L 506.966491 667.272701 
L 506.621286 668.018792 
L 505.373235 668.533337 
L 502.956797 669.305154 
L 496.875869 670.874516 
L 496.158904 671.131789 
L 495.441939 671.800697 
L 493.662803 673.83315 
L 492.14921 674.759331 
L 490.529399 675.196694 
L 487.475659 675.376785 
L 486.147945 675.556876 
L 485.351317 675.994239 
L 484.023604 677.66651 
L 481.899262 681.345507 
L 480.996417 681.937233 
L 476.030769 684.458504 
L 474.410959 684.664322 
L 473.003583 684.58714 
L 471.065121 683.197869 
L 468.993888 681.602779 
L 467.798946 681.422688 
L 460.762065 681.474143 
L 460.018546 681.577052 
L 458.61117 682.297415 
L 455.610537 684.844413 
L 454.229715 686.671047 
L 453.51275 688.780682 
L 452.716122 691.687861 
L 451.255638 694.569313 
L 447.16628 701.155488 
L 445.865121 702.364669 
L 444.006322 703.00785 
L 441.828872 703.496668 
L 441.536776 703.419486 
L 440.81981 703.239396 
L 440.129399 702.596214 
L 439.332771 701.309852 
L 436.703899 697.913855 
L 434.499895 695.366857 
L 433.59705 694.620767 
L 429.401475 692.742678 
L 424.834141 691.199043 
L 421.089989 689.861226 
L 417.744152 688.008864 
L 414.079663 686.696774 
L 408.476712 686.516684 
L 406.03372 686.851138 
L 403.378293 687.931682 
L 398.678188 689.861226 
L 396.500738 690.092771 
L 394.296733 689.758317 
L 393.739094 689.526772 
L 393.234563 688.471955 
L 393.234563 687.95741 
L 393.446997 684.767231 
L 393.022129 683.583777 
L 392.358272 683.197869 
L 391.561644 683.223596 
L 390.738462 683.377959 
L 386.62255 685.590503 
L 385.18862 686.285138 
L 383.728135 686.465229 
L 382.187987 686.233684 
L 379.665332 685.744866 
L 373.292308 684.638595 
L 371.035195 681.242598 
L 370.31823 680.264962 
L 369.123288 678.721327 
L 368.087671 677.615056 
L 367.105163 676.508784 
L 366.759958 676.071421 
L 366.494415 675.479694 
L 366.069547 674.090422 
L 365.538462 672.289515 
L 364.131085 669.459518 
L 363.281349 668.276064 
L 361.634984 666.320793 
L 361.077345 666.012066 
L 360.625922 665.986339 
L 360.227608 665.934884 
L 359.882403 665.934884 
L 359.457534 666.037793 
L 359.218546 666.243611 
L 358.767123 666.783884 
L 358.289146 667.272701 
L 357.943941 667.401338 
L 357.280084 667.581428 
L 356.350685 667.581428 
L 355.713383 667.504247 
L 354.837092 667.066883 
L 354.438778 666.783884 
L 353.774921 666.295066 
L 352.500316 665.523248 
L 350.455638 664.159704 
L 349.048261 663.284978 
L 348.809273 662.950524 
L 348.835827 662.255888 
L 348.835827 662.075797 
L 349.897998 658.165255 
L 350.5353 656.750257 
L 351.066386 656.055621 
L 354.093572 653.714441 
L 356.032034 651.964988 
L 356.191359 651.707716 
L 356.164805 651.01308 
L 356.111697 650.627171 
L 355.766491 649.98399 
L 355.129189 649.006355 
L 354.279452 647.951537 
L 352.792413 646.665175 
L 351.358483 645.12154 
L 348.809273 642.111452 
L 347.561222 640.825089 
L 347.269125 640.696453 
L 346.950474 640.670726 
L 346.392835 640.72218 
L 344.693361 641.108089 
L 339.515279 642.240088 
L 339.063857 642.240088 
L 338.692097 642.137179 
L 333.779557 637.223274 
L 333.381243 636.811638 
L 333.354689 636.117003 
L 333.514015 635.653912 
L 333.885774 634.727731 
L 334.363751 633.904459 
L 334.868282 633.33846 
L 336.78019 631.923461 
L 337.922023 631.048735 
L 338.532771 630.225463 
L 338.798314 629.556554 
L 339.010748 628.9391 
L 339.037302 628.064374 
L 338.877977 627.44692 
L 337.656481 625.800376 
L 334.496523 621.092289 
L 330.115068 614.866295 
L 329.291886 613.914387 
L 328.362487 613.142569 
L 325.282192 611.26448 
L 321.936354 609.103391 
L 321.591149 608.9233 
L 321.856691 607.71412 
L 323.290622 606.273394 
L 324.724552 605.501576 
L 326.2647 605.192849 
L 328.44215 604.935577 
L 329.50432 604.318123 
L 330.24784 603.520578 
L 332.42529 598.143583 
L 335.027608 593.178224 
L 337.337829 589.293409 
L 339.754268 586.797866 
L 346.419389 581.883962 
L 348.72961 579.877236 
L 350.641517 577.664693 
L 351.889568 575.966694 
L 354.412223 571.901789 
L 354.385669 571.001335 
L 353.429715 570.512517 
L 351.703688 570.126609 
L 347.162908 568.968883 
L 344.37471 567.785429 
L 342.542466 566.344703 
L 340.94921 564.749614 
L 339.807376 562.434161 
L 338.718651 559.707073 
L 338.453109 557.700347 
L 338.612434 557.057166 
L 339.116965 556.079531 
L 340.57745 554.690259 
L 342.303477 552.837897 
L 342.728346 551.937444 
L 342.701791 551.062717 
L 342.330032 549.030264 
L 341.267861 547.923993 
L 339.966702 547.38372 
L 337.789252 546.997812 
L 336.673973 546.508994 
L 335.346259 545.222632 
L 333.965437 542.675634 
L 333.434352 541.646544 
L 331.841096 539.151001 
L 330.991359 538.585001 
L 329.743309 538.302002 
L 324.432455 538.276274 
L 322.467439 538.868001 
L 320.794521 540.051454 
L 319.573024 541.31209 
L 317.634563 544.039178 
L 316.99726 544.630905 
L 316.067861 544.733814 
L 311.686407 543.704724 
L 310.863224 543.730451 
L 310.119705 544.11636 
L 305.100948 550.445263 
L 303.773235 552.194716 
L 303.348367 552.400534 
L 302.737619 551.834535 
L 302.392413 550.676808 
L 301.409905 547.306539 
L 300.586723 546.431812 
L 299.736986 546.45754 
L 299.338672 546.740539 
L 298.51549 548.206992 
L 297.825079 549.904991 
L 297.506428 550.728263 
L 297.320548 552.554898 
L 296.7098 553.146624 
L 295.355532 553.249533 
L 292.753214 552.889352 
L 288.55764 551.011263 
L 284.760379 549.184628 
L 281.759747 548.875901 
L 280.246154 549.236082 
L 275.360169 553.455351 
L 272.067439 557.262984 
L 267.898419 564.646705 
L 267.075237 565.933067 
L 265.720969 566.318976 
L 263.941834 566.293249 
L 252.895258 566.061703 
L 249.894626 566.113158 
L 246.150474 567.013612 
L 236.298841 574.242969 
L 235.927081 575.477877 
L 235.741201 575.838058 
L 235.767756 577.047239 
L 236.16607 579.645691 
L 236.803372 585.048413 
L 236.829926 586.617775 
L 236.086407 587.672593 
L 235.210116 588.109956 
L 232.182929 588.290047 
L 225.942677 587.41532 
L 224.72118 587.389593 
L 222.570285 587.312411 
L 217.339094 587.672593 
L 214.152582 588.341501 
L 212.161012 589.602136 
L 211.151949 590.554045 
L 209.186934 593.692769 
L 207.328135 594.490314 
L 202.468704 594.876222 
L 200.609905 595.056313 
L 198.432455 596.471312 
L 196.600211 598.220765 
L 195.962908 599.790127 
L 195.830137 603.546305 
L 195.72392 608.691755 
L 194.900738 609.643663 
L 193.227819 610.441208 
L 189.616438 610.492663 
L 189.430558 610.466935 
L 182.606112 609.000482 
L 179.23372 608.717482 
L 176.711064 608.74321 
L 166.859431 610.209663 
L 166.91254 609.849481 
L 166.832877 609.077664 
L 165.664489 606.299121 
L 164.336776 604.112305 
L 163.99157 602.723033 
L 163.858799 600.587672 
L 164.071233 599.069764 
L 164.575764 598.014947 
L 165.61138 596.214039 
L 165.850369 595.570858 
L 165.903477 594.876222 
L 165.876923 592.946679 
L 164.761644 589.370591 
L 163.885353 587.929865 
L 162.292097 586.437685 
L 160.619178 584.636777 
L 160.114647 583.736324 
L 160.114647 583.067415 
L 161.070601 580.571872 
L 161.654795 579.336964 
L 163.009062 576.94433 
L 165.452055 572.519243 
L 166.142466 571.412971 
L 167.948156 570.563972 
L 170.630137 569.226155 
L 171.001897 568.377156 
L 171.001897 567.450975 
L 170.258377 565.521431 
L 167.841939 563.514706 
L 160.698841 560.530345 
L 157.804426 559.526982 
L 156.370495 558.343529 
L 154.724131 556.18244 
L 153.077766 553.944169 
L 152.334247 552.503443 
L 151.962487 551.397171 
L 151.935933 548.901628 
L 152.174921 545.016814 
L 152.838778 541.77518 
L 153.582297 539.742728 
L 153.582297 538.816547 
L 153.130875 537.94182 
L 151.962487 536.706912 
L 149.360169 534.031278 
L 147.527924 531.818735 
L 147.448261 531.329917 
L 147.660695 530.249373 
L 147.660695 529.7091 
L 147.607587 529.323192 
L 147.182719 529.065919 
L 145.961222 529.040192 
L 144.155532 528.937283 
L 140.862803 528.165465 
L 136.534457 526.90483 
L 135.18019 526.364558 
L 134.277345 525.438377 
L 133.560379 524.332105 
L 132.206112 520.087109 
L 132.046786 519.7012 
L 131.303267 517.977475 
L 130.294204 517.154203 
L 126.762487 515.713477 
L 118.079241 513.886842 
L 117.070179 513.423752 
L 116.246997 512.497571 
L 116.034563 511.314117 
L 116.008008 509.358846 
L 115.795574 508.715665 
L 115.21138 508.458393 
L 112.901159 508.20112 
L 110.697155 507.480757 
L 109.342887 506.863303 
L 108.360379 506.091486 
L 106.793678 503.878942 
L 105.014542 502.412489 
L 103.739937 501.84649 
L 102.040464 501.589217 
L 100.447208 501.614944 
L 99.4647 501.434854 
L 98.614963 500.791672 
L 97.897998 500.019855 
L 97.021707 498.47622 
L 95.216017 494.900132 
L 93.596207 493.099225 
L 90.462803 490.732318 
L 88.922655 490.037682 
L 87.515279 489.78041 
L 86.240674 489.806137 
L 84.22255 489.9605 
L 83.213488 490.011955 
L 82.390306 490.114864 
L 81.699895 490.063409 
L 80.42529 489.651773 
L 75.247208 487.773684 
L 73.202529 487.15623 
L 71.476502 487.181958 
L 69.777028 487.490685 
L 68.449315 488.00523 
L 67.36059 488.75132 
L 66.856059 489.111501 
L 66.378082 489.317319 
L 65.92666 489.188683 
L 65.289357 488.648411 
L 64.413066 487.259139 
L 63.536776 485.818413 
L 63.244679 484.377687 
L 63.244679 483.60587 
L 63.085353 480.364237 
L 62.527713 479.412328 
L 62.155954 479.077874 
L 60.801686 478.589056 
L 58.093151 477.920148 
L 53.100948 476.505149 
L 51.906006 475.681877 
L 51.348367 474.91006 
L 50.896944 473.495061 
L 50.31275 470.742245 
L 49.808219 468.967065 
L 49.436459 468.529702 
L 48.613277 468.195248 
L 46.674816 467.526339 
L 39.770706 464.567706 
L 38.841307 464.053161 
L 37.194942 462.998343 
L 34.645732 461.24889 
L 34.00843 460.940163 
L 33.079031 460.7858 
L 27.874394 460.837254 
L 21.049947 460.605709 
L 19.722234 460.013982 
L 17.597893 458.213075 
L 15.261117 456.180622 
L 13.375764 454.997169 
L 11.251423 454.199624 
L 10.8 453.58217 
L 10.8 452.37299 
L 11.304531 449.594447 
L 11.755954 444.860633 
L 11.782508 444.474724 
L 11.782508 444.063088 
L 12.313593 443.85727 
L 12.871233 443.960179 
L 14.650369 444.551906 
L 19.961222 446.121268 
L 30.689146 447.716357 
L 32.999368 447.69063 
L 35.070601 447.356176 
L 35.840674 446.841631 
L 37.221496 439.123456 
L 37.301159 436.705095 
L 37.009062 433.309098 
L 36.849737 429.938828 
L 37.062171 427.623376 
L 38.257113 423.712834 
L 38.575764 422.63229 
L 39.372392 421.886199 
L 41.071865 421.448836 
L 42.983772 421.011473 
L 45.612645 420.882837 
L 48.214963 420.522655 
L 49.011591 419.879474 
L 49.914436 418.387293 
L 50.445522 417.023749 
L 51.906006 415.737387 
L 53.499262 414.553933 
L 55.065964 412.855935 
L 55.384615 411.363754 
L 55.012856 409.897301 
L 55.092518 408.996847 
L 55.172181 408.636666 
L 55.836038 408.276485 
L 56.499895 408.276485 
L 58.677345 408.327939 
L 61.837302 408.559484 
L 64.492729 408.533757 
L 71.290622 406.681395 
L 73.388409 405.600851 
L 74.503688 404.443124 
L 74.955111 403.208216 
L 75.220653 401.973308 
L 75.220653 400.918491 
L 75.406533 394.743951 
L 75.167545 390.704773 
L 75.618967 388.826684 
L 76.62803 386.89714 
L 76.734247 386.099596 
L 76.043836 384.427325 
L 74.875448 382.60069 
L 74.689568 381.623054 
L 75.034773 378.587239 
L 75.194099 377.661058 
L 75.247208 377.429513 
L 76.096944 376.837786 
L 78.486828 375.319878 
L 80.398736 373.930607 
L 82.390306 372.026791 
L 83.611802 370.740428 
L 84.063224 370.457428 
L 84.886407 370.303065 
L 85.098841 370.303065 
L 85.736143 370.303065 
L 88.099473 370.457428 
L 90.19726 370.380247 
L 91.578082 370.174429 
L 93.489989 369.376884 
L 95.003583 368.810884 
L 96.251633 368.47643 
L 103.394731 367.16434 
L 105.43941 366.752704 
L 109.183562 366.70125 
L 109.528767 366.624068 
L 109.873973 366.443977 
L 110.325395 366.006614 
L 110.829926 365.286251 
L 111.546891 363.922707 
L 112.529399 362.816435 
L 112.980822 362.507708 
L 113.458799 362.430527 
L 113.910221 362.481981 
L 115.981454 363.202344 
L 119.513172 365.028979 
L 120.469125 365.260524 
L 121.318862 365.209069 
L 121.74373 365.054706 
L 122.168599 364.694525 
L 122.460695 364.231434 
L 122.540358 363.871253 
L 122.460695 363.047981 
L 122.381033 362.30189 
L 122.48725 361.864527 
L 122.859009 361.581527 
L 124.053952 361.427164 
L 128.382297 360.861164 
L 129.0196 360.861164 
L 129.630348 361.195619 
L 130.665964 362.404799 
L 132.25922 363.794071 
L 133.00274 363.948434 
L 133.507271 363.89698 
L 134.06491 363.536798 
L 134.755321 362.764981 
L 136.534457 361.658709 
L 138.632244 360.603892 
L 143.651001 359.085984 
L 145.828451 358.46853 
L 146.864067 358.314167 
L 148.9353 358.494257 
L 150.236459 358.46853 
L 151.776607 358.159803 
L 155.759747 357.902531 
L 162.026554 358.494257 
L 161.946891 350.544537 
L 162.238988 348.100449 
L 162.716965 345.836451 
L 163.248051 343.906907 
L 164.469547 340.639547 
L 165.159958 339.224548 
L 166.036249 337.24355 
L 166.222129 336.909095 
L 166.461117 336.626096 
L 166.832877 336.39455 
L 167.443625 336.034369 
L 167.97471 335.905733 
L 168.293361 335.828551 
L 169.275869 335.725642 
L 170.311486 335.622733 
L 170.550474 335.519824 
L 170.736354 335.262552 
L 170.869125 334.850916 
L 170.948788 334.413552 
L 171.028451 333.152917 
L 171.187777 331.5321 
L 171.267439 331.094737 
L 171.506428 330.451556 
L 171.692308 329.911284 
L 172.037513 328.907921 
L 172.781033 326.926923 
L 173.07313 325.949287 
L 173.365227 324.61147 
L 173.471444 324.199834 
L 173.524552 323.762471 
L 173.657323 323.299381 
L 173.816649 322.887745 
L 174.214963 322.218836 
L 174.480506 321.678564 
L 177.003161 318.668476 
L 180.322445 314.577843 
L 181.623604 313.034208 
L 181.862592 312.545391 
L 182.021918 311.850755 
L 181.995364 311.027483 
L 181.942255 310.332847 
L 181.703267 309.612484 
L 181.517387 309.175121 
L 181.145627 308.660576 
L 180.508325 307.940213 
L 180.083456 307.605759 
L 179.924131 307.297032 
L 179.924131 307.116941 
L 180.030348 306.679578 
L 180.747313 305.290306 
L 183.084089 301.096765 
L 184.783562 297.880859 
L 186.031612 295.308134 
L 186.881349 293.584408 
L 189.032244 289.416594 
L 189.297787 288.953503 
L 189.404004 288.619049 
L 189.589884 288.336049 
L 191.953214 288.747685 
L 193.599579 289.287957 
L 195.060063 289.905411 
L 196.334668 289.956866 
L 199.547734 289.54523 
L 202.495258 288.79914 
L 203.371549 288.361776 
L 204.752371 286.946778 
L 205.894204 285.042961 
L 206.876712 284.11678 
L 207.567123 283.782326 
L 209.877345 283.216327 
L 210.753635 283.061963 
L 211.523709 285.377415 
L 211.948577 286.560869 
L 212.559326 287.872959 
L 213.940148 290.960229 
L 214.20569 291.912137 
L 214.604004 293.121317 
L 214.869547 294.433407 
L 215.161644 295.025134 
L 215.506849 295.977042 
L 216.117597 297.546404 
L 216.19726 298.035222 
L 216.19726 298.601222 
L 216.117597 299.244403 
L 215.798946 300.067675 
L 215.002318 300.633674 
L 212.984194 301.688491 
L 212.426554 302.228764 
L 211.762698 303.000581 
L 211.603372 303.515126 
L 211.603372 304.389853 
L 212.479663 307.399941 
L 212.612434 307.785849 
L 213.462171 310.564392 
L 213.701159 311.207574 
L 214.418124 312.339573 
L 215.559958 313.471572 
L 219.171338 316.070024 
L 220.605269 316.919023 
L 221.773656 316.893296 
L 223.605901 316.378751 
L 227.854584 314.860843 
L 228.491886 314.346298 
L 228.598103 313.85748 
L 228.70432 313.265754 
L 229.129189 312.751209 
L 229.978925 312.339573 
L 234.147945 311.696391 
L 237.679663 311.670664 
L 238.555954 311.850755 
L 240.281981 312.82839 
L 242.32666 314.500661 
L 245.035195 316.250114 
L 246.548788 316.841841 
L 247.398525 316.919023 
L 249.54942 316.610296 
L 252.417281 315.195297 
L 253.054584 314.783661 
L 253.90432 313.368663 
L 255.471022 310.693029 
L 256.320759 309.869757 
L 257.807798 309.072212 
L 260.171128 308.24894 
L 264.340148 308.120304 
L 266.384826 308.377576 
L 267.765648 308.969303 
L 268.429505 309.766848 
L 269.969652 312.030846 
L 271.031823 313.008481 
L 271.908114 313.188572 
L 274.802529 313.059936 
L 276.077134 313.240026 
L 279.741623 314.706479 
L 281.680084 315.761297 
L 284.601054 318.025295 
L 286.141201 319.697566 
L 287.097155 320.289293 
L 289.354268 320.546565 
L 296.019389 321.189746 
L 300.32118 321.189746 
L 302.153425 321.086837 
L 303.507692 320.77811 
L 304.649526 320.546565 
L 305.817914 320.495111 
L 307.703267 320.675201 
L 308.47334 320.932474 
L 309.429294 321.266928 
L 310.252476 321.575655 
L 310.624236 321.627109 
L 311.075659 321.5242 
L 311.261538 321.189746 
L 311.102213 320.520838 
L 309.58862 318.102476 
L 309.243414 317.330659 
L 309.110643 316.713205 
L 309.110643 316.327296 
L 309.243414 315.941387 
L 309.535511 315.606933 
L 309.854162 315.478297 
L 310.146259 315.529751 
L 310.730453 316.018569 
L 312.031612 317.639386 
L 312.907903 318.951476 
L 313.332771 319.56893 
L 313.651423 319.877657 
L 314.049737 319.980566 
L 317.262803 319.954838 
L 318.032877 319.980566 
L 318.484299 320.057747 
L 318.723288 320.237838 
L 318.856059 320.649474 
L 320.130664 325.563379 
L 320.821075 328.907921 
L 321.086617 329.242375 
L 322.148788 329.731193 
L 323.104742 330.271465 
L 323.52961 330.683101 
L 324.459009 332.278191 
L 324.830769 333.281553 
L 324.883878 333.667462 
L 324.883878 333.87328 
L 324.751106 334.259189 
L 324.432455 334.773734 
L 324.246575 335.108188 
L 324.220021 335.442642 
L 324.644889 335.957187 
L 325.972603 336.986277 
L 327.194099 337.809549 
L 327.88451 338.066822 
L 328.335933 338.066822 
L 330.646154 337.063459 
L 331.708325 336.729005 
L 332.850158 336.754732 
L 336.673973 337.166368 
L 338.638988 337.397913 
L 339.594942 337.680913 
L 339.966702 338.118276 
L 340.099473 338.529912 
L 340.232244 339.276002 
L 340.20569 340.382274 
L 340.20569 340.768183 
L 340.365016 341.179819 
L 340.76333 341.514273 
L 343.365648 343.032181 
L 346.021075 344.34427 
L 348.490622 345.167542 
L 354.438778 347.482995 
L 356.350685 348.383449 
L 357.465964 349.052357 
L 358.554689 350.467356 
L 360.519705 354.583716 
L 362.219178 357.413713 
L 363.865543 360.192256 
L 365.804004 361.787345 
L 369.57471 365.363433 
L 372.336354 367.524522 
L 378.151739 367.653158 
L 379.691886 367.627431 
L 380.169863 367.601704 
L 381.656902 364.154252 
L 386.728767 364.051343 
L 386.967756 366.032341 
L 387.684721 366.469705 
L 389.729399 367.550249 
L 391.481981 368.656521 
L 392.96902 369.762793 
L 395.412013 372.103972 
L 397.722234 374.007789 
L 395.040253 379.256148 
L 397.961222 380.336692 
L 403.67039 373.699062 
L 407.255216 376.683423 
L 403.378293 383.861325 
L 405.582297 385.533596 
L 406.060274 386.15105 
L 406.591359 387.257322 
L 407.998736 391.245046 
L 410.069968 397.059404 
L 411.981876 401.793218 
L 412.114647 402.822308 
L 412.273973 403.491216 
L 412.831612 403.851398 
L 414.690411 404.237306 
L 415.566702 404.751851 
L 416.947524 406.398395 
L 418.832877 408.610939 
L 418.91254 409.048302 
L 418.91254 410.103119 
L 418.992202 410.591937 
L 420.426133 412.547208 
L 423.400211 416.560659 
L 423.878188 416.612113 
L 429.613909 416.303386 
L 429.560801 415.866023 
L 428.12687 411.003573 
L 428.206533 410.489028 
L 429.348367 406.475577 
L 430.649526 402.410672 
L 435.323077 402.204854 
L 435.854162 401.664581 
L 437.39431 399.889401 
L 437.845732 399.554947 
L 438.297155 399.323402 
L 439.040674 399.117584 
L 440.527713 399.194766 
L 442.386512 399.091857 
L 442.891043 399.014675 
L 443.846997 398.731675 
L 445.758904 397.316676 
L 447.644257 395.747314 
L 449.503056 393.946407 
L 450.034141 393.586225 
L 450.432455 393.586225 
L 451.016649 393.689134 
L 451.282192 393.972134 
L 451.946048 395.361405 
L 452.424025 396.210405 
L 452.822339 396.596313 
L 453.32687 396.699222 
L 455.238778 395.618678 
L 455.929189 395.387133 
L 456.513383 395.490042 
L 457.017914 395.773041 
L 457.283456 396.493404 
L 457.761433 397.419585 
L 458.42529 398.191403 
L 459.434352 398.96322 
L 461.027608 399.863674 
L 462.142887 400.55831 
L 462.541201 401.278673 
L 463.337829 403.877125 
L 463.656481 404.134397 
L 464.77176 404.134397 
L 469.710854 403.902852 
L 473.932982 403.774216 
L 474.596839 403.594125 
L 474.968599 403.414034 
L 475.10137 403.105307 
L 475.234141 401.741763 
L 475.234141 399.143311 
L 475.260695 398.242857 
L 475.393467 397.445313 
L 475.526238 397.136586 
L 475.897998 396.776404 
L 476.508746 396.596313 
L 478.340991 396.570586 
L 481.474394 396.776404 
L 484.156375 397.136586 
L 488.431612 398.062767 
L 490.768388 398.808857 
L 491.830558 399.323402 
L 493.131718 400.146674 
L 496.212013 402.642217 
L 497.008641 403.182489 
L 498.097366 403.594125 
L 499.425079 403.82567 
L 502.053952 404.134397 
L 502.6647 404.057216 
L 506.700948 403.542671 
L 506.488514 399.709311 
L 506.249526 395.927405 
L 506.116754 389.958683 
L 506.249526 388.929593 
L 506.568177 387.643231 
L 507.683456 385.250597 
L 508.320759 383.578325 
L 508.931507 382.008963 
L 509.117387 380.516783 
L 508.904953 378.432876 
L 508.506639 377.249422 
L 507.178925 373.853425 
L 506.116754 371.512246 
L 505.851212 370.688974 
L 505.851212 369.556975 
L 505.957429 368.939521 
L 506.27608 368.707975 
L 507.524131 368.450703 
L 510.737197 368.47643 
L 512.542887 368.605066 
L 512.728767 368.630794 
L 514.534457 368.862339 
L 515.729399 369.068157 
L 516.897787 369.145339 
L 518.41138 369.171066 
L 520.482613 369.04243 
L 522.553846 368.322067 
L 524.040885 367.73034 
L 524.492308 367.73034 
L 529.325184 367.421613 
L 530.891886 367.421613 
L 531.210537 367.575976 
L 531.608851 368.064794 
L 532.193045 369.325429 
L 532.963119 370.045792 
L 533.892518 370.122974 
L 534.317387 370.07152 
L 535.326449 369.145339 
L 536.229294 368.01334 
L 537.052476 366.958522 
L 537.557007 366.495432 
L 538.247418 366.546886 
L 539.601686 366.958522 
L 541.43393 367.421613 
L 542.283667 368.219158 
L 542.442993 369.016702 
L 542.867861 369.351157 
L 543.930032 369.50552 
L 544.939094 369.376884 
L 545.417071 369.299702 
L 547.939726 368.733703 
L 551.152792 367.344431 
L 554.100316 365.903705 
L 556.251212 364.668797 
L 558.747313 363.588253 
L 559.836038 363.253799 
L 560.393678 363.125162 
L 561.668282 363.047981 
L 562.438356 363.125162 
L 563.420864 363.871253 
L 564.270601 365.131888 
L 565.040674 367.473067 
L 565.465543 367.884703 
L 566.129399 367.781794 
L 568.227187 366.366796 
L 568.758272 366.469705 
L 569.315911 366.778432 
L 572.051001 369.814247 
L 573.325606 371.177791 
L 573.9098 371.640882 
L 574.493994 372.001063 
L 574.865753 372.001063 
L 575.848261 371.743791 
L 576.644889 371.10061 
L 577.441517 370.380247 
L 577.813277 370.122974 
L 578.503688 369.942883 
L 579.406533 370.097247 
L 582.805479 370.457428 
L 583.734879 370.869064 
L 585.275026 371.332155 
L 586.204426 371.615155 
L 588.434984 371.615155 
L 590.081349 371.177791 
L 592.232244 370.457428 
L 593.400632 369.891429 
L 593.852055 369.299702 
L 593.852055 368.707975 
L 593.772392 368.116249 
L 593.852055 367.421613 
L 594.781454 366.804159 
L 596.00295 366.006614 
L 596.37471 365.95516 
L 597.012013 365.95516 
L 602.375975 366.058069 
L 603.27882 366.392523 
L 604.367545 367.190068 
L 605.350053 367.858976 
L 607.899262 368.862339 
L 609.412856 369.351157 
L 610.501581 369.428338 
L 610.846786 369.196793 
L 611.404426 368.75943 
L 611.908957 368.707975 
L 612.546259 368.913793 
L 613.263224 369.119611 
L 613.820864 369.994338 
L 614.644046 371.615155 
L 615.440674 372.30979 
L 616.582508 373.261698 
L 618.016438 373.801971 
L 621.601264 374.393697 
L 622.026133 374.445152 
L 622.743098 374.445152 
L 625.823393 374.213607 
L 626.540358 374.213607 
L 627.602529 373.956334 
L 628.531928 373.235971 
L 629.195785 372.129699 
L 629.700316 371.254973 
L 630.072076 370.920519 
L 630.629715 370.869064 
L 632.568177 371.074882 
L 633.497576 371.10061 
L 633.922445 370.971973 
L 634.506639 370.303065 
L 635.568809 369.376884 
L 636.07334 369.196793 
L 637.294837 369.196793 
L 638.144573 369.608429 
L 639.339515 370.740428 
L 640.454795 372.412699 
L 641.35764 373.62188 
L 642.499473 374.548061 
L 643.428872 375.499969 
L 645.208008 378.844512 
L 647.624447 382.137599 
L 648.845943 383.038053 
L 649.69568 383.166689 
L 651.12961 383.192417 
L 651.766913 383.655507 
L 652.032455 384.324416 
L 652.032455 385.790869 
L 652.165227 386.305414 
L 652.457323 386.922868 
L 653.094626 387.437413 
L 653.731928 387.46314 
L 654.236459 387.334504 
L 654.740991 386.922868 
L 655.006533 386.922868 
L 655.590727 387.205867 
L 656.095258 387.540322 
L 656.148367 388.466503 
L 656.148367 389.392684 
L 656.068704 390.241683 
L 656.04215 390.859137 
L 656.254584 391.450864 
L 657.051212 391.8625 
L 659.387987 392.068318 
L 662.096523 393.226044 
L 663.530453 393.817771 
L 664.592624 394.769679 
L 665.283035 395.438587 
L 665.229926 395.824496 
L 664.56607 396.339041 
L 664.141201 396.750677 
L 664.141201 397.47104 
L 664.698841 398.474403 
L 665.548577 399.52922 
L 666.955954 401.613127 
L 667.726027 402.539308 
L 668.230558 402.873762 
L 669.292729 402.745126 
L 670.089357 402.693671 
L 670.275237 402.770853 
L 670.72666 402.950944 
L 671.284299 403.82567 
L 671.257745 405.214942 
L 671.523288 407.607576 
L 671.921602 409.871574 
L 672.34647 411.518118 
L 672.877555 412.727299 
L 675.187777 415.531569 
L 675.77197 415.968932 
L 676.303056 416.123295 
L 677.630769 416.097568 
L 678.639831 416.432022 
L 680.68451 418.438748 
L 681.109378 419.081929 
L 681.003161 419.519292 
L 675.479874 423.815743 
L 679.038145 429.26992 
L 679.781665 429.604374 
L 682.702634 430.427646 
L 686.048472 431.585372 
L 686.28746 432.022735 
L 686.28746 432.846007 
L 686.181243 433.154734 
L 685.490832 433.797916 
L 683.127503 434.646915 
L 682.11844 435.367278 
L 681.693572 436.087641 
L 681.534247 436.885186 
L 681.667018 437.68273 
L 682.30432 438.557457 
L 685.756375 439.766637 
L 689.367756 440.615637 
L 690.987566 441.593272 
L 693.483667 443.702907 
L 696.457745 447.330449 
L 699.060063 449.542992 
L 700.148788 450.520628 
L 700.520548 450.700718 
L 700.892308 450.700718 
L 701.104742 450.649264 
L 701.317176 450.31481 
L 701.449947 449.723083 
L 701.449947 449.259992 
L 701.34373 448.43672 
L 701.449947 447.742085 
L 701.874816 447.330449 
L 702.352792 447.176085 
L 702.936986 447.176085 
L 704.370917 447.459085 
L 707.769863 448.976993 
L 709.920759 450.623537 
L 713.346259 454.251079 
L 714.939515 455.125805 
L 715.258166 455.125805 
L 716.187566 453.993806 
L 717.754268 451.832717 
L 720.728346 452.938989 
L 721.31254 452.990443 
L 721.365648 452.784625 
L 721.471865 452.244353 
L 721.524974 450.03181 
L 721.896733 448.205175 
L 722.109168 447.22754 
L 722.719916 445.91545 
L 723.171338 445.580996 
L 723.596207 445.580996 
L 723.728978 445.709632 
L 725.003583 446.970267 
L 727.552792 449.594447 
L 729.730242 452.192899 
L 731.854584 454.276806 
L 732.969863 455.280169 
L 737.377871 459.29362 
L 737.829294 459.525165 
L 738.413488 459.550892 
L 739.475659 459.422256 
L 743.485353 458.418893 
L 744.998946 458.110166 
L 749.3804 454.070988 
L 749.672497 453.556443 
L 749.75216 452.244353 
L 749.699052 451.421081 
L 749.406955 450.417719 
L 749.433509 449.74881 
L 750.787777 447.433358 
L 751.531296 444.063088 
L 757.134247 441.207363 
L 758.913383 441.464636 
L 760.320759 441.876272 
L 762.25922 442.416544 
L 762.81686 442.390817 
L 763.693151 441.850545 
L 764.25079 441.310272 
L 764.675659 441.310272 
L 768.41981 441.670454 
L 769.242993 441.824817 
L 770.225501 442.905362 
L 771.287671 443.831543 
L 772.296733 444.114543 
L 773.651001 443.651452 
L 775.164594 443.136907 
L 776.040885 443.239816 
L 776.890622 443.522816 
L 777.607587 444.114543 
L 778.112118 444.860633 
L 778.085564 445.838268 
L 778.377661 446.404268 
L 778.722866 446.970267 
L 779.041517 447.459085 
L 779.519494 448.102266 
L 779.731928 448.205175 
L 780.05058 448.282357 
L 781.006533 448.230902 
L 782.520126 447.793539 
L 783.608851 447.459085 
L 785.414542 446.790176 
L 785.706639 446.224177 
L 785.573867 445.323723 
L 785.148999 444.320361 
L 783.900948 442.287908 
L 783.529189 441.464636 
L 783.47608 440.77 
L 783.715068 440.178273 
L 784.378925 439.74091 
L 791.415806 436.164823 
L 791.787566 436.267732 
L 792.18588 436.627913 
L 792.849737 437.50264 
L 794.124341 439.509365 
L 797.178082 442.36509 
L 801.984405 437.734185 
L 803.975975 435.598823 
L 804.480506 434.672642 
L 805.011591 432.691644 
L 805.170917 431.971281 
L 805.383351 431.585372 
L 806.073762 430.659191 
L 806.843836 429.167011 
L 807.24215 428.678193 
L 807.746681 428.369466 
L 809.100948 428.266557 
L 811.119073 428.292284 
L 811.623604 428.549557 
L 812.47334 429.347102 
L 813.747945 431.096554 
L 814.438356 432.82028 
L 814.995996 433.540643 
L 815.712961 433.746461 
L 816.64236 433.360552 
L 817.996628 432.846007 
L 818.501159 432.331462 
L 818.660485 431.405281 
L 818.660485 430.273283 
L 818.81981 429.887374 
L 819.111907 429.604374 
L 824.210327 424.896287 
L 824.953846 424.021561 
L 825.670811 424.047288 
L 826.361222 424.381742 
L 827.71549 425.256469 
L 828.618335 426.517104 
L 829.361855 427.546194 
L 829.999157 428.086466 
L 830.795785 428.24083 
L 832.574921 427.649103 
L 835.522445 426.620013 
L 837.514015 425.89965 
L 838.60274 425.925377 
L 839.293151 426.46565 
L 840.22255 427.134558 
L 840.727081 427.134558 
L 841.205058 427.005922 
L 841.948577 426.156923 
L 843.249737 424.639015 
L 843.462171 424.304561 
L 843.754268 423.918652 
L 843.83393 423.584198 
L 844.710221 421.397382 
L 844.789884 421.140109 
L 844.789884 420.882837 
L 844.418124 420.471201 
L 842.877977 419.390656 
L 841.868915 418.721748 
L 841.736143 418.387293 
L 841.736143 418.181475 
L 841.895469 417.795567 
L 843.037302 416.534931 
L 844.046365 415.685932 
L 844.126027 415.351478 
L 844.126027 414.965569 
L 843.913593 414.708297 
L 843.143519 413.83357 
L 842.718651 413.293298 
L 841.603372 408.739575 
L 841.603372 408.276485 
L 842.107903 407.633303 
L 842.612434 407.350304 
L 843.116965 407.298849 
L 843.674605 407.710485 
L 845.13509 409.202665 
L 846.091043 409.588574 
L 846.436249 409.588574 
L 846.861117 409.331302 
L 847.100105 408.327939 
L 849.171338 402.565035 
L 849.410327 401.638854 
L 849.835195 400.584037 
L 850.472497 399.606402 
L 850.977028 399.349129 
L 851.773656 399.297675 
L 853.977661 399.323402 
L 854.163541 399.297675 
L 854.986723 399.194766 
L 856.128556 398.603039 
L 856.765859 398.294312 
L 857.482824 398.21713 
L 859.474394 398.242857 
L 860.271022 398.525857 
L 860.828662 399.374856 
L 861.678398 400.84131 
L 862.076712 402.822308 
L 862.501581 403.233944 
L 863.271654 403.516943 
L 864.280717 403.516943 
L 864.413488 403.336853 
L 864.440042 401.947581 
L 864.652476 401.664581 
L 865.289779 401.690309 
L 869.299473 402.384944 
L 870.361644 402.384944 
L 870.547524 402.822308 
L 870.096101 403.954307 
L 870.016438 404.67467 
L 869.989884 406.012487 
L 870.33509 407.530394 
L 871.025501 409.331302 
L 871.848683 410.514755 
L 872.592202 411.0293 
L 873.441939 411.543845 
L 874.31823 412.135572 
L 875.539726 413.164662 
L 877.106428 414.013661 
L 885.789673 417.615476 
L 886.63941 417.898476 
L 887.276712 417.847021 
L 888.285774 416.972295 
L 889.666596 415.274296 
L 890.728767 414.348115 
L 892.534457 413.782116 
L 893.755954 413.396207 
L 894.60569 413.138935 
L 895.030558 413.138935 
L 895.455427 413.216116 
L 895.959958 413.807843 
L 896.517597 413.885025 
L 897.022129 413.627752 
L 898.110854 412.495753 
L 898.801264 411.492391 
L 899.226133 410.56621 
L 900.022761 409.845847 
L 900.899052 409.25412 
L 902.465753 408.739575 
L 904.616649 408.50803 
L 907.192413 410.28321 
L 909.369863 411.363754 
L 910.378925 411.698209 
L 911.998736 412.212754 
L 912.848472 412.62439 
L 913.114015 413.216116 
L 915.158693 416.817931 
L 915.503899 417.615476 
L 915.557007 418.747475 
L 915.530453 420.213928 
L 915.371128 422.400744 
L 915.503899 423.326925 
L 916.061538 424.175924 
L 917.495469 426.002559 
L 919.088725 427.983557 
L 919.858799 428.678193 
L 922.142466 429.475738 
L 923.178082 429.784465 
L 924.505796 430.401919 
L 925.647629 431.199463 
L 926.7098 432.151372 
L 927.77197 433.412007 
L 929.94942 436.499277 
L 930.347734 437.013822 
L 930.347734 437.425458 
L 930.214963 437.940003 
L 929.418335 439.072002 
L 929.338672 439.45791 
L 929.630769 439.998183 
L 930.50706 440.101092 
L 932.578293 439.509365 
L 933.454584 439.355001 
L 933.799789 439.355001 
L 934.729189 439.74091 
L 935.499262 440.77 
L 936.402107 442.416544 
L 936.561433 443.39418 
L 936.561433 443.960179 
L 936.428662 444.371815 
L 936.216228 444.680542 
L 934.888514 445.683905 
L 934.543309 446.095541 
L 934.437092 446.404268 
L 934.463646 446.66154 
L 935.4196 447.304721 
L 935.738251 447.433358 
L 936.29589 447.664903 
L 937.570495 447.767812 
L 938.951317 447.947903 
L 939.562065 448.102266 
L 939.880717 448.462448 
L 940.093151 449.28572 
L 940.305585 449.877446 
L 940.624236 450.803627 
L 941.128767 451.755536 
L 941.951949 452.578807 
L 942.403372 452.733171 
L 942.64236 452.758898 
L 943.916965 452.938989 
L 945.430558 452.913262 
L 946.174078 452.604535 
L 946.99726 452.038535 
L 950.130664 449.954628 
L 953.025079 447.896448 
L 953.954478 447.150358 
L 954.697998 446.172722 
L 954.910432 445.323723 
L 954.910432 441.876272 
L 954.671444 440.924364 
L 953.927924 439.432183 
L 953.795153 438.403093 
L 954.751106 437.039549 
L 956.291254 435.804641 
L 957.008219 435.804641 
L 958.123498 436.164823 
L 958.999789 436.705095 
L 960.858588 438.197275 
L 961.734879 438.99482 
L 962.212856 439.406456 
L 962.929821 439.715183 
L 963.381243 439.715183 
L 964.23098 439.27782 
L 965.160379 438.403093 
L 965.903899 437.476912 
L 966.461538 436.859458 
L 967.098841 436.344913 
L 970.01981 435.264369 
L 971.081981 435.135733 
L 971.745838 435.135733 
L 972.622129 435.341551 
L 973.392202 435.933277 
L 974.215385 437.065276 
L 974.905796 437.68273 
L 975.967966 438.274457 
L 977.428451 438.608911 
L 978.968599 438.840456 
L 980.402529 438.531729 
L 982.420653 438.042912 
L 983.08451 438.042912 
L 983.854584 438.42882 
L 985.155743 439.149183 
L 985.872708 439.946728 
L 988.501581 445.34945 
L 988.953003 445.889723 
L 989.377871 447.330449 
L 989.43098 447.896448 
L 989.351317 448.205175 
L 988.979557 448.71972 
L 988.236038 449.517265 
L 987.06765 450.700718 
L 985.660274 451.652627 
L 984.863646 452.192899 
L 984.51844 452.55308 
L 982.155111 454.456897 
L 983.509378 455.666077 
L 984.810537 457.209712 
L 985.978925 459.01062 
L 986.164805 459.242165 
L 987.094204 460.399891 
L 987.704953 460.862982 
L 989.908957 461.81489 
L 994.476291 463.152707 
L 995.96333 463.718706 
L 997.503477 464.387615 
L 997.822129 464.61916 
L 999.999579 466.137068 
L 1002.814331 467.577794 
L 1005.257323 468.581156 
L 1012.26765 474.781423 
L 1013.19705 475.476059 
L 1017.020864 477.791512 
L 1018.667229 478.563329 
L 1022.703477 479.952601 
L 1023.181454 480.261328 
L 1023.367334 480.827327 
L 1023.393888 481.727781 
L 1022.995574 482.911234 
L 1022.836249 483.554415 
L 1022.59726 484.429142 
L 1022.305163 485.123778 
L 1021.880295 486.204322 
L 1021.508535 487.387776 
L 1020.79157 489.909046 
L 1020.79157 490.372136 
L 1020.765016 490.8095 
L 1020.79157 491.195408 
L 1020.844679 491.581317 
L 1021.136776 491.684226 
L 1022.384826 491.349772 
L 1023.553214 490.732318 
L 1025.465121 489.240137 
L 1027.562908 487.953775 
L 1028.598525 487.567866 
L 1029.766913 487.310594 
L 1030.616649 487.362048 
L 1031.652266 487.876593 
L 1033.006533 489.085774 
L 1033.909378 489.677501 
L 1034.281138 489.78041 
L 1035.051212 489.806137 
L 1035.927503 489.626046 
L 1038.02529 488.828502 
L 1039.6451 488.030957 
L 1041.185248 487.027594 
L 1042.19431 486.204322 
L 1043.176818 485.561141 
L 1043.522023 485.458232 
L 1044.238988 485.175232 
L 1045.80569 484.866505 
L 1046.628872 484.63496 
L 1047.452055 484.557778 
L 1048.036249 484.454869 
L 1048.753214 484.403415 
L 1051.461749 484.429142 
L 1056.427397 484.892232 
L 1060.012223 489.394501 
L 1061.685142 490.577954 
L 1062.959747 491.375499 
L 1063.543941 491.632772 
L 1064.446786 491.941499 
L 1065.296523 492.327407 
L 1065.854162 492.687589 
L 1067.234984 493.742406 
L 1067.951949 494.256951 
L 1068.615806 494.848678 
L 1069.120337 495.517586 
L 1069.2 495.852041 
L 1069.120337 496.057859 
L 1066.624236 499.376674 
L 1066.385248 500.277127 
L 1066.385248 501.56349 
L 1066.863224 504.727941 
L 1066.385248 504.83085 
L 1065.986934 505.165305 
L 1065.137197 505.448304 
L 1064.632666 505.654122 
L 1063.304953 505.911395 
L 1061.977239 505.988577 
L 1061.074394 506.065758 
L 1060.357429 506.683212 
L 1059.42803 508.098211 
L 1059.321812 509.641846 
L 1059.507692 512.626207 
L 1059.215595 514.118387 
L 1057.409905 516.073658 
L 1056.427397 516.819749 
L 1055.604215 517.231385 
L 1051.7804 519.032292 
L 1049.815385 520.421563 
L 1046.602318 521.450653 
L 1045.858799 521.733653 
L 1045.327713 521.527835 
L 1044.584194 521.116199 
L 1042.539515 518.929383 
L 1042.141201 518.620656 
L 1041.902213 518.543474 
L 1041.689779 518.620656 
L 1041.397682 518.877928 
L 1040.840042 520.138564 
L 1040.601054 520.5502 
L 1040.176185 520.884654 
L 1039.777871 520.987563 
L 1039.27334 520.910381 
L 1036.910011 520.061382 
L 1036.591359 520.087109 
L 1036.511697 520.395836 
L 1036.617914 520.781745 
L 1037.626976 521.75938 
L 1038.768809 523.122925 
L 1039.83098 524.409287 
L 1039.751317 524.615105 
L 1039.406112 524.769469 
L 1038.078398 525.232559 
L 1037.228662 525.515559 
L 1036.883456 525.824286 
L 1036.697576 526.261649 
L 1036.617914 527.445102 
L 1036.485142 527.65092 
L 1036.139937 528.757192 
L 1035.954057 530.069282 
L 1035.47608 530.73819 
L 1035.157429 530.969736 
L 1033.404847 531.252735 
L 1030.696312 531.227008 
L 1029.87313 531.998826 
L 1029.87313 533.07937 
L 1029.607587 534.211369 
L 1028.890622 535.13755 
L 1027.456691 535.729277 
L 1025.544784 535.626368 
L 1022.59726 535.832186 
L 1021.880295 536.295276 
L 1021.375764 537.041366 
L 1021.375764 537.65882 
L 1021.614752 538.199093 
L 1022.252055 538.50782 
L 1023.101791 539.151001 
L 1023.659431 539.922818 
L 1023.818757 540.617454 
L 1023.234563 541.234908 
L 1021.561644 542.675634 
L 1020.924341 543.112997 
L 1020.950896 543.936269 
L 1021.375764 544.553723 
L 1022.198946 545.222632 
L 1022.836249 545.994449 
L 1023.287671 546.766267 
L 1023.261117 547.332266 
L 1023.181454 547.872538 
L 1023.314226 548.901628 
L 1023.234563 550.059354 
L 1023.048683 551.165626 
L 1023.128346 551.78308 
L 1023.314226 552.323352 
L 1023.978082 552.81217 
L 1026.208641 553.275261 
L 1026.95216 553.532533 
L 1027.270811 553.712624 
L 1027.32392 553.995624 
L 1026.95216 554.690259 
L 1026.421075 555.590713 
L 1026.421075 556.388258 
L 1027.297366 557.365893 
L 1029.527924 558.575074 
L 1030.377661 559.346891 
L 1030.775975 560.067254 
L 1030.775975 560.453163 
L 1030.563541 561.276435 
L 1030.005901 561.868162 
L 1022.703477 564.106432 
L 1020.738462 564.929704 
L 1020.180822 565.16125 
L 1018.879663 565.958794 
L 1013.515701 568.016974 
L 1012.904953 568.402883 
L 1012.45353 570.152336 
L 1013.143941 571.567335 
L 1015.321391 573.471151 
L 1017.525395 575.16915 
L 1017.870601 575.812331 
L 1017.844046 576.455512 
L 1017.578504 577.175875 
L 1016.118019 581.472326 
L 1015.799368 582.913052 
L 1015.162065 583.427597 
L 1013.356375 584.662504 
L 1011.338251 585.64014 
L 1010.355743 585.820231 
L 1009.798103 585.820231 
L 1008.682824 585.743049 
L 1007.036459 585.665867 
L 1006.346048 585.64014 
L 1005.336986 585.948867 
L 1004.991781 586.206139 
L 1004.67313 586.463412 
L 1002.336354 590.116681 
L 1002.044257 590.759863 
L 1002.044257 591.222953 
L 1002.522234 591.917589 
L 1003.265753 593.255406 
L 1003.398525 594.027223 
L 1003.398525 594.541768 
L 1003.079874 595.08204 
L 1001.274183 596.291221 
L 999.813699 596.805766 
L 999.57471 597.217402 
L 998.273551 600.561944 
L 998.220443 600.947853 
L 998.193888 601.899761 
L 998.671865 603.777851 
L 998.724974 604.935577 
L 998.645311 605.578758 
L 998.273551 606.170485 
L 997.901791 607.070938 
L 996.706849 610.569844 
L 996.866175 612.319297 
L 997.21138 613.708569 
L 997.981454 615.509476 
L 998.14078 615.895385 
L 999.043625 617.310384 
L 999.20295 617.593383 
L 999.229505 617.90211 
L 998.804636 618.879746 
L 998.061117 620.449108 
L 996.972392 621.915561 
L 996.281981 622.404379 
L 994.210748 622.76456 
L 993.493783 623.150469 
L 993.22824 623.536378 
L 992.803372 624.797013 
L 992.644046 626.340648 
L 993.04236 627.112466 
L 996.839621 630.122554 
L 997.901791 632.463733 
L 999.070179 636.271366 
L 998.724974 636.88882 
L 998.167334 637.506274 
L 996.892729 638.535364 
L 991.183562 642.986178 
L 981.331928 648.9549 
L 980.747734 649.006355 
L 979.074816 648.363173 
L 973.551528 645.687539 
L 971.002318 644.426904 
L 970.126027 644.478359 
L 968.453109 645.558903 
L 967.895469 646.021994 
L 966.886407 646.124903 
L 965.718019 645.816176 
L 963.885774 645.044358 
L 961.86765 644.066723 
L 961.177239 643.886632 
L 960.407165 643.912359 
L 958.389041 645.044358 
L 953.237513 648.131628 
L 951.35216 649.160718 
L 948.962276 649.469445 
L 946.81138 649.443718 
L 944.872919 649.160718 
L 942.456481 648.697628 
L 941.76607 648.285992 
L 941.633298 647.900083 
L 941.58019 647.334083 
L 941.527081 646.021994 
L 941.181876 645.12154 
L 940.491465 644.401177 
L 940.013488 643.963814 
L 939.40274 643.500723 
L 937.59705 643.217723 
L 936.428662 642.883269 
L 935.738251 641.982816 
L 935.685142 641.262453 
L 935.499262 640.54209 
L 934.543309 639.564454 
L 933.773235 639.255727 
L 932.631401 639.075636 
L 932.206533 638.355273 
L 931.808219 637.557729 
L 931.330242 635.885457 
L 931.303688 635.242276 
L 931.940991 634.238914 
L 932.206533 633.132642 
L 932.365859 632.489461 
L 932.365859 632.052097 
L 931.967545 630.99728 
L 931.224025 630.148281 
L 930.799157 629.839554 
L 929.975975 629.633736 
L 929.391781 629.556554 
L 926.789463 629.788099 
L 926.311486 629.788099 
L 920.469547 630.25119 
L 919.009062 630.354099 
L 917.283035 630.71428 
L 916.088093 631.151644 
L 914.919705 632.30937 
L 912.662592 635.551003 
L 913.565437 635.911185 
L 914.096523 636.400002 
L 915.503899 642.600269 
L 915.795996 643.629359 
L 915.875659 644.426904 
L 915.583562 645.713267 
L 914.362065 646.742357 
L 911.547313 648.028719 
L 910.617914 649.392263 
L 910.538251 650.910171 
L 910.803793 653.251351 
L 912.158061 656.544439 
L 912.131507 658.345346 
L 911.28177 660.506435 
L 909.84784 662.667524 
L 908.360801 664.056795 
L 906.794099 664.931522 
L 905.174289 665.729066 
L 903.979347 666.217884 
L 903.50137 666.578066 
L 902.970285 666.886793 
L 902.678188 669.073609 
L 902.75785 671.697788 
L 902.731296 673.83315 
L 902.226765 676.277239 
L 901.456691 678.618418 
L 900.314858 681.448416 
L 898.615385 684.715776 
L 897.181454 686.439502 
L 896.809694 687.648683 
L 896.78314 688.780682 
L 896.676923 689.938408 
L 896.066175 696.447402 
L 895.853741 698.274037 
L 896.013066 699.663308 
L 896.650369 701.567124 
L 897.367334 703.342305 
L 898.190516 706.506756 
L 899.33235 714.816658 
L 899.412013 715.691384 
L 899.412013 716.128747 
L 899.358904 716.514656 
L 899.305796 716.926292 
L 899.093361 717.337928 
L 898.641939 717.826746 
L 898.110854 718.289836 
L 897.52666 718.804381 
L 895.720969 720.348016 
L 895.34921 720.836834 
L 895.083667 721.068379 
L 894.313593 721.016925 
L 892.959326 719.962108 
L 892.587566 719.833471 
L 891.764384 719.782017 
L 891.259852 719.807744 
L 889.746259 720.193653 
L 888.63098 720.836834 
L 888.020232 721.685833 
L 887.648472 722.200378 
L 886.798736 723.821195 
L 886.002107 725.261921 
L 885.364805 726.599738 
L 884.196417 729.223917 
L 884.0902 729.455463 
L 883.771549 730.124371 
L 883.320126 731.590824 
L 882.603161 733.957731 
L 882.417281 736.067366 
L 882.311064 742.473451 
L 882.390727 744.042813 
L 882.603161 744.660267 
L 883.957429 745.689357 
L 884.196417 745.84372 
L 885.258588 746.641265 
L 886.559747 747.670355 
L 887.250158 748.416445 
L 887.356375 749.445535 
L 887.064278 751.194988 
" clip-path="url(#p9cdf5744f6)"/>
   </g>
  </g>
 </g>
 <defs>
  <clipPath id="p9cdf5744f6">
   <rect x="10.8" y="283.061963" width="1058.4" height="513.876074"/>
  </clipPath>
 </defs>
</svg>
