<?xml version="1.0" encoding="utf-8" standalone="no"?>
<!DOCTYPE svg PUBLIC "-//W3C//DTD SVG 1.1//EN"
  "http://www.w3.org/Graphics/SVG/1.1/DTD/svg11.dtd">
<svg xmlns:xlink="http://www.w3.org/1999/xlink" width="1080pt" height="1080pt" viewBox="0 0 1080 1080" xmlns="http://www.w3.org/2000/svg" version="1.1">
 <metadata>
  <rdf:RDF xmlns:dc="http://purl.org/dc/elements/1.1/" xmlns:cc="http://creativecommons.org/ns#" xmlns:rdf="http://www.w3.org/1999/02/22-rdf-syntax-ns#">
   <cc:Work>
    <dc:type rdf:resource="http://purl.org/dc/dcmitype/StillImage"/>
    <dc:date>2022-07-01T13:43:19.725465</dc:date>
    <dc:format>image/svg+xml</dc:format>
    <dc:creator>
     <cc:Agent>
      <dc:title>Matplotlib v3.5.1, https://matplotlib.org/</dc:title>
     </cc:Agent>
    </dc:creator>
   </cc:Work>
  </rdf:RDF>
 </metadata>
 <defs>
  <style type="text/css">*{stroke-linejoin: round; stroke-linecap: butt}</style>
 </defs>
 <g id="figure_1">
  <g id="patch_1">
   <path d="M 0 1080 
L 1080 1080 
L 1080 0 
L 0 0 
L 0 1080 
z
" style="fill: none; opacity: 0"/>
  </g>
  <g id="axes_1">
   <g id="PatchCollection_1">
    <path d="M 849.129519 393.455492 
L 848.604423 394.124889 
L 845.896034 397.25767 
L 844.845842 399.024879 
L 844.928752 399.185535 
L 846.946226 400.069139 
L 850.069165 401.354383 
L 852.280095 402.318315 
L 855.707037 403.951645 
L 857.752148 405.317216 
L 862.146372 409.60136 
L 865.739134 413.617745 
L 867.120965 415.813369 
L 867.259148 417.259268 
L 867.231512 418.892598 
L 866.595869 421.757619 
L 864.716578 425.452694 
L 864.495485 427.514438 
L 865.324584 429.361975 
L 865.960227 430.37946 
L 867.203875 431.396944 
L 869.166076 432.280549 
L 870.658454 430.727546 
L 872.067922 429.308424 
L 875.025041 426.443402 
L 878.120344 424.702969 
L 881.243283 424.542313 
L 883.177847 424.702969 
L 896.084153 429.067441 
L 899.013636 431.477272 
L 901.114019 434.020982 
L 903.711863 439.161955 
L 908.741729 446.364673 
L 914.573058 457.557 
L 916.037799 460.261366 
L 918.16582 462.831852 
L 922.366587 472.57828 
L 924.466971 477.853133 
L 926.097532 480.74493 
L 927.700457 482.351484 
L 929.496838 483.636728 
L 930.795759 483.476072 
L 932.92378 481.735639 
L 935.0518 480.450395 
L 937.179821 479.352583 
L 939.473661 478.709962 
L 942.568964 477.933461 
L 947.626467 481.307224 
L 958.211296 487.73344 
L 962.135697 489.339995 
L 965.06518 490.625238 
L 966.833924 492.231792 
L 967.828843 493.517035 
L 968.298666 495.4449 
L 967.469567 498.470577 
L 967.303747 501.97822 
L 968.575032 505.807174 
L 970.371413 508.859627 
L 972.969256 511.724648 
L 976.230378 514.45579 
L 979.961323 517.829554 
L 982.393347 519.436108 
L 985.986109 519.918074 
L 987.61667 520.560696 
L 989.57887 520.587471 
L 1010.112886 523.372165 
L 1014.534747 523.398941 
L 1020.089709 523.104406 
L 1026.611954 524.095115 
L 1030.038896 524.416425 
L 1030.674538 525.541013 
L 1031.227271 527.281447 
L 1035.980771 525.085823 
L 1042.088466 522.435009 
L 1048.444891 520.132281 
L 1050.296545 519.784194 
L 1054.331493 526.451394 
L 1057.06752 532.047557 
L 1056.100238 534.912579 
L 1055.906781 536.840444 
L 1055.906781 539.223499 
L 1056.044964 540.990708 
L 1057.675525 542.436607 
L 1060.135186 543.400539 
L 1062.097386 543.239884 
L 1063.866131 543.427315 
L 1064.695229 544.551903 
L 1064.667593 546.452992 
L 1067.237799 558.287941 
L 1067.210163 561.313618 
L 1067.044343 564.017984 
L 1066.049424 566.267159 
L 1064.087224 568.971525 
L 1062.898848 574.701568 
L 1063.866131 578.369867 
L 1064.833413 581.422319 
L 1068.730177 586.536517 
L 1069.2 588.303726 
L 1069.03418 590.526126 
L 1068.370901 593.230492 
L 1067.928715 597.166549 
L 1061.544654 610.367069 
L 1059.914092 612.268158 
L 1058.172985 613.874712 
L 1058.034802 613.660505 
L 1055.298775 612.428813 
L 1052.369293 611.759416 
L 1048.472528 611.277449 
L 1044.879766 610.929363 
L 1039.822263 609.938654 
L 1036.89278 608.492756 
L 1034.792396 607.046857 
L 1033.161835 604.985113 
L 1030.232352 606.886202 
L 1020.255529 612.428813 
L 1019.067154 613.446298 
L 1017.657686 614.892196 
L 1016.441674 615.668697 
L 1014.313654 615.990008 
L 1012.102723 616.204215 
L 1009.75361 616.284543 
L 1006.96231 617.141372 
L 1005.829209 617.864321 
L 1005.00011 618.988909 
L 1004.447377 620.167049 
L 1004.58556 620.889998 
L 1009.947066 625.629333 
L 1012.627819 627.717853 
L 1013.374008 628.97632 
L 1013.346372 631.305824 
L 1012.766003 635.215105 
L 1012.655456 639.044059 
L 1011.356534 642.150064 
L 1009.145604 644.613447 
L 1006.437214 647.719451 
L 1001.517894 653.369166 
L 999.058234 654.386651 
L 996.377481 654.627634 
L 994.415281 654.038564 
L 991.237068 652.913976 
L 989.302504 652.672993 
L 987.754853 652.672993 
L 986.262475 653.047856 
L 983.913361 655.1096 
L 981.840614 657.653311 
L 980.127143 659.902486 
L 979.049315 661.723248 
L 978.413672 663.945648 
L 977.501663 666.516134 
L 976.755474 668.17624 
L 976.589655 670.345088 
L 976.810748 672.246177 
L 977.860939 674.977319 
L 980.07187 676.664201 
L 983.139536 678.190427 
L 985.184646 678.752721 
L 987.45085 679.636326 
L 989.081411 681.001897 
L 991.043612 683.3314 
L 992.812356 684.857626 
L 993.945458 685.714455 
L 995.354926 685.741231 
L 997.178944 685.152161 
L 998.477865 688.338494 
L 999.389874 691.739033 
L 1000.495339 695.139573 
L 1000.578249 698.834647 
L 999.859697 700.816064 
L 998.201499 706.385451 
L 997.28949 708.28654 
L 995.741839 709.491456 
L 993.696728 710.669595 
L 990.850155 712.543909 
L 989.109048 714.739532 
L 986.953391 717.711657 
L 985.018827 720.89799 
L 984.383184 723.602356 
L 984.880643 725.878307 
L 985.488649 727.779396 
L 986.400658 730.376659 
L 986.179565 732.090317 
L 985.765016 732.973921 
L 983.830451 734.660803 
L 981.978797 737.632928 
L 978.966405 741.113795 
L 974.627454 746.094113 
L 975.23546 747.191925 
L 977.059477 748.691375 
L 979.602047 750.297929 
L 982.338073 751.904484 
L 984.963553 753.511038 
L 987.395577 755.412127 
L 988.418132 756.322507 
L 988.722135 757.527423 
L 988.003583 759.803374 
L 987.478487 760.981514 
L 986.981027 762.18643 
L 986.041382 763.09681 
L 982.338073 774.048154 
L 981.619521 774.342689 
L 979.98896 774.342689 
L 977.971486 774.021378 
L 976.119832 773.61974 
L 973.991811 772.709359 
L 972.057247 772.013186 
L 970.647779 771.718651 
L 967.27611 770.406631 
L 964.540084 769.576578 
L 960.670956 768.077128 
L 958.957485 767.166747 
L 950.417766 761.865119 
L 948.483202 760.445996 
L 940.800219 753.029071 
L 926.180442 741.622537 
L 924.439335 740.712157 
L 921.288759 738.703964 
L 919.271285 737.900687 
L 916.922171 737.68648 
L 914.683604 737.793584 
L 912.334491 738.382653 
L 901.722025 742.211607 
L 899.676915 743.202316 
L 898.764906 744.996301 
L 898.460903 747.111597 
L 897.631804 749.789187 
L 897.106708 752.172243 
L 894.453592 756.054748 
L 891.496472 758.357476 
L 887.516798 758.625235 
L 885.278231 757.821958 
L 883.15021 757.018681 
L 880.911643 755.920869 
L 878.47962 754.903385 
L 876.323963 753.698469 
L 874.417035 753.002296 
L 872.565381 753.993004 
L 870.93482 755.171144 
L 868.47516 756.858025 
L 866.347139 758.544907 
L 862.229282 769.415923 
L 861.317273 770.915374 
L 858.968159 773.003894 
L 845.785487 787.59676 
L 844.762932 788.694572 
L 843.215281 791.479266 
L 842.192725 793.969425 
L 841.778176 795.388547 
L 844.486566 810.142069 
L 844.680022 811.239881 
L 845.177481 812.926763 
L 846.33822 815.416922 
L 847.913508 817.130579 
L 849.958618 818.04096 
L 852.888101 821.039861 
L 853.689563 823.931658 
L 854.518662 827.037663 
L 855.016121 829.715253 
L 854.905575 832.60705 
L 854.187022 834.909778 
L 853.247377 836.784091 
L 851.616816 838.872611 
L 849.875708 841.469874 
L 847.941144 845.164948 
L 848.328057 852.742528 
L 851.34045 859.623935 
L 852.363005 862.622836 
L 852.445915 865.005891 
L 851.837909 866.398238 
L 849.129519 870.120088 
L 849.018973 870.253968 
L 847.747688 872.181833 
L 847.029135 873.574179 
L 846.00658 875.261061 
L 844.680022 877.16215 
L 843.242917 878.92936 
L 841.197807 880.723345 
L 839.567245 882.222796 
L 837.024676 883.909677 
L 834.675562 885.087817 
L 831.939536 885.998198 
L 828.982416 886.587268 
L 819.11614 887.229889 
L 816.960483 887.524424 
L 814.943009 887.818959 
L 807.895668 891.299826 
L 804.634546 893.468674 
L 803.363261 893.62933 
L 801.677426 893.602554 
L 799.162493 894.325503 
L 795.210455 896.17304 
L 792.557339 897.2173 
L 790.871504 897.672491 
L 789.406763 897.672491 
L 788.190751 897.190524 
L 786.422007 895.824954 
L 785.316542 893.816761 
L 785.703455 892.531518 
L 786.256187 891.460482 
L 786.173277 890.630429 
L 785.537635 890.255566 
L 784.791446 890.255566 
L 782.939792 890.898188 
L 781.696143 891.192723 
L 781.143411 891.219498 
L 779.706306 891.27305 
L 778.352111 891.246274 
L 776.417547 890.737532 
L 768.817474 888.14027 
L 767.076366 887.5512 
L 766.302541 887.336993 
L 758.066825 884.953938 
L 754.004241 883.882901 
L 752.705319 883.775798 
L 751.62749 884.123885 
L 750.300932 885.516231 
L 749.33365 887.283441 
L 749.33365 888.702564 
L 750.162749 890.576877 
L 750.522025 892.344086 
L 750.052203 893.656106 
L 748.946737 894.593262 
L 746.017255 895.824954 
L 743.751051 896.280144 
L 741.346664 896.17304 
L 738.002632 895.691074 
L 735.128423 896.039161 
L 733.193859 896.949541 
L 732.143667 897.431508 
L 729.98801 897.672491 
L 728.550905 897.297628 
L 726.395248 896.012385 
L 723.907951 894.004192 
L 722.940669 891.514033 
L 722.470846 887.176337 
L 720.094096 882.222796 
L 717.800256 879.170343 
L 717.219887 878.447394 
L 713.654761 876.198218 
L 711.747834 875.609148 
L 710.062 875.957235 
L 708.680168 877.188926 
L 706.883787 882.356675 
L 705.308499 886.828251 
L 703.981941 889.532617 
L 703.152842 890.22879 
L 702.18556 889.880703 
L 701.826284 888.00639 
L 700.886639 885.302024 
L 700.168086 884.579075 
L 698.979711 884.579075 
L 698.261159 885.168145 
L 698.012429 887.283441 
L 697.984793 891.514033 
L 697.155694 896.226592 
L 695.580406 898.234785 
L 693.701115 899.761011 
L 689.389801 900.644616 
L 688.339609 900.671392 
L 686.460318 900.457184 
L 684.442844 899.653907 
L 682.701736 899.4397 
L 682.038457 899.868115 
L 681.154085 901.688876 
L 681.043539 905.571382 
L 680.905356 912.265357 
L 680.352623 915.933655 
L 679.79989 916.81726 
L 679.247158 917.031467 
L 678.943155 917.031467 
L 678.473332 917.031467 
L 677.83769 916.469173 
L 676.842771 914.969723 
L 675.322756 912.158253 
L 673.719832 910.685579 
L 672.42091 910.685579 
L 671.315445 911.997598 
L 670.320526 914.13967 
L 669.546701 915.31781 
L 667.556863 917.058243 
L 663.825918 918.986108 
L 658.989508 921.021077 
L 654.844014 921.985009 
L 648.570499 922.734734 
L 645.171194 922.734734 
L 643.208993 922.413424 
L 640.307147 920.833645 
L 638.759496 919.655506 
L 634.696911 917.486658 
L 630.993603 915.960431 
L 627.041565 914.755516 
L 624.388448 914.005791 
L 623.31062 913.604152 
L 622.674977 913.68448 
L 621.762968 913.791583 
L 620.3535 914.327101 
L 618.474209 915.505241 
L 616.512009 916.469173 
L 613.30616 917.326002 
L 609.133029 917.968624 
L 607.060281 918.825453 
L 606.397002 920.137472 
L 606.120636 921.797578 
L 606.341729 924.180633 
L 606.783915 925.358773 
L 608.30393 926.884999 
L 610.183221 928.598657 
L 611.039956 930.124883 
L 611.039956 931.303023 
L 610.487224 932.400835 
L 609.188302 932.481163 
L 607.087918 932.159852 
L 605.015171 931.945644 
L 603.025334 932.052748 
L 600.952586 933.016681 
L 597.332188 936.042357 
L 586.498629 943.860921 
L 582.988777 946.2172 
L 580.694937 946.859822 
L 578.180004 946.324304 
L 574.780698 945.226492 
L 569.502102 943.057644 
L 567.539901 942.843436 
L 565.99225 943.271851 
L 563.477317 944.690974 
L 559.193639 947.475667 
L 554.357229 951.358173 
L 552.284482 954.169643 
L 549.520819 959.230288 
L 548.249534 961.881102 
L 547.254615 964.906779 
L 546.922976 969.003492 
L 545.734601 974.198017 
L 544.518589 976.6614 
L 542.860391 978.723144 
L 541.533833 979.365766 
L 540.179638 979.20511 
L 539.295266 978.000195 
L 538.023981 975.108398 
L 536.780333 971.493651 
L 534.928678 967.745025 
L 532.855931 965.495849 
L 530.645001 963.862519 
L 528.130068 963.327001 
L 525.394041 963.219897 
L 523.404204 963.434105 
L 521.884189 964.076726 
L 519.894352 965.790384 
L 517.268872 968.601853 
L 515.279035 970.422615 
L 513.537927 971.520427 
L 511.769183 971.841738 
L 506.905136 971.332995 
L 504.058563 970.797477 
L 501.433084 969.726441 
L 497.923232 966.807868 
L 493.197368 962.255965 
L 491.124621 959.87291 
L 490.019156 958.159252 
L 489.355876 956.204611 
L 489.051874 955.026471 
L 488.388594 954.38385 
L 487.062036 954.276746 
L 485.652568 954.598057 
L 483.220545 956.311715 
L 480.263425 958.587666 
L 476.53248 960.729738 
L 470.176056 963.755415 
L 460.724328 968.49475 
L 458.319942 969.244475 
L 456.661744 969.244475 
L 455.141729 968.173439 
L 453.483531 966.004591 
L 451.327874 963.166346 
L 451.300238 962.978914 
L 451.217328 960.461979 
L 451.051508 957.06144 
L 451.051508 956.820457 
L 450.388229 954.303522 
L 448.730031 951.70626 
L 446.823104 949.912274 
L 446.629647 949.751619 
L 442.760519 946.110096 
L 441.378688 944.824853 
L 440.079766 943.566386 
L 435.851362 939.068034 
L 434.46953 937.702463 
L 433.806251 937.086618 
L 432.50733 935.399736 
L 432.148053 934.3287 
L 431.92696 932.936353 
L 431.871687 932.400835 
L 431.871687 926.777896 
L 432.09278 923.886098 
L 431.84405 923.297028 
L 431.540048 922.574079 
L 430.434582 921.395939 
L 430.075306 920.994301 
L 428.057832 918.718349 
L 422.033047 912.158253 
L 419.46284 909.346784 
L 417.390093 907.124384 
L 414.515884 905.624933 
L 412.691866 905.624933 
L 412.526046 905.624933 
L 409.928203 906.187227 
L 408.187096 906.374659 
L 406.473625 905.035864 
L 403.212502 899.761011 
L 401.277938 893.334795 
L 400.918662 891.085619 
L 400.338293 890.121687 
L 400.03429 889.880703 
L 398.984098 889.559393 
L 396.109889 890.121687 
L 391.328752 890.121687 
L 388.813818 889.746824 
L 387.100347 889.371961 
L 385.746152 888.622236 
L 385.165783 887.310217 
L 385.165783 885.034265 
L 384.032681 881.821157 
L 383.065399 880.321707 
L 381.683568 879.464878 
L 379.085725 879.036463 
L 376.156242 878.79548 
L 372.121294 878.608049 
L 368.500896 878.982912 
L 362.531384 881.071432 
L 358.524072 883.347383 
L 356.589508 883.909677 
L 355.456407 883.909677 
L 354.019302 883.427711 
L 353.245476 882.490555 
L 353.438933 877.965427 
L 353.05202 875.876907 
L 348.823615 872.476368 
L 340.007531 869.477467 
L 338.846792 868.513534 
L 337.133321 865.702064 
L 335.392213 862.114094 
L 333.485286 858.900986 
L 331.937635 856.625034 
L 328.676513 854.750721 
L 326.382672 852.6622 
L 325.221934 850.787887 
L 323.867739 847.949642 
L 323.784829 843.317411 
L 325.4983 836.91797 
L 325.691757 835.016881 
L 324.337562 830.491754 
L 319.749881 827.466077 
L 317.732407 826.234386 
L 316.184756 824.547504 
L 314.471285 821.521827 
L 312.343264 816.9967 
L 310.629793 813.033866 
L 310.629793 810.195621 
L 312.343264 807.571583 
L 314.471285 806.60765 
L 318.478596 805.1082 
L 320.219704 804.358474 
L 320.606617 803.581973 
L 320.41316 802.457385 
L 319.445878 800.181434 
L 318.561506 797.932258 
L 318.478596 797.744827 
L 317.152038 795.468875 
L 316.765125 794.156856 
L 316.958582 793.032268 
L 318.091683 792.068336 
L 319.639335 791.693473 
L 323.093913 791.693473 
L 325.774666 790.568885 
L 329.477975 787.650312 
L 333.153646 785.160153 
L 335.558033 783.473271 
L 338.763882 782.562891 
L 341.057723 782.803874 
L 344.512301 784.838842 
L 346.806141 785.50824 
L 349.763261 785.053049 
L 353.21784 783.259064 
L 357.114604 780.768905 
L 359.436081 779.028472 
L 361.177189 776.779296 
L 364.217218 771.745426 
L 366.759788 767.006092 
L 367.89289 764.060743 
L 369.274721 762.266757 
L 371.568562 760.686979 
L 372.48057 758.652011 
L 372.48057 757.28644 
L 370.877646 754.823057 
L 368.141619 752.332898 
L 364.465948 749.628532 
L 361.011369 745.799578 
L 357.80552 741.060244 
L 354.240395 736.428013 
L 342.550101 728.314914 
L 336.331859 724.244977 
L 331.301992 722.210009 
L 321.877902 721.540611 
L 315.438567 721.781595 
L 312.702541 722.665199 
L 310.4087 723.361373 
L 308.805776 723.361373 
L 304.881375 721.112197 
L 297.999854 717.04226 
L 293.412173 713.882704 
L 292.500165 712.543909 
L 292.251435 710.723147 
L 292.721258 708.929162 
L 293.218717 708.366868 
L 295.623104 705.74283 
L 297.530031 704.778897 
L 298.331493 703.841741 
L 298.303857 702.904584 
L 297.999854 701.833548 
L 296.866752 699.20951 
L 296.894389 696.906782 
L 297.778761 695.300228 
L 300.597697 692.810069 
L 305.98684 689.570185 
L 310.933796 687.18713 
L 312.95127 686.544508 
L 315.438567 685.741231 
L 322.651727 684.482764 
L 324.088832 684.161453 
L 324.945568 683.46528 
L 325.443027 682.206812 
L 325.58121 679.288239 
L 325.58121 679.02048 
L 325.66412 675.459285 
L 325.4983 673.397541 
L 324.116469 671.228693 
L 322.762274 668.872413 
L 321.877902 665.49865 
L 322.375361 662.419421 
L 321.988448 660.384453 
L 320.772436 658.51014 
L 318.03641 653.636925 
L 317.345494 649.781196 
L 316.322939 640.864821 
L 315.797843 638.829852 
L 313.918552 637.999799 
L 310.850886 638.829852 
L 307.921404 639.177939 
L 306.042113 638.669197 
L 305.019558 637.678488 
L 304.853738 636.312917 
L 305.185377 635.322209 
L 306.207933 633.635327 
L 308.4465 632.457187 
L 310.65743 632.109101 
L 311.707622 631.091617 
L 311.873442 630.100908 
L 311.707622 628.253371 
L 311.016706 626.727145 
L 307.064668 621.693275 
L 305.434107 619.417324 
L 305.268287 618.239184 
L 305.434107 616.552302 
L 308.971596 610.608052 
L 309.938878 608.091117 
L 310.519247 606.564891 
L 309.220325 604.556698 
L 304.328642 598.719552 
L 299.160592 593.658906 
L 298.69077 592.320111 
L 298.386767 590.392246 
L 298.552586 588.625037 
L 298.911863 587.098811 
L 300.072601 585.626136 
L 301.233339 584.5551 
L 305.240651 581.87751 
L 305.98684 581.395544 
L 307.506854 579.681886 
L 308.418863 577.807573 
L 308.943959 575.397742 
L 308.833413 574.058947 
L 308.833413 573.443101 
L 308.833413 573.041462 
L 307.810857 571.782995 
L 306.760665 571.03327 
L 305.6552 570.578079 
L 303.44427 570.042561 
L 297.226028 568.489559 
L 286.14374 565.972624 
L 283.020801 565.142571 
L 278.571303 563.777 
L 275.365454 562.572085 
L 273.817803 561.68848 
L 272.463608 559.733839 
L 269.838128 554.458987 
L 268.870846 550.308722 
L 268.870846 547.015286 
L 270.418498 542.463383 
L 274.785085 535.608752 
L 275.171998 532.957938 
L 273.375617 529.932261 
L 268.732663 525.380358 
L 266.659916 522.836647 
L 264.089709 522.836647 
L 262.044599 524.362874 
L 256.627819 528.673794 
L 251.984866 530.441003 
L 249.165929 530.20002 
L 248.115738 529.61095 
L 246.153537 534.992906 
L 244.716432 537.857928 
L 243.251691 539.277051 
L 235.541071 544.069937 
L 231.53376 545.167749 
L 229.15701 545.542612 
L 221.5293 546.104906 
L 211.60775 546.131681 
L 206.494973 546.292337 
L 202.211296 545.48906 
L 195.937781 545.007094 
L 189.332627 543.400539 
L 186.43078 543.239884 
L 183.722391 543.079229 
L 178.775434 542.115296 
L 170.512082 540.856829 
L 161.281448 539.089619 
L 155.809395 537.965031 
L 151.359898 536.679788 
L 145.583842 535.394545 
L 140.636885 534.430613 
L 135.993932 533.306025 
L 133.036812 532.663403 
L 130.217876 532.663403 
L 125.270919 533.814767 
L 116.814111 531.458487 
L 110.236593 529.637726 
L 90.946226 531.297832 
L 88.624749 531.458487 
L 86.634911 532.261764 
L 73.286419 533.413128 
L 63.834692 533.680887 
L 63.475416 532.529524 
L 61.375032 528.352483 
L 59.191738 524.71096 
L 58.500823 523.238286 
L 53.802596 514.991308 
L 39.044635 498.443801 
L 24.563041 481.334 
L 22.048108 479.031273 
L 20.47282 475.523629 
L 19.146262 470.114897 
L 18.151343 467.330204 
L 18.01316 460.261366 
L 18.17898 456.700171 
L 18.538256 450.782697 
L 16.852422 444.35648 
L 16.769512 443.553203 
L 16.962968 442.187632 
L 18.01316 439.429714 
L 17.847341 437.448298 
L 15.028404 432.842843 
L 12.154195 429.576183 
L 10.8 425.613349 
L 10.8 421.757619 
L 25.779053 408.744531 
L 15.138951 385.797584 
L 15.056041 385.529825 
L 10.910547 376.640226 
L 10.8 376.47957 
L 11.794919 372.329306 
L 13.25966 368.045161 
L 14.586218 364.72495 
L 15.995686 362.181239 
L 20.666277 352.193828 
L 28.708536 333.370369 
L 30.118004 330.103709 
L 31.085286 327.854533 
L 35.147871 318.509744 
L 40.205374 307.504848 
L 46.948711 290.930565 
L 50.65202 282.871019 
L 56.096436 270.045362 
L 59.689198 261.664505 
L 67.70382 243.215909 
L 77.045001 222.089723 
L 86.275635 200.61545 
L 95.837909 178.552107 
L 96.335368 177.400743 
L 101.227052 174.964136 
L 101.586328 173.384358 
L 102.80234 172.179443 
L 104.68163 171.295838 
L 110.706416 167.413332 
L 112.972619 165.351588 
L 116.897021 161.629738 
L 118.168306 160.799685 
L 119.992323 160.37127 
L 121.125425 160.933564 
L 122.811259 162.031376 
L 124.358911 162.727549 
L 125.353829 162.700774 
L 126.597478 162.031376 
L 126.901481 159.942856 
L 126.321111 153.891502 
L 126.017108 151.535223 
L 127.012027 150.57129 
L 129.471687 148.723753 
L 133.561908 146.367474 
L 147.988229 137.611754 
L 151.553354 135.282251 
L 157.384683 130.462588 
L 159.927253 129.043466 
L 164.349114 128.29374 
L 164.597843 128.266964 
L 165.786218 128.186637 
L 171.645184 128.159861 
L 173.192835 128.615051 
L 174.519393 129.47188 
L 175.293219 130.542916 
L 176.619777 132.069142 
L 178.830707 133.140178 
L 181.787827 133.943455 
L 189.747176 135.683889 
L 193.395211 136.326511 
L 195.495595 136.112303 
L 196.490514 135.442906 
L 197.153793 133.488265 
L 197.817072 131.988815 
L 199.005447 131.10521 
L 201.105831 130.355485 
L 204.201133 129.712863 
L 205.638238 129.819967 
L 205.859331 130.248381 
L 205.223689 132.095918 
L 205.223689 133.274058 
L 205.444782 134.130887 
L 205.886968 134.586077 
L 206.992433 134.907388 
L 208.761177 134.452198 
L 210.861561 133.274058 
L 213.238311 131.854935 
L 216.112521 130.248381 
L 220.451471 127.865326 
L 222.690038 126.339099 
L 225.812978 123.447302 
L 226.918443 122.804681 
L 228.245001 122.804681 
L 229.571559 123.340199 
L 230.787571 123.768613 
L 231.340303 123.661509 
L 232.003583 123.125991 
L 232.335222 122.242387 
L 232.556315 120.635832 
L 232.777408 118.03857 
L 232.556315 116.083929 
L 246.04299 114.18284 
L 250.796491 112.897597 
L 257.014732 110.969732 
L 261.934052 112.736942 
L 266.355913 116.244585 
L 276.001097 116.083929 
L 281.556059 114.798686 
L 283.048437 114.798686 
L 285.64628 115.119997 
L 288.10594 116.53912 
L 291.394699 118.788295 
L 299.575142 119.109606 
L 304.798465 118.306329 
L 311.514166 119.886107 
L 315.604387 122.911784 
L 317.732407 124.009596 
L 321.822628 126.124892 
L 326.797222 127.463687 
L 329.008152 127.463687 
L 330.528167 128.561499 
L 331.799452 128.856034 
L 332.352184 128.29374 
L 332.628551 127.195928 
L 332.628551 124.304131 
L 333.623469 122.269162 
L 335.17112 120.742936 
L 336.995138 119.912883 
L 338.238786 120.046763 
L 339.371888 120.609057 
L 342.329007 122.992112 
L 342.467191 123.099215 
L 344.263572 124.036372 
L 346.916688 124.304131 
L 350.979273 123.768613 
L 353.190203 123.286647 
L 356.174959 122.670801 
L 358.413526 121.974628 
L 358.828075 120.876816 
L 358.689892 119.511245 
L 358.13716 117.315621 
L 358.689892 115.521635 
L 360.652093 114.691582 
L 365.847779 115.119997 
L 369.357631 116.485568 
L 371.319832 118.815071 
L 373.696582 120.876816 
L 377.759167 123.206319 
L 379.445001 122.93856 
L 381.545385 121.974628 
L 386.851618 119.243486 
L 389.725827 116.271361 
L 391.632755 114.289944 
L 396.524438 111.96044 
L 402.134674 109.898696 
L 403.820508 108.934764 
L 405.506343 105.507448 
L 408.656918 101.330408 
L 410.176933 100.634234 
L 412.58132 100.634234 
L 415.787169 101.196528 
L 419.297021 102.695979 
L 420.430122 104.222205 
L 421.259221 106.417829 
L 421.950137 107.917279 
L 422.668689 108.185038 
L 429.38439 107.7834 
L 442.42888 103.526032 
L 448.730031 101.330408 
L 454.754816 101.330408 
L 457.26975 101.892702 
L 460.061049 102.160461 
L 473.022628 104.864827 
L 485.072199 109.523833 
L 490.129702 112.281751 
L 495.712301 117.369173 
L 496.762493 120.71616 
L 496.95595 121.787196 
L 497.259952 121.787196 
L 502.483275 123.125991 
L 507.402596 124.57189 
L 513.123378 126.017789 
L 517.241236 126.821066 
L 518.84416 127.142377 
L 528.986803 130.328709 
L 536.531603 129.712863 
L 546.508426 129.712863 
L 553.058307 129.578984 
L 557.452532 129.739639 
L 562.040212 132.122694 
L 567.429355 135.657113 
L 568.20318 136.433614 
L 571.022117 139.325412 
L 573.481777 142.53852 
L 577.406178 143.663108 
L 580.6673 144.466385 
L 587.880461 146.876216 
L 593.435423 148.161459 
L 599.819485 149.928669 
L 600.261671 150.035772 
L 607.999927 152.311724 
L 611.592689 152.659811 
L 614.522171 152.820466 
L 620.077134 162.727549 
L 627.096838 172.473978 
L 629.556498 174.562498 
L 630.6896 176.784898 
L 630.6896 180.319317 
L 631.988521 188.619846 
L 632.292524 191.966834 
L 632.624164 196.277754 
L 633.425626 200.428019 
L 635.222007 202.998505 
L 638.317309 205.863527 
L 641.744252 208.915979 
L 643.706452 210.040567 
L 650.422153 211.32581 
L 659.569878 212.95914 
L 659.542241 214.753126 
L 660.316067 216.573887 
L 663.107366 218.555304 
L 665.069567 219.920875 
L 665.788119 220.509945 
L 667.087041 222.464585 
L 668.081959 225.1154 
L 668.192506 228.596267 
L 668.220143 229.238889 
L 668.026686 230.898994 
L 667.971413 231.166753 
L 666.893584 233.201722 
L 663.687735 236.54871 
L 665.401206 241.207716 
L 667.83323 247.607157 
L 670.29289 253.524631 
L 674.023835 259.28145 
L 677.284957 262.949748 
L 679.79989 265.547011 
L 680.38026 266.162857 
L 684.6363 268.733343 
L 689.859623 272.401642 
L 692.291647 274.490162 
L 695.248766 276.578682 
L 695.884409 278.15846 
L 697.51497 281.853535 
L 698.648072 286.967732 
L 695.856772 296.205418 
L 694.060391 298.749129 
L 693.922208 299.98082 
L 693.480022 303.675894 
L 695.829135 307.397745 
L 697.625516 308.522333 
L 699.919357 308.682988 
L 703.014659 309.164954 
L 707.906343 310.128887 
L 712.162383 312.056752 
L 718.187169 322.445801 
L 726.809797 333.156162 
L 729.435277 335.405338 
L 731.065838 337.172547 
L 733.497861 341.001501 
L 734.962603 344.669799 
L 734.962603 346.918975 
L 733.636045 350.105307 
L 732.005483 353.29164 
L 731.010565 356.959938 
L 730.347286 360.012391 
L 730.347286 363.038068 
L 730.568379 364.323311 
L 730.817108 365.581778 
L 731.78439 366.545711 
L 735.377152 367.348988 
L 739.135734 367.697075 
L 741.595394 367.375764 
L 746.183074 367.536419 
L 751.87622 369.303629 
L 756.602084 371.552804 
L 762.654506 373.80198 
L 766.744727 375.729845 
L 769.674209 376.693777 
L 770.973131 376.399243 
L 773.266971 374.310722 
L 775.726631 372.570289 
L 778.352111 371.151166 
L 780.949954 370.508544 
L 784.542716 370.026578 
L 787.334016 370.053354 
L 789.766039 371.499253 
L 793.220618 374.150067 
L 805.574191 383.60196 
L 816.73939 386.788292 
L 829.590422 389.599762 
L 838.54469 390.429815 
L 846.227673 392.438007 
L 849.129519 393.455492 
" clip-path="url(#p68d2b7aadf)"/>
   </g>
  </g>
 </g>
 <defs>
  <clipPath id="p68d2b7aadf">
   <rect x="10.8" y="100.634234" width="1058.4" height="878.731532"/>
  </clipPath>
 </defs>
</svg>
