<?xml version="1.0" encoding="utf-8" standalone="no"?>
<!DOCTYPE svg PUBLIC "-//W3C//DTD SVG 1.1//EN"
  "http://www.w3.org/Graphics/SVG/1.1/DTD/svg11.dtd">
<svg xmlns:xlink="http://www.w3.org/1999/xlink" width="1080pt" height="1080pt" viewBox="0 0 1080 1080" xmlns="http://www.w3.org/2000/svg" version="1.1">
 <metadata>
  <rdf:RDF xmlns:dc="http://purl.org/dc/elements/1.1/" xmlns:cc="http://creativecommons.org/ns#" xmlns:rdf="http://www.w3.org/1999/02/22-rdf-syntax-ns#">
   <cc:Work>
    <dc:type rdf:resource="http://purl.org/dc/dcmitype/StillImage"/>
    <dc:date>2022-07-01T13:43:20.006503</dc:date>
    <dc:format>image/svg+xml</dc:format>
    <dc:creator>
     <cc:Agent>
      <dc:title>Matplotlib v3.5.1, https://matplotlib.org/</dc:title>
     </cc:Agent>
    </dc:creator>
   </cc:Work>
  </rdf:RDF>
 </metadata>
 <defs>
  <style type="text/css">*{stroke-linejoin: round; stroke-linecap: butt}</style>
 </defs>
 <g id="figure_1">
  <g id="patch_1">
   <path d="M 0 1080 
L 1080 1080 
L 1080 0 
L 0 0 
L 0 1080 
z
" style="fill: none; opacity: 0"/>
  </g>
  <g id="axes_1">
   <g id="PatchCollection_1">
    <path d="M 992.410444 635.858824 
L 990.056592 638.78552 
L 989.585822 641.560181 
L 990.645055 647.299548 
L 991.900443 652.848869 
L 992.135828 658.170136 
L 991.978905 665.733937 
L 991.821981 670.523077 
L 991.508134 674.057919 
L 991.155056 674.095928 
L 987.428123 674.514027 
L 984.917347 675.122172 
L 981.935801 677.288688 
L 978.797331 680.063348 
L 974.874244 683.142081 
L 971.304234 684.548416 
L 969.107305 684.852489 
L 966.753453 684.548416 
L 963.771906 682.990045 
L 961.26113 682.077828 
L 958.750354 684.928507 
L 955.847269 686.258824 
L 951.963413 687.019005 
L 947.33417 686.638914 
L 943.881853 684.928507 
L 937.879529 682.838009 
L 929.013351 681.317647 
L 924.737186 680.557466 
L 920.500252 678.657014 
L 916.616395 676.376471 
L 913.948696 675.99638 
L 912.183306 676.186425 
L 909.280221 677.136652 
L 904.180208 680.291403 
L 900.884814 682.952036 
L 899.747119 684.852489 
L 897.98173 689.223529 
L 895.470954 693.404525 
L 892.214791 695.685068 
L 889.507861 696.825339 
L 887.193239 697.20543 
L 884.290154 697.015385 
L 880.798607 696.825339 
L 878.680139 696.825339 
L 875.188592 697.20543 
L 869.617807 698.725792 
L 867.656264 700.246154 
L 865.733951 703.096833 
L 864.203947 706.707692 
L 863.223175 711.268778 
L 862.55625 715.563801 
L 862.360096 722.975566 
L 861.2224 733.6181 
L 859.84932 737.228959 
L 858.123161 739.319457 
L 855.416231 741.029864 
L 852.316992 743.310407 
L 848.472366 746.351131 
L 848.19775 746.655204 
L 843.72543 751.368326 
L 843.25466 751.862443 
L 843.097736 752.090498 
L 842.195426 753.382805 
L 845.96159 756.423529 
L 847.177747 757.373756 
L 849.413907 759.084163 
L 851.33622 760.452489 
L 854.827768 762.885068 
L 859.457011 764.975566 
L 866.793184 767.066063 
L 873.77628 768.39638 
L 878.601678 768.586425 
L 882.446303 768.206335 
L 884.957079 767.256109 
L 886.879392 766.876018 
L 889.194014 767.066063 
L 890.567094 768.206335 
L 890.959403 770.296833 
L 890.37094 775.6181 
L 888.056318 788.00905 
L 887.860164 790.479638 
L 887.860164 792 
L 889.194014 794.090498 
L 891.626328 795.876923 
L 894.882491 796.827149 
L 898.177884 799.107692 
L 901.669432 803.288688 
L 903.591745 806.519457 
L 903.591745 809.560181 
L 904.180208 816.7819 
L 905.592519 820.39276 
L 905.945597 822.445249 
L 906.337906 824.345701 
L 906.769445 825.714027 
L 907.789448 827.386425 
L 910.731764 831.301357 
L 912.850231 832.745701 
L 916.027932 833.923982 
L 918.734862 835.406335 
L 923.599491 842.171946 
L 924.776417 845.060633 
L 925.717958 849.621719 
L 927.718732 859.428054 
L 927.718732 863.60905 
L 926.777191 867.676018 
L 926.777191 868.702262 
L 927.993349 869.880543 
L 931.837974 872.237104 
L 938.075683 875.239819 
L 939.527226 876.152036 
L 940.586459 876.152036 
L 941.645693 875.61991 
L 942.43031 874.061538 
L 943.254159 872.237104 
L 944.431085 870.678733 
L 945.215702 870.526697 
L 946.824168 870.944796 
L 948.824943 872.883258 
L 951.257257 876.874208 
L 956.043424 884.057919 
L 958.946509 889.227149 
L 962.281133 896.296833 
L 963.850368 901.276018 
L 964.124984 903.898643 
L 963.614983 906.977376 
L 969.734999 908.535747 
L 974.795782 910.132127 
L 980.327335 911.272398 
L 984.721193 912.868778 
L 987.938125 915.339367 
L 990.017361 916.935747 
L 990.488132 918.950226 
L 989.350436 922.371041 
L 985.191964 929.364706 
L 979.895796 937.270588 
L 979.425025 937.99276 
L 971.57885 948.179186 
L 962.791134 959.923982 
L 954.278034 972.162896 
L 948.942636 980.296833 
L 945.961089 984.591855 
L 942.979543 982.349321 
L 939.958765 980.524887 
L 936.741834 980.524887 
L 931.21028 983.679638 
L 923.599491 988.430769 
L 915.04716 993.638009 
L 908.142526 997.514932 
L 904.690209 1000.213575 
L 903.317129 1002.684163 
L 902.140202 1005.648869 
L 901.473277 1008.575566 
L 898.4525 1010.856109 
L 895.706339 1011.768326 
L 891.312481 1011.768326 
L 888.56632 1011.312217 
L 884.643232 1011.312217 
L 881.190915 1012.680543 
L 876.090902 1015.151131 
L 869.892423 1017.20362 
L 865.498566 1018.761991 
L 863.183944 1021.498643 
L 861.340093 1023.741176 
L 859.731627 1026.705882 
L 857.220851 1028.264253 
L 855.337769 1028.264253 
L 853.690072 1028.226244 
L 853.690072 1027.960181 
L 853.886227 1026.173756 
L 853.886227 1024.083258 
L 853.14084 1022.714932 
L 849.57083 1019.674208 
L 845.412358 1015.493213 
L 838.233108 1008.00543 
L 837.919261 1006.637104 
L 838.076184 1005.116742 
L 838.664647 1003.482353 
L 838.507724 1001.961991 
L 837.605414 1000.593665 
L 835.133869 999.073303 
L 829.602315 996.336652 
L 827.523079 995.424434 
L 826.777692 995.576471 
L 824.306147 996.032579 
L 821.520755 997.704977 
L 820.265367 999.149321 
L 819.559212 1000.593665 
L 819.402288 1002.114027 
L 819.559212 1003.178281 
L 819.716135 1004.546606 
L 819.245365 1006.219005 
L 818.460747 1007.245249 
L 815.086892 1008.309502 
L 810.49688 1010.285973 
L 807.868411 1011.958371 
L 806.338407 1013.934842 
L 805.553789 1015.911312 
L 805.357635 1017.355656 
L 804.926095 1020.662443 
L 804.298401 1021.270588 
L 803.003782 1021.726697 
L 800.885315 1021.650679 
L 798.256847 1020.890498 
L 791.312982 1018.039819 
L 786.919124 1015.911312 
L 779.269103 1010.742081 
L 777.739099 1008.651584 
L 770.520618 999.871493 
L 768.990614 997.438914 
L 768.951383 995.310407 
L 770.324464 987.480543 
L 770.363695 981.057014 
L 770.206771 976.3819 
L 770.638311 974.861538 
L 771.579852 974.101357 
L 772.325239 973.645249 
L 776.169864 972.885068 
L 778.641409 971.820814 
L 779.857567 970.908597 
L 780.956031 969.540271 
L 781.112955 967.60181 
L 780.642184 965.777376 
L 780.171414 963.496833 
L 779.11218 959.391855 
L 778.641409 955.476923 
L 777.699868 951.523982 
L 776.954482 950.459729 
L 774.482937 948.483258 
L 771.815237 947.304977 
L 767.852919 945.784615 
L 766.322915 945.480543 
L 763.772908 945.100452 
L 755.887502 945.328507 
L 748.62979 945.632579 
L 742.195927 945.936652 
L 734.820523 946.848869 
L 732.858979 947.419005 
L 728.465121 949.091403 
L 725.758191 949.889593 
L 722.776644 949.965611 
L 720.501253 949.281448 
L 719.598943 947.913122 
L 718.500479 944.606335 
L 717.441245 942.325792 
L 715.911241 941.413575 
L 714.06739 941.413575 
L 710.654304 941.869683 
L 709.438147 942.325792 
L 707.908143 943.238009 
L 706.299677 945.024434 
L 705.671983 946.544796 
L 705.201212 948.103167 
L 704.534288 952.626244 
L 703.906594 955.058824 
L 703.004283 955.666968 
L 699.748121 956.123077 
L 694.530415 957.035294 
L 690.999636 957.795475 
L 685.78193 958.859729 
L 679.034219 959.011765 
L 673.777282 958.251584 
L 671.031121 958.593665 
L 667.774958 959.923982 
L 665.656491 961.444344 
L 661.733404 964.78914 
L 656.594159 968.438009 
L 654.593384 969.806335 
L 652.749533 969.806335 
L 651.651069 969.350226 
L 651.062606 968.438009 
L 649.650294 966.157466 
L 648.747984 964.827149 
L 647.806443 964.066968 
L 646.276439 962.850679 
L 641.215656 959.657919 
L 638.587188 958.289593 
L 634.585638 955.742986 
L 625.209459 950.763801 
L 618.108671 945.974661 
L 615.794049 945.442534 
L 614.420969 945.59457 
L 613.047888 946.506787 
L 610.89019 949.091403 
L 608.732492 949.243439 
L 607.202488 948.635294 
L 606.614025 947.647059 
L 606.260947 946.544796 
L 606.104023 943.352036 
L 606.888641 942.287783 
L 610.262496 941.071493 
L 611.674808 940.311312 
L 612.890965 939.057014 
L 613.008657 938.296833 
L 612.773272 937.498643 
L 611.949424 936.358371 
L 609.634802 933.659729 
L 607.163257 929.554751 
L 603.946325 921.99095 
L 603.475555 920.318552 
L 604.103249 919.102262 
L 604.691712 918.494118 
L 606.692487 918.494118 
L 609.791726 919.254299 
L 611.635577 919.254299 
L 613.793275 917.885973 
L 614.381738 916.365611 
L 614.381738 914.541176 
L 614.067891 912.868778 
L 612.69481 909.561991 
L 610.458651 905.60905 
L 609.203263 904.468778 
L 607.830182 903.21448 
L 604.770174 902.074208 
L 592.02014 897.095023 
L 591.313984 896.904977 
L 590.176288 896.79095 
L 589.273978 896.828959 
L 588.489361 896.942986 
L 587.743974 897.171041 
L 586.959357 897.58914 
L 586.331663 898.121267 
L 585.31166 899.109502 
L 584.252426 901.085973 
L 583.546271 902.378281 
L 582.840115 902.986425 
L 582.290883 903.062443 
L 581.467034 903.062443 
L 580.917802 902.910407 
L 580.250877 902.606335 
L 578.171641 901.808145 
L 571.620085 899.489593 
L 570.992391 899.261538 
L 570.443159 899.299548 
L 570.090081 899.337557 
L 569.227001 899.60362 
L 557.06543 904.278733 
L 555.574657 904.924887 
L 555.143118 905.114932 
L 554.711578 905.342986 
L 554.3585 905.647059 
L 553.92696 906.103167 
L 553.416959 908.079638 
L 553.299266 909.523982 
L 553.142343 911.044344 
L 552.671572 919.330317 
L 552.593111 921.382805 
L 552.55388 923.815385 
L 552.828496 924.347511 
L 553.495421 924.955656 
L 555.69235 926.209955 
L 557.967741 927.654299 
L 558.556204 928.262443 
L 558.791589 928.642534 
L 558.791589 929.060633 
L 558.673896 929.440724 
L 557.889279 930.771041 
L 556.555429 932.215385 
L 555.731581 932.78552 
L 553.966191 933.241629 
L 553.103112 933.355656 
L 552.043878 933.431674 
L 550.866952 933.393665 
L 549.88618 933.127602 
L 545.531553 932.747511 
L 543.099239 932.519457 
L 542.275391 933.317647 
L 540 938.296833 
L 539.215383 939.931222 
L 537.76384 941.299548 
L 533.958445 942.7819 
L 528.113045 945.176471 
L 513.98993 951.828054 
L 512.61685 952.436199 
L 511.439923 952.968326 
L 510.262997 953.690498 
L 509.635303 954.374661 
L 508.262223 956.085068 
L 507.163758 958.441629 
L 507.163758 960.228054 
L 507.595298 963.19276 
L 506.457602 965.777376 
L 502.573746 973.341176 
L 500.612202 978.206335 
L 500.141432 979.270588 
L 499.63143 979.99276 
L 499.16066 980.296833 
L 498.336811 980.600905 
L 497.277578 980.752941 
L 495.982959 980.866968 
L 494.962956 980.904977 
L 494.335262 980.752941 
L 493.589875 980.258824 
L 492.88372 979.574661 
L 492.138333 979.156561 
L 491.353716 979.004525 
L 489.74525 979.004525 
L 487.94063 979.422624 
L 486.567549 980.372851 
L 486.410625 980.638914 
L 486.057548 980.904977 
L 485.743701 981.285068 
L 485.037545 982.121267 
L 483.899849 983.679638 
L 481.506766 986.036199 
L 479.035221 988.126697 
L 477.66214 989.266968 
L 472.915205 992.573756 
L 472.562127 992.687783 
L 465.382877 995.500452 
L 461.106711 996.982805 
L 460.282863 997.362896 
L 457.88978 998.921267 
L 444.668975 1011.502262 
L 440.706657 1016.329412 
L 439.255114 1018.343891 
L 437.058185 1022.448869 
L 436.508953 1024.159276 
L 435.48895 1025.489593 
L 434.312024 1026.515837 
L 432.899713 1027.58009 
L 430.506629 1028.454299 
L 429.21201 1028.834389 
L 428.3097 1028.986425 
L 427.250467 1029.062443 
L 425.916617 1028.986425 
L 425.485077 1028.872398 
L 425.092769 1028.530317 
L 423.248918 1025.565611 
L 422.621224 1024.919457 
L 421.13045 1023.285068 
L 418.580443 1021.460633 
L 417.325056 1020.776471 
L 415.834282 1020.320362 
L 412.499658 1019.560181 
L 410.655807 1019.2181 
L 409.282726 1019.104072 
L 399.867316 1019.028054 
L 398.062696 1019.446154 
L 395.120381 1019.712217 
L 389.784982 1020.206335 
L 375.897252 1021.270588 
L 372.954936 1022.144796 
L 366.795689 1023.969231 
L 365.187223 1024.691403 
L 362.637216 1027.390045 
L 361.734906 1028.302262 
L 360.401057 1029.974661 
L 359.773363 1031.114932 
L 359.381054 1032.103167 
L 359.263361 1033.053394 
L 359.263361 1034.079638 
L 359.537977 1036.170136 
L 359.694901 1038.526697 
L 359.616439 1039.857014 
L 359.027976 1041.18733 
L 356.399507 1046.166516 
L 355.222581 1047.686878 
L 348.161024 1055.364706 
L 346.827174 1056.542986 
L 345.414863 1057.379186 
L 340.981774 1059.469683 
L 338.980999 1060.305882 
L 337.176379 1060.761991 
L 336.391761 1060.914027 
L 335.371759 1060.914027 
L 333.567139 1060.685973 
L 331.527133 1060.457919 
L 330.075591 1060.039819 
L 327.486353 1058.709502 
L 324.151729 1056.771041 
L 323.720189 1056.542986 
L 318.110174 1053.540271 
L 317.247095 1052.970136 
L 316.58017 1052.628054 
L 316.14863 1052.476018 
L 315.324782 1052.438009 
L 314.893242 1052.476018 
L 314.383241 1052.704072 
L 313.755547 1053.426244 
L 301.005513 1067.945701 
L 299.907048 1068.857919 
L 299.004738 1069.123982 
L 298.533968 1069.2 
L 298.102428 1069.2 
L 297.239349 1068.971946 
L 296.297808 1068.667873 
L 295.709345 1068.40181 
L 289.863944 1065.285068 
L 285.783933 1062.548416 
L 284.646238 1061.142081 
L 281.664692 1055.858824 
L 281.193921 1054.908597 
L 280.605458 1054.072398 
L 279.506993 1053.122172 
L 279.232377 1052.856109 
L 277.976989 1052.4 
L 277.388526 1052.361991 
L 274.171595 1052.057919 
L 272.837745 1051.639819 
L 275.858522 1049.20724 
L 278.526222 1045.710407 
L 279.938533 1042.517647 
L 279.624686 1038.488688 
L 279.35007 1034.877828 
L 277.780835 1030.582805 
L 276.368524 1027.238009 
L 276.368524 1024.463348 
L 277.035448 1021.422624 
L 277.623911 1019.066063 
L 278.44776 1018.077828 
L 280.840843 1017.507692 
L 286.176242 1016.671493 
L 288.569325 1015.531222 
L 290.13856 1014.200905 
L 291.237025 1012.642534 
L 291.590103 1011.844344 
L 290.5701 1011.19819 
L 289.707021 1010.285973 
L 287.274707 1006.142986 
L 286.843167 1003.900452 
L 287.274707 1000.707692 
L 289.66779 996.526697 
L 296.219346 988.924887 
L 298.337813 984.743891 
L 298.494737 984.40181 
L 299.593201 980.600905 
L 299.98551 979.726697 
L 301.280129 976.914027 
L 308.027839 961.330317 
L 309.126304 957.98552 
L 302.967056 954.602715 
L 300.377819 953.804525 
L 297.31781 953.728507 
L 292.610106 953.19638 
L 290.491638 952.39819 
L 288.216248 950.687783 
L 286.019319 938.372851 
L 283.351619 933.165611 
L 270.3662 909.409955 
L 268.286963 904.202715 
L 258.832323 893.142081 
L 255.968469 890.78552 
L 252.712306 888.657014 
L 250.044607 886.452489 
L 249.573836 886.072398 
L 246.631521 886.072398 
L 241.963047 884.628054 
L 240.943044 883.639819 
L 238.118421 880.903167 
L 236.27457 879.99095 
L 235.254567 879.724887 
L 235.489952 879.572851 
L 236.196108 879.154751 
L 236.549186 878.774661 
L 237.019956 878.280543 
L 237.059187 877.900452 
L 237.17688 877.064253 
L 237.294573 875.695928 
L 237.373034 874.897738 
L 238.157652 870.906787 
L 238.393037 869.61448 
L 238.51073 867.942081 
L 238.549961 867.6 
L 238.393037 866.877828 
L 238.000728 866.421719 
L 236.784571 866.155656 
L 235.725338 865.889593 
L 234.979951 865.509502 
L 234.156103 863.875113 
L 234.116872 863.571041 
L 233.763794 861.100452 
L 233.724563 858.477828 
L 233.567639 851.446154 
L 233.567639 850.990045 
L 230.821478 849.545701 
L 227.408392 845.972851 
L 221.249145 830.313122 
L 218.934523 827.272398 
L 208.106802 818.910407 
L 199.358317 812.220814 
L 197.122157 811.270588 
L 195.592153 812.714932 
L 193.434455 813.627149 
L 190.727525 813.475113 
L 187.628285 812.752941 
L 180.723652 810.81448 
L 178.016721 809.560181 
L 177.07518 808.495928 
L 177.428258 806.519457 
L 178.173645 803.478733 
L 177.428258 801.160181 
L 175.623638 799.221719 
L 172.877477 798.689593 
L 170.32747 799.60181 
L 167.071307 801.578281 
L 164.913609 803.896833 
L 162.912835 805.341176 
L 161.657447 805.873303 
L 158.950516 805.721267 
L 156.047431 805.531222 
L 138.589692 800.4 
L 131.959675 797.853394 
L 127.958125 795.344796 
L 125.800427 793.21629 
L 125.761196 791.809955 
L 126.859661 789.453394 
L 128.115049 786.602715 
L 128.115049 784.626244 
L 126.82043 782.307692 
L 125.01581 780.711312 
L 124.741194 780.673303 
L 123.564267 780.559276 
L 121.210415 781.091403 
L 119.052717 783.409955 
L 117.601175 786.640724 
L 116.698864 790.023529 
L 115.796554 791.125792 
L 114.69809 791.657919 
L 113.246547 791.125792 
L 112.736546 790.897738 
L 112.971931 790.061538 
L 113.874241 786.526697 
L 114.345012 779.951131 
L 114.776552 773.18552 
L 114.737321 765.925792 
L 114.933475 757.335747 
L 113.246547 742.588235 
L 112.540392 731.793665 
L 113.285778 731.109502 
L 115.992709 728.79095 
L 115.521938 726.282353 
L 114.580397 722.671493 
L 115.247322 720.619005 
L 119.405795 714.271493 
L 123.721191 705.415385 
L 117.954252 704.769231 
L 111.285004 703.895023 
L 109.401922 699.371946 
L 106.851915 692.340271 
L 108.224996 690.325792 
L 111.206542 685.99276 
L 110.65731 663.377376 
L 108.774228 653.60905 
L 104.027292 618.982805 
L 103.360367 614.649774 
L 91.944183 540.684163 
L 90.296486 532.322172 
L 87.589556 522.7819 
L 91.002642 522.211765 
L 95.161114 522.325792 
L 97.554198 522.857919 
L 101.71267 524.302262 
L 104.066523 525.024434 
L 105.518065 525.366516 
L 109.519614 525.176471 
L 113.521164 524.264253 
L 118.778101 521.755656 
L 129.841207 514.039819 
L 143.532783 505.829864 
L 149.69203 498.874208 
L 150.868956 497.353846 
L 151.888959 496.327602 
L 153.026654 495.719457 
L 154.870505 495.453394 
L 161.500523 497.315837 
L 163.14822 497.961991 
L 164.95284 497.847964 
L 167.228231 497.467873 
L 168.209003 496.897738 
L 169.660545 495.301357 
L 172.445937 493.058824 
L 173.897479 492.41267 
L 177.899029 490.968326 
L 180.762882 490.208145 
L 189.942907 488.269683 
L 192.924454 490.170136 
L 194.10138 493.400905 
L 194.846766 497.087783 
L 195.278306 497.809955 
L 195.788307 498.228054 
L 196.769079 498.646154 
L 199.47601 498.760181 
L 201.202168 498.494118 
L 202.457556 498.152036 
L 218.816831 494.275113 
L 220.699913 493.286878 
L 227.32993 492.374661 
L 230.42917 492.868778 
L 234.156103 494.959276 
L 236.431493 496.897738 
L 239.687656 499.292308 
L 247.219984 505.487783 
L 253.026153 510.466968 
L 259.224631 517.61267 
L 261.42156 522.249774 
L 263.736182 528.635294 
L 266.246958 533.99457 
L 267.659269 541.026244 
L 272.053127 549.236199 
L 276.878525 555.241629 
L 281.507768 559.61267 
L 288.216248 563.98371 
L 293.865494 567.252489 
L 299.98551 573.409955 
L 302.927826 571.053394 
L 306.73322 569.457014 
L 312.029388 568.39276 
L 314.932473 568.202715 
L 316.933248 567.822624 
L 318.777099 566.758371 
L 320.032487 565.123982 
L 320.581719 564.211765 
L 321.876338 562.083258 
L 323.32788 558.320362 
L 323.484804 554.367421 
L 324.19096 545.549321 
L 324.700961 538.365611 
L 325.446347 532.740271 
L 328.074816 530.269683 
L 331.017132 528.711312 
L 335.567913 526.924887 
L 341.923315 525.556561 
L 346.238711 523.542081 
L 350.122568 520.843439 
L 351.927188 518.41086 
L 353.064883 513.735747 
L 353.339499 509.59276 
L 382.841117 496.631674 
L 386.13651 495.377376 
L 388.137285 494.38914 
L 392.178065 491.310407 
L 394.924226 488.421719 
L 396.493461 486.597285 
L 400.338087 483.100452 
L 406.850412 479.109502 
L 415.167357 474.39638 
L 419.875062 472.077828 
L 422.817378 471.051584 
L 424.935845 469.949321 
L 426.50508 467.972851 
L 426.93662 466.908597 
L 427.995853 464.247964 
L 428.976625 460.180995 
L 428.976625 456.494118 
L 428.074315 451.895023 
L 429.408165 447.942081 
L 432.585866 445.889593 
L 435.332027 442.962896 
L 435.645874 441.442534 
L 435.332027 439.960181 
L 429.447396 417.952941 
L 429.133549 405.714027 
L 432.507404 397.922172 
L 435.645874 393.361086 
L 439.725885 385.645249 
L 441.608967 381.958371 
L 447.415136 370.251584 
L 447.807445 361.015385 
L 447.336674 352.00724 
L 447.336674 349.916742 
L 447.532829 349.004525 
L 448.631293 348.206335 
L 453.182075 345.621719 
L 457.340547 343.303167 
L 458.439012 341.630769 
L 458.949013 339.920362 
L 459.341322 337.829864 
L 461.106711 329.315837 
L 459.027475 325.514932 
L 456.516699 323.044344 
L 454.908233 321.866063 
L 453.299767 320.079638 
L 451.652071 316.088688 
L 449.651296 309.057014 
L 447.14052 302.633484 
L 446.787442 299.896833 
L 447.57206 294.841629 
L 461.616713 274.468778 
L 465.775185 270.021719 
L 470.325967 266.030769 
L 470.953661 263.750226 
L 470.208274 261.545701 
L 468.011345 258.466968 
L 463.617487 251.093213 
L 462.165945 247.292308 
L 461.734405 243.60543 
L 461.616713 240.032579 
L 461.773636 238.056109 
L 462.675946 233.495023 
L 464.088258 230.188235 
L 465.029799 218.671493 
L 464.16672 211.18371 
L 453.692076 190.924887 
L 450.592837 176.671493 
L 450.985146 170.78009 
L 452.122841 158.883258 
L 453.731307 154.512217 
L 457.615164 140.486878 
L 455.771312 131.59276 
L 449.141295 123.914932 
L 444.041281 117.98552 
L 442.511277 115.400905 
L 441.491274 112.930317 
L 441.098965 109.623529 
L 442.040506 106.696833 
L 443.845127 102.895928 
L 447.493598 97.004525 
L 448.709755 94.609955 
L 448.905909 91.303167 
L 446.748211 87.99638 
L 443.413587 81.458824 
L 442.19743 75.377376 
L 441.216658 62.758371 
L 442.62897 51.507692 
L 442.62897 45.654299 
L 444.041281 31.59095 
L 442.354353 26.193665 
L 455.771312 25.813575 
L 474.719825 24.179186 
L 477.544448 23.038914 
L 480.839841 22.81086 
L 508.222992 20.454299 
L 517.55994 23.038914 
L 529.564587 26.38371 
L 536.586914 24.749321 
L 540.588463 24.749321 
L 544.786167 25.661538 
L 551.376954 27.257919 
L 558.39928 28.626244 
L 566.598533 30.450679 
L 572.914704 32.275113 
L 580.682417 33.871493 
L 593.785529 36.38009 
L 605.51556 38.166516 
L 612.537887 39.534842 
L 616.382513 39.762896 
L 620.501754 39.99095 
L 629.877933 42.271493 
L 638.783342 42.955656 
L 644.864127 44.095928 
L 652.121839 43.867873 
L 666.205723 43.829864 
L 677.033445 43.031674 
L 680.4073 42.499548 
L 686.095777 40.941176 
L 697.041191 34.137557 
L 699.120427 32.123077 
L 701.160432 28.056109 
L 703.945824 20.41629 
L 705.436598 21.252489 
L 709.438147 21.59457 
L 716.028934 19.085973 
L 723.718185 12.966516 
L 726.62127 10.8 
L 730.269741 10.8 
L 733.212057 14.41086 
L 739.802844 20.872398 
L 742.352851 25.167421 
L 741.803618 28.930317 
L 735.60514 38.660633 
L 733.408211 45.122172 
L 733.408211 49.797285 
L 734.781292 55.688688 
L 738.508225 63.176471 
L 740.430538 65.951131 
L 742.627467 67.20543 
L 747.178248 68.915837 
L 753.494419 70.854299 
L 757.927508 72.032579 
L 773.659088 75.60543 
L 782.486035 77.809955 
L 785.624505 78.570136 
L 787.19374 79.21629 
L 788.684513 80.280543 
L 790.136056 82.066968 
L 790.136056 82.637104 
L 790.136056 83.511312 
L 790.292979 85.411765 
L 789.547593 88.832579 
L 788.252974 91.493213 
L 786.095276 93.925792 
L 785.036042 94.609955 
L 779.347565 98.41086 
L 777.699868 99.931222 
L 776.052172 102.021719 
L 775.54217 104.188235 
L 775.306785 106.696833 
L 775.738325 109.433484 
L 776.40525 111.333937 
L 783.741423 118.517647 
L 790.685288 126.80362 
L 792.529139 129.654299 
L 791.705291 131.820814 
L 790.33221 135.393665 
L 785.310658 143.831674 
L 785.075273 146.226244 
L 785.310658 147.898643 
L 787.62528 151.129412 
L 793.235295 158.275113 
L 794.216067 160.441629 
L 794.451452 163.064253 
L 794.216067 164.470588 
L 792.725293 165.914932 
L 789.586823 166.40905 
L 786.409123 168.081448 
L 784.95758 170.476018 
L 784.48681 171.882353 
L 784.722195 173.820814 
L 786.173737 175.227149 
L 788.841437 175.949321 
L 792.99991 175.455204 
L 797.354537 174.276923 
L 800.022236 175.455204 
L 800.767623 178.343891 
L 802.219165 191.000905 
L 803.199937 196.474208 
L 807.083793 203.391855 
L 808.809952 206.052489 
L 809.359184 208.941176 
L 808.653028 213.312217 
L 809.908416 218.101357 
L 811.830729 221.446154 
L 813.792273 224.524887 
L 814.027658 227.451584 
L 813.909966 232.506787 
L 813.909966 232.886878 
L 813.713811 237.029864 
L 813.007655 238.81629 
L 811.791498 239.804525 
L 809.751493 240.260633 
L 799.512235 242.047059 
L 795.981456 243.18733 
L 793.117602 244.099548 
L 786.095276 247.482353 
L 778.445255 252.081448 
L 774.443706 255.61629 
L 773.188318 257.896833 
L 773.149087 261.165611 
L 774.757553 264.890498 
L 775.189092 266.41086 
L 775.228323 267.741176 
L 774.090628 269.071493 
L 771.383698 270.439819 
L 767.970612 274.164706 
L 767.264456 274.962896 
L 766.597531 277.509502 
L 766.950609 280.094118 
L 768.245228 281.99457 
L 774.757553 286.479638 
L 784.526041 292.257014 
L 790.096825 295.449774 
L 792.372216 295.449774 
L 795.628378 294.461538 
L 799.512235 293.20724 
L 808.653028 292.865158 
L 822.030757 293.815385 
L 829.170776 296.704072 
L 837.997723 302.481448 
L 854.592382 313.99819 
L 859.653165 320.573756 
L 864.203947 327.301357 
L 869.107806 332.736652 
L 874.325512 336.575566 
L 878.209369 340.110407 
L 880.48476 343.60724 
L 880.48476 345.545701 
L 879.190141 348.434389 
L 875.933978 350.676923 
L 873.972434 353.223529 
L 872.363969 357.404525 
L 868.754728 364.132127 
L 864.439332 371.277828 
L 861.967787 374.470588 
L 858.672393 376.941176 
L 853.14084 380.476018 
L 848.236981 383.022624 
L 844.039277 383.668778 
L 840.783115 382.718552 
L 835.879255 379.829864 
L 832.623093 379.487783 
L 828.072311 380.78009 
L 824.659225 383.174661 
L 819.441519 386.709502 
L 814.184582 390.852489 
L 810.379187 392.448869 
L 805.475328 392.448869 
L 803.278399 392.980995 
L 801.669933 394.349321 
L 801.395317 395.945701 
L 801.944549 397.808145 
L 803.827631 401.038914 
L 803.945323 401.304977 
L 805.200711 404.497738 
L 806.573792 407.728507 
L 806.848408 409.324887 
L 806.299176 410.427149 
L 803.827631 411.491403 
L 798.139154 413.61991 
L 795.118377 414.988235 
L 792.686063 418.713122 
L 792.686063 422.742081 
L 795.118377 428.367421 
L 798.139154 434.79095 
L 800.571468 439.085973 
L 802.768397 441.480543 
L 805.632251 443.228959 
L 812.144576 447.523982 
L 814.066889 453.947511 
L 813.792273 456.646154 
L 811.359959 465.730317 
L 811.477651 472.305882 
L 813.399964 476.334842 
L 815.047661 478.995475 
L 818.303824 481.960181 
L 822.933067 484.620814 
L 825.129996 487.851584 
L 827.836926 492.41267 
L 830.308471 497.505882 
L 832.740785 501.496833 
L 834.388482 502.865158 
L 846.903131 507.122172 
L 852.905455 511.949321 
L 853.454687 514.914027 
L 853.180071 521.337557 
L 854.278535 522.667873 
L 856.318541 523.352036 
L 857.927007 523.352036 
L 860.673168 522.553846 
L 866.361645 519.323077 
L 874.835514 516.358371 
L 879.974758 515.826244 
L 885.702466 516.092308 
L 889.860939 516.434389 
L 893.548641 517.042534 
L 895.510185 518.258824 
L 896.883265 520.38733 
L 898.491731 524.948416 
L 898.491731 528.179186 
L 899.315579 530.041629 
L 901.237892 531.105882 
L 903.670206 531.638009 
L 907.240216 532.170136 
L 914.027157 532.170136 
L 918.107168 531.371946 
L 919.597941 531.828054 
L 920.029481 532.170136 
L 920.853329 533.538462 
L 921.363331 536.731222 
L 924.109492 545.853394 
L 928.738735 553.341176 
L 931.171049 555.241629 
L 933.642595 554.975566 
L 937.330297 554.177376 
L 937.565682 554.177376 
L 940.15492 554.177376 
L 944.234931 556.305882 
L 947.177246 559.460633 
L 950.825718 563.451584 
L 959.378048 572.763801 
L 962.241902 575.99457 
L 962.751903 576.564706 
L 964.321138 578.237104 
L 964.752678 579.263348 
L 965.105756 580.099548 
L 964.791909 584.204525 
L 964.791909 592.186425 
L 964.870371 592.946606 
L 965.184218 594.923077 
L 965.694219 596.443439 
L 967.53807 598.838009 
L 968.479611 599.712217 
L 970.441155 601.650679 
L 976.443479 608.036199 
L 978.28733 609.822624 
L 980.248873 611.647059 
L 985.741196 616.81629 
L 986.015812 617.044344 
L 988.722742 619.59095 
L 991.076595 623.277828 
L 992.018136 626.850679 
L 992.018136 627.19276 
L 992.253521 632.01991 
L 992.371214 635.59276 
L 992.410444 635.858824 
" clip-path="url(#pdf775b8d61)"/>
   </g>
  </g>
 </g>
 <defs>
  <clipPath id="pdf775b8d61">
   <rect x="87.589556" y="10.8" width="904.820889" height="1058.4"/>
  </clipPath>
 </defs>
</svg>
