<?xml version="1.0" encoding="utf-8" standalone="no"?>
<!DOCTYPE svg PUBLIC "-//W3C//DTD SVG 1.1//EN"
  "http://www.w3.org/Graphics/SVG/1.1/DTD/svg11.dtd">
<svg xmlns:xlink="http://www.w3.org/1999/xlink" width="1080pt" height="1080pt" viewBox="0 0 1080 1080" xmlns="http://www.w3.org/2000/svg" version="1.1">
 <metadata>
  <rdf:RDF xmlns:dc="http://purl.org/dc/elements/1.1/" xmlns:cc="http://creativecommons.org/ns#" xmlns:rdf="http://www.w3.org/1999/02/22-rdf-syntax-ns#">
   <cc:Work>
    <dc:type rdf:resource="http://purl.org/dc/dcmitype/StillImage"/>
    <dc:date>2022-07-01T13:43:19.433511</dc:date>
    <dc:format>image/svg+xml</dc:format>
    <dc:creator>
     <cc:Agent>
      <dc:title>Matplotlib v3.5.1, https://matplotlib.org/</dc:title>
     </cc:Agent>
    </dc:creator>
   </cc:Work>
  </rdf:RDF>
 </metadata>
 <defs>
  <style type="text/css">*{stroke-linejoin: round; stroke-linecap: butt}</style>
 </defs>
 <g id="figure_1">
  <g id="patch_1">
   <path d="M 0 1080 
L 1080 1080 
L 1080 0 
L 0 0 
L 0 1080 
z
" style="fill: none; opacity: 0"/>
  </g>
  <g id="axes_1">
   <g id="PatchCollection_1">
    <path d="M 741.210019 683.949212 
L 739.957245 684.392069 
L 738.569035 684.367466 
L 737.60406 683.859 
L 736.749125 683.137306 
L 736.571367 682.251591 
L 737.036925 681.447887 
L 737.807212 680.545769 
L 739.212352 679.291006 
L 740.355085 678.602117 
L 741.413172 678.339683 
L 742.352753 678.421693 
L 743.199223 679.176191 
L 743.867933 680.070108 
L 743.927186 680.955823 
L 743.605528 682.153178 
L 742.496653 683.39974 
L 741.210019 683.949212 
" clip-path="url(#p3295d5c19c)"/>
    <path d="M 1034.088447 622.638042 
L 1033.098078 623.294127 
L 1031.963809 624.138837 
L 1030.634852 625.00815 
L 1029.771453 625.647833 
L 1028.256273 627.066618 
L 1027.274368 627.976936 
L 1025.886158 629.018471 
L 1024.345584 629.977996 
L 1022.407169 630.691489 
L 1019.656143 631.322971 
L 1017.692334 631.70022 
L 1016.448024 632.036464 
L 1015.102138 632.249691 
L 1013.079076 632.717152 
L 1011.242237 633.00419 
L 1009.633945 633.069798 
L 1007.737854 632.848369 
L 1006.688231 632.643343 
L 1005.824833 632.208686 
L 1005.545498 631.757627 
L 1005.07994 630.92932 
L 1004.639775 630.092811 
L 1004.411229 629.026672 
L 1004.690564 627.722703 
L 1005.257698 626.820586 
L 1005.994127 626.107093 
L 1007.407731 625.410002 
L 1008.719758 624.811325 
L 1009.777845 624.442277 
L 1011.284561 623.991218 
L 1012.097171 623.671376 
L 1013.197582 623.54836 
L 1013.849363 623.515556 
L 1015.102138 623.253122 
L 1016.820471 623.23672 
L 1018.479551 622.728254 
L 1021.789246 621.670316 
L 1024.184755 620.940421 
L 1027.291298 619.882484 
L 1028.975772 619.283806 
L 1030.744893 618.898356 
L 1033.411272 618.340683 
L 1033.969942 618.283276 
L 1035.044958 618.275075 
L 1036.458562 618.406292 
L 1036.932585 618.504705 
L 1037.415072 618.668726 
L 1037.745195 618.873753 
L 1037.956813 619.168991 
L 1038.109177 619.497034 
L 1038.092248 619.857881 
L 1037.821378 620.251532 
L 1037.381214 620.563172 
L 1036.407774 621.120845 
L 1035.67981 621.5473 
L 1034.968776 621.973756 
L 1034.088447 622.638042 
M 1017.692334 625.057357 
L 1016.769683 625.459209 
L 1015.830101 625.3936 
L 1013.434593 625.245981 
L 1011.834766 625.360796 
L 1010.548132 625.959474 
L 1009.430792 626.664765 
L 1007.162254 627.484872 
L 1006.298856 628.337783 
L 1005.977197 629.346514 
L 1006.408897 630.224028 
L 1007.221507 631.5444 
L 1009.557763 632.175882 
L 1010.954437 632.298898 
L 1012.486547 631.913448 
L 1016.8374 631.47059 
L 1018.623451 630.757097 
L 1020.079378 630.199425 
L 1022.017793 629.69916 
L 1023.744591 629.248101 
L 1026.41097 627.493073 
L 1027.706068 626.295717 
L 1028.891125 625.344394 
L 1029.322824 624.220848 
L 1028.781084 623.572964 
L 1027.875362 623.113704 
L 1026.055452 623.179312 
L 1024.73496 623.39254 
L 1022.644181 624.032223 
L 1019.876225 624.663705 
L 1017.692334 625.057357 
" clip-path="url(#p3295d5c19c)"/>
    <path d="M 863.169337 627.107623 
L 860.638393 627.222438 
L 858.23442 626.869792 
L 856.761563 626.139897 
L 855.661153 624.917938 
L 855.466465 623.983017 
L 855.661153 622.703651 
L 856.981645 620.858411 
L 858.92006 619.374018 
L 861.01084 618.398091 
L 862.424444 618.037244 
L 865.048499 617.733805 
L 866.622932 617.799413 
L 868.400518 618.143858 
L 869.839516 618.824546 
L 871.10922 619.743066 
L 871.507061 620.727194 
L 871.439344 621.735925 
L 871.016109 622.506825 
L 869.915699 623.613969 
L 868.06193 625.139367 
L 865.293975 626.525347 
L 863.169337 627.107623 
" clip-path="url(#p3295d5c19c)"/>
    <path d="M 91.536256 589.833778 
L 91.629367 589.948593 
L 91.646297 590.194625 
L 91.56165 590.703091 
L 91.468538 591.022932 
L 91.502397 591.523197 
L 91.485468 591.728224 
L 91.316174 591.892245 
L 91.053768 591.957854 
L 90.681322 592.015261 
L 90.080328 592.031664 
L 89.623235 592.130076 
L 89.284647 592.195685 
L 88.751371 592.15468 
L 88.446642 592.162881 
L 88.209631 592.23669 
L 87.871043 592.499124 
L 87.66789 592.794363 
L 87.498596 593.0814 
L 87.286979 593.278226 
L 86.965321 593.393041 
L 85.949557 593.491453 
L 85.45014 593.524258 
L 85.086158 593.655475 
L 84.713712 593.868702 
L 84.180436 594.122935 
L 83.918031 594.131136 
L 83.613302 594.245951 
L 83.350896 594.377168 
L 83.147743 594.606798 
L 82.97845 594.943042 
L 82.809156 595.353095 
L 82.707579 595.935371 
L 82.682185 596.689869 
L 82.699115 597.493574 
L 82.665256 598.444897 
L 82.716044 598.977966 
L 82.859944 599.650454 
L 82.893803 600.101513 
L 82.792226 600.363947 
L 82.555215 600.536169 
L 82.081192 600.626381 
L 81.691816 600.527968 
L 81.454805 600.363947 
L 81.319369 600.150719 
L 81.285511 599.789872 
L 81.141611 599.61765 
L 80.963852 599.535639 
L 80.684517 599.535639 
L 80.455971 599.560242 
L 80.007342 599.732465 
L 79.609501 600.093311 
L 79.380954 600.437756 
L 79.211661 600.92982 
L 79.135478 601.495694 
L 79.08469 602.176382 
L 79.118549 602.758658 
L 79.296307 603.103103 
L 79.533319 603.332733 
L 79.702613 603.472151 
L 79.78726 603.636172 
L 79.753401 603.857601 
L 79.524854 604.202046 
L 79.152408 604.661305 
L 78.856143 604.858131 
L 78.432909 604.93194 
L 77.96735 604.866332 
L 77.56951 604.726914 
L 77.366357 604.644903 
L 77.053163 604.653104 
L 76.790758 604.735115 
L 76.494494 604.989348 
L 76.350594 605.284586 
L 76.198229 605.77665 
L 76.198229 606.293317 
L 76.215159 606.85099 
L 76.519888 607.761308 
L 76.604535 608.540409 
L 76.951587 608.77824 
L 77.29864 608.958664 
L 77.628763 609.130886 
L 78.026603 609.294908 
L 78.424444 609.458929 
L 78.585273 609.598347 
L 78.644526 609.795173 
L 78.585273 609.967395 
L 78.356726 610.180623 
L 78.162038 610.377448 
L 78.11125 610.566073 
L 78.11125 610.779301 
L 78.280544 611.197555 
L 79.118549 612.3129 
L 80.709911 614.076129 
L 81.911898 615.125866 
L 82.969985 615.921369 
L 84.197366 616.716872 
L 84.527489 616.897296 
L 85.094623 617.208936 
L 86.211963 617.783011 
L 87.515526 618.357086 
L 88.895271 618.881954 
L 89.894105 619.144388 
L 90.765968 619.341213 
L 91.553185 619.398621 
L 92.51816 619.341213 
L 93.237659 619.168991 
L 93.694753 618.947562 
L 94.211099 618.562112 
L 94.871345 617.815815 
L 95.032174 617.602587 
L 95.336903 617.200735 
L 95.675491 616.585655 
L 95.717815 616.265814 
L 95.929432 616.060787 
L 96.115655 616.036184 
L 96.733578 616.118195 
L 97.173742 616.339623 
L 97.605442 616.733274 
L 98.045606 617.520577 
L 98.011747 618.742536 
L 98.003282 619.70206 
L 97.935565 620.874813 
L 97.791665 622.810264 
L 97.723947 623.531958 
L 97.80013 624.00762 
L 97.977888 624.196245 
L 98.223364 624.23725 
L 98.570417 624.229049 
L 98.858216 624.335663 
L 99.179875 624.729314 
L 99.687756 625.598627 
L 99.941697 626.377728 
L 100.136385 627.156829 
L 100.195638 627.616089 
L 100.127921 627.985137 
L 100.00095 628.304979 
L 99.738545 628.526407 
L 99.103693 628.682228 
L 98.494235 628.829847 
L 97.994818 629.034874 
L 97.546189 629.39572 
L 97.182207 629.830377 
L 96.835154 630.281436 
L 96.68279 630.461859 
L 96.276485 630.748896 
L 95.506197 631.126145 
L 95.099892 631.462389 
L 94.73591 631.946252 
L 94.244958 632.651544 
L 94.05027 633.077999 
L 94.033341 633.299428 
L 94.101058 633.38964 
L 94.312675 633.356835 
L 94.955992 633.16001 
L 95.692421 632.881174 
L 96.056403 632.643343 
L 96.284949 632.298898 
L 96.318808 632.020062 
L 96.471173 631.634611 
L 96.784366 631.322971 
L 97.199136 630.953923 
L 97.749341 630.306039 
L 97.935565 630.15842 
L 98.147182 630.068208 
L 98.316476 630.068208 
L 98.680458 630.183023 
L 99.213734 630.289637 
L 99.916303 630.347044 
L 100.381861 630.371647 
L 100.745843 630.306039 
L 100.957461 630.174822 
L 101.084431 630.019001 
L 101.11829 629.85498 
L 101.059037 629.502334 
L 100.957461 629.01027 
L 101.008249 628.649423 
L 101.067502 628.116354 
L 101.016713 627.771909 
L 100.889743 626.976406 
L 100.652732 626.041484 
L 100.381861 625.278785 
L 99.823192 624.335663 
L 99.484604 623.720583 
L 99.433816 623.449948 
L 99.349169 622.662645 
L 99.332239 622.482222 
L 99.222198 621.325871 
L 99.002116 620.218728 
L 98.917469 619.267404 
L 98.875146 617.717402 
L 98.841287 617.110524 
L 98.688922 616.134597 
L 98.502699 615.593326 
L 98.333405 615.322691 
L 98.020212 614.961844 
L 97.918635 614.765019 
L 97.901706 614.404172 
L 98.113323 614.092531 
L 98.451911 614.018722 
L 99.120622 614.018722 
L 99.687756 614.215547 
L 100.01788 614.445177 
L 100.094062 614.6256 
L 100.068668 614.822426 
L 99.823192 614.970045 
L 99.467674 615.166871 
L 99.357633 615.511316 
L 99.44228 615.749147 
L 99.696221 615.904967 
L 99.924768 615.904967 
L 100.161779 615.880364 
L 100.568085 615.667136 
L 101.135219 615.191474 
L 101.67696 614.535389 
L 101.964759 613.944912 
L 102.057871 613.362636 
L 101.973224 612.616339 
L 101.812395 611.747026 
L 101.643101 611.336973 
L 101.24526 611.041735 
L 100.576549 610.656285 
L 99.738545 610.197025 
L 99.129087 610.033004 
L 98.595811 609.967395 
L 97.935565 609.844379 
L 97.588512 609.803374 
L 97.258389 609.819776 
L 96.869013 610.000199 
L 96.555819 610.106813 
L 96.39499 610.065808 
L 96.149514 609.795173 
L 95.641632 609.040675 
L 95.540056 608.753637 
L 95.573915 608.565013 
L 95.743209 608.327182 
L 95.878644 608.228769 
L 96.301879 608.204166 
L 96.725113 608.294378 
L 96.902872 608.23697 
L 97.106025 608.138557 
L 97.165277 607.900726 
L 97.165277 607.556282 
L 97.216066 607.203636 
L 97.419218 606.908397 
L 97.7832 606.62136 
L 98.291082 606.317921 
L 98.578881 606.137497 
L 98.790499 605.948873 
L 98.925934 605.645433 
L 99.04444 605.095962 
L 99.095228 604.77612 
L 99.366098 604.16104 
L 99.704686 603.603368 
L 100.068668 603.308129 
L 100.923602 602.996489 
L 101.321442 602.766859 
L 101.753142 602.46342 
L 102.421853 601.889345 
L 102.878946 601.692519 
L 103.352969 601.651514 
L 103.987821 601.799133 
L 104.885079 602.094372 
L 105.401425 602.356806 
L 105.621507 602.553631 
L 105.943166 603.127706 
L 106.247895 603.726384 
L 106.848888 604.489083 
L 107.390628 605.104163 
L 107.864651 605.817656 
L 108.084733 606.022682 
L 108.389462 606.252312 
L 108.685727 606.317921 
L 108.939667 606.317921 
L 109.227467 606.203106 
L 110.014684 605.678237 
L 110.717253 605.448608 
L 111.07277 605.432205 
L 111.563723 605.579825 
L 112.511769 606.112894 
L 113.078903 606.613159 
L 113.739149 607.498874 
L 114.255496 608.031943 
L 114.771842 608.327182 
L 115.449017 608.62242 
L 115.880717 608.614219 
L 116.219305 608.4666 
L 116.397063 608.318981 
L 116.473246 608.154959 
L 116.413993 607.16263 
L 116.566357 606.572154 
L 116.735651 605.842259 
L 116.777975 605.259983 
L 116.964198 604.644903 
L 117.31125 604.210247 
L 117.59905 604.013421 
L 117.971496 603.947813 
L 118.310084 604.046225 
L 118.817966 604.374268 
L 119.376636 604.784321 
L 119.782941 605.341994 
L 120.62941 606.801783 
L 121.137292 607.564483 
L 121.560527 608.08115 
L 122.026085 608.606018 
L 122.483179 609.106283 
L 122.652472 609.385119 
L 122.686331 609.614749 
L 122.618614 609.754167 
L 122.373138 609.85258 
L 121.74675 609.885384 
L 121.120363 609.991998 
L 120.417793 610.221628 
L 119.766012 610.246231 
L 119.13116 610.279035 
L 118.470913 610.410253 
L 118.090002 610.566073 
L 117.45515 610.885914 
L 116.998057 611.181153 
L 116.659469 611.574804 
L 116.515569 611.968455 
L 116.430922 612.419514 
L 116.430922 613.215017 
L 116.48171 613.813695 
L 116.388599 614.125335 
L 116.092334 614.363166 
L 115.779141 614.502585 
L 115.423623 614.527188 
L 115.042712 614.38777 
L 114.805701 614.149939 
L 114.611013 613.8547 
L 114.348607 613.075599 
L 114.103131 612.706551 
L 113.832261 612.526128 
L 113.324379 612.419514 
L 112.528698 612.435916 
L 111.622976 612.690149 
L 111.064306 612.977186 
L 110.768041 613.23962 
L 110.327877 613.903907 
L 110.082401 614.141738 
L 109.456014 614.248351 
L 108.380998 614.338563 
L 107.720751 614.436976 
L 107.382164 614.346764 
L 107.035111 614.100732 
L 106.857353 613.723483 
L 106.645735 613.272425 
L 106.552624 613.124805 
L 106.357936 613.026393 
L 106.180177 613.001789 
L 105.723084 613.092001 
L 104.97819 613.452848 
L 104.317944 614.059727 
L 103.869315 614.863431 
L 103.46301 615.716342 
L 103.225999 616.503645 
L 102.988987 617.897826 
L 102.726582 619.825076 
L 102.887411 622.104973 
L 102.912805 622.195184 
L 103.767739 625.31159 
L 104.631138 627.443867 
L 106.552624 631.462389 
L 108.643403 636.063187 
L 110.734183 639.999699 
L 111.978493 642.033563 
L 111.48754 642.386209 
L 110.844224 642.648643 
L 109.896178 642.902876 
L 108.72805 642.861871 
L 108.45718 643.649173 
L 108.16938 643.657374 
L 107.796934 643.526157 
L 107.255193 642.861871 
L 106.806564 642.607638 
L 106.171712 642.501024 
L 105.799266 642.197585 
L 105.282919 640.983827 
L 104.969726 640.540969 
L 104.453379 640.360546 
L 103.801598 640.344144 
L 102.870482 640.450757 
L 102.269488 640.7788 
L 101.507666 641.475891 
L 100.991319 642.000759 
L 100.356467 642.738855 
L 99.594645 643.657374 
L 99.306845 644.051025 
L 99.061369 644.190444 
L 98.638134 644.215047 
L 98.020212 644.149438 
L 97.605442 644.936741 
L 97.546189 645.428805 
L 97.546189 645.830657 
L 97.588512 646.060287 
L 97.766271 646.273514 
L 95.108357 647.331452 
L 94.422716 646.560552 
L 93.754006 645.453408 
L 93.90637 644.969545 
L 94.024876 644.124835 
L 94.05027 643.55076 
L 93.940229 643.181712 
L 93.660894 642.952083 
L 93.440812 642.714252 
L 92.797495 642.886474 
L 91.434679 642.943882 
L 89.970287 642.574834 
L 89.504729 642.517426 
L 89.208465 642.837268 
L 88.954524 644.411872 
L 88.92913 645.494413 
L 88.903736 646.445737 
L 88.277348 647.807114 
L 87.566314 648.102352 
L 86.69445 647.995738 
L 86.093457 647.675897 
L 85.526323 646.519546 
L 84.789894 645.830657 
L 83.731807 645.281185 
L 82.775297 644.969545 
L 82.555215 645.223778 
L 82.115051 646.519546 
L 81.878039 647.987537 
L 81.878039 648.610818 
L 82.055798 649.234099 
L 80.989246 649.62775 
L 79.804189 649.865581 
L 78.864608 649.77537 
L 77.755733 649.234099 
L 75.944288 647.938331 
L 74.319067 646.921399 
L 73.540315 646.658964 
L 72.913928 646.642562 
L 72.346793 646.85579 
L 69.434938 648.660025 
L 68.766228 649.291507 
L 68.529216 650.111613 
L 68.326063 650.570873 
L 67.589635 650.93172 
L 66.201425 651.013731 
L 64.96558 650.948122 
L 64.009069 650.636482 
L 63.094882 649.832777 
L 62.620859 649.266903 
L 62.036796 649.119284 
L 59.666681 649.094681 
L 58.337724 649.184893 
L 57.542043 649.389919 
L 56.22155 649.783571 
L 54.452429 650.136216 
L 53.33509 650.488862 
L 51.997668 651.226958 
L 50.626387 651.817435 
L 49.153531 652.104472 
L 47.553703 652.309499 
L 46.233211 652.293097 
L 44.743425 651.177752 
L 44.167826 650.743095 
L 42.567998 649.562142 
L 41.188253 648.340183 
L 39.816973 646.9296 
L 39.19905 646.068488 
L 39.105938 645.346794 
L 39.74079 644.297057 
L 40.206349 643.370337 
L 40.265601 642.492823 
L 40.553401 641.951553 
L 42.144764 640.606578 
L 43.939279 639.130386 
L 44.684172 638.334882 
L 45.403671 637.801813 
L 45.759188 637.178532 
L 45.903088 636.1616 
L 46.097776 634.496784 
L 46.241676 633.348634 
L 46.182423 632.848369 
L 45.784582 632.421914 
L 45.090477 631.847839 
L 44.497949 631.445987 
L 43.812308 630.748896 
L 43.033556 629.559742 
L 42.305593 628.592016 
L 41.366012 627.632491 
L 40.959706 626.894395 
L 40.900453 626.025082 
L 41.018959 624.630901 
L 41.484517 622.925079 
L 41.856964 621.473491 
L 41.797711 621.129046 
L 41.467588 621.022432 
L 40.604189 621.211057 
L 39.596891 621.571903 
L 37.68387 622.309999 
L 35.135997 623.671376 
L 32.748953 624.983547 
L 31.072943 625.811855 
L 28.79594 627.730904 
L 28.262665 627.353655 
L 27.475448 626.599157 
L 26.662837 625.934871 
L 26.027985 625.360796 
L 25.156122 624.844129 
L 23.683265 624.229049 
L 22.616713 623.712382 
L 21.897214 623.056296 
L 20.999957 622.293597 
L 20.441287 621.93275 
L 19.950335 621.834338 
L 19.391665 621.916348 
L 18.088102 622.00656 
L 16.962298 622.121375 
L 15.844958 622.186983 
L 15.277823 622.186983 
L 14.786871 622.416613 
L 14.236666 622.93328 
L 13.796502 623.343334 
L 13.424055 623.417143 
L 12.738415 623.351535 
L 11.841157 623.105503 
L 10.8 622.703651 
L 11.011617 621.793332 
L 11.21477 621.211057 
L 11.48564 620.694389 
L 11.925804 620.169521 
L 12.120492 619.93169 
L 12.154351 619.70206 
L 12.052775 619.365817 
L 11.849622 619.054176 
L 11.697258 618.758938 
L 11.553358 618.398091 
L 11.468711 617.938831 
L 11.50257 617.594386 
L 11.663399 617.258143 
L 12.112028 616.848089 
L 12.340574 616.495444 
L 12.611445 615.92957 
L 13.01775 615.445707 
L 13.483308 615.00285 
L 13.872684 614.46978 
L 14.431354 613.838298 
L 15.150853 613.256022 
L 16.081969 612.665546 
L 17.140056 612.001259 
L 17.85109 611.410783 
L 18.460548 610.877713 
L 18.866854 610.443057 
L 18.917642 610.000199 
L 18.765277 609.221098 
L 18.621378 608.614219 
L 18.663701 608.16316 
L 19.010754 607.482472 
L 19.484777 606.54755 
L 19.671 606.063688 
L 19.645606 605.784851 
L 19.459382 605.54702 
L 19.264694 605.284586 
L 19.222371 604.833528 
L 19.264694 604.292257 
L 19.40013 603.480352 
L 19.518635 602.611039 
L 19.628676 602.151779 
L 19.899547 601.864742 
L 20.390499 601.561302 
L 20.949169 601.348075 
L 21.677132 601.274265 
L 22.278126 601.167651 
L 22.659037 600.970826 
L 22.921442 600.659185 
L 23.056878 600.191724 
L 23.158454 599.527438 
L 23.175383 598.822146 
L 23.124595 598.453098 
L 22.887584 597.920029 
L 22.599784 597.329552 
L 22.269661 596.747277 
L 21.914144 596.38643 
L 21.533233 596.025583 
L 21.313151 595.77135 
L 21.304686 595.566323 
L 21.533233 595.377698 
L 22.30352 595.08246 
L 23.13306 594.729814 
L 23.412395 594.557592 
L 23.513971 594.352565 
L 23.454718 594.15574 
L 23.183848 593.688279 
L 22.938372 593.270025 
L 22.955301 593.040395 
L 23.13306 592.810765 
L 23.742518 592.507325 
L 24.453552 592.228489 
L 25.130728 592.089071 
L 25.537033 592.00706 
L 25.774044 591.818436 
L 26.03645 591.473991 
L 26.087238 591.088541 
L 26.129562 590.834308 
L 26.298856 590.760498 
L 26.510473 590.785101 
L 26.908314 590.957324 
L 27.221507 590.957324 
L 27.56856 590.801504 
L 28.228806 590.407852 
L 28.787476 590.030603 
L 29.032952 589.751767 
L 29.286893 589.276105 
L 29.523904 589.071079 
L 29.777845 588.997269 
L 30.18415 588.980867 
L 30.47195 588.882454 
L 30.75975 588.759438 
L 30.988296 588.84965 
L 31.521572 589.333513 
L 32.020989 590.055207 
L 32.605053 590.637482 
L 33.476916 591.506795 
L 34.103304 592.015261 
L 34.746621 592.548331 
L 35.440726 592.884574 
L 36.168689 593.106003 
L 36.998229 593.220818 
L 37.81084 593.368437 
L 38.403369 593.62267 
L 39.004362 594.00812 
L 39.512244 594.254152 
L 39.986266 594.377168 
L 40.367178 594.393571 
L 40.815807 594.204946 
L 41.501447 593.901507 
L 42.288663 593.663676 
L 42.940445 593.434046 
L 43.287497 593.15521 
L 43.600691 592.646743 
L 43.90542 592.302299 
L 44.328655 592.138277 
L 44.726495 591.982457 
L 45.039689 591.752827 
L 45.29363 591.506795 
L 45.429065 591.154149 
L 45.572965 590.711292 
L 45.809976 590.227429 
L 46.317858 589.743566 
L 46.851134 589.366317 
L 47.198186 589.177693 
L 47.469056 589.185894 
L 47.833038 589.46473 
L 48.264738 589.915788 
L 48.679508 590.112614 
L 49.466724 590.366847 
L 50.042323 590.629281 
L 50.567135 590.809705 
L 50.964975 590.973726 
L 51.24431 591.260763 
L 51.447463 591.564203 
L 52.023062 592.449918 
L 52.48862 592.950183 
L 52.810279 593.319231 
L 53.140402 593.442247 
L 53.555172 593.384839 
L 54.206953 593.360236 
L 55.112675 593.507855 
L 55.891427 593.630871 
L 56.534744 593.819496 
L 57.101879 593.885104 
L 57.592831 593.950713 
L 57.914489 594.073729 
L 58.845606 594.573994 
L 60.343857 595.435106 
L 61.452732 596.189604 
L 62.028331 596.550451 
L 62.409242 596.566853 
L 62.857871 596.345424 
L 63.298035 595.845159 
L 63.611229 595.656535 
L 64.025999 595.615529 
L 64.82168 595.804154 
L 65.549644 595.886165 
L 66.396113 595.779551 
L 67.03943 595.738545 
L 67.665817 595.779551 
L 68.402246 595.943572 
L 69.028633 596.181403 
L 69.511121 596.304419 
L 69.832779 596.23881 
L 70.08672 595.959974 
L 70.535349 595.402302 
L 71.026301 595.033254 
L 71.415677 594.918439 
L 72.118247 594.984047 
L 72.956251 595.31209 
L 73.650356 595.738545 
L 74.175167 595.92717 
L 74.699978 596.058387 
L 75.419477 596.058387 
L 76.0374 595.92717 
L 76.799223 595.615529 
L 77.476398 595.164471 
L 78.162038 594.524788 
L 79.169337 593.811295 
L 80.252818 592.786162 
L 80.946923 592.302299 
L 81.852645 591.982457 
L 82.724509 591.457589 
L 83.494796 590.891715 
L 83.926495 590.809705 
L 85.661758 591.326372 
L 86.203498 591.416584 
L 86.948391 591.285367 
L 88.048802 590.826107 
L 89.648629 590.424255 
L 90.926798 590.104413 
L 91.536256 589.833778 
" clip-path="url(#p3295d5c19c)"/>
    <path d="M 94.397322 589.891185 
L 94.126452 589.989598 
L 93.711682 589.932191 
L 93.017577 589.653354 
L 92.678989 589.448328 
L 92.51816 589.194095 
L 92.484301 588.669226 
L 92.560484 587.685099 
L 92.865213 587.037214 
L 93.07683 586.750177 
L 93.356165 586.586156 
L 93.855582 586.454939 
L 94.244958 586.454939 
L 94.676657 586.733775 
L 94.930598 587.266844 
L 95.108357 587.77531 
L 95.108357 588.201766 
L 94.989851 588.857851 
L 94.60894 589.69436 
L 94.397322 589.891185 
" clip-path="url(#p3295d5c19c)"/>
    <path d="M 845.469661 586.266314 
L 844.640121 586.413933 
L 843.946016 586.241711 
L 842.811747 585.766049 
L 842.176895 585.093562 
L 841.948348 584.150439 
L 842.02453 583.469751 
L 842.329259 582.936681 
L 842.650918 582.764459 
L 843.912157 582.124776 
L 844.403109 582.08377 
L 845.892896 582.15758 
L 846.866336 582.534829 
L 847.28957 583.076099 
L 847.298035 583.888005 
L 847.179529 584.445677 
L 846.815547 585.323192 
L 846.180695 585.979277 
L 845.469661 586.266314 
" clip-path="url(#p3295d5c19c)"/>
    <path d="M 864.879205 573.530059 
L 867.190067 576.416834 
L 868.070395 577.92583 
L 868.375124 579.426625 
L 868.045001 581.46869 
L 867.020773 583.502555 
L 864.726841 585.405202 
L 861.688016 587.299648 
L 858.420643 589.013671 
L 856.482228 589.292507 
L 854.484561 589.259703 
L 853.121745 589.021872 
L 850.438437 588.00494 
L 849.769726 587.275045 
L 849.803585 585.782451 
L 850.057525 585.429805 
L 850.599266 584.970546 
L 851.708141 584.913138 
L 853.358756 585.347795 
L 854.64539 585.643033 
L 855.796588 585.667636 
L 857.023969 585.372398 
L 858.141309 584.77372 
L 860.59607 582.657845 
L 861.273246 581.870543 
L 861.56951 580.870013 
L 861.55258 579.656255 
L 860.799223 578.532709 
L 859.563377 577.433766 
L 857.430274 576.556252 
L 854.306802 575.875563 
L 849.761261 575.555722 
L 846.493889 575.53932 
L 842.4393 575.809955 
L 838.139236 575.842759 
L 835.980739 576.326622 
L 834.575599 577.204136 
L 831.968473 579.730064 
L 829.369812 582.395411 
L 827.118203 584.6179 
L 824.553401 587.143828 
L 822.581127 588.743036 
L 820.024789 590.719493 
L 819.974001 591.137747 
L 820.109436 591.490393 
L 820.9813 592.097272 
L 824.925848 591.424785 
L 829.716865 588.521607 
L 834.177759 585.331393 
L 837.555172 584.675307 
L 838.300065 584.765519 
L 838.477823 584.962345 
L 838.554006 586.372928 
L 838.418571 586.963405 
L 838.325459 587.496474 
L 834.321658 589.882984 
L 832.425567 591.203356 
L 828.904254 593.753887 
L 826.330987 594.713412 
L 824.333319 595.549921 
L 821.472252 596.197805 
L 819.025956 596.050186 
L 816.562729 595.074259 
L 815.927877 594.508385 
L 815.056014 593.278226 
L 814.929043 592.195685 
L 814.988296 590.949123 
L 815.394602 589.07928 
L 816.054848 588.324782 
L 818.772015 585.659435 
L 821.988599 583.69938 
L 825.619952 580.7716 
L 827.389074 578.959164 
L 829.903088 576.293818 
L 832.120838 574.350165 
L 833.991535 573.480852 
L 835.828374 572.931381 
L 841.474325 572.595137 
L 845.850572 572.23429 
L 848.96558 572.07847 
L 852.114446 571.92265 
L 855.898165 571.750427 
L 857.684215 571.602808 
L 860.30827 571.200956 
L 861.544116 571.315771 
L 862.796891 571.898046 
L 864.879205 573.530059 
" clip-path="url(#p3295d5c19c)"/>
    <path d="M 926.544504 561.958354 
L 926.417534 562.417614 
L 926.197452 562.794863 
L 925.858864 563.131107 
L 925.461024 563.450948 
L 924.885424 563.639573 
L 924.419866 563.729785 
L 923.700367 563.852801 
L 923.319456 563.877404 
L 922.879292 563.92661 
L 922.379875 563.877404 
L 921.660376 563.655975 
L 920.907018 563.393541 
L 920.17059 563.204916 
L 919.603455 563.057297 
L 918.892421 562.885075 
L 918.155992 562.639043 
L 917.851263 562.557032 
L 917.436493 562.499625 
L 916.793176 562.38481 
L 916.302224 562.294598 
L 915.972101 562.212587 
L 915.650443 562.163381 
L 914.829367 562.015762 
L 914.152192 562.015762 
L 913.796675 562.048566 
L 913.35651 562.163381 
L 913.077176 562.245392 
L 912.730123 562.409413 
L 911.959836 562.737456 
L 911.57046 562.860472 
L 911.28266 563.024493 
L 910.673202 563.46735 
L 910.148391 563.754388 
L 909.513539 564.107034 
L 908.79404 564.451478 
L 908.353876 564.713913 
L 907.845994 564.976347 
L 907.829065 564.984548 
L 903.605182 566.337724 
L 901.319715 566.575555 
L 899.559059 566.54275 
L 898.661801 566.124496 
L 897.86612 565.107564 
L 897.629108 564.131637 
L 897.823796 562.688249 
L 898.670266 561.531899 
L 899.635241 560.834808 
L 902.064608 559.293008 
L 903.393565 558.69433 
L 905.001857 558.144859 
L 907.972965 557.447768 
L 909.318851 557.160731 
L 911.308054 556.824487 
L 912.467718 556.685069 
L 914.033686 556.668667 
L 915.421896 556.61946 
L 916.657741 556.701471 
L 917.478817 556.857291 
L 918.198316 556.947503 
L 919.578061 557.250942 
L 920.661542 557.636393 
L 921.440294 557.964435 
L 922.362945 558.202266 
L 923.683438 558.677928 
L 924.572231 559.202796 
L 925.020859 559.514437 
L 925.714964 559.9983 
L 926.129734 560.482162 
L 926.358281 561.007031 
L 926.552969 561.425285 
L 926.544504 561.958354 
" clip-path="url(#p3295d5c19c)"/>
    <path d="M 848.085252 539.315211 
L 847.70434 539.405423 
L 847.171065 539.397222 
L 846.688577 539.339814 
L 846.04526 539.07738 
L 845.35962 538.413094 
L 844.953315 537.297749 
L 845.037962 536.830288 
L 845.613561 536.30542 
L 846.587001 535.969176 
L 847.822846 535.944573 
L 848.787821 536.157801 
L 849.211056 536.567854 
L 849.464997 537.125526 
L 849.456532 537.379759 
L 849.397279 537.929231 
L 849.117944 538.478702 
L 848.838609 538.92156 
L 848.626992 539.118385 
L 848.085252 539.315211 
" clip-path="url(#p3295d5c19c)"/>
    <path d="M 810.154956 540.783202 
L 808.749816 540.947223 
L 807.928741 540.889816 
L 806.591319 540.094312 
L 806.083438 539.503836 
L 805.990326 538.92156 
L 806.320449 538.15066 
L 806.946837 537.478172 
L 807.734053 536.813886 
L 808.631311 536.149599 
L 810.349644 535.649334 
L 811.69553 535.526318 
L 812.728223 535.542721 
L 813.659339 535.796954 
L 814.065645 536.092192 
L 814.268797 536.436637 
L 814.311121 536.781082 
L 814.302656 537.650395 
L 814.082574 538.183464 
L 813.760916 538.708332 
L 813.286893 539.134788 
L 812.660505 539.659656 
L 811.661671 540.176323 
L 810.154956 540.783202 
" clip-path="url(#p3295d5c19c)"/>
    <path d="M 826.271734 541.111244 
L 825.721529 541.185054 
L 824.959706 541.144049 
L 823.893155 540.840609 
L 822.318722 539.954894 
L 821.2691 538.642724 
L 819.906284 536.190605 
L 819.491514 534.378169 
L 819.389937 533.369438 
L 819.626949 532.270495 
L 820.160225 531.245362 
L 821.379141 530.179223 
L 821.895487 529.982398 
L 822.420298 530.048006 
L 823.444526 530.84351 
L 824.968171 532.754358 
L 826.644181 535.132667 
L 827.609156 537.240341 
L 827.812308 537.904628 
L 827.812308 538.667327 
L 827.422932 540.036905 
L 826.796545 540.799604 
L 826.271734 541.111244 
" clip-path="url(#p3295d5c19c)"/>
    <path d="M 823.563032 526.365728 
L 822.267933 526.710172 
L 821.015159 526.546151 
L 820.354913 526.242712 
L 820.515742 525.250383 
L 821.116735 524.684509 
L 821.616152 524.249853 
L 822.318722 524.094032 
L 822.826603 524.30726 
L 823.309091 524.856732 
L 823.88469 525.340594 
L 823.876225 525.734246 
L 823.537638 526.144299 
L 823.563032 526.365728 
" clip-path="url(#p3295d5c19c)"/>
    <path d="M 854.873937 539.635053 
L 854.137508 540.045106 
L 853.409544 540.028704 
L 853.299503 539.979497 
L 853.138674 539.659656 
L 852.749298 539.175793 
L 852.69851 538.864152 
L 852.723904 537.601188 
L 853.375686 535.723144 
L 854.662319 533.016792 
L 855.898165 531.196156 
L 856.888534 529.432926 
L 857.074757 528.432396 
L 857.311769 527.858322 
L 857.337163 526.603559 
L 857.074757 525.603029 
L 855.813518 523.897207 
L 855.000907 522.371809 
L 855.009372 521.896147 
L 855.551112 521.215458 
L 856.236752 520.805405 
L 856.685381 520.706992 
L 857.472598 520.772601 
L 858.132844 521.256464 
L 859.241719 522.224189 
L 860.122047 523.134508 
L 860.892334 523.987419 
L 861.823451 525.160171 
L 862.085856 525.791653 
L 862.068927 526.948003 
L 861.764198 528.046946 
L 861.070093 529.449329 
L 859.013172 531.302769 
L 857.777327 532.967586 
L 857.184798 534.369968 
L 856.651522 535.993779 
L 855.881235 538.134257 
L 855.246383 539.38082 
L 854.873937 539.635053 
" clip-path="url(#p3295d5c19c)"/>
    <path d="M 829.369812 523.191915 
L 827.126668 523.470751 
L 825.442194 523.15091 
L 824.841201 522.626042 
L 824.460289 521.814136 
L 824.290995 520.985828 
L 824.519542 520.239531 
L 825.577629 519.255403 
L 827.185921 518.30408 
L 828.548737 517.754608 
L 829.5645 517.426566 
L 830.673375 517.475772 
L 831.612956 517.861222 
L 832.095444 518.61572 
L 832.061585 520.370748 
L 831.960009 520.912019 
L 831.604491 521.682919 
L 830.546405 522.634243 
L 829.369812 523.191915 
" clip-path="url(#p3295d5c19c)"/>
    <path d="M 845.469661 518.107254 
L 844.826344 518.263074 
L 844.513151 518.189265 
L 844.030663 517.861222 
L 843.548175 517.262544 
L 843.294235 516.344025 
L 843.319629 515.91757 
L 843.294235 515.064659 
L 843.514317 514.416774 
L 843.878298 513.834499 
L 844.191492 513.809896 
L 844.775556 514.474182 
L 845.444267 516.081591 
L 845.732067 517.22974 
L 845.723602 517.885825 
L 845.469661 518.107254 
" clip-path="url(#p3295d5c19c)"/>
    <path d="M 839.019564 517.926831 
L 837.428201 518.189265 
L 836.497085 518.172863 
L 835.760656 517.967836 
L 835.185057 517.672598 
L 833.966141 516.950904 
L 833.390542 516.221009 
L 833.119672 515.532119 
L 833.17046 514.679209 
L 833.432865 514.031324 
L 833.847635 513.875504 
L 834.567135 513.580266 
L 835.210451 513.211218 
L 835.980739 512.940583 
L 837.182725 512.710953 
L 838.342388 512.653545 
L 839.349687 512.702752 
L 840.153833 513.063599 
L 840.898726 513.809896 
L 841.19499 514.703812 
L 841.254243 515.810956 
L 841.059555 516.483443 
L 840.79715 517.016512 
L 840.128439 517.508576 
L 839.019564 517.926831 
" clip-path="url(#p3295d5c19c)"/>
    <path d="M 1046.616195 513.006191 
L 1046.243749 513.104604 
L 1045.896696 513.0718 
L 1045.498856 512.940583 
L 1045.278773 512.76836 
L 1045.160268 512.53873 
L 1045.194127 512.136878 
L 1045.346491 511.882645 
L 1045.549644 511.751428 
L 1045.888231 511.644814 
L 1046.125243 511.636613 
L 1046.489225 511.661216 
L 1046.793954 511.694021 
L 1047.217189 511.800634 
L 1047.428806 511.931851 
L 1047.58117 512.079471 
L 1047.615029 512.15328 
L 1047.623494 512.292698 
L 1047.530382 512.530529 
L 1047.014036 512.809366 
L 1046.616195 513.006191 
" clip-path="url(#p3295d5c19c)"/>
    <path d="M 853.392615 519.542441 
L 852.723904 519.657256 
L 851.572706 519.640854 
L 850.184496 519.452229 
L 849.253379 518.943763 
L 848.017534 517.877624 
L 847.230317 516.721274 
L 846.713971 514.45778 
L 846.129907 512.423915 
L 845.952149 511.30857 
L 845.969078 510.463861 
L 846.299201 509.717564 
L 846.866336 509.463331 
L 848.364586 509.266505 
L 849.058691 509.373119 
L 850.167566 510.111215 
L 851.284906 511.636613 
L 852.55461 514.695611 
L 853.358756 516.827888 
L 853.638091 518.435297 
L 853.714273 519.091382 
L 853.392615 519.542441 
" clip-path="url(#p3295d5c19c)"/>
    <path d="M 1068.700583 493.782892 
L 1068.167307 493.963316 
L 1067.718678 493.881305 
L 1067.278514 493.553262 
L 1066.432045 492.946384 
L 1066.00881 492.659346 
L 1065.297776 492.265695 
L 1064.9084 491.831039 
L 1064.595206 491.330774 
L 1064.510559 490.855112 
L 1064.552883 490.486064 
L 1064.7645 490.100614 
L 1065.153876 489.805375 
L 1065.517858 489.739767 
L 1065.974951 489.829978 
L 1066.29661 490.067809 
L 1067.049968 490.592678 
L 1067.481667 490.953525 
L 1067.879508 491.371779 
L 1068.235025 491.683419 
L 1068.615936 492.003261 
L 1069.098424 492.634743 
L 1069.2 492.897177 
L 1069.149212 493.208818 
L 1068.946059 493.471252 
L 1068.700583 493.782892 
" clip-path="url(#p3295d5c19c)"/>
    <path d="M 778.192269 482.84267 
L 776.66016 482.932882 
L 776.084561 482.84267 
L 774.264651 482.580236 
L 773.570546 482.07177 
L 772.317772 480.464361 
L 772.292377 479.652455 
L 772.385489 478.848751 
L 772.817189 477.692401 
L 773.367394 477.274146 
L 773.638264 475.814357 
L 774.933362 475.133668 
L 776.380825 474.854832 
L 777.667458 474.912239 
L 780.012179 475.256684 
L 780.333837 475.953775 
L 781.552753 477.290548 
L 781.6374 479.644254 
L 781.4935 480.84161 
L 780.900972 481.760129 
L 779.597409 482.629442 
L 778.192269 482.84267 
" clip-path="url(#p3295d5c19c)"/>
    <path d="M 983.833556 454.76222 
L 983.681192 455.114866 
L 983.528827 455.459311 
L 983.342604 455.779152 
L 983.097128 456.156401 
L 982.783934 456.492645 
L 982.470741 456.76328 
L 982.174476 457.058519 
L 981.776636 457.22254 
L 981.311078 457.386561 
L 980.913237 457.435768 
L 980.566184 457.435768 
L 980.252991 457.419365 
L 980.083697 457.361958 
L 979.965191 457.22254 
L 979.948262 457.156931 
L 979.98212 457.058519 
L 980.252991 456.902698 
L 980.363032 456.820688 
L 980.363032 456.804285 
L 980.312244 456.673068 
L 980.278385 456.599259 
L 980.12602 456.45164 
L 979.973656 456.320423 
L 979.829756 456.156401 
L 979.719715 455.99238 
L 979.558886 455.770951 
L 979.288016 455.483914 
L 979.144116 455.311691 
L 979.093328 455.180474 
L 979.093328 455.049257 
L 979.118722 454.844231 
L 978.73781 455.123067 
L 978.602375 455.14767 
L 978.441546 455.032855 
L 978.356899 454.852432 
L 978.365364 454.631003 
L 978.526193 454.286558 
L 978.746275 453.901108 
L 978.949428 453.581267 
L 979.279551 453.163012 
L 979.525027 452.91698 
L 979.719715 452.802165 
L 980.058303 452.68735 
L 980.54079 452.60534 
L 981.184107 452.556133 
L 981.844353 452.498726 
L 982.504599 452.515128 
L 983.020946 452.539731 
L 983.452645 452.646345 
L 983.723515 452.826768 
L 983.833556 453.039996 
L 984.028244 453.154811 
L 984.29065 453.245023 
L 984.536126 453.30243 
L 984.713885 453.450049 
L 984.815461 453.655076 
L 984.790067 453.802695 
L 984.663097 453.966717 
L 984.409156 454.155341 
L 984.155215 454.360368 
L 983.968992 454.548992 
L 983.833556 454.76222 
" clip-path="url(#p3295d5c19c)"/>
    <path d="M 979.465774 429.174894 
L 980.092162 429.68336 
L 981.167178 430.52807 
L 981.793565 431.036536 
L 982.250659 431.733627 
L 982.665429 432.45532 
L 983.071734 433.193416 
L 983.435716 434.005322 
L 983.73198 434.825428 
L 983.867415 435.620932 
L 983.791233 436.367229 
L 983.655798 436.83469 
L 983.283351 437.105325 
L 982.919369 437.121727 
L 982.369164 436.99051 
L 982.276053 436.68707 
L 982.369164 436.121197 
L 982.563852 435.588128 
L 982.386094 435.292889 
L 982.089829 434.809026 
L 981.759706 434.333365 
L 981.565018 433.874105 
L 981.294148 433.390242 
L 980.930166 432.91458 
L 980.70162 432.414315 
L 980.210667 431.832039 
L 979.72818 431.22516 
L 979.304945 430.765901 
L 978.966357 430.462461 
L 978.847851 430.101614 
L 978.890175 429.773572 
L 978.670093 429.650556 
L 978.356899 429.658757 
L 977.992917 429.593148 
L 977.688188 429.412725 
L 977.104124 428.822248 
L 976.638566 428.543412 
L 976.088361 428.354787 
L 975.809026 428.108755 
L 975.182639 427.895528 
L 974.547787 427.649496 
L 974.014511 427.444469 
L 973.608206 427.272247 
L 973.303477 426.952405 
L 973.168041 426.558754 
L 973.379659 426.304521 
L 973.650529 426.050288 
L 973.862146 425.984679 
L 974.310775 426.091293 
L 975.013345 426.484944 
L 975.639732 426.886797 
L 976.206867 427.132829 
L 976.960225 427.542882 
L 977.442712 427.788914 
L 978.170676 428.29738 
L 978.636234 428.666428 
L 979.465774 429.174894 
" clip-path="url(#p3295d5c19c)"/>
    <path d="M 970.789462 424.893937 
L 970.247722 425.509017 
L 969.587476 425.656637 
L 968.529389 425.361398 
L 967.302008 425.29579 
L 966.802591 425.402404 
L 966.235457 425.312192 
L 965.524422 425.771452 
L 964.999611 425.640235 
L 964.508659 425.435208 
L 963.848413 425.582827 
L 963.078126 425.52542 
L 962.502526 425.394203 
L 962.214727 425.632033 
L 961.960786 425.976478 
L 961.630663 426.091293 
L 961.351328 425.771452 
L 960.945023 425.484414 
L 960.6149 425.517219 
L 960.521788 426.025685 
L 960.191665 426.025685 
L 959.091255 425.960076 
L 957.897733 426.329124 
L 956.568776 426.977008 
L 954.91816 427.493675 
L 953.775426 427.436268 
L 953.005139 427.124627 
L 952.074023 426.648966 
L 951.379918 426.206108 
L 950.880501 425.172774 
L 951.109048 423.99182 
L 951.896264 423.302931 
L 953.242151 422.105575 
L 955.095919 421.105045 
L 956.848111 420.465362 
L 959.158972 419.776472 
L 960.86884 419.538641 
L 962.13008 419.866684 
L 963.543684 420.924622 
L 964.601771 421.260865 
L 966.480933 421.490495 
L 968.013043 422.351607 
L 969.511293 423.212719 
L 970.527057 423.819598 
L 971.12805 424.344466 
L 970.789462 424.893937 
" clip-path="url(#p3295d5c19c)"/>
    <path d="M 815.149125 398.650526 
L 815.140661 399.355818 
L 814.852861 400.14312 
L 814.226474 400.667988 
L 811.941006 401.91455 
L 806.938372 404.071431 
L 800.488275 406.154502 
L 798.355172 406.37593 
L 797.28862 406.351327 
L 794.67303 406.228311 
L 793.504902 406.170904 
L 792.446815 405.695242 
L 790.516865 404.178045 
L 790.262924 403.505557 
L 790.245994 402.021164 
L 790.525329 401.274867 
L 791.735781 400.257935 
L 793.995854 399.134389 
L 797.567955 398.240473 
L 799.709523 397.45317 
L 800.962298 396.854493 
L 802.477478 396.305021 
L 804.398964 395.878566 
L 808.216541 395.607931 
L 809.901015 395.763751 
L 812.194947 396.337826 
L 814.006392 397.026715 
L 814.852861 397.863224 
L 815.149125 398.650526 
M 796.112028 402.775662 
L 798.54986 402.816668 
L 800.454416 402.75926 
L 801.927273 402.537831 
L 802.976895 402.012963 
L 804.060376 401.119047 
L 804.246599 400.544972 
L 804.21274 399.962697 
L 803.603282 399.413225 
L 802.545195 399.068781 
L 801.343209 399.134389 
L 799.929605 399.708464 
L 798.025049 400.028305 
L 795.832693 400.864814 
L 795.113194 401.471693 
L 794.969294 401.848942 
L 795.189376 402.349207 
L 795.621075 402.685451 
L 796.112028 402.775662 
" clip-path="url(#p3295d5c19c)"/>
   </g>
  </g>
 </g>
 <defs>
  <clipPath id="p3295d5c19c">
   <rect x="10.8" y="395.607931" width="1058.4" height="288.784139"/>
  </clipPath>
 </defs>
</svg>
