<?xml version="1.0" encoding="utf-8" standalone="no"?>
<!DOCTYPE svg PUBLIC "-//W3C//DTD SVG 1.1//EN"
  "http://www.w3.org/Graphics/SVG/1.1/DTD/svg11.dtd">
<svg xmlns:xlink="http://www.w3.org/1999/xlink" width="1080pt" height="1080pt" viewBox="0 0 1080 1080" xmlns="http://www.w3.org/2000/svg" version="1.1">
 <metadata>
  <rdf:RDF xmlns:dc="http://purl.org/dc/elements/1.1/" xmlns:cc="http://creativecommons.org/ns#" xmlns:rdf="http://www.w3.org/1999/02/22-rdf-syntax-ns#">
   <cc:Work>
    <dc:type rdf:resource="http://purl.org/dc/dcmitype/StillImage"/>
    <dc:date>2022-07-01T13:43:20.393832</dc:date>
    <dc:format>image/svg+xml</dc:format>
    <dc:creator>
     <cc:Agent>
      <dc:title>Matplotlib v3.5.1, https://matplotlib.org/</dc:title>
     </cc:Agent>
    </dc:creator>
   </cc:Work>
  </rdf:RDF>
 </metadata>
 <defs>
  <style type="text/css">*{stroke-linejoin: round; stroke-linecap: butt}</style>
 </defs>
 <g id="figure_1">
  <g id="patch_1">
   <path d="M 0 1080 
L 1080 1080 
L 1080 0 
L 0 0 
L 0 1080 
z
" style="fill: none; opacity: 0"/>
  </g>
  <g id="axes_1">
   <g id="PatchCollection_1">
    <path d="M 940.319901 380.696824 
L 941.982914 381.77097 
L 943.545138 382.600992 
L 944.124672 383.211302 
L 944.653813 384.261036 
L 945.359333 387.483474 
L 945.964065 389.07028 
L 946.039657 390.290901 
L 942.411265 392.41478 
L 940.319901 394.318948 
L 934.020611 399.494379 
L 932.156021 401.642671 
L 931.652078 403.790963 
L 931.526092 406.964576 
L 931.047346 409.967303 
L 930.719783 412.262069 
L 929.837882 414.947434 
L 929.308742 416.900427 
L 929.711896 418.121047 
L 931.27412 420.391401 
L 933.592259 421.734084 
L 934.171794 422.442044 
L 934.196991 424.02885 
L 933.31509 426.689803 
L 933.743442 428.447496 
L 935.154483 432.304657 
L 936.968679 437.382438 
L 938.757677 441.068712 
L 940.672661 442.069621 
L 942.890012 442.289332 
L 944.527827 442.557869 
L 946.971952 442.557869 
L 948.206613 443.412303 
L 949.718442 446.561504 
L 950.247583 446.952102 
L 954.35472 448.416847 
L 956.471282 449.66188 
L 957.227196 454.251413 
L 957.277591 454.642011 
L 959.192575 457.962099 
L 961.057165 461.01365 
L 961.435122 463.357241 
L 960.175264 466.970278 
L 963.50129 469.265044 
L 966.0714 470.119479 
L 968.213159 471.828347 
L 969.120257 474.245176 
L 969.170651 476.027282 
L 968.389539 477.8338 
L 966.197386 480.055329 
L 966.172189 480.421515 
L 966.398963 480.836526 
L 967.910793 482.374508 
L 968.994271 485.792245 
L 972.521873 489.576169 
L 972.748648 490.821202 
L 971.866747 492.188297 
L 969.951763 498.413461 
L 968.969074 500.708227 
L 968.591116 504.101552 
L 970.32972 506.689268 
L 976.377039 510.522016 
L 978.896755 512.865607 
L 980.962922 517.064542 
L 981.492063 520.824053 
L 981.718837 521.434363 
L 982.953498 523.192056 
L 985.901566 526.023896 
L 988.673254 527.708352 
L 988.446479 530.076356 
L 989.706337 532.371122 
L 990.537844 534.690301 
L 991.444941 537.546553 
L 992.276448 539.108947 
L 995.526882 545.089987 
L 997.542655 548.410075 
L 996.685951 550.607192 
L 997.391472 552.218411 
L 1001.095454 558.321513 
L 1003.61517 562.349561 
L 1004.572663 563.521356 
L 1005.001014 564.278141 
L 1005.051409 564.864039 
L 1004.95062 565.645236 
L 1004.497071 566.939094 
L 1004.043522 567.964415 
L 1003.287607 569.038561 
L 1002.229327 569.575634 
L 1001.171046 569.014148 
L 1000.541117 568.184126 
L 998.474949 565.352287 
L 995.678065 562.715747 
L 989.152 565.474349 
L 986.027552 568.086477 
L 984.868482 571.553039 
L 981.592851 573.872218 
L 980.98812 574.897539 
L 978.795966 582.245674 
L 976.906179 584.076605 
L 972.748648 584.882214 
L 969.573805 587.054919 
L 969.372228 587.958178 
L 969.397425 589.30086 
L 969.498214 589.886758 
L 970.430509 590.912079 
L 973.252591 591.742101 
L 974.184886 592.303587 
L 974.764421 593.109196 
L 974.789618 593.524207 
L 974.688829 594.696003 
L 974.789618 596.136335 
L 979.854247 598.72405 
L 980.307796 600.164382 
L 980.081022 602.1662 
L 979.551881 603.264758 
L 977.662094 607.073094 
L 976.906179 609.050499 
L 973.731337 612.004401 
L 973.52976 612.29735 
L 973.554957 614.12828 
L 973.328182 614.860653 
L 973.025817 615.397726 
L 972.169113 615.861562 
L 971.917141 615.910386 
L 971.211621 615.934799 
L 970.15334 615.861562 
L 969.573805 615.885974 
L 967.784807 616.789233 
L 967.230469 617.399543 
L 966.978498 618.815463 
L 966.625738 621.134642 
L 965.819428 622.526149 
L 963.728064 623.820007 
L 961.863474 625.821824 
L 960.956376 627.286569 
L 961.057165 628.116591 
L 962.392614 629.434861 
L 962.87136 630.631069 
L 962.216234 634.805591 
L 962.241431 635.928562 
L 961.98946 639.981022 
L 959.520138 639.712485 
L 957.252394 638.760401 
L 955.035043 640.273971 
L 954.959452 640.420445 
L 954.808269 641.811952 
L 954.606692 646.474723 
L 955.589381 649.477449 
L 956.269704 653.188135 
L 956.118521 653.871683 
L 953.523214 657.655606 
L 953.271242 658.192679 
L 953.271242 658.900639 
L 953.271242 659.608599 
L 953.044468 659.999197 
L 952.515327 660.096847 
L 950.499554 660.170084 
L 948.40819 659.999197 
L 946.140445 659.510949 
L 944.376644 659.803898 
L 941.579759 660.658332 
L 940.723056 660.926869 
L 936.51513 663.001924 
L 933.340287 667.054384 
L 930.593797 668.470303 
L 924.899238 669.056201 
L 920.691312 671.131256 
L 916.508584 674.280457 
L 911.418757 680.334734 
L 910.562054 685.095154 
L 910.637645 688.317592 
L 911.721123 692.565351 
L 912.300658 696.691048 
L 912.577826 700.96322 
L 914.165248 705.967764 
L 913.585713 709.507563 
L 910.738434 713.535611 
L 909.201407 717.68572 
L 909.251801 719.516651 
L 910.108505 721.762593 
L 907.865957 723.569111 
L 905.925776 724.936206 
L 905.169861 725.400042 
L 904.136777 725.668578 
L 901.843836 725.937115 
L 899.777668 725.985939 
L 897.887881 726.278888 
L 895.191785 727.328622 
L 893.679955 727.743633 
L 891.815365 728.280706 
L 890.303536 728.378355 
L 889.169664 728.402768 
L 887.456257 728.012169 
L 886.423173 728.109819 
L 885.868835 728.305118 
L 885.74285 728.451593 
L 885.516075 727.743633 
L 884.835752 726.962436 
L 883.122345 726.205651 
L 880.577431 725.546516 
L 878.964813 725.131505 
L 876.77266 724.130596 
L 873.900184 722.226428 
L 872.892297 722.250841 
L 865.106374 724.081771 
L 858.353535 726.571837 
L 850.592809 729.110728 
L 841.521831 730.013987 
L 838.044623 732.211104 
L 837.767454 738.65598 
L 837.71706 739.778951 
L 839.354876 744.466133 
L 843.713984 747.444447 
L 851.147147 752.03398 
L 854.095215 759.064754 
L 857.194466 762.531316 
L 863.54415 763.825174 
L 867.600893 764.459896 
L 870.171004 766.534951 
L 870.246595 770.07475 
L 866.366232 777.007875 
L 859.739379 784.941908 
L 859.059056 787.798159 
L 860.873251 790.117338 
L 864.70322 791.215897 
L 869.818244 794.658046 
L 877.226209 798.539619 
L 885.490878 796.220441 
L 887.758622 796.171616 
L 889.724001 797.1237 
L 891.084648 797.758422 
L 896.224869 801.200572 
L 897.761896 804.545072 
L 900.987132 811.502609 
L 903.431257 818.313671 
L 904.061186 823.757638 
L 901.969821 831.594021 
L 898.34143 838.283022 
L 898.467416 843.019029 
L 900.332006 847.462087 
L 899.475303 854.590511 
L 898.971359 864.526361 
L 899.828063 869.237956 
L 901.995019 875.585183 
L 901.89423 882.200946 
L 900.583978 890.745289 
L 899.172937 894.797749 
L 893.982321 898.923446 
L 890.429522 898.044599 
L 888.363354 896.189256 
L 884.331809 896.506617 
L 880.426249 901.315862 
L 876.722266 904.953311 
L 879.393165 911.520249 
L 881.938078 922.57907 
L 882.089261 929.902793 
L 886.09561 939.521282 
L 892.445294 951.703075 
L 893.805941 956.634381 
L 893.55397 957.098217 
L 892.848449 958.294425 
L 889.598015 959.783582 
L 880.804206 960.442717 
L 872.010397 961.809812 
L 866.21505 961.931874 
L 862.637053 958.929148 
L 855.73303 955.535823 
L 849.635317 953.045757 
L 843.688787 947.260016 
L 833.761106 942.74372 
L 823.354678 939.887469 
L 814.006531 938.910972 
L 808.740324 939.252746 
L 806.774946 941.42545 
L 809.193873 947.528553 
L 813.401799 954.99875 
L 816.778219 958.95356 
L 816.828613 961.321564 
L 816.097896 962.273648 
L 812.318321 962.127173 
L 807.253692 961.516863 
L 803.423723 959.710345 
L 799.417375 960.418305 
L 798.863037 961.760987 
L 798.258305 965.398436 
L 798.13232 967.546728 
L 798.258305 969.572958 
L 799.140206 972.722159 
L 799.644149 973.356882 
L 800.853613 974.35779 
L 802.088274 975.724885 
L 802.693006 976.750206 
L 802.944977 977.311692 
L 803.751287 979.142623 
L 805.011145 982.46271 
L 806.044228 984.293641 
L 806.573369 984.855126 
L 807.379678 985.392199 
L 808.563944 986.100159 
L 809.269465 986.661645 
L 809.496239 987.198718 
L 809.521436 988.126389 
L 809.471042 989.908495 
L 809.093085 990.66528 
L 808.563944 991.641776 
L 806.271003 995.32805 
L 805.615876 996.914856 
L 804.985947 999.819933 
L 805.237919 1001.30909 
L 805.867848 1003.140021 
L 806.573369 1003.774743 
L 807.480466 1004.14093 
L 807.934015 1004.336229 
L 811.512012 1013.002634 
L 812.469504 1021.254028 
L 812.645884 1028.113915 
L 813.023842 1033.557883 
L 811.310435 1035.242339 
L 807.782832 1035.071452 
L 804.003258 1035.169102 
L 800.072501 1039.026262 
L 798.157517 1043.56697 
L 798.233108 1046.642934 
L 800.072501 1050.158321 
L 805.792257 1057.604106 
L 806.623763 1060.655657 
L 803.423723 1063.096898 
L 799.921318 1064.830179 
L 794.881886 1064.219869 
L 789.363707 1065.513726 
L 783.39198 1068.49204 
L 781.653376 1068.760577 
L 776.865915 1069.10235 
L 772.859567 1069.2 
L 767.542966 1068.125854 
L 760.764929 1068.736164 
L 760.386972 1066.856409 
L 758.119227 1064.634879 
L 755.52392 1063.902507 
L 748.115954 1061.973927 
L 745.923801 1063.292197 
L 743.731648 1063.82927 
L 741.312721 1062.926011 
L 737.457555 1059.459449 
L 732.594503 1056.505547 
L 729.671632 1055.944062 
L 728.840126 1056.676434 
L 727.479479 1057.921467 
L 724.506214 1061.363617 
L 720.575457 1062.242463 
L 717.325023 1062.144814 
L 712.865125 1061.119493 
L 708.027271 1059.947697 
L 704.272893 1059.703573 
L 702.735867 1060.069759 
L 701.576797 1061.534504 
L 699.964179 1065.123128 
L 699.309053 1066.56346 
L 697.797223 1067.735255 
L 696.764139 1067.759668 
L 694.345212 1066.197274 
L 692.908974 1064.293106 
L 693.488508 1059.459449 
L 693.38772 1055.773175 
L 690.590835 1052.941335 
L 689.507357 1051.525416 
L 690.162483 1049.572423 
L 690.263272 1046.838233 
L 688.978217 1043.493733 
L 687.063232 1042.077813 
L 685.349825 1042.444 
L 682.804912 1043.298434 
L 679.680464 1041.443091 
L 677.740283 1039.245974 
L 676.102467 1035.095864 
L 676.631607 1028.96835 
L 676.682002 1024.30558 
L 675.749707 1020.961079 
L 673.280385 1018.104828 
L 672.045724 1016.859795 
L 668.518122 1012.75851 
L 666.905503 1009.731371 
L 666.829912 1006.850707 
L 665.06611 1004.800065 
L 661.740085 1001.821751 
L 659.421946 998.330776 
L 659.346355 994.790977 
L 657.683342 990.811754 
L 654.810866 985.09925 
L 649.695842 979.093798 
L 648.234407 975.114575 
L 644.908381 966.35052 
L 643.32096 964.299878 
L 641.078413 963.689568 
L 638.508302 963.762805 
L 635.736615 962.542184 
L 632.612167 960.662429 
L 629.865676 960.418305 
L 626.640439 961.443626 
L 625.12861 962.761896 
L 623.591583 962.957195 
L 622.205739 962.200411 
L 618.930108 960.97979 
L 614.646591 960.589192 
L 610.816622 958.587374 
L 607.742568 958.514137 
L 605.676401 958.562962 
L 604.114177 957.781765 
L 601.997616 955.731122 
L 599.351914 952.581921 
L 597.411732 950.213918 
L 597.336141 947.479728 
L 600.53618 945.160549 
L 602.022813 943.207556 
L 601.922024 939.179509 
L 599.755068 935.053812 
L 596.857395 929.170421 
L 593.354989 925.557384 
L 588.491937 922.77437 
L 585.191109 921.578162 
L 583.780068 919.991355 
L 583.754871 918.697497 
L 584.73756 917.501289 
L 587.559642 914.107964 
L 589.222655 912.154972 
L 588.844697 910.226391 
L 585.669855 907.101603 
L 582.797379 901.852935 
L 581.386338 899.948767 
L 579.446156 898.55726 
L 576.019342 897.824888 
L 574.331132 899.314045 
L 573.348443 900.949676 
L 572.164176 901.462337 
L 571.105896 900.363778 
L 569.694855 898.45961 
L 567.452307 897.556351 
L 564.000296 896.823979 
L 561.908932 895.432471 
L 560.800257 892.722694 
L 561.379791 889.012008 
L 563.899508 886.863716 
L 564.201873 884.935136 
L 561.379791 881.785935 
L 561.455383 878.39261 
L 564.075888 873.510128 
L 565.008183 870.28769 
L 564.378254 865.307559 
L 564.705817 858.887095 
L 565.159366 856.29938 
L 565.285351 854.370799 
L 563.370367 853.272241 
L 560.271116 852.710755 
L 559.79237 852.14927 
L 558.154555 850.196277 
L 555.634839 846.241467 
L 553.84584 843.385215 
L 550.217449 842.01812 
L 546.765438 841.139273 
L 540.541739 839.186281 
L 535.855067 837.404175 
L 532.781013 837.282113 
L 530.639255 837.648299 
L 528.270721 838.331846 
L 526.834483 838.868919 
L 524.64233 840.211602 
L 522.122614 842.677255 
L 520.258024 843.189916 
L 515.369775 843.33639 
L 514.387085 843.287565 
L 513.404396 843.263153 
L 510.859483 843.189916 
L 509.473639 843.287565 
L 508.591738 843.482865 
L 507.936612 843.726989 
L 508.087795 841.481047 
L 507.457866 840.431314 
L 506.601163 839.454817 
L 504.333418 837.453 
L 503.678292 837.037989 
L 502.594814 836.354441 
L 500.931801 834.914109 
L 499.949112 833.717901 
L 499.470366 832.668167 
L 499.394774 831.960208 
L 499.848323 831.056948 
L 500.730224 830.324576 
L 503.42632 828.811007 
L 509.347653 825.930343 
L 516.251675 821.584934 
L 519.275335 819.436642 
L 520.409207 816.678039 
L 522.223403 814.432098 
L 524.491147 815.628306 
L 526.028174 814.773872 
L 527.288032 811.380547 
L 529.656565 809.720503 
L 534.116463 809.451966 
L 538.374783 808.719594 
L 542.30554 808.304583 
L 545.379594 808.231346 
L 547.798521 808.963718 
L 551.729279 807.913985 
L 555.458458 806.717776 
L 557.146668 805.692455 
L 558.10416 802.958265 
L 558.003372 799.247579 
L 556.541936 795.439243 
L 552.989137 791.020597 
L 552.082039 788.799068 
L 552.359208 786.040466 
L 554.274192 780.694148 
L 554.828529 775.860491 
L 555.937205 772.784528 
L 556.567134 770.367699 
L 556.970288 766.510539 
L 556.793908 759.43094 
L 556.189176 756.08644 
L 557.826992 753.156951 
L 561.707355 750.495998 
L 564.353056 746.907374 
L 568.535785 742.952564 
L 569.997221 739.217465 
L 571.055501 734.530283 
L 572.819303 729.501326 
L 575.389413 723.178512 
L 577.153214 718.003082 
L 580.328057 715.195654 
L 584.712363 711.582618 
L 585.846235 709.605213 
L 584.435194 707.725457 
L 582.192647 707.774282 
L 578.43827 708.506654 
L 572.995683 709.922574 
L 569.64446 713.364724 
L 567.175139 717.270709 
L 567.099547 720.956983 
L 564.907394 722.470552 
L 562.034918 724.301483 
L 560.170328 724.814144 
L 558.431724 723.422636 
L 557.04588 722.958801 
L 555.332473 723.495874 
L 552.837954 726.278888 
L 550.141857 728.42718 
L 545.883537 729.013078 
L 541.272457 729.74545 
L 539.785824 727.81687 
L 540.163782 726.108001 
L 542.532315 723.178512 
L 544.270919 721.982304 
L 544.573285 721.469644 
L 544.699271 720.761684 
L 544.018947 718.320443 
L 544.069342 717.392771 
L 544.548088 716.391863 
L 545.379594 715.586253 
L 547.168592 714.536519 
L 550.242646 712.388227 
L 551.653687 711.045545 
L 552.787559 709.727275 
L 554.752938 706.529249 
L 552.006447 701.231756 
L 551.124547 698.692866 
L 550.167055 696.471337 
L 551.174941 695.787789 
L 557.020682 695.983088 
L 560.271116 696.056326 
L 562.664847 695.055417 
L 565.134168 691.295906 
L 567.225533 686.584311 
L 567.452307 681.457705 
L 568.560982 678.894402 
L 572.164176 675.452252 
L 579.043002 671.37538 
L 580.857197 670.276822 
L 582.419421 668.763252 
L 584.3848 666.00465 
L 585.594263 664.246957 
L 587.181685 662.489263 
L 589.298246 659.779486 
L 594.892016 654.970241 
L 597.411732 652.01634 
L 597.361338 650.087759 
L 595.74872 647.86623 
L 597.411732 645.595876 
L 600.762955 642.617562 
L 602.40077 639.370712 
L 603.55984 638.223328 
L 608.145723 635.70885 
L 611.118988 631.314617 
L 613.235549 628.482777 
L 614.344225 627.848054 
L 614.797773 627.725992 
L 615.049745 627.677168 
L 615.780463 627.481868 
L 616.712758 627.066857 
L 617.115912 626.749496 
L 617.443475 625.846237 
L 617.594658 624.650029 
L 617.821433 624.161781 
L 617.897024 623.942069 
L 617.84663 623.429408 
L 617.67025 621.62289 
L 617.31749 618.034266 
L 616.939532 615.983624 
L 616.561575 615.178014 
L 615.604083 614.177105 
L 614.923759 613.71327 
L 613.613507 612.858835 
L 613.084367 612.150875 
L 612.731606 611.516153 
L 612.60562 610.246707 
L 613.210352 606.877795 
L 613.336338 605.60835 
L 613.285944 603.850656 
L 613.084367 602.1662 
L 612.454437 599.43201 
L 611.799311 596.89312 
L 611.421354 595.403963 
L 611.396157 594.67159 
L 611.648128 594.280992 
L 611.975691 594.183342 
L 613.008775 594.329817 
L 613.689098 594.232167 
L 614.016661 593.988043 
L 614.268633 593.182433 
L 614.218239 591.42474 
L 613.991464 589.837933 
L 613.815084 589.032324 
L 613.185155 588.422014 
L 611.72372 587.567579 
L 610.867016 587.030506 
L 610.161496 586.176072 
L 609.783538 585.370462 
L 609.556764 584.711327 
L 609.607158 583.197758 
L 609.68275 582.855984 
L 610.967805 579.609134 
L 614.016661 570.869491 
L 615.780463 566.011422 
L 616.234012 563.423707 
L 613.76469 561.714838 
L 611.37096 561.275415 
L 609.783538 559.71302 
L 609.355187 556.344108 
L 613.361535 552.242823 
L 615.830857 548.336838 
L 615.730068 544.479677 
L 615.074942 538.889235 
L 610.993002 534.153228 
L 606.079556 529.929881 
L 605.525218 528.343075 
L 606.12995 525.291523 
L 604.718909 523.704717 
L 604.315754 523.680304 
L 602.148798 523.607067 
L 598.973956 527.049217 
L 594.665242 533.396443 
L 592.145525 535.398261 
L 589.902978 535.764447 
L 584.107631 537.351254 
L 581.18476 537.570965 
L 574.835076 537.546553 
L 570.249192 539.108947 
L 559.691582 542.721984 
L 551.326124 545.309699 
L 549.133971 546.652382 
L 547.974902 548.605374 
L 546.664649 550.411893 
L 545.455185 550.582779 
L 543.741778 550.631604 
L 540.919696 548.117126 
L 538.273994 544.967925 
L 536.686573 543.576418 
L 534.947969 542.795221 
L 531.092803 539.670432 
L 531.017212 537.10713 
L 531.773127 533.713805 
L 530.513269 530.857553 
L 529.203016 527.513053 
L 530.94162 521.702899 
L 532.906999 517.650439 
L 533.133774 513.134144 
L 532.730619 510.912614 
L 530.815635 509.984943 
L 530.41248 508.080775 
L 531.697535 504.663038 
L 531.798324 501.465012 
L 531.974704 495.679271 
L 531.999901 490.381778 
L 530.110114 483.839253 
L 530.210903 480.934176 
L 531.319578 477.077015 
L 530.034523 474.196351 
L 529.102228 471.828347 
L 527.540004 464.944048 
L 525.776202 463.064292 
L 518.393434 463.235179 
L 510.481525 464.773161 
L 508.087795 466.091431 
L 506.777543 468.142074 
L 504.711376 471.706285 
L 501.56173 475.075198 
L 501.108181 478.102337 
L 503.653095 482.325683 
L 506.777543 488.331136 
L 507.130303 491.846523 
L 505.568079 493.653041 
L 504.812164 495.679271 
L 504.912953 499.21907 
L 507.180697 503.710954 
L 507.936612 511.010264 
L 508.087795 516.796005 
L 509.650019 524.583564 
L 510.305145 529.124272 
L 510.35554 531.63875 
L 508.516147 532.688483 
L 506.072022 533.005845 
L 503.149152 534.348527 
L 501.612125 537.400078 
L 501.486139 539.621608 
L 501.082984 541.354889 
L 500.175886 542.038436 
L 496.95065 543.185819 
L 495.388426 545.382936 
L 493.649822 548.873911 
L 491.583654 549.801582 
L 489.971036 549.606283 
L 486.468631 548.825086 
L 483.520563 551.071028 
L 477.473244 558.345925 
L 475.029119 561.421889 
L 473.063741 566.011422 
L 471.047968 568.647962 
L 469.006998 569.990645 
L 466.008536 570.283594 
L 464.647889 571.821575 
L 463.337637 574.677827 
L 460.414766 577.33878 
L 457.89505 578.461751 
L 453.98949 579.218535 
L 451.419379 577.973502 
L 448.824072 576.53317 
L 437.737321 576.777294 
L 431.286847 577.802616 
L 428.968708 577.656141 
L 427.104119 577.265543 
L 425.718275 577.289955 
L 423.248953 579.291773 
L 420.300885 581.757426 
L 417.781169 582.245674 
L 415.664607 581.19594 
L 413.195285 575.874035 
L 408.055065 565.1814 
L 407.903882 559.566546 
L 405.308574 549.899232 
L 399.689607 538.571874 
L 397.295877 531.931699 
L 398.908495 524.217377 
L 400.495916 515.477735 
L 401.403014 508.056363 
L 405.762123 498.657585 
L 405.61094 493.042731 
L 401.302225 487.745238 
L 397.497454 484.596037 
L 396.766736 482.667457 
L 398.631326 475.490209 
L 396.590356 467.971187 
L 393.89426 462.649282 
L 393.818668 459.841854 
L 395.103724 456.131168 
L 395.733653 454.178176 
L 395.456484 452.005471 
L 393.113148 451.199862 
L 390.795009 451.053387 
L 383.739804 446.903278 
L 376.23105 443.412303 
L 373.837319 440.873413 
L 373.988502 437.626562 
L 377.289331 431.499047 
L 378.196428 425.420358 
L 377.894062 422.686168 
L 375.374346 416.412179 
L 373.635742 413.653576 
L 370.788463 411.187923 
L 365.597848 408.600208 
L 360.43243 407.91666 
L 355.72056 405.426594 
L 349.169298 402.570343 
L 343.751909 400.104689 
L 338.309322 395.490744 
L 328.406837 389.460879 
L 321.124858 385.335182 
L 314.09485 383.113652 
L 310.592444 381.697733 
L 307.266419 378.743831 
L 306.964053 378.304408 
L 304.847492 375.130795 
L 301.521466 371.981594 
L 298.170244 368.173258 
L 295.524542 365.439068 
L 294.819021 362.192218 
L 294.667838 360.239225 
L 294.768627 358.628006 
L 295.020599 357.285323 
L 295.373359 356.455302 
L 297.011174 353.40375 
L 297.741892 352.549316 
L 298.321427 352.402842 
L 299.682074 352.842265 
L 301.193903 353.013152 
L 303.814408 352.964327 
L 307.845954 351.987831 
L 308.828643 351.523995 
L 310.642839 350.376612 
L 315.001948 347.447123 
L 315.682271 346.91005 
L 315.984637 346.665925 
L 316.186214 346.397389 
L 316.287003 346.10444 
L 316.261806 345.835904 
L 315.203525 343.199363 
L 314.749976 342.418166 
L 314.120047 341.710206 
L 311.8775 339.976925 
L 309.710544 338.634243 
L 308.702657 338.316882 
L 306.913659 338.634243 
L 304.217563 339.366615 
L 300.841143 339.464265 
L 299.757665 339.293378 
L 299.102539 338.634243 
L 297.968667 336.925374 
L 297.464723 336.534776 
L 296.885189 336.290652 
L 295.650528 336.046528 
L 293.911924 335.36298 
L 293.05522 334.825907 
L 292.223714 334.117947 
L 291.341813 332.677615 
L 290.132349 330.895509 
L 288.116576 327.941608 
L 286.680338 325.500367 
L 285.2441 322.399991 
L 284.639368 321.88733 
L 283.278722 321.643206 
L 281.414132 321.301432 
L 278.94481 320.495823 
L 277.43298 319.8611 
L 276.979431 319.275202 
L 276.878643 318.469593 
L 276.500685 317.615159 
L 275.694376 317.029261 
L 272.847097 315.418042 
L 271.83921 315.125093 
L 269.395086 314.905381 
L 265.817089 314.392721 
L 265.36354 314.197421 
L 265.061174 313.757998 
L 264.758808 312.757089 
L 264.658019 312.097954 
L 264.859597 311.75618 
L 265.439131 311.267932 
L 266.648595 311.048221 
L 267.202933 310.755272 
L 267.631284 310.218199 
L 267.656481 308.948753 
L 267.202933 307.752545 
L 266.295835 306.165739 
L 265.489526 305.457779 
L 263.801316 304.163921 
L 263.347767 303.626848 
L 263.045401 303.163012 
L 263.020204 302.577115 
L 263.221781 301.576206 
L 264.758808 298.109644 
L 264.884794 297.450509 
L 264.784005 296.644899 
L 263.801316 294.667494 
L 262.213895 291.908892 
L 261.029628 290.27326 
L 260.500488 289.540888 
L 260.424896 288.930578 
L 260.626473 288.393505 
L 261.080022 287.392596 
L 261.080022 287.050822 
L 260.928839 286.855523 
L 260.424896 286.806698 
L 259.215432 286.977585 
L 256.846899 287.368184 
L 255.360267 287.587895 
L 254.075211 287.563483 
L 252.991734 287.392596 
L 252.185424 286.953173 
L 251.076749 286.098738 
L 249.842088 285.195479 
L 248.683019 284.633994 
L 243.61839 282.607764 
L 240.997885 281.606855 
L 239.057703 281.191844 
L 236.966339 280.85007 
L 234.522214 280.630359 
L 231.926907 280.312997 
L 230.339485 279.751512 
L 228.953642 278.970315 
L 228.500093 278.384417 
L 228.399304 277.529983 
L 228.626079 275.161979 
L 228.777261 272.769563 
L 228.626079 268.155618 
L 228.449698 266.886172 
L 228.147332 266.227037 
L 227.416615 265.44584 
L 224.418153 263.395198 
L 217.312553 258.073293 
L 212.827458 254.826442 
L 211.995952 254.533493 
L 211.592797 254.533493 
L 210.937671 254.753205 
L 209.047884 255.851763 
L 207.712435 256.388836 
L 205.999028 256.999147 
L 205.142324 257.194446 
L 204.134438 257.218858 
L 201.564327 256.608548 
L 197.734359 255.50999 
L 197.255613 255.217041 
L 196.978444 254.777617 
L 196.827261 253.849946 
L 196.751669 251.188993 
L 196.902852 245.256778 
L 197.028838 243.084073 
L 196.953247 242.327289 
L 196.398909 241.594916 
L 195.013065 239.837223 
L 193.274461 237.640106 
L 191.33428 235.369752 
L 188.965747 232.269376 
L 188.209832 231.537004 
L 187.050762 230.999931 
L 185.589327 230.536095 
L 184.757821 230.072259 
L 184.279075 229.510774 
L 183.976709 228.607515 
L 184.203483 227.167183 
L 184.253877 226.654522 
L 184.178286 226.483635 
L 183.926314 226.288336 
L 183.573554 226.312748 
L 182.18771 226.825409 
L 180.751472 227.557781 
L 180.423909 227.94838 
L 180.449106 228.509865 
L 180.524697 229.559599 
L 180.4995 230.291971 
L 180.247529 231.048756 
L 179.718388 231.634653 
L 178.861685 232.098489 
L 177.677418 232.489088 
L 176.745123 232.635562 
L 176.140391 232.659975 
L 175.208096 232.367026 
L 174.527773 231.878778 
L 173.771858 230.902281 
L 173.469492 230.414033 
L 173.141929 230.169909 
L 172.738775 230.072259 
L 168.78282 229.608423 
L 166.489879 229.169 
L 165.280415 228.753989 
L 164.675683 228.65634 
L 164.070951 228.680752 
L 162.634713 229.754898 
L 161.652024 230.609332 
L 161.400052 230.609332 
L 161.122883 230.438445 
L 160.820517 229.437537 
L 160.039405 225.653613 
L 159.963814 223.358847 
L 160.0898 222.675299 
L 160.593743 221.796453 
L 160.845714 221.210555 
L 160.820517 220.795544 
L 160.417363 220.111996 
L 158.678759 218.476365 
L 158.149618 217.988117 
L 157.670872 217.866055 
L 156.738577 217.890467 
L 156.461408 217.71958 
L 156.436211 216.962796 
L 157.192126 215.400401 
L 157.418901 214.155368 
L 157.822055 211.518828 
L 157.721266 210.957343 
L 157.24252 210.347033 
L 156.234634 209.687898 
L 155.151156 209.419361 
L 154.67241 209.419361 
L 153.891298 209.687898 
L 151.976314 210.981755 
L 150.615667 211.958252 
L 150.212512 212.031489 
L 149.683372 212.031489 
L 148.72588 211.811777 
L 146.962079 210.981755 
L 146.231361 210.835281 
L 144.895911 210.664394 
L 141.544689 210.444682 
L 140.058056 210.102909 
L 138.243861 209.71231 
L 137.286369 209.248474 
L 136.757228 208.711401 
L 136.379271 207.954617 
L 135.799736 205.928387 
L 135.195004 203.584795 
L 135.169807 202.901248 
L 135.421779 202.31535 
L 137.286369 200.28912 
L 137.815509 199.58116 
L 137.991889 199.214974 
L 137.991889 198.897613 
L 137.563537 198.287303 
L 136.580848 196.309897 
L 135.799736 195.211339 
L 134.363498 193.771007 
L 132.92726 193.063047 
L 131.717796 192.452737 
L 131.516219 192.208613 
L 131.41543 191.647127 
L 130.785501 188.009678 
L 130.382346 186.154335 
L 130.432741 185.641675 
L 130.961881 185.251076 
L 132.221739 184.616353 
L 132.473711 184.152518 
L 132.776077 183.029547 
L 132.851668 181.418328 
L 132.851668 181.027729 
L 132.498908 180.490656 
L 131.818585 179.953583 
L 130.533529 179.41651 
L 128.643742 178.977087 
L 125.519294 178.659726 
L 121.714523 178.366777 
L 119.572764 178.025003 
L 118.212117 177.609992 
L 117.456203 177.048507 
L 114.785303 175.486112 
L 113.727023 174.582853 
L 112.215193 173.264583 
L 109.84666 171.50689 
L 107.679704 170.213032 
L 105.311171 168.894762 
L 104.026116 168.357689 
L 102.665469 168.06474 
L 101.380414 167.820616 
L 98.911092 166.624408 
L 98.155177 166.599995 
L 97.071699 166.673233 
L 96.517362 166.697645 
L 96.26539 166.355871 
L 96.189798 165.892036 
L 96.139404 162.376649 
L 96.315784 160.203944 
L 96.643347 158.958911 
L 97.928403 156.420021 
L 98.684317 155.101751 
L 98.961486 154.68674 
L 99.566218 154.100842 
L 101.229231 152.880221 
L 104.026116 150.243681 
L 105.865508 148.485988 
L 107.478127 147.021243 
L 107.704901 146.630645 
L 107.755295 146.288871 
L 107.62931 145.947097 
L 107.226155 145.385612 
L 106.243466 144.726477 
L 105.235579 144.238229 
L 102.589877 143.505856 
L 101.128442 143.334969 
L 100.70009 143.334969 
L 99.969373 143.457031 
L 99.490627 143.774393 
L 98.734712 144.531177 
L 98.12998 145.043838 
L 97.525248 145.117075 
L 96.97091 144.970601 
L 95.963024 144.189404 
L 94.274814 142.43171 
L 91.679507 139.599871 
L 90.470043 138.330426 
L 89.714128 137.305104 
L 89.008607 135.864772 
L 88.27789 134.277966 
L 87.723552 132.422623 
L 87.446383 131.299652 
L 87.496778 130.494042 
L 87.950327 129.468721 
L 89.285776 127.491316 
L 90.520437 125.880097 
L 91.477929 125.00125 
L 91.881084 124.586239 
L 91.956675 124.415352 
L 91.931478 123.902692 
L 90.722014 121.705575 
L 90.293663 121.290564 
L 89.512551 120.826728 
L 88.303087 120.582604 
L 87.597566 120.362892 
L 87.219609 120.143181 
L 86.841652 119.72817 
L 85.103047 117.189279 
L 84.649499 116.139546 
L 84.246344 115.700122 
L 83.666809 115.236286 
L 82.129782 114.406265 
L 79.937629 113.283294 
L 78.022645 112.33121 
L 77.569096 111.867374 
L 77.367519 111.476775 
L 77.392716 110.475867 
L 77.745476 109.157597 
L 77.695082 108.059038 
L 77.367519 107.302253 
L 76.661998 106.545469 
L 75.427337 105.837509 
L 75.024183 105.471323 
L 74.948591 105.202786 
L 75.074577 104.861013 
L 80.340784 97.049042 
L 81.34867 95.41341 
L 81.676233 94.510151 
L 81.726628 93.606892 
L 81.474656 91.116826 
L 81.096699 89.774144 
L 83.38964 87.650264 
L 84.674696 86.551706 
L 85.833765 86.405231 
L 88.429073 86.747005 
L 91.427535 86.502881 
L 95.660658 85.526385 
L 98.407149 84.67195 
L 100.271739 83.939578 
L 101.456005 83.060731 
L 101.985146 82.963082 
L 102.56468 83.182793 
L 103.421384 83.646629 
L 104.25289 84.574301 
L 109.544294 86.649355 
L 113.424657 88.01645 
L 114.306557 88.382636 
L 115.339641 88.529111 
L 116.725485 88.162925 
L 118.716061 87.552614 
L 119.925524 87.50379 
L 121.160185 87.796739 
L 124.259436 89.261483 
L 125.922449 89.627669 
L 127.383884 89.43237 
L 130.583924 88.21175 
L 132.473711 87.50379 
L 133.859555 87.40614 
L 135.245399 87.430552 
L 136.127299 87.821151 
L 137.135186 88.944122 
L 138.420241 90.994764 
L 139.22655 91.873611 
L 140.461211 92.728045 
L 147.264444 96.12137 
L 148.499105 96.487556 
L 149.809358 96.536381 
L 151.018822 96.096958 
L 151.951117 95.266936 
L 153.210975 93.851016 
L 154.269255 91.727136 
L 154.67241 90.262392 
L 154.622016 88.968534 
L 154.218861 86.942304 
L 152.732229 83.915165 
L 151.447173 81.4251 
L 147.944768 75.370822 
L 146.86129 74.02814 
L 144.719531 71.733373 
L 142.754153 70.073329 
L 142.023435 69.121246 
L 141.821858 68.071512 
L 141.872252 66.777654 
L 142.199815 66.118519 
L 143.384082 65.288497 
L 145.273869 64.5073 
L 148.5495 63.359917 
L 149.935344 62.67637 
L 150.615667 62.114884 
L 151.170004 60.796614 
L 151.875525 57.452114 
L 152.177891 56.231493 
L 152.429863 55.816483 
L 152.858214 55.572358 
L 153.891298 55.547946 
L 157.544886 55.621183 
L 158.855139 55.499121 
L 159.384279 55.328234 
L 159.888222 54.913223 
L 160.316574 54.327326 
L 160.44256 53.424066 
L 160.44256 53.033468 
L 160.064602 52.056972 
L 159.207899 49.81103 
L 159.006322 48.761296 
L 158.981125 47.711563 
L 159.434673 45.85622 
L 160.341771 43.707928 
L 161.072489 42.072296 
L 161.652024 41.0958 
L 162.256755 40.509902 
L 163.264642 39.826355 
L 165.078838 39.216044 
L 166.893033 38.605734 
L 167.321385 38.190723 
L 167.548159 37.287464 
L 167.699342 36.652741 
L 168.278877 35.505358 
L 170.067876 31.404073 
L 171.378128 28.450172 
L 172.386014 26.643654 
L 173.041141 25.325383 
L 174.502576 22.15177 
L 175.586054 20.564964 
L 176.77032 19.319931 
L 178.130967 18.392259 
L 183.926314 14.04685 
L 185.891693 12.460044 
L 187.201945 11.556785 
L 187.882269 11.141774 
L 188.31062 10.8 
L 188.864958 11.703259 
L 189.570478 12.679756 
L 190.679154 13.802726 
L 191.636646 15.267471 
L 192.241378 16.26838 
L 193.047687 18.074898 
L 193.526433 19.026982 
L 193.90439 19.61288 
L 194.282348 20.027891 
L 195.265037 20.735851 
L 197.381598 22.102945 
L 199.095005 23.518865 
L 199.800526 24.129175 
L 200.153286 24.617424 
L 200.329666 25.130084 
L 200.354863 25.49627 
L 200.203681 25.838044 
L 199.32178 26.716891 
L 198.943822 27.229551 
L 198.893428 27.693387 
L 198.918625 28.059573 
L 199.397371 29.719617 
L 199.876117 30.671701 
L 200.329666 31.452898 
L 201.135975 32.356157 
L 201.791102 33.112942 
L 202.219453 33.869727 
L 203.000565 35.749482 
L 204.512395 39.899592 
L 204.587987 40.680789 
L 204.638381 40.900501 
L 205.066733 41.999059 
L 205.369099 44.122939 
L 205.646267 46.100344 
L 205.747056 46.661829 
L 206.049422 47.272139 
L 206.553365 47.613913 
L 207.536054 47.613913 
L 210.080968 47.735975 
L 211.315629 48.004512 
L 212.096741 48.297461 
L 212.600684 48.785709 
L 212.72667 49.273957 
L 212.953444 50.934001 
L 213.356599 53.399654 
L 214.112514 55.987369 
L 214.41488 56.670917 
L 214.818034 57.11034 
L 215.599146 57.403289 
L 217.51413 58.208899 
L 219.832269 59.063333 
L 221.470085 59.575994 
L 223.28428 60.015417 
L 226.383531 60.747789 
L 228.323713 61.309275 
L 229.205613 61.651048 
L 229.734754 62.261359 
L 232.985187 66.924129 
L 233.413539 67.461202 
L 233.816694 68.584173 
L 233.94268 69.731556 
L 233.791497 71.708961 
L 233.438736 74.199027 
L 232.808807 77.37264 
L 232.708019 79.032684 
L 232.834004 80.10683 
L 233.514328 81.2298 
L 235.202538 83.158381 
L 236.235621 84.818425 
L 237.117522 89.969443 
L 236.412001 90.018268 
L 234.597806 90.970352 
L 233.312751 92.06891 
L 232.985187 92.557158 
L 232.934793 93.118644 
L 232.95999 93.606892 
L 233.312751 94.558976 
L 233.690708 95.388998 
L 233.715905 95.999308 
L 233.564722 96.463144 
L 231.0954 100.100593 
L 232.934793 103.323031 
L 233.94268 104.763363 
L 234.623003 105.276024 
L 235.605692 105.324848 
L 236.663973 105.056312 
L 237.797845 104.958662 
L 238.452971 105.178374 
L 239.133295 105.910746 
L 241.098673 108.840235 
L 242.28294 110.842053 
L 242.408926 111.01294 
L 243.517601 112.428859 
L 244.172727 113.112407 
L 245.004233 113.55183 
L 246.566457 113.64948 
L 248.783808 113.527418 
L 250.018469 113.64948 
L 251.353918 114.455089 
L 253.042128 116.163958 
L 254.050014 117.653115 
L 254.251592 118.800498 
L 254.251592 121.168502 
L 254.35238 122.437947 
L 254.805929 123.878279 
L 255.234281 124.48859 
L 256.494139 125.147725 
L 260.223319 126.807768 
L 261.45798 127.296017 
L 262.768232 127.418079 
L 263.927302 127.393666 
L 264.834399 127.686615 
L 266.06906 128.565462 
L 268.261213 130.567279 
L 270.125803 132.642334 
L 272.847097 136.230958 
L 274.207743 137.793353 
L 274.812475 139.013973 
L 275.014053 140.307831 
L 274.988855 142.211999 
L 275.089644 142.968783 
L 275.442404 143.798805 
L 276.273911 144.531177 
L 278.617247 145.629736 
L 279.877105 146.728294 
L 281.212554 148.217451 
L 282.422018 150.02397 
L 282.774778 150.780754 
L 283.606285 151.659601 
L 285.445677 152.538448 
L 285.949621 153.124346 
L 286.226789 154.564678 
L 286.428367 156.102659 
L 286.781127 157.005919 
L 287.486647 158.128889 
L 289.401632 159.984232 
L 290.434715 161.180441 
L 291.971742 163.499619 
L 293.483572 165.281725 
L 295.322965 166.697645 
L 296.43164 167.576492 
L 296.935583 168.089152 
L 297.187555 168.845937 
L 296.658414 170.09097 
L 296.356048 171.091879 
L 296.456837 171.848663 
L 297.237949 172.898397 
L 298.220638 173.557532 
L 299.732468 174.119017 
L 301.143509 174.924627 
L 302.73093 176.267309 
L 304.267957 178.19589 
L 307.241222 182.24835 
L 308.778249 184.567529 
L 309.307389 185.714912 
L 309.937318 188.13174 
L 310.668036 190.841518 
L 311.373556 192.818923 
L 312.40664 194.698678 
L 313.439724 195.894886 
L 315.455497 197.676992 
L 318.453959 199.947346 
L 320.545323 201.509741 
L 323.216222 203.194197 
L 326.214684 204.732179 
L 330.24623 206.294573 
L 332.136017 206.563109 
L 334.605339 206.416635 
L 336.696704 205.830737 
L 337.754984 205.196014 
L 338.939251 204.024219 
L 340.047926 202.242113 
L 340.652658 200.777368 
L 341.862122 197.481693 
L 342.567642 196.23666 
L 343.12198 195.553113 
L 343.928289 195.138102 
L 345.717287 194.649854 
L 347.430694 194.674266 
L 349.900016 195.064864 
L 352.97407 196.212248 
L 355.3678 197.457281 
L 357.030813 198.482602 
L 362.372611 202.388587 
L 365.320679 204.756591 
L 368.067169 206.758408 
L 369.906562 207.68608 
L 372.779039 208.686989 
L 376.432627 210.127321 
L 378.09564 210.859693 
L 378.826357 211.445591 
L 379.229512 212.007076 
L 379.582272 212.934748 
L 379.758652 213.935657 
L 379.884638 214.887741 
L 379.909835 215.644525 
L 379.884638 216.083949 
L 379.582272 216.49896 
L 378.423203 217.695168 
L 377.390119 218.818139 
L 377.012162 219.501686 
L 376.860979 220.45377 
L 376.810584 222.064989 
L 376.785387 223.09031 
L 376.911373 223.920332 
L 377.163345 224.677117 
L 377.717682 225.507139 
L 378.120837 226.166274 
L 378.398006 227.020708 
L 378.498794 227.826318 
L 378.523991 228.46104 
L 378.070443 229.77931 
L 377.818471 230.902281 
L 377.742879 231.952015 
L 377.818471 232.537913 
L 378.045245 233.563234 
L 378.347611 234.417668 
L 378.80116 234.979154 
L 379.431089 235.296515 
L 380.212201 235.394164 
L 380.892525 235.613876 
L 381.446862 235.906825 
L 384.04217 239.007201 
L 384.57131 239.495449 
L 385.377619 240.00811 
L 387.091026 240.642832 
L 389.081602 241.399617 
L 389.711531 241.83904 
L 390.139883 242.449351 
L 390.996586 244.597643 
L 392.004473 247.014471 
L 392.458022 247.722431 
L 393.138345 248.381566 
L 393.969851 248.796577 
L 395.330498 249.040701 
L 398.832903 249.284825 
L 401.831366 249.382475 
L 402.990435 249.406887 
L 403.847139 249.504537 
L 405.560546 250.188084 
L 408.155853 251.311055 
L 409.69288 252.214314 
L 411.355893 253.337285 
L 412.640948 254.045245 
L 413.749623 254.313782 
L 414.480341 254.313782 
L 415.059875 254.167307 
L 415.538621 253.923183 
L 416.143353 253.410522 
L 417.025254 252.434026 
L 417.68038 251.579592 
L 418.285112 250.212497 
L 418.915041 248.528041 
L 419.318196 247.893318 
L 419.973322 247.234183 
L 420.729237 246.59946 
L 421.434757 245.769438 
L 421.989095 244.988241 
L 422.367052 243.987332 
L 422.619024 242.717887 
L 422.996981 241.131081 
L 423.425333 239.226913 
L 423.601713 238.59219 
L 424.030065 238.055117 
L 425.693077 236.834497 
L 426.927738 235.833588 
L 427.784442 234.588555 
L 428.464765 232.5135 
L 429.094694 229.193413 
L 429.069497 227.826318 
L 428.741934 226.263923 
L 428.086808 224.50623 
L 427.053724 221.576741 
L 426.045838 219.501686 
L 424.004868 216.913971 
L 422.92139 215.009803 
L 422.518235 213.569471 
L 422.467841 211.494416 
L 422.341855 210.298208 
L 421.888306 209.419361 
L 420.376476 207.68608 
L 418.713464 206.050449 
L 416.949663 204.805416 
L 413.195285 202.974485 
L 410.297612 201.436503 
L 407.450333 200.533244 
L 406.467643 199.922934 
L 406.215672 199.532335 
L 406.190475 199.044087 
L 406.518038 198.702313 
L 407.727501 198.189653 
L 410.448795 197.335219 
L 412.137005 196.33431 
L 416.168551 193.673357 
L 419.418984 196.84697 
L 421.888306 199.434686 
L 424.282036 202.339762 
L 425.642683 203.950981 
L 426.247415 204.317168 
L 427.104119 204.610116 
L 427.70885 204.756591 
L 428.086808 204.732179 
L 428.817526 204.463642 
L 429.22068 204.24393 
L 429.724623 204.195106 
L 430.581327 204.365992 
L 432.345128 205.073952 
L 433.428606 205.586613 
L 434.260112 206.172511 
L 434.965633 206.782821 
L 436.250688 208.223153 
L 436.880617 208.931113 
L 437.460152 209.224062 
L 437.913701 209.199649 
L 438.669616 208.784638 
L 439.400333 207.808142 
L 439.954671 207.441956 
L 440.5846 207.368719 
L 441.945247 207.930204 
L 443.633456 209.077587 
L 444.338977 209.541423 
L 445.120089 209.639073 
L 446.581524 209.590248 
L 448.093354 209.443773 
L 448.975255 209.370536 
L 449.630381 209.517011 
L 451.520168 211.152642 
L 453.661927 212.812686 
L 455.098165 214.277431 
L 455.753291 215.205102 
L 455.85408 216.035124 
L 455.879277 216.987208 
L 456.03046 217.743993 
L 456.433614 218.696077 
L 457.743867 220.258471 
L 459.104513 221.430266 
L 459.810034 221.649978 
L 460.46516 221.625566 
L 461.095089 221.918515 
L 461.876201 222.772949 
L 462.758102 224.066807 
L 462.984876 224.628292 
L 462.959679 225.311839 
L 462.606919 226.239511 
L 462.632116 226.703347 
L 462.68251 227.167183 
L 462.984876 227.679843 
L 463.539214 228.021617 
L 464.698283 228.680752 
L 463.6652 230.365208 
L 462.934482 232.440263 
L 462.077778 236.150949 
L 461.397455 239.861635 
L 461.145484 242.839949 
L 461.246272 246.990059 
L 461.019498 248.137442 
L 460.187991 249.113938 
L 458.751753 250.114847 
L 456.20684 251.286643 
L 455.198953 252.043428 
L 454.69501 252.7758 
L 454.392644 254.216132 
L 454.191067 256.462074 
L 454.493433 258.317417 
L 455.652502 262.687238 
L 455.954868 264.054333 
L 456.055657 265.177304 
L 456.106051 266.300274 
L 455.627305 268.546216 
L 455.652502 269.278588 
L 456.232037 271.182756 
L 457.340712 274.136658 
L 458.172218 275.869939 
L 459.331288 277.383508 
L 461.195878 279.116789 
L 463.110862 280.410647 
L 464.597495 281.753329 
L 466.638465 284.096921 
L 468.956604 286.2208 
L 470.695208 287.392596 
L 473.164529 288.613216 
L 473.492093 288.759691 
L 475.507866 290.151198 
L 476.843315 291.420644 
L 478.279553 293.471286 
L 479.085862 294.691906 
L 479.690594 295.546341 
L 480.043355 295.936939 
L 480.925255 296.522837 
L 481.933142 297.05991 
L 482.613465 297.426096 
L 482.815042 297.792282 
L 482.739451 298.231706 
L 482.285902 298.793191 
L 481.126832 299.769687 
L 480.144143 300.917071 
L 479.715791 301.625031 
L 479.539411 302.162104 
L 479.388228 303.553611 
L 479.413426 304.310396 
L 479.589806 305.042768 
L 479.81658 305.531016 
L 480.194538 305.87279 
L 481.126832 306.141326 
L 483.696943 306.458688 
L 485.007195 306.702812 
L 486.367842 307.044585 
L 487.526911 307.557246 
L 488.96315 308.826691 
L 490.726951 310.169374 
L 491.860823 310.63321 
L 493.246667 311.121458 
L 495.338031 311.85383 
L 496.77427 312.586202 
L 499.747535 314.075359 
L 501.334956 314.905381 
L 502.695603 315.857465 
L 504.434207 317.200148 
L 505.542882 318.054582 
L 506.248402 318.762542 
L 506.903529 319.25079 
L 508.440555 319.836688 
L 510.88468 320.422586 
L 512.673679 320.47141 
L 515.193395 320.495823 
L 517.00759 320.446998 
L 518.267448 320.349348 
L 519.577701 320.007575 
L 521.08953 319.641389 
L 521.996628 319.592564 
L 524.138387 319.446089 
L 526.758892 319.275202 
L 527.741581 319.275202 
L 528.573087 319.470502 
L 529.354199 319.909925 
L 530.614057 320.788772 
L 532.377859 319.665801 
L 533.990477 317.468684 
L 535.124349 313.342987 
L 536.938545 311.463231 
L 539.281881 310.584385 
L 542.12916 310.242611 
L 545.026834 310.340261 
L 546.110312 310.511148 
L 546.412678 310.657622 
L 547.143395 311.048221 
L 547.823719 311.658531 
L 548.604831 312.122367 
L 551.326124 313.294162 
L 552.283616 313.806823 
L 552.812757 313.806823 
L 553.745052 313.416224 
L 556.113585 312.268841 
L 557.801794 311.438819 
L 558.633301 310.852921 
L 559.162441 310.120549 
L 559.666384 309.241702 
L 560.649074 308.118731 
L 562.387678 306.507512 
L 563.924705 305.604253 
L 567.502702 303.84656 
L 568.58618 303.700085 
L 570.677544 303.773323 
L 571.68543 303.773323 
L 573.298049 303.651261 
L 574.608301 303.333899 
L 575.06185 302.967713 
L 575.439807 302.162104 
L 575.41461 301.283257 
L 574.961061 299.061728 
L 574.784681 297.841107 
L 574.759484 296.547249 
L 574.53271 293.959534 
L 574.507512 293.373636 
L 574.658695 293.227162 
L 575.137442 293.202749 
L 578.186298 294.740731 
L 579.118593 295.155742 
L 579.597339 295.64399 
L 579.698128 296.35195 
L 579.975296 298.451417 
L 580.428845 300.892658 
L 580.857197 302.552702 
L 581.53752 304.847469 
L 581.814689 305.994852 
L 581.915478 306.556337 
L 581.688703 307.068998 
L 578.816227 309.876425 
L 577.682355 311.072633 
L 577.228806 311.658531 
L 576.800454 312.610615 
L 576.75006 313.757998 
L 576.951637 315.491279 
L 577.2792 316.492188 
L 577.682355 317.200148 
L 578.26189 317.83487 
L 579.345367 318.396356 
L 580.580028 318.44518 
L 582.142252 318.396356 
L 584.082434 318.420768 
L 585.468278 318.616067 
L 586.42577 319.25079 
L 587.055699 320.080812 
L 587.962797 321.960567 
L 588.365951 322.741765 
L 589.575415 324.157684 
L 592.095131 326.5501 
L 594.085707 328.747217 
L 596.328254 330.919922 
L 598.470013 333.263513 
L 599.351914 334.117947 
L 599.83066 334.899144 
L 599.855857 335.680341 
L 599.326716 336.485951 
L 599.049548 337.218323 
L 599.049548 337.804221 
L 599.225928 338.365706 
L 601.292095 340.709298 
L 602.476362 341.759031 
L 603.131488 342.247279 
L 603.811811 342.540228 
L 604.819698 342.515816 
L 607.767765 342.222867 
L 608.70006 342.198455 
L 609.481172 342.393754 
L 610.56465 342.955239 
L 612.378846 344.07821 
L 613.386732 344.419984 
L 614.016661 344.395571 
L 614.696985 344.029385 
L 615.528491 343.272601 
L 616.662363 342.05198 
L 616.813546 341.881093 
L 618.148996 339.903688 
L 618.753728 338.951604 
L 619.106488 337.853046 
L 619.434051 335.900053 
L 620.139572 332.775265 
L 621.374233 329.577239 
L 621.827782 328.844867 
L 622.583696 328.381031 
L 623.767963 328.161319 
L 626.060905 327.86837 
L 627.8751 328.210144 
L 629.613704 328.381031 
L 630.797971 328.136907 
L 632.838941 326.818637 
L 634.476757 326.061852 
L 635.787009 325.866553 
L 637.777585 326.7454 
L 641.078413 328.600743 
L 644.908381 330.211962 
L 647.024943 330.871097 
L 649.595053 330.993159 
L 651.661221 330.773447 
L 654.080148 329.552827 
L 655.944738 328.600743 
L 658.086497 327.380122 
L 658.918003 325.988615 
L 659.875495 323.693848 
L 660.354241 322.839414 
L 661.387325 322.180279 
L 662.596789 321.716443 
L 663.554281 321.667618 
L 665.570054 322.49764 
L 668.669304 323.864735 
L 671.919738 324.645932 
L 675.598524 324.743582 
L 679.932436 325.109768 
L 681.469462 324.987706 
L 682.351363 324.670345 
L 683.132475 323.962385 
L 683.787601 321.643206 
L 683.913587 320.398173 
L 683.71201 319.763451 
L 682.830109 319.128728 
L 681.217491 318.127819 
L 679.529281 317.200148 
L 681.948209 313.684761 
L 683.258461 312.195604 
L 683.586024 309.412589 
L 683.762404 308.289618 
L 684.442727 307.264297 
L 685.299431 305.555428 
L 686.10574 303.285074 
L 686.130937 301.136782 
L 686.10574 300.013812 
L 687.44119 296.181063 
L 691.976679 297.401684 
L 697.066505 299.501151 
L 699.636616 301.161195 
L 701.02246 302.845651 
L 704.575259 310.462323 
L 707.346947 314.002122 
L 709.589495 315.833053 
L 713.343872 317.786045 
L 715.536025 318.54283 
L 717.224234 318.494005 
L 718.534487 316.907199 
L 720.474668 314.026534 
L 721.709329 313.294162 
L 723.397539 313.098863 
L 725.085749 313.538286 
L 726.270015 314.148596 
L 726.824353 314.099772 
L 727.781845 314.099772 
L 729.117295 313.294162 
L 730.40235 311.219107 
L 731.208659 310.120549 
L 732.216545 310.096137 
L 733.753572 310.999396 
L 738.893793 314.49037 
L 743.98362 316.589837 
L 744.33638 316.736312 
L 748.216743 317.737221 
L 751.416782 317.981345 
L 754.440442 317.444272 
L 756.960158 316.931611 
L 758.471988 317.200148 
L 760.512958 317.956932 
L 764.594898 320.056399 
L 768.525655 322.790589 
L 774.698959 327.843958 
L 777.949393 330.114312 
L 779.813983 330.70021 
L 784.878613 331.383757 
L 790.220411 332.750852 
L 796.822067 335.436217 
L 801.05519 336.754487 
L 803.600104 336.876549 
L 805.615876 336.315064 
L 806.094623 336.193002 
L 806.900932 335.411805 
L 807.908818 334.435308 
L 808.86631 332.824089 
L 808.841113 331.261695 
L 808.463156 329.406352 
L 805.842651 325.988615 
L 799.467769 319.8611 
L 797.905545 317.541921 
L 797.527588 315.979527 
L 797.225222 313.391812 
L 797.829954 310.877334 
L 804.633187 293.788647 
L 806.774946 291.396231 
L 808.412761 290.27326 
L 810.604914 289.907074 
L 814.46008 289.516476 
L 817.130979 289.150289 
L 818.970372 288.491154 
L 820.104244 286.879935 
L 823.757833 278.994727 
L 824.438156 277.554395 
L 826.151563 272.012778 
L 826.605112 270.889807 
L 827.109055 270.035373 
L 829.351602 267.520895 
L 831.543755 265.641139 
L 834.365838 263.712559 
L 835.172147 263.297548 
L 835.32333 263.224311 
L 836.02885 263.199899 
L 839.909213 263.736972 
L 843.462013 264.298457 
L 848.173882 264.347282 
L 865.181966 261.759566 
L 867.27333 261.442205 
L 869.112723 261.39338 
L 871.052905 261.58868 
L 872.085988 262.19899 
L 872.766311 262.980187 
L 872.967889 263.761384 
L 872.51434 265.958501 
L 872.388354 267.520895 
L 872.766311 269.571537 
L 874.000972 271.573355 
L 879.519151 277.407921 
L 880.904995 279.116789 
L 881.635712 282.070691 
L 887.834214 305.555428 
L 889.094072 309.290527 
L 890.152353 311.609706 
L 891.764971 314.880969 
L 893.679955 318.44518 
L 897.686304 323.547374 
L 900.080034 325.84214 
L 901.440681 326.598925 
L 902.624948 326.720987 
L 904.943087 325.573604 
L 906.454916 325.085356 
L 909.478576 325.32948 
L 911.015602 326.086265 
L 913.409333 327.917195 
L 918.020413 336.144177 
L 922.329128 342.174042 
L 922.782677 343.321425 
L 922.631494 344.273509 
L 921.799987 345.39648 
L 920.162172 346.519451 
L 916.836147 348.789805 
L 914.543205 350.718385 
L 913.056572 352.476079 
L 912.527432 353.40375 
L 912.426643 354.20936 
L 912.980981 355.918229 
L 914.543205 358.554769 
L 916.332203 360.89836 
L 917.012527 361.630732 
L 917.617259 362.192218 
L 919.935398 363.656962 
L 920.590524 364.316097 
L 921.119664 365.609955 
L 921.472424 366.830575 
L 922.026762 368.954455 
L 923.28662 370.834211 
L 925.075618 373.177802 
L 927.242574 375.130795 
L 928.578024 375.863167 
L 930.694585 376.204941 
L 932.685161 376.375827 
L 934.65054 376.790838 
L 935.960792 377.303499 
L 937.296242 378.133521 
L 938.984452 379.622678 
L 940.319901 380.696824 
" clip-path="url(#p10233b7c5b)"/>
   </g>
  </g>
 </g>
 <defs>
  <clipPath id="p10233b7c5b">
   <rect x="74.948591" y="10.8" width="930.102817" height="1058.4"/>
  </clipPath>
 </defs>
</svg>
