<?xml version="1.0" encoding="utf-8" standalone="no"?>
<!DOCTYPE svg PUBLIC "-//W3C//DTD SVG 1.1//EN"
  "http://www.w3.org/Graphics/SVG/1.1/DTD/svg11.dtd">
<svg xmlns:xlink="http://www.w3.org/1999/xlink" width="1080pt" height="1080pt" viewBox="0 0 1080 1080" xmlns="http://www.w3.org/2000/svg" version="1.1">
 <metadata>
  <rdf:RDF xmlns:dc="http://purl.org/dc/elements/1.1/" xmlns:cc="http://creativecommons.org/ns#" xmlns:rdf="http://www.w3.org/1999/02/22-rdf-syntax-ns#">
   <cc:Work>
    <dc:type rdf:resource="http://purl.org/dc/dcmitype/StillImage"/>
    <dc:date>2022-07-01T13:43:20.450857</dc:date>
    <dc:format>image/svg+xml</dc:format>
    <dc:creator>
     <cc:Agent>
      <dc:title>Matplotlib v3.5.1, https://matplotlib.org/</dc:title>
     </cc:Agent>
    </dc:creator>
   </cc:Work>
  </rdf:RDF>
 </metadata>
 <defs>
  <style type="text/css">*{stroke-linejoin: round; stroke-linecap: butt}</style>
 </defs>
 <g id="figure_1">
  <g id="patch_1">
   <path d="M 0 1080 
L 1080 1080 
L 1080 0 
L 0 0 
L 0 1080 
z
" style="fill: none; opacity: 0"/>
  </g>
  <g id="axes_1">
   <g id="PatchCollection_1">
    <path d="M 920.239634 226.641818 
L 920.90959 230.498182 
L 919.766723 236.187273 
L 918.860312 242.983636 
L 917.00808 250.734545 
L 914.249436 257.110909 
L 911.727247 264.365455 
L 907.589282 270.741818 
L 903.451316 274.407273 
L 899.076895 276.66 
L 896.278842 278.950909 
L 894.702474 281.012727 
L 894.938929 283.265455 
L 896.554707 287.809091 
L 898.170484 291.894545 
L 899.35276 294.872727 
L 899.589215 297.583636 
L 898.643394 299.645455 
L 895.88475 303.730909 
L 894.741883 308.961818 
L 895.687704 313.963636 
L 898.485757 320.989091 
L 899.195123 325.761818 
L 900.101534 333.474545 
L 900.337989 336.452727 
L 899.431578 340.576364 
L 898.525166 340.5 
L 894.268973 340.538182 
L 892.92906 341.416364 
L 892.259104 344.089091 
L 891.667966 346.494545 
L 890.406872 348.327273 
L 888.791095 349.014545 
L 886.150679 349.434545 
L 884.416674 349.549091 
L 880.19989 349.816364 
L 876.140743 349.74 
L 874.32792 349.854545 
L 873.421508 350.541818 
L 872.909189 352.030909 
L 872.593915 354.512727 
L 872.83037 356.612727 
L 873.933828 359.094545 
L 876.061924 362.187273 
L 876.456016 363.18 
L 876.731881 365.28 
L 876.731881 369.976364 
L 875.78606 372.610909 
L 874.446147 372.992727 
L 872.751552 372.84 
L 871.608685 372.229091 
L 870.071726 371.121818 
L 867.588947 368.525455 
L 866.564308 368.067273 
L 865.46085 368.143636 
L 864.593848 368.792727 
L 863.963301 369.632727 
L 863.01748 371.350909 
L 862.820434 371.732727 
L 862.820434 372.42 
L 863.01748 373.412727 
L 864.357393 375.092727 
L 864.712076 376.429091 
L 864.712076 377.536364 
L 861.125839 387.501818 
L 859.037151 391.587273 
L 857.894285 392.427273 
L 856.751418 392.236364 
L 854.426275 390.556364 
L 852.140542 390.747273 
L 850.445946 391.663636 
L 849.500126 393.572727 
L 847.608484 399.949091 
L 848.554305 406.745455 
L 848.002576 412.358182 
L 847.174983 414.229091 
L 846.465618 414.992727 
L 844.573976 415.221818 
L 840.94833 415.221818 
L 839.608417 415.412727 
L 837.716776 415.794545 
L 837.00741 416.290909 
L 837.598548 418.849091 
L 838.110868 421.445455 
L 838.741415 424.538182 
L 837.322684 432.518182 
L 834.958132 439.314545 
L 833.775856 441.681818 
L 829.283208 445.652727 
L 819.588546 451.303636 
L 812.219026 454.625455 
L 810.563839 456.496364 
L 810.563839 459.78 
L 812.49489 463.521818 
L 815.135306 466.652727 
L 819.3915 469.363636 
L 825.73638 474.709091 
L 828.889116 478.489091 
L 830.347256 480.589091 
L 830.347256 482.230909 
L 829.401435 485.285455 
L 826.800429 491.165455 
L 821.283141 505.483636 
L 818.997408 508.996364 
L 817.736313 509.607273 
L 816.632856 508.996364 
L 815.92349 507.354545 
L 814.898851 504.758182 
L 813.795394 503.841818 
L 812.297844 503.574545 
L 808.948062 504.834545 
L 806.741147 506.247273 
L 803.115501 510.447273 
L 799.332218 515.143636 
L 798.583444 517.243636 
L 799.135172 519.458182 
L 800.790359 521.94 
L 801.972635 524.498182 
L 802.366727 526.750909 
L 801.972635 529.423636 
L 799.883947 533.890909 
L 795.864209 539.541818 
L 793.026747 542.596364 
L 791.568607 543.092727 
L 789.676965 543.054545 
L 781.164579 540.267273 
L 778.405935 539.694545 
L 776.396066 539.809091 
L 775.174381 540.038182 
L 773.558604 540.992727 
L 770.79996 543.283636 
L 773.440376 544.161818 
L 779.15471 546.147273 
L 784.750816 550.309091 
L 790.071057 553.669091 
L 793.893749 555.310909 
L 798.386398 556.685455 
L 814.93826 559.816364 
L 820.455548 562.947273 
L 825.618153 566.803636 
L 831.963033 574.44 
L 840.238965 580.434545 
L 847.766121 585.092727 
L 852.101133 585.856364 
L 857.224328 585.474545 
L 862.347524 584.672727 
L 871.017547 579.976364 
L 876.140743 577.990909 
L 880.160481 578.716364 
L 880.475754 578.792727 
L 884.456083 581.121818 
L 887.096499 584.1 
L 890.800964 589.025455 
L 896.318251 594.332727 
L 905.776459 600.556364 
L 911.727247 606.78 
L 918.781493 615.447273 
L 936.476223 655.576364 
L 936.239768 687.190909 
L 935.963903 724.838182 
L 945.895021 739.118182 
L 948.101936 743.012727 
L 950.269442 746.830909 
L 951.924628 752.978182 
L 951.964037 753.627273 
L 952.633993 759.774545 
L 952.397538 764.089091 
L 950.111805 770.923636 
L 947.826071 777.490909 
L 945.540338 782.721818 
L 941.165917 787.494545 
L 936.791496 792.496364 
L 929.421977 798.643636 
L 921.146045 804.561818 
L 914.012981 809.830909 
L 906.20996 815.061818 
L 898.131074 818.727273 
L 891.234465 820.56 
L 882.249168 821.4 
L 881.933895 821.4 
L 877.165382 823.309091 
L 873.736782 823.996364 
L 868.219494 824.683636 
L 863.135708 823.576364 
L 859.194788 821.285455 
L 856.199689 817.238182 
L 830.347256 791.389091 
L 828.17975 789.136364 
L 825.342288 788.678182 
L 822.30778 788.678182 
L 820.061456 789.441818 
L 817.223994 792.076364 
L 813.243665 796.429091 
L 809.5392 802.347273 
L 800.514494 816.321818 
L 796.770621 820.636364 
L 795.8248 821.209091 
L 794.130204 821.018182 
L 790.346922 820.483636 
L 787.154777 819.376364 
L 785.105498 819.376364 
L 781.519262 820.865455 
L 778.484753 823.118182 
L 775.450245 827.509091 
L 775.134972 827.814545 
L 775.095563 828.043636 
L 773.558604 830.029091 
L 772.139873 831.785455 
L 770.051185 834.343636 
L 761.184116 840.72 
L 758.386063 843.316364 
L 756.297376 846.638182 
L 755.666829 851.22 
L 754.918054 852.938182 
L 752.908185 855.343636 
L 750.583042 857.023636 
L 743.686433 860.078182 
L 739.351421 862.369091 
L 737.105097 865.347273 
L 736.316913 869.050909 
L 736.119867 870.387273 
L 735.568138 875.312727 
L 733.479451 878.290909 
L 731.627219 879.78 
L 729.183848 881.269091 
L 725.282338 885.545455 
L 724.139471 888.676364 
L 724.17888 892.189091 
L 724.730609 898.870909 
L 725.321747 905.896364 
L 727.055752 912.005455 
L 728.277437 915.136364 
L 719.055685 914.678182 
L 712.43494 914.410909 
L 706.799425 916.281818 
L 701.1245 920.329091 
L 696.71067 924.147273 
L 696.316578 924.490909 
L 693.439707 923.956364 
L 690.681063 923.04 
L 687.88301 920.787273 
L 682.602178 914.907273 
L 678.661258 910.592727 
L 675.429704 906.316364 
L 677.439573 891.310909 
L 677.439573 888.6 
L 678.779486 884.285455 
L 682.48395 879.703636 
L 681.498721 865.423636 
L 680.316445 859.276364 
L 677.991302 849.54 
L 676.809026 842.705455 
L 676.572571 838.390909 
L 638.109195 837.627273 
L 620.099192 833.618182 
L 615.724771 832.014545 
L 612.256762 830.907273 
L 607.172976 829.074545 
L 605.911881 829.112727 
L 605.636017 829.112727 
L 604.650787 829.112727 
L 604.532559 829.38 
L 603.980831 830.716364 
L 603.271465 832.778182 
L 601.695097 834.572727 
L 599.1335 835.489091 
L 595.231989 835.527273 
L 594.128532 835.450909 
L 589.478246 835.069091 
L 583.015138 833.732727 
L 582.975729 832.434545 
L 582.739274 817.62 
L 577.655487 819.910909 
L 573.990432 821.056364 
L 564.532225 821.094545 
L 562.246491 822.24 
L 557.39916 825.676364 
L 549.596139 833.885455 
L 543.566532 839.001818 
L 529.733904 848.623636 
L 518.226419 847.592727 
L 512.748541 847.134545 
L 513.615543 849.654545 
L 514.482545 851.830909 
L 514.955456 856.527273 
L 515.349548 864.66 
L 515.23132 874.396364 
L 515.191911 877.221818 
L 515.034274 884.858182 
L 513.457906 891.921818 
L 510.975127 899.634545 
L 509.162304 907.843636 
L 506.837161 909.676364 
L 494.699128 920.367273 
L 489.654751 923.803636 
L 483.901009 928.156364 
L 479.999498 931.096364 
L 476.334443 935.22 
L 473.575799 938.847273 
L 471.762976 940.68 
L 462.541224 939.801818 
L 448.945051 939.649091 
L 443.427764 939.229091 
L 438.816888 936.747273 
L 433.2996 935.410909 
L 427.742903 935.22 
L 421.989161 935.449091 
L 416.708328 936.861818 
L 412.333908 939.343636 
L 400.392921 945.109091 
L 393.811585 947.896364 
L 390.067711 949.461818 
L 392.629309 957.174545 
L 393.10222 960.114545 
L 390.816486 960.801818 
L 387.584932 959.465455 
L 384.786879 956.983636 
L 381.121824 955.838182 
L 375.840991 959.274545 
L 373.318803 962.252727 
L 373.121757 966.338182 
L 374.028168 970.194545 
L 376.589766 974.509091 
L 380.057775 977.181818 
L 384.392787 980.389091 
L 388.846026 983.443636 
L 389.988893 984.398182 
L 393.141629 987.109091 
L 395.309135 990.049091 
L 399.722965 996.769091 
L 402.087516 1001.541818 
L 402.599836 1005.818182 
L 402.639245 1006.772727 
L 402.639245 1007.689091 
L 402.521018 1008.758182 
L 402.284562 1010.361818 
L 401.535788 1012.538182 
L 400.550558 1014.370909 
L 396.057909 1021.549091 
L 390.225348 1028.956364 
L 388.64898 1031.590909 
L 387.939615 1033.270909 
L 387.506114 1034.950909 
L 387.230249 1036.249091 
L 387.112022 1037.050909 
L 387.112022 1038.96 
L 387.506114 1040.601818 
L 389.673619 1043.350909 
L 391.762307 1044.763636 
L 394.166268 1045.832727 
L 398.619507 1046.978182 
L 401.062877 1047.932727 
L 402.442199 1048.696364 
L 403.033337 1049.574545 
L 403.269792 1050.567273 
L 403.348611 1052.476364 
L 403.38802 1052.743636 
L 403.230383 1054.156364 
L 402.205744 1056.638182 
L 399.95942 1059.272727 
L 396.806684 1062.250909 
L 392.235217 1066.794545 
L 390.343576 1068.398182 
L 389.318937 1069.2 
L 383.171102 1064.045455 
L 381.082415 1063.014545 
L 378.560226 1062.403636 
L 376.589766 1062.747273 
L 370.757205 1064.770909 
L 368.07738 1064.770909 
L 365.476373 1064.007273 
L 363.821186 1062.747273 
L 362.717729 1061.334545 
L 361.338407 1058.432727 
L 360.904906 1056.218182 
L 360.904906 1053.545455 
L 361.298998 1052.209091 
L 362.205409 1048.887273 
L 363.742368 1045.374545 
L 364.175869 1043.503636 
L 364.097051 1039.990909 
L 363.66355 1038.616364 
L 361.890136 1036.516364 
L 357.870398 1032.965455 
L 356.451667 1031.552727 
L 355.505846 1029.758182 
L 355.427028 1028.192727 
L 355.860529 1026.245455 
L 358.579763 1019.105455 
L 359.919676 1014.141818 
L 356.727531 1011.927273 
L 355.427028 1011.430909 
L 353.614205 1011.812727 
L 351.36788 1011.430909 
L 349.791512 1010.132727 
L 348.293963 1007.841818 
L 344.786544 1003.718182 
L 342.697857 1002.496364 
L 337.495843 1000.281818 
L 335.407156 999.632727 
L 326.658314 997.456364 
L 323.42676 995.929091 
L 311.998093 993.18 
L 311.091681 992.798182 
L 307.584263 991.385455 
L 302.264021 988.521818 
L 299.150695 985.123636 
L 297.219644 983.405455 
L 295.919141 983.1 
L 295.249184 983.061818 
L 293.948681 983.443636 
L 291.150628 985.009091 
L 289.337805 985.505455 
L 288.273757 985.352727 
L 286.933844 984.36 
L 285.63334 982.794545 
L 283.899336 979.014545 
L 282.047103 972.943636 
L 280.825418 970.461818 
L 278.815549 967.98 
L 274.598765 964.2 
L 271.997758 961.527273 
L 261.396684 952.86 
L 260.056772 948.354545 
L 258.992723 946.025455 
L 258.16513 945.414545 
L 257.889266 945.185455 
L 256.391716 944.918182 
L 250.125654 944.727273 
L 248.39165 945.681818 
L 246.618236 948.316364 
L 243.899001 950.683636 
L 239.563989 954.12 
L 237.199438 956.029091 
L 235.977753 956.334545 
L 234.834886 956.181818 
L 231.445695 954.807273 
L 228.608233 953.929091 
L 225.061405 953.814545 
L 222.342171 954.12 
L 218.558888 955.38 
L 217.021929 956.869091 
L 216.273154 958.854545 
L 215.48497 962.52 
L 215.169697 963.741818 
L 213.711556 965.078182 
L 211.741097 965.727273 
L 209.258317 966.338182 
L 208.943044 966.376364 
L 204.844487 966.185455 
L 201.494706 964.887273 
L 198.578425 962.558182 
L 193.376411 957.289091 
L 189.238445 951.523636 
L 186.637438 942.589091 
L 185.297526 938.465455 
L 183.642339 936.441818 
L 178.597962 933.654545 
L 174.105314 930.943636 
L 168.312162 926.361818 
L 163.701286 922.810909 
L 160.903233 921.36 
L 154.361306 918.496364 
L 152.390847 917.465455 
L 151.642072 917.045455 
L 149.632203 915.823636 
L 149.395748 915.670909 
L 142.972049 909.752727 
L 137.178897 904.330909 
L 131.701018 897.84 
L 130.479333 895.358182 
L 128.1936 888.485455 
L 127.917735 887.683636 
L 127.366007 880.62 
L 127.523643 877.985455 
L 127.68128 875.389091 
L 128.627101 872.563636 
L 131.701018 866.912727 
L 139.46463 857.061818 
L 142.302092 852.670909 
L 142.696184 852.250909 
L 146.006557 848.623636 
L 148.449927 846.485455 
L 148.80461 846.18 
L 153.060803 843.621818 
L 161.415553 839.88 
L 169.139755 836.825455 
L 174.578224 834.190909 
L 177.455096 832.358182 
L 178.322098 831.098182 
L 179.307328 828.769091 
L 179.543783 828.158182 
L 180.804877 824.836364 
L 182.263018 822.354545 
L 183.957613 820.216364 
L 185.533981 818.803636 
L 189.159627 815.558182 
L 192.864091 813.114545 
L 194.952779 812.503636 
L 196.765602 812.427273 
L 197.869059 812.618182 
L 199.169563 813.305455 
L 200.548885 814.565455 
L 201.77057 816.092727 
L 202.046434 817.429091 
L 202.046434 819.147273 
L 201.100614 821.934545 
L 198.933108 828.387273 
L 198.736062 830.830909 
L 199.208972 832.129091 
L 199.997156 832.854545 
L 201.100614 833.236364 
L 202.637572 833.465455 
L 203.031664 833.541818 
L 203.780439 833.236364 
L 205.002124 832.167273 
L 208.785407 827.356364 
L 212.450462 823.232727 
L 217.337203 819.414545 
L 218.874161 818.918182 
L 221.672214 817.963636 
L 225.888998 817.849091 
L 227.859458 818.383636 
L 229.829918 819.070909 
L 233.770838 823.08 
L 238.894033 827.738182 
L 241.731495 828.425455 
L 246.105916 827.929091 
L 248.746332 826.745455 
L 250.362109 825.027273 
L 250.677383 822.889091 
L 250.362109 820.903636 
L 248.509877 817.009091 
L 248.312831 816.550909 
L 247.603466 815.749091 
L 246.42119 814.412727 
L 241.573858 808.112727 
L 240.825084 806.470909 
L 240.628038 804.370909 
L 241.02213 802.881818 
L 241.849723 801.66 
L 246.578826 797.841818 
L 253.357208 792.763636 
L 254.854758 791.389091 
L 256.628172 788.296364 
L 258.362176 784.325455 
L 258.283358 782.989091 
L 257.573992 780.621818 
L 255.485305 776.078182 
L 253.436027 773.481818 
L 248.746332 768.709091 
L 248.115785 768.021818 
L 245.238914 764.967273 
L 240.115718 759.469091 
L 234.756067 753.474545 
L 231.406286 748.816364 
L 226.677182 739.767273 
L 223.760902 733.696364 
L 222.85449 730.298182 
L 222.972718 728.809091 
L 223.406219 727.281818 
L 224.588495 724.074545 
L 226.125453 720.829091 
L 226.874228 718.385455 
L 226.874228 716.743636 
L 226.677182 716.132727 
L 223.603265 712.849091 
L 220.529347 709.603636 
L 219.819982 708.458182 
L 219.110616 705.594545 
L 218.125386 701.089091 
L 216.4702 694.674545 
L 214.854423 691.047273 
L 214.657377 690.894545 
L 211.859324 688.756364 
L 208.864225 687.878182 
L 205.869126 687.878182 
L 201.731161 688.832727 
L 198.972517 689.52 
L 196.174464 689.52 
L 193.179365 688.870909 
L 191.090678 686.389091 
L 190.381312 683.449091 
L 189.671947 679.363636 
L 188.489671 676.194545 
L 186.873894 674.132727 
L 184.11525 672.567273 
L 165.829383 659.967273 
L 160.036231 655.690909 
L 157.947543 655.232727 
L 155.188899 655.232727 
L 152.390847 653.438182 
L 148.922837 650.727273 
L 147.070605 648.932727 
L 138.715855 640.341818 
L 138.4794 637.86 
L 138.439991 632.4 
L 138.637037 629.230909 
L 138.637037 628.772727 
L 138.95231 628.2 
L 143.602596 627.78 
L 145.612465 627.589091 
L 156.371175 629.230909 
L 158.302226 627.016364 
L 158.538681 626.94 
L 165.987019 624.42 
L 171.070806 622.281818 
L 172.134854 620.945455 
L 172.134854 619.761818 
L 171.307261 618.310909 
L 169.967348 616.974545 
L 161.494371 609.109091 
L 158.932773 606.207273 
L 155.14949 600.823636 
L 150.972115 594.790909 
L 150.420387 592.003636 
L 150.656842 588.109091 
L 151.484435 585.054545 
L 160.706187 576.12 
L 167.169295 571.614545 
L 172.765401 569.667273 
L 182.893565 567.643636 
L 186.795075 565.390909 
L 188.765535 561.496364 
L 189.277855 558.441818 
L 188.410852 553.707273 
L 186.440392 549.545455 
L 181.908335 545.154545 
L 175.957546 540.458182 
L 174.854089 539.045455 
L 174.814679 537.403636 
L 175.366408 535.456364 
L 178.440325 532.936364 
L 192.785273 529.232727 
L 200.627703 528.087273 
L 204.016894 528.889091 
L 205.71149 531.103636 
L 208.273087 536.945455 
L 213.711556 548.590909 
L 215.682016 552.714545 
L 220.765803 557.410909 
L 236.568891 567.910909 
L 243.899001 571.461818 
L 248.706923 572.569091 
L 254.303029 571.690909 
L 264.982921 567.185455 
L 270.303163 565.505455 
L 274.244082 566.307273 
L 277.909138 568.789091 
L 281.298329 571.270909 
L 283.544653 571.270909 
L 286.657979 569.590909 
L 287.446163 565.696364 
L 287.446163 562.756364 
L 287.406754 557.067273 
L 288.076711 553.898182 
L 288.786076 551.798182 
L 290.401853 550.118182 
L 292.175267 549.278182 
L 298.047237 546.72 
L 298.993058 545.383636 
L 299.150695 543.130909 
L 298.283692 538.396364 
L 299.544787 535.8 
L 301.35761 534.349091 
L 305.850258 530.301818 
L 308.135992 528.621818 
L 310.342907 528.316364 
L 311.998093 528.850909 
L 313.14096 529.996364 
L 316.254286 534.12 
L 317.673017 536.64 
L 319.328203 537.021818 
L 323.584397 534.921818 
L 325.160765 533.28 
L 325.948948 529.729091 
L 326.34304 525.758182 
L 325.436629 521.405455 
L 322.717394 517.892727 
L 321.495709 515.487273 
L 321.692755 511.096364 
L 323.308532 504.872727 
L 324.963719 501.092727 
L 325.751903 499.985455 
L 327.604135 497.389091 
L 333.200241 487.92 
L 334.303698 486.507273 
L 336.077112 485.361818 
L 338.756937 484.636364 
L 341.397354 484.636364 
L 341.712627 483.529091 
L 341.357944 481.238182 
L 340.60917 478.221818 
L 339.348075 476.312727 
L 335.604202 473.487273 
L 331.978556 468.905455 
L 329.81105 461.345455 
L 329.81105 457.603636 
L 329.968687 454.510909 
L 330.402188 452.410909 
L 331.505645 451.036364 
L 333.515514 450.730909 
L 338.875165 450.883636 
L 341.712627 449.623636 
L 342.421993 448.554545 
L 342.579629 446.416364 
L 342.224947 444.698182 
L 341.515581 443.781818 
L 339.781577 442.14 
L 334.146061 435.190909 
L 330.126323 429.921818 
L 328.668183 428.776364 
L 325.673084 427.134545 
L 325.278992 427.02 
L 323.42676 426.6 
L 320.313433 426.409091 
L 319.446431 425.950909 
L 318.067109 425.378182 
L 317.318334 424.614545 
L 317.436562 423.850909 
L 318.224746 422.82 
L 320.037569 420.414545 
L 322.126256 418.161818 
L 322.126256 416.787273 
L 321.377482 415.603636 
L 319.525249 413.809091 
L 315.544921 410.410909 
L 312.904504 408.158182 
L 312.11632 407.241818 
L 309.869996 404.912727 
L 306.520215 403.08 
L 301.515247 401.476364 
L 296.234414 399.872727 
L 289.258986 399.529091 
L 286.61857 400.14 
L 284.017563 400.750909 
L 282.638241 400.445455 
L 281.692421 399.261818 
L 281.416556 398.574545 
L 280.588963 396.550909 
L 278.854959 391.663636 
L 277.909138 387.921818 
L 277.396818 384.485455 
L 277.396818 382.767273 
L 277.869729 382.041818 
L 279.209641 381.66 
L 284.1752 381.545455 
L 286.776207 380.934545 
L 289.10135 379.865455 
L 291.623538 378.261818 
L 292.254085 377.383636 
L 293.593998 374.787273 
L 294.106318 372.305455 
L 294.303364 370.281818 
L 293.121088 367.189091 
L 291.938812 364.86 
L 290.835354 363.370909 
L 289.456032 362.645455 
L 288.864894 359.743636 
L 287.643209 356.269091 
L 286.894435 353.749091 
L 286.973253 352.68 
L 287.012662 352.069091 
L 287.800846 350.961818 
L 288.904304 350.350909 
L 292.254085 350.732727 
L 298.126056 351.42 
L 303.012796 351 
L 305.416757 349.969091 
L 306.953716 349.167273 
L 307.623672 348.670909 
L 307.7419 347.487273 
L 307.308398 345.081818 
L 304.865028 338.018182 
L 304.234481 333.627273 
L 304.195072 329.045455 
L 304.195072 325.761818 
L 304.352709 323.241818 
L 305.298529 320.072727 
L 305.732031 317.743636 
L 305.889667 314.88 
L 307.466035 309.954545 
L 308.884766 306.48 
L 310.027633 304.494545 
L 312.983323 302.7 
L 316.490741 300.6 
L 317.51538 300.294545 
L 318.421792 299.798182 
L 318.54002 298.996364 
L 317.712426 296.781818 
L 314.007962 288.343636 
L 313.850325 286.434545 
L 314.047371 285.670909 
L 315.07201 284.258182 
L 316.56956 283.456364 
L 318.697656 283.341818 
L 321.732164 283.532727 
L 323.150896 283.914545 
L 324.372581 284.792727 
L 326.540086 287.58 
L 328.155863 290.367273 
L 329.495776 291.245455 
L 330.678052 291.054545 
L 331.505645 289.641818 
L 332.806149 286.243636 
L 335.013064 281.28 
L 336.628841 279.141818 
L 338.914574 277.347273 
L 340.845625 275.934545 
L 342.973721 274.827273 
L 344.98359 274.941818 
L 347.93928 275.323636 
L 351.8802 276.889091 
L 355.860529 278.874545 
L 359.013264 280.058182 
L 360.116722 279.943636 
L 360.944315 279.256364 
L 361.220179 278.225455 
L 361.968954 275.361818 
L 362.166 270.78 
L 361.929545 268.985455 
L 359.880267 266.007273 
L 356.254621 263.830909 
L 354.599434 262.838182 
L 354.008296 262.036364 
L 354.402388 260.241818 
L 357.830989 259.821818 
L 363.308867 259.783636 
L 373.239984 258.752727 
L 380.136594 257.110909 
L 387.584932 253.903636 
L 390.61944 251.88 
L 392.826355 248.481818 
L 395.466771 243.9 
L 397.47664 240.692727 
L 398.225415 238.745455 
L 400.708194 237.523636 
L 406.107254 237.027273 
L 409.969356 235.270909 
L 413.910275 230.956364 
L 415.801917 228.130909 
L 415.407825 226.450909 
L 412.727999 223.281818 
L 412.412726 221.869091 
L 413.476774 219.196364 
L 417.063011 216.18 
L 418.59997 215.645455 
L 420.215747 215.683636 
L 421.831524 217.096364 
L 424.511349 218.738182 
L 427.545857 219.501818 
L 431.526186 218.165455 
L 435.506515 216.103636 
L 436.412927 214.041818 
L 437.358747 210.490909 
L 437.161701 206.749091 
L 436.373517 204.152727 
L 434.481876 201.9 
L 432.353779 199.189091 
L 432.944917 195.867273 
L 435.585334 192.927273 
L 442.087851 188.803636 
L 446.816955 184.412727 
L 450.363782 180.021818 
L 451.900741 175.478182 
L 452.058378 175.096364 
L 451.900741 172.08 
L 450.836693 170.018182 
L 447.959821 164.901818 
L 444.334175 156.96 
L 443.427764 152.187273 
L 443.5854 149.209091 
L 445.004132 145.314545 
L 446.777545 142.985455 
L 456.708663 134.509091 
L 462.856498 129.010909 
L 470.383654 124.123636 
L 471.881204 122.52 
L 472.590569 121.069091 
L 472.748206 119.694545 
L 472.708797 118.281818 
L 472.275296 115.532727 
L 472.275296 114.196364 
L 472.787615 112.478182 
L 473.772845 111.294545 
L 475.112758 110.607273 
L 475.900942 110.607273 
L 477.319673 110.874545 
L 479.053677 111.332727 
L 481.418229 112.096364 
L 484.886239 112.401818 
L 487.920747 112.172727 
L 489.851797 111.676364 
L 492.571032 109.690909 
L 495.999632 107.209091 
L 497.221317 105.910909 
L 506.246023 94.8 
L 507.940619 92.203636 
L 508.216483 91.630909 
L 512.354449 90.218182 
L 524.374254 86.858182 
L 530.837362 85.292727 
L 534.699463 84.490909 
L 545.261128 82.2 
L 551.369553 80.901818 
L 551.881873 80.749091 
L 554.285834 80.252727 
L 618.128732 66.736364 
L 625.852935 65.705455 
L 633.183045 64.063636 
L 712.789623 46.003636 
L 713.065487 46.5 
L 714.917719 48.6 
L 716.966997 49.210909 
L 719.489186 49.707273 
L 722.366057 49.707273 
L 723.666561 48.867273 
L 723.666561 47.721818 
L 723.70597 44.667273 
L 723.784789 41.383636 
L 724.17888 40.085455 
L 724.927655 38.978182 
L 727.173979 37.183636 
L 728.474483 36.114545 
L 730.050851 34.434545 
L 731.469582 32.029091 
L 732.178947 28.478182 
L 732.573039 22.98 
L 733.006541 17.596364 
L 733.834134 12.518182 
L 734.425272 11.678182 
L 734.543499 11.258182 
L 735.134637 10.8 
L 738.129736 10.8 
L 739.706104 11.945455 
L 740.691334 13.625455 
L 742.701203 18.665455 
L 743.292341 24.049091 
L 743.213522 27.141818 
L 743.213522 30.692727 
L 743.213522 31.838182 
L 742.070656 33.250909 
L 739.784922 34.243636 
L 737.775053 35.389091 
L 737.065688 36.381818 
L 737.223325 37.527273 
L 738.799692 39.474545 
L 743.449978 42.147273 
L 745.341619 42.910909 
L 747.036215 43.56 
L 749.558403 43.98 
L 751.410635 44.4 
L 752.711139 44.514545 
L 753.420504 45.354545 
L 754.287507 46.767273 
L 754.445143 47.301818 
L 754.996872 49.058182 
L 755.312146 50.890909 
L 755.154509 54.250909 
L 754.326916 60.894545 
L 753.341686 65.858182 
L 752.277638 67.92 
L 750.819497 69.256364 
L 749.597812 70.44 
L 745.617483 72.654545 
L 744.080525 73.418182 
L 743.33175 74.372727 
L 743.489387 75.212727 
L 745.223391 76.32 
L 747.312079 77.312727 
L 749.676631 77.732727 
L 751.844137 77.007273 
L 752.514093 76.014545 
L 753.538732 75.212727 
L 756.691468 72.310909 
L 760.120068 68.912727 
L 762.799893 66.812727 
L 763.863941 66.392727 
L 767.213723 65.629091 
L 768.474817 65.629091 
L 780.061121 64.598182 
L 781.401034 64.483636 
L 784.277905 63.796364 
L 785.617818 64.101818 
L 786.406002 64.636364 
L 786.839503 66.889091 
L 787.154777 69.981818 
L 788.573508 74.525455 
L 790.89865 77.045455 
L 794.484887 80.138182 
L 796.179483 81.321818 
L 796.770621 81.321818 
L 797.519395 81.169091 
L 798.465216 80.367273 
L 799.332218 79.298182 
L 801.184451 77.007273 
L 803.036683 75.174545 
L 804.849506 73.990909 
L 806.977603 73.761818 
L 808.002242 74.601818 
L 808.317515 75.365455 
L 808.790426 76.358182 
L 809.06629 77.274545 
L 809.460382 78.152727 
L 810.406203 79.336364 
L 812.613118 80.558182 
L 816.396401 82.62 
L 820.061456 84.72 
L 822.898918 86.934545 
L 824.987605 88.194545 
L 827.509794 90.103636 
L 828.731479 91.172727 
L 829.637891 92.661818 
L 830.229029 94.8 
L 830.977803 99.84 
L 831.332486 100.603636 
L 832.041852 101.443636 
L 832.987672 101.863636 
L 834.130539 101.863636 
L 836.376863 102.703636 
L 837.716776 103.390909 
L 839.135507 104.46 
L 840.436011 106.101818 
L 841.775923 107.781818 
L 843.234063 109.614545 
L 844.298112 111.103636 
L 845.756252 112.210909 
L 847.056756 112.974545 
L 846.662664 113.547273 
L 845.756252 114.158182 
L 842.170015 116.296364 
L 838.859643 119.312727 
L 836.731546 121.870909 
L 828.061523 131.454545 
L 825.578743 135.998182 
L 825.145242 138.250909 
L 824.869378 139.969091 
L 824.475286 142.221818 
L 822.898918 144.207273 
L 820.613185 145.467273 
L 818.012178 146.345455 
L 812.888982 148.445455 
L 809.026881 151.156364 
L 806.898784 152.989091 
L 806.189419 154.401818 
L 805.480053 157.227273 
L 805.913554 162.038182 
L 806.071191 164.290909 
L 807.09583 167.46 
L 809.696837 165.818182 
L 813.401302 162.687273 
L 815.608217 161.312727 
L 817.815132 161.312727 
L 820.022047 162.152727 
L 822.031916 163.718182 
L 822.268371 164.978182 
L 822.268371 165.818182 
L 821.440778 167.421818 
L 820.455548 168.949091 
L 820.061456 170.705455 
L 820.179683 173.149091 
L 820.84964 173.683636 
L 823.923557 173.569091 
L 828.613252 172.996364 
L 830.623121 172.347273 
L 832.041852 171.087273 
L 832.160079 169.598182 
L 831.884215 167.841818 
L 831.568941 164.558182 
L 832.199488 163.069091 
L 833.421174 162.152727 
L 835.273406 161.694545 
L 846.899119 158.525455 
L 851.076494 156.730909 
L 855.805597 160.396364 
L 860.416473 162.687273 
L 862.741616 164.252727 
L 865.066758 167.650909 
L 865.066758 170.4 
L 862.54457 179.716364 
L 863.01748 186.321818 
L 863.056889 190.178182 
L 865.145577 194.263636 
L 876.25897 204.687273 
L 879.72698 207.627273 
L 884.1014 208.314545 
L 889.894552 211.941818 
L 891.746785 215.798182 
L 893.835472 221.22 
L 896.39707 224.427273 
L 908.889785 234.392727 
L 911.687838 237.790909 
L 913.54007 236.416364 
L 916.535169 233.438182 
L 917.678036 231.414545 
L 920.239634 226.641818 
" clip-path="url(#pf52dd6ef34)"/>
   </g>
  </g>
 </g>
 <defs>
  <clipPath id="pf52dd6ef34">
   <rect x="127.366007" y="10.8" width="825.267987" height="1058.4"/>
  </clipPath>
 </defs>
</svg>
