<?xml version="1.0" encoding="utf-8" standalone="no"?>
<!DOCTYPE svg PUBLIC "-//W3C//DTD SVG 1.1//EN"
  "http://www.w3.org/Graphics/SVG/1.1/DTD/svg11.dtd">
<svg xmlns:xlink="http://www.w3.org/1999/xlink" width="1080pt" height="1080pt" viewBox="0 0 1080 1080" xmlns="http://www.w3.org/2000/svg" version="1.1">
 <metadata>
  <rdf:RDF xmlns:dc="http://purl.org/dc/elements/1.1/" xmlns:cc="http://creativecommons.org/ns#" xmlns:rdf="http://www.w3.org/1999/02/22-rdf-syntax-ns#">
   <cc:Work>
    <dc:type rdf:resource="http://purl.org/dc/dcmitype/StillImage"/>
    <dc:date>2022-07-01T13:43:20.498002</dc:date>
    <dc:format>image/svg+xml</dc:format>
    <dc:creator>
     <cc:Agent>
      <dc:title>Matplotlib v3.5.1, https://matplotlib.org/</dc:title>
     </cc:Agent>
    </dc:creator>
   </cc:Work>
  </rdf:RDF>
 </metadata>
 <defs>
  <style type="text/css">*{stroke-linejoin: round; stroke-linecap: butt}</style>
 </defs>
 <g id="figure_1">
  <g id="patch_1">
   <path d="M 0 1080 
L 1080 1080 
L 1080 0 
L 0 0 
L 0 1080 
z
" style="fill: none; opacity: 0"/>
  </g>
  <g id="axes_1">
   <g id="PatchCollection_1">
    <path d="M 456.24443 36.782452 
L 474.669166 66.614156 
L 476.754985 69.693558 
L 477.201946 72.00311 
L 476.953634 74.890049 
L 498.258787 81.722471 
L 530.042697 97.552521 
L 561.87627 113.430686 
L 575.086457 141.915152 
L 582.635136 157.023467 
L 584.770617 161.257644 
L 591.921997 175.596109 
L 598.775403 189.212838 
L 583.082097 190.463845 
L 582.138512 190.511961 
L 577.619238 190.896886 
L 643.223215 251.570723 
L 670.785825 277.216366 
L 697.802149 302.332736 
L 698.497422 302.95824 
L 717.369118 320.520453 
L 721.342107 324.225358 
L 735.247568 337.168468 
L 738.823258 340.488448 
L 744.236455 345.540592 
L 751.586484 352.373015 
L 767.776414 367.481329 
L 768.024725 367.721908 
L 778.304834 377.345038 
L 791.366035 389.614529 
L 793.004893 391.15423 
L 808.648536 405.829504 
L 810.933004 407.272974 
L 813.664434 407.75413 
L 837.055406 412.132654 
L 843.312863 413.528008 
L 863.326794 424.35403 
L 870.527836 428.588207 
L 877.728878 432.918616 
L 878.473814 433.399773 
L 881.155581 436.8641 
L 883.042751 439.366114 
L 885.029245 441.916243 
L 886.966077 444.466373 
L 890.839742 449.566632 
L 892.27995 451.491258 
L 901.417824 463.712634 
L 903.354656 466.358994 
L 907.22832 471.796063 
L 909.165152 474.538655 
L 911.052322 477.1369 
L 912.939492 479.735146 
L 914.826661 482.333391 
L 916.763493 484.979752 
L 918.700325 487.626113 
L 920.68682 490.272474 
L 922.673314 492.918834 
L 924.610146 495.51708 
L 926.497316 498.16344 
L 928.434148 500.761686 
L 931.314565 504.418475 
L 972.782635 558.211774 
L 973.92487 559.318434 
L 1014.201043 561.964795 
L 1015.243953 562.061027 
L 1015.144628 594.683439 
L 1014.002394 614.507087 
L 1013.70442 614.892013 
L 1009.582444 619.078074 
L 961.558942 669.599509 
L 952.619717 679.030177 
L 910.456374 723.633386 
L 910.307387 724.066427 
L 891.43569 776.704951 
L 880.609295 772.133964 
L 856.125752 770.979188 
L 855.132505 770.931072 
L 855.331154 774.876556 
L 855.976765 781.660863 
L 856.572713 788.252707 
L 856.870687 791.187762 
L 858.757857 804.082757 
L 859.353805 815.149357 
L 856.572713 831.460563 
L 859.403468 832.230413 
L 869.782901 835.069237 
L 872.166694 836.705169 
L 872.514331 837.234441 
L 863.426119 842.430931 
L 862.532196 843.489476 
L 862.333547 845.269755 
L 862.730846 846.905687 
L 865.611263 849.070891 
L 869.037966 851.043633 
L 874.60015 851.284211 
L 878.82145 853.208838 
L 880.063009 854.84477 
L 883.489712 862.350811 
L 886.668103 862.447043 
L 906.185411 864.516016 
L 917.806403 866.68122 
L 928.285161 870.482357 
L 933.499709 873.369296 
L 943.531505 881.019685 
L 953.662627 890.354121 
L 952.371405 891.557012 
L 948.448079 895.550611 
L 947.007871 897.138428 
L 946.213273 897.956394 
L 945.716649 898.389435 
L 944.574415 899.496095 
L 942.985219 900.698986 
L 941.396024 902.046224 
L 939.757166 903.104769 
L 938.416282 903.682157 
L 938.018983 903.826504 
L 937.621685 903.970851 
L 937.125061 904.067082 
L 933.400384 904.692585 
L 932.25815 904.836932 
L 942.240284 917.828158 
L 949.342001 930.434459 
L 963.744086 929.905187 
L 963.595099 942.944529 
L 963.644761 943.37757 
L 963.893073 943.762495 
L 965.333281 944.724808 
L 970.498167 948.189135 
L 975.563727 951.653462 
L 976.556975 952.712006 
L 977.152923 953.33751 
L 978.14617 955.502714 
L 979.83469 959.97747 
L 980.281652 961.132245 
L 982.218484 965.847579 
L 983.956666 968.734518 
L 985.347212 969.93741 
L 986.042485 972.246961 
L 983.708355 979.127499 
L 978.096508 995.534937 
L 960.267721 996.49725 
L 955.400809 1003.762713 
L 947.554157 999.672883 
L 943.879142 999.624767 
L 931.364227 999.432304 
L 932.009838 1008.285584 
L 923.41825 1025.318525 
L 928.732122 1028.542274 
L 924.163185 1043.650589 
L 921.630405 1043.891167 
L 918.749988 1044.227977 
L 915.521934 1042.832623 
L 900.027278 1036.288894 
L 899.034031 1039.945684 
L 896.650238 1049.135773 
L 893.918808 1049.087657 
L 890.243793 1049.135773 
L 883.688362 1049.28012 
L 880.162334 1049.328236 
L 874.997449 1049.713161 
L 874.60015 1049.857508 
L 874.153189 1049.905623 
L 873.159941 1049.905623 
L 870.329187 1050.290549 
L 869.782901 1050.290549 
L 868.29303 1050.338664 
L 867.250121 1050.434896 
L 864.022067 1050.290549 
L 858.261233 1049.713161 
L 855.579466 1048.750848 
L 852.649387 1047.692303 
L 846.143618 1045.382752 
L 842.518265 1044.08363 
L 838.843251 1042.832623 
L 836.856756 1042.207119 
L 834.274314 1039.031486 
L 833.479716 1038.021057 
L 812.273888 1010.498904 
L 810.883342 1008.718625 
L 806.115756 1002.656053 
L 804.675547 1000.731427 
L 803.930612 999.720998 
L 803.533313 999.191726 
L 790.720424 1013.145265 
L 783.867018 1007.900659 
L 783.370395 1007.275156 
L 781.334238 1004.869373 
L 779.844367 1002.752284 
L 777.659223 999.624767 
L 776.417664 998.03695 
L 775.523742 996.737828 
L 773.189611 993.706542 
L 772.891637 993.225385 
L 770.557506 990.386562 
L 769.762908 989.568596 
L 769.564259 989.328017 
L 769.017973 990.049752 
L 758.141916 985.623112 
L 749.500665 982.206901 
L 747.265859 981.148357 
L 744.13713 979.704887 
L 741.455363 983.361677 
L 740.56144 984.516452 
L 737.730686 988.798745 
L 728.543149 1002.223012 
L 728.195513 1002.704169 
L 725.215771 1006.842115 
L 723.278939 1009.632823 
L 716.077897 1020.025804 
L 711.260648 1027.050689 
L 710.515713 1028.494158 
L 706.940023 1034.075574 
L 704.655554 1037.203091 
L 700.434254 1043.554357 
L 699.341682 1045.286521 
L 696.411603 1049.424467 
L 689.21056 1059.817448 
L 690.998405 1063.859163 
L 687.224066 1069.2 
L 663.435796 1054.091685 
L 661.101665 1052.167059 
L 657.476312 1047.644188 
L 654.099272 1043.361895 
L 648.090126 1035.952084 
L 644.613761 1031.621676 
L 636.022173 1023.442015 
L 619.13697 1007.948775 
L 614.319722 1002.511706 
L 611.439305 996.064209 
L 607.466316 979.368077 
L 604.834211 971.910151 
L 604.238263 970.466682 
L 599.917637 960.651089 
L 595.001064 952.904469 
L 591.673685 948.670291 
L 588.346307 944.339883 
L 582.883448 937.50746 
L 568.233052 922.495377 
L 558.499229 913.16094 
L 555.718137 910.466464 
L 541.961663 898.196972 
L 530.092359 886.889794 
L 528.304514 885.109515 
L 519.265965 877.844051 
L 510.873026 871.011629 
L 498.109799 862.59139 
L 486.786781 855.999545 
L 482.217844 854.171151 
L 477.400595 852.390871 
L 474.271867 850.41813 
L 452.271441 828.188698 
L 450.334609 826.119725 
L 441.345722 816.448479 
L 445.51736 811.011411 
L 445.815334 809.47171 
L 445.120061 806.777233 
L 444.722763 806.392308 
L 444.921412 803.553485 
L 446.013984 801.628858 
L 449.043388 798.549457 
L 456.492742 791.572687 
L 458.429574 790.754721 
L 468.858669 785.269537 
L 477.201946 780.842897 
L 483.310416 780.121162 
L 482.863455 778.052189 
L 482.515818 775.646406 
L 482.615143 774.05859 
L 482.913117 772.133964 
L 483.956027 770.73861 
L 485.346573 769.968759 
L 488.723613 768.573405 
L 491.703355 766.648779 
L 493.292551 763.858072 
L 493.242888 761.981561 
L 493.242888 759.431432 
L 490.660445 749.519607 
L 489.021588 740.570096 
L 487.482054 735.517952 
L 487.233743 733.930136 
L 487.680704 733.208401 
L 488.425639 732.679129 
L 492.398628 733.593326 
L 493.292551 733.593326 
L 494.434785 733.160285 
L 495.874993 730.56204 
L 496.371617 727.386407 
L 496.669591 724.932509 
L 497.06689 723.681502 
L 499.003722 721.420066 
L 503.324347 718.436896 
L 506.651725 716.897195 
L 509.730792 717.089658 
L 513.157494 717.474583 
L 515.193651 717.137773 
L 519.16664 715.40561 
L 521.600096 713.865909 
L 522.643005 712.278092 
L 522.940979 711.219548 
L 522.494018 710.064772 
L 520.457861 709.776079 
L 517.130483 709.198691 
L 515.739937 708.573187 
L 515.094327 708.236378 
L 515.640612 706.744792 
L 518.372042 703.665391 
L 519.414952 701.01903 
L 521.749083 695.630077 
L 523.139629 692.454444 
L 524.828149 690.193008 
L 534.661296 694.571532 
L 539.726857 696.303696 
L 544.345456 696.929199 
L 544.991067 697.025431 
L 547.126549 696.736737 
L 549.411017 696.399927 
L 550.10629 696.25558 
L 549.113043 687.931572 
L 548.666082 684.804055 
L 549.609667 681.965232 
L 552.490084 677.731054 
L 552.490084 674.747884 
L 551.000213 665.750257 
L 549.510342 649.679629 
L 548.616419 642.317934 
L 546.679587 636.640287 
L 545.140054 632.0693 
L 537.442388 613.9297 
L 532.42649 602.911215 
L 529.993034 597.474146 
L 529.744723 596.944874 
L 528.652151 595.11648 
L 525.175786 589.102023 
L 524.579837 588.187826 
L 521.798745 584.001764 
L 518.719679 579.334546 
L 513.256819 573.175742 
L 503.274685 564.947966 
L 500.841229 562.927108 
L 494.33546 558.115543 
L 490.511458 556.335264 
L 474.321529 548.925453 
L 471.888073 548.348066 
L 469.752592 551.042542 
L 466.276227 550.128345 
L 457.783963 549.647188 
L 448.348115 552.630359 
L 441.246397 554.891794 
L 436.826447 560.906251 
L 433.648056 563.600727 
L 432.25751 563.841306 
L 431.810549 563.889421 
L 417.656776 557.393808 
L 413.336151 555.469182 
L 399.877652 548.203719 
L 389.994842 541.900568 
L 388.05801 541.32318 
L 381.800553 541.275065 
L 371.967405 542.622303 
L 359.849789 544.258235 
L 355.578827 544.546929 
L 351.953474 544.113888 
L 349.073057 543.199691 
L 346.19264 541.852453 
L 343.461211 539.879711 
L 342.021002 538.484357 
L 332.535492 529.390499 
L 329.3571 526.070519 
L 325.433774 523.039233 
L 321.510448 520.63345 
L 316.643536 518.708824 
L 312.52156 517.794627 
L 299.956983 516.880429 
L 297.076567 515.966232 
L 293.600201 513.849143 
L 290.719784 510.096122 
L 290.074174 508.845115 
L 286.647471 501.964577 
L 278.751156 484.258017 
L 278.304195 483.295704 
L 271.05349 467.610001 
L 268.272398 461.595545 
L 266.63354 458.131218 
L 266.136916 456.639633 
L 262.263252 446.246652 
L 258.6379 432.870501 
L 256.850055 419.542465 
L 254.863561 403.616184 
L 254.118625 391.731618 
L 254.764236 387.256862 
L 255.956133 382.445297 
L 261.468655 368.780452 
L 262.312915 365.219894 
L 262.362577 364.883084 
L 263.05785 362.188608 
L 264.796033 354.826913 
L 265.739617 351.073892 
L 269.662944 335.628768 
L 269.215983 334.281529 
L 268.570372 331.635168 
L 267.030839 328.507651 
L 263.703461 328.796345 
L 258.836549 326.053753 
L 251.238208 324.225358 
L 244.484127 324.562168 
L 231.27394 327.256644 
L 217.81544 331.057781 
L 206.045461 333.126754 
L 193.878183 333.367332 
L 182.604827 329.277501 
L 177.241292 325.716943 
L 174.956824 322.974351 
L 174.907161 319.076983 
L 175.155473 315.997581 
L 178.482851 312.052098 
L 187.372414 305.797063 
L 203.314031 296.414511 
L 208.031955 292.180334 
L 209.670813 287.416884 
L 209.323177 283.230822 
L 207.882968 280.48823 
L 205.300525 278.27491 
L 203.065719 276.638978 
L 197.106236 275.869128 
L 189.209921 275.147393 
L 176.546019 275.051162 
L 170.636198 274.281311 
L 166.414898 272.934073 
L 162.292922 270.576406 
L 162.04461 270.432059 
L 157.028712 266.10165 
L 154.744243 263.359058 
L 153.254372 256.959676 
L 152.608762 250.560295 
L 155.489178 240.64847 
L 156.432763 238.338919 
L 156.383101 235.403864 
L 155.489178 232.661272 
L 153.055723 228.234632 
L 150.026319 225.49204 
L 148.933747 225.107115 
L 148.437123 224.962768 
L 145.457382 224.000455 
L 137.412079 224.000455 
L 132.594831 223.952339 
L 127.082309 223.471182 
L 121.520124 221.979597 
L 118.242409 219.718162 
L 113.027861 210.816766 
L 108.657573 203.503187 
L 106.671079 198.258581 
L 105.181208 189.790226 
L 103.989311 187.576906 
L 103.145051 186.037205 
L 92.81528 176.799 
L 83.230445 171.554394 
L 76.923325 169.82223 
L 75.731428 168.956149 
L 74.142233 167.801373 
L 69.126335 160.824603 
L 66.841866 156.061154 
L 66.345242 151.586398 
L 65.898281 139.124444 
L 65.848619 138.114016 
L 66.841866 125.700177 
L 67.388152 119.397027 
L 67.13984 109.196509 
L 65.351995 92.740956 
L 64.855372 88.795472 
L 64.756047 88.169969 
L 78.611845 88.025622 
L 86.607485 92.981534 
L 104.485935 102.941474 
L 124.201892 109.148393 
L 141.534055 108.907815 
L 158.319933 105.924644 
L 161.498324 109.773896 
L 162.094272 110.255053 
L 166.514222 113.38257 
L 171.381134 116.510088 
L 173.963576 117.857326 
L 183.647737 119.300796 
L 189.160258 121.273537 
L 196.857924 126.181334 
L 217.269154 136.429968 
L 221.142818 138.402709 
L 221.440792 138.547056 
L 245.030413 150.864663 
L 250.592598 153.992181 
L 251.983144 155.339419 
L 252.579092 157.360276 
L 265.838942 137.825322 
L 266.037592 137.584743 
L 271.152815 130.463627 
L 279.744403 120.263109 
L 281.631573 119.637605 
L 282.972456 119.637605 
L 286.00186 120.166877 
L 288.484978 119.733836 
L 290.521135 118.771523 
L 291.117083 117.857326 
L 291.812356 114.441115 
L 291.762694 109.966359 
L 291.911681 107.319998 
L 293.600201 104.288712 
L 295.189397 101.882929 
L 296.927579 98.803528 
L 299.013399 98.611065 
L 301.397192 100.680038 
L 303.88031 101.594236 
L 305.817142 100.824385 
L 307.704312 97.167596 
L 309.343169 91.24937 
L 310.435741 86.293458 
L 311.230339 84.561295 
L 312.918859 81.578124 
L 313.663795 80.18277 
L 316.146913 78.065682 
L 318.82868 76.285403 
L 327.86723 72.580497 
L 333.578401 68.490667 
L 337.948689 66.084884 
L 344.355133 48.522671 
L 347.285212 43.903569 
L 362.680544 12.387817 
L 363.077843 11.90666 
L 363.624129 11.377388 
L 366.256234 10.944347 
L 369.831924 10.8 
L 372.116392 11.281157 
L 373.407614 12.868973 
L 375.741745 16.718225 
L 380.112032 22.155294 
L 384.730632 27.832941 
L 389.100919 31.152921 
L 395.706013 34.328554 
L 398.139469 34.521017 
L 399.976976 33.847397 
L 401.417185 33.125663 
L 402.261445 32.115234 
L 407.227681 26.581934 
L 411.101345 23.646879 
L 413.882437 22.492103 
L 416.911841 22.107178 
L 420.288881 22.059063 
L 423.218961 22.155294 
L 425.851066 22.97326 
L 428.135534 24.320498 
L 429.52608 25.427158 
L 431.661562 29.516989 
L 434.14468 34.232323 
L 435.386239 36.25318 
L 437.273409 37.840996 
L 441.892008 39.90997 
L 447.752166 41.401555 
L 451.327856 42.989371 
L 452.817727 43.66299 
L 455.549157 36.349411 
L 456.24443 36.782452 
" clip-path="url(#p991293a4ec)"/>
   </g>
  </g>
 </g>
 <defs>
  <clipPath id="p991293a4ec">
   <rect x="64.756047" y="10.8" width="950.487906" height="1058.4"/>
  </clipPath>
 </defs>
</svg>
