<?xml version="1.0" encoding="utf-8" standalone="no"?>
<!DOCTYPE svg PUBLIC "-//W3C//DTD SVG 1.1//EN"
  "http://www.w3.org/Graphics/SVG/1.1/DTD/svg11.dtd">
<svg xmlns:xlink="http://www.w3.org/1999/xlink" width="1080pt" height="1080pt" viewBox="0 0 1080 1080" xmlns="http://www.w3.org/2000/svg" version="1.1">
 <metadata>
  <rdf:RDF xmlns:dc="http://purl.org/dc/elements/1.1/" xmlns:cc="http://creativecommons.org/ns#" xmlns:rdf="http://www.w3.org/1999/02/22-rdf-syntax-ns#">
   <cc:Work>
    <dc:type rdf:resource="http://purl.org/dc/dcmitype/StillImage"/>
    <dc:date>2022-07-01T13:43:20.919047</dc:date>
    <dc:format>image/svg+xml</dc:format>
    <dc:creator>
     <cc:Agent>
      <dc:title>Matplotlib v3.5.1, https://matplotlib.org/</dc:title>
     </cc:Agent>
    </dc:creator>
   </cc:Work>
  </rdf:RDF>
 </metadata>
 <defs>
  <style type="text/css">*{stroke-linejoin: round; stroke-linecap: butt}</style>
 </defs>
 <g id="figure_1">
  <g id="patch_1">
   <path d="M 0 1080 
L 1080 1080 
L 1080 0 
L 0 0 
L 0 1080 
z
" style="fill: none; opacity: 0"/>
  </g>
  <g id="axes_1">
   <g id="PatchCollection_1">
    <path d="M 794.1717 19.654588 
L 795.366031 21.163893 
L 796.69018 21.69215 
L 799.182695 21.440599 
L 802.454122 21.314824 
L 804.271582 22.119786 
L 806.686206 24.509519 
L 808.555593 25.716963 
L 810.554799 27.754524 
L 812.164548 30.119102 
L 814.994592 31.628406 
L 818.837221 32.986781 
L 823.484724 34.621861 
L 826.392659 36.458182 
L 827.37928 38.445433 
L 827.301389 41.011251 
L 826.652296 43.853775 
L 826.366696 45.815872 
L 826.937897 47.450952 
L 828.937102 50.243166 
L 832.260457 54.519529 
L 833.428824 55.475422 
L 835.791521 56.20492 
L 837.401271 56.280385 
L 838.31 55.752128 
L 840.257278 53.18631 
L 842.282447 51.274524 
L 844.307616 50.218011 
L 847.319406 48.859636 
L 847.864644 53.488171 
L 848.877229 56.330695 
L 850.123487 58.393412 
L 851.499563 60.254888 
L 851.629381 61.386866 
L 850.824507 62.745241 
L 848.773374 65.71354 
L 848.851265 66.870674 
L 849.578249 68.430289 
L 852.408293 72.128086 
L 853.057385 73.914096 
L 852.616002 75.423401 
L 851.162035 77.335187 
L 850.045595 79.096043 
L 850.201378 81.158759 
L 851.136071 83.523337 
L 852.434256 84.806246 
L 854.251716 85.96338 
L 854.926772 87.095358 
L 855.420083 88.730439 
L 856.718268 92.503701 
L 856.925978 94.440642 
L 856.354776 96.780064 
L 855.316228 102.112941 
L 855.290264 106.46477 
L 855.575865 108.527487 
L 854.874845 110.112257 
L 852.95353 111.495786 
L 851.187998 112.426524 
L 848.695483 112.627765 
L 844.904782 112.049198 
L 842.72383 111.042995 
L 841.269863 109.106053 
L 840.542879 107.269733 
L 839.738004 106.615701 
L 837.920545 106.540235 
L 836.596396 107.672214 
L 835.350138 107.672214 
L 834.129844 106.615701 
L 832.597985 105.257326 
L 831.066126 104.603294 
L 830.339143 105.03093 
L 830.18336 106.011979 
L 831.403654 109.231829 
L 833.091295 110.741134 
L 835.038573 113.005091 
L 836.778142 116.652578 
L 837.141634 118.992 
L 836.258868 120.42584 
L 835.739593 121.985455 
L 835.895376 125.884492 
L 836.752178 127.595037 
L 837.842654 128.525775 
L 839.660113 129.607444 
L 840.542879 130.890353 
L 840.82848 134.034738 
L 841.581427 138.688428 
L 843.035395 142.184984 
L 844.099907 144.625027 
L 845.579838 149.052321 
L 846.021221 152.247016 
L 845.683693 154.309733 
L 846.125076 156.322139 
L 848.020426 159.064043 
L 849.785958 160.749433 
L 851.032216 161.982032 
L 851.084144 162.711529 
L 850.227341 164.774246 
L 847.34537 168.849369 
L 846.202967 170.987551 
L 845.969294 172.32077 
L 846.64435 174.509262 
L 847.734826 175.515465 
L 849.578249 176.546824 
L 850.980289 178.056128 
L 851.187998 178.307679 
L 853.187204 182.835594 
L 855.238337 188.218781 
L 857.029832 192.998246 
L 858.69151 197.651936 
L 859.470421 200.142289 
L 859.963731 203.035123 
L 864.455452 211.462075 
L 865.104545 213.323551 
L 866.117129 216.719487 
L 866.999895 219.109219 
L 867.908625 221.675037 
L 867.908625 223.611979 
L 867.129714 225.372834 
L 865.675746 229.749818 
L 865.545928 232.139551 
L 865.545928 234.403508 
L 866.065202 236.164364 
L 866.818149 237.799444 
L 868.609645 240.164021 
L 871.076197 241.572706 
L 872.2186 242.578909 
L 873.62064 244.968642 
L 873.880278 247.58477 
L 872.971548 254.225711 
L 873.153294 254.351487 
L 874.892862 255.760171 
L 875.074608 255.911102 
L 876.63243 257.495872 
L 878.268144 259.206417 
L 878.839345 259.835294 
L 879.073019 260.112 
L 879.748075 261.168513 
L 880.007712 263.029989 
L 879.903857 265.822203 
L 879.722111 268.513797 
L 879.722111 270.148877 
L 880.215422 272.035508 
L 880.968369 273.922139 
L 881.95499 275.934545 
L 882.65601 279.380791 
L 882.604083 280.336684 
L 882.240591 281.292578 
L 881.357825 282.399401 
L 879.929821 284.135102 
L 877.800797 286.625455 
L 877.229596 287.229176 
L 879.35862 289.040342 
L 879.748075 289.794995 
L 879.280728 290.549647 
L 878.501817 291.279144 
L 873.309076 297.039658 
L 872.711911 298.020706 
L 872.997512 298.926289 
L 873.932205 300.133733 
L 879.903857 309.617198 
L 880.76066 310.799487 
L 884.213833 319.075508 
L 885.615873 321.741947 
L 891.016324 331.854289 
L 894.858952 336.533134 
L 896.416774 338.319144 
L 897.403395 339.224727 
L 899.013145 340.054845 
L 900.648858 341.111358 
L 902.336499 342.847059 
L 903.401011 344.582759 
L 904.387632 346.620321 
L 905.088652 348.783658 
L 905.685817 351.726802 
L 905.997382 353.965604 
L 906.750329 357.512471 
L 907.503277 360.053134 
L 908.360079 362.16616 
L 909.658264 364.052791 
L 911.345905 366.065198 
L 912.877764 367.876364 
L 914.643296 369.762995 
L 916.201118 371.725091 
L 918.122433 373.083465 
L 920.355311 374.668235 
L 923.107464 375.951144 
L 926.041363 377.234053 
L 926.275036 377.309519 
L 928.430024 377.988706 
L 930.662903 380.328128 
L 931.493741 381.535572 
L 932.350543 383.623444 
L 932.714035 385.43461 
L 932.636144 387.899807 
L 932.480362 389.786439 
L 932.376507 391.597604 
L 931.831269 392.930824 
L 930.299411 394.213733 
L 929.676282 395.245091 
L 929.832064 396.452535 
L 930.818685 399.018353 
L 936.245099 410.58969 
L 936.790337 411.268877 
L 936.946119 412.098995 
L 936.790337 412.778182 
L 935.388297 414.413262 
L 933.51891 416.274738 
L 931.675487 417.859508 
L 929.286826 420.173775 
L 929.10508 421.68308 
L 930.195556 424.148278 
L 931.805306 426.789561 
L 932.402471 428.223401 
L 932.246689 429.933947 
L 931.701451 431.443251 
L 930.455193 433.380193 
L 925.651907 444.020791 
L 925.418234 444.473583 
L 925.236488 446.284749 
L 924.769141 449.655529 
L 924.613359 451.139679 
L 924.535468 452.87538 
L 924.483541 463.038032 
L 924.483541 467.062845 
L 925.002815 468.798545 
L 926.456782 470.735487 
L 929.001225 473.150374 
L 935.310406 476.999102 
L 937.361539 483.162096 
L 937.750994 484.671401 
L 938.270268 486.407102 
L 939.204962 488.570439 
L 939.646345 489.853348 
L 940.0358 491.211722 
L 940.632966 492.922267 
L 941.775369 495.035294 
L 943.540901 497.223786 
L 945.462215 499.110417 
L 947.902803 500.795807 
L 948.110513 500.921583 
L 949.668335 501.852321 
L 953.510964 503.764107 
L 955.639988 505.851979 
L 956.366972 507.73861 
L 956.341008 511.914353 
L 956.756427 515.788235 
L 957.171846 519.133861 
L 958.236358 522.479487 
L 958.547923 524.164877 
L 957.89883 525.095615 
L 957.431483 525.447786 
L 957.301665 525.548406 
L 957.379556 526.680385 
L 957.509375 527.133176 
L 957.769012 528.114225 
L 958.288286 530.227251 
L 959.50858 532.088727 
L 961.11833 534.503615 
L 962.650188 535.711059 
L 964.208011 536.767572 
L 968.985333 536.943658 
L 970.049845 536.868193 
L 971.425921 537.245519 
L 973.503018 538.528428 
L 975.346441 540.264128 
L 977.423537 542.754481 
L 978.955396 544.641112 
L 979.422742 546.276193 
L 979.240997 547.936428 
L 982.200859 564.161455 
L 983.317298 570.374759 
L 983.966391 579.254503 
L 983.576935 580.814118 
L 983.18748 582.700749 
L 982.642242 585.165947 
L 979.942017 589.215914 
L 978.617868 590.247273 
L 978.462085 591.001925 
L 979.059251 592.284834 
L 980.3834 593.718674 
L 981.603694 595.605305 
L 982.122968 597.768642 
L 982.512424 599.428877 
L 982.512424 600.686631 
L 982.200859 601.516749 
L 981.733512 602.271401 
L 980.798819 603.026053 
L 979.864125 603.680086 
L 977.942811 604.736599 
L 975.943606 605.692492 
L 973.788618 605.692492 
L 971.997123 606.145283 
L 972.905852 615.452663 
L 973.425126 617.76693 
L 973.710727 620.332749 
L 973.944401 622.647016 
L 974.230001 626.168727 
L 974.15211 629.187337 
L 974.35982 632.029861 
L 975.502223 636.909947 
L 976.488844 640.733519 
L 977.631247 642.997476 
L 978.77365 646.594652 
L 980.980565 650.669775 
L 983.135552 655.021604 
L 986.69258 667.72492 
L 991.495866 676.076406 
L 992.586341 677.711487 
L 993.650853 680.126374 
L 994.559583 683.497155 
L 995.000966 685.987508 
L 994.845184 688.528171 
L 994.611511 690.263872 
L 994.170128 691.471316 
L 993.988382 691.949262 
L 993.443144 692.955465 
L 992.586341 693.634652 
L 991.495866 694.31384 
L 990.041898 694.51508 
L 988.276366 694.741476 
L 986.666616 694.741476 
L 980.357436 694.112599 
L 978.436122 694.037134 
L 976.514807 693.408257 
L 974.879094 692.955465 
L 973.425126 691.29523 
L 971.919231 689.056428 
L 970.828756 687.547123 
L 969.920026 686.867936 
L 967.219801 686.415144 
L 964.519575 686.314524 
L 960.754838 686.239059 
L 956.912209 686.138439 
L 952.913799 685.962353 
L 951.693504 686.566075 
L 950.213573 687.320727 
L 941.022421 694.942717 
L 939.646345 696.502332 
L 938.711651 696.955123 
L 936.790337 696.653262 
L 934.038184 695.94892 
L 931.805306 695.194267 
L 929.260862 694.137754 
L 927.806895 693.760428 
L 926.950093 693.986824 
L 926.638528 694.741476 
L 923.055537 698.640513 
L 921.160186 700.728385 
L 920.537057 701.986139 
L 919.005199 704.375872 
L 918.148396 706.413433 
L 917.603158 708.199444 
L 917.343521 710.086075 
L 917.187739 712.249412 
L 916.954066 714.739765 
L 916.720392 716.676706 
L 916.097264 718.789733 
L 913.085474 721.25493 
L 904.829015 725.204278 
L 904.153959 725.933775 
L 897.221649 745.655358 
L 897.143758 746.25908 
L 897.792851 747.74323 
L 903.193302 758.736 
L 903.634685 759.993754 
L 904.335705 760.899337 
L 905.789672 761.352128 
L 907.321531 761.603679 
L 909.372664 762.056471 
L 918.849416 764.169497 
L 921.627533 764.722909 
L 924.535468 764.496513 
L 926.171181 764.068877 
L 935.076733 761.528214 
L 939.54249 760.119529 
L 942.943736 759.239102 
L 946.864255 758.509604 
L 951.018448 757.327316 
L 954.575476 755.767701 
L 956.574681 754.157775 
L 956.860282 755.843166 
L 956.730463 758.559914 
L 956.263117 761.176043 
L 954.88704 763.892791 
L 954.497585 765.854888 
L 954.757222 767.062332 
L 955.250532 767.942759 
L 957.119919 769.904856 
L 958.859487 771.866952 
L 961.092366 774.709476 
L 963.7147 778.507893 
L 964.156083 781.778053 
L 963.948374 783.337668 
L 964.519575 786.180193 
L 964.363793 788.192599 
L 964.208011 790.607487 
L 964.493612 793.29908 
L 965.090777 796.619551 
L 965.53216 799.763936 
L 965.895652 805.323209 
L 965.506196 807.335615 
L 965.038849 808.84492 
L 964.389757 810.756706 
L 964.363793 815.963807 
L 965.558123 822.579594 
L 965.713906 824.516535 
L 967.375583 830.377668 
L 968.284313 832.339765 
L 969.660389 834.276706 
L 971.659594 836.540663 
L 974.879094 839.559273 
L 983.291335 849.042738 
L 985.887705 852.061348 
L 988.484076 855.960385 
L 989.860152 860.161283 
L 991.989176 864.689198 
L 992.845979 866.299123 
L 993.962418 868.437305 
L 996.558788 871.908706 
L 998.246429 874.298439 
L 1003.932481 876.28569 
L 1005.152775 876.43662 
L 1006.373069 877.342203 
L 1007.593364 879.153369 
L 1008.657875 884.561711 
L 1007.853001 890.39769 
L 1007.697218 895.05138 
L 1007.35969 900.912513 
L 1006.736561 904.811551 
L 1005.46434 909.591016 
L 1003.283388 916.332578 
L 1002.374659 917.389091 
L 998.661849 919.929754 
L 995.753914 922.017626 
L 994.663438 923.501775 
L 994.507656 925.765733 
L 994.81922 929.463529 
L 994.845184 929.71508 
L 994.351873 929.941476 
L 993.131579 930.746439 
L 992.456523 931.29985 
L 992.300741 931.853262 
L 992.300741 932.658225 
L 992.794051 933.639273 
L 993.261398 934.343615 
L 993.598926 934.746096 
L 994.949039 936.179936 
L 995.961623 937.33707 
L 995.961623 938.469048 
L 995.234639 940.053818 
L 993.832599 942.418396 
L 990.041898 950.895658 
L 988.561967 954.995936 
L 987.80902 957.88877 
L 987.497455 958.769198 
L 986.822399 959.876021 
L 985.342467 960.203037 
L 984.407774 959.901176 
L 982.538387 958.391872 
L 981.395984 957.88877 
L 980.591109 957.88877 
L 978.384194 958.442182 
L 975.658005 959.297455 
L 971.244175 961.460791 
L 969.426716 962.718545 
L 968.12853 963.598973 
L 965.350414 966.189947 
L 961.248148 970.164449 
L 958.132504 972.579337 
L 957.093955 973.082439 
L 955.30246 973.58554 
L 953.095545 973.68616 
L 950.784775 973.308834 
L 949.460626 972.252321 
L 948.16244 970.491465 
L 947.435457 969.837433 
L 946.448836 969.837433 
L 945.228542 970.139294 
L 944.813122 970.944257 
L 944.735231 971.925305 
L 944.891013 973.837091 
L 944.709268 975.673412 
L 944.060175 976.80539 
L 942.34657 977.358802 
L 940.0358 977.434267 
L 937.43943 977.333647 
L 936.115281 977.585198 
L 935.62197 978.28954 
L 935.284442 979.97493 
L 935.362333 981.735786 
L 936.089317 983.672727 
L 939.282853 986.01215 
L 940.165619 986.968043 
L 940.321401 987.949091 
L 939.828091 989.307465 
L 938.945325 989.785412 
L 936.73841 990.187893 
L 933.72662 990.71615 
L 933.129455 992.778866 
L 931.961088 996.049027 
L 931.831269 999.067636 
L 931.182177 999.092791 
L 930.351338 1000.476321 
L 929.390681 1002.086246 
L 928.533879 1003.620706 
L 927.936713 1005.004235 
L 927.936713 1007.217882 
L 928.014605 1009.834011 
L 928.455988 1014.034909 
L 928.715625 1016.776813 
L 928.949298 1019.719957 
L 929.546463 1024.122096 
L 929.909955 1027.593497 
L 930.403266 1031.593155 
L 930.870612 1035.190332 
L 931.20814 1039.366075 
L 931.597596 1042.057668 
L 931.805306 1044.19585 
L 931.805306 1044.849882 
L 931.545669 1045.327829 
L 928.897371 1046.007016 
L 926.664492 1046.786824 
L 924.561432 1047.566631 
L 919.524473 1049.478417 
L 914.149986 1051.440513 
L 910.722776 1052.798888 
L 906.750329 1054.283037 
L 905.270398 1054.786139 
L 903.401011 1055.23893 
L 900.830604 1055.440171 
L 899.558383 1055.440171 
L 898.286161 1055.440171 
L 897.637069 1055.515636 
L 894.028113 1055.616257 
L 891.561561 1055.842652 
L 890.652832 1055.918118 
L 888.835372 1059.288898 
L 888.004534 1060.848513 
L 887.407368 1061.930182 
L 881.773244 1069.2 
L 879.047055 1068.244107 
L 871.829145 1066.357476 
L 863.416904 1065.577668 
L 851.343781 1062.936385 
L 840.854443 1059.94293 
L 829.248667 1051.063187 
L 826.003204 1048.572834 
L 823.718398 1047.21446 
L 821.096063 1047.189305 
L 817.720781 1047.642096 
L 815.280193 1048.245818 
L 812.813641 1049.579037 
L 810.502871 1051.214118 
L 808.347884 1053.176214 
L 807.127589 1053.45292 
L 804.375437 1052.547337 
L 800.532808 1050.736171 
L 794.846756 1048.623144 
L 790.406963 1046.510118 
L 785.058439 1044.849882 
L 780.748464 1044.698952 
L 778.437694 1045.000813 
L 774.90663 1044.673797 
L 771.531348 1043.919144 
L 770.622619 1043.013561 
L 770.388945 1041.831273 
L 770.181236 1040.623829 
L 770.181236 1037.781305 
L 770.804365 1034.913626 
L 771.739058 1031.46738 
L 773.270917 1028.473925 
L 774.517175 1025.480471 
L 774.517175 1023.367444 
L 773.141098 1019.921198 
L 770.856292 1016.324021 
L 769.324433 1014.663786 
L 766.857881 1012.550759 
L 758.757205 1002.488727 
L 753.097117 992.728556 
L 749.098706 990.91739 
L 744.50313 990.011807 
L 741.595195 989.559016 
L 739.440208 989.408086 
L 737.752567 988.351572 
L 735.545652 984.855016 
L 735.961071 981.383615 
L 736.09089 980.226481 
L 737.778531 977.836749 
L 740.400865 969.158246 
L 739.336353 964.353626 
L 737.804494 960.882225 
L 737.207329 959.398075 
L 734.429213 957.435979 
L 732.144406 955.473882 
L 727.237266 952.027636 
L 723.238855 949.612749 
L 722.693617 949.034182 
L 720.33092 946.594139 
L 717.267203 943.147893 
L 713.762103 937.739551 
L 711.451333 932.180278 
L 709.166527 926.168214 
L 707.556777 921.79123 
L 710.568567 918.646845 
L 711.581151 916.735059 
L 711.633079 916.483508 
L 711.814825 914.923893 
L 711.788861 914.320171 
L 711.685006 911.050011 
L 710.750313 908.559658 
L 709.530018 906.723337 
L 708.854962 906.169925 
L 707.011539 904.887016 
L 704.389205 903.02554 
L 703.662221 901.314995 
L 703.688185 899.629604 
L 695.094198 898.095144 
L 688.785017 896.887701 
L 686.941594 895.831187 
L 683.722095 892.963508 
L 680.81416 890.271914 
L 679.126519 887.857027 
L 678.373571 883.957989 
L 678.062007 879.908021 
L 677.776406 876.763636 
L 676.556112 868.965561 
L 676.556112 865.645091 
L 675.4916 863.557219 
L 673.18083 861.595123 
L 666.586049 852.438674 
L 661.367344 843.131294 
L 658.615191 842.980364 
L 655.239909 842.653348 
L 647.970071 840.515166 
L 647.554652 840.414545 
L 641.557036 838.75431 
L 636.338331 837.546866 
L 629.561804 835.282909 
L 626.498087 834.528257 
L 622.81124 833.471743 
L 620.500471 830.453134 
L 617.852172 827.736385 
L 617.125189 827.006888 
L 612.062266 823.686417 
L 607.752291 821.447615 
L 603.624062 821.296684 
L 597.470663 821.42246 
L 588.097765 821.42246 
L 581.009674 822.001027 
L 571.480994 819.007572 
L 569.975099 818.705711 
L 566.106506 817.951059 
L 560.732019 816.592684 
L 556.11048 815.23431 
L 551.203339 813.976556 
L 550.917738 813.976556 
L 550.735992 812.970353 
L 549.749372 809.825968 
L 544.504703 805.046503 
L 539.753345 802.455529 
L 528.433169 798.078545 
L 516.256191 795.537882 
L 513.633857 795.286332 
L 511.271159 794.758075 
L 505.611071 794.758075 
L 499.691346 796.820791 
L 487.436477 800.820449 
L 481.127297 801.197775 
L 480.45224 800.946225 
L 479.803148 799.53754 
L 479.024236 797.474824 
L 477.959724 796.040984 
L 474.662334 794.632299 
L 471.650544 794.104043 
L 469.391701 794.104043 
L 467.963698 794.758075 
L 465.003835 798.682267 
L 463.420049 801.902118 
L 461.836263 802.807701 
L 456.565631 804.744642 
L 451.970055 806.933134 
L 450.178559 808.79461 
L 447.478334 811.586824 
L 442.493302 814.152642 
L 440.52006 815.058225 
L 438.936274 815.309775 
L 435.11961 813.121283 
L 432.886731 811.184342 
L 431.043308 808.99585 
L 427.745917 807.712941 
L 422.86474 807.31046 
L 421.021317 808.090267 
L 420.502043 809.775658 
L 421.021317 811.838374 
L 421.151136 813.121283 
L 420.76168 814.152642 
L 418.65862 814.806674 
L 415.85454 815.385241 
L 413.777443 815.838032 
L 409.960778 816.341134 
L 407.468263 816.089583 
L 405.780622 815.209155 
L 405.650803 815.108535 
L 402.872687 812.869733 
L 401.808175 812.341476 
L 400.639808 812.215701 
L 398.926203 812.995508 
L 397.472236 814.429348 
L 396.537542 816.341134 
L 396.537542 819.057882 
L 396.277905 820.089241 
L 395.758631 820.617497 
L 394.564301 820.340791 
L 393.136297 819.309433 
L 391.0592 819.309433 
L 386.385733 818.051679 
L 382.543105 816.064428 
L 380.543899 815.03307 
L 376.701271 812.190545 
L 370.39209 810.706396 
L 365.48495 811.461048 
L 357.799693 811.159187 
L 354.710012 809.04616 
L 352.399242 807.712941 
L 349.958654 807.41108 
L 348.556614 807.41108 
L 343.337909 808.618524 
L 334.276575 808.769455 
L 330.122382 805.474139 
L 325.500843 803.813904 
L 319.659009 805.62507 
L 315.193251 806.832513 
L 302.522963 808.618524 
L 302.730673 810.454845 
L 302.522963 812.894888 
L 302.315253 814.404193 
L 302.003689 815.23431 
L 301.38056 815.737412 
L 300.861286 815.838032 
L 299.718883 815.435551 
L 298.472625 814.932449 
L 297.226367 814.932449 
L 296.187819 815.536171 
L 293.25392 818.25292 
L 291.15086 819.686759 
L 287.074558 821.925561 
L 284.374332 823.434866 
L 282.141454 824.768086 
L 280.168212 825.874909 
L 278.506535 826.302545 
L 277.467987 826.000684 
L 277.052567 825.573048 
L 276.844858 824.768086 
L 276.844858 823.661262 
L 277.442023 821.925561 
L 277.234313 821.52308 
L 275.884201 821.42246 
L 272.976265 822.026182 
L 271.003024 822.730524 
L 269.886584 823.560642 
L 269.263456 824.969326 
L 268.640327 826.805647 
L 267.705633 827.434524 
L 265.732391 827.635765 
L 262.305182 827.032043 
L 254.827635 825.396963 
L 252.049518 824.64231 
L 249.972422 823.636107 
L 248.726164 822.202267 
L 247.99918 821.196064 
L 246.752922 820.391102 
L 245.298955 819.963465 
L 239.794649 819.98862 
L 238.67821 820.064086 
L 238.444536 820.089241 
L 234.290343 820.793583 
L 231.901683 822.126802 
L 226.423341 826.654717 
L 223.074022 828.843209 
L 209.520968 837.06892 
L 205.678339 839.282567 
L 203.36757 841.018267 
L 202.432876 841.92385 
L 202.718477 844.137497 
L 203.263715 849.822545 
L 202.978114 851.784642 
L 201.809747 852.413519 
L 200.875054 852.438674 
L 199.421086 851.784642 
L 197.8373 850.753283 
L 196.772788 850.225027 
L 195.059184 850.627508 
L 193.864853 851.407316 
L 190.178007 854.903872 
L 188.048983 856.840813 
L 182.388895 860.488299 
L 180.623363 861.318417 
L 179.48096 862.450396 
L 179.143432 863.934545 
L 174.547856 866.223658 
L 182.934133 846.778781 
L 190.697281 829.019294 
L 190.100116 820.667807 
L 189.113495 809.096471 
L 187.789346 795.185711 
L 187.529709 792.393497 
L 187.270072 788.796321 
L 185.530504 769.049583 
L 183.68708 749.302845 
L 182.103294 729.354866 
L 182.025403 727.719786 
L 181.506129 718.663957 
L 177.975065 710.840727 
L 169.926316 695.420663 
L 168.498312 691.898952 
L 159.670652 673.057797 
L 153.439363 660.882738 
L 151.621904 657.260406 
L 151.466121 656.908235 
L 150.946847 653.235594 
L 150.453537 643.701818 
L 150.012154 634.017112 
L 149.311134 627.451636 
L 145.338687 622.043294 
L 137.523611 611.981262 
L 135.654224 607.327572 
L 132.876108 597.944727 
L 127.086201 579.682139 
L 126.800601 579.028107 
L 126.047653 577.166631 
L 104.73145 562.677305 
L 100.083947 559.58323 
L 95.41048 556.162139 
L 86.634747 554.174888 
L 71.342125 543.810995 
L 71.73158 543.031187 
L 74.53566 538.377497 
L 76.768539 535.333733 
L 78.482144 530.805818 
L 78.482144 527.938139 
L 76.742575 525.749647 
L 74.847225 523.913326 
L 74.146205 522.05185 
L 75.340535 519.360257 
L 79.494728 516.165561 
L 82.921937 511.10939 
L 85.492344 506.229305 
L 85.492344 504.216898 
L 84.116268 501.852321 
L 82.246881 500.544257 
L 79.598583 498.682781 
L 75.470354 495.991187 
L 73.730785 493.475679 
L 74.405842 490.104898 
L 75.963664 487.237219 
L 79.754365 484.042524 
L 83.545066 480.998759 
L 84.739397 478.986353 
L 84.739397 474.785455 
L 85.388489 467.213775 
L 85.907764 462.33369 
L 85.024998 460.824385 
L 83.493139 459.994267 
L 80.014002 459.31508 
L 77.988833 458.912599 
L 77.26185 457.981861 
L 77.781124 455.642439 
L 79.312982 453.604877 
L 82.947901 450.913283 
L 83.622957 449.90708 
L 83.960486 447.718588 
L 83.622957 444.020791 
L 83.441212 441.832299 
L 83.596994 438.96462 
L 86.193364 435.59384 
L 91.022614 433.405348 
L 97.902996 430.688599 
L 101.537915 428.676193 
L 106.704692 425.783358 
L 109.976119 422.085561 
L 111.87147 420.073155 
L 113.611038 419.217882 
L 115.688134 419.217882 
L 117.401739 419.117262 
L 118.414324 419.117262 
L 119.141307 419.117262 
L 120.387565 418.966332 
L 121.296295 417.909818 
L 121.296295 415.947722 
L 118.803779 407.017668 
L 117.583485 401.005604 
L 117.505594 399.69754 
L 117.739267 398.817112 
L 118.076795 398.515251 
L 118.544142 398.339166 
L 121.452077 398.339166 
L 123.684956 398.490096 
L 125.450488 399.118973 
L 128.020895 400.351572 
L 130.435519 400.502503 
L 131.603886 399.974246 
L 132.512616 399.219594 
L 134.096402 393.610011 
L 134.953204 392.553497 
L 136.199462 391.396364 
L 136.822591 391.019037 
L 137.575539 390.842952 
L 138.873724 391.245433 
L 139.54878 391.72338 
L 141.314312 392.553497 
L 143.417372 393.282995 
L 149.181315 394.666524 
L 150.89492 394.94323 
L 154.89333 395.370866 
L 158.839814 394.591059 
L 161.488112 393.786096 
L 164.240265 392.830203 
L 168.680058 390.314695 
L 170.237881 388.402909 
L 170.523482 387.245775 
L 170.627336 385.962866 
L 170.367699 384.478717 
L 170.108062 379.498011 
L 170.367699 377.963551 
L 171.068719 376.831572 
L 172.133231 375.925989 
L 173.145816 375.473198 
L 174.755566 374.794011 
L 176.67688 373.787807 
L 177.325972 373.209241 
L 177.897174 372.379123 
L 178.390484 371.32261 
L 178.598194 369.98939 
L 178.546267 368.20338 
L 178.598194 367.499037 
L 178.702049 366.744385 
L 178.831867 366.241283 
L 178.98765 365.863957 
L 179.454996 365.562096 
L 180.519508 365.511786 
L 181.739803 366.040043 
L 183.739008 367.725433 
L 185.660322 369.612064 
L 186.984471 370.618267 
L 188.412475 371.498695 
L 189.502951 371.901176 
L 190.203971 372.001797 
L 191.606011 371.926332 
L 192.488777 371.750246 
L 193.371543 370.995594 
L 193.83889 370.366717 
L 194.82551 368.706481 
L 196.565079 366.920471 
L 197.8373 365.914267 
L 199.395123 365.13446 
L 199.550905 365.058995 
L 201.576074 363.6 
L 202.173239 363.021433 
L 203.497388 361.839144 
L 205.003283 359.197861 
L 207.262126 354.267465 
L 207.625617 351.928043 
L 207.002488 350.066567 
L 204.977319 347.374973 
L 202.095348 344.079658 
L 201.96553 342.570353 
L 202.199203 341.51384 
L 203.15986 340.683722 
L 204.35419 340.23093 
L 206.275505 340.105155 
L 207.236162 339.627209 
L 207.885254 337.816043 
L 208.716093 333.715765 
L 209.67675 328.307422 
L 211.104754 322.572064 
L 211.831738 318.698182 
L 212.169266 315.553797 
L 211.909629 313.138909 
L 211.805774 312.258481 
L 211.07879 308.761925 
L 210.118133 304.888043 
L 208.560311 300.91354 
L 208.118928 299.555166 
L 208.248746 298.272257 
L 208.793984 297.316364 
L 209.313258 296.410781 
L 209.702714 296.10892 
L 211.104754 295.002096 
L 212.532758 293.945583 
L 214.116544 292.88907 
L 214.531963 292.612364 
L 216.375386 290.725733 
L 217.465862 289.593754 
L 218.893866 287.455572 
L 219.101575 286.90216 
L 220.166087 284.587893 
L 220.81518 283.154053 
L 221.282527 281.669904 
L 221.386382 280.034824 
L 221.048853 277.192299 
L 220.944999 275.984856 
L 221.126745 275.003807 
L 222.113365 271.934888 
L 223.61926 269.092364 
L 224.813591 266.878717 
L 226.163704 264.413519 
L 227.695562 261.998631 
L 227.825381 261.822545 
L 228.500437 261.64646 
L 229.279348 261.772235 
L 230.240005 262.476578 
L 231.486263 263.407316 
L 232.550775 264.161968 
L 234.75769 265.268791 
L 236.107803 265.419722 
L 238.366645 264.91662 
L 240.339887 264.514139 
L 242.624693 264.338053 
L 246.571176 264.740535 
L 250.959043 265.419722 
L 251.815845 265.595807 
L 253.503486 266.199529 
L 255.450764 266.979337 
L 263.707222 270.576513 
L 269.237492 272.714695 
L 271.340552 273.419037 
L 273.261866 274.047914 
L 274.89758 274.32462 
L 275.728418 274.249155 
L 276.377511 273.796364 
L 276.689075 273.268107 
L 277.052567 272.312214 
L 277.130458 271.10477 
L 277.00064 270.123722 
L 276.818894 268.362866 
L 277.130458 267.079957 
L 277.727624 266.375615 
L 279.1037 265.369412 
L 281.518325 264.011037 
L 282.764583 263.608556 
L 283.491566 263.533091 
L 284.400296 263.608556 
L 285.231135 264.061348 
L 286.32161 264.841155 
L 286.970703 264.891465 
L 287.282267 264.76569 
L 287.515941 264.66507 
L 287.827505 264.237433 
L 288.113106 263.784642 
L 288.658344 262.300492 
L 289.852674 259.432813 
L 290.138275 259.181262 
L 290.579658 258.904556 
L 290.94315 258.854246 
L 292.137481 259.055487 
L 293.617412 259.382503 
L 295.279089 259.910759 
L 297.382149 260.866652 
L 298.939971 261.64646 
L 300.783395 262.803594 
L 303.379765 264.690225 
L 305.612644 266.602011 
L 306.49541 267.054802 
L 307.923414 267.230888 
L 309.688946 267.406973 
L 312.363207 266.702631 
L 313.453683 266.073754 
L 314.076812 265.218481 
L 314.596086 263.206075 
L 315.063433 261.218824 
L 315.426925 259.659209 
L 315.660598 258.980021 
L 316.5174 257.521027 
L 317.763658 255.986567 
L 319.03588 254.502417 
L 319.555154 254.150246 
L 320.100392 254.049626 
L 321.320686 254.175401 
L 324.124766 254.225711 
L 325.812407 253.621989 
L 326.902883 251.961754 
L 326.747101 247.006203 
L 326.487464 245.094417 
L 325.656625 239.208128 
L 325.34506 234.252578 
L 325.630661 231.93831 
L 326.565355 230.051679 
L 330.901294 227.636791 
L 334.458321 226.152642 
L 335.626688 225.976556 
L 338.612514 225.54892 
L 340.144373 225.221904 
L 356.060125 221.775658 
L 360.86341 222.53031 
L 365.173386 223.863529 
L 369.041978 226.429348 
L 372.131659 230.177455 
L 375.688686 233.019979 
L 379.375533 235.585797 
L 407.338444 256.89215 
L 407.961573 256.89215 
L 409.960778 256.590289 
L 412.42733 254.628193 
L 428.810429 246.377326 
L 433.431969 246.528257 
L 436.054303 247.282909 
L 440.078677 249.521711 
L 442.233665 249.06892 
L 443.609741 247.735701 
L 450.568015 236.164364 
L 452.125837 233.623701 
L 455.059736 229.875594 
L 456.591594 227.460706 
L 458.279235 225.951401 
L 459.99284 225.221904 
L 465.393291 227.913497 
L 468.32719 229.875594 
L 470.793742 231.661604 
L 472.792947 232.567187 
L 478.375144 219.813561 
L 486.553711 203.462759 
L 490.162666 198.783914 
L 490.344412 198.658139 
L 490.448267 198.507209 
L 491.045432 197.299765 
L 491.227178 194.884877 
L 490.759832 194.180535 
L 490.058811 193.601968 
L 488.812554 193.048556 
L 486.423893 191.992043 
L 485.229562 190.960684 
L 484.606433 190.206032 
L 484.476615 189.350759 
L 484.606433 188.772193 
L 484.892034 188.168471 
L 485.437272 187.791144 
L 487.488405 187.665369 
L 487.929788 187.640214 
L 493.875476 187.640214 
L 497.146903 187.338353 
L 499.483637 186.835251 
L 502.054044 185.527187 
L 504.13114 184.093348 
L 506.597692 181.502374 
L 507.091003 180.848342 
L 507.272749 179.892449 
L 507.091003 178.760471 
L 506.104382 177.452406 
L 505.688962 176.999615 
L 504.936015 176.144342 
L 504.546559 175.515465 
L 504.546559 174.785968 
L 506.545765 171.918289 
L 507.999732 169.327316 
L 508.493043 168.673283 
L 509.297918 168.245647 
L 510.102793 168.094717 
L 511.55676 168.773904 
L 513.997348 171.188791 
L 516.074445 172.295615 
L 517.528412 172.924492 
L 519.293944 173.125733 
L 521.137368 173.377283 
L 522.020134 173.503059 
L 522.747117 173.352128 
L 523.110609 173.050267 
L 524.460722 172.748406 
L 525.083851 172.42139 
L 525.577161 171.440342 
L 525.914689 170.63538 
L 526.459927 170.383829 
L 527.913895 170.207743 
L 531.02954 169.905882 
L 532.01616 170.006503 
L 532.22387 170.383829 
L 532.249834 171.012706 
L 531.548814 172.119529 
L 530.406411 172.874182 
L 529.056298 173.503059 
L 527.913895 174.00616 
L 527.576367 174.534417 
L 527.654258 175.163294 
L 528.147568 175.867636 
L 529.627499 177.477561 
L 534.145184 177.502717 
L 534.768313 177.02477 
L 535.962644 175.515465 
L 537.234865 172.823872 
L 539.182143 169.10092 
L 542.297788 166.736342 
L 545.621142 165.478588 
L 554.474766 164.39692 
L 558.992451 163.818353 
L 561.71864 162.636064 
L 565.249704 161.22738 
L 567.196982 160.296642 
L 568.105712 159.064043 
L 568.754804 156.800086 
L 570.027026 154.007872 
L 571.584848 152.548877 
L 575.16784 151.366588 
L 579.58167 149.857283 
L 583.29448 149.178096 
L 584.826338 149.178096 
L 586.280306 150.108834 
L 587.370782 150.461005 
L 588.746858 150.159144 
L 591.187446 148.85108 
L 593.576107 146.587123 
L 594.900256 146.310417 
L 595.912841 146.536813 
L 597.211026 147.442396 
L 599.314086 149.152941 
L 601.572929 149.932749 
L 606.012723 150.687401 
L 610.218843 151.366588 
L 613.69798 152.07093 
L 616.50206 151.92 
L 618.059882 151.467209 
L 619.487886 151.140193 
L 622.291966 150.989262 
L 626.134595 150.586781 
L 626.472123 150.561626 
L 628.679038 149.932749 
L 628.83482 146.335572 
L 628.289582 144.323166 
L 626.472123 141.782503 
L 625.771103 140.449283 
L 625.82303 138.889668 
L 626.835615 136.877262 
L 628.549219 133.556791 
L 629.821441 131.443765 
L 630.911917 130.990973 
L 632.521666 130.865198 
L 634.183344 130.286631 
L 635.533456 129.154652 
L 636.96146 127.393797 
L 638.623137 124.098481 
L 640.18096 122.186695 
L 642.335947 120.778011 
L 643.997624 119.218396 
L 645.867011 116.602267 
L 646.464177 115.042652 
L 646.516104 112.476834 
L 646.827668 108.955123 
L 647.684471 107.194267 
L 649.50193 105.433412 
L 653.032994 102.389647 
L 655.992857 99.220107 
L 661.289453 93.535059 
L 670.87006 83.120856 
L 672.531737 81.133604 
L 675.621418 76.907551 
L 679.022664 73.763166 
L 681.670962 72.128086 
L 684.267332 70.970952 
L 685.072207 70.065369 
L 685.954973 66.619123 
L 686.448284 63.047102 
L 686.292502 61.336556 
L 685.51359 60.103957 
L 683.098966 58.670118 
L 681.385361 57.311743 
L 678.607245 54.368599 
L 678.08797 53.08569 
L 678.243753 51.928556 
L 679.074591 50.519872 
L 679.853502 48.708706 
L 679.723684 45.991957 
L 678.659172 43.77831 
L 676.218584 40.357219 
L 674.712689 38.671829 
L 672.427883 37.48954 
L 670.610423 36.382717 
L 669.753621 35.175273 
L 669.390129 33.464727 
L 669.364165 33.263487 
L 668.97471 30.672513 
L 668.948746 27.603594 
L 669.078564 25.591187 
L 670.272895 24.610139 
L 673.310649 23.176299 
L 675.361781 22.270717 
L 676.322438 21.038118 
L 676.789785 18.52261 
L 677.672551 15.931636 
L 679.20441 13.466439 
L 680.39874 12.23384 
L 681.463252 11.931979 
L 682.761438 12.057754 
L 684.371187 12.787251 
L 685.176062 12.913027 
L 686.084792 12.560856 
L 686.811776 11.755893 
L 687.357014 11.026396 
L 688.577308 10.8 
L 689.64182 11.127016 
L 690.965969 11.806203 
L 692.23819 12.082909 
L 694.652815 12.082909 
L 696.496238 12.460235 
L 698.080024 13.089112 
L 700.001338 14.648727 
L 702.078435 17.214545 
L 703.636257 19.252107 
L 704.77866 21.591529 
L 705.8951 24.434053 
L 706.648047 28.257626 
L 707.660632 30.622203 
L 709.166527 32.030888 
L 711.529224 33.288642 
L 714.878542 35.150118 
L 718.591352 38.093262 
L 721.23965 40.055358 
L 724.926496 41.765904 
L 727.808467 42.495401 
L 731.443386 42.671487 
L 734.221503 43.073968 
L 734.792704 43.174588 
L 738.219914 44.155636 
L 744.321385 46.067422 
L 749.617981 47.727658 
L 755.122286 48.909947 
L 759.899608 49.211807 
L 763.534527 48.960257 
L 768.207994 47.853433 
L 769.713889 47.325176 
L 770.648582 46.394439 
L 771.375566 44.180791 
L 772.154477 43.073968 
L 773.322844 42.772107 
L 775.841324 42.948193 
L 778.100166 42.646332 
L 781.215811 41.514353 
L 782.150504 40.407529 
L 782.773633 38.470588 
L 783.03327 30.898909 
L 783.73429 27.251422 
L 785.525786 24.836535 
L 790.588709 21.516064 
L 793.548571 19.503658 
L 794.1717 19.654588 
" clip-path="url(#pb73a7d1719)"/>
   </g>
  </g>
 </g>
 <defs>
  <clipPath id="pb73a7d1719">
   <rect x="71.342125" y="10.8" width="937.315751" height="1058.4"/>
  </clipPath>
 </defs>
</svg>
