<?xml version="1.0" encoding="utf-8" standalone="no"?>
<!DOCTYPE svg PUBLIC "-//W3C//DTD SVG 1.1//EN"
  "http://www.w3.org/Graphics/SVG/1.1/DTD/svg11.dtd">
<svg xmlns:xlink="http://www.w3.org/1999/xlink" width="1080pt" height="1080pt" viewBox="0 0 1080 1080" xmlns="http://www.w3.org/2000/svg" version="1.1">
 <metadata>
  <rdf:RDF xmlns:dc="http://purl.org/dc/elements/1.1/" xmlns:cc="http://creativecommons.org/ns#" xmlns:rdf="http://www.w3.org/1999/02/22-rdf-syntax-ns#">
   <cc:Work>
    <dc:type rdf:resource="http://purl.org/dc/dcmitype/StillImage"/>
    <dc:date>2022-07-01T13:43:21.286676</dc:date>
    <dc:format>image/svg+xml</dc:format>
    <dc:creator>
     <cc:Agent>
      <dc:title>Matplotlib v3.5.1, https://matplotlib.org/</dc:title>
     </cc:Agent>
    </dc:creator>
   </cc:Work>
  </rdf:RDF>
 </metadata>
 <defs>
  <style type="text/css">*{stroke-linejoin: round; stroke-linecap: butt}</style>
 </defs>
 <g id="figure_1">
  <g id="patch_1">
   <path d="M 0 1080 
L 1080 1080 
L 1080 0 
L 0 0 
L 0 1080 
z
" style="fill: none; opacity: 0"/>
  </g>
  <g id="axes_1">
   <g id="PatchCollection_1">
    <path d="M 1061.221603 249.459603 
L 1060.110687 249.655297 
L 1057.181908 250.372842 
L 1056.306641 250.796845 
L 1055.061069 251.97101 
L 1053.613511 254.384569 
L 1051.862977 256.178431 
L 1050.752061 256.732898 
L 1047.015344 257.678752 
L 1042.941985 258.200603 
L 1041.326107 258.135371 
L 1039.47458 257.352595 
L 1037.387405 256.667666 
L 1034.391298 256.145816 
L 1034.155649 256.504588 
L 1034.020992 256.928592 
L 1033.684351 257.515674 
L 1030.957557 262.799412 
L 1029.880305 264.984662 
L 1028.298092 268.246229 
L 1026.143588 272.323188 
L 1023.181145 277.639543 
L 1022.272214 279.400789 
L 1022.137557 279.955255 
L 1022.137557 280.183565 
L 1022.339542 280.574953 
L 1022.878168 280.998957 
L 1023.686107 281.912196 
L 1024.157405 282.564509 
L 1024.393053 283.118975 
L 1024.696031 284.032214 
L 1024.763359 284.912837 
L 1024.797023 285.956539 
L 1024.595038 286.837162 
L 1024.292061 287.45686 
L 1022.642519 289.4138 
L 1018.434504 294.599692 
L 1015.236412 298.415725 
L 1014.899771 299.100654 
L 1014.394809 299.948662 
L 1014.192824 300.470512 
L 1014.024504 301.057594 
L 1013.957176 301.612061 
L 1013.822519 302.133912 
L 1013.452214 303.829926 
L 1013.081908 305.069322 
L 1012.139313 307.580729 
L 1011.701679 308.85274 
L 1011.466031 309.537669 
L 1011.163053 310.353061 
L 1011.062061 310.907527 
L 1010.860076 312.962314 
L 1010.759084 314.560482 
L 1010.658092 315.114949 
L 1010.489771 315.636799 
L 1010.254122 315.962956 
L 1009.951145 316.093419 
L 1008.638244 316.223881 
L 1007.392672 316.354344 
L 1006.988702 316.452191 
L 1006.31542 316.61527 
L 1005.541145 317.071889 
L 1005.069847 317.36543 
L 1004.76687 317.724202 
L 1004.531221 318.148206 
L 1003.420305 320.659613 
L 1002.545038 322.453475 
L 1000.996489 326.595665 
L 1000.323206 329.04184 
L 999.717252 331.912019 
L 999.346947 335.010508 
L 999.447939 345.08875 
L 991.503206 344.33859 
L 986.453588 344.664747 
L 984.501069 345.056135 
L 982.851527 345.08875 
L 980.225725 344.860441 
L 978.912824 345.056135 
L 976.152366 345.838911 
L 969.789847 347.763235 
L 967.130382 349.100478 
L 964.874885 350.502952 
L 963.999618 351.481422 
L 963.292672 351.938041 
L 962.653053 352.003273 
L 961.710458 351.807578 
L 959.690611 350.046332 
L 958.37771 348.513396 
L 957.603435 348.089392 
L 956.795496 348.089392 
L 951.308244 348.806937 
L 949.793359 349.002631 
L 949.322061 349.361403 
L 949.187405 349.91587 
L 949.288397 350.861724 
L 949.389389 351.905426 
L 949.288397 352.362045 
L 948.918092 352.949127 
L 948.379466 353.405746 
L 947.84084 353.60144 
L 946.763588 353.666672 
L 945.551679 353.373131 
L 941.074351 351.057418 
L 938.44855 350.144179 
L 937.87626 350.078948 
L 937.270305 350.176795 
L 936.698015 350.568183 
L 935.452443 351.970657 
L 934.543511 353.699287 
L 933.903893 354.612526 
L 933.331603 355.166993 
L 932.893969 355.395302 
L 932.456336 355.493149 
L 927.709695 355.558381 
L 925.117557 356.080231 
L 916.061908 357.743631 
L 914.479695 358.167634 
L 912.56084 358.885179 
L 910.137023 359.896265 
L 908.386489 360.15719 
L 905.727023 360.255037 
L 902.730916 360.059343 
L 901.922977 360.059343 
L 901.653664 360.059343 
L 900.610076 360.255037 
L 900.037786 360.61381 
L 898.489237 362.244593 
L 895.964427 364.658153 
L 893.540611 366.419399 
L 890.51084 368.343724 
L 889.433588 369.093884 
L 889.36626 369.387425 
L 889.164275 370.561589 
L 888.726641 374.410238 
L 888.96229 375.649634 
L 890.443511 377.965347 
L 891.318779 380.085365 
L 891.184122 381.096451 
L 889.904885 383.542626 
L 889.332595 385.92357 
L 889.635573 391.044231 
L 889.399924 398.871992 
L 889.399924 400.209234 
L 889.063282 401.774786 
L 888.490992 403.340339 
L 887.077099 404.808044 
L 884.417634 406.177902 
L 875.799618 408.52623 
L 872.433206 408.558846 
L 868.427176 408.265305 
L 865.666718 408.200074 
L 864.825115 408.200074 
L 863.983511 408.656693 
L 863.882519 409.113312 
L 863.781527 410.254861 
L 864.252824 412.113954 
L 863.848855 414.005663 
L 861.862672 416.158297 
L 859.842824 417.658618 
L 857.991298 419.289402 
L 857.318015 421.018032 
L 856.173435 422.909741 
L 855.163511 423.725133 
L 851.864427 424.181752 
L 848.531679 424.344831 
L 846.107863 424.899297 
L 843.953359 425.453764 
L 842.943435 426.399618 
L 842.539466 427.769476 
L 841.02458 432.727058 
L 840.755267 435.662469 
L 840.957252 439.935121 
L 841.327557 444.24039 
L 841.226565 447.306263 
L 839.476031 457.090964 
L 838.499771 457.743278 
L 835.873969 458.167282 
L 832.945191 458.199897 
L 819.344885 456.177726 
L 812.612061 454.18817 
L 810.356565 453.438009 
L 809.649618 453.307547 
L 808.976336 453.568472 
L 808.976336 454.090323 
L 808.942672 454.579558 
L 808.370382 460.580841 
L 807.730763 464.103334 
L 807.730763 465.63627 
L 808.303053 466.419046 
L 810.996183 467.430132 
L 813.386336 468.930453 
L 816.348779 471.507091 
L 819.041908 473.790188 
L 820.725115 474.540348 
L 829.376794 474.833889 
L 835.974962 474.768658 
L 837.153206 474.964352 
L 837.961145 475.35574 
L 841.192901 477.573606 
L 843.280076 478.910848 
L 844.458321 479.563162 
L 853.210992 483.313964 
L 855.668473 484.161971 
L 856.712061 484.585975 
L 857.183359 485.140441 
L 857.822977 487.390923 
L 858.563588 490.8808 
L 859.135878 492.674661 
L 859.842824 493.653132 
L 861.35771 494.696833 
L 867.686565 496.490695 
L 871.120305 497.338702 
L 872.837176 497.9584 
L 873.308473 498.382404 
L 874.01542 499.589184 
L 874.217405 503.698758 
L 874.217405 504.677228 
L 874.58771 506.503706 
L 875.698626 508.330183 
L 876.809542 510.09143 
L 877.617481 510.776359 
L 878.189771 510.939437 
L 878.795725 510.678512 
L 879.435344 510.221892 
L 880.815573 509.276038 
L 882.498779 508.623725 
L 884.653282 508.232336 
L 886.84145 508.199721 
L 889.433588 508.982497 
L 895.998092 511.363441 
L 897.613969 511.885292 
L 898.489237 511.950523 
L 899.532824 511.82006 
L 900.812061 511.754829 
L 903.370534 511.559135 
L 904.986412 511.526519 
L 906.770611 511.852676 
L 908.72313 512.733299 
L 912.695496 515.733941 
L 914.749008 518.017038 
L 917.038168 522.550616 
L 918.149084 524.507556 
L 919.058015 525.486026 
L 920.135267 526.301418 
L 921.38084 526.529728 
L 923.400687 526.497112 
L 925.555191 526.823269 
L 927.171069 527.540814 
L 929.426565 529.399907 
L 931.412748 532.204855 
L 932.658321 533.183325 
L 934.375191 533.966101 
L 937.169313 534.87934 
L 940.098092 535.205496 
L 940.838702 535.531653 
L 941.108015 536.347045 
L 941.141679 538.825836 
L 941.410992 540.326157 
L 942.45458 541.500321 
L 943.733817 542.087403 
L 954.741985 544.403116 
L 959.219313 546.229593 
L 960.49855 547.273295 
L 961.441145 549.458545 
L 961.64313 549.94778 
L 963.36 555.329365 
L 964.268931 556.731839 
L 965.413511 557.906003 
L 967.130382 558.590932 
L 972.617634 560.1891 
L 976.791985 561.16757 
L 979.081145 561.298033 
L 980.629695 561.330649 
L 981.168321 561.656806 
L 981.235649 562.146041 
L 981.235649 562.83097 
L 980.966336 564.200828 
L 981.067328 564.820526 
L 983.390153 567.625473 
L 986.689237 571.017503 
L 988.170458 572.583055 
L 988.742748 573.691988 
L 988.742748 574.866152 
L 987.800153 577.44279 
L 986.95855 581.552365 
L 986.655573 586.477331 
L 986.689237 589.641051 
L 987.160534 591.043525 
L 988.10313 592.870003 
L 990.190305 595.707566 
L 992.277481 598.447282 
L 994.095344 599.947603 
L 997.764733 601.219614 
L 1006.820382 605.003032 
L 1009.883817 607.547055 
L 1010.826412 609.99323 
L 1010.826412 611.167394 
L 1010.355115 612.243711 
L 1006.955038 613.939726 
L 1004.665878 615.016043 
L 1003.790611 616.418517 
L 1000.693511 622.028412 
L 998.976641 625.06167 
L 998.236031 626.627222 
L 997.024122 629.790942 
L 997.024122 630.63895 
L 997.66374 631.780498 
L 999.78458 634.063595 
L 1001.804427 635.955304 
L 1002.915344 637.781782 
L 1004.329237 642.31536 
L 1004.362901 644.761535 
L 1004.295573 645.642158 
L 1003.992595 646.45755 
L 1002.679695 648.740647 
L 1002.040076 650.07789 
L 1001.770763 652.002214 
L 1001.939084 654.709315 
L 1002.376718 656.470561 
L 1004.059924 659.242893 
L 1005.541145 662.765386 
L 1005.642137 663.743856 
L 1005.574809 664.200475 
L 1005.204504 666.581419 
L 1003.554962 669.973449 
L 1002.141069 671.799926 
L 999.380611 674.18087 
L 996.148855 677.148896 
L 994.936947 677.377206 
L 993.489389 677.409822 
L 990.089313 676.431352 
L 988.170458 676.105195 
L 987.295191 676.105195 
L 985.746641 676.920587 
L 978.87916 680.377848 
L 977.465267 681.291087 
L 975.950382 682.693561 
L 973.526565 684.715732 
L 973.021603 685.172351 
L 972.415649 685.56374 
L 970.968092 685.955128 
L 969.587863 686.248669 
L 968.678931 686.216053 
L 968.375954 686.183437 
L 967.870992 685.987743 
L 966.423435 685.368046 
L 966.019466 685.172351 
L 965.581832 685.009273 
L 965.043206 684.87881 
L 964.740229 684.813579 
L 964.134275 685.041889 
L 962.956031 685.792049 
L 958.613359 688.955769 
L 958.209389 689.184079 
L 957.872748 689.216695 
L 957.704427 689.053616 
L 957.536107 688.694844 
L 957.40145 687.422833 
L 957.367786 686.3139 
L 957.266794 685.857281 
L 956.997481 685.596355 
L 956.458855 685.270199 
L 956.054885 685.237583 
L 955.51626 685.237583 
L 954.54 685.302814 
L 953.799389 685.56374 
L 953.328092 685.857281 
L 952.25084 687.06406 
L 951.442901 688.238225 
L 948.716107 686.346516 
L 947.739847 685.889896 
L 943.767481 685.596355 
L 937.202977 684.389575 
L 932.691985 683.182796 
L 931.951374 683.084949 
L 931.210763 682.628329 
L 929.729542 680.280001 
L 926.733435 675.355035 
L 924.64626 672.876244 
L 922.660076 671.343307 
L 919.360992 668.994979 
L 917.644122 668.212203 
L 916.533206 668.114356 
L 913.638092 668.505744 
L 911.820229 669.092826 
L 910.002366 669.451598 
L 908.655802 669.451598 
L 907.309237 669.353751 
L 898.522901 665.505102 
L 892.160382 663.548162 
L 890.982137 662.569692 
L 889.568244 660.841061 
L 888.928626 660.286595 
L 888.053359 659.927822 
L 883.677023 659.634281 
L 875.025344 659.145046 
L 868.898473 659.56905 
L 861.021069 660.482289 
L 859.135878 661.330296 
L 858.66458 662.145688 
L 858.226947 666.809729 
L 858.260611 668.897132 
L 857.755649 670.658378 
L 856.442748 671.734695 
L 854.187252 672.354393 
L 852.739695 672.68055 
L 851.628779 674.18087 
L 850.719847 678.812296 
L 850.450534 681.976016 
L 850.82084 684.520038 
L 851.830763 687.944684 
L 851.830763 688.303456 
L 851.830763 688.694844 
L 851.696107 689.575467 
L 850.888168 689.738545 
L 850.080229 689.608083 
L 848.464351 688.564381 
L 847.286107 686.933598 
L 846.98313 686.052975 
L 846.612824 683.508952 
L 846.276183 682.92187 
L 845.299924 682.334788 
L 837.085878 681.225855 
L 828.063893 680.280001 
L 825.606412 679.138452 
L 825.135115 678.094751 
L 825.236107 675.550729 
L 825.842061 671.799926 
L 825.976718 669.549445 
L 824.125191 663.450315 
L 822.441985 660.188748 
L 819.681527 657.220721 
L 816.11313 654.578852 
L 809.952595 651.969598 
L 806.88916 651.382516 
L 798.64145 649.262498 
L 795.712672 648.284028 
L 794.096794 647.925255 
L 793.187863 647.89264 
L 791.874962 648.805878 
L 791.504656 649.066804 
L 791.201679 649.327729 
L 790.79771 649.653886 
L 790.023435 650.306199 
L 789.181832 650.991128 
L 788.542214 649.719117 
L 787.969924 647.925255 
L 787.431298 646.490166 
L 786.791679 645.511696 
L 783.627252 643.06552 
L 779.587557 640.684576 
L 777.837023 639.803953 
L 776.961756 639.67349 
L 774.100305 640.032263 
L 769.185344 640.88027 
L 767.266489 640.847655 
L 765.414962 640.227957 
L 762.688168 638.401479 
L 761.038626 636.640233 
L 760.298015 635.596532 
L 758.95145 631.910961 
L 758.109847 630.18233 
L 756.864275 628.812472 
L 755.618702 627.931849 
L 754.406794 627.573077 
L 749.491832 627.24692 
L 744.273893 626.301065 
L 730.437939 622.909036 
L 728.350763 621.539177 
L 726.701221 619.549622 
L 725.590305 618.408073 
L 723.233817 616.940368 
L 715.82771 614.102804 
L 707.041374 611.558782 
L 706.637405 611.656629 
L 705.593817 612.537252 
L 702.665038 615.146506 
L 700.746183 616.907752 
L 698.894656 619.027771 
L 697.952061 620.789017 
L 695.696565 627.149073 
L 694.484656 629.073397 
L 692.565802 631.552188 
L 691.623206 632.987278 
L 691.555878 633.672207 
L 691.555878 634.030979 
L 692.700458 635.074681 
L 696.605496 637.031621 
L 698.490687 637.977476 
L 699.197634 638.858099 
L 699.837252 640.945502 
L 699.534275 643.717834 
L 700.140229 645.511696 
L 701.587786 646.68586 
L 703.304656 647.89264 
L 704.752214 649.327729 
L 706.839389 654.285311 
L 711.788015 664.4614 
L 715.42374 671.571617 
L 716.198015 673.267632 
L 716.198015 673.854714 
L 715.794046 674.572258 
L 713.235573 676.105195 
L 710.542443 676.627046 
L 709.364198 676.431352 
L 705.560153 673.398094 
L 703.708626 672.126083 
L 702.732366 671.930389 
L 701.655115 672.060852 
L 700.510534 672.745781 
L 699.971908 674.670105 
L 699.534275 679.562456 
L 699.130305 680.96493 
L 698.389695 681.976016 
L 696.47084 683.411105 
L 692.936107 684.944042 
L 691.118244 686.346516 
L 689.233053 688.27084 
L 689.132061 688.988385 
L 689.132061 690.293012 
L 690.747939 696.163833 
L 691.589542 697.99031 
L 692.936107 699.294937 
L 694.114351 700.534333 
L 694.215344 700.925721 
L 694.215344 701.512803 
L 693.508397 702.523888 
L 691.858855 703.861131 
L 688.829084 705.394068 
L 686.607252 706.176844 
L 685.563664 706.829157 
L 683.005191 709.275332 
L 679.335802 712.569515 
L 678.729847 713.547985 
L 678.561527 714.232914 
L 678.561527 715.113537 
L 680.480382 717.820638 
L 682.028931 720.136351 
L 683.24084 723.430534 
L 683.274504 726.561638 
L 682.971527 729.725358 
L 683.005191 731.714914 
L 683.341832 733.019541 
L 686.910229 738.629436 
L 687.81916 741.467 
L 688.627099 746.033194 
L 688.660763 748.740294 
L 688.256794 751.577858 
L 685.765649 758.394533 
L 680.985344 770.331868 
L 677.147634 776.594077 
L 674.319847 780.279648 
L 672.737634 783.019364 
L 672.199008 784.519685 
L 672.199008 785.302461 
L 672.131679 786.541857 
L 672.636641 787.487711 
L 673.040611 788.009562 
L 674.99313 790.455737 
L 675.464427 792.086521 
L 675.498092 793.260685 
L 674.723817 797.663801 
L 674.353511 801.871222 
L 674.387176 805.42633 
L 674.791145 808.426972 
L 675.73374 809.568521 
L 678.056565 811.492845 
L 680.042748 812.764856 
L 680.514046 813.710711 
L 680.54771 815.765498 
L 680.211069 816.287349 
L 678.965496 817.722438 
L 663.513664 826.626517 
L 656.94916 829.594543 
L 655.366947 830.377319 
L 655.131298 830.899169 
L 655.164962 831.64933 
L 655.770916 833.769348 
L 657.656107 835.79152 
L 660.21458 837.22661 
L 662.470076 839.574938 
L 665.365191 846.815617 
L 665.668168 849.066098 
L 665.230534 853.27352 
L 661.325496 860.840355 
L 658.935344 865.17824 
L 657.386794 867.689646 
L 656.174885 868.407191 
L 654.357023 868.635501 
L 650.317328 868.11365 
L 647.624198 867.722262 
L 646.176641 867.950572 
L 645.065725 868.765963 
L 644.257786 869.809665 
L 642.439924 875.321713 
L 641.833969 877.246038 
L 641.867634 878.81159 
L 642.507252 879.724829 
L 645.907328 883.736556 
L 649.913359 889.248605 
L 653.279771 895.184657 
L 653.784733 897.402523 
L 653.784733 898.641918 
L 653.212443 900.20747 
L 652.640153 901.707791 
L 651.024275 903.534269 
L 648.667786 904.675817 
L 646.580611 904.838895 
L 633.081298 901.283787 
L 627.998015 900.66409 
L 621.265191 900.729321 
L 619.783969 901.18594 
L 617.696794 902.327489 
L 615.777939 903.860425 
L 614.902672 905.001974 
L 614.936336 906.241369 
L 616.282901 907.154608 
L 619.279008 909.242011 
L 621.770153 912.634041 
L 623.049389 916.841462 
L 624.126641 918.276552 
L 628.334656 920.005183 
L 630.825802 921.766429 
L 631.532748 923.201518 
L 631.431756 926.789242 
L 630.623817 932.007749 
L 630.724809 937.356719 
L 630.556489 938.009033 
L 630.017863 938.33519 
L 629.142595 938.367805 
L 621.298855 938.628731 
L 619.750305 938.987503 
L 618.875038 939.31366 
L 617.83145 940.618287 
L 617.326489 942.24907 
L 617.528473 943.292772 
L 618.605725 944.66263 
L 620.92855 948.05466 
L 621.702824 950.109447 
L 621.904809 955.034413 
L 621.736489 956.175962 
L 621.231527 957.806745 
L 620.625573 958.850447 
L 619.548321 959.894148 
L 615.676947 960.742156 
L 609.98771 962.66648 
L 604.635115 965.634506 
L 600.932061 968.145913 
L 597.868626 970.65732 
L 595.916107 973.560114 
L 594.434885 976.136752 
L 593.020992 977.604457 
L 591.741756 978.256771 
L 590.866489 978.19154 
L 589.48626 977.441379 
L 588.308015 976.691219 
L 587.601069 975.908443 
L 586.894122 974.701663 
L 586.422824 971.733637 
L 586.591145 969.059152 
L 586.456489 967.917603 
L 585.783206 966.710823 
L 583.763359 964.982193 
L 583.090076 964.166801 
L 583.090076 963.64495 
L 583.52771 962.633864 
L 585.64855 957.676282 
L 586.490153 954.773488 
L 586.254504 953.142704 
L 585.446565 951.805462 
L 584.200992 950.696529 
L 581.440534 949.294055 
L 579.218702 948.80482 
L 578.040458 948.446048 
L 576.963206 948.022044 
L 576.357252 947.565424 
L 576.188931 947.206652 
L 576.087939 946.652186 
L 575.28 942.151223 
L 575.078015 940.781365 
L 574.741374 937.943802 
L 574.404733 937.063178 
L 573.697786 936.313018 
L 566.560992 929.626805 
L 565.584733 929.007108 
L 564.372824 928.485257 
L 563.497557 928.322179 
L 562.824275 928.322179 
L 562.083664 928.778798 
L 558.178626 931.224973 
L 555.014198 932.692679 
L 552.388397 933.181914 
L 548.651679 933.410223 
L 544.578321 933.475455 
L 541.514885 932.75791 
L 538.754427 932.203443 
L 536.195954 930.670507 
L 533.401832 927.898175 
L 531.247328 925.386768 
L 529.597786 922.875362 
L 528.385878 921.668582 
L 527.712595 921.114115 
L 526.298702 921.114115 
L 521.249084 921.896891 
L 517.647023 922.940593 
L 514.886565 923.364597 
L 510.476565 923.005824 
L 508.423053 922.744899 
L 507.076489 921.83166 
L 506.403206 920.690112 
L 504.080382 914.134362 
L 503.642748 911.622955 
L 503.17145 910.090019 
L 502.43084 908.263541 
L 501.690229 907.513381 
L 499.569389 906.958914 
L 496.775267 906.861067 
L 493.77916 906.99153 
L 491.725649 915.928224 
L 491.422672 916.645768 
L 491.355344 918.146089 
L 491.49 919.483332 
L 492.163282 922.679668 
L 492.163282 923.625522 
L 491.994962 924.506145 
L 491.456336 925.288921 
L 490.244427 926.332623 
L 488.291908 927.669865 
L 487.450305 928.452641 
L 487.214656 929.170186 
L 487.214656 929.757268 
L 487.887939 931.029279 
L 489.470153 933.247145 
L 491.826641 936.084708 
L 492.365267 936.247787 
L 493.442519 936.247787 
L 495.226718 936.019477 
L 496.135649 936.117324 
L 497.313893 936.410865 
L 500.343664 937.454566 
L 503.272443 938.367805 
L 503.912061 938.889656 
L 504.518015 939.607201 
L 509.298321 945.119249 
L 509.601298 945.673716 
L 510.038931 946.913111 
L 512.900382 956.241193 
L 512.96771 957.056585 
L 512.96771 957.871977 
L 512.698397 958.361212 
L 512.025115 958.7526 
L 511.318168 958.7526 
L 509.70229 958.035055 
L 508.389389 957.643667 
L 507.379466 957.643667 
L 506.605191 957.774129 
L 505.830916 958.198133 
L 505.022977 959.111372 
L 504.248702 960.25292 
L 503.878397 961.394469 
L 503.878397 964.134185 
L 503.710076 964.688652 
L 503.407099 965.569275 
L 502.195191 967.721909 
L 501.218931 969.059152 
L 499.704046 970.65732 
L 498.929771 971.211786 
L 498.155496 971.244402 
L 496.539618 971.048708 
L 494.519771 970.42901 
L 492.769237 969.874543 
L 491.624656 969.874543 
L 490.749389 970.037622 
L 489.537481 970.820398 
L 488.022595 972.059793 
L 487.618626 972.61426 
L 487.416641 973.462267 
L 487.719618 974.34289 
L 488.190916 974.962588 
L 489.268168 975.843211 
L 490.951374 976.854297 
L 492.567252 978.028461 
L 497.313893 981.942342 
L 499.704046 983.997129 
L 500.444656 985.72576 
L 500.915954 987.845778 
L 501.420916 990.715957 
L 502.262519 992.509819 
L 504.484351 995.151688 
L 507.244809 998.184946 
L 509.466641 1000.33758 
L 509.870611 1000.696352 
L 509.769618 1000.957278 
L 509.500305 1001.218203 
L 508.456718 1001.576976 
L 506.874504 1002.261905 
L 506.201221 1002.685908 
L 505.628931 1003.240375 
L 505.157634 1003.925304 
L 504.955649 1005.229931 
L 504.854656 1007.773953 
L 504.820992 1008.785039 
L 504.753664 1015.471251 
L 504.854656 1016.938957 
L 505.830916 1019.058975 
L 506.133893 1020.363602 
L 506.066565 1022.124848 
L 505.258626 1023.853479 
L 504.349695 1025.12549 
L 502.834809 1025.549494 
L 501.723893 1025.060259 
L 499.838702 1023.592554 
L 499.16542 1023.16855 
L 498.660458 1023.201165 
L 497.650534 1024.244867 
L 497.280229 1025.158106 
L 494.92374 1031.45293 
L 494.317786 1032.4314 
L 492.398931 1038.269605 
L 491.792977 1043.096725 
L 491.759313 1045.673363 
L 491.456336 1047.206299 
L 490.379084 1048.739236 
L 489.470153 1049.424165 
L 488.965191 1049.554628 
L 488.291908 1049.456781 
L 486.911679 1048.282616 
L 485.565115 1047.434609 
L 484.151221 1047.108452 
L 482.131374 1046.97799 
L 480.515496 1047.206299 
L 479.067939 1047.369378 
L 477.990687 1047.206299 
L 476.947099 1046.782296 
L 475.735191 1045.281975 
L 474.085649 1042.216102 
L 472.772748 1039.835158 
L 472.503435 1038.954535 
L 472.70542 1038.302221 
L 473.681679 1037.682523 
L 474.321298 1036.769285 
L 474.354962 1035.790814 
L 473.749008 1034.877576 
L 472.974733 1034.355725 
L 470.550916 1034.029568 
L 467.521145 1033.442486 
L 465.972595 1033.051098 
L 464.929008 1032.953251 
L 464.390382 1033.246792 
L 457.388244 1036.671438 
L 456.681298 1037.812986 
L 456.411985 1039.280691 
L 456.243664 1042.118255 
L 455.907023 1043.455497 
L 454.594122 1045.053665 
L 452.102977 1047.075837 
L 451.429695 1047.49984 
L 450.992061 1047.72815 
L 450.689084 1047.760766 
L 450.453435 1047.760766 
L 449.746489 1047.793381 
L 449.10687 1047.989075 
L 448.029618 1048.47831 
L 445.807786 1049.848169 
L 444.52855 1050.957101 
L 443.888931 1051.609415 
L 443.114656 1052.033419 
L 442.273053 1052.229113 
L 440.960153 1052.229113 
L 435.506565 1053.957743 
L 435.035267 1054.05559 
L 434.631298 1053.990359 
L 434.328321 1053.729433 
L 434.025344 1053.240198 
L 433.318397 1052.033419 
L 432.61145 1051.250642 
L 429.514351 1049.293702 
L 426.720229 1048.054307 
L 425.440992 1047.49984 
L 424.734046 1047.271531 
L 424.229084 1047.206299 
L 423.959771 1047.206299 
L 423.757786 1047.369378 
L 423.656794 1047.630303 
L 423.724122 1047.923844 
L 424.532061 1049.098008 
L 425.003359 1050.011247 
L 425.138015 1050.924486 
L 425.037023 1052.066034 
L 424.666718 1053.174967 
L 419.987405 1058.132549 
L 410.123817 1060.187336 
L 408.810916 1060.480877 
L 407.228702 1059.926411 
L 405.107863 1058.817478 
L 403.323664 1058.458706 
L 401.539466 1058.458706 
L 397.466107 1058.328243 
L 394.739313 1058.556553 
L 393.157099 1058.850094 
L 392.214504 1059.208866 
L 391.675878 1059.698101 
L 391.675878 1060.448262 
L 392.147176 1062.176892 
L 392.079847 1063.220594 
L 391.372901 1063.872907 
L 390.127328 1064.362142 
L 388.477786 1064.23168 
L 375.887405 1060.546109 
L 372.924962 1058.784862 
L 371.578397 1057.545467 
L 371.27542 1055.294986 
L 371.814046 1052.587885 
L 372.049695 1051.087564 
L 371.814046 1049.68509 
L 371.107099 1048.315232 
L 370.097176 1047.49984 
L 367.673359 1046.717064 
L 364.778244 1046.358292 
L 363.128702 1046.358292 
L 360.637557 1047.304146 
L 359.526641 1047.434609 
L 358.281069 1047.369378 
L 357.338473 1046.52137 
L 356.631527 1045.281975 
L 356.631527 1043.096725 
L 356.227557 1041.62902 
L 355.385954 1040.520087 
L 353.80374 1039.44377 
L 350.437328 1038.791456 
L 348.585802 1038.497915 
L 345.657023 1036.704053 
L 344.108473 1035.105885 
L 343.334198 1032.985867 
L 342.357939 1028.419673 
L 341.280687 1023.233781 
L 341.280687 1021.342072 
L 344.680763 1017.754348 
L 347.575878 1015.275557 
L 348.451145 1013.873084 
L 349.057099 1009.502584 
L 349.057099 1005.295162 
L 344.108473 988.759017 
L 343.940153 987.584853 
L 343.603511 987.063002 
L 342.963893 985.856222 
L 342.021298 985.106062 
L 337.71229 982.953427 
L 332.931985 981.974957 
L 327.411069 980.963872 
L 326.60313 980.768178 
L 322.93374 980.702946 
L 318.725725 981.87711 
L 316.06626 982.464192 
L 314.349389 982.822965 
L 313.002824 982.822965 
L 310.276031 982.040189 
L 305.327405 979.137394 
L 303.374885 976.723834 
L 299.436183 971.701021 
L 298.089618 970.135469 
L 297.147023 969.417924 
L 296.036107 969.189614 
L 295.194504 969.189614 
L 294.622214 969.352693 
L 293.948931 970.005006 
L 293.241985 971.40748 
L 292.669695 971.896715 
L 291.760763 972.418566 
L 289.942901 972.353334 
L 271.393969 966.939133 
L 268.801832 965.243118 
L 265.738397 962.699096 
L 263.482901 961.100928 
L 261.126412 960.024611 
L 249.209313 958.263365 
L 247.324122 958.263365 
L 246.415191 958.198133 
L 245.135954 958.491674 
L 243.351756 959.437529 
L 241.365573 960.774771 
L 239.480382 963.612335 
L 235.13771 970.853014 
L 233.252519 973.397036 
L 232.579237 974.114581 
L 231.030687 975.093051 
L 230.121756 975.517054 
L 229.313817 976.169368 
L 228.472214 977.180454 
L 227.226641 978.9417 
L 226.385038 980.539868 
L 226.082061 981.974957 
L 226.385038 984.845136 
L 226.789008 991.727043 
L 222.782977 990.61811 
L 220.998779 990.61811 
L 219.719542 990.879036 
L 218.877939 991.433502 
L 217.969008 993.03167 
L 216.723435 996.162774 
L 215.78084 996.619394 
L 198.679466 999.489573 
L 197.501221 999.228647 
L 196.558626 998.445871 
L 195.481374 995.869233 
L 193.89916 991.498733 
L 189.522824 970.624704 
L 189.522824 969.091767 
L 190.06145 968.406838 
L 191.441679 967.363137 
L 194.808092 964.786499 
L 197.433893 962.992637 
L 198.107176 962.992637 
L 199.487405 963.155715 
L 201.877557 963.416641 
L 202.584504 962.960021 
L 207.331145 959.763685 
L 208.980687 958.393827 
L 219.349237 948.282969 
L 220.594809 945.314943 
L 220.965115 940.944443 
L 220.561145 938.10688 
L 220.022519 936.345634 
L 214.400611 928.1591 
L 213.054046 926.984936 
L 208.745038 923.853832 
L 208.543053 923.136287 
L 208.543053 922.581821 
L 208.67771 921.896891 
L 209.418321 920.722727 
L 211.135191 918.733171 
L 213.155038 916.971925 
L 216.723435 914.493134 
L 220.022519 912.438347 
L 221.470076 911.13372 
L 221.672061 909.861709 
L 221.537405 908.491851 
L 220.224504 906.404448 
L 217.228397 904.153966 
L 213.323359 903.045034 
L 210.865878 902.816724 
L 206.826183 903.175496 
L 200.968626 904.251813 
L 198.915115 903.338575 
L 196.390305 901.544713 
L 192.922901 898.348377 
L 192.451603 897.304676 
L 192.720916 896.130511 
L 193.528855 895.021579 
L 195.481374 892.314478 
L 198.006183 889.248605 
L 198.30916 887.813515 
L 197.73687 886.34581 
L 195.144733 882.790702 
L 193.528855 881.192534 
L 191.340687 879.594366 
L 183.867252 876.463262 
L 178.38 874.506321 
L 166.563893 866.972101 
L 163.130153 864.525926 
L 160.268702 861.264359 
L 158.585496 860.481583 
L 156.700305 860.318505 
L 153.704198 860.35112 
L 150.20313 859.927117 
L 149.294198 859.503113 
L 144.480229 853.827986 
L 143.907939 853.143057 
L 143.773282 852.197203 
L 144.109924 850.892576 
L 144.614885 850.077184 
L 144.81687 849.294408 
L 144.682214 847.92455 
L 144.480229 847.402699 
L 144.008931 847.076542 
L 142.763359 846.750385 
L 140.23855 846.456844 
L 137.377099 846.456844 
L 134.818626 846.522076 
L 133.101756 846.293766 
L 124.31542 843.162662 
L 123.305496 841.858035 
L 114.92313 831.290557 
L 111.590382 825.354505 
L 110.142824 821.47324 
L 108.594275 815.700267 
L 108.695267 813.156244 
L 109.435878 811.264535 
L 122.935191 797.729032 
L 126.638244 795.021931 
L 130.341298 792.804066 
L 130.543282 792.673603 
L 129.634351 790.912357 
L 128.72542 789.575114 
L 127.479847 788.17264 
L 126.200611 787.42248 
L 124.753053 786.900629 
L 121.891603 786.476626 
L 120.174733 785.596002 
L 112.869618 782.171357 
L 111.758702 781.388581 
L 106.507099 776.72454 
L 101.255496 772.060499 
L 99.639618 768.701085 
L 98.057405 764.330585 
L 96.71084 761.297328 
L 95.465267 760.090548 
L 94.253359 759.405619 
L 88.362137 758.133607 
L 82.134275 756.926828 
L 80.282748 755.948358 
L 79.474809 754.774193 
L 79.407481 752.882484 
L 80.181756 747.957518 
L 80.956031 746.294119 
L 82.201603 744.565488 
L 85.702672 739.868832 
L 87.150229 736.215877 
L 87.116565 734.585093 
L 86.140305 732.041071 
L 84.928397 729.790589 
L 84.962061 728.420731 
L 86.476947 725.452705 
L 86.678931 725.159164 
L 87.857176 723.23484 
L 88.496794 719.223112 
L 88.46313 718.472952 
L 88.092824 716.646474 
L 88.126489 716.287702 
L 88.294809 715.994161 
L 88.564122 715.831082 
L 89.978015 715.407078 
L 91.560229 714.787381 
L 92.132519 714.591687 
L 93.378092 714.363377 
L 95.128626 714.135067 
L 103.813969 713.189213 
L 105.328855 713.156597 
L 107.719008 713.51537 
L 109.031908 713.939373 
L 110.311145 714.49384 
L 111.826031 715.309231 
L 112.970611 715.831082 
L 118.424198 716.613858 
L 123.238168 715.276616 
L 123.608473 714.917843 
L 123.675802 714.656918 
L 123.608473 713.939373 
L 123.238168 712.504284 
L 122.093588 708.329478 
L 120.679695 699.914635 
L 120.747023 697.435844 
L 121.083664 696.555221 
L 121.689618 695.641982 
L 121.723282 695.152747 
L 121.62229 694.59828 
L 118.390534 684.291728 
L 118.222214 682.889255 
L 117.750916 682.008631 
L 117.043969 681.519396 
L 115.865725 681.095393 
L 106.776412 679.171068 
L 99.673282 677.181512 
L 95.094962 674.996262 
L 92.87313 673.691635 
L 85.938321 667.983893 
L 80.148092 663.580777 
L 77.757939 661.101986 
L 77.421298 660.514904 
L 72.573664 647.403405 
L 72.405344 646.881554 
L 72.439008 646.522781 
L 72.775649 646.261856 
L 74.559847 644.957229 
L 76.175725 643.52214 
L 72.136031 635.107297 
L 65.773511 624.539819 
L 61.161527 625.224748 
L 36.856031 630.899875 
L 34.768855 630.899875 
L 32.513359 630.541103 
L 31.503435 630.18233 
L 29.921221 629.66048 
L 26.285496 627.573077 
L 23.794351 626.137987 
L 11.978244 617.592681 
L 11.170305 616.54898 
L 10.867328 615.733588 
L 10.8 615.016043 
L 15.21 606.633816 
L 16.118931 604.905185 
L 16.522901 602.915629 
L 16.859542 598.83867 
L 17.095191 599.29529 
L 25.342901 613.124334 
L 26.487481 614.102804 
L 28.238015 614.787734 
L 34.129237 614.885581 
L 36.586718 614.526808 
L 45.541374 613.90711 
L 47.729542 613.450491 
L 49.244427 612.863409 
L 50.994962 611.167394 
L 52.341527 608.199368 
L 52.846489 606.6012 
L 53.890076 605.198726 
L 55.707939 604.220256 
L 57.828779 603.991946 
L 61.801145 604.611644 
L 63.820992 605.687961 
L 64.729924 606.144581 
L 66.076489 606.307659 
L 66.884427 606.079349 
L 67.389389 605.263958 
L 67.288397 604.155025 
L 67.793359 600.665148 
L 69.84687 595.772797 
L 73.314275 588.858275 
L 74.122214 587.16226 
L 75.199466 585.825018 
L 76.95 585.042242 
L 79.205496 583.933309 
L 80.754046 582.759145 
L 82.134275 580.802204 
L 84.322443 578.388645 
L 87.116565 576.007701 
L 91.257252 573.724604 
L 97.249466 570.723962 
L 103.813969 568.767022 
L 115.529084 564.200828 
L 118.424198 563.026664 
L 124.046107 560.808798 
L 126.873893 558.982321 
L 132.529466 553.731197 
L 140.608855 547.142832 
L 144.682214 543.979112 
L 148.351603 541.761246 
L 149.05855 540.913239 
L 149.832824 538.662757 
L 150.169466 536.020888 
L 150.607099 534.846724 
L 151.684351 533.998717 
L 153.502214 533.835638 
L 156.060687 533.313787 
L 159.359771 532.107008 
L 165.688626 526.562344 
L 168.41542 523.757396 
L 171.411527 519.58259 
L 172.488779 517.788728 
L 173.296718 516.41887 
L 173.801679 512.700683 
L 175.51855 508.754187 
L 180.063206 504.938154 
L 182.689008 502.133206 
L 184.035573 499.491337 
L 184.372214 498.839023 
L 184.809847 498.41502 
L 185.718779 498.545482 
L 188.714885 499.589184 
L 189.118855 499.263027 
L 189.421832 498.023631 
L 189.253511 495.446993 
L 189.118855 494.207598 
L 189.32084 493.685747 
L 192.013969 493.522669 
L 195.178397 493.359591 
L 195.784351 493.326975 
L 197.56855 493.131281 
L 198.679466 492.348505 
L 198.88145 491.598344 
L 198.174504 491.076494 
L 196.255649 490.489411 
L 193.865496 489.706635 
L 193.057557 488.923859 
L 192.58626 488.402009 
L 192.720916 487.749695 
L 194.134809 486.901688 
L 197.467557 485.499214 
L 201.069618 484.357665 
L 205.681603 483.835815 
L 209.283664 483.34658 
L 211.572824 482.694266 
L 212.986718 481.650565 
L 215.679847 478.813001 
L 216.959084 477.671453 
L 218.440305 477.280065 
L 223.321603 477.997609 
L 224.701832 477.997609 
L 228.505878 477.410527 
L 230.626718 477.149602 
L 232.074275 479.139158 
L 232.713893 480.150244 
L 233.151527 481.259177 
L 233.286183 481.520102 
L 238.032824 490.000176 
L 239.14374 492.544199 
L 239.716031 493.457438 
L 240.321985 493.81621 
L 240.894275 494.011904 
L 241.365573 494.207598 
L 241.66855 494.56637 
L 241.971527 495.055605 
L 242.072519 496.034076 
L 242.139847 498.41502 
L 242.072519 499.230411 
L 241.803206 499.556568 
L 241.365573 499.687031 
L 240.523969 499.556568 
L 239.413053 499.39349 
L 238.807099 499.39349 
L 238.335802 499.589184 
L 237.763511 500.078419 
L 236.888244 501.154736 
L 236.484275 501.872281 
L 236.28229 502.394131 
L 235.810992 506.568937 
L 235.810992 507.090788 
L 236.012977 507.482176 
L 236.719924 508.004027 
L 237.83084 508.460646 
L 238.470458 508.42803 
L 238.807099 508.42803 
L 241.129924 507.775717 
L 245.371603 506.829863 
L 246.448855 506.797247 
L 247.492443 506.92771 
L 248.468702 507.351713 
L 249.040992 507.775717 
L 249.343969 508.069258 
L 250.993511 506.438475 
L 252.340076 504.970769 
L 252.710382 503.927068 
L 252.77771 503.176907 
L 252.441069 502.035359 
L 252.171756 501.448277 
L 252.239084 501.024273 
L 252.77771 500.828579 
L 254.528244 500.828579 
L 255.302519 500.665501 
L 256.110458 500.078419 
L 257.793664 498.41502 
L 258.163969 497.893169 
L 258.365954 497.338702 
L 258.567939 496.653773 
L 258.635267 496.066691 
L 258.399618 495.707919 
L 257.860992 494.892527 
L 257.322366 494.240214 
L 256.716412 493.848826 
L 256.245115 493.750979 
L 255.369847 493.783594 
L 254.393588 494.077135 
L 254.023282 494.011904 
L 253.821298 493.848826 
L 253.484656 493.359591 
L 253.282672 492.739893 
L 253.282672 492.087579 
L 253.383664 491.043878 
L 253.720305 489.510941 
L 254.124275 488.043236 
L 254.696565 486.771225 
L 255.06687 486.184143 
L 255.47084 485.890602 
L 256.144122 485.564445 
L 256.985725 484.749053 
L 257.389695 484.227203 
L 258.096641 483.34658 
L 259.173893 482.335494 
L 259.375878 482.074568 
L 259.914504 485.238288 
L 260.419466 487.195229 
L 261.059084 489.2174 
L 261.665038 490.000176 
L 263.482901 491.533113 
L 266.344351 492.772508 
L 269.003817 493.685747 
L 270.114733 493.881441 
L 270.922672 493.5879 
L 272.437557 492.054964 
L 273.245496 491.500497 
L 274.25542 491.272188 
L 275.770305 491.239572 
L 283.64771 492.805124 
L 285.566565 493.359591 
L 286.542824 493.881441 
L 287.620076 494.957758 
L 289.336947 496.914699 
L 296.440076 502.752904 
L 297.988626 504.840307 
L 299.267863 506.503706 
L 299.907481 506.895094 
L 300.648092 506.92771 
L 303.40855 505.94924 
L 308.323511 504.155378 
L 323.506031 500.14365 
L 325.189237 499.752262 
L 326.468473 499.719646 
L 331.18145 501.12212 
L 339.395496 503.633527 
L 341.819313 504.351072 
L 343.502519 504.644613 
L 344.579771 504.611997 
L 347.10458 503.796605 
L 350.067023 502.655057 
L 350.975954 501.872281 
L 351.716565 501.219967 
L 353.197786 499.654415 
L 353.702748 498.284557 
L 353.938397 496.914699 
L 353.80374 495.936229 
L 352.187863 492.478967 
L 351.447252 488.630318 
L 351.211603 487.162613 
L 350.672977 485.597061 
L 349.898702 484.683822 
L 348.114504 483.313964 
L 346.094656 481.813643 
L 345.017405 480.998251 
L 344.546107 480.4764 
L 344.276794 480.019781 
L 344.276794 479.72624 
L 344.344122 479.49793 
L 345.421374 478.845617 
L 347.239237 477.54099 
L 349.629389 474.996968 
L 352.221527 473.333569 
L 354.746336 472.159404 
L 358.382061 472.257251 
L 365.552519 473.072643 
L 368.548626 473.3988 
L 370.669466 473.300953 
L 373.059618 471.670169 
L 377.705267 461.396233 
L 382.687557 447.436726 
L 383.293511 443.588077 
L 383.697481 441.044054 
L 386.693588 435.434159 
L 390.834275 431.846435 
L 392.820458 431.259353 
L 396.220534 431.715972 
L 399.586947 431.976898 
L 400.765191 431.976898 
L 402.448397 431.324584 
L 404.703893 428.747946 
L 405.545496 427.704245 
L 406.993053 426.954084 
L 416.587328 421.050648 
L 418.842824 419.550327 
L 426.046947 416.810611 
L 431.500534 416.093066 
L 434.025344 415.929988 
L 437.189771 416.093066 
L 440.185878 417.332461 
L 441.26313 417.789081 
L 441.667099 417.984775 
L 442.475038 417.854312 
L 442.239389 414.723208 
L 442.677023 413.973047 
L 445.201832 411.429025 
L 447.524656 409.015465 
L 449.578168 407.580376 
L 452.338626 405.558204 
L 453.314885 404.840659 
L 458.128855 402.492331 
L 461.023969 400.796316 
L 463.48145 398.447988 
L 464.626031 396.132275 
L 465.400305 393.229481 
L 465.231985 388.271899 
L 464.626031 383.770936 
L 464.222061 382.270615 
L 461.76458 374.345007 
L 461.394275 372.029294 
L 461.293282 370.561589 
L 461.259618 369.811429 
L 459.610076 369.811429 
L 457.994198 369.941892 
L 456.681298 370.235433 
L 453.988168 370.789899 
L 451.900992 370.789899 
L 450.285115 369.680966 
L 448.972214 367.69141 
L 447.760305 365.832317 
L 446.548397 365.016925 
L 445.134504 365.212619 
L 443.754275 365.440929 
L 442.710687 365.571392 
L 442.104733 365.016925 
L 441.801756 363.223063 
L 442.104733 356.634698 
L 441.936412 355.134377 
L 440.455191 353.764519 
L 437.055115 351.709731 
L 436.651145 350.307258 
L 435.641221 345.741064 
L 435.102595 339.250545 
L 433.857023 332.042482 
L 433.486718 330.672624 
L 432.981756 328.650452 
L 430.557939 325.160575 
L 428.942061 323.073172 
L 427.05687 320.855307 
L 426.282595 318.767904 
L 426.922214 309.700747 
L 427.157863 305.265016 
L 425.878626 302.590531 
L 423.62313 299.231117 
L 422.108244 296.067397 
L 421.737939 293.882147 
L 422.108244 290.62058 
L 423.118168 287.815632 
L 422.916183 284.749759 
L 422.040916 282.173121 
L 419.011145 277.867852 
L 415.981374 273.693047 
L 413.725878 269.97486 
L 412.581298 267.398222 
L 410.931756 260.320621 
L 410.157481 253.112558 
L 410.157481 249.361756 
L 410.022824 246.948196 
L 410.527786 245.056487 
L 414.601145 245.839263 
L 419.886412 246.328499 
L 423.21916 246.785118 
L 425.945954 248.057129 
L 428.100458 249.948838 
L 428.740076 252.558092 
L 429.581679 257.548289 
L 430.827252 258.722454 
L 432.375802 258.885532 
L 433.520382 258.331065 
L 435.506565 256.798129 
L 436.651145 253.503946 
L 437.055115 251.873163 
L 437.795725 251.579622 
L 439.243282 251.97101 
L 441.734427 254.939036 
L 442.879008 255.428271 
L 443.585954 254.939036 
L 443.585954 253.601793 
L 442.239389 248.611596 
L 441.83542 247.339584 
L 442.037405 246.295883 
L 442.744351 245.806648 
L 445.033511 245.513107 
L 449.780153 244.95864 
L 455.839695 243.588782 
L 456.378321 243.393088 
L 457.623893 247.046043 
L 460.62 246.850349 
L 463.346794 246.263267 
L 467.554809 244.730331 
L 473.984656 241.338301 
L 475.869847 239.022588 
L 477.553053 233.28223 
L 479.000611 228.292033 
L 479.741221 218.768257 
L 479.000611 213.027899 
L 478.83229 210.940496 
L 478.865954 209.766331 
L 479.875878 208.363858 
L 480.279847 207.939854 
L 486.406718 201.318873 
L 488.325573 199.916399 
L 489.840458 199.133623 
L 492.163282 198.840082 
L 495.698015 198.840082 
L 498.660458 198.546541 
L 500.175344 198.253 
L 501.85855 197.600686 
L 504.114046 196.296059 
L 504.686336 196.230828 
L 505.898244 196.100365 
L 507.648779 196.622216 
L 508.793359 197.502839 
L 509.432977 199.459779 
L 509.533969 201.123179 
L 509.399313 202.753962 
L 510.779542 204.025973 
L 511.149847 204.025973 
L 514.953893 204.156436 
L 515.391527 204.678287 
L 515.593511 206.53738 
L 516.23313 209.179249 
L 516.468779 209.668484 
L 516.637099 210.288182 
L 516.872748 210.320798 
L 517.512366 210.353413 
L 519.09458 208.266011 
L 520.138168 207.189693 
L 520.912443 207.124462 
L 521.754046 208.396473 
L 522.292672 212.766973 
L 523.639237 213.908522 
L 537.340534 222.910447 
L 537.744504 223.138757 
L 538.586107 222.519059 
L 542.255496 217.365783 
L 543.332748 214.495604 
L 543.534733 210.90788 
L 543.703053 207.222309 
L 541.649542 203.438891 
L 541.178244 201.612414 
L 541.346565 200.503481 
L 541.986183 199.23147 
L 543.332748 196.361291 
L 543.972366 194.730507 
L 544.006031 192.2191 
L 543.602061 189.870772 
L 543.063435 186.739668 
L 542.895115 185.467657 
L 542.996107 184.260877 
L 543.029771 183.739026 
L 544.309008 180.151302 
L 546.025878 178.81406 
L 547.608092 177.83559 
L 549.627939 176.889735 
L 552.523053 175.617724 
L 553.330992 175.324183 
L 557.337023 175.030642 
L 557.707328 175.030642 
L 560.568779 174.932795 
L 561.545038 174.802332 
L 562.857939 174.737101 
L 564.877786 174.769716 
L 566.089695 174.96541 
L 571.509618 177.83559 
L 572.58687 178.226978 
L 574.202748 178.226978 
L 575.582977 177.868205 
L 577.232519 176.857119 
L 581.440534 168.279198 
L 582.046489 167.137649 
L 582.55145 166.517952 
L 583.393053 166.061332 
L 584.739618 165.898254 
L 585.682214 165.963485 
L 587.028779 166.191795 
L 588.038702 166.387489 
L 590.327863 166.485336 
L 592.852672 166.257026 
L 597.565649 165.213325 
L 600.124122 164.365317 
L 601.201374 163.973929 
L 602.817252 162.734534 
L 603.591527 162.016989 
L 603.793511 161.527754 
L 604.062824 160.092665 
L 604.332137 159.016347 
L 604.904427 158.200956 
L 608.371832 155.135083 
L 611.334275 152.81937 
L 612.478855 152.167056 
L 613.758092 151.873515 
L 615.104656 151.38428 
L 616.451221 150.242732 
L 619.043359 147.176859 
L 619.615649 146.100542 
L 619.985954 143.719598 
L 620.558244 142.708512 
L 623.318702 139.968796 
L 624.463282 139.251251 
L 625.742519 138.696784 
L 626.584122 138.696784 
L 627.728702 139.218635 
L 628.536641 139.349098 
L 629.041603 139.283866 
L 629.681221 138.566322 
L 630.152519 137.196463 
L 630.354504 134.489363 
L 630.758473 133.934896 
L 632.374351 133.184736 
L 637.99626 131.162564 
L 639.006183 130.640714 
L 642.338931 128.618542 
L 643.483511 127.705303 
L 644.392443 126.59637 
L 645.974656 124.835124 
L 647.590534 123.497882 
L 649.27374 122.225871 
L 649.980687 121.834482 
L 651.22626 121.508326 
L 653.044122 121.377863 
L 653.885725 121.47571 
L 654.828321 121.70402 
L 657.151145 123.236956 
L 658.396718 124.443736 
L 660.921527 127.509609 
L 662.234427 129.107777 
L 663.109695 130.249326 
L 663.917634 130.771176 
L 665.836489 131.488721 
L 666.476107 131.814878 
L 666.880076 132.108419 
L 667.115725 132.760732 
L 667.082061 134.13059 
L 666.74542 135.56568 
L 666.038473 136.381072 
L 664.220611 137.392158 
L 663.580992 137.881393 
L 663.412672 138.207549 
L 663.547328 138.794631 
L 663.782977 139.316482 
L 664.45626 139.675254 
L 672.3 141.077728 
L 673.545573 141.14296 
L 674.555496 141.077728 
L 675.060458 140.849419 
L 676.171374 139.283866 
L 677.416947 138.240165 
L 678.325878 137.914008 
L 680.648702 137.131232 
L 683.712137 136.087531 
L 684.856718 135.239523 
L 686.405267 133.347814 
L 687.280534 131.94534 
L 687.751832 131.521337 
L 688.357786 131.521337 
L 690.781603 132.40196 
L 691.993511 132.695501 
L 693.20542 132.695501 
L 694.417328 132.40196 
L 695.359924 131.619184 
L 696.134198 130.412404 
L 697.985725 129.075161 
L 700.005573 127.737919 
L 705.425496 125.813594 
L 708.55626 124.86774 
L 710.475115 124.41112 
L 711.687023 123.824038 
L 716.803969 118.964303 
L 719.059466 116.159356 
L 721.38229 111.234389 
L 723.738779 107.38574 
L 727.206183 104.548177 
L 728.418092 104.45033 
L 729.730992 104.515561 
L 733.400382 105.820188 
L 734.107328 106.602964 
L 734.881603 108.918677 
L 734.915267 110.614692 
L 734.713282 113.060867 
L 734.948931 113.843643 
L 735.925191 114.495956 
L 737.002443 114.495956 
L 741.075802 112.408554 
L 743.83626 111.169158 
L 745.418473 110.810386 
L 746.563053 110.875617 
L 747.303664 111.299621 
L 748.751221 112.539016 
L 749.491832 113.517486 
L 749.55916 113.974106 
L 749.39084 114.822113 
L 749.256183 115.409195 
L 749.256183 115.963662 
L 749.55916 116.909516 
L 750.838397 117.822755 
L 752.420611 118.670762 
L 753.565191 119.159997 
L 754.37313 119.127382 
L 756.056336 118.670762 
L 756.796947 118.605531 
L 757.335573 118.735994 
L 758.076183 119.159997 
L 758.985115 119.942774 
L 759.254427 120.627703 
L 759.254427 121.019091 
L 758.985115 121.964945 
L 759.018779 122.715106 
L 759.153435 123.008647 
L 759.759389 123.269572 
L 761.240611 123.041262 
L 763.93374 122.128023 
L 765.212977 122.062792 
L 766.155573 122.128023 
L 768.646718 122.649874 
L 770.29626 123.367419 
L 772.821069 125.454822 
L 774.335954 126.82468 
L 775.076565 127.05299 
L 775.951832 127.05299 
L 776.759771 126.792064 
L 778.207328 125.878826 
L 778.947939 124.900356 
L 780.328168 121.377863 
L 781.607405 118.605531 
L 782.280687 117.659677 
L 783.021298 117.039979 
L 786.455038 116.12674 
L 787.93626 115.996277 
L 788.946183 115.963662 
L 789.619466 115.702736 
L 789.754122 115.278733 
L 789.518473 114.887345 
L 788.50855 114.300262 
L 783.223282 112.539016 
L 782.078702 111.951934 
L 780.42916 110.712539 
L 780.025191 109.897147 
L 779.789542 108.657751 
L 779.890534 106.472501 
L 780.597481 105.233106 
L 781.506412 104.45033 
L 786.118397 103.341397 
L 788.171908 102.460774 
L 789.720458 101.482304 
L 790.191756 100.536449 
L 791.100687 98.318584 
L 791.605649 97.66627 
L 793.760153 96.492106 
L 794.568092 96.002871 
L 794.871069 95.513636 
L 794.871069 95.154864 
L 793.457176 89.251427 
L 793.120534 87.261871 
L 793.288855 86.674789 
L 794.029466 86.022476 
L 797.092901 85.01139 
L 798.506794 84.228614 
L 799.348397 83.380606 
L 800.425649 80.901815 
L 800.829618 79.368879 
L 800.829618 78.781797 
L 798.506794 73.530674 
L 794.534427 69.029711 
L 793.322519 68.018625 
L 792.985878 67.496775 
L 792.985878 67.105387 
L 793.389847 66.518304 
L 796.318626 62.147805 
L 798.675115 59.049316 
L 799.483053 58.429618 
L 800.627634 58.136077 
L 802.243511 58.03823 
L 805.879237 58.299155 
L 808.471374 58.984084 
L 811.231832 60.321327 
L 813.049695 61.104103 
L 813.756641 61.104103 
L 815.069542 60.941025 
L 821.533053 59.24501 
L 822.038015 58.853622 
L 822.441985 57.875152 
L 823.014275 55.233282 
L 823.586565 53.537267 
L 825.034122 50.960629 
L 825.370763 50.243085 
L 825.539084 49.427693 
L 825.404427 46.329204 
L 825.471756 45.285503 
L 825.808397 44.731036 
L 826.582672 44.241801 
L 828.467863 43.654719 
L 829.949084 42.676249 
L 831.665954 41.208544 
L 832.743206 39.675607 
L 834.864046 35.402954 
L 835.268015 34.065712 
L 835.570992 31.717384 
L 836.008626 30.999839 
L 838.499771 28.586279 
L 841.664198 26.237951 
L 842.876107 25.194249 
L 843.078092 25.063787 
L 843.381069 25.194249 
L 844.559313 25.161634 
L 845.602901 24.998555 
L 846.41084 24.50932 
L 848.262366 23.074231 
L 852.941679 18.018802 
L 854.927863 16.192324 
L 855.668473 15.703089 
L 856.072443 15.637858 
L 856.510076 15.637858 
L 857.217023 15.800936 
L 857.923969 16.257556 
L 858.799237 17.301257 
L 859.708168 18.671115 
L 860.516107 20.399746 
L 861.35771 22.258839 
L 861.660687 22.78069 
L 861.963664 23.139462 
L 862.838931 23.954854 
L 866.205344 26.825033 
L 869.03313 28.945052 
L 870.75 30.119216 
L 872.096565 31.097686 
L 873.779771 32.304466 
L 874.554046 32.989395 
L 875.866947 34.098328 
L 877.078855 35.402954 
L 877.752137 36.316193 
L 878.358092 37.164201 
L 879.166031 38.762368 
L 879.502672 39.773454 
L 879.603664 40.425768 
L 879.502672 42.839327 
L 879.368015 44.17657 
L 878.930382 47.438137 
L 878.795725 49.101536 
L 878.795725 49.75385 
L 879.199695 52.102178 
L 880.243282 55.657286 
L 880.71458 56.864066 
L 881.152214 57.712073 
L 881.825496 58.755775 
L 882.498779 59.636398 
L 884.148321 61.593338 
L 886.370153 63.974282 
L 888.019695 65.735528 
L 889.164275 67.170618 
L 891.453435 70.138644 
L 892.833664 71.89989 
L 893.540611 72.910976 
L 895.594122 76.303006 
L 896.368397 77.803327 
L 897.176336 78.68395 
L 899.33084 80.184271 
L 901.855649 81.945517 
L 905.356718 84.130767 
L 906.972595 85.207084 
L 908.016183 86.21817 
L 908.958779 87.42495 
L 911.214275 85.859397 
L 912.291527 85.370162 
L 912.931145 85.370162 
L 913.638092 85.859397 
L 917.038168 89.708047 
L 922.12145 95.839793 
L 926.699771 100.764759 
L 929.258244 103.504475 
L 931.311756 105.689725 
L 933.499924 107.255278 
L 936.361374 109.440527 
L 937.371298 109.668837 
L 938.280229 109.668837 
L 940.098092 109.049139 
L 944.74374 106.211576 
L 944.811069 105.885419 
L 944.811069 105.265722 
L 943.59916 102.49339 
L 943.397176 101.417072 
L 943.397176 100.82999 
L 943.632824 99.818905 
L 944.710076 96.91611 
L 945.484351 94.893938 
L 946.123969 93.361002 
L 946.729924 92.610841 
L 947.369542 92.415147 
L 953.126107 92.447763 
L 954.136031 92.610841 
L 955.044962 92.936998 
L 956.896489 94.241625 
L 958.647023 96.426875 
L 960.801527 100.536449 
L 961.205496 101.971539 
L 961.306489 103.24355 
L 961.340153 105.4288 
L 961.710458 107.026968 
L 963.124351 109.049139 
L 965.985802 113.908874 
L 967.332366 115.604889 
L 970.934427 118.344606 
L 973.122595 120.432009 
L 974.671145 122.128023 
L 977.667252 126.59637 
L 980.966336 131.782262 
L 984.669389 136.870307 
L 989.618015 141.240807 
L 992.647786 143.556519 
L 995.845878 145.317766 
L 997.259771 146.067926 
L 998.168702 146.883318 
L 999.313282 148.285792 
L 1000.491527 150.601504 
L 1000.828168 152.101825 
L 1000.76084 153.406452 
L 1000.087557 156.570172 
L 999.78458 158.9185 
L 999.885573 161.168982 
L 1000.323206 162.604071 
L 1000.962824 163.484694 
L 1003.218321 165.637329 
L 1006.88771 171.997384 
L 1007.291679 173.138933 
L 1007.325344 174.574022 
L 1007.022366 177.052813 
L 1007.022366 178.096515 
L 1007.695649 179.009754 
L 1008.503588 179.368526 
L 1024.729695 186.804899 
L 1026.379237 187.424597 
L 1028.836718 187.979063 
L 1031.024885 188.207373 
L 1032.102137 188.109526 
L 1035.300229 187.163671 
L 1038.498321 186.087354 
L 1039.676565 185.663351 
L 1041.326107 185.500272 
L 1042.16771 185.467657 
L 1043.244962 185.630735 
L 1044.322214 186.185201 
L 1048.025267 189.772925 
L 1048.833206 190.099082 
L 1050.550076 190.457854 
L 1052.064962 190.881858 
L 1052.670916 191.24063 
L 1056.474962 198.383462 
L 1056.676947 199.198854 
L 1056.676947 200.046861 
L 1056.340305 201.351488 
L 1056.340305 201.905955 
L 1056.710611 202.493037 
L 1058.865115 204.091205 
L 1062.130534 206.015529 
L 1063.174122 207.059231 
L 1063.81374 207.809391 
L 1065.36229 209.733716 
L 1066.540534 211.853734 
L 1067.819771 213.712828 
L 1068.257405 214.462988 
L 1068.829695 216.419928 
L 1069.2 220.529503 
L 1069.2 221.997208 
L 1068.796031 223.269219 
L 1066.540534 225.356622 
L 1064.21771 227.346178 
L 1062.265191 229.009577 
L 1061.255267 230.444667 
L 1060.615649 231.520984 
L 1060.447328 232.434223 
L 1060.480992 233.086536 
L 1060.817634 234.749935 
L 1061.322595 236.315488 
L 1061.423588 237.065648 
L 1061.255267 237.815808 
L 1060.38 238.957357 
L 1058.865115 240.849066 
L 1058.696794 241.305685 
L 1058.696794 241.990614 
L 1061.221603 249.459603 
" clip-path="url(#p60ba35363b)"/>
   </g>
  </g>
 </g>
 <defs>
  <clipPath id="p60ba35363b">
   <rect x="10.8" y="15.637858" width="1058.4" height="1048.724284"/>
  </clipPath>
 </defs>
</svg>
