<?xml version="1.0" encoding="utf-8" standalone="no"?>
<!DOCTYPE svg PUBLIC "-//W3C//DTD SVG 1.1//EN"
  "http://www.w3.org/Graphics/SVG/1.1/DTD/svg11.dtd">
<svg xmlns:xlink="http://www.w3.org/1999/xlink" width="1080pt" height="1080pt" viewBox="0 0 1080 1080" xmlns="http://www.w3.org/2000/svg" version="1.1">
 <metadata>
  <rdf:RDF xmlns:dc="http://purl.org/dc/elements/1.1/" xmlns:cc="http://creativecommons.org/ns#" xmlns:rdf="http://www.w3.org/1999/02/22-rdf-syntax-ns#">
   <cc:Work>
    <dc:type rdf:resource="http://purl.org/dc/dcmitype/StillImage"/>
    <dc:date>2022-07-01T13:43:22.117428</dc:date>
    <dc:format>image/svg+xml</dc:format>
    <dc:creator>
     <cc:Agent>
      <dc:title>Matplotlib v3.5.1, https://matplotlib.org/</dc:title>
     </cc:Agent>
    </dc:creator>
   </cc:Work>
  </rdf:RDF>
 </metadata>
 <defs>
  <style type="text/css">*{stroke-linejoin: round; stroke-linecap: butt}</style>
 </defs>
 <g id="figure_1">
  <g id="patch_1">
   <path d="M 0 1080 
L 1080 1080 
L 1080 0 
L 0 0 
L 0 1080 
z
" style="fill: none; opacity: 0"/>
  </g>
  <g id="axes_1">
   <g id="PatchCollection_1">
    <path d="M 794.788125 35.120121 
L 794.109695 39.867292 
L 793.05436 46.878498 
L 793.129741 55.71554 
L 794.034314 72.951421 
L 794.034314 77.187359 
L 792.978978 79.597461 
L 791.094451 81.058129 
L 785.893155 81.788463 
L 782.877911 82.518797 
L 781.747194 83.541264 
L 781.370289 85.367099 
L 782.953292 92.378305 
L 783.933246 100.631079 
L 784.536295 103.260282 
L 784.913201 108.737786 
L 784.762438 110.344521 
L 784.234771 111.220922 
L 782.576386 112.46249 
L 777.525853 115.091692 
L 774.359846 116.917527 
L 773.002986 118.305161 
L 772.475319 119.546729 
L 771.19384 122.906266 
L 768.781645 128.16467 
L 767.500166 131.743307 
L 767.500166 133.130941 
L 768.857026 136.271377 
L 770.967697 141.529782 
L 771.570745 144.378084 
L 771.344602 145.619652 
L 771.043078 147.007287 
L 768.253977 150.001656 
L 763.052681 155.698261 
L 760.26358 159.276898 
L 759.509769 160.664532 
L 758.454434 166.799338 
L 755.137665 178.265581 
L 753.931568 183.962186 
L 754.08233 185.13072 
L 755.213046 186.226221 
L 759.132864 186.883522 
L 761.017391 187.90599 
L 761.771202 189.512724 
L 762.223489 192.872261 
L 762.223489 195.64753 
L 761.168153 200.759868 
L 759.132864 205.726139 
L 758.982101 207.332873 
L 759.434388 208.866575 
L 761.997345 212.007011 
L 762.9773 213.540712 
L 764.33416 216.462048 
L 760.640486 220.259785 
L 757.022193 222.450787 
L 753.780805 223.765388 
L 750.087131 225.445156 
L 744.433549 228.366492 
L 741.945972 229.82716 
L 740.890637 231.141761 
L 740.136826 232.456362 
L 739.986064 235.304665 
L 739.307634 236.765333 
L 737.573868 237.933867 
L 719.18088 243.484405 
L 716.768684 243.703505 
L 713.602678 243.192272 
L 707.722952 241.585537 
L 703.576991 240.490036 
L 700.410985 239.832735 
L 694.154354 238.956335 
L 690.536061 238.445101 
L 688.500771 238.445101 
L 685.03324 239.102401 
L 682.847188 239.686669 
L 681.113423 240.417002 
L 679.53042 241.43947 
L 680.962661 246.697875 
L 682.168758 250.276511 
L 681.414947 252.17538 
L 678.248941 255.461882 
L 676.515176 258.018051 
L 676.289032 260.13602 
L 676.8167 263.130389 
L 681.038042 268.680927 
L 687.822341 275.6191 
L 693.023637 278.175269 
L 694.832784 279.05167 
L 695.9635 280.147171 
L 697.621884 282.849407 
L 697.923409 283.871874 
L 697.848028 285.040409 
L 697.395741 286.135909 
L 696.114262 287.523544 
L 688.576152 292.489815 
L 687.294673 293.87745 
L 686.239338 295.703285 
L 682.017996 304.029092 
L 679.153514 310.529064 
L 678.701228 312.135799 
L 678.701228 314.618935 
L 680.359612 316.956003 
L 689.10382 321.411041 
L 701.541702 329.298648 
L 705.612281 332.512117 
L 706.441473 333.680651 
L 706.592235 340.034557 
L 709.155193 340.326691 
L 716.994828 339.45029 
L 731.844905 336.090754 
L 739.609158 333.242451 
L 743.378213 332.14695 
L 749.33332 332.14695 
L 759.359007 333.607618 
L 767.726309 335.214353 
L 768.178596 335.433453 
L 774.736752 338.792989 
L 779.938048 342.371626 
L 785.063963 346.388463 
L 788.908399 352.158101 
L 791.094451 357.270439 
L 807.150626 352.231134 
L 822.980657 349.528899 
L 824.789803 349.821032 
L 825.995901 350.8435 
L 826.900474 354.349103 
L 828.935764 361.141209 
L 828.935764 362.163677 
L 828.181953 363.186144 
L 825.166709 365.304113 
L 822.980657 368.006348 
L 821.473035 370.635551 
L 820.4177 374.141154 
L 820.719224 375.017555 
L 821.774559 375.893955 
L 823.659087 376.259122 
L 825.769758 375.382722 
L 828.558859 373.118686 
L 835.946207 369.393983 
L 838.509164 368.517582 
L 840.167548 368.371515 
L 841.072122 368.882749 
L 843.258173 370.781617 
L 845.821131 372.169252 
L 848.987137 372.972619 
L 853.660766 373.556887 
L 857.128296 373.045653 
L 859.691254 371.658018 
L 861.651162 369.174883 
L 863.837214 364.208612 
L 868.510843 363.405244 
L 874.918236 361.214242 
L 879.591865 360.703009 
L 885.546972 361.141209 
L 891.728222 363.405244 
L 895.195753 363.843445 
L 898.663283 363.113111 
L 902.356957 360.118741 
L 906.050631 357.489539 
L 910.498117 356.101904 
L 916.90551 355.298537 
L 929.569535 354.787303 
L 935.750786 354.71427 
L 939.44446 355.882804 
L 944.645756 360.045708 
L 952.410009 368.371515 
L 958.138973 372.972619 
L 974.572053 384.073696 
L 983.24088 390.062434 
L 989.949798 396.124206 
L 995.452618 402.551145 
L 997.714052 406.056749 
L 998.99553 410.219652 
L 1000.050866 416.062324 
L 1001.784631 419.567927 
L 1005.478305 423.730831 
L 1005.930592 424.022964 
L 998.467863 428.185868 
L 991.608182 431.545404 
L 987.311459 432.713939 
L 965.375559 435.781341 
L 964.244842 436.000442 
L 963.114126 436.073475 
L 959.948119 435.562241 
L 955.87754 434.393707 
L 948.264049 432.860006 
L 945.474948 432.640905 
L 943.891945 432.640905 
L 942.610466 433.079106 
L 941.555131 433.882473 
L 940.047508 436.073475 
L 938.162981 439.506045 
L 936.429216 441.624013 
L 934.544688 442.938614 
L 932.584779 443.303781 
L 930.54949 443.303781 
L 928.5142 442.865581 
L 926.855816 442.354347 
L 925.725099 441.477946 
L 924.368239 439.140878 
L 923.011379 434.977974 
L 921.503757 430.888104 
L 919.920754 428.624068 
L 918.865419 427.893734 
L 918.036227 427.601601 
L 916.980891 427.747668 
L 916.377842 427.820701 
L 915.774794 428.331935 
L 915.322507 429.208336 
L 903.110769 450.168921 
L 898.43714 458.932929 
L 897.381805 466.017168 
L 897.231043 471.202539 
L 897.155661 471.64074 
L 898.286378 474.927243 
L 899.643238 478.724979 
L 902.658482 483.545184 
L 911.251928 493.623792 
L 913.965647 496.910295 
L 917.734702 501.292299 
L 919.769992 502.752967 
L 922.483712 504.432735 
L 926.629672 505.893403 
L 933.941639 508.376539 
L 948.188668 512.101242 
L 951.731579 513.050676 
L 954.294537 514.219211 
L 955.500634 515.460778 
L 956.028302 517.067513 
L 956.103683 520.64615 
L 954.897586 527.365222 
L 954.52068 533.134861 
L 954.671442 535.617996 
L 955.500634 537.808998 
L 957.686686 540.730334 
L 963.566412 547.376373 
L 968.16466 551.977477 
L 969.144614 553.365112 
L 969.521519 555.26398 
L 969.144614 558.258349 
L 968.390803 561.983053 
L 969.898425 566.292023 
L 973.592099 568.336958 
L 965.903226 567.898758 
L 964.09408 568.190892 
L 962.435696 569.432459 
L 960.626549 571.988628 
L 956.179064 579.438035 
L 950.073195 590.246978 
L 947.057951 594.190781 
L 942.007417 596.600883 
L 936.956883 597.18515 
L 932.810923 596.162683 
L 928.288057 591.707646 
L 927.383483 588.78631 
L 928.212675 585.645874 
L 936.579978 578.999834 
L 941.705893 574.763897 
L 942.91199 571.477394 
L 942.158179 566.365057 
L 940.349033 563.662821 
L 935.600023 559.792051 
L 929.117249 556.359481 
L 925.423575 555.921281 
L 923.237523 556.651615 
L 922.106806 558.550483 
L 922.257568 568.556059 
L 922.634474 578.707701 
L 921.352995 583.308805 
L 918.186989 587.982942 
L 914.267172 591.269445 
L 910.950403 593.168314 
L 906.578299 594.336848 
L 902.658482 594.336848 
L 900.020143 592.949213 
L 899.190951 590.831245 
L 899.341713 579.803202 
L 899.492476 571.477394 
L 899.341713 568.409992 
L 898.587902 565.050455 
L 897.306424 563.662821 
L 895.798802 563.078554 
L 894.140417 563.370687 
L 890.371362 565.050455 
L 886.300783 566.21899 
L 884.190112 566.145956 
L 881.928679 565.269556 
L 881.32563 564.320121 
L 877.631956 567.898758 
L 876.048953 569.943693 
L 874.918236 572.280762 
L 874.239806 576.224565 
L 873.862901 582.651504 
L 874.767474 584.696439 
L 874.993617 588.275076 
L 874.390569 591.269445 
L 872.732184 595.432349 
L 872.732184 599.010985 
L 873.184471 605.803091 
L 873.485995 609.965995 
L 873.033709 611.937897 
L 871.601468 614.567099 
L 867.229364 618.949103 
L 861.575781 622.235606 
L 858.786681 623.62324 
L 855.469912 625.010875 
L 850.947046 625.960309 
L 848.082564 626.033343 
L 846.801085 626.106376 
L 845.218082 626.179409 
L 844.162747 626.83671 
L 843.936603 628.443445 
L 844.011985 630.050179 
L 844.539652 638.01082 
L 844.765796 640.786089 
L 845.594988 641.88159 
L 849.288662 644.656859 
L 857.505202 650.645598 
L 860.369684 652.398399 
L 865.269455 653.859067 
L 867.530888 654.954568 
L 868.586224 655.904002 
L 869.113891 657.656804 
L 869.490797 660.359039 
L 868.963129 669.050014 
L 868.133937 675.038752 
L 867.455507 678.179189 
L 867.455507 679.71289 
L 868.435462 681.027491 
L 871.149181 683.14546 
L 872.882947 683.58366 
L 877.707337 683.14546 
L 880.948725 683.14546 
L 883.059395 684.167927 
L 884.943923 686.870163 
L 889.768313 695.41507 
L 891.426698 700.965609 
L 891.426698 704.252112 
L 890.748268 706.735247 
L 884.943923 715.499255 
L 883.662444 717.471157 
L 881.702536 716.083522 
L 877.556575 715.426221 
L 871.299943 715.645322 
L 864.817169 717.252056 
L 861.274257 719.296991 
L 859.088205 721.19586 
L 858.409775 723.386862 
L 858.108251 727.768866 
L 857.429821 733.173337 
L 856.67601 735.729506 
L 853.359241 742.886779 
L 850.494759 746.465415 
L 846.42418 749.021584 
L 841.222884 749.678885 
L 838.283021 749.386751 
L 836.85078 747.195749 
L 836.85078 744.63958 
L 837.001542 741.133977 
L 839.639881 733.611537 
L 839.790643 730.617168 
L 838.88607 728.426166 
L 837.453829 726.892465 
L 831.498722 725.943031 
L 816.196358 724.993596 
L 810.090489 725.06663 
L 804.361525 726.089097 
L 801.497043 727.622799 
L 799.23561 731.566602 
L 797.501845 740.184543 
L 796.220366 743.251946 
L 793.582027 745.808115 
L 791.471356 746.465415 
L 789.436067 745.662048 
L 788.531493 743.836213 
L 788.154588 738.066575 
L 787.400777 733.173337 
L 785.742393 727.914932 
L 781.897956 721.341927 
L 778.279664 718.493624 
L 775.792087 718.20149 
L 770.741553 719.370025 
L 767.575547 720.611593 
L 764.183397 718.712724 
L 762.072727 717.179023 
L 759.811294 715.061054 
L 758.982101 714.914988 
L 757.474479 715.645322 
L 755.816095 717.252056 
L 755.514571 717.76329 
L 759.132864 724.555396 
L 757.700623 725.577864 
L 756.645287 726.965498 
L 756.645287 728.791333 
L 756.720668 729.302567 
L 748.277985 735.072205 
L 758.605196 748.948551 
L 761.243534 751.212586 
L 762.675775 752.527187 
L 765.238733 754.645156 
L 776.168993 760.779961 
L 781.822575 764.358598 
L 784.536295 767.133867 
L 785.742393 770.347336 
L 785.742393 773.779906 
L 784.611676 779.257411 
L 782.727149 784.954016 
L 775.264419 794.667458 
L 769.987742 800.437096 
L 769.233931 803.139332 
L 769.535456 805.914601 
L 772.173794 807.740436 
L 776.545898 808.835937 
L 780.239572 809.274137 
L 790.416021 807.81347 
L 801.572424 805.0382 
L 806.924482 804.307866 
L 812.728827 804.234833 
L 817.100931 804.673033 
L 820.719224 806.498868 
L 822.226846 808.543803 
L 822.52837 812.195473 
L 822.52837 817.453878 
L 821.849941 822.274082 
L 819.965413 825.706652 
L 813.181114 836.734695 
L 810.542775 841.335799 
L 808.281342 845.206569 
L 806.472196 843.672868 
L 804.587668 840.970632 
L 799.763278 834.178526 
L 798.104893 832.206624 
L 797.275701 831.403257 
L 795.84346 830.892023 
L 793.732789 830.892023 
L 790.416021 831.111123 
L 786.194679 831.841457 
L 779.033475 833.959426 
L 771.87227 839.802098 
L 766.972498 845.352636 
L 765.163352 846.813304 
L 763.881873 847.251504 
L 765.766401 848.493072 
L 768.253977 851.195308 
L 773.832179 857.91438 
L 780.314953 868.066023 
L 785.290106 877.998565 
L 788.229969 889.610875 
L 788.30535 896.622081 
L 787.023871 900.638918 
L 783.179435 906.116423 
L 777.978139 914.807397 
L 777.676615 917.217499 
L 778.505807 919.919735 
L 781.068764 921.818603 
L 784.687057 922.841071 
L 788.380731 923.863539 
L 783.857865 928.756776 
L 776.772041 936.133149 
L 773.304511 939.054485 
L 769.083169 940.66122 
L 762.29887 942.487055 
L 757.700623 942.121888 
L 754.76076 941.318521 
L 748.428747 937.885951 
L 744.433549 935.329782 
L 742.172116 935.329782 
L 739.986064 936.35225 
L 737.046201 939.711786 
L 731.467999 949.571295 
L 725.663654 983.970025 
L 724.457557 987.402595 
L 724.231413 988.132929 
L 722.573029 990.908198 
L 718.803974 993.902567 
L 714.884157 995.290201 
L 706.818379 997.40817 
L 702.446275 997.481203 
L 672.67074 1000.110406 
L 670.333925 999.745239 
L 668.449398 998.065471 
L 666.56487 992.149765 
L 665.057248 987.329561 
L 662.494291 983.750925 
L 656.916089 979.222854 
L 650.659458 975.279051 
L 642.744442 972.795915 
L 634.150996 971.554347 
L 630.532704 971.40828 
L 627.366697 971.700414 
L 618.471727 975.425117 
L 614.024242 977.323986 
L 609.199852 979.368921 
L 604.224699 982.655424 
L 602.415552 984.554292 
L 600.606406 988.498096 
L 599.626452 991.273365 
L 597.666543 991.419431 
L 595.932778 992.368866 
L 592.69139 994.486834 
L 586.962427 999.380072 
L 581.987274 1003.835109 
L 574.599926 1008.80138 
L 572.187731 1010.627215 
L 570.152441 1012.599117 
L 567.815627 1016.250787 
L 565.931099 1016.469887 
L 554.39779 1017.492354 
L 548.89497 1019.683356 
L 542.71372 1022.823792 
L 533.215701 1029.469832 
L 526.280639 1033.997902 
L 522.963871 1035.67767 
L 517.687194 1037.357439 
L 513.541233 1037.868672 
L 509.018367 1037.795639 
L 503.74169 1036.408004 
L 501.103351 1035.02037 
L 497.937345 1032.026001 
L 494.319052 1026.183329 
L 489.645424 1019.683356 
L 487.233229 1017.346288 
L 484.142603 1016.615954 
L 480.825835 1016.615954 
L 476.529112 1017.419321 
L 471.177054 1020.267624 
L 463.111276 1027.351863 
L 455.87469 1034.509136 
L 450.974918 1038.89114 
L 443.059903 1043.20011 
L 428.888256 1050.649517 
L 427.003728 1051.598951 
L 417.656471 1057.80679 
L 414.490465 1058.902291 
L 412.153651 1058.756224 
L 409.515312 1057.222523 
L 402.278727 1050.06525 
L 399.338864 1047.436047 
L 397.303574 1046.85178 
L 395.343665 1047.143914 
L 391.499229 1048.312448 
L 379.438253 1052.621419 
L 373.030859 1053.862986 
L 368.507993 1054.082087 
L 364.8897 1053.497819 
L 361.196026 1051.818051 
L 357.653114 1048.531548 
L 355.090157 1045.172012 
L 349.285812 1036.334971 
L 347.401284 1033.997902 
L 345.818281 1032.537234 
L 343.858373 1031.660834 
L 341.295415 1031.441733 
L 339.410887 1031.441733 
L 336.546406 1032.026001 
L 330.742061 1034.436103 
L 321.244042 1039.11024 
L 312.349072 1045.025945 
L 311.595261 1047.363014 
L 313.253645 1050.430417 
L 317.927273 1054.958487 
L 322.223996 1058.02589 
L 327.425292 1060.070825 
L 335.038784 1061.020259 
L 344.235278 1061.969694 
L 348.607382 1063.211261 
L 350.567291 1065.475297 
L 351.094958 1068.323599 
L 347.325903 1069.053933 
L 342.727656 1069.2 
L 340.089317 1068.907866 
L 336.546406 1067.447198 
L 331.872777 1065.913497 
L 328.556009 1065.32923 
L 324.334667 1065.256197 
L 319.585658 1065.256197 
L 313.404407 1065.037096 
L 311.746023 1064.525863 
L 310.84145 1063.430362 
L 305.715535 1052.621419 
L 298.629711 1044.660778 
L 291.242363 1039.256307 
L 281.895107 1034.217002 
L 273.678567 1030.565333 
L 270.211036 1027.71703 
L 266.291219 1021.509191 
L 252.798001 990.543031 
L 251.591904 986.161027 
L 251.516523 979.588021 
L 254.154861 969.655479 
L 254.154861 965.273475 
L 250.084282 947.74546 
L 248.124373 944.458957 
L 246.239845 942.560088 
L 237.571019 940.88032 
L 226.640759 939.711786 
L 223.851658 938.543251 
L 214.956688 931.897212 
L 213.147542 929.560144 
L 204.780239 914.296163 
L 200.70966 916.121998 
L 193.096168 917.947833 
L 186.311869 918.239967 
L 182.618195 917.290533 
L 179.979857 914.807397 
L 175.456991 908.161358 
L 165.355923 892.970411 
L 155.707142 878.144632 
L 153.596471 876.464863 
L 150.731989 875.95363 
L 149.148986 876.026663 
L 145.455312 877.049131 
L 143.420022 879.240132 
L 143.193879 879.751366 
L 141.610876 882.964836 
L 139.801729 884.206404 
L 136.108055 885.521005 
L 131.132903 884.790671 
L 124.80089 880.627767 
L 118.845783 874.639028 
L 110.176956 862.223351 
L 109.875432 861.78515 
L 104.97566 854.993044 
L 99.397459 847.105437 
L 94.874592 842.2122 
L 89.89944 837.757163 
L 86.959577 834.835827 
L 86.959577 832.352691 
L 89.824059 830.307756 
L 94.271544 829.577422 
L 98.945172 828.554954 
L 100.8297 827.021253 
L 102.111178 824.830251 
L 104.674136 817.380845 
L 104.598755 814.167375 
L 104.29723 811.68424 
L 103.015752 808.68987 
L 99.774364 805.768534 
L 90.276345 797.953961 
L 82.587473 791.819155 
L 81.6829 790.066354 
L 75.200125 792.111289 
L 74.069408 789.33602 
L 74.220171 786.268617 
L 74.973982 783.712448 
L 80.250659 771.369804 
L 82.662854 764.796798 
L 82.813616 762.824896 
L 82.662854 761.364229 
L 81.6829 760.122661 
L 79.496848 757.055258 
L 78.893799 755.59459 
L 78.893799 754.353022 
L 80.401421 753.038421 
L 82.512092 752.088987 
L 86.959577 750.628319 
L 92.914684 749.678885 
L 99.171315 749.386751 
L 102.337322 742.886779 
L 105.352566 738.285675 
L 106.33252 734.049738 
L 107.086331 727.914932 
L 107.463237 716.229589 
L 108.970859 704.398178 
L 111.232292 697.167872 
L 113.569106 694.173503 
L 116.132063 690.960033 
L 116.659731 686.724096 
L 116.58435 678.836489 
L 115.453633 674.892686 
L 112.589151 672.40955 
L 100.980462 668.53878 
L 98.643648 658.021971 
L 98.492885 657.36467 
L 97.286788 653.0557 
L 96.985263 649.84223 
L 98.11598 647.213028 
L 109.800051 636.477118 
L 114.247536 632.241181 
L 118.318115 629.611979 
L 121.861027 627.347944 
L 122.539457 626.909743 
L 126.15775 624.937842 
L 132.188238 622.527739 
L 129.097613 611.061496 
L 122.614838 612.741264 
L 121.107216 608.651394 
L 120.127262 602.735689 
L 120.579548 598.426718 
L 122.388695 591.853712 
L 122.840981 581.336903 
L 122.539457 576.224565 
L 122.464076 574.471764 
L 122.916362 571.258294 
L 125.554701 568.994259 
L 130.379092 566.87629 
L 135.354244 564.393155 
L 136.786485 563.22462 
L 137.314153 562.34822 
L 137.238772 560.522385 
L 136.560342 559.572951 
L 133.846622 557.601049 
L 129.248375 553.584212 
L 123.745555 548.252774 
L 122.690219 547.30334 
L 118.845783 544.162904 
L 114.775203 542.775269 
L 108.970859 541.971902 
L 102.488084 541.971902 
L 95.628404 541.460668 
L 94.271544 541.387635 
L 90.351726 529.921391 
L 89.522534 520.86525 
L 93.668495 519.404582 
L 99.322078 513.415843 
L 94.497687 508.595639 
L 91.783967 506.769804 
L 87.713388 505.455203 
L 81.230613 504.140602 
L 78.818418 502.826001 
L 78.064607 501.000166 
L 78.064607 499.174331 
L 78.516893 495.595694 
L 79.64761 490.77549 
L 82.587473 480.331714 
L 84.999668 470.399172 
L 86.582671 466.528402 
L 88.014912 465.140767 
L 90.200964 463.972233 
L 94.497687 462.584598 
L 97.663693 462.584598 
L 99.548221 462.803699 
L 100.452794 463.534033 
L 108.292429 469.522771 
L 114.096774 474.196909 
L 117.488923 477.556445 
L 122.614838 484.348551 
L 124.574747 486.320453 
L 127.665372 486.977753 
L 131.735951 487.196853 
L 134.148147 486.466519 
L 137.012629 484.640685 
L 138.972537 484.202484 
L 140.404778 484.202484 
L 144.249214 484.859785 
L 152.16423 486.831686 
L 155.55638 488.365388 
L 157.290145 489.899089 
L 158.722386 492.163124 
L 158.722386 493.769859 
L 158.043956 496.472095 
L 155.480999 501.073199 
L 150.958132 507.427105 
L 146.812172 512.393376 
L 147.867507 513.050676 
L 154.274901 518.966381 
L 156.460953 525.320287 
L 160.757676 520.938283 
L 167.91888 513.56191 
L 177.190756 509.47204 
L 187.970253 506.112503 
L 201.538852 504.870936 
L 212.318349 502.241733 
L 236.591064 493.331659 
L 257.848535 484.421584 
L 270.135655 476.607011 
L 277.899908 474.416009 
L 284.458064 474.342975 
L 294.182226 477.921612 
L 305.790916 484.713718 
L 310.464544 484.713718 
L 325.540765 478.724979 
L 328.63139 478.724979 
L 339.863174 479.747447 
L 357.879257 482.157549 
L 356.899303 479.528347 
L 355.391681 472.955341 
L 355.3163 465.578968 
L 357.577733 459.736296 
L 362.251361 453.966657 
L 368.583374 448.123986 
L 378.458298 441.185813 
L 391.197705 432.860006 
L 398.735815 427.309467 
L 400.771105 422.927463 
L 400.695723 417.157825 
L 397.982004 408.101684 
L 396.549763 400.652277 
L 396.549763 395.393872 
L 397.529717 391.669169 
L 398.283528 388.8939 
L 403.258681 381.444494 
L 410.796791 373.775987 
L 419.314856 365.596246 
L 424.440771 360.703009 
L 430.471259 354.203036 
L 431.375832 352.304168 
L 431.074308 350.478333 
L 428.963637 347.045763 
L 422.933149 339.45029 
L 419.842523 334.264919 
L 418.561045 332.073917 
L 415.998087 325.208777 
L 414.339703 313.961634 
L 414.264322 304.175159 
L 413.133605 296.287552 
L 411.550602 292.854982 
L 408.912264 283.652774 
L 404.087873 270.360696 
L 401.901821 263.057356 
L 401.449534 259.551753 
L 400.921867 255.023682 
L 401.298772 249.254044 
L 403.86173 239.686669 
L 408.00769 231.652995 
L 410.344505 228.585592 
L 418.108758 222.74292 
L 428.662112 217.776649 
L 433.561884 215.512614 
L 438.009369 211.714877 
L 445.698241 201.417168 
L 450.598013 191.411593 
L 453.311733 181.406017 
L 453.311733 175.417278 
L 452.557922 168.771239 
L 449.994964 161.321833 
L 446.376671 154.748827 
L 437.330939 140.580348 
L 432.054262 131.086006 
L 427.908301 119.98493 
L 427.15449 114.434391 
L 427.380634 108.956887 
L 428.888256 103.406348 
L 430.395878 99.535578 
L 432.506548 96.614242 
L 434.617219 94.350207 
L 438.009369 93.98504 
L 440.873851 94.496274 
L 445.999766 96.029975 
L 450.824156 96.468176 
L 453.990163 96.395142 
L 455.497785 96.249075 
L 457.23155 98.220977 
L 457.23155 99.900745 
L 456.930026 102.237814 
L 455.19626 107.277118 
L 455.19626 108.956887 
L 455.573166 110.636655 
L 459.869889 114.653492 
L 470.347862 127.653436 
L 473.589249 131.305106 
L 478.262877 133.934309 
L 492.962192 143.574717 
L 496.88201 146.569086 
L 499.369586 146.86122 
L 500.801827 145.838752 
L 500.801827 144.158984 
L 499.67111 141.456749 
L 494.319052 135.46801 
L 494.243671 133.788242 
L 495.299006 132.765774 
L 497.108153 132.765774 
L 502.460211 133.057908 
L 521.380868 133.934309 
L 533.14032 133.496108 
L 535.627896 132.838808 
L 536.306326 131.451173 
L 535.92942 130.136572 
L 534.120274 126.119735 
L 533.743369 123.125366 
L 534.120274 121.810765 
L 536.230945 119.108529 
L 539.396951 116.041126 
L 543.316768 111.001822 
L 544.673628 107.277118 
L 551.307165 91.501904 
L 552.739406 90.11427 
L 554.548553 89.456969 
L 559.1468 89.383936 
L 562.388187 89.749103 
L 567.36334 90.041237 
L 571.660063 89.968203 
L 577.313646 87.265967 
L 582.967228 82.883964 
L 587.565475 78.428926 
L 590.053052 75.799724 
L 595.782016 74.046922 
L 603.923175 72.001987 
L 612.51662 70.249186 
L 621.41159 68.496384 
L 624.577596 66.816616 
L 627.065173 64.11438 
L 628.120508 61.046978 
L 629.778893 53.013304 
L 632.266469 43.299862 
L 634.301759 37.895391 
L 637.467765 32.856086 
L 641.764488 28.108915 
L 645.608924 24.092078 
L 648.473406 22.339277 
L 651.639412 21.681976 
L 655.936135 21.608943 
L 658.800617 21.97411 
L 664.152675 23.946012 
L 668.147873 26.940381 
L 671.31388 27.232514 
L 675.233697 27.232514 
L 681.339566 26.794314 
L 685.937814 25.114546 
L 690.159155 22.047143 
L 699.807936 20.002208 
L 704.783089 19.637041 
L 707.647571 19.929175 
L 710.135147 22.266243 
L 713.376535 25.62578 
L 720.537739 28.547116 
L 724.156032 29.569583 
L 730.18652 29.861717 
L 748.730272 28.035882 
L 760.112818 26.648247 
L 764.409541 24.895446 
L 767.198642 21.901076 
L 767.877071 14.524703 
L 768.178596 12.114601 
L 769.987742 10.8 
L 771.419983 10.8 
L 773.530654 11.457301 
L 775.038276 14.086503 
L 775.038276 19.125807 
L 775.792087 23.799945 
L 778.656569 26.502181 
L 782.576386 27.451615 
L 786.873109 28.108915 
L 790.114497 29.788683 
L 794.788125 35.120121 
" clip-path="url(#pd962bdcf81)"/>
   </g>
  </g>
 </g>
 <defs>
  <clipPath id="pd962bdcf81">
   <rect x="74.069408" y="10.8" width="931.861183" height="1058.4"/>
  </clipPath>
 </defs>
</svg>
