<?xml version="1.0" encoding="utf-8" standalone="no"?>
<!DOCTYPE svg PUBLIC "-//W3C//DTD SVG 1.1//EN"
  "http://www.w3.org/Graphics/SVG/1.1/DTD/svg11.dtd">
<svg xmlns:xlink="http://www.w3.org/1999/xlink" width="1080pt" height="1080pt" viewBox="0 0 1080 1080" xmlns="http://www.w3.org/2000/svg" version="1.1">
 <metadata>
  <rdf:RDF xmlns:dc="http://purl.org/dc/elements/1.1/" xmlns:cc="http://creativecommons.org/ns#" xmlns:rdf="http://www.w3.org/1999/02/22-rdf-syntax-ns#">
   <cc:Work>
    <dc:type rdf:resource="http://purl.org/dc/dcmitype/StillImage"/>
    <dc:date>2022-07-01T13:43:22.326511</dc:date>
    <dc:format>image/svg+xml</dc:format>
    <dc:creator>
     <cc:Agent>
      <dc:title>Matplotlib v3.5.1, https://matplotlib.org/</dc:title>
     </cc:Agent>
    </dc:creator>
   </cc:Work>
  </rdf:RDF>
 </metadata>
 <defs>
  <style type="text/css">*{stroke-linejoin: round; stroke-linecap: butt}</style>
 </defs>
 <g id="figure_1">
  <g id="patch_1">
   <path d="M 0 1080 
L 1080 1080 
L 1080 0 
L 0 0 
L 0 1080 
z
" style="fill: none; opacity: 0"/>
  </g>
  <g id="axes_1">
   <g id="PatchCollection_1">
    <path d="M 1061.908641 893.651431 
L 1054.586122 893.651431 
L 1052.249148 893.077836 
L 1051.314358 892.20235 
L 1051.625955 891.175917 
L 1054.118727 888.066429 
L 1060.818053 883.205967 
L 1064.837648 880.398371 
L 1067.330421 879.794587 
L 1069.044202 880.519128 
L 1069.2 882.753129 
L 1067.517379 886.436212 
L 1064.868808 890.692889 
L 1063.622422 892.775944 
L 1061.908641 893.651431 
" clip-path="url(#p6899360112)"/>
    <path d="M 604.453746 509.10135 
L 603.799394 509.312674 
L 601.960974 509.161728 
L 600.963865 508.920214 
L 600.434151 508.618322 
L 600.091395 508.135295 
L 600.247193 507.410754 
L 600.589949 506.776781 
L 601.026184 506.41451 
L 601.680537 506.082429 
L 602.30373 506.05224 
L 603.23852 506.505078 
L 604.297948 507.652268 
L 604.609545 508.437187 
L 604.453746 509.10135 
" clip-path="url(#p6899360112)"/>
    <path d="M 649.510607 509.252296 
L 648.918574 509.252296 
L 648.014944 509.222106 
L 646.5816 508.829647 
L 645.085936 507.893781 
L 644.493903 507.289997 
L 644.213466 506.927727 
L 644.213466 506.565456 
L 644.961298 505.871105 
L 645.709129 505.29751 
L 645.989566 505.206942 
L 646.55044 505.388078 
L 648.108423 506.293754 
L 649.635246 507.622079 
L 650.19612 508.376809 
L 650.102641 508.799458 
L 649.884523 509.040971 
L 649.510607 509.252296 
" clip-path="url(#p6899360112)"/>
    <path d="M 596.819631 506.686213 
L 596.321076 506.957916 
L 595.417446 506.535267 
L 593.641346 505.508834 
L 592.332641 504.240888 
L 592.270321 503.818239 
L 592.426119 503.576725 
L 592.986993 503.244644 
L 593.984102 503.154076 
L 595.97832 503.305022 
L 596.85079 503.667293 
L 597.567463 504.271077 
L 597.75442 504.814483 
L 597.318185 505.901294 
L 596.819631 506.686213 
" clip-path="url(#p6899360112)"/>
    <path d="M 611.402349 503.455968 
L 610.685677 503.486158 
L 609.408131 502.942752 
L 608.411022 502.308779 
L 607.133477 501.372913 
L 606.510284 500.014399 
L 606.292166 498.716263 
L 606.666082 497.448317 
L 607.507392 496.361505 
L 608.224065 496.089803 
L 608.784938 496.150181 
L 609.782047 496.723776 
L 611.776265 498.414371 
L 612.399458 499.259669 
L 612.617576 500.316291 
L 612.399458 501.463481 
L 612.025542 502.701238 
L 611.402349 503.455968 
" clip-path="url(#p6899360112)"/>
    <path d="M 340.188713 467.681762 
L 339.596679 467.772329 
L 338.537251 467.561005 
L 337.571302 467.138356 
L 337.135066 466.655329 
L 337.010428 466.23268 
L 337.041587 465.749653 
L 337.353184 465.296814 
L 337.664781 465.08549 
L 338.755368 464.904355 
L 339.783637 464.964733 
L 340.282192 465.145868 
L 340.687267 465.538328 
L 341.092343 466.051545 
L 341.154662 466.474193 
L 340.967704 467.077978 
L 340.687267 467.37987 
L 340.188713 467.681762 
" clip-path="url(#p6899360112)"/>
    <path d="M 545.063444 438.217098 
L 543.318503 438.941639 
L 542.944587 438.941639 
L 542.757629 438.730315 
L 542.72647 438.458612 
L 542.944587 437.945396 
L 543.287344 437.130287 
L 543.56778 436.918963 
L 543.879377 436.858584 
L 544.222133 436.858584 
L 544.907646 436.918963 
L 545.43736 437.160476 
L 545.468519 437.613314 
L 545.43736 437.975585 
L 545.063444 438.217098 
" clip-path="url(#p6899360112)"/>
    <path d="M 518.640057 438.458612 
L 518.110342 438.700126 
L 517.518309 438.639747 
L 516.676998 438.307666 
L 515.804528 437.76426 
L 515.025537 437.130287 
L 514.277705 436.315179 
L 513.405234 435.530259 
L 512.719722 434.624583 
L 512.532764 433.688718 
L 512.532764 433.115123 
L 512.87552 432.632096 
L 513.124798 432.390582 
L 513.654512 432.209447 
L 514.589301 432.390582 
L 515.61757 432.933988 
L 516.739318 433.809475 
L 517.923384 435.651016 
L 518.795855 437.190665 
L 518.889334 437.915206 
L 518.640057 438.458612 
" clip-path="url(#p6899360112)"/>
    <path d="M 503.247187 433.23588 
L 502.125439 433.23588 
L 500.660936 432.933988 
L 499.726146 432.601906 
L 499.227591 431.907555 
L 498.947155 431.364149 
L 498.635558 430.760365 
L 498.199323 429.733932 
L 498.012365 429.220716 
L 498.105844 428.918824 
L 498.323961 428.556553 
L 498.884835 428.164093 
L 499.663827 427.862201 
L 500.442818 427.741445 
L 501.221809 427.771634 
L 501.658045 428.013147 
L 501.876162 428.556553 
L 502.281238 429.522608 
L 502.842111 430.367905 
L 503.589943 431.183014 
L 504.306615 431.72642 
L 504.618212 431.998122 
L 504.649371 432.390582 
L 504.150817 432.933988 
L 503.247187 433.23588 
" clip-path="url(#p6899360112)"/>
    <path d="M 537.865564 431.72642 
L 536.868455 431.816987 
L 535.216993 431.243392 
L 534.811917 430.760365 
L 534.62496 430.216959 
L 534.62496 429.552797 
L 534.718438 428.918824 
L 535.653228 427.862201 
L 536.245262 427.469742 
L 536.650337 427.469742 
L 537.522807 427.862201 
L 538.20832 428.496175 
L 538.551076 429.220716 
L 538.551076 430.760365 
L 538.301799 431.484906 
L 537.865564 431.72642 
" clip-path="url(#p6899360112)"/>
    <path d="M 496.142786 426.111228 
L 495.488433 426.322552 
L 494.83408 426.292363 
L 493.774652 425.960282 
L 492.933341 425.205551 
L 492.528266 424.269686 
L 492.559425 423.424388 
L 492.871022 422.790415 
L 493.244938 422.428145 
L 493.805812 422.337577 
L 494.615963 422.488523 
L 495.644231 423.00174 
L 496.329744 423.967794 
L 496.61018 425.114984 
L 496.61018 425.65839 
L 496.142786 426.111228 
" clip-path="url(#p6899360112)"/>
    <path d="M 535.715547 426.111228 
L 535.030035 426.111228 
L 534.438002 425.6282 
L 533.752489 424.420632 
L 533.752489 422.669658 
L 533.814808 422.005496 
L 534.157565 421.46209 
L 534.656119 421.371523 
L 535.52859 421.613036 
L 536.712656 422.488523 
L 537.33585 423.514956 
L 537.242371 424.481011 
L 536.556858 425.537633 
L 535.715547 426.111228 
" clip-path="url(#p6899360112)"/>
    <path d="M 548.98956 421.220577 
L 548.491006 421.311144 
L 547.898973 420.979063 
L 546.621427 419.56017 
L 545.748956 418.684683 
L 545.4062 417.960142 
L 545.312721 417.145034 
L 545.468519 416.601628 
L 545.998234 415.846898 
L 547.026502 415.212925 
L 547.774334 415.122357 
L 548.459846 415.545006 
L 548.98956 416.420493 
L 549.332317 418.020521 
L 549.519275 419.771495 
L 549.425796 420.737549 
L 548.98956 421.220577 
" clip-path="url(#p6899360112)"/>
    <path d="M 537.896723 419.439413 
L 536.868455 419.741306 
L 535.590909 419.529981 
L 533.814808 419.046954 
L 533.378573 418.412981 
L 533.285094 417.597872 
L 533.191615 415.756331 
L 533.440893 414.307249 
L 533.877128 413.914789 
L 534.56264 413.49214 
L 535.746707 413.401573 
L 536.774976 413.250627 
L 538.114841 412.918545 
L 539.579345 412.586464 
L 540.171378 412.827978 
L 540.171378 413.311005 
L 538.987311 414.27706 
L 537.959043 414.850654 
L 537.367009 415.484628 
L 537.117732 416.299736 
L 537.117732 417.175223 
L 537.647446 417.839386 
L 538.146001 418.292224 
L 538.332958 418.775251 
L 537.896723 419.439413 
" clip-path="url(#p6899360112)"/>
    <path d="M 551.420014 415.635574 
L 550.921459 415.635574 
L 550.298266 415.182736 
L 549.363476 414.156303 
L 548.210569 412.978924 
L 547.618536 412.133626 
L 547.618536 411.650599 
L 547.961292 411.22795 
L 548.397527 410.895869 
L 548.958401 410.714733 
L 549.737392 410.714733 
L 550.82798 411.167572 
L 551.949728 412.073248 
L 552.448282 413.099681 
L 552.63524 413.612897 
L 552.697559 414.126114 
L 552.510601 414.63933 
L 552.261324 415.122357 
L 551.918568 415.484628 
L 551.420014 415.635574 
" clip-path="url(#p6899360112)"/>
    <path d="M 552.60408 404.193865 
L 551.825089 404.344811 
L 550.204787 403.952352 
L 548.584485 403.408946 
L 547.306939 402.533459 
L 546.34099 401.476837 
L 545.998234 400.510782 
L 545.748956 399.967377 
L 545.312721 399.48435 
L 544.720688 399.242836 
L 543.443142 399.09189 
L 542.165596 399.001322 
L 541.573563 398.608863 
L 540.794571 397.491862 
L 540.358336 396.133348 
L 540.358336 395.499375 
L 540.607613 394.352185 
L 541.012689 393.718212 
L 541.448924 393.567266 
L 542.72647 393.869158 
L 544.284453 394.593698 
L 545.717797 395.227672 
L 546.496788 395.620131 
L 548.023611 397.129592 
L 549.145359 398.488106 
L 549.92435 399.876809 
L 550.360585 400.903242 
L 550.952619 401.537215 
L 552.417123 402.593838 
L 552.915677 403.318378 
L 552.946837 403.771217 
L 552.60408 404.193865 
" clip-path="url(#p6899360112)"/>
    <path d="M 532.256826 396.555997 
L 530.698843 396.706943 
L 530.480725 396.676754 
L 529.514776 396.8277 
L 528.922743 396.646564 
L 528.26839 395.861645 
L 527.894474 395.227672 
L 527.551718 394.17105 
L 527.800995 393.054049 
L 528.206071 392.571022 
L 528.829264 392.571022 
L 529.826373 392.812535 
L 531.197397 393.265374 
L 534.811917 394.714455 
L 535.154674 395.197483 
L 534.967716 395.740888 
L 534.375682 395.982402 
L 532.256826 396.555997 
" clip-path="url(#p6899360112)"/>
    <path d="M 539.392387 393.476698 
L 538.893832 393.476698 
L 537.772085 393.325752 
L 535.715547 392.933292 
L 533.596691 392.782346 
L 532.724221 392.299319 
L 532.319145 391.755913 
L 532.474943 391.091751 
L 533.066977 390.699291 
L 533.596691 390.306832 
L 534.5938 389.97475 
L 536.151783 390.216264 
L 538.364118 390.669102 
L 539.298908 391.242697 
L 540.171378 392.027616 
L 540.264857 392.601211 
L 539.922101 393.144617 
L 539.392387 393.476698 
" clip-path="url(#p6899360112)"/>
    <path d="M 553.975105 395.831456 
L 553.289593 395.831456 
L 552.60408 395.650321 
L 551.575812 394.774834 
L 550.298266 393.114427 
L 549.332317 391.423832 
L 548.304048 389.642669 
L 548.210569 389.099263 
L 548.397527 388.706804 
L 548.896081 388.435101 
L 549.581594 388.676614 
L 550.79682 389.733237 
L 552.167845 391.001183 
L 553.009156 391.635156 
L 554.629458 393.325752 
L 554.909895 394.291806 
L 554.909895 394.92578 
L 554.380181 395.559753 
L 553.975105 395.831456 
" clip-path="url(#p6899360112)"/>
    <path d="M 544.720688 389.431345 
L 543.443142 390.004939 
L 542.851108 389.853993 
L 542.414873 388.887939 
L 542.508352 388.253966 
L 543.256184 387.046397 
L 544.377932 385.989775 
L 545.219242 385.748262 
L 546.247511 385.80864 
L 547.369258 385.899208 
L 548.304048 386.291667 
L 548.397527 386.623749 
L 548.210569 387.016208 
L 547.1823 387.891695 
L 544.720688 389.431345 
" clip-path="url(#p6899360112)"/>
    <path d="M 563.603439 387.34829 
L 563.167203 387.438857 
L 562.57517 387.136965 
L 562.232414 386.653938 
L 561.796179 384.721829 
L 561.546901 383.90672 
L 561.359943 383.423693 
L 561.359943 382.880287 
L 561.609221 382.457638 
L 562.388212 381.914233 
L 563.572279 381.733098 
L 564.600548 381.64253 
L 565.036783 381.974611 
L 565.379539 382.850098 
L 565.223741 383.90672 
L 564.694027 385.657694 
L 564.195472 386.714316 
L 563.603439 387.34829 
" clip-path="url(#p6899360112)"/>
    <path d="M 358.572909 386.321857 
L 357.669279 386.502992 
L 356.267095 386.412424 
L 355.425784 386.140721 
L 354.989549 385.687883 
L 354.927229 385.204856 
L 355.083028 384.027477 
L 355.519263 382.970855 
L 356.360573 381.129313 
L 356.734489 380.646286 
L 357.108405 380.585908 
L 357.5758 380.676475 
L 357.949716 381.038746 
L 358.51059 382.155746 
L 358.946825 384.057666 
L 359.071463 385.476559 
L 358.946825 386.019965 
L 358.572909 386.321857 
" clip-path="url(#p6899360112)"/>
    <path d="M 552.136686 380.8878 
L 553.943946 381.280259 
L 555.37729 381.280259 
L 556.748315 380.948178 
L 557.589625 381.189692 
L 558.306297 382.0048 
L 559.241087 383.212369 
L 560.175877 385.204856 
L 560.362835 386.019965 
L 560.362835 386.744505 
L 559.86428 387.71056 
L 558.493255 389.310588 
L 557.651945 389.793615 
L 555.844685 390.125696 
L 554.754097 390.125696 
L 553.632349 389.884183 
L 552.261324 389.099263 
L 551.077257 388.223776 
L 550.391745 387.167154 
L 550.017829 385.80864 
L 549.425796 383.967099 
L 548.646804 382.850098 
L 547.712015 381.884044 
L 547.369258 381.008557 
L 547.431578 380.525529 
L 547.774334 380.193448 
L 548.802603 380.193448 
L 550.609863 380.434962 
L 552.136686 380.8878 
" clip-path="url(#p6899360112)"/>
    <path d="M 544.689528 384.389748 
L 544.004016 384.510504 
L 543.193865 384.450126 
L 542.414873 384.208612 
L 541.355445 382.910477 
L 541.168487 381.914233 
L 541.355445 381.129313 
L 541.978638 380.253827 
L 542.851108 379.770799 
L 543.59894 380.012313 
L 545.032284 380.8878 
L 545.935914 381.763287 
L 546.247511 382.487828 
L 546.122872 383.001044 
L 545.188083 384.027477 
L 544.689528 384.389748 
" clip-path="url(#p6899360112)"/>
    <path d="M 566.688244 370.231011 
L 565.659976 370.65366 
L 564.288951 370.321578 
L 563.790397 370.080065 
L 563.354161 369.597038 
L 562.917926 369.053632 
L 563.011405 368.570605 
L 563.354161 368.087577 
L 564.039674 367.513982 
L 564.974463 367.363036 
L 566.407808 367.846064 
L 567.373757 368.721551 
L 567.280278 369.355524 
L 566.688244 370.231011 
" clip-path="url(#p6899360112)"/>
    <path d="M 438.497424 344.630566 
L 438.248147 344.660755 
L 437.874231 344.600377 
L 436.752483 344.207917 
L 436.316248 343.966403 
L 436.12929 343.543754 
L 436.19161 343.302241 
L 436.721324 342.758835 
L 437.344517 342.426754 
L 437.624954 342.396565 
L 437.843071 342.456943 
L 438.092348 342.668267 
L 438.466264 343.33243 
L 438.809021 343.966403 
L 438.809021 344.177728 
L 438.715542 344.47962 
L 438.497424 344.630566 
" clip-path="url(#p6899360112)"/>
    <path d="M 538.613395 342.909781 
L 537.990202 343.241862 
L 537.460488 343.211673 
L 536.993093 342.849403 
L 536.463379 342.094673 
L 536.151783 341.158807 
L 536.494539 340.615402 
L 536.774976 340.464456 
L 538.146001 340.011617 
L 539.98442 339.407833 
L 541.511243 338.954995 
L 542.165596 338.985185 
L 543.069226 339.347455 
L 543.59894 339.890861 
L 543.785898 340.31351 
L 543.754738 340.67578 
L 543.318503 340.947483 
L 542.352554 341.158807 
L 540.88805 341.460699 
L 540.140218 341.702213 
L 539.454706 342.275808 
L 538.613395 342.909781 
" clip-path="url(#p6899360112)"/>
    <path d="M 433.356081 340.826726 
L 433.106804 340.856915 
L 432.795207 340.736158 
L 432.670568 340.434266 
L 432.670568 340.132374 
L 432.701728 339.588969 
L 433.262602 337.65686 
L 433.387241 337.445535 
L 433.667677 337.173832 
L 434.010434 337.113454 
L 434.540148 337.113454 
L 435.381458 337.204022 
L 435.911173 337.324778 
L 436.098131 337.505914 
L 435.942332 337.958752 
L 434.789425 339.800293 
L 434.32203 340.373888 
L 433.729997 340.705969 
L 433.356081 340.826726 
" clip-path="url(#p6899360112)"/>
    <path d="M 360.909883 346.441918 
L 364.243966 344.539998 
L 365.365714 343.755079 
L 365.67731 343.090916 
L 369.260671 341.611645 
L 375.773039 338.502157 
L 379.761474 336.388913 
L 380.291189 336.388913 
L 381.03902 336.388913 
L 382.628163 336.388913 
L 383.687591 336.751183 
L 385.245574 338.3814 
L 388.361539 341.370132 
L 389.794883 343.483376 
L 390.854312 345.747566 
L 391.134748 347.317405 
L 391.01011 348.947622 
L 390.885471 350.638217 
L 391.103589 351.151434 
L 391.570984 351.392947 
L 392.163017 351.181623 
L 393.534042 349.611784 
L 394.936226 348.494784 
L 395.652898 348.102324 
L 396.40073 348.102324 
L 397.522478 348.585351 
L 399.329738 349.974055 
L 400.077569 350.789163 
L 400.389166 351.66465 
L 400.856561 353.56657 
L 400.95004 353.747705 
L 401.884829 357.460977 
L 402.289905 358.034572 
L 402.7573 358.336464 
L 403.380493 358.396843 
L 403.910207 358.215708 
L 405.094274 357.521356 
L 406.34066 357.279842 
L 407.150811 357.249653 
L 407.618206 357.581734 
L 408.272559 358.759113 
L 408.646475 360.117627 
L 408.14792 360.872358 
L 405.997904 361.868601 
L 395.808697 365.944144 
L 393.315924 366.578117 
L 392.318815 366.668685 
L 391.976059 366.396982 
L 391.508664 365.974333 
L 391.508664 364.978089 
L 391.259387 364.223359 
L 390.449236 363.649764 
L 389.981841 363.619575 
L 388.828934 363.559197 
L 387.052834 363.559197 
L 386.242683 363.981846 
L 385.55717 365.249792 
L 384.933977 366.427171 
L 383.78107 367.453604 
L 381.444096 368.298902 
L 378.078853 368.661172 
L 372.625913 368.691361 
L 368.793276 368.540415 
L 367.359932 368.540415 
L 366.020067 368.208334 
L 365.116437 367.393226 
L 364.586722 366.45736 
L 364.025849 363.770521 
L 362.561345 355.619436 
L 361.813513 351.091055 
L 361.439597 348.826865 
L 361.128001 346.924945 
L 360.909883 346.441918 
" clip-path="url(#p6899360112)"/>
    <path d="M 524.248794 330.954856 
L 524.030677 330.954856 
L 523.75024 330.713343 
L 523.625601 330.200126 
L 523.438643 328.962369 
L 523.438643 327.543476 
L 523.469803 327.03026 
L 523.71908 326.698178 
L 524.030677 326.607611 
L 524.466912 326.667989 
L 525.090105 327.060449 
L 525.869096 327.966125 
L 526.305332 328.781234 
L 526.46113 329.385018 
L 526.46113 329.958613 
L 526.243012 330.351072 
L 525.682139 330.622775 
L 524.68503 330.924667 
L 524.248794 330.954856 
" clip-path="url(#p6899360112)"/>
    <path d="M 440.896717 327.301963 
L 442.080784 329.65672 
L 442.298902 330.109559 
L 442.298902 330.502018 
L 441.893826 331.498262 
L 441.083675 332.856776 
L 440.616281 333.46056 
L 440.086566 333.85302 
L 438.995978 334.426615 
L 437.874231 334.788885 
L 437.001761 334.909642 
L 435.599576 334.819074 
L 431.922737 334.366236 
L 430.146636 334.21529 
L 429.679242 333.973777 
L 429.492284 333.792641 
L 429.492284 333.490749 
L 429.585763 333.09829 
L 430.427073 331.619019 
L 430.73867 330.924667 
L 430.832149 330.562397 
L 430.76983 330.320883 
L 430.520552 329.928423 
L 430.146636 329.717099 
L 429.679242 329.596342 
L 429.056049 329.535964 
L 427.903141 329.68691 
L 427.404587 329.68691 
L 426.999511 329.535964 
L 426.719074 329.29445 
L 426.719074 328.962369 
L 427.12415 327.966125 
L 427.435746 327.332152 
L 427.903141 326.879314 
L 429.8662 325.913259 
L 432.203174 324.947205 
L 433.543039 324.615123 
L 435.038702 324.524556 
L 436.066971 324.554745 
L 437.624954 324.766069 
L 438.653222 325.067961 
L 439.307575 325.49061 
L 439.77497 325.913259 
L 440.273524 326.396286 
L 440.896717 327.301963 
" clip-path="url(#p6899360112)"/>
    <path d="M 451.677958 315.407416 
L 451.335202 315.467795 
L 450.805488 315.437605 
L 450.462731 315.25647 
L 450.119975 314.773443 
L 449.808379 313.233793 
L 449.496782 311.211117 
L 449.496782 310.305441 
L 449.68374 310.063927 
L 449.995337 309.973359 
L 450.431572 310.033738 
L 451.491 310.516765 
L 452.737386 311.301684 
L 453.360579 312.056415 
L 453.516378 312.841334 
L 453.422899 313.716821 
L 453.111302 314.320605 
L 452.238832 315.135713 
L 451.677958 315.407416 
" clip-path="url(#p6899360112)"/>
    <path d="M 472.27449 311.211117 
L 471.744776 311.271495 
L 471.3397 311.211117 
L 470.809986 310.909225 
L 470.529549 310.396008 
L 470.404911 309.460143 
L 470.43607 308.735602 
L 470.716507 308.312953 
L 471.152742 308.282764 
L 471.962893 308.463899 
L 473.770153 308.79598 
L 474.299868 308.946926 
L 474.704943 309.218629 
L 474.798422 309.641278 
L 474.736103 310.094116 
L 474.362187 310.516765 
L 473.520876 310.969603 
L 472.27449 311.211117 
" clip-path="url(#p6899360112)"/>
    <path d="M 482.681815 310.909225 
L 482.370218 310.939414 
L 481.809344 310.788468 
L 480.812235 310.33563 
L 480.531799 310.063927 
L 480.220202 309.641278 
L 479.877446 308.222386 
L 479.970925 307.829926 
L 480.344841 307.407277 
L 481.186151 306.954439 
L 481.591227 306.894061 
L 481.840504 307.045007 
L 482.21442 307.528034 
L 482.619495 308.645034 
L 482.931092 310.033738 
L 482.931092 310.456387 
L 482.868773 310.72809 
L 482.681815 310.909225 
" clip-path="url(#p6899360112)"/>
    <path d="M 452.207672 309.671467 
L 451.802597 309.822413 
L 451.428681 309.671467 
L 450.961286 309.158251 
L 450.58737 308.252575 
L 450.182295 307.075196 
L 450.182295 306.411033 
L 450.431572 305.444979 
L 450.867807 304.62987 
L 451.304042 304.177032 
L 451.615639 304.026086 
L 452.020714 303.965708 
L 452.207672 304.056275 
L 452.39463 304.177032 
L 454.575806 307.165763 
L 454.762764 307.407277 
L 454.762764 307.709169 
L 454.513487 308.04125 
L 452.924344 309.18844 
L 452.207672 309.671467 
" clip-path="url(#p6899360112)"/>
    <path d="M 440.709759 307.67898 
L 440.398163 307.920494 
L 439.993087 307.890304 
L 439.525693 307.588412 
L 438.497424 306.652547 
L 437.500315 305.928006 
L 437.251038 305.686492 
L 437.251038 305.444979 
L 437.313357 305.233654 
L 438.497424 303.905329 
L 438.777861 303.694005 
L 439.151777 303.573248 
L 439.432214 303.663816 
L 439.650331 303.905329 
L 439.899608 304.539303 
L 440.709759 307.28652 
L 440.709759 307.67898 
" clip-path="url(#p6899360112)"/>
    <path d="M 442.049625 305.77706 
L 441.519911 305.77706 
L 441.177154 305.595925 
L 441.052516 305.3846 
L 441.052516 304.992141 
L 441.239474 304.418546 
L 441.987305 302.426058 
L 442.049625 302.244923 
L 442.298902 302.00341 
L 442.610498 302.00341 
L 442.953255 302.124166 
L 443.202532 302.516626 
L 443.420649 303.452491 
L 443.451809 304.418546 
L 443.35833 304.931762 
L 443.109053 305.294033 
L 442.517019 305.565736 
L 442.049625 305.77706 
" clip-path="url(#p6899360112)"/>
    <path d="M 457.349015 304.237411 
L 457.691771 304.358167 
L 458.034528 304.358167 
L 458.595401 304.237411 
L 459.467872 303.724194 
L 460.122225 303.452491 
L 460.683098 303.452491 
L 461.306291 303.573248 
L 464.609215 304.539303 
L 465.668643 304.841195 
L 466.042559 305.203465 
L 466.322996 305.77706 
L 466.572273 306.92425 
L 466.634592 308.343142 
L 466.541113 309.248819 
L 466.416475 309.94317 
L 466.104878 310.396008 
L 465.07661 311.271495 
L 463.362829 312.931901 
L 462.428039 313.716821 
L 461.711367 313.988524 
L 459.59251 314.562118 
L 458.065687 314.86401 
L 457.193217 314.86401 
L 456.570024 314.713064 
L 455.884511 314.290416 
L 455.510596 313.928145 
L 455.167839 313.505496 
L 454.23305 311.754522 
L 453.796815 310.848846 
L 453.765655 310.426197 
L 453.952613 310.154495 
L 454.575806 309.973359 
L 455.385957 309.731846 
L 455.915671 309.429954 
L 456.164948 309.218629 
L 456.196108 308.856359 
L 456.133789 308.343142 
L 455.884511 307.528034 
L 455.510596 306.592169 
L 455.479436 305.988384 
L 455.479436 304.478924 
L 455.323638 304.056275 
L 455.10552 303.814762 
L 454.20189 303.422302 
L 453.454058 303.060032 
L 453.142462 302.75814 
L 452.706227 301.943031 
L 451.864916 300.0713 
L 451.864916 299.558084 
L 452.176512 299.31657 
L 452.42579 299.31657 
L 454.669285 300.10149 
L 457.349015 301.369436 
L 457.754091 301.61095 
L 457.81641 301.912842 
L 457.722931 302.305302 
L 456.91278 302.969464 
L 456.850461 303.422302 
L 456.94394 303.814762 
L 457.349015 304.237411 
" clip-path="url(#p6899360112)"/>
    <path d="M 448.686631 307.739358 
L 448.561993 309.309197 
L 448.530833 309.550711 
L 448.468514 310.486576 
L 448.499673 311.150738 
L 448.655471 312.23755 
L 448.904749 313.535686 
L 448.998228 315.075335 
L 448.78011 316.886687 
L 448.686631 317.581039 
L 448.842429 317.822552 
L 448.998228 317.973499 
L 449.309824 318.003688 
L 449.964177 317.852742 
L 451.428681 317.279147 
L 452.830865 317.098012 
L 455.167839 316.916876 
L 458.72004 316.705552 
L 460.620779 316.705552 
L 461.306291 316.76593 
L 461.836006 317.007444 
L 462.490358 317.55085 
L 463.674425 318.939553 
L 464.422257 320.17731 
L 464.951971 321.415068 
L 465.232408 321.626392 
L 465.544004 321.626392 
L 465.886761 321.445257 
L 466.011399 321.173554 
L 466.104878 319.694283 
L 466.198357 318.456526 
L 466.322996 317.701796 
L 467.039668 316.826309 
L 468.036777 315.799876 
L 468.597651 315.558362 
L 469.59476 315.558362 
L 470.529549 315.920633 
L 470.747667 316.192335 
L 470.747667 316.645174 
L 470.623028 317.762174 
L 470.249112 318.909364 
L 469.688239 320.690527 
L 469.252003 322.199987 
L 468.69113 323.135852 
L 468.099096 324.192475 
L 468.005617 324.554745 
L 468.005617 324.796259 
L 468.192575 325.037772 
L 468.535331 325.098151 
L 469.158524 324.947205 
L 470.872305 324.101907 
L 472.461448 323.347177 
L 472.804204 323.015096 
L 472.928843 322.652825 
L 472.928843 322.290555 
L 472.710725 321.898095 
L 472.554927 321.445257 
L 472.554927 320.811284 
L 472.648406 319.030121 
L 472.835364 316.977255 
L 472.897683 316.192335 
L 473.022322 315.739497 
L 473.20928 315.377227 
L 474.144069 314.652686 
L 476.730321 313.113037 
L 477.478152 312.811145 
L 478.225984 312.660199 
L 479.721647 312.630009 
L 480.687597 312.720577 
L 481.34195 312.931901 
L 481.996302 313.203604 
L 483.523125 314.079091 
L 486.171696 315.407416 
L 486.76373 315.799876 
L 487.168805 316.282903 
L 487.449242 316.947066 
L 487.60504 317.762174 
L 487.60504 318.66785 
L 487.324603 319.513148 
L 486.234015 321.203743 
L 484.95647 323.015096 
L 484.676033 323.769826 
L 484.457915 324.615123 
L 484.426755 325.611367 
L 484.520234 326.003827 
L 484.738352 326.184962 
L 485.018789 326.27553 
L 485.579663 326.27553 
L 486.109377 325.943448 
L 486.70141 325.49061 
L 487.511561 323.830204 
L 487.978956 322.592447 
L 488.477511 320.992419 
L 488.820267 320.267878 
L 489.163023 320.056554 
L 489.568098 320.086743 
L 490.097813 320.56977 
L 490.31593 321.384879 
L 490.534048 323.407555 
L 490.752165 324.766069 
L 491.21956 326.034016 
L 492.465946 328.479342 
L 493.02682 329.234072 
L 493.774652 329.596342 
L 495.270315 329.928423 
L 496.6725 330.04918 
L 497.171054 329.958613 
L 497.264533 329.566153 
L 496.828298 328.93218 
L 495.052198 327.694422 
L 494.335526 327.090638 
L 493.743492 326.215151 
L 493.307257 325.309475 
L 492.871022 323.800015 
L 492.715224 323.286798 
L 491.998552 320.418824 
L 491.313039 317.91312 
L 491.157241 316.192335 
L 491.344199 314.743254 
L 491.686955 313.988524 
L 492.247829 313.445118 
L 493.02682 313.052658 
L 494.023929 312.811145 
L 495.239156 312.750766 
L 496.765979 312.690388 
L 498.978314 312.59982 
L 500.598616 312.448874 
L 501.471087 312.569631 
L 501.876162 312.841334 
L 502.156599 313.565875 
L 502.250078 314.562118 
L 502.686313 315.558362 
L 503.340666 316.313092 
L 503.995019 316.79612 
L 504.524733 316.826309 
L 504.867489 316.645174 
L 505.054447 316.373471 
L 504.992128 315.981011 
L 504.462414 314.954578 
L 504.088498 313.626253 
L 503.87038 312.871523 
L 503.90154 312.509253 
L 504.150817 312.146982 
L 504.618212 312.056415 
L 505.864598 312.23755 
L 506.082716 312.23755 
L 507.329102 312.509253 
L 509.011723 312.660199 
L 510.16463 312.660199 
L 511.005941 312.569631 
L 511.816092 312.448874 
L 512.532764 312.660199 
L 513.124798 313.082847 
L 513.716831 313.596064 
L 513.934949 314.048902 
L 513.997268 314.833821 
L 513.872629 315.588551 
L 513.405234 316.79612 
L 513.187117 318.033877 
L 513.374075 318.758418 
L 513.81031 319.150877 
L 514.277705 319.241445 
L 514.994377 319.392391 
L 516.022646 319.694283 
L 517.113233 320.2075 
L 518.234981 320.932041 
L 519.668325 322.230176 
L 520.260359 322.83396 
L 520.540795 323.437744 
L 520.821232 324.041529 
L 521.101669 325.007583 
L 521.257468 326.486854 
L 521.382106 328.690666 
L 521.257468 329.717099 
L 520.852392 330.44164 
L 520.073401 331.19637 
L 519.387888 331.890722 
L 519.26325 332.645452 
L 519.294409 333.430371 
L 519.450208 334.698318 
L 519.543687 336.056832 
L 519.450208 337.566292 
L 519.20093 338.743671 
L 518.858174 339.196509 
L 518.577737 339.287077 
L 518.234981 339.105941 
L 517.580628 338.502157 
L 516.645839 337.596481 
L 515.150175 336.237967 
L 514.620461 336.026643 
L 514.215386 336.207778 
L 513.934949 336.690805 
L 513.84147 337.204022 
L 514.059587 337.747427 
L 514.651621 338.713482 
L 515.337133 339.558779 
L 516.209603 340.222942 
L 517.487149 341.007861 
L 518.827014 342.094673 
L 519.917602 343.030538 
L 520.384997 343.634322 
L 520.540795 344.419241 
L 520.540795 345.294728 
L 520.447317 346.834378 
L 520.447317 347.770243 
L 520.914711 348.374027 
L 522.348055 349.521217 
L 524.030677 350.275947 
L 524.809668 350.457082 
L 525.152424 350.487271 
L 525.464021 350.245758 
L 525.52634 349.823109 
L 524.996626 348.917433 
L 523.345164 347.558919 
L 522.81545 346.864567 
L 522.753131 346.502296 
L 522.753131 346.049458 
L 522.84661 345.143782 
L 523.002408 344.056971 
L 523.002408 343.604133 
L 522.87777 343.030538 
L 522.348055 341.973916 
L 521.91182 341.06824 
L 521.693703 340.705969 
L 521.257468 339.226698 
L 521.226308 337.143643 
L 521.724862 335.513426 
L 522.503854 334.336047 
L 523.095887 333.702074 
L 523.594442 333.611506 
L 524.155315 333.611506 
L 524.498072 333.943587 
L 524.65387 334.758696 
L 524.498072 335.543615 
L 523.999517 337.324778 
L 523.376324 339.045563 
L 523.189366 339.800293 
L 523.314005 340.192753 
L 523.874879 340.585212 
L 524.529231 340.736158 
L 525.027786 340.464456 
L 525.713298 339.649347 
L 526.42997 338.622914 
L 527.084323 337.294589 
L 527.582877 336.268156 
L 528.424188 335.271912 
L 529.296659 334.788885 
L 530.480725 334.637939 
L 531.758271 334.728507 
L 532.350305 335.090777 
L 532.693061 335.543615 
L 532.973498 336.207778 
L 532.973498 336.600237 
L 532.911178 337.354968 
L 532.880019 337.868184 
L 532.880019 338.41159 
L 532.78654 339.105941 
L 532.75538 339.860671 
L 532.75538 340.464456 
L 532.537263 340.736158 
L 532.038708 340.856915 
L 531.446675 340.887104 
L 531.103919 341.03805 
L 530.916961 341.309753 
L 530.97928 342.034294 
L 531.103919 342.487132 
L 531.415515 343.030538 
L 531.789431 343.785268 
L 532.132187 344.570187 
L 532.256826 345.173971 
L 532.474943 346.049458 
L 532.630742 346.532486 
L 532.911178 346.864567 
L 533.222775 346.834378 
L 533.783649 346.38154 
L 535.372791 344.690944 
L 535.809026 344.419241 
L 536.151783 344.419241 
L 536.899614 344.600377 
L 537.772085 345.204161 
L 538.551076 345.98908 
L 539.174269 346.894756 
L 539.361227 347.347594 
L 539.361227 347.619297 
L 538.738034 348.343838 
L 537.117732 349.79292 
L 536.43222 350.577839 
L 536.494539 351.060866 
L 536.712656 351.181623 
L 537.211211 351.211812 
L 538.114841 351.091055 
L 539.236588 350.426893 
L 540.545294 349.189136 
L 541.511243 347.921189 
L 541.947478 346.894756 
L 541.885159 346.170215 
L 541.729361 345.053215 
L 541.729361 344.509809 
L 542.040957 343.815457 
L 543.505461 342.517321 
L 544.627209 342.124862 
L 545.281562 342.064483 
L 545.904755 342.245619 
L 547.712015 343.030538 
L 549.363476 343.845646 
L 552.105526 345.536242 
L 555.439609 347.347594 
L 556.312079 348.25327 
L 557.059911 349.611784 
L 558.462096 351.211812 
L 560.331675 352.630705 
L 565.130262 355.498679 
L 567.623034 357.279842 
L 568.713622 358.547789 
L 570.271605 360.630844 
L 571.206394 362.713899 
L 571.64263 364.706386 
L 571.673789 366.155468 
L 571.829588 367.936631 
L 571.58031 369.446091 
L 571.424512 370.502714 
L 570.988277 371.468768 
L 570.583201 371.619714 
L 570.053487 371.468768 
L 569.118698 370.110254 
L 568.526664 368.75174 
L 568.152748 367.151712 
L 567.654194 366.517739 
L 566.875202 365.612063 
L 565.846934 364.917711 
L 564.725186 364.434684 
L 563.790397 364.283738 
L 562.107775 364.58563 
L 561.079507 364.766765 
L 559.957759 364.525251 
L 558.08818 363.649764 
L 555.782365 362.381818 
L 554.660618 361.506331 
L 552.261324 359.513843 
L 550.703341 358.306275 
L 548.927241 356.857193 
L 547.961292 355.891139 
L 547.275779 355.589247 
L 546.590267 355.679814 
L 545.998234 356.313788 
L 545.998234 357.189275 
L 546.621427 358.245897 
L 548.584485 359.845925 
L 550.82798 361.506331 
L 553.57003 363.679954 
L 555.252651 364.9479 
L 556.904113 365.732819 
L 558.617894 366.366793 
L 559.552683 367.272469 
L 560.580952 369.023443 
L 560.612112 369.778173 
L 560.549792 370.744227 
L 560.207036 371.378201 
L 560.051238 371.861228 
L 560.207036 372.827282 
L 561.827338 374.517878 
L 563.821556 375.96696 
L 564.849825 376.842446 
L 565.441858 377.808501 
L 565.441858 378.351907 
L 565.099102 379.076448 
L 564.694027 379.257583 
L 563.323002 379.317961 
L 561.7027 379.257583 
L 560.425154 378.865123 
L 559.646162 377.566987 
L 559.022969 377.023582 
L 558.430936 376.933014 
L 557.683104 377.265095 
L 556.997592 378.080204 
L 556.312079 378.955691 
L 555.720046 379.34815 
L 554.785256 379.529286 
L 553.601189 379.438718 
L 551.887408 378.98588 
L 551.108417 378.744366 
L 549.830871 378.170771 
L 548.210569 377.295285 
L 546.839544 376.178284 
L 546.060553 375.212229 
L 545.780116 374.185797 
L 545.780116 373.31031 
L 545.624318 372.495201 
L 544.845326 371.529147 
L 542.601831 368.963064 
L 541.417764 366.578117 
L 540.545294 365.038468 
L 538.831513 362.472385 
L 536.588018 359.27233 
L 535.559749 357.430788 
L 534.780758 355.045841 
L 534.500321 353.023164 
L 534.500321 350.366514 
L 534.095245 349.823109 
L 533.69017 349.611784 
L 532.661901 349.430649 
L 531.041599 349.219325 
L 530.137969 348.796676 
L 529.452457 348.223081 
L 529.016222 347.589108 
L 529.109701 346.864567 
L 529.17202 346.079648 
L 528.829264 345.506053 
L 528.23723 345.415485 
L 527.489399 345.98908 
L 526.710407 346.955134 
L 526.710407 347.830621 
L 527.084323 349.460838 
L 527.489399 350.638217 
L 527.925634 351.604272 
L 529.047381 353.053354 
L 531.197397 354.804328 
L 532.474943 356.253409 
L 534.032926 358.728924 
L 534.905396 360.751601 
L 535.248153 362.351629 
L 535.248153 363.710143 
L 536.027144 364.857332 
L 537.055413 365.521495 
L 538.706874 366.789442 
L 539.797462 368.027199 
L 540.825731 369.627227 
L 542.040957 371.559336 
L 542.446033 372.91785 
L 542.539512 374.034851 
L 542.570672 375.96696 
L 542.69531 377.355663 
L 542.446033 378.261339 
L 541.667042 378.804745 
L 539.797462 379.800988 
L 538.17716 380.585908 
L 536.058304 381.401016 
L 535.715547 381.340638 
L 535.279312 380.857611 
L 535.185833 380.616097 
L 535.123514 380.284016 
L 535.871346 379.650042 
L 537.242371 378.59342 
L 537.834404 377.717933 
L 537.585127 377.234906 
L 536.619177 377.234906 
L 534.687279 377.808501 
L 532.630742 379.016069 
L 529.732894 380.646286 
L 527.769835 381.038746 
L 522.129938 381.219881 
L 521.382106 381.310449 
L 520.945871 381.884044 
L 520.603115 382.668963 
L 520.883552 383.333125 
L 521.288627 383.574639 
L 522.410375 383.484071 
L 523.594442 383.333125 
L 524.871988 383.665207 
L 526.149533 384.419937 
L 528.23723 385.869019 
L 529.327818 386.502992 
L 530.013331 387.136965 
L 530.013331 387.770938 
L 529.608255 388.10302 
L 528.829264 388.435101 
L 528.143751 388.586047 
L 527.115483 387.952074 
L 526.180693 387.952074 
L 524.840828 388.435101 
L 524.311114 388.918128 
L 523.812559 389.97475 
L 523.314005 390.608724 
L 522.192257 390.699291 
L 521.257468 390.548345 
L 520.478476 390.065318 
L 519.20093 388.706804 
L 518.172662 387.257722 
L 517.736427 386.382235 
L 517.798746 385.265234 
L 518.048023 384.148234 
L 517.705267 383.574639 
L 516.863956 383.272747 
L 516.365402 383.272747 
L 515.337133 382.940666 
L 514.371184 381.974611 
L 513.966108 380.948178 
L 513.498713 378.865123 
L 513.342915 377.023582 
L 513.249436 375.091473 
L 512.968999 373.642391 
L 512.127689 373.491445 
L 511.442176 373.732958 
L 511.09942 374.517878 
L 510.943622 375.725446 
L 511.037101 377.023582 
L 511.379857 380.404773 
L 511.909571 382.548206 
L 513.124798 384.631261 
L 515.524091 387.921884 
L 516.801637 389.521912 
L 517.674107 390.820048 
L 518.453099 391.937049 
L 519.045132 392.872914 
L 520.291518 394.201239 
L 522.721971 395.740888 
L 525.682139 397.250348 
L 528.486507 398.276781 
L 530.636524 398.729619 
L 532.75538 398.971133 
L 534.126405 399.45416 
L 535.933665 400.571161 
L 538.083681 401.839107 
L 540.046739 402.86554 
L 540.981529 403.680649 
L 541.511243 404.797649 
L 541.947478 406.790137 
L 542.040957 407.514678 
L 542.040957 408.420354 
L 541.604722 409.537355 
L 540.264857 410.744923 
L 538.364118 411.560031 
L 537.086572 411.892112 
L 536.089463 411.650599 
L 535.46627 411.167572 
L 534.780758 410.201517 
L 534.780758 409.899625 
L 535.310472 409.476976 
L 536.650337 408.903381 
L 537.242371 408.450543 
L 537.460488 407.665624 
L 537.460488 407.273164 
L 537.180051 406.065596 
L 536.650337 405.129731 
L 535.684388 404.254244 
L 534.406842 403.771217 
L 533.222775 403.620271 
L 532.101027 403.076865 
L 530.916961 402.442892 
L 529.888692 402.050432 
L 529.20318 402.291946 
L 528.704625 403.076865 
L 528.26839 404.284433 
L 528.26839 405.15992 
L 528.704625 406.216542 
L 530.667683 408.148651 
L 531.540154 409.416598 
L 531.976389 410.775112 
L 531.727112 412.37514 
L 531.041599 414.63933 
L 530.293767 415.997844 
L 529.701734 417.054466 
L 529.670574 417.990332 
L 530.10681 418.714873 
L 531.041599 420.133765 
L 531.290876 422.21682 
L 531.322036 423.75647 
L 531.072759 424.87347 
L 530.293767 425.930092 
L 528.26839 427.469742 
L 526.211853 428.918824 
L 523.937198 430.458473 
L 522.971249 430.9415 
L 522.223417 430.9415 
L 520.945871 430.458473 
L 520.073401 429.43204 
L 519.574846 428.465985 
L 519.543687 428.073526 
L 520.571955 427.016904 
L 522.441534 425.960282 
L 523.812559 424.843281 
L 524.061836 423.696091 
L 523.874879 422.730037 
L 523.189366 421.794171 
L 522.348055 421.371523 
L 521.413266 421.552658 
L 519.948762 421.884739 
L 518.577737 422.277199 
L 517.829905 422.518712 
L 517.300191 422.518712 
L 516.957435 422.21682 
L 516.458881 421.492279 
L 515.773368 419.711116 
L 514.994377 417.567683 
L 514.121907 416.269547 
L 513.342915 415.877087 
L 512.158848 415.967655 
L 511.566815 416.299736 
L 511.224059 417.024277 
L 511.161739 418.865819 
L 511.504496 420.70736 
L 511.691453 422.156442 
L 511.940731 423.36401 
L 511.847252 423.907416 
L 511.348697 424.239497 
L 510.663185 424.088551 
L 509.821874 423.36401 
L 508.170412 421.371523 
L 506.643589 419.409224 
L 506.363152 419.046954 
L 505.67764 418.322413 
L 505.085607 418.020521 
L 504.587052 418.020521 
L 504.057338 418.322413 
L 503.995019 419.228089 
L 503.90154 420.586603 
L 503.745741 421.945117 
L 503.402985 422.277199 
L 502.904431 422.277199 
L 501.782683 421.884739 
L 499.476869 420.103576 
L 498.012365 418.745062 
L 496.797138 417.326169 
L 496.080466 415.997844 
L 495.73771 415.363871 
L 495.73771 414.880844 
L 496.329744 414.065735 
L 497.077575 413.341194 
L 498.697877 412.948735 
L 500.28702 412.435518 
L 503.091389 412.043058 
L 505.179086 412.043058 
L 506.737068 412.224194 
L 507.297942 412.284572 
L 510.818983 412.465707 
L 512.532764 412.616653 
L 513.436394 412.797789 
L 514.495822 413.009113 
L 515.087856 412.948735 
L 515.960326 412.827978 
L 516.957435 412.435518 
L 517.487149 411.560031 
L 517.300191 410.352463 
L 516.988595 410.050571 
L 516.427721 409.476976 
L 516.116124 409.356219 
L 515.337133 408.993949 
L 514.402343 409.024138 
L 513.280596 409.084516 
L 511.224059 409.114706 
L 507.173304 409.114706 
L 504.77401 409.024138 
L 503.247187 408.93357 
L 501.595725 409.144895 
L 500.28702 409.778868 
L 499.289911 410.020382 
L 497.731928 409.627922 
L 497.264533 409.144895 
L 497.264533 408.692057 
L 497.482651 408.239219 
L 497.950046 406.910894 
L 498.292802 405.91465 
L 498.261642 405.250488 
L 498.043525 403.408946 
L 498.261642 402.684405 
L 498.729037 401.869297 
L 499.040634 401.205134 
L 499.040634 400.60135 
L 498.635558 399.997566 
L 497.607289 399.182458 
L 496.236265 398.820187 
L 495.052198 398.910755 
L 494.273206 399.423971 
L 493.774652 400.178701 
L 493.868131 401.839107 
L 494.117408 403.016486 
L 493.89929 404.073109 
L 491.905073 405.129731 
L 491.281879 405.129731 
L 490.31593 404.556136 
L 489.349981 402.89573 
L 488.53983 401.567405 
L 486.514452 400.359836 
L 485.455024 400.027755 
L 484.551394 400.299458 
L 482.276739 401.808918 
L 481.653546 402.654216 
L 481.622386 403.318378 
L 481.965143 404.103298 
L 482.494857 404.737271 
L 483.554285 405.52219 
L 484.395596 407.001461 
L 484.613713 407.786381 
L 484.800671 409.175084 
L 485.268066 413.160059 
L 485.486184 415.635574 
L 485.455024 416.692196 
L 484.95647 417.899764 
L 484.489075 418.382791 
L 484.115159 418.533737 
L 483.772403 418.231845 
L 483.08689 416.662007 
L 481.684706 412.858167 
L 480.781076 410.926058 
L 480.376 410.563787 
L 479.783967 410.503409 
L 478.818017 410.503409 
L 477.384673 410.714733 
L 475.359296 410.684544 
L 474.673783 410.47322 
L 473.801313 409.567544 
L 471.869414 406.790137 
L 470.062154 404.435379 
L 469.220844 403.288189 
L 468.379533 402.593838 
L 466.136038 401.144756 
L 464.297618 400.148512 
L 462.957753 399.152268 
L 460.994695 397.159781 
L 458.346124 395.106915 
L 457.442494 393.959725 
L 457.442494 393.537076 
L 457.722931 393.204995 
L 458.439603 392.963481 
L 459.561351 392.721968 
L 460.402661 392.691779 
L 461.586728 392.721968 
L 462.459199 392.872914 
L 463.487467 393.235184 
L 464.484576 393.718212 
L 465.855601 395.137104 
L 466.354156 395.227672 
L 467.039668 395.076726 
L 467.72518 394.321996 
L 467.818659 393.808779 
L 467.351264 393.235184 
L 466.198357 391.997427 
L 465.01429 389.703047 
L 464.204139 388.706804 
L 460.838897 386.291667 
L 460.278023 385.476559 
L 459.904107 384.027477 
L 459.031637 381.763287 
L 458.346124 380.676475 
L 457.81641 380.223637 
L 456.476545 379.800988 
L 455.385957 379.559475 
L 454.980881 379.167015 
L 454.762764 378.291528 
L 454.357688 376.661311 
L 454.014932 375.695257 
L 453.235941 374.548067 
L 451.45984 372.072552 
L 450.680849 371.136687 
L 449.933017 370.502714 
L 448.530833 369.476281 
L 447.035169 368.449848 
L 445.944582 367.785685 
L 444.822834 367.544172 
L 442.735137 367.21209 
L 437.282197 366.638496 
L 428.713292 365.823387 
L 425.223411 365.008278 
L 421.048017 364.042224 
L 420.050908 363.529007 
L 419.303077 362.864845 
L 418.929161 362.200683 
L 418.929161 361.295006 
L 419.053799 359.574222 
L 419.490034 359.061005 
L 420.175547 358.789302 
L 420.611782 358.849681 
L 421.016858 359.121384 
L 421.234975 359.845925 
L 421.453093 361.14406 
L 421.73353 361.657277 
L 422.294403 361.989358 
L 423.945865 362.442196 
L 427.871982 363.468629 
L 430.458233 363.861089 
L 433.916955 364.102602 
L 436.565525 364.344116 
L 442.236583 364.978089 
L 445.414867 365.310171 
L 445.975741 365.310171 
L 446.318497 364.978089 
L 446.131539 363.861089 
L 445.259069 361.566709 
L 444.698195 360.842168 
L 444.012683 360.298763 
L 442.517019 359.302519 
L 438.497424 357.128896 
L 437.562634 356.585491 
L 437.095239 356.253409 
L 436.253929 354.834517 
L 435.101022 352.842029 
L 434.166232 351.634461 
L 432.919846 349.823109 
L 432.732888 349.40046 
L 432.826367 349.03819 
L 433.169123 348.64573 
L 434.602467 347.891 
L 435.693055 347.558919 
L 437.780752 347.226837 
L 438.466264 347.13627 
L 440.553961 346.683432 
L 442.298902 346.170215 
L 443.607607 345.59662 
L 443.794565 345.23435 
L 443.732246 344.902269 
L 443.140213 344.117349 
L 442.517019 342.93997 
L 442.080784 342.396565 
L 441.270633 342.004105 
L 439.77497 341.611645 
L 437.624954 341.339942 
L 436.409727 341.128618 
L 436.035811 340.766348 
L 435.973492 340.041807 
L 436.316248 339.558779 
L 437.03292 338.502157 
L 438.403945 336.902129 
L 439.214096 336.237967 
L 440.959037 335.151156 
L 441.58223 334.758696 
L 442.548179 333.883209 
L 443.38949 332.645452 
L 444.29312 330.351072 
L 445.290229 326.758557 
L 445.16559 326.547232 
L 444.667036 326.27553 
L 443.233692 326.184962 
L 442.672818 326.094394 
L 441.831507 325.822692 
L 440.927877 325.309475 
L 440.273524 324.766069 
L 439.650331 323.649069 
L 438.995978 321.958473 
L 438.964819 320.992419 
L 439.120617 320.328256 
L 439.432214 319.81504 
L 439.74381 319.694283 
L 440.273524 319.875418 
L 440.616281 320.2075 
L 440.896717 320.750905 
L 441.177154 321.264122 
L 441.55107 321.626392 
L 442.236583 321.928284 
L 443.38949 322.109419 
L 444.26196 322.109419 
L 444.729355 322.018852 
L 444.978632 321.777338 
L 445.009792 321.475446 
L 445.040952 320.388635 
L 445.321388 317.430093 
L 445.570666 315.769687 
L 446.006901 314.8942 
L 446.03806 314.471551 
L 446.03806 314.13947 
L 445.726464 313.807388 
L 445.383708 313.656442 
L 444.947473 313.626253 
L 443.140213 313.384739 
L 440.896717 312.931901 
L 440.180045 312.569631 
L 439.74381 312.086604 
L 439.556852 311.513009 
L 439.556852 310.848846 
L 439.588012 310.245062 
L 439.868449 309.641278 
L 440.148886 309.339386 
L 441.519911 308.101629 
L 442.517019 307.467655 
L 442.922095 307.316709 
L 443.38949 307.467655 
L 444.386599 307.950683 
L 445.446027 308.252575 
L 445.882262 308.252575 
L 446.256178 307.980872 
L 446.318497 307.588412 
L 446.256178 307.195953 
L 445.944582 306.773304 
L 445.414867 306.260087 
L 445.290229 305.77706 
L 445.16559 305.02233 
L 445.009792 303.271356 
L 444.916313 302.244923 
L 444.978632 301.520382 
L 445.13443 300.46376 
L 445.477187 299.648652 
L 445.913422 299.135435 
L 446.505455 298.803354 
L 447.128648 298.863732 
L 447.596043 299.014678 
L 448.219236 299.588273 
L 449.403303 301.127923 
L 449.65258 301.580761 
L 449.839538 302.184545 
L 449.65258 303.241167 
L 449.154026 304.690249 
L 448.717791 305.535546 
L 448.593152 306.048763 
L 448.593152 306.561979 
L 448.686631 307.739358 
" clip-path="url(#p6899360112)"/>
    <path d="M 297.06375 352.81184 
L 295.349969 353.898651 
L 295.599246 354.925084 
L 295.599246 356.404355 
L 294.602137 358.638356 
L 289.460794 368.027199 
L 285.690476 374.849959 
L 284.225972 376.570744 
L 282.66799 377.536798 
L 280.517973 377.748123 
L 279.05347 377.687744 
L 278.586075 377.657555 
L 276.436059 376.480176 
L 275.096193 375.332986 
L 274.067925 375.453743 
L 273.63169 376.389608 
L 273.974446 377.566987 
L 275.220832 379.257583 
L 276.934613 380.736854 
L 279.988259 382.0048 
L 282.231754 382.306692 
L 287.871652 382.819909 
L 290.800659 383.333125 
L 292.732558 384.359558 
L 297.499985 389.038885 
L 303.607278 395.378618 
L 308.717461 401.386269 
L 310.275444 403.559892 
L 310.960956 404.707082 
L 312.082704 406.548623 
L 314.606636 412.586464 
L 316.881291 418.322413 
L 318.034198 420.948874 
L 319.187105 422.760226 
L 320.745088 423.937605 
L 321.897995 423.907416 
L 323.455978 423.816848 
L 325.04512 422.850794 
L 326.384985 422.518712 
L 327.070498 422.820604 
L 327.288615 423.997983 
L 327.195136 425.688579 
L 326.291506 427.499931 
L 323.30018 432.08869 
L 320.932046 435.50007 
L 320.090735 437.613314 
L 320.121895 439.062396 
L 320.55813 440.722802 
L 321.150163 442.353019 
L 321.711037 442.685101 
L 322.271911 442.685101 
L 323.30018 442.685101 
L 324.079171 443.107749 
L 324.889322 444.466264 
L 324.889322 445.311561 
L 324.453087 446.187048 
L 323.331339 448.421049 
L 323.019743 450.322969 
L 323.23786 451.289024 
L 323.892213 451.862619 
L 325.94875 452.55697 
L 327.849489 453.372079 
L 329.906026 455.304188 
L 331.713286 457.296675 
L 332.741555 458.775946 
L 332.741555 459.530676 
L 331.619807 460.496731 
L 330.186463 461.130704 
L 329.158195 461.251461 
L 328.379203 460.91938 
L 327.475573 459.983515 
L 325.07628 457.236297 
L 321.555239 453.643782 
L 320.184214 451.500348 
L 319.841458 450.021077 
L 320.184214 448.541806 
L 320.620449 446.941778 
L 320.620449 445.975724 
L 319.934937 445.039859 
L 319.093626 444.496453 
L 316.320417 444.345507 
L 315.229829 443.922858 
L 314.388518 443.198317 
L 314.295039 442.32283 
L 314.637796 441.719046 
L 315.510266 440.994505 
L 315.385627 440.300153 
L 314.918232 439.394477 
L 314.139241 438.91145 
L 312.612418 438.609558 
L 310.213125 438.458612 
L 306.754403 437.734071 
L 305.570336 437.039719 
L 303.077564 434.081177 
L 301.924656 431.937744 
L 300.896388 430.156581 
L 300.117396 429.945256 
L 298.87101 430.277338 
L 294.259381 432.300014 
L 285.129602 436.375557 
L 280.144057 439.334099 
L 275.127353 442.353019 
L 274.597639 442.685101 
L 267.025843 447.424806 
L 262.881609 449.628618 
L 260.482315 450.564483 
L 256.805476 451.228645 
L 252.474284 451.530537 
L 248.890924 451.349402 
L 247.613378 451.017321 
L 246.242353 449.628618 
L 243.687261 449.779564 
L 243.500303 449.809753 
L 241.319127 449.93051 
L 242.90827 453.492836 
L 244.746689 456.119296 
L 246.803227 458.202352 
L 249.638755 460.768434 
L 250.417747 461.945813 
L 250.604705 462.851489 
L 250.417747 464.391138 
L 248.423529 468.527059 
L 246.896706 471.455412 
L 244.154656 475.259252 
L 242.160438 477.342307 
L 238.795195 480.210281 
L 234.650961 482.957499 
L 228.668307 486.640582 
L 224.555233 489.780259 
L 221.376948 491.712368 
L 219.351571 492.467098 
L 213.555875 494.127504 
L 206.887709 495.636965 
L 196.480384 496.240749 
L 192.616587 496.361505 
L 189.5941 496.753965 
L 188.441193 497.206803 
L 188.067277 497.659641 
L 188.067277 498.565317 
L 185.97958 499.531372 
L 184.17232 499.772886 
L 180.62012 498.716263 
L 177.815751 497.659641 
L 175.946171 496.421884 
L 174.29471 494.942613 
L 172.705567 492.889747 
L 169.932358 488.361366 
L 167.470745 488.451934 
L 165.22725 488.96515 
L 163.638108 489.780259 
L 161.550411 491.25953 
L 159.400395 494.338829 
L 157.593135 496.814344 
L 156.658345 497.538884 
L 150.675691 500.406859 
L 144.755357 503.063509 
L 143.290853 503.516347 
L 142.231425 503.516347 
L 141.514753 503.305022 
L 140.361845 502.520103 
L 138.585745 500.437048 
L 136.871964 498.776642 
L 135.781376 498.263425 
L 133.475562 497.780398 
L 130.764672 497.418128 
L 128.303059 497.508695 
L 126.776236 497.659641 
L 124.345783 499.531372 
L 122.600842 501.010643 
L 122.071128 502.2484 
L 122.071128 503.546536 
L 122.258086 507.320187 
L 121.88417 509.523998 
L 121.136338 511.999513 
L 120.04575 513.237271 
L 117.989213 514.41465 
L 113.533382 516.618461 
L 110.604375 517.524138 
L 107.581888 517.79584 
L 107.083334 517.82603 
L 105.213755 517.705273 
L 104.465923 517.493948 
L 104.216646 517.04111 
L 103.81157 514.716542 
L 103.406495 513.26746 
L 102.720982 511.818378 
L 101.536915 510.671188 
L 100.446327 509.674944 
L 98.826025 508.950404 
L 95.118026 507.803214 
L 91.12959 507.169241 
L 83.994029 506.595646 
L 83.370836 506.625835 
L 82.685324 507.410754 
L 81.999812 509.312674 
L 80.878064 512.241027 
L 78.50993 515.652407 
L 75.8302 518.882652 
L 73.99178 520.361923 
L 71.997562 521.086464 
L 68.538841 521.116653 
L 66.918539 520.84495 
L 66.139547 520.271355 
L 65.516354 519.395868 
L 65.360556 518.520381 
L 65.111279 515.380704 
L 64.862001 513.207081 
L 64.145329 511.486297 
L 63.459817 510.459864 
L 63.335178 510.278729 
L 61.122843 507.773025 
L 57.477163 505.68997 
L 55.171349 505.146564 
L 54.049601 504.874861 
L 50.964795 504.331455 
L 49.936527 503.75786 
L 49.562611 503.093698 
L 49.562611 502.459725 
L 49.998846 500.920075 
L 52.117702 497.267182 
L 53.27061 493.91618 
L 53.551047 490.625557 
L 53.519887 489.176475 
L 52.990173 487.938718 
L 50.871316 485.342446 
L 46.135049 480.059335 
L 44.327789 477.734767 
L 44.514747 477.523442 
L 44.670545 477.130982 
L 44.795184 476.587577 
L 44.888663 476.134739 
L 44.888663 475.832847 
L 44.764024 475.561144 
L 44.17199 474.746035 
L 43.704596 474.142251 
L 43.019083 473.327143 
L 40.962546 471.093142 
L 40.339353 470.549736 
L 38.999488 469.402546 
L 36.444396 467.228924 
L 35.042212 466.051545 
L 32.580599 463.968489 
L 31.61465 463.213759 
L 31.396532 463.18357 
L 31.116095 463.18357 
L 30.6487 463.304327 
L 30.150146 463.726976 
L 29.713911 464.149625 
L 28.342886 461.523164 
L 26.348668 459.198595 
L 22.142114 455.99854 
L 16.595696 451.711673 
L 14.632638 450.745618 
L 13.074655 450.624861 
L 11.485512 449.90032 
L 10.83116 449.175779 
L 10.8 447.817265 
L 11.578991 445.824778 
L 15.224671 441.719046 
L 17.810922 438.15672 
L 17.99788 437.945396 
L 18.02904 436.586881 
L 18.371796 435.681205 
L 19.181947 434.684962 
L 20.521812 432.994366 
L 21.705879 431.515095 
L 22.360232 430.57923 
L 22.640669 429.945256 
L 22.827627 429.281094 
L 22.921106 428.164093 
L 22.734148 426.77539 
L 22.702988 426.141417 
L 21.113846 425.175362 
L 17.530485 422.880983 
L 16.969612 422.156442 
L 16.689175 421.371523 
L 15.941343 417.326169 
L 15.442789 415.061979 
L 17.281208 414.27706 
L 20.958048 412.73741 
L 22.266753 412.616653 
L 23.762416 412.677032 
L 27.314617 413.190248 
L 30.586381 414.216681 
L 33.172632 415.846898 
L 35.478447 417.718629 
L 36.537875 419.1979 
L 37.161068 421.190387 
L 37.940059 423.635713 
L 38.719051 424.330065 
L 39.685 424.481011 
L 51.993064 423.394199 
L 53.800324 423.36401 
L 57.134407 422.488523 
L 58.754709 421.914928 
L 60.312692 420.677171 
L 60.998204 419.529981 
L 61.091683 419.228089 
L 61.590238 417.809196 
L 63.989531 403.590081 
L 66.295345 399.514539 
L 67.510572 398.125835 
L 68.414202 397.703187 
L 69.348992 397.703187 
L 71.000453 398.759809 
L 73.617864 400.178701 
L 74.833091 400.510782 
L 76.73383 400.661729 
L 79.538199 399.906998 
L 81.28314 399.242836 
L 82.716484 398.035268 
L 85.645491 394.986158 
L 87.515071 392.963481 
L 85.988247 392.540833 
L 84.492584 392.118184 
L 83.433156 391.333264 
L 83.0904 390.216264 
L 83.215038 389.22002 
L 85.365054 385.627505 
L 86.954197 383.363315 
L 87.483911 381.702908 
L 87.452751 378.804745 
L 86.237525 374.004661 
L 84.180987 369.89893 
L 81.501257 365.70263 
L 79.195443 362.925223 
L 78.167174 361.808223 
L 77.388183 361.295006 
L 77.917897 361.113871 
L 78.665729 360.510087 
L 80.691106 358.215708 
L 83.651273 355.800571 
L 86.611441 354.925084 
L 88.356381 354.623192 
L 89.727406 354.532625 
L 90.599876 354.532625 
L 91.19191 354.743949 
L 91.534666 355.07603 
L 92.220178 355.891139 
L 94.214396 358.698735 
L 94.993388 359.815735 
L 95.741219 360.449709 
L 96.676009 358.849681 
L 97.766597 356.947761 
L 100.570966 352.389191 
L 101.349957 350.970299 
L 101.630394 348.977811 
L 101.630394 346.804188 
L 101.505756 345.294728 
L 100.882562 344.44943 
L 99.386899 343.6947 
L 97.579639 343.513565 
L 95.180346 343.543754 
L 92.96801 343.845646 
L 88.356381 344.992836 
L 84.149828 345.59662 
L 82.623005 345.415485 
L 80.815745 344.962647 
L 79.725157 344.207917 
L 79.600518 343.060727 
L 79.912115 341.943727 
L 82.093291 339.558779 
L 85.178096 335.543615 
L 85.957088 333.188857 
L 86.424483 330.924667 
L 86.424483 329.505774 
L 85.925928 328.177449 
L 84.804181 327.03026 
L 82.467206 325.550989 
L 77.949056 323.015096 
L 76.889628 322.139609 
L 76.297595 321.596203 
L 75.207007 320.660338 
L 70.938134 314.924389 
L 74.428015 312.539442 
L 74.396856 312.328117 
L 74.396856 311.573387 
L 74.833091 310.999792 
L 75.425124 310.577144 
L 73.929461 307.769548 
L 74.0541 307.558223 
L 74.739612 306.894061 
L 75.362805 306.592169 
L 75.705561 306.652547 
L 76.640351 307.528034 
L 77.512821 308.162007 
L 78.915006 308.946926 
L 80.223711 308.43371 
L 82.311408 307.950683 
L 83.339677 308.07144 
L 84.83534 309.248819 
L 86.424483 311.965847 
L 87.109995 314.13947 
L 87.421592 316.162146 
L 87.57739 318.547093 
L 87.951306 319.301823 
L 88.792616 319.633905 
L 89.665087 319.362202 
L 90.755675 318.30558 
L 91.285389 317.037633 
L 92.002061 313.475307 
L 92.93685 311.84509 
L 94.120917 311.211117 
L 96.489051 310.788468 
L 99.012983 310.758279 
L 105.338393 311.150738 
L 107.800006 311.543198 
L 108.392039 312.177171 
L 108.765955 313.082847 
L 108.703636 314.320605 
L 107.613048 317.430093 
L 107.550729 318.879175 
L 107.550729 319.935797 
L 108.142762 320.841473 
L 109.357989 320.96223 
L 111.508005 320.690527 
L 113.190626 319.633905 
L 114.374693 318.154634 
L 115.745718 315.196092 
L 116.057314 314.13947 
L 116.337751 311.905468 
L 116.46239 310.094116 
L 116.742827 309.18844 
L 117.646457 308.403521 
L 119.110961 307.558223 
L 121.790691 306.894061 
L 124.376942 306.803493 
L 126.090723 307.075196 
L 126.900874 307.648791 
L 127.430589 306.833682 
L 129.829882 303.210978 
L 130.110319 302.184545 
L 130.110319 300.826031 
L 129.424806 298.531651 
L 127.430589 294.999514 
L 126.651597 293.882514 
L 125.779127 293.459865 
L 124.439262 293.459865 
L 122.445044 293.641 
L 121.728372 293.459865 
L 120.606624 292.584378 
L 120.201549 292.040972 
L 120.201549 291.406999 
L 120.481985 290.108863 
L 120.824742 287.633348 
L 121.042859 284.040833 
L 120.887061 282.923833 
L 120.668943 282.199292 
L 120.232708 281.806832 
L 119.297919 281.353994 
L 117.272541 280.75021 
L 116.088474 280.025669 
L 112.692072 277.550154 
L 111.165249 276.402964 
L 110.822492 275.950126 
L 110.729013 274.802937 
L 110.510896 271.512313 
L 110.479736 270.848151 
L 110.573215 270.183988 
L 111.00945 269.912286 
L 111.663803 269.882096 
L 112.193517 269.851907 
L 113.377584 269.821718 
L 115.247163 269.429258 
L 116.618188 268.855663 
L 117.771095 268.282069 
L 120.10807 266.923554 
L 121.91533 265.112202 
L 122.507363 264.025391 
L 122.694321 263.210282 
L 122.569682 261.489498 
L 122.382724 258.681902 
L 122.382724 257.202631 
L 123.068237 255.481846 
L 123.317514 254.244089 
L 123.224035 252.764818 
L 122.850119 251.91952 
L 123.005918 249.26287 
L 123.286354 247.632653 
L 123.753749 246.666598 
L 124.408102 245.821301 
L 125.934925 244.34203 
L 126.184202 244.734489 
L 127.118992 245.09676 
L 127.991462 245.126949 
L 129.674084 244.643922 
L 131.232066 243.94957 
L 131.917579 243.828813 
L 132.540772 244.070327 
L 133.070486 244.643922 
L 133.382083 246.032625 
L 133.444402 247.300572 
L 133.382083 250.742141 
L 133.319763 255.300711 
L 133.66252 256.176198 
L 134.753107 256.749793 
L 136.373409 256.749793 
L 138.180669 256.266765 
L 139.551694 255.481846 
L 141.171996 254.123332 
L 142.480702 252.191223 
L 143.010416 250.289303 
L 142.854618 246.093004 
L 142.792298 241.957083 
L 143.259693 241.172163 
L 144.163323 240.870271 
L 145.690146 241.051406 
L 148.369877 242.470299 
L 150.332935 244.070327 
L 151.080767 245.187327 
L 151.392363 247.300572 
L 150.893809 248.659086 
L 148.774952 250.41006 
L 145.31623 253.157277 
L 144.973474 254.455413 
L 145.34739 255.662981 
L 147.216969 257.504523 
L 148.93075 257.927172 
L 151.018447 257.685658 
L 153.106144 256.689414 
L 154.35253 255.059197 
L 156.876462 250.591195 
L 158.714882 247.511896 
L 159.462714 246.455274 
L 160.148226 245.942058 
L 160.896058 245.821301 
L 164.074343 246.002436 
L 162.54752 245.157138 
L 161.924327 243.375975 
L 162.235923 241.836326 
L 162.391721 240.598568 
L 162.235923 239.813649 
L 161.830848 239.240054 
L 159.930109 237.338134 
L 157.499656 234.590917 
L 156.596026 233.383349 
L 156.253269 232.477673 
L 156.19095 231.45124 
L 156.346748 229.066292 
L 156.845303 226.288886 
L 156.814143 224.809615 
L 156.596026 224.145452 
L 156.097471 223.632236 
L 155.038043 223.149208 
L 153.573539 222.756749 
L 147.684364 221.217099 
L 144.661878 220.190666 
L 142.948097 219.586882 
L 141.826349 218.892531 
L 140.985038 218.288747 
L 139.427056 216.477394 
L 138.305308 215.11888 
L 134.753107 210.95277 
L 133.506721 208.960283 
L 132.945847 207.390444 
L 132.478453 206.03193 
L 132.509612 205.850795 
L 132.571932 203.707361 
L 133.008167 200.779008 
L 134.940065 197.156304 
L 139.987929 188.492002 
L 140.174887 188.129732 
L 140.424165 187.918407 
L 140.673442 187.888218 
L 141.109677 187.82784 
L 141.452433 187.948596 
L 141.888668 188.250489 
L 142.543021 189.186354 
L 143.166214 190.876949 
L 143.727088 192.597734 
L 144.287962 193.563788 
L 144.755357 193.926059 
L 145.440869 194.137383 
L 146.28218 194.318519 
L 147.12349 194.318519 
L 147.933641 194.167573 
L 148.712633 193.624167 
L 149.429305 192.74868 
L 150.208296 191.329787 
L 150.831489 190.424111 
L 151.267725 190.09203 
L 151.797439 189.910895 
L 152.451791 189.910895 
L 153.604699 190.001462 
L 156.751824 190.635436 
L 158.434445 191.118463 
L 159.743151 191.329787 
L 160.210546 191.299598 
L 160.67794 191.209031 
L 169.7454 189.941084 
L 171.5215 189.458057 
L 174.357029 188.069353 
L 177.441835 186.348569 
L 182.209262 189.669381 
L 186.01074 192.809058 
L 188.378874 193.775113 
L 190.622369 194.046816 
L 193.676015 194.016627 
L 197.165896 193.50341 
L 199.097795 193.11095 
L 200.842736 191.843004 
L 203.273189 189.156165 
L 204.893491 188.159921 
L 206.638431 187.676894 
L 209.100044 187.767461 
L 213.805152 189.3373 
L 214.02327 189.367489 
L 217.139235 190.514679 
L 221.127671 191.99395 
L 228.41903 194.710978 
L 233.466894 196.884601 
L 237.548809 198.605386 
L 242.129278 199.994089 
L 246.211193 200.869576 
L 250.542385 202.016766 
L 253.253275 202.348847 
L 255.839527 202.801685 
L 258.799694 203.465847 
L 264.346112 205.186632 
L 265.218583 205.24701 
L 266.091053 205.307389 
L 267.804834 205.2772 
L 269.518615 205.156443 
L 271.855589 204.552659 
L 274.099084 203.858307 
L 276.062143 203.496037 
L 278.399117 203.496037 
L 280.611452 203.828118 
L 284.818006 205.428146 
L 288.401366 207.481012 
L 290.7695 209.111229 
L 293.854306 212.341473 
L 297.718103 216.960422 
L 299.712321 219.858585 
L 300.460153 221.126532 
L 300.865228 222.666181 
L 300.958707 222.968073 
L 301.021026 223.541668 
L 301.332623 225.534156 
L 301.488421 227.25494 
L 302.018135 234.228646 
L 302.423211 239.692892 
L 302.45437 243.043894 
L 302.547849 247.330761 
L 302.610169 249.896843 
L 302.952925 267.165068 
L 302.579009 270.968908 
L 301.426102 274.470855 
L 297.437666 282.621941 
L 292.327483 290.803215 
L 290.987617 293.520243 
L 290.177466 295.180649 
L 289.990508 297.173137 
L 289.990508 297.625975 
L 287.341938 297.80711 
L 283.633939 298.139191 
L 282.231754 298.380705 
L 279.333906 300.493949 
L 275.563588 304.569492 
L 273.849807 306.53179 
L 272.509942 306.92425 
L 271.606312 307.165763 
L 270.453405 307.950683 
L 268.552666 308.192196 
L 267.30628 307.588412 
L 266.558448 307.346899 
L 265.841776 307.829926 
L 265.654818 308.101629 
L 266.558448 308.886548 
L 274.691118 314.622497 
L 280.206377 317.218768 
L 286.781064 319.633905 
L 288.432526 320.147121 
L 289.554273 320.781094 
L 289.678912 321.022608 
L 289.803551 321.294311 
L 289.897029 321.535825 
L 290.052828 322.109419 
L 289.678912 324.403799 
L 289.83471 328.026503 
L 289.803551 331.619019 
L 289.86587 335.120966 
L 289.928189 339.196509 
L 290.146307 342.305997 
L 290.956458 344.238106 
L 293.199953 347.257026 
L 294.664457 349.581595 
L 297.06375 352.81184 
" clip-path="url(#p6899360112)"/>
   </g>
  </g>
 </g>
 <defs>
  <clipPath id="p6899360112">
   <rect x="10.8" y="186.348569" width="1058.4" height="707.302863"/>
  </clipPath>
 </defs>
</svg>
