<?xml version="1.0" encoding="utf-8" standalone="no"?>
<!DOCTYPE svg PUBLIC "-//W3C//DTD SVG 1.1//EN"
  "http://www.w3.org/Graphics/SVG/1.1/DTD/svg11.dtd">
<svg xmlns:xlink="http://www.w3.org/1999/xlink" width="1080pt" height="1080pt" viewBox="0 0 1080 1080" xmlns="http://www.w3.org/2000/svg" version="1.1">
 <metadata>
  <rdf:RDF xmlns:dc="http://purl.org/dc/elements/1.1/" xmlns:cc="http://creativecommons.org/ns#" xmlns:rdf="http://www.w3.org/1999/02/22-rdf-syntax-ns#">
   <cc:Work>
    <dc:type rdf:resource="http://purl.org/dc/dcmitype/StillImage"/>
    <dc:date>2022-07-01T13:43:21.341936</dc:date>
    <dc:format>image/svg+xml</dc:format>
    <dc:creator>
     <cc:Agent>
      <dc:title>Matplotlib v3.5.1, https://matplotlib.org/</dc:title>
     </cc:Agent>
    </dc:creator>
   </cc:Work>
  </rdf:RDF>
 </metadata>
 <defs>
  <style type="text/css">*{stroke-linejoin: round; stroke-linecap: butt}</style>
 </defs>
 <g id="figure_1">
  <g id="patch_1">
   <path d="M 0 1080 
L 1080 1080 
L 1080 0 
L 0 0 
L 0 1080 
z
" style="fill: none; opacity: 0"/>
  </g>
  <g id="axes_1">
   <g id="PatchCollection_1">
    <path d="M 903.499014 327.760259 
L 912.726914 332.716407 
L 919.447233 338.644349 
L 926.869674 347.779209 
L 928.976042 353.026895 
L 930.781501 359.92663 
L 930.881804 366.923545 
L 929.979075 378.099172 
L 927.97301 388.691723 
L 926.969977 398.020943 
L 926.368158 407.544521 
L 926.468461 412.209131 
L 927.571797 421.052453 
L 931.483624 429.604237 
L 936.097574 436.89269 
L 938.906065 440.099609 
L 945.325474 444.66704 
L 950.942456 447.290883 
L 957.562472 449.914725 
L 965.586732 450.78934 
L 966.589765 451.080878 
L 982.036467 453.607541 
L 990.161031 455.551129 
L 995.075891 457.494716 
L 999.689841 461.381891 
L 1007.413192 470.613931 
L 1021.957165 489.952625 
L 1030.081729 502.780302 
L 1036.099924 512.595418 
L 1042.218423 529.115911 
L 1049.440258 551.855883 
L 1053.151478 569.639707 
L 1054.555724 580.523797 
L 1054.756331 582.856101 
L 1055.05724 587.812249 
L 1053.753298 604.332742 
L 1052.148446 619.881441 
L 1052.349052 636.013216 
L 1052.750265 641.260902 
L 1057.765428 652.825247 
L 1061.677255 659.724982 
L 1064.485747 665.361385 
L 1069.2 670.220354 
L 1063.583017 671.969582 
L 1055.35815 674.496246 
L 1050.543594 677.800344 
L 1039.109022 691.016738 
L 1033.592343 694.709554 
L 1013.732297 699.276985 
L 988.656482 704.719029 
L 977.322214 706.273899 
L 971.404321 705.788002 
L 964.182487 701.220572 
L 960.170356 696.750321 
L 956.258529 692.668788 
L 953.349735 688.295716 
L 951.644579 680.327008 
L 951.343669 666.041641 
L 954.453071 642.038337 
L 946.027597 639.900391 
L 940.91213 638.831418 
L 938.605155 637.762445 
L 932.28605 630.862709 
L 928.875739 628.238867 
L 926.568764 627.461432 
L 924.562699 627.75297 
L 921.252691 631.737324 
L 917.541471 633.680911 
L 910.419939 634.847064 
L 894.772631 636.013216 
L 887.952009 636.88783 
L 863.578317 649.521148 
L 856.256179 654.088579 
L 851.742532 658.947547 
L 847.529795 669.540098 
L 846.12555 676.634192 
L 847.228886 680.715725 
L 855.654359 692.474429 
L 864.28044 703.941594 
L 864.58135 706.856976 
L 864.58135 710.063895 
L 863.778923 714.436966 
L 856.557089 731.929253 
L 854.952237 736.010786 
L 852.645262 738.44027 
L 848.934041 740.09232 
L 843.517665 739.897961 
L 831.581577 737.274118 
L 802.995148 726.001311 
L 796.976952 723.863365 
L 793.265732 719.879011 
L 790.657847 714.242608 
L 788.049962 708.120307 
L 785.442077 706.759796 
L 782.031766 706.759796 
L 778.621456 707.051334 
L 771.600227 710.355433 
L 763.67627 713.951069 
L 760.767475 713.951069 
L 756.755345 709.966715 
L 747.527445 698.49955 
L 742.712889 695.001093 
L 734.387718 694.320837 
L 728.168916 694.612375 
L 722.15072 696.264424 
L 711.418271 701.803648 
L 707.506444 706.954155 
L 704.798256 721.433881 
L 703.69492 729.791306 
L 703.795224 734.941813 
L 704.798256 745.145647 
L 704.798256 750.198974 
L 704.29674 753.503072 
L 701.688855 755.932557 
L 697.175208 759.722552 
L 692.360652 762.443574 
L 684.236088 763.804085 
L 680.625171 764.387162 
L 675.108491 765.553314 
L 672.500607 766.719466 
L 672.500607 768.760233 
L 673.202729 778.283811 
L 671.99909 783.0456 
L 667.68605 788.973542 
L 660.765125 796.747891 
L 656.552388 806.951725 
L 648.628431 834.842204 
L 647.424792 842.616553 
L 647.625398 848.447315 
L 648.227218 851.071158 
L 653.342684 859.331405 
L 662.470281 868.952162 
L 667.585747 873.616772 
L 669.591812 875.46318 
L 668.488476 875.46318 
L 613.121077 877.115229 
L 607.403791 878.378561 
L 594.46467 885.569834 
L 588.747384 890.234444 
L 573.300682 873.713951 
L 571.294617 870.409853 
L 570.391888 862.246786 
L 571.094011 849.613468 
L 573.701895 836.202715 
L 577.914632 822.791962 
L 582.428279 810.936079 
L 582.428279 808.020698 
L 581.22464 806.563008 
L 578.616755 805.688393 
L 574.002805 805.105317 
L 562.066717 805.202496 
L 557.954284 803.550447 
L 553.54094 799.371734 
L 551.033359 794.124048 
L 550.030326 787.904569 
L 549.2279 778.186632 
L 541.103336 775.951506 
L 538.294845 778.283811 
L 537.091205 782.462524 
L 535.08514 798.691479 
L 534.483321 803.16173 
L 530.872403 813.365563 
L 530.872403 816.9612 
L 530.872403 817.641456 
L 530.7721 821.334272 
L 518.535102 821.722989 
L 517.83298 816.183765 
L 509.708415 815.892227 
L 505.696285 816.864021 
L 500.079303 821.334272 
L 487.742002 837.368867 
L 484.6326 841.54758 
L 481.22229 843.393988 
L 470.891054 847.864239 
L 469.085595 849.030392 
L 468.082563 850.293723 
L 467.581046 852.917566 
L 468.182866 857.096279 
L 469.587111 866.522678 
L 468.985292 868.563445 
L 467.68135 869.729597 
L 464.571948 871.576005 
L 445.614632 881.391121 
L 436.988552 885.958552 
L 424.952161 886.638807 
L 417.529719 884.792399 
L 415.523654 884.889578 
L 410.207582 885.569834 
L 407.499393 886.833166 
L 406.095148 890.623161 
L 404.991812 897.328538 
L 407.499393 921.720559 
L 410.909704 931.049778 
L 417.529719 938.241052 
L 423.648218 943.391558 
L 429.265201 950.096935 
L 431.471873 955.733338 
L 431.772782 963.799226 
L 429.365504 961.855638 
L 425.55398 961.855638 
L 421.642153 963.507687 
L 409.505459 971.379216 
L 404.590599 974.100239 
L 397.970584 974.100239 
L 392.955421 969.532808 
L 388.341471 959.620513 
L 384.93116 952.33206 
L 378.411448 939.893101 
L 373.295982 943.877455 
L 368.180516 948.444885 
L 364.770205 950.680011 
L 362.46323 950.680011 
L 357.347763 949.611038 
L 347.317437 946.20976 
L 342.703487 943.585917 
L 337.588021 938.53259 
L 334.077407 933.673621 
L 332.071342 928.620294 
L 329.964973 921.137483 
L 328.159515 917.055949 
L 324.749204 914.140568 
L 321.639803 912.585698 
L 314.718878 910.253394 
L 311.810083 907.823909 
L 309.101895 904.325452 
L 291.348218 882.751632 
L 280.515466 865.745243 
L 278.409098 863.607297 
L 275.500303 861.663709 
L 269.783017 859.234225 
L 265.169067 857.096279 
L 262.260273 853.986539 
L 249.321152 834.356307 
L 244.105383 826.096061 
L 243.302957 823.666576 
L 240.695072 819.293505 
L 236.682942 814.920433 
L 233.172328 812.102232 
L 230.865353 809.18685 
L 228.257468 806.271469 
L 227.455042 803.16173 
L 226.552312 797.233788 
L 226.452009 790.236874 
L 225.649583 778.866888 
L 222.540182 752.919996 
L 221.135936 740.481037 
L 218.828961 722.405674 
L 218.728658 713.465173 
L 219.430781 702.386725 
L 219.932297 687.323922 
L 219.531084 685.088797 
L 218.026535 683.339568 
L 216.02047 682.659313 
L 213.011372 682.659313 
L 206.190751 682.076237 
L 205.388324 682.076237 
L 201.576801 681.298802 
L 183.522214 671.580865 
L 163.662168 660.988314 
L 151.625777 654.671655 
L 147.011827 651.367556 
L 141.595451 644.856539 
L 138.987566 642.621413 
L 136.981501 641.55244 
L 136.379682 636.304754 
L 133.771797 625.809382 
L 133.57119 615.702728 
L 129.759666 616.285804 
L 124.844807 617.646315 
L 122.236922 619.492723 
L 120.63207 621.53349 
L 118.826611 627.364252 
L 117.021152 629.988095 
L 115.516603 630.959889 
L 113.009022 631.251427 
L 110.80235 631.251427 
L 107.793252 630.571171 
L 104.683851 628.530405 
L 102.778089 626.10092 
L 99.969598 621.53349 
L 97.963533 617.646315 
L 94.854132 600.542747 
L 93.650493 597.627365 
L 91.845034 595.489419 
L 89.638362 594.128908 
L 87.531994 593.83737 
L 85.626232 593.83737 
L 78.605004 595.878137 
L 77.301061 595.878137 
L 76.097422 595.586599 
L 75.495603 594.517626 
L 74.893783 592.865576 
L 72.386202 586.451738 
L 68.273768 575.956366 
L 65.064064 568.376376 
L 59.948597 557.589466 
L 52.927369 541.068973 
L 47.210083 529.601808 
L 44.501895 525.423095 
L 41.292191 521.53592 
L 34.070356 514.053109 
L 25.143366 504.140813 
L 22.535481 501.419791 
L 18.222441 493.451083 
L 14.210311 476.833411 
L 11.000607 463.325478 
L 10.8 462.742402 
L 19.325777 461.381891 
L 34.772479 460.215739 
L 42.395527 459.049586 
L 48.413723 457.008819 
L 54.131008 455.842667 
L 60.450114 455.35677 
L 68.775284 454.579335 
L 71.984989 454.384976 
L 74.49257 453.89908 
L 75.696209 453.024465 
L 77.301061 450.594981 
L 80.811676 437.281408 
L 86.829871 416.096305 
L 88.835936 408.224776 
L 89.638362 395.494279 
L 91.042608 387.914288 
L 96.659591 378.39071 
L 106.1884 364.785599 
L 113.610842 358.663299 
L 118.525701 354.873303 
L 117.823578 345.058187 
L 117.923882 340.199219 
L 118.124488 334.465636 
L 119.127521 329.315129 
L 119.027218 325.913851 
L 117.622972 324.261802 
L 118.926914 322.123856 
L 119.328127 318.819758 
L 121.434496 287.042104 
L 121.534799 283.932364 
L 129.659363 278.879037 
L 152.829416 267.314692 
L 166.370356 259.637522 
L 171.485823 254.292657 
L 173.893101 250.113944 
L 174.294314 247.781639 
L 173.391585 245.157796 
L 170.984306 243.311388 
L 162.960045 239.618572 
L 157.643973 236.606012 
L 137.783927 217.947573 
L 148.516376 208.715533 
L 154.935785 204.925538 
L 156.540637 204.925538 
L 169.078544 211.922452 
L 174.294314 213.380143 
L 186.731918 218.239111 
L 196.862547 222.223465 
L 203.783472 226.304999 
L 208.196816 230.872429 
L 216.722593 242.145236 
L 224.445944 249.628047 
L 232.570508 255.555989 
L 234.576573 256.333424 
L 252.33025 258.762908 
L 274.79818 260.900854 
L 280.31486 261.48393 
L 286.232752 261.48393 
L 291.247915 260.706495 
L 301.478848 257.208038 
L 311.007657 253.126504 
L 321.940713 246.712666 
L 333.876801 238.646779 
L 332.171645 222.806542 
L 332.171645 220.668595 
L 331.870735 197.248368 
L 335.682259 197.248368 
L 339.39348 198.122982 
L 343.305307 200.844004 
L 347.317437 203.759385 
L 349.724716 205.022717 
L 351.630478 205.217076 
L 353.335633 204.925538 
L 356.545337 202.690412 
L 365.171418 195.693498 
L 375.40235 188.502224 
L 398.271494 176.646342 
L 421.24094 170.524041 
L 449.325853 163.818665 
L 452.736164 163.818665 
L 457.951933 167.997378 
L 459.657089 176.743521 
L 460.559818 187.919148 
L 457.350114 202.301695 
L 452.836467 210.367582 
L 452.334951 211.145017 
L 452.435254 220.765775 
L 453.337983 227.179613 
L 461.161638 232.718837 
L 490.550493 242.922671 
L 488.143215 234.565245 
L 487.240485 231.358326 
L 487.240485 226.499358 
L 489.346854 222.806542 
L 498.273844 213.76886 
L 510.310235 207.549381 
L 517.130857 206.674766 
L 528.364822 205.411435 
L 538.094238 204.828358 
L 542.607885 191.611964 
L 542.607885 188.502224 
L 542.106368 183.448897 
L 544.61395 180.144799 
L 555.246096 168.580454 
L 559.258226 165.859432 
L 566.179151 162.944051 
L 569.489158 162.458154 
L 574.504321 169.455068 
L 582.528582 176.646342 
L 591.355269 173.536602 
L 586.1395 156.433033 
L 578.416149 143.02228 
L 592.358302 135.636648 
L 585.938893 123.294868 
L 593.261031 118.727438 
L 598.376497 115.617698 
L 601.184989 113.77129 
L 602.990447 111.341806 
L 604.795906 105.899761 
L 610.513192 106.09412 
L 618.838362 107.551811 
L 622.950796 108.717963 
L 633.883851 111.827703 
L 643.613268 116.492313 
L 651.336619 121.739998 
L 660.063002 129.22281 
L 666.783321 135.733827 
L 678.017286 150.407912 
L 682.430629 155.947136 
L 684.737604 161.972257 
L 685.640334 164.207382 
L 686.242153 172.564808 
L 686.342456 179.464543 
L 686.342456 185.781202 
L 684.035481 198.317341 
L 682.029416 209.881686 
L 681.427597 222.417824 
L 681.126687 228.442945 
L 680.92608 240.979083 
L 681.427597 250.502662 
L 681.427597 258.47137 
L 683.333359 271.687764 
L 689.451857 287.139283 
L 699.38188 302.882341 
L 706.503412 311.434126 
L 708.810387 313.960789 
L 712.521607 317.945143 
L 717.83768 323.484367 
L 728.770735 334.659995 
L 736.895299 344.766649 
L 740.405914 348.070747 
L 748.931691 353.318433 
L 759.764443 358.177402 
L 771.399621 361.675859 
L 779.724792 362.939191 
L 787.147233 363.230729 
L 794.469371 362.744832 
L 799.68514 361.092783 
L 806.305155 357.108429 
L 813.928203 351.083308 
L 822.955497 344.66947 
L 835.493404 336.020506 
L 845.52373 330.67564 
L 856.757695 327.274363 
L 864.180136 325.913851 
L 866.186202 325.525134 
L 876.316831 325.136416 
L 886.046247 325.039237 
L 896.578089 326.20539 
L 903.499014 327.760259 
" clip-path="url(#pd9191cd68b)"/>
   </g>
  </g>
 </g>
 <defs>
  <clipPath id="pd9191cd68b">
   <rect x="10.8" y="105.899761" width="1058.4" height="868.200477"/>
  </clipPath>
 </defs>
</svg>
