<?xml version="1.0" encoding="utf-8" standalone="no"?>
<!DOCTYPE svg PUBLIC "-//W3C//DTD SVG 1.1//EN"
  "http://www.w3.org/Graphics/SVG/1.1/DTD/svg11.dtd">
<svg xmlns:xlink="http://www.w3.org/1999/xlink" width="1080pt" height="1080pt" viewBox="0 0 1080 1080" xmlns="http://www.w3.org/2000/svg" version="1.1">
 <metadata>
  <rdf:RDF xmlns:dc="http://purl.org/dc/elements/1.1/" xmlns:cc="http://creativecommons.org/ns#" xmlns:rdf="http://www.w3.org/1999/02/22-rdf-syntax-ns#">
   <cc:Work>
    <dc:type rdf:resource="http://purl.org/dc/dcmitype/StillImage"/>
    <dc:date>2022-07-01T13:43:21.612804</dc:date>
    <dc:format>image/svg+xml</dc:format>
    <dc:creator>
     <cc:Agent>
      <dc:title>Matplotlib v3.5.1, https://matplotlib.org/</dc:title>
     </cc:Agent>
    </dc:creator>
   </cc:Work>
  </rdf:RDF>
 </metadata>
 <defs>
  <style type="text/css">*{stroke-linejoin: round; stroke-linecap: butt}</style>
 </defs>
 <g id="figure_1">
  <g id="patch_1">
   <path d="M 0 1080 
L 1080 1080 
L 1080 0 
L 0 0 
L 0 1080 
z
" style="fill: none; opacity: 0"/>
  </g>
  <g id="axes_1">
   <g id="PatchCollection_1">
    <path d="M 853.96747 86.139892 
L 855.389631 86.484359 
L 856.04992 87.124084 
L 856.710209 88.403534 
L 856.964167 90.765594 
L 855.491214 100.459885 
L 854.526176 106.463455 
L 854.526176 109.465241 
L 856.710209 113.106751 
L 861.586191 116.108536 
L 865.649508 117.978501 
L 868.849371 117.634034 
L 875.147513 114.287781 
L 878.753707 113.549637 
L 880.531409 115.911698 
L 879.515579 122.210526 
L 879.566371 124.867845 
L 880.277451 126.196504 
L 882.410693 127.180696 
L 894.499063 126.393342 
L 897.343385 126.6886 
L 898.054466 128.017259 
L 897.8513 129.887223 
L 897.749717 130.674577 
L 895.260935 132.396913 
L 889.877039 135.890794 
L 887.540632 139.433885 
L 886.880342 142.43567 
L 887.032717 156.460405 
L 888.404087 160.446383 
L 900.492456 179.09682 
L 904.352608 183.91936 
L 906.587433 186.675098 
L 907.450888 189.430835 
L 907.298513 191.153171 
L 906.231892 193.367603 
L 905.622395 192.629459 
L 905.012897 191.891315 
L 904.149442 191.596057 
L 902.828864 191.350009 
L 892.518196 191.645267 
L 891.908698 192.186572 
L 891.705532 192.727878 
L 891.756324 193.810489 
L 893.534025 197.107532 
L 893.534025 198.58382 
L 893.178485 199.518802 
L 891.400783 200.601413 
L 888.708835 202.520588 
L 886.321636 204.046085 
L 885.610556 204.784229 
L 884.899475 206.801823 
L 884.493143 207.441547 
L 883.223357 208.474949 
L 882.004361 208.770206 
L 880.328243 208.524158 
L 878.550541 207.982853 
L 877.382338 207.884434 
L 873.725352 208.27811 
L 870.322323 208.524158 
L 867.274835 208.179691 
L 866.614546 208.37653 
L 866.05584 209.262302 
L 864.633679 215.757969 
L 864.074973 220.236042 
L 865.090802 220.48209 
L 866.259006 220.088414 
L 868.392247 218.759755 
L 869.712826 218.218449 
L 870.728655 218.021611 
L 872.100025 218.169239 
L 873.268229 219.30106 
L 875.858594 224.714116 
L 877.331546 227.666691 
L 878.093418 230.963734 
L 878.14421 238.000707 
L 875.350679 245.529775 
L 874.741181 246.415548 
L 873.623769 247.252111 
L 871.490527 248.039464 
L 867.681167 251.484136 
L 865.547925 255.273275 
L 866.512963 257.14324 
L 866.665337 259.60372 
L 875.096721 263.540487 
L 884.950267 269.888525 
L 887.286674 271.414023 
L 887.48984 272.201376 
L 885.458181 275.941306 
L 881.140906 284.552985 
L 880.379034 287.111884 
L 880.379034 290.605765 
L 881.039323 292.574149 
L 885.458181 296.068031 
L 887.743797 297.790366 
L 887.743797 298.57772 
L 886.778759 300.349265 
L 883.070982 305.368644 
L 882.918608 306.697303 
L 886.067679 311.273796 
L 891.807115 321.509392 
L 892.111864 322.788841 
L 891.959489 324.757225 
L 891.705532 326.479561 
L 888.708835 329.875023 
L 886.220053 332.532341 
L 879.820328 337.60093 
L 879.667954 338.142235 
L 879.820328 338.683541 
L 880.988532 340.110619 
L 880.988532 340.897973 
L 880.734575 341.439278 
L 879.617162 342.866357 
L 878.347376 344.096597 
L 876.976006 344.244225 
L 875.807802 344.244225 
L 875.147513 344.490273 
L 874.284058 345.572885 
L 874.588807 346.606286 
L 876.722048 349.066766 
L 877.433129 349.80491 
L 886.016887 350.543054 
L 889.115167 352.21618 
L 886.321636 356.300577 
L 887.1343 357.08793 
L 896.175181 363.288339 
L 898.968712 365.945657 
L 901.355911 370.128473 
L 903.082821 375.000223 
L 903.590736 377.80517 
L 903.793902 381.692728 
L 904.149442 383.267435 
L 910.904708 397.931895 
L 911.869746 398.817668 
L 913.342698 398.620829 
L 916.745727 397.29217 
L 926.497689 391.928324 
L 931.170504 390.107569 
L 932.08475 390.107569 
L 932.795831 390.747294 
L 934.217992 392.51884 
L 935.18303 395.569834 
L 938.382893 407.183299 
L 941.836713 410.627971 
L 944.528661 412.645564 
L 946.611111 414.171062 
L 951.893424 415.59814 
L 958.597898 416.680751 
L 967.99432 417.468105 
L 977.644699 418.157039 
L 979.270026 417.763362 
L 982.87622 416.729961 
L 988.260116 415.007625 
L 990.596524 414.269481 
L 992.475808 417.123638 
L 993.694803 418.747554 
L 995.523296 425.784527 
L 995.878836 425.44006 
L 997.707329 424.012981 
L 999.78978 426.916347 
L 1003.903889 434.642254 
L 1004.564178 436.118542 
L 1005.224467 440.104519 
L 1005.732382 441.433178 
L 1006.900585 442.663418 
L 1012.030524 445.763623 
L 1012.58923 446.10809 
L 1012.995562 454.030835 
L 1010.608363 458.754956 
L 1007.967206 463.479078 
L 1004.361012 467.711103 
L 994.812216 476.667249 
L 992.475808 480.30876 
L 992.069476 482.326353 
L 992.069476 482.72003 
L 992.323434 483.95027 
L 993.59322 485.328138 
L 998.77395 491.873015 
L 999.078699 492.119063 
L 998.824742 493.939818 
L 997.148623 496.006621 
L 993.288471 496.843184 
L 989.225154 497.482909 
L 986.482415 498.909987 
L 985.822125 499.500502 
L 988.05695 506.242217 
L 986.583997 506.045378 
L 983.282552 505.79933 
L 979.4224 505.504073 
L 974.952751 506.291426 
L 973.682964 508.997954 
L 969.873604 511.704482 
L 967.384822 511.704482 
L 962.508841 510.671081 
L 960.223225 509.145583 
L 959.156604 509.145583 
L 957.175737 509.53926 
L 952.045798 511.852111 
L 950.979177 513.082351 
L 950.318888 514.509429 
L 950.115722 516.920699 
L 949.303059 518.987502 
L 946.306362 521.447982 
L 944.985784 522.284545 
L 943.715997 521.497192 
L 941.73513 520.070113 
L 940.00822 518.889083 
L 938.332101 518.692245 
L 936.655983 523.810043 
L 937.874978 525.778427 
L 938.586059 528.829422 
L 939.043182 531.093063 
L 938.890807 536.555328 
L 939.347931 539.803162 
L 940.7193 545.708313 
L 941.227215 548.56247 
L 941.633547 550.97374 
L 941.430381 552.597657 
L 940.617717 553.532639 
L 940.109803 553.43422 
L 939.043182 553.43422 
L 937.773395 553.040543 
L 931.881585 550.235596 
L 930.865755 549.645081 
L 927.767476 547.824326 
L 908.21276 548.611679 
L 905.165272 548.464051 
L 903.946276 545.609894 
L 902.625698 543.789139 
L 900.238499 541.771545 
L 898.460798 540.984192 
L 888.962793 539.458694 
L 884.188395 539.114227 
L 878.804499 538.966598 
L 876.214134 540 
L 873.420603 541.23024 
L 872.353982 542.755737 
L 871.94765 546.938553 
L 870.881029 550.826111 
L 866.868503 558.798066 
L 864.786053 563.472977 
L 863.567058 570.608369 
L 863.516266 576.808778 
L 876.823631 587.831728 
L 872.557148 596.197359 
L 868.544622 602.15172 
L 872.912688 606.777422 
L 873.572977 607.613985 
L 874.487224 610.025256 
L 874.487224 613.076251 
L 873.67456 615.930407 
L 871.084195 618.390887 
L 864.024181 624.14841 
L 856.303878 630.299609 
L 853.357972 634.826892 
L 852.291352 637.287372 
L 852.291352 639.501804 
L 853.002432 642.749637 
L 854.983299 645.160908 
L 855.389631 645.308536 
L 857.77683 647.572178 
L 868.036707 652.788395 
L 875.858594 656.971211 
L 881.293281 659.726948 
L 892.111864 665.238423 
L 897.089428 669.322819 
L 901.254328 674.14536 
L 903.38757 678.771062 
L 904.708148 683.347554 
L 904.75894 686.250921 
L 903.895485 690.286107 
L 901.609869 695.403906 
L 898.816338 698.848577 
L 896.276764 701.0138 
L 884.188395 706.968161 
L 879.312413 710.65888 
L 875.503053 715.57984 
L 872.455565 722.616812 
L 872.252399 724.831244 
L 872.353982 735.017631 
L 872.658731 739.397285 
L 874.791973 748.107383 
L 878.702916 759.130333 
L 885.508973 772.662972 
L 887.1343 774.582146 
L 890.791286 778.912591 
L 894.651437 781.569909 
L 902.930447 784.620904 
L 927.767476 789.738702 
L 935.792528 791.608667 
L 939.195556 793.527841 
L 942.852542 797.120141 
L 945.442907 800.761651 
L 946.255571 804.895258 
L 946.052405 808.782816 
L 945.18895 814.245081 
L 944.731826 817.394495 
L 944.833409 821.134424 
L 944.833409 821.478892 
L 944.934992 825.021983 
L 945.138158 830.287409 
L 946.001613 840.473796 
L 947.372983 848.002864 
L 947.372983 850.168086 
L 943.563623 854.350902 
L 942.547793 857.254268 
L 942.344627 861.387874 
L 942.903334 865.52148 
L 944.477869 870.344021 
L 949.252267 881.711438 
L 952.147381 888.256314 
L 953.467959 892.882016 
L 954.788537 894.309094 
L 956.61703 894.80119 
L 960.477182 894.505933 
L 964.845248 893.718579 
L 971.549722 890.273907 
L 973.581381 889.289715 
L 976.425704 888.945248 
L 978.508154 888.6992 
L 979.473192 888.551572 
L 984.60313 888.551572 
L 990.952064 888.502362 
L 990.037817 891.258099 
L 989.123571 892.488339 
L 987.70141 893.423322 
L 985.111045 894.998029 
L 981.403268 897.31088 
L 984.653922 903.560498 
L 977.593907 907.300428 
L 981.504851 914.091352 
L 984.146007 922.752241 
L 979.676358 924.326948 
L 975.61304 920.685438 
L 973.073467 917.142347 
L 971.397348 917.388395 
L 967.892737 918.864683 
L 965.861078 920.242552 
L 960.477182 926.098494 
L 959.207395 927.77162 
L 959.461353 930.330519 
L 959.461353 931.905226 
L 957.175737 938.597731 
L 952.248964 938.892989 
L 946.560319 939.532713 
L 943.106499 939.9756 
L 937.011523 943.125014 
L 932.491082 947.701506 
L 931.424461 949.571471 
L 931.424461 952.031951 
L 931.881585 953.655868 
L 933.10058 957.887893 
L 918.218679 952.720885 
L 914.256945 949.915938 
L 913.799821 946.668105 
L 913.74903 941.796355 
L 914.002987 941.402678 
L 916.288603 937.318282 
L 917.91393 930.035261 
L 917.456807 924.376158 
L 916.593352 919.947294 
L 913.952196 917.831281 
L 912.225286 917.831281 
L 898.003674 921.226744 
L 886.372428 924.326948 
L 874.791973 930.330519 
L 869.611243 933.972029 
L 865.243176 937.51512 
L 863.617849 938.646941 
L 862.754394 938.794569 
L 861.789356 938.69615 
L 860.570361 938.056426 
L 858.538702 936.580138 
L 856.557835 935.202269 
L 854.678551 934.759383 
L 852.748475 934.759383 
L 852.900849 946.618895 
L 852.900849 947.701506 
L 853.764304 955.722671 
L 847.720119 959.807067 
L 842.183849 963.054901 
L 837.358659 965.121704 
L 832.17793 966.893249 
L 829.638356 967.286926 
L 826.641659 967.286926 
L 823.848129 966.991668 
L 812.470839 965.909057 
L 803.480749 964.678817 
L 802.46492 964.28514 
L 798.350811 961.283355 
L 794.439868 957.494216 
L 790.122593 951.785903 
L 787.887768 949.473052 
L 784.383157 947.406249 
L 779.253218 945.388655 
L 772.955076 942.928176 
L 770.313919 942.190032 
L 763.964986 938.646941 
L 763.152322 938.646941 
L 759.901668 940.566115 
L 754.466981 945.241027 
L 764.523692 954.689269 
L 767.21564 956.214767 
L 771.278957 958.084731 
L 772.497953 959.019714 
L 772.955076 960.348373 
L 772.75191 961.529403 
L 771.532915 963.645416 
L 768.94255 966.351943 
L 762.085701 970.239502 
L 750.352872 976.095444 
L 746.238763 978.654343 
L 746.187971 980.22905 
L 745.12135 996.320588 
L 744.918185 997.993714 
L 744.257895 999.076325 
L 744.968976 999.912888 
L 745.019768 1001.635224 
L 744.511853 1004.243333 
L 744.41027 1007.146699 
L 744.359478 1009.607179 
L 744.715019 1014.577348 
L 742.226237 1016.496522 
L 738.467668 1019.596727 
L 733.642478 1026.48607 
L 730.798156 1031.308611 
L 730.087075 1035.146959 
L 729.680744 1041.593416 
L 728.664914 1045.579394 
L 725.617426 1056.307086 
L 723.839725 1063.0488 
L 723.027061 1064.27904 
L 722.417563 1064.721927 
L 721.147777 1064.967975 
L 719.52245 1065.066394 
L 715.306758 1065.460071 
L 712.106895 1065.706119 
L 709.211781 1066.296634 
L 706.164293 1067.330035 
L 702.304141 1067.92055 
L 694.482255 1068.511066 
L 690.16498 1069.2 
L 685.187416 1056.897601 
L 683.612881 1052.271899 
L 682.597051 1051.140078 
L 679.651146 1050.057467 
L 677.771862 1048.778017 
L 668.984937 1040.363176 
L 662.991544 1034.507235 
L 660.909094 1031.948336 
L 658.115563 1026.53528 
L 655.728364 1024.12401 
L 653.137999 1023.877962 
L 648.414392 1024.271638 
L 644.1987 1024.173219 
L 642.268624 1022.992189 
L 640.186174 1021.319063 
L 636.122856 1017.726762 
L 635.157819 1017.579133 
L 634.192781 1018.071229 
L 627.996221 1027.224214 
L 627.031183 1028.011568 
L 626.066145 1028.159197 
L 623.831321 1027.421053 
L 620.123543 1026.092394 
L 615.450728 1024.911363 
L 610.422373 1023.779542 
L 609.152586 1022.89377 
L 607.832008 1020.777757 
L 607.171719 1019.25226 
L 606.968553 1016.840989 
L 606.562221 1011.427934 
L 606.206681 1009.45955 
L 605.444809 1005.227525 
L 603.921065 999.322373 
L 601.990989 996.123749 
L 600.873576 995.336396 
L 599.756164 995.041138 
L 590.004202 995.336396 
L 588.531249 995.484025 
L 587.312254 996.07454 
L 584.467932 999.962098 
L 582.791813 1001.684434 
L 581.369652 1002.373368 
L 579.642742 1002.520997 
L 576.747628 1002.324158 
L 569.230491 1001.832062 
L 563.389472 1001.438386 
L 559.986443 1000.601823 
L 558.411908 999.470002 
L 558.208742 999.223954 
L 557.09133 997.698456 
L 555.415211 993.56485 
L 553.63751 988.348633 
L 553.586718 987.167603 
L 553.688301 986.626297 
L 554.500965 985.642105 
L 562.170477 980.13063 
L 562.678391 980.13063 
L 563.491055 980.524307 
L 564.303718 981.852966 
L 565.370339 983.476883 
L 566.741709 984.510285 
L 567.909913 984.854752 
L 569.89078 984.953171 
L 572.887477 984.805542 
L 574.71597 984.461075 
L 577.15396 982.886368 
L 579.896699 980.032211 
L 580.810946 978.408295 
L 581.115695 976.439911 
L 580.96332 974.668365 
L 580.25224 973.192077 
L 577.915832 971.125274 
L 576.290505 969.599777 
L 574.309638 966.79483 
L 572.887477 963.645416 
L 572.836685 961.677032 
L 573.3446 959.708648 
L 574.665178 957.445007 
L 575.274676 955.427413 
L 575.274676 953.901916 
L 574.665178 946.766524 
L 573.3446 936.776976 
L 572.32877 931.757597 
L 571.668481 930.625776 
L 566.843292 925.901655 
L 565.471922 925.065092 
L 563.33868 924.474577 
L 562.424434 924.228529 
L 561.205439 922.85066 
L 560.90069 921.226744 
L 561.154647 920.587019 
L 561.916519 919.799665 
L 572.024022 915.469221 
L 574.411221 914.38661 
L 575.376259 913.008741 
L 576.696837 909.810117 
L 578.830079 904.495481 
L 579.439576 901.346067 
L 579.185619 899.869779 
L 578.372955 898.4427 
L 577.001586 896.867993 
L 573.750932 893.423322 
L 566.132211 885.205319 
L 561.764145 879.644635 
L 556.684998 873.345806 
L 553.078803 868.720104 
L 552.215348 867.342235 
L 550.336064 863.061001 
L 547.898074 859.714748 
L 543.530007 853.514339 
L 540.482519 849.380733 
L 538.349277 847.461558 
L 536.114453 845.788432 
L 532.660633 843.770839 
L 530.679765 842.245341 
L 529.714727 840.818263 
L 528.444941 838.357783 
L 527.581486 835.749675 
L 527.124362 831.320811 
L 526.057742 824.825144 
L 525.600618 820.297861 
L 525.041912 806.519174 
L 525.194287 797.563028 
L 526.768822 792.34681 
L 527.987817 790.378427 
L 530.324225 788.508462 
L 533.117756 787.671899 
L 533.930419 774.483727 
L 524.737163 774.631356 
L 513.410666 774.828194 
L 510.413969 774.336098 
L 509.550514 773.548745 
L 509.245765 772.170876 
L 509.499722 770.596169 
L 510.312386 768.676995 
L 514.578869 763.657616 
L 515.137576 762.575005 
L 515.086784 761.640022 
L 512.902751 757.801674 
L 511.023467 753.175972 
L 508.280727 740.381477 
L 508.38231 738.609931 
L 509.245765 738.068626 
L 517.067651 734.623954 
L 523.365794 732.753989 
L 524.178457 731.966636 
L 524.584789 730.834815 
L 524.127666 729.063269 
L 520.927803 726.55358 
L 517.626358 723.896262 
L 516.813694 721.337363 
L 517.220026 718.089529 
L 518.083481 714.989325 
L 518.286647 714.694067 
L 517.220026 714.103552 
L 516.254988 713.955923 
L 514.528078 714.546439 
L 513.258291 715.875098 
L 512.445628 717.646643 
L 512.140879 719.516608 
L 512.19167 722.223136 
L 512.496419 724.782035 
L 512.547211 725.815436 
L 512.394836 726.258322 
L 511.83613 726.799628 
L 510.667926 726.799628 
L 507.975978 726.307532 
L 494.820988 724.683615 
L 492.382997 723.748633 
L 490.198964 721.484992 
L 487.151476 718.581625 
L 483.697656 716.071936 
L 476.536059 712.922522 
L 473.945694 712.135168 
L 472.675907 712.184378 
L 471.710869 712.430426 
L 469.120504 714.201971 
L 465.768267 717.597434 
L 459.876457 725.32334 
L 453.0704 735.755775 
L 451.089532 739.249656 
L 450.022911 742.39907 
L 449.819746 745.253227 
L 449.667371 748.599479 
L 449.362622 749.189994 
L 448.397584 749.878929 
L 441.235987 753.520439 
L 439.153537 754.357002 
L 437.071087 754.160164 
L 426.912793 753.569649 
L 423.865304 753.126762 
L 423.458973 752.634666 
L 425.389049 748.599479 
L 427.979414 743.481681 
L 429.858698 740.971992 
L 434.277556 736.789176 
L 437.832959 736.051032 
L 438.747205 735.706565 
L 440.829655 734.427115 
L 443.06448 732.114264 
L 443.978726 730.490348 
L 444.689807 727.83303 
L 445.553262 720.353171 
L 446.264343 718.581625 
L 447.381755 717.499014 
L 452.460902 713.562247 
L 453.019608 712.332007 
L 452.968817 711.790701 
L 452.206945 710.560461 
L 451.952987 706.131598 
L 452.308528 699.537512 
L 451.952987 696.04363 
L 451.902196 693.484731 
L 452.05457 690.138479 
L 449.311831 688.416143 
L 447.026215 689.006658 
L 445.604054 689.006658 
L 444.588224 688.563772 
L 443.06448 687.235113 
L 441.134404 685.561986 
L 440.016992 684.331746 
L 437.832959 678.229756 
L 437.020295 676.409001 
L 436.309215 675.277181 
L 435.293385 674.932713 
L 433.871224 674.834294 
L 431.687191 674.735875 
L 428.792077 671.094365 
L 424.474802 667.649693 
L 422.443143 666.665501 
L 421.376522 666.124196 
L 419.90357 665.53368 
L 419.192489 665.090794 
L 418.786158 664.303441 
L 418.786158 663.516087 
L 418.88774 662.482686 
L 419.192489 661.498494 
L 414.316508 661.842961 
L 410.100816 661.89217 
L 405.935916 662.285847 
L 404.513755 662.630314 
L 402.888427 663.270039 
L 401.009143 664.746327 
L 400.094897 665.976567 
L 398.520361 664.254231 
L 397.707698 661.99059 
L 397.707698 660.219044 
L 398.164821 659.431691 
L 411.319811 651.951832 
L 418.786158 647.769016 
L 419.598821 646.735615 
L 419.852778 645.160908 
L 420.411485 643.63541 
L 421.579688 639.452594 
L 422.747892 634.728473 
L 423.255807 630.299609 
L 423.408181 626.904147 
L 423.865304 626.215213 
L 424.525594 625.673907 
L 425.744589 624.837344 
L 427.725456 623.754733 
L 428.639703 622.96738 
L 429.401575 621.63872 
L 437.88375 618.932193 
L 438.848788 618.587725 
L 441.540736 617.308276 
L 445.858011 614.847796 
L 445.553262 612.682574 
L 445.299305 611.649172 
L 444.486641 610.025256 
L 443.877144 609.582369 
L 445.350096 608.893435 
L 446.111968 608.893435 
L 447.127798 609.188693 
L 448.499167 610.369723 
L 449.108665 610.468142 
L 449.667371 610.025256 
L 451.546655 607.909243 
L 449.921328 606.531374 
L 447.229381 604.562991 
L 446.5183 603.529589 
L 445.705636 601.216738 
L 445.248513 599.74045 
L 444.334267 598.903887 
L 443.521603 598.461001 
L 442.861314 598.51021 
L 441.083613 598.953097 
L 438.290082 600.527804 
L 436.51238 601.413576 
L 434.379139 601.659624 
L 431.788774 601.659624 
L 428.284162 601.167528 
L 418.836949 598.707049 
L 413.097513 597.772066 
L 391.815887 596.492617 
L 388.412859 597.033922 
L 382.368674 599.248354 
L 379.930683 599.986498 
L 378.254565 600.429384 
L 376.476863 600.429384 
L 373.93729 599.592821 
L 371.651674 598.657839 
L 368.147062 595.656054 
L 366.318569 593.195574 
L 364.9472 590.341417 
L 363.525038 586.158601 
L 363.067915 585.371248 
L 362.356835 585.17441 
L 361.290214 585.568086 
L 358.242726 588.274614 
L 352.960413 593.540041 
L 346.103564 598.264162 
L 340.364128 595.508425 
L 336.859517 593.195574 
L 334.269152 590.292208 
L 331.42483 586.35544 
L 328.631299 581.385271 
L 324.87273 576.415101 
L 322.587114 574.299089 
L 321.164953 573.019639 
L 317.863507 571.494142 
L 315.069976 570.854417 
L 311.412991 570.165483 
L 308.314711 570.559159 
L 306.079886 571.444932 
L 301.000739 574.249879 
L 297.648502 575.184861 
L 296.429507 575.529329 
L 294.245474 575.578538 
L 292.010649 574.889604 
L 287.744166 571.641771 
L 283.680848 568.09868 
L 281.801564 567.065278 
L 278.144578 566.081086 
L 273.522554 564.604798 
L 271.694061 563.571397 
L 270.373483 561.701432 
L 268.291033 556.534424 
L 266.564123 552.597657 
L 264.684838 550.186386 
L 261.180227 547.479859 
L 257.675616 544.576492 
L 256.151871 542.706528 
L 254.272587 539.606323 
L 249.955312 533.602752 
L 246.09516 530.059662 
L 242.235009 526.762619 
L 240.304933 522.284545 
L 237.409819 515.887298 
L 236.495573 511.507644 
L 231.619592 511.015548 
L 226.845193 511.064757 
L 222.020004 510.7695 
L 217.702729 509.686889 
L 210.337966 506.537474 
L 205.258819 504.323043 
L 204.293781 503.338851 
L 203.430326 500.730742 
L 203.023994 498.368681 
L 203.22716 495.612944 
L 203.430326 492.955626 
L 203.989032 488.674391 
L 200.12888 487.001265 
L 197.33535 485.377348 
L 196.878226 484.048689 
L 196.827435 482.129515 
L 196.929018 480.751646 
L 197.487724 477.306974 
L 197.487724 476.864088 
L 197.33535 476.371992 
L 196.827435 476.076734 
L 196.268729 476.175153 
L 193.322823 477.897489 
L 189.157923 480.751646 
L 184.840648 484.737623 
L 181.742368 487.001265 
L 179.863084 487.936247 
L 173.209401 489.806212 
L 171.279326 490.495146 
L 168.181046 491.873015 
L 164.625643 493.742979 
L 156.549799 496.941603 
L 155.026055 497.187651 
L 153.959434 497.089232 
L 152.384899 496.547926 
L 150.70878 495.366896 
L 149.235828 493.69377 
L 147.91525 491.23329 
L 146.696254 489.806212 
L 145.832799 489.461744 
L 135.82688 490.05226 
L 134.658676 490.249098 
L 133.338098 491.18408 
L 131.560396 493.004835 
L 128.055785 496.498717 
L 126.887581 496.892394 
L 123.586136 496.892394 
L 121.65606 496.695555 
L 119.116486 495.760573 
L 117.694325 495.071638 
L 117.18641 494.235075 
L 117.18641 493.152464 
L 119.675192 489.314116 
L 121.65606 484.147108 
L 121.605268 482.080305 
L 121.198936 481.145323 
L 120.437064 480.456388 
L 118.760946 479.865873 
L 117.237202 479.767454 
L 116.729287 479.865873 
L 116.373747 480.505598 
L 116.272164 482.424772 
L 115.916624 483.507383 
L 114.900794 484.836042 
L 112.615178 487.099684 
L 108.856609 490.150679 
L 106.11387 492.315901 
L 104.234586 489.806212 
L 93.619168 480.062712 
L 87.422609 473.616254 
L 82.038713 463.429868 
L 76.553235 444.631802 
L 76.451652 439.710842 
L 77.721438 435.18356 
L 81.530799 426.916347 
L 89.606642 410.037456 
L 103.269548 390.993342 
L 108.399486 379.871973 
L 110.431145 369.193491 
L 110.329562 363.878854 
L 109.872439 360.581811 
L 104.945666 351.231988 
L 96.920614 339.028008 
L 78.229353 314.669258 
L 73.607329 308.173591 
L 68.426599 300.841361 
L 67.05523 296.363288 
L 67.004438 294.296485 
L 67.41077 291.836005 
L 69.13768 288.096076 
L 73.454955 282.387763 
L 78.12777 276.138144 
L 83.66404 266.197805 
L 89.251102 260.833959 
L 94.38104 257.044821 
L 112.158055 247.694997 
L 118.91332 245.037679 
L 126.379666 243.266134 
L 135.420548 239.969091 
L 137.198249 239.083318 
L 137.858539 238.000707 
L 137.858539 236.721257 
L 138.468036 233.325795 
L 139.585448 229.487447 
L 145.17251 214.872196 
L 145.578842 213.789585 
L 148.219998 207.14629 
L 151.419861 194.351795 
L 153.299145 179.884173 
L 153.502311 172.453524 
L 153.603894 169.648577 
L 153.756269 165.810229 
L 154.1626 150.948931 
L 158.581458 141.451479 
L 165.184349 131.412721 
L 180.117041 128.656983 
L 193.932321 126.098084 
L 218.312227 124.769425 
L 245.587246 134.660554 
L 254.678919 142.681718 
L 262.703971 159.117724 
L 265.700668 165.761019 
L 268.494199 171.912219 
L 268.697365 189.184787 
L 275.858962 196.074131 
L 278.957241 200.601413 
L 283.376099 206.949451 
L 288.912369 217.381886 
L 290.029782 220.728138 
L 294.905763 234.851293 
L 299.019872 248.285512 
L 301.35628 262.802343 
L 304.759308 275.596838 
L 301.914986 278.647833 
L 302.676858 279.336768 
L 303.692687 280.124121 
L 306.079886 282.043296 
L 308.517877 283.96247 
L 312.987526 287.505561 
L 316.847678 290.507346 
L 318.473005 291.836005 
L 320.149123 293.164664 
L 321.215744 293.952018 
L 322.434739 294.542533 
L 323.348986 294.985419 
L 333.86282 299.906379 
L 341.837081 301.923972 
L 344.681403 302.662116 
L 345.544858 302.809745 
L 349.252635 303.44947 
L 350.674797 303.695518 
L 352.960413 304.089195 
L 355.246029 304.482871 
L 357.785602 304.925758 
L 359.512512 305.221015 
L 360.274384 305.319435 
L 360.731508 305.565483 
L 363.525038 305.86074 
L 363.93137 305.90995 
L 370.178721 306.352836 
L 381.20047 307.09098 
L 395.066541 307.927543 
L 395.422081 307.927543 
L 395.879205 307.976753 
L 397.555323 308.173591 
L 398.621944 308.27201 
L 399.688565 308.37043 
L 401.161518 308.518058 
L 402.329721 308.665687 
L 403.040802 308.764106 
L 408.729447 309.797508 
L 411.929309 310.338813 
L 417.922703 310.880119 
L 421.884437 310.437233 
L 437.680584 305.171806 
L 437.579001 303.892356 
L 437.071087 298.233253 
L 454.543352 292.918616 
L 461.908115 290.753394 
L 474.453608 286.964255 
L 487.354642 281.944876 
L 491.519542 280.911475 
L 493.449618 280.714636 
L 495.887609 281.009894 
L 498.884305 281.944876 
L 503.252372 283.568793 
L 506.350651 284.356147 
L 506.096694 280.960684 
L 506.045902 278.697043 
L 506.249068 277.122336 
L 508.02677 271.856909 
L 508.38231 270.47904 
L 508.38231 269.051962 
L 507.569647 266.296225 
L 503.607912 259.898977 
L 501.525462 257.979803 
L 498.731931 256.109838 
L 496.903438 254.879598 
L 496.039983 253.157262 
L 492.992495 246.809224 
L 492.48458 245.234517 
L 492.636954 244.004277 
L 493.601992 242.134313 
L 495.887609 239.132527 
L 497.360561 237.459401 
L 498.884305 237.213353 
L 504.420575 236.475209 
L 507.214106 236.426 
L 510.769509 237.459401 
L 515.086784 239.132527 
L 518.997727 239.969091 
L 521.080178 239.624623 
L 521.588092 239.132527 
L 521.791258 237.951497 
L 521.537301 236.622838 
L 519.251685 232.882909 
L 518.185064 230.816106 
L 518.134272 229.684285 
L 518.946936 228.257207 
L 519.302476 228.257207 
L 521.435718 227.912739 
L 526.057742 228.207997 
L 527.937026 228.700093 
L 532.152718 228.552464 
L 535.962078 227.469853 
L 540.888851 225.649098 
L 541.803097 225.304631 
L 544.698211 223.779133 
L 546.171164 222.794941 
L 546.933036 221.220234 
L 546.221955 219.547108 
L 543.936339 216.397694 
L 541.447557 214.084843 
L 540.076187 214.134052 
L 536.520784 215.413502 
L 534.235168 215.462712 
L 531.086097 214.872196 
L 529.257604 213.395908 
L 528.0894 207.490757 
L 528.394149 204.538181 
L 530.527391 202.815845 
L 536.774742 200.404575 
L 538.349277 200.404575 
L 540.634893 201.880863 
L 542.666552 203.947666 
L 546.069581 204.488972 
L 550.640813 203.996876 
L 553.485135 201.979282 
L 555.008879 199.617221 
L 556.329458 198.928287 
L 557.497661 198.928287 
L 558.411908 200.207737 
L 560.697524 206.063679 
L 561.865728 207.982853 
L 563.541846 210.246494 
L 565.370339 212.067249 
L 567.097249 213.395908 
L 569.027325 214.035633 
L 571.008192 213.691166 
L 572.938268 211.427525 
L 573.649349 209.213093 
L 574.411221 207.047871 
L 575.884173 204.882648 
L 578.982453 204.095295 
L 584.112391 205.030277 
L 584.975846 205.079487 
L 584.874263 205.965259 
L 584.772681 206.703403 
L 584.163183 207.490757 
L 582.436273 208.474949 
L 581.420444 209.705189 
L 580.96332 210.590962 
L 580.96332 211.378315 
L 580.96332 212.460926 
L 581.928358 215.954808 
L 586.804339 222.94257 
L 594.372268 229.782704 
L 596.403927 231.947926 
L 597.572131 232.932118 
L 598.080046 232.932118 
L 598.638752 232.243184 
L 598.740335 231.357411 
L 595.438889 218.661335 
L 597.724505 217.234257 
L 603.108401 224.17281 
L 605.749558 218.808964 
L 606.562221 215.265873 
L 611.082662 217.283467 
L 613.215904 217.627934 
L 621.291747 216.88979 
L 622.205994 216.643742 
L 622.663117 216.102436 
L 623.932904 214.330891 
L 625.507439 211.378315 
L 630.789752 216.938999 
L 634.802278 213.100651 
L 641.862293 206.654194 
L 642.420999 204.68581 
L 643.081288 203.45557 
L 644.55424 202.717426 
L 645.519278 203.061893 
L 647.144605 203.061893 
L 648.262018 202.422168 
L 648.262018 201.191929 
L 646.941439 198.63303 
L 644.097117 195.286777 
L 642.47179 194.843891 
L 639.881425 195.040729 
L 636.122856 196.270969 
L 634.141989 196.320179 
L 632.872202 195.237567 
L 632.821411 193.71207 
L 636.275231 190.168979 
L 636.783146 188.200595 
L 636.783146 186.724307 
L 636.224439 184.313037 
L 630.738961 170.091464 
L 630.38342 169.648577 
L 629.977089 168.664385 
L 629.723131 166.745211 
L 630.281837 163.497378 
L 634.040406 161.282946 
L 636.021274 159.659029 
L 640.38934 154.393602 
L 643.335245 150.850511 
L 645.620861 146.766115 
L 645.722444 144.354845 
L 645.21453 142.829347 
L 645.112947 141.30385 
L 645.722444 139.483095 
L 646.585899 138.154436 
L 648.058852 136.579728 
L 648.769932 136.38289 
L 650.344468 136.481309 
L 652.83325 136.628938 
L 653.645913 136.4321 
L 654.103037 136.186052 
L 654.56016 135.743165 
L 658.572686 130.379319 
L 659.38535 129.149079 
L 659.842473 128.509355 
L 661.4678 129.591966 
L 662.026506 129.198289 
L 663.245501 128.312516 
L 671.321345 121.570802 
L 679.346397 116.010117 
L 678.228985 112.073349 
L 677.924236 110.695481 
L 678.178193 108.235001 
L 678.940065 106.020569 
L 679.905103 103.953766 
L 680.971724 102.182221 
L 683.917629 98.934387 
L 686.457203 96.670746 
L 688.844402 94.062637 
L 691.637933 89.584564 
L 692.552179 88.108276 
L 693.314051 85.352539 
L 693.872758 82.69522 
L 694.888587 80.28395 
L 698.697947 72.754882 
L 699.256653 71.524642 
L 704.386592 67.194198 
L 706.875374 65.71791 
L 708.551492 65.028975 
L 711.192649 64.43846 
L 713.884597 63.798735 
L 715.509924 63.159011 
L 716.373379 62.02719 
L 716.678127 60.944579 
L 716.474962 59.861968 
L 715.255966 56.564925 
L 714.036971 53.956816 
L 711.751355 49.331114 
L 710.938691 46.034071 
L 709.51653 43.868849 
L 709.719696 43.229124 
L 710.938691 35.946104 
L 711.395815 32.69827 
L 712.157687 29.991743 
L 714.34172 25.169202 
L 717.135251 20.59271 
L 721.757274 16.409894 
L 729.274412 10.8 
L 729.88391 10.8 
L 732.626649 10.8 
L 745.78164 12.768384 
L 748.270422 13.408109 
L 753.705109 15.67175 
L 759.698502 18.624326 
L 769.65363 24.824735 
L 770.974209 26.350232 
L 774.783569 24.972364 
L 777.018393 21.626111 
L 778.542138 20.887967 
L 789.513095 20.297452 
L 789.665469 20.691129 
L 791.240005 23.348447 
L 791.951086 23.988172 
L 792.662166 24.283429 
L 795.049365 23.988172 
L 799.163474 22.265836 
L 800.585635 21.82295 
L 801.855422 21.82295 
L 803.633124 22.905561 
L 804.852119 24.677106 
L 805.512408 26.251813 
L 805.715574 32.74748 
L 805.613991 34.223768 
L 804.90291 35.060331 
L 804.141038 35.847685 
L 801.906214 36.684248 
L 798.858725 38.89868 
L 797.233398 41.457579 
L 796.369943 44.016478 
L 795.709654 47.608778 
L 796.725484 55.679152 
L 797.385773 58.139632 
L 797.588939 58.582518 
L 800.128512 64.093993 
L 802.718877 68.818114 
L 804.496579 71.377013 
L 812.82638 81.711028 
L 815.315162 83.827041 
L 816.584948 84.269927 
L 817.549986 84.614395 
L 829.282816 85.795425 
L 835.733332 86.484359 
L 840.507731 87.124084 
L 844.571048 87.61618 
L 847.313788 87.61618 
L 849.751778 87.025665 
L 850.86919 86.779617 
L 853.96747 86.139892 
" clip-path="url(#p1e4b67e893)"/>
   </g>
  </g>
 </g>
 <defs>
  <clipPath id="p1e4b67e893">
   <rect x="67.004438" y="10.8" width="945.991123" height="1058.4"/>
  </clipPath>
 </defs>
</svg>
