<?xml version="1.0" encoding="utf-8" standalone="no"?>
<!DOCTYPE svg PUBLIC "-//W3C//DTD SVG 1.1//EN"
  "http://www.w3.org/Graphics/SVG/1.1/DTD/svg11.dtd">
<svg xmlns:xlink="http://www.w3.org/1999/xlink" width="1080pt" height="1080pt" viewBox="0 0 1080 1080" xmlns="http://www.w3.org/2000/svg" version="1.1">
 <metadata>
  <rdf:RDF xmlns:dc="http://purl.org/dc/elements/1.1/" xmlns:cc="http://creativecommons.org/ns#" xmlns:rdf="http://www.w3.org/1999/02/22-rdf-syntax-ns#">
   <cc:Work>
    <dc:type rdf:resource="http://purl.org/dc/dcmitype/StillImage"/>
    <dc:date>2022-07-01T13:43:22.060951</dc:date>
    <dc:format>image/svg+xml</dc:format>
    <dc:creator>
     <cc:Agent>
      <dc:title>Matplotlib v3.5.1, https://matplotlib.org/</dc:title>
     </cc:Agent>
    </dc:creator>
   </cc:Work>
  </rdf:RDF>
 </metadata>
 <defs>
  <style type="text/css">*{stroke-linejoin: round; stroke-linecap: butt}</style>
 </defs>
 <g id="figure_1">
  <g id="patch_1">
   <path d="M 0 1080 
L 1080 1080 
L 1080 0 
L 0 0 
L 0 1080 
z
" style="fill: none; opacity: 0"/>
  </g>
  <g id="axes_1">
   <g id="PatchCollection_1">
    <path d="M 1027.277885 718.623437 
L 1026.210561 718.709611 
L 1025.587955 718.364917 
L 1025.647251 718.077671 
L 1025.765842 717.531906 
L 1026.92211 716.239302 
L 1029.412533 714.602004 
L 1030.064786 714.056238 
L 1031.517533 713.05088 
L 1033.088871 712.47639 
L 1033.414998 712.47639 
L 1034.037603 712.591288 
L 1034.36373 713.079605 
L 1034.719505 714.400933 
L 1034.778801 715.894608 
L 1034.749153 716.555272 
L 1034.541617 716.871242 
L 1033.681829 717.388283 
L 1030.746688 717.8766 
L 1028.226617 718.45109 
L 1027.277885 718.623437 
" clip-path="url(#p6a515d5a04)"/>
    <path d="M 503.488624 222.091358 
L 505.208202 223.728655 
L 507.668977 222.522225 
L 511.730738 222.321154 
L 512.887005 222.349878 
L 514.280456 222.55095 
L 515.34778 222.809471 
L 516.533696 223.211614 
L 517.897499 224.07335 
L 519.024118 226.313862 
L 519.794963 229.15759 
L 520.980879 235.247188 
L 522.641161 241.250613 
L 524.123555 247.110416 
L 525.872781 254.923486 
L 526.969753 259.347062 
L 528.541091 267.504826 
L 529.40088 273.106108 
L 531.239049 281.522393 
L 534.114894 292.121741 
L 534.826443 294.534601 
L 536.012359 298.498585 
L 540.844965 312.458702 
L 543.127852 317.858912 
L 549.709684 333.944645 
L 557.655318 349.886754 
L 562.606516 359.509469 
L 563.377361 360.802072 
L 567.142643 366.920395 
L 572.479263 376.715457 
L 575.4737 381.110309 
L 577.341517 384.068935 
L 577.934474 385.447712 
L 577.964122 386.682866 
L 578.290249 388.205266 
L 579.980179 389.928737 
L 582.085179 391.795831 
L 583.211799 393.088434 
L 585.465038 396.190683 
L 588.785602 401.016402 
L 594.744828 409.748657 
L 596.998067 413.080701 
L 598.480462 415.349939 
L 600.61511 418.480912 
L 604.321096 423.220458 
L 606.099969 425.547144 
L 607.167293 426.925921 
L 609.509476 430.171792 
L 614.697857 436.405013 
L 617.781238 440.110476 
L 622.821379 445.941554 
L 623.295745 447.004361 
L 623.325393 447.837373 
L 622.999266 448.842731 
L 620.716379 449.991712 
L 619.026449 450.623651 
L 622.406308 452.031153 
L 625.904759 453.467379 
L 630.174055 455.248299 
L 631.182084 454.099318 
L 632.130816 452.490745 
L 633.583563 447.521403 
L 634.502647 445.309615 
L 636.489056 443.327623 
L 639.009126 440.110476 
L 639.868915 438.875322 
L 641.914619 438.961495 
L 642.211098 439.507261 
L 642.477929 440.570069 
L 642.240746 441.546702 
L 640.965887 442.465887 
L 639.720676 443.241449 
L 638.920183 443.930838 
L 638.920183 444.936196 
L 640.580464 448.641659 
L 643.723141 454.099318 
L 646.361803 458.436721 
L 648.407507 462.515603 
L 651.164761 466.853006 
L 654.159198 471.592552 
L 658.398846 477.452354 
L 669.487157 492.906147 
L 674.260467 499.02447 
L 677.72927 503.792741 
L 681.405608 507.670551 
L 684.60758 511.462188 
L 686.060327 513.271833 
L 699.07575 528.237308 
L 700.380257 529.673534 
L 703.671173 533.292824 
L 705.242511 535.04502 
L 706.250539 536.165276 
L 718.910188 550.010496 
L 721.667442 552.940397 
L 725.225188 556.530962 
L 726.88547 558.455505 
L 734.119555 565.493013 
L 736.343147 567.417556 
L 746.215894 576.063637 
L 753.509275 581.923439 
L 758.905191 585.427831 
L 763.886036 587.352374 
L 770.349276 590.454622 
L 771.950262 592.608961 
L 771.802022 594.705851 
L 770.527163 596.113353 
L 767.443783 597.204885 
L 765.575966 597.520854 
L 764.449346 597.233609 
L 764.241811 596.687843 
L 764.301106 596.170802 
L 766.672938 594.016463 
L 766.732233 593.068554 
L 766.109628 592.235542 
L 764.686529 591.77595 
L 762.255402 592.034471 
L 760.624768 592.896206 
L 754.072585 599.043254 
L 750.188711 603.122136 
L 748.558077 604.903056 
L 747.876176 606.052037 
L 747.579697 606.482905 
L 749.121387 607.459539 
L 750.811317 608.235101 
L 753.064556 608.29255 
L 754.546951 607.545712 
L 755.792162 606.138211 
L 756.444416 604.558362 
L 757.244909 603.351932 
L 757.897162 602.633819 
L 758.63836 602.547646 
L 759.61674 602.605095 
L 761.336318 604.443464 
L 762.403642 606.19566 
L 762.403642 607.40209 
L 761.454909 608.981939 
L 761.454909 610.130919 
L 761.781036 611.050104 
L 762.729768 611.739493 
L 765.131247 612.342708 
L 765.101599 610.734134 
L 765.160895 609.613878 
L 766.020684 608.148927 
L 767.384487 605.822241 
L 768.303572 603.955147 
L 768.807586 601.886982 
L 769.459839 600.881623 
L 770.28998 600.393307 
L 771.327656 600.450756 
L 773.847727 601.283767 
L 775.270826 600.996522 
L 776.012023 600.335858 
L 777.31653 598.899631 
L 777.761248 597.779375 
L 778.028079 595.567587 
L 778.176319 594.361157 
L 778.680333 593.786667 
L 779.42153 593.499421 
L 781.882305 593.039829 
L 785.973714 593.154727 
L 789.383221 593.55687 
L 792.792728 593.441972 
L 795.609278 593.212176 
L 799.255968 592.695135 
L 801.123785 592.379165 
L 802.754419 592.292992 
L 805.007658 592.465339 
L 805.185546 592.551512 
L 806.756884 593.269625 
L 808.565405 594.389882 
L 814.761814 597.721926 
L 821.402941 601.312491 
L 825.346111 603.811525 
L 827.895829 606.368007 
L 829.467167 608.177652 
L 833.588224 611.710768 
L 837.798224 615.301333 
L 842.719774 618.087612 
L 845.86245 619.925981 
L 848.471464 621.879249 
L 851.465901 624.263384 
L 855.349775 626.446448 
L 858.551747 628.399715 
L 860.567803 630.094462 
L 861.575831 630.582779 
L 862.465268 630.870024 
L 863.087874 630.841299 
L 864.510972 630.410432 
L 866.23055 630.037013 
L 867.77224 630.238084 
L 871.122452 630.984922 
L 872.930973 631.99028 
L 875.539987 634.431865 
L 880.402241 638.941615 
L 887.073016 646.553613 
L 895.937735 656.578471 
L 902.638158 663.81705 
L 908.864215 670.193894 
L 914.230483 675.479206 
L 916.216891 677.03033 
L 917.966117 678.55273 
L 919.507807 680.161303 
L 921.731399 682.574163 
L 927.512737 687.371158 
L 936.584991 695.356575 
L 946.42809 702.767501 
L 952.120485 707.449598 
L 953.03957 708.770926 
L 953.45464 710.06353 
L 953.217457 710.781643 
L 952.47626 711.327409 
L 951.675767 711.327409 
L 949.570767 710.408224 
L 945.983372 708.196436 
L 943.641189 706.731485 
L 941.536189 705.984648 
L 939.579428 706.013372 
L 936.673935 706.559138 
L 932.967949 707.765568 
L 929.588089 709.489039 
L 927.33485 710.436949 
L 924.903723 710.752918 
L 923.124849 710.724194 
L 921.909286 710.207153 
L 920.693723 709.201794 
L 919.033441 708.024089 
L 917.847525 707.535772 
L 916.543018 707.679395 
L 916.127948 708.28261 
L 916.276187 709.977356 
L 916.987736 711.241235 
L 918.292243 712.562563 
L 920.901258 714.314759 
L 923.154497 715.205219 
L 925.437385 715.291393 
L 928.164991 714.716902 
L 931.248371 712.821084 
L 933.64985 711.815726 
L 935.19154 711.729552 
L 936.88147 712.418941 
L 938.689991 713.855167 
L 942.336682 717.302109 
L 943.492949 718.853234 
L 943.670837 719.944765 
L 942.870344 722.874667 
L 942.010555 725.3737 
L 941.210062 726.809926 
L 940.498513 727.729111 
L 939.460836 728.217428 
L 938.156329 728.217428 
L 935.399076 727.528039 
L 933.145836 727.556764 
L 929.173019 728.131254 
L 926.475061 728.389775 
L 925.318793 728.935541 
L 925.22985 729.395133 
L 925.674568 730.055797 
L 926.682596 731.118604 
L 929.143371 732.066513 
L 932.137808 732.439932 
L 934.391047 732.899525 
L 935.843794 733.646362 
L 937.237245 734.96769 
L 938.393512 736.80606 
L 939.312597 740.827493 
L 939.668372 743.182903 
L 939.668372 744.734027 
L 939.282949 745.739386 
L 938.630696 746.744744 
L 937.504076 747.692653 
L 935.19154 749.473574 
L 933.887033 750.565105 
L 933.027244 751.599188 
L 932.167456 753.035414 
L 934.242808 753.408833 
L 935.310132 753.495007 
L 936.347808 753.179037 
L 938.601048 751.311943 
L 940.913583 749.96189 
L 942.7814 748.726736 
L 943.581893 747.635204 
L 943.878372 746.170254 
L 944.115555 744.073363 
L 943.848724 742.436066 
L 942.603513 738.500806 
L 942.010555 736.346467 
L 942.099499 734.65172 
L 942.484921 733.18677 
L 943.107527 731.693095 
L 944.085907 729.998348 
L 945.924076 727.413141 
L 947.258231 724.770485 
L 948.533091 722.788493 
L 949.570767 721.553339 
L 951.438584 720.145837 
L 953.276753 718.824509 
L 954.314429 717.330834 
L 955.915415 715.004148 
L 957.042035 713.826442 
L 958.22795 712.73491 
L 958.643021 712.591288 
L 959.532457 712.189145 
L 961.311331 712.189145 
L 963.327387 712.792359 
L 966.410768 714.544555 
L 969.345909 715.750985 
L 972.577529 716.813792 
L 976.817177 718.278743 
L 980.760346 719.255377 
L 985.6226 719.916041 
L 988.053727 720.002214 
L 989.684361 719.65752 
L 991.048164 718.881958 
L 991.848657 717.8766 
L 991.996896 716.239302 
L 991.730065 712.993431 
L 991.137107 710.06353 
L 991.10746 708.598579 
L 992.293375 705.323984 
L 995.495347 701.302551 
L 998.96415 698.94714 
L 1000.565136 698.315201 
L 1001.721404 698.229027 
L 1002.848024 699.004589 
L 1003.826404 700.15357 
L 1005.219855 700.957857 
L 1007.888165 701.245102 
L 1011.445912 700.756785 
L 1012.3057 700.957857 
L 1012.809715 701.417449 
L 1012.898658 702.365358 
L 1012.098165 704.835667 
L 1010.91225 706.875108 
L 1007.621334 710.609296 
L 1004.241475 714.027514 
L 1003.589221 715.435015 
L 1003.085207 717.014864 
L 1003.144503 720.576705 
L 1002.877672 723.822576 
L 1002.818376 725.3737 
L 1003.233446 726.752477 
L 1004.537953 728.99299 
L 1006.820841 732.152687 
L 1009.133376 737.409274 
L 1010.91225 742.809485 
L 1013.01725 749.215053 
L 1017.553377 760.388892 
L 1021.763377 769.034973 
L 1029.768307 782.621671 
L 1034.126547 789.314485 
L 1037.536054 794.456174 
L 1039.196336 795.8924 
L 1040.234012 796.667962 
L 1041.212393 797.615872 
L 1042.843026 799.885109 
L 1044.266125 802.183071 
L 1045.511336 803.791644 
L 1048.179646 807.267311 
L 1052.300703 813.385634 
L 1053.545914 815.310177 
L 1054.494647 817.004924 
L 1054.969013 818.584772 
L 1055.532323 819.618855 
L 1056.243872 820.336968 
L 1057.518732 820.825285 
L 1059.475492 820.825285 
L 1061.906619 820.394417 
L 1063.418662 820.336968 
L 1065.019648 820.53804 
L 1066.739225 821.371051 
L 1068.547746 822.462583 
L 1069.051761 823.123247 
L 1069.2 823.697737 
L 1067.865845 823.611564 
L 1064.574929 823.008349 
L 1061.61014 822.893451 
L 1058.259929 823.467941 
L 1055.117253 824.387126 
L 1050.047464 827.087231 
L 1046.875139 828.494732 
L 1045.274153 828.437283 
L 1042.576195 827.546823 
L 1038.781266 826.886159 
L 1033.474293 827.403201 
L 1030.183378 828.121314 
L 1026.210561 830.390551 
L 1023.898025 831.166113 
L 1021.407602 830.620347 
L 1019.806616 829.24157 
L 1019.33225 825.651005 
L 1019.539785 819.819927 
L 1018.946828 817.723037 
L 1017.22725 816.286811 
L 1014.262461 814.936758 
L 1012.424292 814.706962 
L 1009.963517 815.022932 
L 1006.939432 816.02829 
L 1004.478658 816.286811 
L 1002.877672 815.827218 
L 1001.098798 814.706962 
L 999.497812 813.816502 
L 997.452108 813.586706 
L 995.109925 813.9314 
L 992.64915 813.471808 
L 990.514502 811.949408 
L 987.638657 809.134405 
L 985.266825 808.014148 
L 982.628163 807.554556 
L 978.062388 806.865168 
L 974.504642 806.233228 
L 970.353937 804.653379 
L 965.521331 802.958633 
L 959.443514 801.407509 
L 955.529992 801.03409 
L 951.468232 801.464958 
L 945.331119 801.493682 
L 941.121118 801.981999 
L 937.85985 803.70547 
L 934.717174 807.468383 
L 932.67147 810.369559 
L 931.12978 816.171913 
L 929.558441 820.308244 
L 927.483089 821.629572 
L 924.636892 821.715745 
L 919.211328 821.543398 
L 915.38675 822.63493 
L 912.688792 824.789269 
L 909.872243 828.724529 
L 908.715975 832.54489 
L 907.678299 835.21627 
L 905.780834 836.221629 
L 902.519566 836.537598 
L 901.333651 836.796119 
L 900.147735 837.657855 
L 897.8352 841.047348 
L 896.649284 843.460208 
L 896.886467 844.838985 
L 898.872876 846.33266 
L 900.295975 848.113581 
L 900.888932 849.808327 
L 900.444214 854.432975 
L 895.7302 857.219254 
L 893.773439 855.524507 
L 891.875974 854.634047 
L 890.423228 854.404251 
L 888.496115 854.691496 
L 885.590622 856.472416 
L 884.048931 857.535224 
L 882.714776 857.477775 
L 881.024847 856.644763 
L 877.31886 853.973383 
L 871.745057 850.382818 
L 868.098367 847.797611 
L 866.171254 847.050773 
L 863.97731 847.022049 
L 861.338648 847.108222 
L 860.034141 846.935875 
L 858.551747 846.849702 
L 854.252803 846.361385 
L 850.042802 847.022049 
L 845.86245 848.42955 
L 842.363999 849.779603 
L 840.496182 851.187104 
L 838.865548 853.370168 
L 837.620337 854.892568 
L 836.16759 855.955375 
L 834.774139 856.443692 
L 833.410336 856.012824 
L 832.37266 855.237262 
L 831.661111 854.174455 
L 830.949562 852.594606 
L 830.030477 851.847768 
L 828.785266 851.589248 
L 826.858153 851.933942 
L 824.189843 852.565881 
L 820.958223 853.772311 
L 819.001462 855.007466 
L 817.163293 856.903284 
L 815.443716 857.851193 
L 812.330687 857.908642 
L 807.083011 857.161805 
L 802.04287 855.92665 
L 796.706249 854.748945 
L 790.569136 853.57124 
L 786.507376 853.111647 
L 784.313432 852.9393 
L 781.496882 851.991391 
L 776.130614 849.750878 
L 771.446248 848.630622 
L 767.503079 848.17103 
L 762.818712 847.22312 
L 758.49012 845.643272 
L 754.606247 844.666638 
L 750.574134 843.948525 
L 747.075683 843.718729 
L 742.954626 842.856993 
L 735.572302 840.731379 
L 729.613076 838.691938 
L 719.799625 834.182188 
L 719.562442 834.00984 
L 719.562442 833.693871 
L 719.710681 833.263003 
L 721.400611 827.374476 
L 721.993568 826.053148 
L 722.230752 825.392484 
L 722.378991 824.904167 
L 720.926244 821.284877 
L 720.807653 820.624213 
L 720.896597 820.308244 
L 721.430259 819.503957 
L 721.815681 818.929467 
L 722.853357 818.039006 
L 727.656315 814.304819 
L 729.375893 812.954766 
L 731.984907 811.058948 
L 734.860752 808.617363 
L 736.16526 806.836443 
L 737.202936 804.969349 
L 738.863217 803.935266 
L 741.976246 803.217153 
L 743.191809 802.671387 
L 743.577232 801.838376 
L 743.013922 800.919192 
L 735.631598 794.42745 
L 733.496949 791.813518 
L 730.858287 789.28576 
L 730.146738 788.452749 
L 729.850259 787.389942 
L 730.028146 785.953716 
L 730.413569 784.000448 
L 729.079414 781.989732 
L 723.979977 780.610955 
L 723.594554 780.496057 
L 723.149836 779.979015 
L 720.778005 773.171304 
L 720.57047 772.625538 
L 720.392582 772.424466 
L 720.125751 772.280844 
L 719.888568 772.252119 
L 719.681033 772.338293 
L 713.158497 774.320285 
L 712.802723 774.492632 
L 712.446948 774.779877 
L 711.409272 777.221461 
L 711.29068 777.422533 
L 710.994202 777.537431 
L 710.46054 777.537431 
L 709.778638 777.451258 
L 701.773708 775.239469 
L 700.498849 774.406458 
L 698.838567 772.769161 
L 698.275257 772.165946 
L 697.889834 771.677629 
L 697.623003 771.131863 
L 696.881806 768.00089 
L 696.022017 766.909358 
L 688.224623 759.699503 
L 687.216594 759.067564 
L 685.645256 757.803685 
L 683.006594 755.735519 
L 681.672439 754.586538 
L 680.871946 753.408833 
L 674.645889 745.50959 
L 674.171523 745.308518 
L 673.578565 745.279793 
L 672.214762 745.308518 
L 671.26603 745.308518 
L 668.923847 745.595763 
L 668.182649 745.796835 
L 667.411804 746.112804 
L 666.166593 747.031989 
L 663.023917 750.134238 
L 661.600818 751.398116 
L 661.096804 751.656637 
L 660.800325 751.828984 
L 660.503846 751.828984 
L 660.148071 751.742811 
L 659.199339 750.967249 
L 657.77624 749.588472 
L 657.331522 749.243777 
L 656.79786 748.956532 
L 654.870747 748.956532 
L 651.372296 749.904441 
L 649.415535 750.162962 
L 647.399479 748.726736 
L 647.458775 746.601121 
L 647.66631 744.992548 
L 647.66631 744.188262 
L 647.310535 743.527598 
L 642.033211 736.375192 
L 639.809619 734.335751 
L 638.949831 733.272943 
L 636.577999 729.912174 
L 635.747858 728.102529 
L 635.421732 727.413141 
L 635.125253 726.924824 
L 634.561943 726.58013 
L 634.206168 726.522681 
L 633.850394 726.493956 
L 633.316732 726.608854 
L 633.020253 726.781201 
L 632.664478 726.982273 
L 629.40321 728.99299 
L 626.527365 730.716461 
L 626.023351 731.118604 
L 624.422365 732.55483 
L 624.155534 732.727177 
L 623.740463 732.755902 
L 623.473632 732.641004 
L 622.851027 732.066513 
L 621.724407 730.572838 
L 620.894266 729.653654 
L 620.242012 729.079163 
L 619.204336 728.533397 
L 617.60335 727.642937 
L 615.676237 727.097171 
L 609.568772 726.26416 
L 607.552716 726.005639 
L 606.841166 725.976915 
L 606.307504 726.005639 
L 605.862786 726.149262 
L 605.269828 726.436507 
L 599.518138 730.888808 
L 597.709617 732.497381 
L 596.316166 733.962332 
L 592.195109 738.960399 
L 591.068489 740.884942 
L 590.445884 742.062647 
L 589.971517 742.608413 
L 589.675039 742.866934 
L 589.052433 743.211628 
L 588.25194 743.441424 
L 587.421799 743.585047 
L 586.621306 743.613771 
L 582.263066 743.383975 
L 577.222925 743.039281 
L 574.465671 742.866934 
L 573.457643 742.838209 
L 572.864685 742.981832 
L 570.996868 745.365967 
L 567.231586 744.446782 
L 564.385389 743.728669 
L 561.865318 745.50959 
L 559.967853 746.802193 
L 559.789966 746.572397 
L 557.06236 744.705303 
L 556.232219 745.279793 
L 554.067923 746.773468 
L 549.531796 747.979898 
L 549.324261 748.123521 
L 548.820247 748.726736 
L 549.531796 749.875717 
L 551.72574 752.030056 
L 555.253839 754.78761 
L 557.655318 756.281285 
L 559.137713 758.004756 
L 559.374896 759.527156 
L 559.612079 759.814401 
L 560.027149 760.561239 
L 560.827642 762.744302 
L 560.827642 764.008181 
L 560.382924 764.812468 
L 559.641727 765.875275 
L 556.676938 769.121146 
L 554.690529 769.465841 
L 551.281022 768.173237 
L 548.672008 765.961449 
L 548.197641 765.559306 
L 547.782571 765.386958 
L 547.545388 765.358234 
L 547.248909 765.386958 
L 546.833838 765.674204 
L 546.211233 766.076347 
L 543.691162 767.713645 
L 541.022852 769.006248 
L 540.696725 769.236044 
L 540.63743 769.465841 
L 540.726373 769.839259 
L 541.20074 770.758444 
L 541.882641 772.022323 
L 542.17912 772.539364 
L 542.327359 772.82661 
L 542.357007 773.113855 
L 542.357007 773.573447 
L 542.208768 773.803243 
L 541.912289 774.033039 
L 541.022852 774.147938 
L 533.344049 775.49799 
L 532.899331 775.584164 
L 532.424964 775.584164 
L 531.802359 775.49799 
L 529.430527 774.9235 
L 527.740598 774.751152 
L 526.02102 774.751152 
L 525.398415 774.894775 
L 524.953696 775.124571 
L 523.827076 775.900133 
L 521.069823 778.571514 
L 518.846231 780.438608 
L 518.490456 780.697128 
L 518.134682 780.754578 
L 517.808555 780.754578 
L 517.03771 780.496057 
L 515.940738 779.634321 
L 514.665879 778.456616 
L 512.294047 776.273552 
L 511.226723 775.699062 
L 510.485526 775.469266 
L 509.210667 775.268194 
L 507.846864 775.210745 
L 505.178554 774.894775 
L 502.154469 773.889417 
L 501.472568 773.544723 
L 500.3163 772.453191 
L 499.693695 771.447833 
L 498.893201 770.09778 
L 498.389187 769.437116 
L 497.529399 768.632829 
L 496.817849 768.31686 
L 489.168694 765.932724 
L 488.486792 765.932724 
L 486.826511 766.306143 
L 485.106933 766.679562 
L 483.713482 767.139154 
L 483.268764 767.426399 
L 482.61651 767.828543 
L 481.875313 768.403033 
L 481.430595 769.178595 
L 480.985876 770.183954 
L 480.481862 771.246761 
L 479.681369 772.309568 
L 477.013059 775.49799 
L 476.271862 776.158654 
L 475.471369 776.819318 
L 474.433693 777.824676 
L 474.285453 778.054472 
L 474.19651 778.657687 
L 474.344749 779.777944 
L 474.641228 782.133355 
L 474.967355 783.397233 
L 475.17489 785.609022 
L 475.471369 787.332493 
L 475.471369 787.906983 
L 474.908059 788.998515 
L 474.522636 789.257036 
L 474.137214 789.544281 
L 473.722143 789.774077 
L 472.773411 790.090047 
L 471.854326 790.23367 
L 470.727707 790.434741 
L 470.25334 790.750711 
L 469.186016 791.928416 
L 468.919185 793.077397 
L 469.304608 794.341276 
L 469.215664 794.657246 
L 469.008129 794.944491 
L 467.140312 796.466891 
L 463.997636 799.166996 
L 463.819748 799.310618 
L 463.582565 799.396792 
L 463.226791 799.425517 
L 462.544889 799.454241 
L 457.504748 799.368067 
L 452.998269 799.253169 
L 450.833973 799.19572 
L 448.847564 799.166996 
L 443.688832 799.023373 
L 440.635099 798.994649 
L 436.514042 798.851026 
L 435.328127 798.793577 
L 433.31207 798.736128 
L 429.487493 798.707403 
L 428.064394 798.736128 
L 425.485028 798.793577 
L 421.779041 799.023373 
L 418.932844 799.310618 
L 416.857492 800.976641 
L 416.768548 799.454241 
L 416.027351 798.62123 
L 414.871083 798.649954 
L 413.922351 798.908475 
L 411.372632 800.028731 
L 409.089745 799.971282 
L 405.917421 798.161638 
L 401.381294 793.996582 
L 398.890871 791.066681 
L 396.548688 787.131421 
L 395.362772 784.890909 
L 393.70249 784.488765 
L 391.508546 784.83346 
L 388.632701 786.126063 
L 386.972419 787.332493 
L 384.274461 790.635813 
L 383.058898 791.669896 
L 382.080518 791.669896 
L 380.864954 791.181579 
L 379.79763 790.032598 
L 379.412208 787.50484 
L 378.344884 786.240961 
L 374.905728 785.120705 
L 372.77108 785.293052 
L 371.466573 785.063256 
L 370.310306 783.914275 
L 370.043475 782.880192 
L 370.81432 781.357792 
L 371.644461 779.088555 
L 371.466573 778.169371 
L 369.509813 775.842684 
L 368.946503 774.406458 
L 368.946503 773.228753 
L 370.81432 768.489207 
L 372.385658 765.875275 
L 373.245447 764.094355 
L 373.304742 761.825118 
L 373.008264 760.81976 
L 371.763052 758.464349 
L 370.843968 756.453632 
L 370.280658 753.179037 
L 369.717348 750.162962 
L 368.738967 748.066072 
L 367.404812 747.491582 
L 365.714883 747.434132 
L 364.410376 747.031989 
L 363.609883 745.595763 
L 363.402347 744.331884 
L 363.847066 743.498873 
L 365.299812 741.8903 
L 365.655587 741.028564 
L 365.388756 740.109379 
L 364.380728 737.840142 
L 362.542559 730.974982 
L 361.53453 729.136612 
L 360.763685 728.619571 
L 359.874249 728.906816 
L 357.354178 731.032431 
L 355.071291 732.325034 
L 351.57284 733.014423 
L 346.295515 733.014423 
L 340.840304 732.468657 
L 339.328261 731.894166 
L 338.705656 730.572838 
L 338.171994 723.248085 
L 338.349881 717.101038 
L 338.587064 713.970065 
L 338.290585 711.959348 
L 336.837839 707.851742 
L 335.41474 706.358067 
L 332.390655 705.295259 
L 330.552486 704.232452 
L 327.320866 699.808876 
L 325.275162 698.659895 
L 323.081218 698.688619 
L 320.38326 699.722702 
L 319.226992 700.641887 
L 317.952133 702.681328 
L 317.15164 703.112196 
L 316.291851 702.968573 
L 314.305443 701.04403 
L 312.704457 698.458823 
L 311.903964 695.155503 
L 311.637133 689.985089 
L 312.645161 686.681769 
L 314.097908 684.469981 
L 317.092344 682.918857 
L 318.13002 681.913499 
L 318.100373 681.051763 
L 317.29988 678.725077 
L 316.558682 675.450481 
L 315.016992 666.632053 
L 313.534598 660.8297 
L 312.734105 658.474289 
L 310.184386 652.12617 
L 309.028118 651.264434 
L 307.693963 651.206985 
L 306.656287 652.413415 
L 304.966358 657.727452 
L 303.691498 660.111587 
L 302.653822 661.030772 
L 301.230724 661.231843 
L 300.341287 660.743526 
L 299.155371 657.871074 
L 298.858892 654.194335 
L 299.45185 651.408057 
L 302.713118 646.323817 
L 303.839738 644.370549 
L 303.721146 642.934323 
L 302.386991 641.268301 
L 300.548822 641.383199 
L 298.354878 642.503455 
L 296.190582 645.117387 
L 294.619244 645.892949 
L 293.196146 645.921673 
L 287.207272 644.140753 
L 282.671145 641.842791 
L 280.921919 640.578912 
L 279.854595 639.717177 
L 279.143046 639.085237 
L 277.897835 639.027788 
L 275.792835 639.544829 
L 273.509947 639.659728 
L 266.631637 639.573554 
L 265.238186 639.946973 
L 264.793468 640.521463 
L 264.823115 641.383199 
L 265.445721 642.130036 
L 268.529102 643.853508 
L 268.825581 644.686519 
L 268.736637 646.295092 
L 268.41051 647.472797 
L 266.839172 648.909024 
L 266.542693 649.311167 
L 265.623609 650.460148 
L 264.20051 654.251785 
L 263.07389 657.296584 
L 261.769383 658.158319 
L 258.448819 658.962606 
L 256.75889 658.646636 
L 255.602622 657.641278 
L 253.556918 655.630562 
L 251.27403 655.42949 
L 249.257974 655.688011 
L 247.775579 656.980614 
L 244.662551 662.466998 
L 244.010297 665.425623 
L 244.217832 668.384249 
L 244.069593 671.05563 
L 243.239452 674.445123 
L 242.29072 676.398391 
L 241.1641 677.260126 
L 239.859593 677.260126 
L 238.436494 676.685636 
L 235.412409 673.612112 
L 233.72248 672.951448 
L 231.172761 673.41104 
L 228.38586 674.04298 
L 227.140648 673.554663 
L 224.472338 670.797109 
L 221.062831 665.799042 
L 220.084451 665.540522 
L 218.750296 666.057563 
L 216.408112 668.298076 
L 215.815154 669.475781 
L 216.02269 671.05563 
L 215.844802 672.405682 
L 215.251845 672.922724 
L 213.739802 673.123795 
L 209.262971 672.233335 
L 207.217267 671.084354 
L 205.616281 669.274709 
L 201.613816 660.312659 
L 200.072125 657.382757 
L 197.848534 655.314592 
L 196.366139 655.142245 
L 193.015928 656.377399 
L 189.784308 656.750818 
L 186.256209 656.549746 
L 185.633603 655.946531 
L 185.870786 654.854999 
L 186.908462 651.8102 
L 186.52304 650.402699 
L 185.099941 649.569688 
L 182.817054 649.253718 
L 180.445223 648.794125 
L 179.111068 648.305809 
L 173.418673 643.221568 
L 173.211138 642.130036 
L 173.715152 640.521463 
L 174.57494 638.826716 
L 177.272898 636.614928 
L 177.776913 635.523396 
L 177.569377 632.334975 
L 176.917124 628.715685 
L 176.26487 626.101753 
L 175.8498 621.649453 
L 176.235222 617.771642 
L 177.154307 614.985364 
L 178.903532 612.945923 
L 180.089448 609.81495 
L 181.482899 603.064687 
L 181.453251 600.47948 
L 180.949237 596.343149 
L 180.326631 595.107995 
L 179.437194 594.447331 
L 175.820152 594.131361 
L 174.041278 593.240901 
L 172.025222 592.580237 
L 167.429799 592.723859 
L 165.769517 593.499421 
L 164.04994 596.716568 
L 162.182123 600.192235 
L 162.182123 601.197593 
L 163.160503 602.633819 
L 163.190151 604.156219 
L 162.864024 605.908415 
L 159.395221 614.956639 
L 158.327897 615.47368 
L 156.993742 614.813016 
L 155.926418 612.658677 
L 155.274165 609.958572 
L 155.422404 607.689335 
L 157.290221 603.294483 
L 157.527404 602.030604 
L 157.171629 601.341216 
L 152.398319 600.824174 
L 150.293319 600.422031 
L 148.781277 598.928356 
L 147.002403 597.434681 
L 144.867755 596.975089 
L 144.007967 597.233609 
L 143.415009 599.502846 
L 142.910995 600.852899 
L 141.517544 601.886982 
L 140.183389 602.231676 
L 138.967825 601.743359 
L 138.137685 600.077337 
L 137.248248 598.497488 
L 136.358811 598.152794 
L 133.0086 598.124069 
L 126.990078 598.440039 
L 126.486064 598.468764 
L 125.329796 597.951722 
L 124.974022 596.2857 
L 125.211205 594.734576 
L 125.98205 593.671769 
L 126.782543 592.120644 
L 126.575008 590.88549 
L 124.944374 587.610894 
L 123.432331 585.80125 
L 120.704726 581.032979 
L 116.346486 571.582611 
L 115.279162 570.404906 
L 113.174162 569.85914 
L 110.772683 569.28465 
L 108.549091 567.790975 
L 106.236556 565.808983 
L 100.84064 564.631277 
L 98.02409 564.315308 
L 96.008034 563.769542 
L 95.029653 563.022704 
L 92.331696 559.087445 
L 90.048808 557.392698 
L 80.976554 554.807491 
L 76.499723 552.825499 
L 71.459582 547.454013 
L 71.252046 545.27095 
L 73.623877 537.946197 
L 75.521342 532.143843 
L 75.106272 529.271391 
L 73.683173 525.565928 
L 70.095779 518.52842 
L 67.338525 515.713417 
L 66.98275 514.679334 
L 67.13099 513.214384 
L 68.613384 509.939788 
L 71.578173 503.907639 
L 71.578173 503.017178 
L 70.184722 501.236258 
L 67.961131 499.828757 
L 62.328032 498.277632 
L 59.54113 498.392531 
L 58.444158 498.880847 
L 57.702961 500.202175 
L 56.694933 502.069269 
L 55.775848 502.413964 
L 53.315073 502.672484 
L 50.172397 502.413964 
L 46.940777 501.466054 
L 45.576974 500.259624 
L 44.242819 496.554161 
L 43.323735 491.699717 
L 43.116199 489.918797 
L 42.523242 488.884714 
L 40.032819 487.534661 
L 37.127326 485.868639 
L 36.593664 484.748383 
L 36.50472 483.857923 
L 37.156974 482.220625 
L 38.372537 479.290724 
L 38.461481 477.99812 
L 37.779579 477.42363 
L 36.91979 477.68215 
L 34.725847 479.261999 
L 32.70979 480.008837 
L 30.930917 480.123735 
L 27.788241 479.922663 
L 24.111902 478.170467 
L 23.400353 477.222558 
L 23.133522 475.470362 
L 22.481268 471.39148 
L 22.095846 468.806273 
L 21.325001 467.743466 
L 19.961198 467.054077 
L 18.419508 466.910455 
L 16.551691 466.853006 
L 15.276831 466.364689 
L 13.112535 463.090094 
L 11.155775 457.661159 
L 10.8 455.650442 
L 11.274366 454.185492 
L 13.438662 451.31304 
L 13.438662 450.422579 
L 13.171831 449.532119 
L 11.541197 447.952271 
L 11.333662 447.06181 
L 12.015563 445.999003 
L 13.764789 443.930838 
L 14.090916 442.408438 
L 13.853733 438.67425 
L 14.59493 430.545211 
L 14.654226 428.76429 
L 15.72155 426.724849 
L 17.885846 423.622601 
L 18.034085 422.559794 
L 17.767254 420.778873 
L 17.203944 418.59581 
L 15.72155 416.269123 
L 15.098944 413.913713 
L 15.395423 410.667842 
L 16.28486 407.019827 
L 18.034085 404.147375 
L 20.020494 402.280281 
L 20.613451 401.76324 
L 22.392325 400.528086 
L 22.540564 399.551452 
L 22.006902 398.747165 
L 19.872254 397.25349 
L 19.190353 396.190683 
L 18.893874 394.323589 
L 19.516479 389.785114 
L 19.990846 388.147817 
L 20.998874 387.487153 
L 23.785776 386.251998 
L 26.305846 384.499803 
L 28.885212 381.225207 
L 29.0631 380.334747 
L 28.766621 378.812347 
L 28.736973 376.686733 
L 29.47817 374.905812 
L 31.316339 373.182341 
L 34.459016 371.918462 
L 37.334861 370.913104 
L 37.512748 370.712032 
L 37.987114 370.166266 
L 37.809227 369.189633 
L 34.96303 366.31718 
L 33.510283 364.794781 
L 33.302748 363.502177 
L 33.83641 358.389212 
L 34.96303 354.396504 
L 33.895706 350.375071 
L 33.599227 348.737773 
L 34.696199 346.956853 
L 39.143382 342.849246 
L 46.110636 337.707557 
L 48.986481 336.300055 
L 50.172397 335.467044 
L 51.061834 333.772297 
L 52.069862 332.048826 
L 53.492961 331.704132 
L 56.072327 332.565868 
L 58.710989 333.91592 
L 65.826483 338.684191 
L 68.820919 339.94807 
L 70.184722 340.235315 
L 72.586201 340.292764 
L 74.394723 340.091692 
L 75.847469 341.958786 
L 77.418807 342.533276 
L 82.725779 343.165216 
L 88.240287 342.791797 
L 92.302048 342.734348 
L 96.897471 344.256748 
L 99.536133 346.612159 
L 102.471274 350.260173 
L 104.457682 350.719765 
L 106.117964 350.489969 
L 107.541063 348.680324 
L 110.891274 342.590726 
L 113.144514 339.488477 
L 116.020359 337.190515 
L 125.922754 330.6126 
L 129.62874 328.889129 
L 133.57191 328.83168 
L 135.647262 328.19974 
L 136.773882 326.907137 
L 138.404516 324.810247 
L 140.479868 323.977236 
L 143.177826 323.661266 
L 145.164234 324.120858 
L 148.010432 326.476269 
L 149.670713 327.251831 
L 150.70839 327.022035 
L 152.754094 325.327288 
L 154.414376 325.384737 
L 156.549024 327.452903 
L 161.440926 336.01281 
L 162.893672 336.989444 
L 171.461912 339.172507 
L 177.183955 339.603375 
L 179.674377 340.062968 
L 181.571842 341.039601 
L 183.70649 344.572718 
L 186.760223 348.594151 
L 187.916491 349.168641 
L 191.978251 349.427162 
L 196.662618 350.863388 
L 200.338956 352.701757 
L 203.066562 355.430587 
L 206.416774 356.694466 
L 209.826281 356.550843 
L 212.22776 356.40722 
L 214.303112 356.895537 
L 216.289521 357.757273 
L 217.860859 357.843446 
L 222.634169 356.579568 
L 226.162268 356.349771 
L 229.571775 355.918904 
L 232.180789 354.999719 
L 238.169663 352.155991 
L 244.781142 349.484611 
L 247.4791 348.766498 
L 249.228326 349.025018 
L 253.319734 351.179357 
L 257.17396 351.811297 
L 259.753326 351.294256 
L 261.710087 348.996294 
L 262.807059 345.003585 
L 264.348749 343.19394 
L 268.173327 341.269398 
L 271.256707 340.551285 
L 275.85213 341.09705 
L 278.342553 340.867254 
L 281.040511 339.545926 
L 282.87868 338.138425 
L 285.784173 337.018168 
L 288.36354 336.673474 
L 290.142413 336.156433 
L 290.942906 334.863829 
L 290.913258 332.594592 
L 291.328329 331.388162 
L 292.454948 330.986019 
L 296.635301 331.732856 
L 301.734738 333.829746 
L 304.047273 333.91592 
L 306.211569 334.002094 
L 309.976851 333.772297 
L 311.933612 334.318063 
L 313.623541 335.984086 
L 315.728541 339.143783 
L 317.744598 341.09705 
L 320.264668 343.165216 
L 320.709387 344.429095 
L 320.739035 348.594151 
L 321.628471 352.069818 
L 322.903331 354.339055 
L 324.59326 356.981711 
L 325.957063 357.872171 
L 327.439458 359.049876 
L 328.803261 360.802072 
L 330.196711 365.139475 
L 331.501219 369.993919 
L 332.687134 371.45887 
L 336.126289 372.521677 
L 337.579036 373.211066 
L 339.595092 375.250507 
L 341.373966 376.916529 
L 342.737769 377.318672 
L 342.945304 377.289948 
L 345.643262 377.17505 
L 347.273896 376.054793 
L 348.696994 374.072801 
L 350.357276 373.153616 
L 359.192347 371.573768 
L 362.512911 371.430145 
L 365.744531 372.004636 
L 369.895235 372.952545 
L 371.763052 372.92382 
L 372.593193 372.119534 
L 373.48263 368.528969 
L 374.490658 365.139475 
L 375.795165 362.870238 
L 377.247912 362.554268 
L 379.23432 362.525544 
L 380.894602 361.606359 
L 382.851363 360.313755 
L 385.223194 359.681816 
L 390.826645 359.423295 
L 391.419603 359.365846 
L 396.3708 359.021152 
L 397.023054 361.635083 
L 397.349181 362.410645 
L 397.912491 363.617075 
L 399.572772 365.311822 
L 402.952632 366.920395 
L 406.421435 367.351263 
L 409.356576 367.322539 
L 411.935942 367.035293 
L 413.774111 366.374629 
L 415.404745 364.938403 
L 418.666013 360.802072 
L 421.304675 358.446661 
L 424.299112 356.838088 
L 429.131718 354.453953 
L 430.940239 353.850738 
L 431.414605 353.678391 
L 433.578901 353.649666 
L 435.743197 354.597576 
L 436.395451 355.459311 
L 437.047704 357.872171 
L 437.729606 358.733907 
L 439.36024 358.848805 
L 441.791367 358.360488 
L 442.295381 357.987069 
L 445.704888 355.430587 
L 448.521438 351.782572 
L 450.44855 349.025018 
L 451.337987 345.951495 
L 451.782705 340.953428 
L 451.634466 333.686124 
L 451.337987 327.338005 
L 451.515874 323.776164 
L 452.761086 320.760089 
L 454.095241 319.295139 
L 456.467072 318.375954 
L 459.105734 317.945086 
L 460.884607 317.313147 
L 462.604185 315.101358 
L 464.145875 312.659774 
L 464.294115 312.429978 
L 465.865453 306.512726 
L 466.547354 304.042418 
L 467.318199 301.227414 
L 469.097073 295.396337 
L 470.282988 292.724956 
L 472.150805 291.058934 
L 474.641228 289.536534 
L 477.783904 287.927961 
L 480.274327 287.497093 
L 484.098905 287.927961 
L 490.413905 290.312096 
L 494.030948 291.116383 
L 497.885173 290.915311 
L 504.467005 289.76633 
L 508.617709 287.813063 
L 510.307639 285.859795 
L 511.226723 283.47566 
L 511.048836 280.861729 
L 509.566442 275.892386 
L 506.483061 270.032584 
L 503.992638 264.948344 
L 500.434892 256.761855 
L 497.736934 249.666898 
L 496.66961 246.88062 
L 494.623905 242.457043 
L 491.837004 237.631324 
L 491.244046 235.994026 
L 491.066159 234.414177 
L 491.925948 231.886419 
L 493.497286 229.933152 
L 495.098272 228.238405 
L 497.499751 225.739372 
L 503.488624 222.091358 
" clip-path="url(#p6a515d5a04)"/>
   </g>
  </g>
 </g>
 <defs>
  <clipPath id="p6a515d5a04">
   <rect x="10.8" y="222.091358" width="1058.4" height="635.817285"/>
  </clipPath>
 </defs>
</svg>
