<?xml version="1.0" encoding="utf-8" standalone="no"?>
<!DOCTYPE svg PUBLIC "-//W3C//DTD SVG 1.1//EN"
  "http://www.w3.org/Graphics/SVG/1.1/DTD/svg11.dtd">
<svg xmlns:xlink="http://www.w3.org/1999/xlink" width="1080pt" height="1080pt" viewBox="0 0 1080 1080" xmlns="http://www.w3.org/2000/svg" version="1.1">
 <metadata>
  <rdf:RDF xmlns:dc="http://purl.org/dc/elements/1.1/" xmlns:cc="http://creativecommons.org/ns#" xmlns:rdf="http://www.w3.org/1999/02/22-rdf-syntax-ns#">
   <cc:Work>
    <dc:type rdf:resource="http://purl.org/dc/dcmitype/StillImage"/>
    <dc:date>2022-07-01T13:43:22.376820</dc:date>
    <dc:format>image/svg+xml</dc:format>
    <dc:creator>
     <cc:Agent>
      <dc:title>Matplotlib v3.5.1, https://matplotlib.org/</dc:title>
     </cc:Agent>
    </dc:creator>
   </cc:Work>
  </rdf:RDF>
 </metadata>
 <defs>
  <style type="text/css">*{stroke-linejoin: round; stroke-linecap: butt}</style>
 </defs>
 <g id="figure_1">
  <g id="patch_1">
   <path d="M 0 1080 
L 1080 1080 
L 1080 0 
L 0 0 
L 0 1080 
z
" style="fill: none; opacity: 0"/>
  </g>
  <g id="axes_1">
   <g id="PatchCollection_1">
    <path d="M 780.119003 206.804088 
L 781.511634 207.727265 
L 788.914571 212.414164 
L 805.919335 220.367689 
L 809.29097 221.006812 
L 811.489861 221.432894 
L 815.521163 222.072016 
L 818.306427 223.066207 
L 819.039391 223.066207 
L 839.415789 229.031351 
L 840.588532 229.670474 
L 841.394792 230.096555 
L 842.274349 230.38061 
L 842.86072 230.451624 
L 843.520388 230.522637 
L 844.180055 230.522637 
L 844.69313 230.38061 
L 845.206205 230.025542 
L 845.499391 229.59946 
L 846.012465 228.747297 
L 846.598837 226.474861 
L 847.258504 224.557493 
L 849.823878 224.202425 
L 853.488698 223.847357 
L 858.692742 222.995193 
L 895.121053 216.177886 
L 923.26687 212.34315 
L 923.853241 211.064905 
L 926.93169 207.230169 
L 933.528366 202.614284 
L 941.444377 197.359276 
L 944.889307 193.098459 
L 949.873463 189.263723 
L 953.538283 186.920274 
L 955.517285 186.494192 
L 960.354848 186.494192 
L 962.33385 184.363783 
L 971.569197 178.327625 
L 997.369529 205.525842 
L 1001.474127 209.289564 
L 1011.075956 218.095253 
L 1011.80892 218.734376 
L 1030.93928 234.073318 
L 1035.996731 238.192108 
L 1043.76615 244.29928 
L 1044.499114 244.796375 
L 1069.2 261.342549 
L 1063.336288 270.503306 
L 1059.964654 274.551083 
L 1058.425429 277.675682 
L 1055.346981 277.107573 
L 1052.121939 278.456832 
L 1048.970194 280.232172 
L 1041.200776 287.688603 
L 1028.154017 302.459436 
L 1027.421053 305.08694 
L 1025.075568 319.431691 
L 1025.661939 331.646034 
L 1016.426593 348.192208 
L 1021.557341 351.103767 
L 1019.211856 355.080529 
L 1017.232853 358.205129 
L 1016.866371 358.702224 
L 1015.986814 360.19351 
L 1015.25385 361.400742 
L 1017.08626 369.141227 
L 1012.981662 385.971455 
L 1012.835069 386.894632 
L 1012.321994 389.59315 
L 1006.238393 419.98698 
L 1001.840609 418.495694 
L 997.736011 429.147737 
L 994.364377 438.095453 
L 985.715402 476.300781 
L 981.977285 491.994792 
L 979.118726 505.132312 
L 990.259778 507.972857 
L 987.327922 515.713341 
L 978.165873 567.340244 
L 972.375457 582.679187 
L 971.422604 585.377704 
L 969.223712 607.107872 
L 968.417452 613.499098 
L 955.810471 623.156951 
L 927.591357 640.129206 
L 886.252188 664.983974 
L 884.566371 665.907151 
L 883.247036 666.759314 
L 872.765651 672.9375 
L 850.703435 686.07502 
L 848.35795 685.435897 
L 846.965319 684.867788 
L 846.52554 685.151842 
L 808.044931 709.296474 
L 706.456122 773.208733 
L 692.23662 783.363681 
L 675.598338 801.898236 
L 645.473518 829.02544 
L 639.463213 813.189402 
L 631.767091 816.598056 
L 615.202105 823.557391 
L 608.238947 826.539963 
L 603.621274 843.583232 
L 602.815014 843.654246 
L 593.139889 844.577423 
L 586.982992 847.559995 
L 572.250416 851.891826 
L 557.224654 853.809194 
L 552.387091 854.377303 
L 548.942161 854.448316 
L 538.387479 854.661357 
L 535.30903 854.377303 
L 531.131136 853.312098 
L 528.639058 853.596153 
L 526.073684 856.010616 
L 522.115679 861.904747 
L 516.838338 868.011918 
L 512.51385 872.414763 
L 511.047922 875.752403 
L 509.801884 881.717547 
L 508.409252 884.345051 
L 507.23651 884.984174 
L 505.110914 884.842146 
L 502.838726 883.705928 
L 495.582382 876.746593 
L 487.226593 868.295972 
L 476.598615 862.969951 
L 471.761053 862.259815 
L 470.661607 863.182992 
L 469.342271 865.881509 
L 468.682604 872.982872 
L 466.703601 879.161057 
L 460.106925 884.984174 
L 456.002327 882.56971 
L 451.751136 878.095852 
L 447.206759 877.314702 
L 443.102161 879.800179 
L 438.63108 883.137819 
L 437.82482 887.682691 
L 438.337895 893.789863 
L 437.165152 896.417367 
L 430.49518 899.683993 
L 420.746759 911.1882 
L 416.495568 916.159153 
L 415.02964 917.792467 
L 412.17108 917.86348 
L 410.485263 915.022935 
L 408.066482 911.1882 
L 403.961884 906.217246 
L 398.757839 897.624598 
L 397.511801 895.849258 
L 395.89928 895.068108 
L 393.700388 896.48838 
L 390.255457 898.334734 
L 386.590637 899.328925 
L 376.842216 899.399939 
L 376.035956 899.470952 
L 371.858061 901.104266 
L 371.051801 904.441906 
L 368.633019 910.194009 
L 364.968199 912.679486 
L 360.423823 916.017126 
L 353.900443 918.928685 
L 350.895291 919.354766 
L 348.916288 919.780848 
L 338.654792 916.230167 
L 337.848532 915.164963 
L 337.628643 913.815704 
L 339.607645 910.762118 
L 339.974127 908.63171 
L 339.461053 907.282451 
L 337.995125 906.643328 
L 335.722936 906.501301 
L 330.005817 907.992587 
L 325.608033 909.057791 
L 323.555734 909.838941 
L 321.650028 911.046173 
L 316.226094 918.147535 
L 311.974903 922.976461 
L 310.215789 923.331529 
L 298.488366 921.201121 
L 285.514903 919.354766 
L 284.415457 918.786657 
L 283.829086 917.86348 
L 284.195568 915.378004 
L 288.886537 909.980968 
L 289.03313 908.560696 
L 288.593352 907.211437 
L 285.36831 903.802783 
L 278.625042 897.908653 
L 275.913075 895.991285 
L 273.787479 896.062299 
L 272.688033 897.340544 
L 272.321551 901.317307 
L 272.248255 904.086838 
L 272.028366 905.649137 
L 270.782327 907.140423 
L 261.033906 914.312799 
L 259.641274 914.951922 
L 257.882161 914.880908 
L 256.26964 913.460636 
L 253.704266 909.767927 
L 252.165042 908.205628 
L 250.332632 907.85056 
L 248.94 907.708532 
L 247.180886 908.276641 
L 238.898393 914.312799 
L 236.406316 914.596854 
L 234.28072 913.460636 
L 234.207424 906.856369 
L 233.621053 900.323116 
L 231.64205 897.127503 
L 227.464155 895.920271 
L 222.919778 895.139121 
L 217.715734 894.286958 
L 211.705429 892.795672 
L 202.616676 888.108773 
L 199.68482 888.463841 
L 196.82626 890.168168 
L 191.109141 894.71304 
L 182.093684 901.38832 
L 177.989086 903.447715 
L 175.936787 903.163661 
L 174.617452 901.033252 
L 176.596454 894.073917 
L 177.329418 889.600059 
L 176.156676 886.972555 
L 174.983934 886.47546 
L 174.104377 886.120392 
L 171.539003 886.759514 
L 166.408255 887.753705 
L 160.031468 888.747895 
L 153.434792 889.955127 
L 143.026704 892.582631 
L 142.147147 893.008713 
L 141.340886 894.286958 
L 141.853961 896.630407 
L 143.173296 899.968048 
L 142.733518 902.95062 
L 140.094848 906.998396 
L 137.676066 909.909955 
L 135.183989 911.898336 
L 130.932798 912.679486 
L 120.891191 914.951922 
L 110.11662 917.295371 
L 105.64554 917.153344 
L 101.907424 914.454827 
L 101.467645 907.140423 
L 100.221607 903.73177 
L 96.849972 898.760816 
L 95.823823 898.05068 
L 97.949418 878.521934 
L 98.096011 871.065504 
L 101.027867 865.597455 
L 104.033019 861.052583 
L 109.017175 854.51933 
L 116.493407 850.897635 
L 119.718449 850.116485 
L 121.770748 849.761417 
L 122.870194 848.909254 
L 123.383269 847.844049 
L 123.383269 844.293368 
L 124.556011 843.086137 
L 126.754903 842.660055 
L 128.147535 844.648437 
L 131.079391 845.429586 
L 138.62892 847.488981 
L 142.806814 849.335336 
L 142.586925 840.884715 
L 142.367036 835.629707 
L 142.586925 833.215243 
L 145.005706 826.610977 
L 150.209751 818.231369 
L 154.460942 812.053184 
L 156.366648 810.20683 
L 156.806427 808.928585 
L 155.487091 808.289462 
L 154.460942 807.934394 
L 152.995014 807.863381 
L 152.115457 807.792367 
L 151.382493 807.508312 
L 150.42964 806.940203 
L 149.696676 806.798176 
L 148.890416 806.798176 
L 147.79097 807.153244 
L 147.204598 807.153244 
L 146.691524 807.011217 
L 146.251745 806.372094 
L 145.95856 805.590945 
L 145.811967 804.951822 
L 145.885263 804.099659 
L 146.325042 803.318509 
L 146.618227 802.679386 
L 147.058006 801.614182 
L 147.717673 801.401141 
L 148.743823 801.1881 
L 149.330194 800.975059 
L 149.769972 800.691005 
L 150.283047 800.122896 
L 151.162604 799.057691 
L 152.042161 798.276542 
L 152.848421 797.708433 
L 153.727978 797.282351 
L 154.607535 796.998296 
L 155.340499 796.572215 
L 156.293352 795.720051 
L 156.513241 795.009915 
L 156.439945 793.376602 
L 155.047313 793.73167 
L 145.518781 788.476662 
L 135.477175 779.244891 
L 132.618615 778.179687 
L 130.053241 778.037659 
L 127.194681 778.534755 
L 122.210526 780.239082 
L 119.938338 780.807191 
L 115.247368 781.943409 
L 90.106704 781.020232 
L 87.468033 779.386918 
L 86.148698 775.765224 
L 86.954958 770.439202 
L 89.813518 767.101562 
L 92.745374 764.687099 
L 95.530637 760.071213 
L 95.603934 758.153845 
L 94.65108 756.023437 
L 93.185152 755.10026 
L 90.106704 755.455328 
L 78.745762 759.574118 
L 66.57856 763.266826 
L 62.327368 762.698717 
L 54.924432 758.579927 
L 42.024266 753.822015 
L 31.103102 748.851061 
L 29.417285 747.643829 
L 28.830914 746.294571 
L 28.904211 744.164162 
L 29.343989 742.246794 
L 30.003657 740.116386 
L 29.93036 738.056991 
L 29.93036 734.648337 
L 29.270693 731.949819 
L 28.904211 730.245492 
L 27.438283 726.126702 
L 25.972355 724.138321 
L 24.579723 723.428184 
L 23.553573 723.570212 
L 23.040499 723.570212 
L 22.893906 723.073116 
L 22.527424 721.652844 
L 21.427978 717.534054 
L 20.108643 715.6877 
L 18.056343 714.196414 
L 14.391524 711.426882 
L 12.779003 709.580528 
L 11.679557 707.947215 
L 10.873296 706.739983 
L 10.873296 704.183493 
L 10.8 703.757411 
L 10.946593 703.118289 
L 11.313075 701.982071 
L 12.046039 700.916866 
L 12.998892 700.135717 
L 14.831302 699.496594 
L 17.176787 699.141526 
L 22.087645 698.715444 
L 27.438283 698.360376 
L 29.270693 698.360376 
L 31.469584 697.579226 
L 35.500886 695.945913 
L 39.605485 693.247395 
L 56.463657 685.222856 
L 60.934737 682.879407 
L 65.332521 680.180889 
L 71.636011 675.067908 
L 73.175235 673.505609 
L 76.107091 669.457832 
L 82.190693 660.368089 
L 87.54133 654.331931 
L 89.227147 652.485577 
L 90.18 651.491386 
L 91.719224 650.142127 
L 93.84482 648.579827 
L 96.117008 646.946514 
L 98.169307 645.668269 
L 100.14831 644.816105 
L 102.933573 644.034956 
L 107.551247 643.253806 
L 111.582548 642.401642 
L 115.247368 642.046574 
L 119.571856 641.407452 
L 121.037784 641.123397 
L 123.236676 640.129206 
L 125.80205 638.779948 
L 127.267978 637.64373 
L 128.953795 636.223457 
L 129.760055 634.874198 
L 130.346427 633.382912 
L 130.786205 630.471354 
L 131.006094 625.926482 
L 131.225983 624.222155 
L 131.739058 622.375801 
L 131.885651 621.878706 
L 132.985097 621.097556 
L 135.623767 620.316406 
L 138.848809 619.393229 
L 142.07385 617.901943 
L 143.246593 617.191807 
L 155.340499 611.084635 
L 172.785042 602.207932 
L 172.491856 598.586238 
L 171.905485 596.100761 
L 171.465706 594.680489 
L 170.952632 593.33123 
L 170.58615 592.479066 
L 170.146371 591.76893 
L 169.120222 590.98778 
L 168.240665 590.632712 
L 167.361108 590.561699 
L 166.261662 590.561699 
L 164.795734 590.98778 
L 163.696288 591.413862 
L 161.937175 592.692107 
L 160.544543 593.544271 
L 159.59169 594.041366 
L 159.005319 594.041366 
L 158.199058 593.828325 
L 157.392798 593.473257 
L 156.879723 592.55008 
L 156.73313 591.697916 
L 156.806427 589.496494 
L 157.319501 586.08784 
L 157.246205 584.241486 
L 157.099612 583.318309 
L 156.439945 581.96905 
L 155.633684 580.690805 
L 154.387645 579.128505 
L 153.434792 577.637219 
L 153.214903 576.287961 
L 153.214903 575.435797 
L 153.508089 574.583634 
L 154.314349 573.73147 
L 155.340499 572.95032 
L 157.099612 572.240184 
L 159.445097 571.17498 
L 161.057618 569.61268 
L 162.303657 567.411258 
L 163.25651 565.422877 
L 163.989474 561.588141 
L 164.722438 560.522937 
L 165.528698 560.380909 
L 166.481551 560.949018 
L 168.240665 563.434495 
L 169.779889 566.061999 
L 171.758892 568.050381 
L 172.711745 568.334435 
L 173.811191 568.476462 
L 175.05723 567.908353 
L 175.643601 566.701122 
L 175.643601 565.351863 
L 175.350416 563.93159 
L 174.617452 562.866386 
L 171.978781 561.233073 
L 169.926482 559.741787 
L 169.633296 558.747596 
L 169.853186 557.327324 
L 171.465706 555.551983 
L 173.151524 553.208534 
L 175.643601 551.220152 
L 177.329418 550.439002 
L 178.282271 550.439002 
L 179.308421 551.362179 
L 180.261274 553.279547 
L 181.214127 555.836038 
L 182.606759 558.534555 
L 183.339723 558.676582 
L 184.292576 558.747596 
L 185.172133 558.179487 
L 185.02554 555.551983 
L 184.585762 550.154948 
L 185.02554 547.172376 
L 185.905097 545.823117 
L 187.004543 545.610076 
L 188.103989 546.178185 
L 188.983546 547.45643 
L 190.302881 550.083934 
L 191.255734 550.79407 
L 192.575069 550.723057 
L 194.627368 549.657853 
L 195.726814 548.308594 
L 195.946704 547.030349 
L 195.726814 545.752103 
L 194.847258 544.970954 
L 193.747812 544.544872 
L 192.428476 544.11879 
L 191.695512 543.33764 
L 191.695512 542.698518 
L 192.428476 542.130409 
L 195.506925 540 
L 197.559224 538.366687 
L 198.731967 538.366687 
L 200.197895 538.579728 
L 201.590526 538.792768 
L 203.789418 538.224659 
L 206.574681 536.307292 
L 207.82072 534.673978 
L 208.553684 532.259515 
L 207.894017 526.365385 
L 207.600831 525.655248 
L 207.234349 523.52484 
L 206.647978 515.642328 
L 204.668975 504.919271 
L 201.297341 488.018029 
L 205.841717 486.313702 
L 211.632133 485.248498 
L 214.857175 485.248498 
L 227.244266 481.626803 
L 245.421773 477.508013 
L 250.699114 474.809495 
L 254.217341 471.968951 
L 257.808864 469.767528 
L 262.57313 466.85597 
L 272.394848 460.748798 
L 276.719335 459.39954 
L 279.87108 458.61839 
L 280.604044 458.61839 
L 287.274017 458.902444 
L 332.937673 430.994091 
L 366.214238 409.903045 
L 368.266537 408.482773 
L 364.308532 402.020533 
L 360.350526 400.600261 
L 368.486427 383.059896 
L 403.375512 308.211539 
L 390.988421 296.565305 
L 395.239612 284.70603 
L 401.689695 270.006211 
L 408.066482 255.945514 
L 414.883047 257.365786 
L 424.631468 235.635618 
L 423.605319 234.712441 
L 434.233296 222.782152 
L 425.144543 218.947417 
L 446.98687 170.658154 
L 459.667147 175.984176 
L 464.358116 165.687201 
L 468.536011 156.668471 
L 485.24759 163.91186 
L 484.881108 164.835037 
L 481.069695 173.072617 
L 480.703213 174.350863 
L 483.781662 176.055189 
L 486.786814 177.617489 
L 491.624377 182.872497 
L 514.272964 207.230169 
L 514.786039 207.798278 
L 520.356565 213.763423 
L 525.633906 219.373499 
L 541.759114 236.629809 
L 543.444931 238.405149 
L 551.874017 247.423879 
L 568.072521 240.677585 
L 570.344709 236.629809 
L 570.637895 233.150141 
L 570.637895 230.096555 
L 572.397008 227.327024 
L 575.988532 222.285057 
L 577.967535 220.296676 
L 580.019834 220.58073 
L 582.072133 222.285057 
L 584.344321 224.060398 
L 586.61651 224.060398 
L 594.532521 219.79958 
L 598.857008 214.89964 
L 601.568975 210.141728 
L 603.767867 202.117189 
L 604.134349 200.412862 
L 603.767867 199.063603 
L 602.595125 197.572317 
L 602.301939 196.081031 
L 602.595125 194.376704 
L 603.987756 191.678186 
L 604.207645 190.897036 
L 613.736177 195.583935 
L 628.322161 200.554889 
L 626.929529 208.721455 
L 643.054737 208.721455 
L 648.47867 210.56781 
L 651.483823 211.419973 
L 653.462825 212.698218 
L 652.583269 213.90545 
L 651.923601 214.757613 
L 651.557119 215.183695 
L 649.871302 216.959036 
L 648.69856 218.166267 
L 647.305928 219.515526 
L 646.353075 220.367689 
L 642.614958 223.70533 
L 641.222327 224.912561 
L 640.489363 225.551684 
L 639.902992 226.048779 
L 633.379612 232.155951 
L 631.254017 234.002305 
L 625.610194 239.044272 
L 635.87169 248.276043 
L 643.054737 254.951323 
L 646.64626 258.075922 
L 647.745706 259.141127 
L 658.373684 248.986179 
L 666.436288 242.381912 
L 672.006814 239.683394 
L 678.60349 237.695013 
L 680.069418 237.197918 
L 688.571801 233.576223 
L 689.744543 232.440005 
L 691.063878 230.522637 
L 692.23662 229.244392 
L 693.409363 229.031351 
L 709.168089 231.445814 
L 709.827756 223.208234 
L 722.58133 225.196616 
L 723.38759 224.415466 
L 732.256454 216.319913 
L 737.240609 209.928687 
L 744.423657 199.773739 
L 746.329363 195.512922 
L 746.622548 191.465145 
L 748.308366 192.317309 
L 749.114626 192.814404 
L 754.611856 197.43029 
L 756.664155 200.270834 
L 758.130083 201.904148 
L 761.208532 203.040366 
L 768.391579 203.182393 
L 770.956953 201.122998 
L 774.768366 203.32442 
L 780.119003 206.804088 
" clip-path="url(#pca63121ee3)"/>
   </g>
  </g>
 </g>
 <defs>
  <clipPath id="pca63121ee3">
   <rect x="10.8" y="156.668471" width="1058.4" height="766.663058"/>
  </clipPath>
 </defs>
</svg>
