<?xml version="1.0" encoding="utf-8" standalone="no"?>
<!DOCTYPE svg PUBLIC "-//W3C//DTD SVG 1.1//EN"
  "http://www.w3.org/Graphics/SVG/1.1/DTD/svg11.dtd">
<svg xmlns:xlink="http://www.w3.org/1999/xlink" width="1080pt" height="1080pt" viewBox="0 0 1080 1080" xmlns="http://www.w3.org/2000/svg" version="1.1">
 <metadata>
  <rdf:RDF xmlns:dc="http://purl.org/dc/elements/1.1/" xmlns:cc="http://creativecommons.org/ns#" xmlns:rdf="http://www.w3.org/1999/02/22-rdf-syntax-ns#">
   <cc:Work>
    <dc:type rdf:resource="http://purl.org/dc/dcmitype/StillImage"/>
    <dc:date>2022-07-01T13:43:22.557614</dc:date>
    <dc:format>image/svg+xml</dc:format>
    <dc:creator>
     <cc:Agent>
      <dc:title>Matplotlib v3.5.1, https://matplotlib.org/</dc:title>
     </cc:Agent>
    </dc:creator>
   </cc:Work>
  </rdf:RDF>
 </metadata>
 <defs>
  <style type="text/css">*{stroke-linejoin: round; stroke-linecap: butt}</style>
 </defs>
 <g id="figure_1">
  <g id="patch_1">
   <path d="M 0 1080 
L 1080 1080 
L 1080 0 
L 0 0 
L 0 1080 
z
" style="fill: none; opacity: 0"/>
  </g>
  <g id="axes_1">
   <g id="PatchCollection_1">
    <path d="M 507.539475 228.102243 
L 509.733303 226.370352 
L 512.739659 223.929961 
L 514.567849 222.119348 
L 515.380378 221.056597 
L 515.664763 220.190651 
L 515.746016 218.655567 
L 516.030401 218.143872 
L 516.436665 218.065149 
L 517.655458 218.143872 
L 518.996131 218.616205 
L 519.605527 219.167261 
L 519.930539 219.915123 
L 519.971165 221.568292 
L 518.386734 225.701212 
L 516.396039 228.771382 
L 516.396039 229.637328 
L 516.802303 230.306467 
L 517.939843 230.857523 
L 519.971165 231.605385 
L 521.51497 231.76283 
L 524.155689 231.76283 
L 525.090097 231.44794 
L 527.893321 228.653299 
L 529.315246 227.196936 
L 530.371534 226.449074 
L 531.305942 226.29163 
L 539.309351 225.819296 
L 540 226.094824 
L 540.975035 227.236297 
L 542.031322 229.204355 
L 543.209489 230.542634 
L 544.550161 231.487302 
L 545.809581 231.920274 
L 546.662736 231.998997 
L 547.881529 231.802191 
L 554.341133 229.243716 
L 557.184984 227.747992 
L 559.663197 226.64588 
L 561.207001 226.094824 
L 566.529065 224.5991 
L 568.032243 223.851238 
L 570.510456 222.040625 
L 573.963703 218.852372 
L 577.295071 216.569426 
L 579.651405 215.191785 
L 580.098296 215.113063 
L 580.50456 215.34923 
L 580.626439 215.742841 
L 580.626439 216.097092 
L 580.179549 218.852372 
L 580.098296 219.954484 
L 580.138922 221.489569 
L 580.50456 222.55232 
L 582.739014 223.851238 
L 585.826624 225.189518 
L 585.379733 228.613938 
L 585.217227 230.73944 
L 585.054721 232.943664 
L 585.379733 234.832999 
L 586.070382 236.91914 
L 586.842285 237.706363 
L 590.904929 239.477615 
L 596.795762 241.996729 
L 600.24901 242.862674 
L 604.108521 243.098841 
L 607.927407 243.05948 
L 611.827545 243.453091 
L 612.558821 246.956234 
L 614.874528 252.073183 
L 616.418333 255.655048 
L 619.505942 258.292245 
L 622.593551 261.126248 
L 626.046799 265.928308 
L 627.549977 268.408061 
L 628.76877 269.903785 
L 631.571994 272.226092 
L 634.375219 274.390956 
L 635.878397 276.319652 
L 637.259696 279.468544 
L 638.92538 283.601465 
L 639.981667 285.097189 
L 641.444219 285.923773 
L 645.141225 287.104607 
L 648.066329 287.89183 
L 649.569507 288.718415 
L 652.819622 291.552417 
L 656.232243 294.150253 
L 658.019807 294.701309 
L 659.766743 294.661948 
L 660.741778 294.38642 
L 663.423123 293.638558 
L 667.485767 291.394973 
L 669.27333 290.686472 
L 671.751543 290.371583 
L 674.676647 290.922639 
L 676.911101 291.434334 
L 679.551819 292.65453 
L 680.68936 293.67792 
L 682.51755 295.370449 
L 685.523906 299.345925 
L 687.75836 303.321401 
L 690.033441 306.470294 
L 692.105389 308.792601 
L 694.908614 310.642575 
L 699.499401 312.8468 
L 704.983971 309.068129 
L 709.20912 304.856486 
L 711.646707 302.691623 
L 712.499862 302.376734 
L 713.068632 302.534178 
L 713.43427 303.163957 
L 714.57181 306.509655 
L 715.668724 308.792601 
L 717.131276 310.760659 
L 719.9345 313.161689 
L 721.76269 313.909551 
L 723.794012 314.578691 
L 725.215937 314.578691 
L 726.55661 314.22444 
L 728.506679 313.634023 
L 733.341225 311.862771 
L 736.063197 311.429798 
L 753.085675 312.453188 
L 757.676462 313.20105 
L 765.23298 315.169108 
L 768.036205 315.562719 
L 770.108153 315.562719 
L 771.814463 315.365914 
L 773.236389 314.657413 
L 775.470843 313.397856 
L 776.892768 313.043606 
L 777.420912 313.004245 
L 778.070935 313.358495 
L 778.802211 314.027634 
L 779.167849 315.208469 
L 779.817872 317.058443 
L 780.386642 317.885027 
L 782.539843 319.459473 
L 783.839889 320.561585 
L 782.336711 322.254115 
L 781.88982 322.608365 
L 781.402303 322.529643 
L 780.305389 321.584975 
L 779.49286 321.348808 
L 778.883464 321.348808 
L 777.705297 321.899865 
L 778.192814 322.254115 
L 778.842837 323.553033 
L 779.04597 324.379617 
L 779.289728 326.111508 
L 775.836481 328.079565 
L 773.68328 329.102955 
L 772.911377 329.378483 
L 766.126762 331.543346 
L 765.517365 332.606097 
L 764.786089 333.235876 
L 763.201658 334.101821 
L 762.226624 334.770961 
L 761.69848 335.203933 
L 761.332842 335.75499 
L 761.210963 338.470909 
L 760.804698 342.013412 
L 759.87029 345.792083 
L 758.935882 349.137781 
L 758.488991 350.357976 
L 758.285859 351.617533 
L 757.635836 352.444117 
L 751.663749 355.789815 
L 741.141502 361.77271 
L 740.775864 362.402489 
L 740.775864 363.81949 
L 741.425887 365.630103 
L 742.685306 367.007743 
L 743.416582 366.023714 
L 744.91976 364.84288 
L 746.219807 364.331185 
L 747.357347 364.055657 
L 750.688715 363.740768 
L 754.060709 363.701406 
L 757.960848 363.425878 
L 757.717089 364.213101 
L 757.635836 365.039686 
L 757.635836 365.669464 
L 757.960848 366.299242 
L 758.529618 366.653493 
L 759.707784 367.125827 
L 760.56094 367.558799 
L 762.185997 368.346022 
L 765.639245 371.101303 
L 767.954952 374.014028 
L 769.701889 374.09275 
L 770.839429 374.171473 
L 771.651958 374.447001 
L 772.220728 375.352307 
L 772.870751 376.80867 
L 774.617688 381.689452 
L 775.511469 382.673481 
L 777.055274 384.01176 
L 778.274067 385.074511 
L 779.086596 385.428762 
L 780.224136 385.428762 
L 782.052326 384.956428 
L 784.246154 386.334068 
L 784.124275 389.010626 
L 784.164901 391.057406 
L 784.449286 393.852048 
L 784.164901 399.126442 
L 784.368033 402.668946 
L 784.97743 403.652974 
L 785.018056 404.085947 
L 784.571165 405.069976 
L 780.508521 408.218868 
L 779.61474 409.084813 
L 779.04597 410.501815 
L 778.35532 416.484709 
L 777.78655 418.610212 
L 777.055274 419.90913 
L 775.267711 421.759104 
L 773.602027 422.782494 
L 772.870751 423.058022 
L 770.0269 423.648439 
L 766.4924 426.994137 
L 764.989222 429.001555 
L 762.917273 433.095115 
L 761.373468 436.322729 
L 761.69848 436.716341 
L 764.136066 437.070591 
L 772.261354 437.542925 
L 773.927038 437.70037 
L 775.592722 437.03123 
L 781.32105 434.118505 
L 782.092953 433.567449 
L 782.336711 433.095115 
L 782.458591 430.418557 
L 782.621096 428.13561 
L 783.474251 425.616496 
L 785.058683 422.821855 
L 790.502626 414.477291 
L 795.215292 408.29759 
L 797.896637 405.581671 
L 799.968586 404.164669 
L 800.740488 403.967864 
L 801.756149 403.928502 
L 803.828098 404.558281 
L 809.556426 407.077394 
L 812.319023 409.084813 
L 814.75661 411.407121 
L 816.503547 413.217734 
L 818.453616 413.965596 
L 828.975864 415.264514 
L 831.129065 415.658125 
L 832.063473 415.658125 
L 832.510364 415.225153 
L 832.632243 414.870902 
L 832.591617 414.044318 
L 832.347858 411.997538 
L 832.307232 409.832675 
L 832.55099 408.336951 
L 833.201013 406.91995 
L 834.216674 405.857199 
L 835.597973 405.384865 
L 836.369876 405.502948 
L 837.223031 405.975282 
L 837.060525 406.211449 
L 836.369876 408.691202 
L 836.044864 411.289038 
L 836.694887 413.335817 
L 839.335606 415.46132 
L 841.895071 417.468738 
L 842.260709 418.88574 
L 841.935698 419.791046 
L 841.285675 420.420824 
L 836.247996 421.916548 
L 829.991525 424.671829 
L 829.300875 425.104801 
L 829.219622 426.521803 
L 831.41345 436.755702 
L 832.916628 440.45565 
L 834.663565 443.52582 
L 834.704192 444.273682 
L 834.257301 445.139627 
L 830.84468 449.154464 
L 830.194657 450.689549 
L 829.991525 451.949106 
L 830.235283 453.051218 
L 830.925933 453.680997 
L 833.322893 454.074608 
L 842.382589 453.917164 
L 849.735974 453.79908 
L 849.085951 464.347869 
L 846.851497 465.017008 
L 844.982681 466.512732 
L 844.007646 468.087178 
L 842.748227 472.25946 
L 842.626347 479.423189 
L 843.073238 490.444311 
L 843.438876 494.065537 
L 844.292031 499.261209 
L 844.657669 502.803713 
L 845.348319 504.889854 
L 846.36398 506.857911 
L 847.135882 507.999385 
L 848.720313 509.21958 
L 851.482911 510.833387 
L 853.270474 512.171667 
L 854.976785 513.706751 
L 857.414371 517.013088 
L 860.908245 521.972593 
L 862.858314 524.649151 
L 864.361492 528.073571 
L 865.052142 529.175684 
L 867.936619 532.875632 
L 871.999263 537.913859 
L 875.493137 542.361669 
L 881.587103 548.934981 
L 884.187195 551.690262 
L 885.284109 552.949819 
L 885.934132 554.091292 
L 886.137264 555.272126 
L 885.649747 557.79124 
L 883.943436 562.042244 
L 882.887149 564.600719 
L 882.115246 565.702831 
L 880.205804 566.568777 
L 872.121142 570.032558 
L 871.511746 570.662336 
L 871.308614 571.174031 
L 871.552372 572.472949 
L 872.527407 573.575061 
L 873.258683 573.771867 
L 874.964993 574.244201 
L 876.061907 574.913341 
L 879.921419 578.692011 
L 880.449562 579.597318 
L 881.262091 583.612155 
L 882.318379 591.602468 
L 882.805896 597.309835 
L 882.805896 598.530031 
L 882.318379 600.143838 
L 881.262091 601.954451 
L 880.855827 603.528897 
L 880.896453 605.103343 
L 882.033994 607.622457 
L 883.618425 609.866042 
L 884.918471 611.086238 
L 886.787287 612.739406 
L 887.356057 613.920241 
L 887.477936 615.337242 
L 887.234178 616.911688 
L 886.502902 618.210606 
L 884.309074 620.493553 
L 882.359005 621.75311 
L 880.896453 622.028638 
L 878.499493 622.146721 
L 876.915062 622.067999 
L 875.980654 621.792471 
L 874.88374 620.965887 
L 874.030585 619.666969 
L 873.380562 618.604218 
L 872.730539 618.289329 
L 872.324275 618.289329 
L 866.189682 622.697777 
L 865.539659 623.485 
L 865.458406 623.917973 
L 865.499033 624.862641 
L 866.920958 629.034923 
L 868.261631 632.341259 
L 869.155412 633.561455 
L 869.317918 633.758261 
L 870.577338 634.663567 
L 873.299309 635.332707 
L 877.97135 635.647596 
L 883.984063 636.041207 
L 886.29977 636.198652 
L 887.681069 636.080569 
L 888.818609 635.529513 
L 890.159281 634.151872 
L 892.434362 631.042341 
L 893.409397 630.570008 
L 894.587563 630.451924 
L 902.38784 630.215757 
L 903.281621 630.451924 
L 904.175403 631.081702 
L 905.719208 633.640177 
L 906.938001 638.363515 
L 907.547398 641.748574 
L 907.831783 643.32302 
L 908.156794 647.652747 
L 908.3193 649.581443 
L 908.847444 650.801639 
L 909.903731 652.494168 
L 910.919392 653.202669 
L 914.941409 654.107976 
L 918.679042 655.052643 
L 921.644772 656.115394 
L 923.432335 656.705812 
L 924.204238 656.587728 
L 924.97614 655.95795 
L 929.932566 648.636776 
L 930.704468 648.243164 
L 931.47637 648.361248 
L 934.726485 651.234612 
L 936.39217 652.572891 
L 937.935974 653.517558 
L 941.307969 653.596281 
L 945.086228 653.281391 
L 947.158176 653.478197 
L 949.067619 655.406894 
L 951.302073 659.73662 
L 952.967757 661.7834 
L 957.761677 666.467377 
L 964.790051 673.198134 
L 966.293229 674.221524 
L 968.649562 675.087469 
L 969.462091 675.992775 
L 970.721511 679.692723 
L 974.702902 689.533011 
L 974.784155 689.769178 
L 976.084201 695.240378 
L 977.709258 701.971135 
L 979.456195 705.198749 
L 980.512483 706.300861 
L 984.128236 710.315699 
L 987.053339 713.346507 
L 988.353386 714.920953 
L 989.450299 716.613483 
L 991.766006 721.258099 
L 994.609857 727.949494 
L 996.681806 732.318582 
L 997.981852 735.388752 
L 999.647536 739.639756 
L 1000.663197 742.237592 
L 1000.906955 742.906731 
L 1001.150714 743.339704 
L 1001.638231 743.457787 
L 1002.166375 743.457787 
L 1005.010226 742.631203 
L 1005.782128 742.631203 
L 1006.635283 742.749287 
L 1007.529065 743.300343 
L 1008.260341 744.166288 
L 1008.747858 745.347123 
L 1010.007278 752.274685 
L 1010.819807 753.849131 
L 1011.957347 755.699105 
L 1012.729249 756.683134 
L 1013.988669 757.509718 
L 1015.207462 757.785246 
L 1016.101244 757.785246 
L 1017.116905 757.667163 
L 1017.726301 757.273551 
L 1018.457577 756.2108 
L 1019.188853 753.849131 
L 1019.838876 753.022547 
L 1020.895164 752.274685 
L 1022.885859 751.723629 
L 1024.429664 751.487462 
L 1024.510917 755.581022 
L 1025.567204 759.832026 
L 1025.810963 761.957528 
L 1026.623491 762.390501 
L 1027.679779 763.295807 
L 1029.873607 765.933004 
L 1031.742423 767.271284 
L 1036.617596 769.829758 
L 1044.661631 774.120124 
L 1051.97439 778.056239 
L 1053.518194 778.371128 
L 1053.843206 778.371128 
L 1056.605804 778.607295 
L 1057.824597 778.607295 
L 1058.637126 778.882823 
L 1059.246522 779.591324 
L 1059.409028 780.49663 
L 1059.205896 786.597608 
L 1058.921511 791.08478 
L 1058.962137 794.706006 
L 1059.896545 802.02718 
L 1060.465316 807.065407 
L 1061.724735 817.574834 
L 1062.049747 822.180089 
L 1062.090373 825.014091 
L 1062.456011 827.415122 
L 1062.781023 828.674678 
L 1063.83731 829.855513 
L 1064.771718 831.036348 
L 1066.193643 832.177821 
L 1067.818701 833.949073 
L 1068.874988 835.720324 
L 1069.2 836.704353 
L 1066.681161 837.491576 
L 1063.674804 838.121355 
L 1061.237218 838.160716 
L 1057.458959 837.688382 
L 1053.477568 837.530937 
L 1051.730631 837.767104 
L 1050.958729 837.845827 
L 1048.033625 838.593688 
L 1046.367941 839.302189 
L 1044.174113 840.797913 
L 1042.427176 841.585136 
L 1040.842745 842.018109 
L 1037.714509 841.860664 
L 1035.073791 841.663858 
L 1030.889268 840.522385 
L 1024.59217 836.035214 
L 1017.40129 830.642736 
L 1013.826163 827.572566 
L 1009.032243 822.92795 
L 1005.904007 819.070558 
L 1001.394473 813.127024 
L 999.647536 810.60791 
L 999.241271 809.427076 
L 998.144357 803.168653 
L 997.738093 802.656958 
L 997.331829 802.578236 
L 996.844311 802.578236 
L 994.325472 803.050569 
L 993.919208 803.286736 
L 993.634823 803.601626 
L 993.472317 804.034598 
L 993.512943 808.364325 
L 993.350438 809.545159 
L 990.831598 814.976998 
L 989.125288 818.12589 
L 987.987748 819.975864 
L 987.784615 820.290753 
L 987.337725 820.763087 
L 986.443943 821.077976 
L 984.859512 821.471588 
L 983.762598 821.55031 
L 983.112575 821.235421 
L 982.625058 820.881171 
L 981.771902 819.975864 
L 980.228098 817.929084 
L 978.765546 815.921666 
L 977.912391 815.331248 
L 977.262368 815.173804 
L 976.084201 815.173804 
L 969.908982 816.984417 
L 967.146384 817.456751 
L 966.536988 817.220584 
L 965.561953 816.787611 
L 964.546292 816.118471 
L 963.408752 816.000388 
L 962.555596 816.000388 
L 958.371073 816.945056 
L 956.299125 817.850362 
L 955.933487 818.48014 
L 955.933487 819.070558 
L 956.177246 820.369476 
L 957.924182 827.493844 
L 960.849286 838.436244 
L 961.37743 839.971329 
L 962.149332 840.837274 
L 963.611884 842.05747 
L 963.936895 842.726609 
L 963.896269 843.159582 
L 963.20562 843.78936 
L 961.9462 844.10425 
L 958.167941 845.088278 
L 957.477292 845.560612 
L 957.071027 846.111668 
L 956.786642 848.55206 
L 956.421004 851.66159 
L 956.58351 852.370091 
L 957.15228 853.314759 
L 958.939843 855.873234 
L 959.711746 857.605124 
L 960.402395 860.242321 
L 960.849286 862.997602 
L 960.971165 864.257159 
L 961.052418 864.886937 
L 961.133671 868.193274 
L 961.499309 872.955973 
L 962.189959 875.23892 
L 963.571257 878.427173 
L 963.896269 880.592036 
L 963.855643 881.379259 
L 963.855643 881.930315 
L 963.368125 883.032427 
L 961.986826 885.708986 
L 961.418056 887.204709 
L 960.971165 892.675909 
L 950.448918 893.581216 
L 950.205159 893.266327 
L 949.352004 890.786574 
L 949.067619 889.448295 
L 949.148871 888.110016 
L 949.230124 887.007904 
L 949.677015 882.481371 
L 949.717642 878.860145 
L 949.433257 878.112284 
L 948.620728 877.403783 
L 947.280055 876.695282 
L 945.85813 876.104865 
L 936.676555 873.979363 
L 933.87333 873.625112 
L 933.832704 872.798528 
L 934.56398 864.532687 
L 935.254629 860.517849 
L 934.929618 859.730626 
L 933.954583 859.337015 
L 931.679503 858.589153 
L 929.891939 857.408318 
L 926.073054 854.259426 
L 922.944818 851.386062 
L 921.401013 850.638201 
L 919.450944 850.362672 
L 917.338369 850.402034 
L 914.697651 850.047783 
L 910.878766 847.686114 
L 909.619346 847.174419 
L 908.075541 846.780808 
L 898.812713 846.623363 
L 896.45638 846.780808 
L 892.149977 847.410586 
L 889.753017 847.764837 
L 888.331092 848.197809 
L 887.721695 849.103116 
L 897.59392 858.077458 
L 898.893966 860.675294 
L 899.137725 862.682713 
L 898.528328 864.729492 
L 897.715799 865.831605 
L 896.618885 866.854995 
L 895.76573 868.547524 
L 895.928236 869.216664 
L 896.131368 870.082609 
L 899.015845 874.333613 
L 905.556702 880.592036 
L 907.547398 882.402649 
L 907.18176 883.81965 
L 907.18176 884.252623 
L 907.913035 885.827069 
L 910.350622 890.62913 
L 913.803869 895.470551 
L 915.469553 899.170499 
L 917.175864 902.94917 
L 920.913496 909.12887 
L 924.691755 914.324542 
L 928.307508 918.33938 
L 932.451405 921.7638 
L 932.085767 923.968024 
L 931.191985 925.778637 
L 929.038784 928.848807 
L 927.860617 930.698781 
L 926.276186 931.68281 
L 919.207186 934.123201 
L 905.841087 938.964622 
L 904.378535 939.988012 
L 900.478397 944.868795 
L 896.700138 949.513411 
L 891.743713 954.590999 
L 890.118655 955.693111 
L 889.102994 956.086723 
L 886.909166 956.204806 
L 884.715339 956.244168 
L 881.180838 955.889917 
L 877.605712 954.63036 
L 874.964993 953.370804 
L 871.958637 951.599552 
L 868.911654 948.922994 
L 862.411423 942.034792 
L 858.673791 938.728456 
L 854.245509 935.028507 
L 849.857854 931.210476 
L 843.601382 924.676525 
L 833.11976 915.62346 
L 828.44772 912.710735 
L 825.969507 911.962873 
L 824.872593 912.002234 
L 822.963151 912.277762 
L 821.703731 912.159679 
L 820.078673 911.647984 
L 818.29111 910.506511 
L 814.837863 907.869313 
L 803.503086 899.052416 
L 798.66854 896.297135 
L 788.024413 892.754632 
L 781.32105 890.747213 
L 780.549148 890.786574 
L 779.61474 890.944019 
L 777.908429 892.124853 
L 773.764532 896.730108 
L 770.514417 899.091777 
L 767.426808 900.469417 
L 764.461078 901.099196 
L 761.048457 901.414085 
L 757.920221 901.296001 
L 752.313772 900.036445 
L 745.122893 898.658804 
L 740.735237 897.556692 
L 738.947674 893.226965 
L 737.728881 891.967409 
L 737.444496 891.731242 
L 736.063197 890.707852 
L 731.513035 888.897239 
L 728.181667 888.621711 
L 726.069093 889.094045 
L 724.403409 889.802545 
L 723.062736 891.534436 
L 721.722064 893.73866 
L 721.437678 894.132272 
L 720.868908 896.257774 
L 720.137632 898.580082 
L 719.853247 899.131138 
L 718.959466 899.721555 
L 717.293782 900.036445 
L 710.793551 899.957722 
L 703.84643 899.760916 
L 700.393183 899.367305 
L 694.299217 896.730108 
L 682.151912 890.156796 
L 675.89544 886.653653 
L 673.010963 885.000485 
L 671.345279 884.567512 
L 669.517089 884.606873 
L 660.254261 884.48879 
L 657.044772 884.370707 
L 655.866605 884.13454 
L 654.160295 883.268594 
L 650.828927 881.772871 
L 648.269461 880.631397 
L 634.13146 875.94742 
L 623.852971 873.074056 
L 620.359097 872.404917 
L 619.749701 872.444278 
L 618.855919 872.562361 
L 614.346384 876.341032 
L 610.324367 880.080341 
L 607.033625 883.11115 
L 604.961677 885.000485 
L 603.295993 885.748347 
L 601.183418 886.18132 
L 598.177061 886.063236 
L 586.029756 882.520733 
L 562.750806 874.451697 
L 561.369507 873.625112 
L 560.475725 872.641084 
L 558.931921 870.358137 
L 557.997513 869.649636 
L 556.494334 869.09858 
L 550.278489 867.327328 
L 548.775311 867.0518 
L 547.556518 867.36669 
L 545.606449 868.941136 
L 544.550161 869.413469 
L 543.209489 869.413469 
L 538.334316 868.468802 
L 536.993643 867.642218 
L 532.524735 863.27313 
L 529.355873 860.754016 
L 526.146384 859.061487 
L 518.467987 856.1094 
L 512.820912 853.039231 
L 505.99567 848.709504 
L 500.63298 844.773389 
L 498.032888 842.529803 
L 494.823399 838.436244 
L 493.888991 837.727743 
L 492.548319 837.767104 
L 491.207646 838.908578 
L 489.541962 840.640468 
L 487.916905 841.230886 
L 486.3731 841.112802 
L 481.985444 839.735162 
L 477.719668 837.373493 
L 471.463197 833.16185 
L 470.081898 831.744848 
L 469.797513 831.351237 
L 468.253708 828.359789 
L 467.3193 827.218316 
L 466.384892 826.942788 
L 465.206725 826.982149 
L 463.09415 828.556595 
L 461.753478 829.147012 
L 459.925288 829.186373 
L 452.775035 825.99812 
L 447.452971 823.360923 
L 452.125012 815.252526 
L 452.978167 813.087663 
L 455.009489 806.789879 
L 455.740765 803.640987 
L 455.537632 802.38143 
L 453.384431 797.421925 
L 451.840626 794.154949 
L 451.190603 792.737948 
L 449.97181 790.887974 
L 447.534224 789.352889 
L 433.233717 783.409355 
L 430.186734 782.031715 
L 429.130447 780.890242 
L 428.480424 779.906213 
L 428.033533 778.489211 
L 427.871027 777.347738 
L 428.886688 775.182875 
L 432.868079 769.593591 
L 432.949332 768.53084 
L 432.461815 767.546812 
L 429.252326 764.004308 
L 427.871027 763.020279 
L 426.367849 762.35114 
L 425.311561 762.193695 
L 423.320866 761.524556 
L 421.492676 760.422443 
L 418.445693 758.178858 
L 417.673791 757.037384 
L 417.511285 756.171439 
L 418.36444 752.747019 
L 418.201935 751.881074 
L 417.592538 751.172573 
L 416.373745 750.503433 
L 412.879871 750.38535 
L 410.320405 749.991738 
L 408.776601 749.440682 
L 405.729618 747.787514 
L 400.976324 742.985454 
L 399.148135 741.017396 
L 397.766836 740.190812 
L 392.607278 737.986588 
L 390.779088 737.120642 
L 388.950898 736.727031 
L 387.732105 736.608947 
L 381.881898 737.39617 
L 379.281806 737.435531 
L 377.047351 737.317448 
L 374.731644 736.215336 
L 372.009673 734.404723 
L 370.465868 733.853667 
L 369.287702 733.853667 
L 366.931368 735.231307 
L 362.015569 738.301477 
L 357.343528 739.757839 
L 356.449747 739.7972 
L 355.515339 739.639756 
L 354.743436 738.970616 
L 354.58093 738.537644 
L 353.037126 735.428113 
L 351.980838 734.444084 
L 350.274528 733.302611 
L 348.608844 732.476026 
L 347.715062 731.92497 
L 346.94316 731.767526 
L 346.618148 730.783497 
L 347.471304 727.359077 
L 347.918194 725.509103 
L 347.552556 722.517655 
L 346.618148 719.919819 
L 345.11497 718.069845 
L 338.939751 711.811422 
L 337.558452 710.827394 
L 336.339659 710.551866 
L 330.895716 710.197615 
L 326.386181 709.68592 
L 325.004883 709.134864 
L 323.298572 707.993391 
L 322.079779 706.733834 
L 318.829664 701.380717 
L 315.742054 697.444602 
L 314.07637 696.145684 
L 309.485583 693.665932 
L 306.4386 692.288292 
L 305.260433 691.855319 
L 305.016674 691.815958 
L 302.822847 691.461708 
L 297.500783 690.950013 
L 295.59134 689.769178 
L 292.544357 686.108591 
L 289.903639 681.582059 
L 289.131737 680.755475 
L 288.075449 680.755475 
L 286.856656 681.070364 
L 284.459696 682.526726 
L 279.665776 685.71498 
L 278.487609 686.462841 
L 277.878213 686.147952 
L 272.353017 681.267169 
L 269.306034 679.299112 
L 265.324643 677.488499 
L 263.374574 677.252332 
L 261.424505 677.252332 
L 255.65555 678.197 
L 248.139659 678.866139 
L 244.48328 679.338473 
L 242.411331 680.794836 
L 238.348687 683.550116 
L 237.779917 684.494784 
L 237.211147 685.793702 
L 236.520497 690.477679 
L 236.073607 691.89468 
L 234.164164 693.193598 
L 228.96398 695.948879 
L 227.745187 695.948879 
L 226.404514 695.397823 
L 224.576324 694.020182 
L 223.804422 693.744654 
L 223.073146 693.626571 
L 216.491663 694.846766 
L 213.932197 695.004211 
L 210.194565 694.925489 
L 203.369323 695.161656 
L 203.206817 694.216988 
L 201.703639 692.56382 
L 199.428558 690.359595 
L 193.293966 686.226674 
L 191.018885 684.02245 
L 188.296914 681.818226 
L 185.737448 680.440585 
L 182.568586 679.22039 
L 181.065408 677.882111 
L 178.30281 676.071498 
L 177.449655 675.520442 
L 175.824597 675.520442 
L 173.752649 675.835331 
L 168.227453 676.976804 
L 167.293045 677.409777 
L 164.408567 679.653362 
L 163.35228 680.204418 
L 161.605343 679.023584 
L 160.467803 677.764027 
L 160.467803 676.779998 
L 161.52409 674.733218 
L 164.733579 670.364131 
L 165.139843 668.317351 
L 165.261723 666.467377 
L 164.855458 662.531262 
L 163.474159 660.681288 
L 162.255366 659.343009 
L 158.55836 658.634508 
L 156.567665 658.752591 
L 155.755136 658.004729 
L 153.19567 654.895199 
L 151.245601 650.762278 
L 148.40175 648.479331 
L 140.804606 644.385771 
L 138.773284 640.331573 
L 137.513865 636.789069 
L 137.473238 634.899734 
L 140.19521 629.27109 
L 139.260801 623.642445 
L 135.726301 620.218025 
L 130.444864 615.61277 
L 128.088531 612.070267 
L 125.24468 607.976707 
L 122.685214 607.465012 
L 114.478673 605.182065 
L 110.659788 603.607619 
L 102.737632 597.427919 
L 98.796868 594.279027 
L 94.815477 591.287579 
L 90.184063 588.965271 
L 86.649562 587.19402 
L 75.477292 581.014319 
L 66.336343 580.305818 
L 64.508153 580.502624 
L 59.836112 585.107879 
L 55.40783 587.981243 
L 47.323169 588.965271 
L 41.026071 589.870578 
L 35.257117 589.9493 
L 29.406909 588.532299 
L 27.050576 592.389691 
L 22.987932 600.183199 
L 20.469093 598.097058 
L 18.722156 596.247084 
L 15.431414 592.822664 
L 12.912575 591.681191 
L 13.075081 587.430186 
L 13.19696 584.596184 
L 13.562598 583.021738 
L 14.700138 578.928178 
L 15.187655 577.038843 
L 15.187655 573.889951 
L 16.243943 571.016587 
L 16.243943 569.324057 
L 16.447075 565.269859 
L 16.203316 561.412466 
L 13.684477 556.76785 
L 11.287517 553.855125 
L 10.8 551.572178 
L 11.653155 549.840288 
L 17.218977 549.367954 
L 22.66292 547.439257 
L 24.531737 546.49459 
L 24.084846 546.061617 
L 23.597328 545.510561 
L 21.891018 543.109531 
L 20.184708 541.180835 
L 17.218977 537.008553 
L 16.16269 535.434107 
L 15.59392 532.521381 
L 15.350161 531.340547 
L 15.431414 528.624627 
L 17.828374 524.412984 
L 19.737817 520.988564 
L 20.062828 519.768369 
L 20.753478 517.209894 
L 18.519023 515.910976 
L 13.643851 514.533336 
L 12.587563 513.588668 
L 12.587563 510.124887 
L 12.709443 505.480271 
L 12.668816 502.961157 
L 13.318839 500.796294 
L 18.925288 495.797428 
L 21.037863 493.868731 
L 26.481806 493.868731 
L 31.68199 493.82937 
L 35.094611 493.671926 
L 38.913496 489.184755 
L 39.847904 488.00392 
L 44.479318 484.382694 
L 46.916905 482.493359 
L 51.548319 479.856162 
L 54.310917 479.816801 
L 58.414187 480.328496 
L 64.955044 483.989083 
L 71.292768 488.00392 
L 73.242837 489.263477 
L 77.427361 492.373008 
L 78.524275 493.199592 
L 84.983878 496.191039 
L 90.67158 498.27718 
L 92.784155 498.59207 
L 96.684293 499.221848 
L 100.909443 499.221848 
L 105.418977 499.30057 
L 109.278489 499.694182 
L 116.713128 502.331379 
L 121.953938 505.480271 
L 128.088531 507.48769 
L 136.376324 509.967442 
L 142.835928 512.644 
L 149.742423 517.131172 
L 154.901981 521.342815 
L 158.802119 524.767235 
L 163.067895 526.341681 
L 175.90585 526.341681 
L 178.384063 525.751263 
L 182.568586 519.374757 
L 185.128052 517.918395 
L 186.753109 516.029059 
L 188.296914 514.415252 
L 189.962598 512.683361 
L 191.750161 511.030193 
L 193.050207 509.770636 
L 194.228374 508.51108 
L 194.594012 508.038746 
L 195.081529 507.527051 
L 195.406541 507.290884 
L 194.756518 507.251523 
L 194.39088 507.1728 
L 193.82211 506.975995 
L 193.415845 506.779189 
L 192.278305 505.913244 
L 189.150069 503.433491 
L 182.649839 498.59207 
L 178.830953 497.135707 
L 175.865223 496.663373 
L 173.915154 496.466567 
L 172.655735 496.663373 
L 172.330723 496.230401 
L 172.046338 495.403816 
L 172.533855 492.648536 
L 174.118287 489.106032 
L 177.449655 484.894389 
L 180.293505 481.036996 
L 181.390419 478.517883 
L 182.040442 474.857296 
L 182.649839 471.669043 
L 184.681161 467.614844 
L 185.899954 465.174453 
L 186.103086 463.36384 
L 186.06246 460.884087 
L 185.899954 458.168168 
L 186.346845 457.577751 
L 186.63123 457.459667 
L 187.606264 457.538389 
L 188.90631 458.128807 
L 192.440811 460.29367 
L 193.293966 460.569198 
L 193.82211 460.569198 
L 194.350253 460.175587 
L 194.756518 459.27028 
L 195.609673 457.735195 
L 196.747213 455.334165 
L 199.347305 451.870384 
L 203.247444 448.603408 
L 205.441271 446.084295 
L 206.050668 444.588571 
L 206.010041 442.777958 
L 205.156886 441.990735 
L 203.85684 441.282234 
L 202.272409 440.8099 
L 200.037955 440.534372 
L 198.412897 440.573734 
L 196.422202 441.006706 
L 194.472133 441.12479 
L 193.862736 440.927984 
L 192.968954 440.258844 
L 191.668908 438.841843 
L 189.840719 436.873785 
L 186.387471 433.803616 
L 183.990511 432.150447 
L 182.649839 431.56003 
L 179.318471 431.56003 
L 178.465316 430.851529 
L 178.343436 429.906862 
L 179.074712 427.46647 
L 182.284201 422.506965 
L 182.771718 420.971881 
L 182.40608 419.436796 
L 181.918563 416.445348 
L 182.324827 415.343236 
L 182.649839 414.870902 
L 183.746753 413.571984 
L 184.681161 412.469872 
L 184.843667 411.800733 
L 184.681161 410.934787 
L 184.518655 409.163535 
L 184.599908 407.903979 
L 185.046799 406.054005 
L 185.981207 404.282753 
L 187.240626 401.409389 
L 187.2 400.622166 
L 186.834362 399.953026 
L 186.143713 399.520054 
L 185.209304 399.087081 
L 182.649839 398.811553 
L 178.912206 399.205164 
L 178.221557 398.654108 
L 178.140304 396.607328 
L 179.277844 392.592491 
L 181.146661 390.388267 
L 181.552925 388.577654 
L 181.146661 387.357458 
L 178.099678 383.342621 
L 174.971442 379.2097 
L 173.630769 377.044837 
L 172.94012 374.053389 
L 172.411976 371.888526 
L 171.721327 367.676883 
L 169.85251 363.858851 
L 164.124182 357.954678 
L 160.549056 354.215369 
L 158.598987 348.940975 
L 157.42082 339.573021 
L 157.258314 336.975185 
L 155.59263 334.337988 
L 152.830032 331.66143 
L 150.758084 330.086984 
L 149.864302 330.047623 
L 146.00479 329.890178 
L 142.632796 329.102955 
L 140.357715 327.685954 
L 136.660709 323.395588 
L 132.069922 317.373332 
L 130.363611 315.798886 
L 129.510456 315.365914 
L 123.41649 312.925522 
L 120.044496 310.721298 
L 117.769415 308.438351 
L 116.103731 306.076682 
L 114.641179 301.707594 
L 112.894242 298.283174 
L 111.43169 295.567255 
L 107.937817 289.544999 
L 106.597144 286.671635 
L 104.93146 282.73552 
L 103.509535 280.413212 
L 101.803224 278.445154 
L 99.243759 275.493068 
L 94.734224 272.344176 
L 85.512022 265.96767 
L 81.855643 263.291111 
L 78.361769 260.024136 
L 74.421004 252.702962 
L 72.105297 249.121097 
L 70.35836 244.358398 
L 69.911469 242.114812 
L 69.423952 239.713782 
L 68.936435 235.659584 
L 68.367665 232.746858 
L 68.08328 231.251135 
L 67.677015 230.503273 
L 66.051958 228.69266 
L 63.817503 226.527797 
L 61.908061 224.756545 
L 59.836112 221.135319 
L 58.048549 218.065149 
L 54.27029 214.837535 
L 53.254629 214.247118 
L 44.438692 211.019503 
L 43.869922 209.248252 
L 42.935514 206.296165 
L 42.244864 201.021771 
L 41.676094 198.93563 
L 37.572824 190.39426 
L 36.313404 187.127285 
L 35.744634 184.765616 
L 35.297743 181.459279 
L 34.322708 178.822082 
L 31.11322 170.792407 
L 30.097559 167.604154 
L 29.528789 163.156344 
L 28.71626 161.227648 
L 31.641363 159.535118 
L 33.875818 157.645783 
L 42.813634 161.818065 
L 44.966836 162.369121 
L 45.332474 159.92873 
L 46.185629 156.661754 
L 47.77006 154.45753 
L 49.557623 152.253305 
L 49.882635 151.269277 
L 49.842008 149.576747 
L 48.501336 146.545939 
L 48.501336 145.56191 
L 48.663842 144.381075 
L 51.913957 140.248155 
L 56.139106 136.705651 
L 65.076923 132.57273 
L 70.642745 130.289783 
L 76.371073 128.518532 
L 81.77439 126.07814 
L 84.74012 124.188805 
L 86.121419 123.755832 
L 91.280977 124.267527 
L 90.468448 127.731309 
L 90.509074 129.660005 
L 90.630953 132.887619 
L 91.159097 134.855677 
L 93.271672 139.185403 
L 96.440534 143.751297 
L 97.86246 145.483188 
L 101.315707 147.687412 
L 102.006357 148.592718 
L 103.550161 150.127803 
L 104.078305 151.347999 
L 104.200184 152.292667 
L 103.956426 153.591585 
L 102.168862 155.244753 
L 100.990696 156.701115 
L 100.665684 158.472367 
L 100.462552 161.542537 
L 100.503178 162.9989 
L 95.099862 163.392511 
L 93.109166 164.219095 
L 89.899678 166.383959 
L 88.721511 168.233933 
L 88.559005 169.454128 
L 89.005896 170.831769 
L 89.98093 172.012603 
L 91.524735 172.484937 
L 93.677936 172.445576 
L 101.234454 171.382825 
L 108.059696 174.020022 
L 114.844311 180.199722 
L 119.231967 184.372004 
L 136.091939 181.105029 
L 141.292123 178.034859 
L 143.404698 178.271026 
L 145.476647 179.806111 
L 147.061078 181.616724 
L 149.254906 184.883699 
L 150.839337 186.025173 
L 153.236297 186.221978 
L 159.777153 186.694312 
L 165.18047 187.835786 
L 169.771257 190.354899 
L 177.815292 194.960154 
L 182.649839 198.778185 
L 183.137356 198.896269 
L 183.909258 198.856908 
L 186.143713 198.974991 
L 187.728144 199.526047 
L 190.612621 201.139855 
L 192.237678 202.635578 
L 194.431506 205.823831 
L 196.422202 207.949334 
L 200.119208 211.216309 
L 200.931737 212.515227 
L 202.02865 215.70348 
L 202.15053 217.002398 
L 201.947398 218.4194 
L 201.622386 219.718318 
L 199.387932 223.182099 
L 199.306679 223.851238 
L 199.75357 224.441656 
L 200.200461 224.677823 
L 200.89111 224.323572 
L 203.166191 222.473598 
L 206.660064 219.521512 
L 209.625795 217.868344 
L 211.453984 217.514093 
L 212.347766 217.632177 
L 213.729065 218.261955 
L 215.71976 219.836401 
L 216.735421 220.899152 
L 218.888623 225.425684 
L 219.579272 226.64588 
L 220.838692 227.708631 
L 224.373192 229.322438 
L 231.157807 231.408579 
L 233.107877 231.369218 
L 234.570428 230.503273 
L 236.03298 229.283077 
L 236.845509 229.283077 
L 237.2924 229.479883 
L 238.348687 230.424551 
L 245.661446 237.981891 
L 246.677107 238.296781 
L 248.58655 237.94253 
L 249.399079 238.139336 
L 249.886596 238.572309 
L 251.267895 239.595699 
L 252.567941 240.65845 
L 253.014832 241.721201 
L 253.299217 243.020119 
L 253.786734 245.381788 
L 255.046154 247.50729 
L 258.093137 251.561488 
L 259.515062 253.372101 
L 261.261999 256.363549 
L 264.877752 261.795388 
L 267.884109 265.692141 
L 272.393643 270.258035 
L 273.124919 271.438869 
L 273.206172 272.068648 
L 273.124919 272.81651 
L 272.718655 274.509039 
L 272.718655 275.335623 
L 273.00304 276.477097 
L 274.018701 279.035572 
L 275.725012 280.68874 
L 277.431322 281.672769 
L 280.356426 282.932325 
L 284.947213 284.624855 
L 288.441087 285.333356 
L 292.584984 285.687606 
L 293.356886 285.923773 
L 294.088162 286.356746 
L 294.697559 286.907802 
L 296.078858 288.718415 
L 299.207094 293.00878 
L 300.791525 294.661948 
L 305.17918 298.952314 
L 306.804238 300.015065 
L 315.498296 303.28204 
L 316.920221 303.675652 
L 317.692123 303.675652 
L 319.276555 303.321401 
L 323.09544 302.455456 
L 325.817411 302.25865 
L 332.845785 300.920371 
L 333.536435 300.841649 
L 335.120866 301.117177 
L 338.49286 302.179928 
L 343.368033 302.809706 
L 346.130631 303.006512 
L 346.699401 302.849068 
L 347.105666 302.298012 
L 347.227545 301.628872 
L 347.308798 299.542731 
L 347.552556 298.676786 
L 347.999447 298.322535 
L 358.318563 297.141701 
L 362.868724 296.4332 
L 364.818793 295.842783 
L 365.875081 295.488532 
L 367.540765 294.38642 
L 371.278397 292.024751 
L 376.15357 289.426915 
L 377.006725 288.679053 
L 377.738001 286.986524 
L 378.631783 283.876993 
L 379.078673 283.325937 
L 379.68807 283.207853 
L 382.166283 283.719548 
L 385.010134 284.585494 
L 386.350806 285.175911 
L 393.338554 289.190748 
L 394.313588 289.820527 
L 394.51672 290.332222 
L 394.313588 290.804556 
L 392.932289 292.221557 
L 392.363519 293.323669 
L 392.079134 294.38642 
L 391.469737 297.81084 
L 390.860341 299.109758 
L 388.544634 301.195899 
L 384.116352 305.446904 
L 382.816306 307.493683 
L 381.719392 309.658547 
L 381.069369 311.980855 
L 381.191248 312.689355 
L 382.166283 314.027634 
L 383.79134 315.877608 
L 384.48199 317.058443 
L 385.457024 319.971168 
L 386.472685 322.450921 
L 387.407094 323.513672 
L 388.300875 324.222172 
L 390.007186 325.088118 
L 391.55099 325.52109 
L 392.851036 325.52109 
L 395.532381 324.930673 
L 396.385537 324.576423 
L 396.832427 323.749839 
L 396.994933 322.529643 
L 397.48245 321.348808 
L 398.132474 320.089252 
L 399.716905 318.908417 
L 401.423215 318.357361 
L 402.84514 318.160555 
L 406.176509 318.003111 
L 408.004698 317.727583 
L 411.336066 316.507387 
L 412.43298 315.720164 
L 412.43298 315.208469 
L 411.986089 314.657413 
L 409.182865 313.004245 
L 407.395302 311.351076 
L 406.948411 310.170242 
L 406.907784 309.146852 
L 407.354675 308.595796 
L 408.695348 307.296878 
L 411.173561 305.68307 
L 422.467711 302.298012 
L 429.252326 300.015065 
L 430.755504 298.952314 
L 430.999263 298.283174 
L 430.999263 297.377868 
L 431.161769 296.708728 
L 432.218056 296.708728 
L 434.818148 296.157672 
L 437.905758 296.039589 
L 438.718287 296.315117 
L 439.449562 296.748089 
L 440.302718 297.928924 
L 441.440258 299.582092 
L 448.021741 305.879876 
L 449.281161 306.273488 
L 450.09369 306.234127 
L 452.612529 305.564987 
L 454.115707 304.659681 
L 455.171994 302.92779 
L 456.431414 301.077816 
L 457.243943 300.684204 
L 459.437771 300.52676 
L 460.412805 301.038455 
L 460.69719 301.825678 
L 460.778443 305.486265 
L 460.940949 307.178794 
L 463.297282 314.066996 
L 464.434823 316.389303 
L 465.978627 317.530777 
L 469.71626 317.924388 
L 470.488162 317.609499 
L 471.097559 317.176526 
L 471.706955 315.720164 
L 472.763243 313.358495 
L 473.81953 312.17766 
L 476.175864 311.705327 
L 477.557163 311.82341 
L 479.141594 312.8468 
L 482.757347 316.900998 
L 483.691755 317.609499 
L 486.048088 318.160555 
L 497.626624 318.239278 
L 502.786181 318.239278 
L 503.883095 317.924388 
L 504.654998 317.058443 
L 505.711285 315.287191 
L 506.483187 313.515939 
L 506.889452 310.327686 
L 507.173837 307.847934 
L 507.783234 307.257517 
L 508.717642 306.942627 
L 515.989774 306.70646 
L 516.924182 306.234127 
L 517.817964 304.620319 
L 519.077384 303.59693 
L 521.230585 302.849068 
L 536.221741 300.172509 
L 535.612345 296.551284 
L 531.143436 277.26432 
L 526.430769 262.582611 
L 519.564901 246.247733 
L 516.558544 240.068032 
L 510.180193 231.605385 
L 507.539475 228.102243 
" clip-path="url(#pf300e88c10)"/>
   </g>
  </g>
 </g>
 <defs>
  <clipPath id="pf300e88c10">
   <rect x="10.8" y="123.755832" width="1058.4" height="832.488335"/>
  </clipPath>
 </defs>
</svg>
