<?xml version="1.0" encoding="utf-8" standalone="no"?>
<!DOCTYPE svg PUBLIC "-//W3C//DTD SVG 1.1//EN"
  "http://www.w3.org/Graphics/SVG/1.1/DTD/svg11.dtd">
<svg xmlns:xlink="http://www.w3.org/1999/xlink" width="1080pt" height="1080pt" viewBox="0 0 1080 1080" xmlns="http://www.w3.org/2000/svg" version="1.1">
 <metadata>
  <rdf:RDF xmlns:dc="http://purl.org/dc/elements/1.1/" xmlns:cc="http://creativecommons.org/ns#" xmlns:rdf="http://www.w3.org/1999/02/22-rdf-syntax-ns#">
   <cc:Work>
    <dc:type rdf:resource="http://purl.org/dc/dcmitype/StillImage"/>
    <dc:date>2022-07-01T13:43:22.639892</dc:date>
    <dc:format>image/svg+xml</dc:format>
    <dc:creator>
     <cc:Agent>
      <dc:title>Matplotlib v3.5.1, https://matplotlib.org/</dc:title>
     </cc:Agent>
    </dc:creator>
   </cc:Work>
  </rdf:RDF>
 </metadata>
 <defs>
  <style type="text/css">*{stroke-linejoin: round; stroke-linecap: butt}</style>
 </defs>
 <g id="figure_1">
  <g id="patch_1">
   <path d="M 0 1080 
L 1080 1080 
L 1080 0 
L 0 0 
L 0 1080 
z
" style="fill: none; opacity: 0"/>
  </g>
  <g id="axes_1">
   <g id="PatchCollection_1">
    <path d="M 656.739212 71.428642 
L 656.119632 76.330958 
L 656.119632 78.832139 
L 657.152265 81.333321 
L 660.456692 83.134171 
L 669.33734 84.935022 
L 674.913561 86.735873 
L 678.631041 89.237055 
L 685.239895 95.840174 
L 677.495144 104.04405 
L 671.81566 106.044995 
L 672.951557 118.450855 
L 678.321251 134.158276 
L 680.179991 134.258323 
L 689.576956 134.958654 
L 698.457603 134.958654 
L 706.408881 136.059174 
L 711.985102 137.960072 
L 717.251532 142.262104 
L 718.697219 143.562719 
L 726.235443 150.866169 
L 732.534507 156.368768 
L 736.251988 159.070044 
L 737.181358 160.370659 
L 737.284621 162.87184 
L 736.561778 164.072408 
L 734.599774 165.673164 
L 727.784394 169.074771 
L 721.175539 171.976141 
L 717.561322 175.077607 
L 716.941742 179.479686 
L 717.045006 181.88082 
L 717.458059 188.884129 
L 716.838479 203.290935 
L 714.360159 212.295189 
L 713.740579 218.197977 
L 715.083002 226.301805 
L 717.148269 231.904452 
L 726.028917 229.603365 
L 730.262714 245.310786 
L 722.001646 248.612345 
L 717.045006 251.313621 
L 716.115636 251.913905 
L 711.262258 255.01537 
L 705.686038 258.617072 
L 699.5935 264.419813 
L 683.587682 279.126761 
L 682.038732 282.728462 
L 682.451785 287.130542 
L 684.103998 293.03333 
L 684.310525 293.933756 
L 687.511689 308.340561 
L 703.414244 313.643066 
L 707.338251 317.044673 
L 708.887201 322.447226 
L 708.990465 333.25233 
L 708.267621 339.055071 
L 704.756668 343.457151 
L 701.555504 347.559089 
L 698.457603 357.463768 
L 696.392337 373.671425 
L 695.87602 389.678987 
L 694.843386 398.082957 
L 693.500963 403.885698 
L 689.370429 410.188676 
L 685.033369 419.092882 
L 676.462511 419.493071 
L 668.304707 420.793686 
L 662.212169 422.794631 
L 659.320796 424.095245 
L 657.255529 425.896096 
L 657.255529 427.5969 
L 658.081635 429.597845 
L 661.076272 433.79983 
L 662.418696 435.500633 
L 662.625223 437.501579 
L 662.418696 440.202855 
L 659.114269 449.207108 
L 651.885835 466.115096 
L 650.853201 469.61675 
L 650.646675 473.818735 
L 652.195625 477.620531 
L 661.076272 474.819208 
L 662.315433 477.220342 
L 672.848294 485.624312 
L 685.859475 496.32937 
L 690.299799 500.33126 
L 692.055276 504.433198 
L 692.468329 507.834805 
L 692.571593 512.236884 
L 689.060639 522.441705 
L 687.305162 525.443123 
L 684.723579 527.544116 
L 678.321251 528.944777 
L 672.228714 529.94525 
L 668.304707 532.746573 
L 668.304707 536.14818 
L 672.331977 540.150071 
L 679.147358 546.252954 
L 685.343159 552.956121 
L 692.984646 563.761225 
L 699.696764 573.065621 
L 700.109817 573.665904 
L 711.985102 590.673939 
L 720.142906 598.877815 
L 728.817027 604.580509 
L 735.632408 605.580981 
L 740.692312 603.78013 
L 743.170632 602.079327 
L 745.339162 597.677247 
L 745.648952 596.976917 
L 748.437063 593.975499 
L 753.496967 592.574837 
L 755.665497 592.47479 
L 759.589504 593.175121 
L 762.480878 595.476208 
L 775.698586 615.785802 
L 789.535874 636.595633 
L 795.731675 645.699934 
L 799.345892 649.101541 
L 804.405796 650.402155 
L 813.699497 650.001966 
L 824.129095 647.500785 
L 829.705315 644.999603 
L 841.167547 665.909481 
L 843.645867 669.110993 
L 855.830942 678.215294 
L 859.651686 679.816051 
L 874.624871 681.416807 
L 886.500155 683.717894 
L 889.081739 686.319123 
L 891.766586 690.82125 
L 897.342807 714.832593 
L 897.342807 720.835429 
L 893.72859 734.441857 
L 893.831853 743.44611 
L 895.484066 749.448946 
L 913.968205 791.868986 
L 919.337899 800.373003 
L 924.088013 804.274846 
L 935.343718 809.27721 
L 948.148373 816.180471 
L 958.26818 823.583968 
L 967.974935 834.48912 
L 974.996842 849.296115 
L 976.236003 850.796824 
L 978.507796 851.497155 
L 986.97539 851.797297 
L 993.480981 851.797297 
L 999.263729 851.897344 
L 1003.807316 852.697722 
L 1010.209643 854.798714 
L 1015.06302 856.79966 
L 1018.677237 857.199849 
L 1024.976302 856.999754 
L 1030.139469 855.999282 
L 1029.829679 860.901598 
L 1027.661149 864.10311 
L 1020.226188 869.005426 
L 1012.068383 872.607127 
L 989.866764 880.510861 
L 972.105469 886.613744 
L 962.811768 890.915777 
L 960.230184 892.816675 
L 952.898486 898.319274 
L 950.626693 900.520314 
L 945.876579 905.022441 
L 939.267725 913.8266 
L 936.066561 918.428774 
L 933.794768 921.630286 
L 928.528337 924.831799 
L 920.060743 926.63265 
L 901.16355 929.634067 
L 895.174276 931.434918 
L 892.592693 935.636903 
L 894.141643 940.13903 
L 898.272177 944.741204 
L 912.935572 958.247585 
L 914.381259 962.849759 
L 914.484522 967.051744 
L 910.353988 969.552926 
L 895.174276 969.652973 
L 865.434433 965.651082 
L 856.450522 962.549617 
L 828.775945 945.941771 
L 805.335166 933.035674 
L 794.492515 927.33298 
L 785.818394 924.931846 
L 781.06828 924.931846 
L 776.627956 926.732697 
L 772.910475 931.334871 
L 770.019102 936.637376 
L 768.986468 946.842197 
L 768.986468 951.744513 
L 766.095095 957.047018 
L 762.067824 959.14801 
L 754.632863 959.248057 
L 748.230536 957.547254 
L 738.936835 951.244276 
L 719.007009 930.734587 
L 709.300255 923.831326 
L 701.865294 921.430192 
L 688.131269 921.530239 
L 681.832205 923.731279 
L 675.533141 927.933264 
L 667.065546 939.238605 
L 658.701216 947.942717 
L 657.565319 949.143284 
L 650.543411 953.745458 
L 643.521504 955.946498 
L 634.950646 956.346687 
L 624.211258 958.247585 
L 618.944828 960.748766 
L 613.78166 964.65061 
L 612.026183 969.853067 
L 612.129447 975.25562 
L 612.5425 977.456659 
L 614.607767 980.858266 
L 617.602404 982.358975 
L 622.868835 982.659117 
L 630.613586 982.258928 
L 634.124539 982.759164 
L 638.977917 985.660535 
L 650.853201 994.564741 
L 657.152265 999.36701 
L 660.663219 1002.968712 
L 663.141539 1007.77098 
L 663.554593 1010.972493 
L 663.141539 1013.27358 
L 662.418696 1015.174478 
L 660.353429 1017.375518 
L 657.358792 1020.176841 
L 653.641312 1022.978164 
L 648.065091 1026.679913 
L 639.287707 1032.682749 
L 632.162536 1031.081993 
L 621.319884 1029.881425 
L 611.30334 1029.981473 
L 600.873742 1030.381662 
L 598.808475 1030.781851 
L 591.166988 1032.182513 
L 579.601493 1035.684167 
L 569.275158 1041.186766 
L 556.36724 1050.090973 
L 547.073539 1056.694092 
L 539.225525 1062.897022 
L 532.410144 1066.99896 
L 527.04045 1068.699764 
L 519.502226 1069.2 
L 511.860738 1068.899858 
L 503.289881 1067.599244 
L 491.311333 1063.997542 
L 480.158891 1058.995179 
L 471.381507 1053.592627 
L 467.76729 1050.19102 
L 459.402959 1039.786105 
L 448.147254 1028.280669 
L 442.674297 1022.577975 
L 438.853553 1018.476037 
L 436.478496 1015.874809 
L 429.146799 1007.070649 
L 418.923728 990.862993 
L 412.624663 974.955478 
L 410.66266 961.34905 
L 410.66266 953.145174 
L 410.146343 943.340543 
L 410.35287 930.434446 
L 410.66266 924.231515 
L 411.28224 911.325418 
L 413.347507 899.419794 
L 415.722564 886.513697 
L 415.722564 880.010625 
L 415.6193 872.907269 
L 414.99972 864.303204 
L 414.07035 862.002117 
L 411.695293 855.799187 
L 407.151706 850.096493 
L 395.586211 834.989356 
L 388.667567 828.28619 
L 379.683656 820.58255 
L 371.732379 815.179998 
L 361.715834 810.377729 
L 350.46013 807.176217 
L 346.226332 805.97565 
L 337.655475 804.474941 
L 331.769464 804.274846 
L 318.861546 804.374894 
L 308.431948 804.374894 
L 306.469944 804.675035 
L 302.236147 805.175272 
L 296.4534 805.875603 
L 292.322866 807.876548 
L 278.692105 814.879856 
L 269.811457 816.480613 
L 261.963443 817.080896 
L 258.245962 816.080423 
L 255.561115 813.179053 
L 252.876268 803.77461 
L 246.990258 790.468324 
L 237.283503 767.357406 
L 234.082339 757.552774 
L 232.946443 749.148804 
L 233.359496 740.744834 
L 235.424763 734.842046 
L 243.169514 726.338028 
L 243.169514 721.935949 
L 240.381403 706.628717 
L 238.625927 685.918934 
L 238.212873 675.213877 
L 238.006346 668.010474 
L 238.006346 667.310143 
L 237.79982 659.706551 
L 238.72919 653.303526 
L 240.484667 642.19828 
L 240.89772 634.294546 
L 239.245507 625.890576 
L 233.979076 618.487078 
L 226.544115 611.183628 
L 219.625471 607.281785 
L 203.309862 603.479989 
L 152.814087 593.075073 
L 135.982161 586.872143 
L 128.134147 581.469591 
L 120.699186 572.665432 
L 117.394759 568.763588 
L 103.557471 541.250591 
L 95.606193 518.840004 
L 91.269133 501.131638 
L 90.649553 492.227432 
L 90.443026 471.517648 
L 90.856079 467.015521 
L 97.05188 452.708763 
L 104.796631 442.704036 
L 114.709912 435.200492 
L 139.286588 423.094773 
L 144.449756 418.692693 
L 150.12924 411.689385 
L 154.77609 401.284469 
L 156.531567 393.080594 
L 156.428304 387.177805 
L 153.743457 377.87341 
L 149.406396 368.468967 
L 140.938802 358.664335 
L 130.818994 350.360412 
L 108.823901 339.155119 
L 97.774723 333.552472 
L 81.872168 325.048454 
L 61.012972 314.443445 
L 56.159595 309.84127 
L 55.333488 309.541129 
L 51.306218 304.638813 
L 49.860531 298.035693 
L 49.860531 293.533566 
L 52.029061 288.531203 
L 58.018335 279.326855 
L 73.714364 266.820947 
L 88.067969 255.115417 
L 93.3344 250.113054 
L 94.986613 244.310313 
L 94.986613 238.107383 
L 93.127873 233.205067 
L 91.785449 231.504263 
L 82.904802 222.09982 
L 91.062606 209.994102 
L 99.736727 192.986067 
L 72.681731 170.57548 
L 72.784994 157.969525 
L 75.263314 143.462671 
L 79.497111 133.958181 
L 87.654916 117.750525 
L 89.823446 109.846791 
L 90.649553 101.342773 
L 92.818083 98.241308 
L 98.497567 95.740127 
L 103.763997 93.639134 
L 114.709912 93.939276 
L 124.416667 94.639607 
L 143.726912 97.741072 
L 147.341129 99.341828 
L 152.194506 103.443766 
L 154.879353 107.145515 
L 157.357674 112.948256 
L 163.553474 113.248398 
L 203.309862 111.647642 
L 209.608926 115.34939 
L 211.674193 116.549957 
L 223.652741 122.252651 
L 226.234325 123.05303 
L 228.402855 123.05303 
L 229.435489 123.253124 
L 231.087702 121.352226 
L 231.500756 118.050666 
L 230.674649 113.148351 
L 229.642015 107.345609 
L 226.853905 95.339938 
L 225.924535 88.736818 
L 226.234325 77.631572 
L 225.304955 73.029398 
L 223.859268 66.826468 
L 221.380948 62.824577 
L 224.788638 52.419662 
L 228.196329 52.819851 
L 231.707282 55.220985 
L 235.734553 58.122356 
L 238.316136 59.723112 
L 241.000983 58.022308 
L 247.093521 53.019945 
L 248.745734 48.81796 
L 249.158788 43.915644 
L 250.501211 41.014274 
L 252.669742 38.513092 
L 263.099339 33.810871 
L 267.12661 33.010492 
L 269.29514 33.010492 
L 273.941991 36.111958 
L 283.855272 38.21295 
L 288.915176 38.21295 
L 296.659927 32.710351 
L 299.24151 27.207751 
L 308.328685 25.606995 
L 316.176699 26.207279 
L 322.888816 26.707515 
L 325.883453 27.107704 
L 328.671564 27.507893 
L 332.182517 28.308271 
L 335.280418 29.508838 
L 337.035895 31.109594 
L 340.546848 32.710351 
L 344.987172 33.11054 
L 353.351503 31.809925 
L 360.683201 25.907137 
L 363.781101 23.806144 
L 369.563848 23.506002 
L 369.563848 24.406428 
L 370.389955 29.608886 
L 373.074802 32.410209 
L 383.710927 39.813706 
L 390.836098 44.315833 
L 396.102528 46.716968 
L 398.993902 46.716968 
L 403.434226 45.5164 
L 406.222336 43.615502 
L 412.314873 38.913281 
L 423.157525 31.109594 
L 427.184795 26.50742 
L 431.212066 23.806144 
L 443.810194 19.103923 
L 469.62603 12.300709 
L 470.452137 16.802836 
L 472.10435 24.206333 
L 476.854464 27.908082 
L 493.3766 27.007657 
L 506.800834 26.907609 
L 517.850012 29.80898 
L 533.855831 39.413517 
L 538.296155 32.110067 
L 541.084265 25.106759 
L 543.046269 19.003876 
L 545.834379 15.502221 
L 548.725753 12.800945 
L 556.05745 12.000567 
L 564.318518 10.8 
L 563.595674 14.201607 
L 563.595674 15.102032 
L 564.421781 15.802363 
L 569.791475 19.20397 
L 574.231799 21.505057 
L 576.503593 23.005766 
L 580.4276 25.907137 
L 583.732027 28.908555 
L 588.482141 33.310634 
L 591.063724 35.611721 
L 591.786568 36.212005 
L 592.715938 36.412099 
L 593.851835 36.212005 
L 595.504048 35.211532 
L 599.944372 33.210587 
L 606.036909 30.809453 
L 608.51523 30.009075 
L 609.547863 29.909027 
L 610.37397 30.109122 
L 619.977461 36.01191 
L 626.483052 40.013801 
L 626.586315 51.119047 
L 626.689578 55.921316 
L 625.243892 60.023254 
L 624.934102 66.526326 
L 625.347155 70.428169 
L 626.586315 72.329067 
L 629.477689 73.429587 
L 633.504959 72.629209 
L 637.945283 69.927933 
L 641.146447 69.127555 
L 646.929194 69.827885 
L 656.739212 71.428642 
" clip-path="url(#pd07de57acc)"/>
   </g>
  </g>
 </g>
 <defs>
  <clipPath id="pd07de57acc">
   <rect x="49.860531" y="10.8" width="980.278938" height="1058.4"/>
  </clipPath>
 </defs>
</svg>
