<?xml version="1.0" encoding="utf-8" standalone="no"?>
<!DOCTYPE svg PUBLIC "-//W3C//DTD SVG 1.1//EN"
  "http://www.w3.org/Graphics/SVG/1.1/DTD/svg11.dtd">
<svg xmlns:xlink="http://www.w3.org/1999/xlink" width="1080pt" height="1080pt" viewBox="0 0 1080 1080" xmlns="http://www.w3.org/2000/svg" version="1.1">
 <metadata>
  <rdf:RDF xmlns:dc="http://purl.org/dc/elements/1.1/" xmlns:cc="http://creativecommons.org/ns#" xmlns:rdf="http://www.w3.org/1999/02/22-rdf-syntax-ns#">
   <cc:Work>
    <dc:type rdf:resource="http://purl.org/dc/dcmitype/StillImage"/>
    <dc:date>2022-07-01T13:43:24.526068</dc:date>
    <dc:format>image/svg+xml</dc:format>
    <dc:creator>
     <cc:Agent>
      <dc:title>Matplotlib v3.5.1, https://matplotlib.org/</dc:title>
     </cc:Agent>
    </dc:creator>
   </cc:Work>
  </rdf:RDF>
 </metadata>
 <defs>
  <style type="text/css">*{stroke-linejoin: round; stroke-linecap: butt}</style>
 </defs>
 <g id="figure_1">
  <g id="patch_1">
   <path d="M 0 1080 
L 1080 1080 
L 1080 0 
L 0 0 
L 0 1080 
z
" style="fill: none; opacity: 0"/>
  </g>
  <g id="axes_1">
   <g id="PatchCollection_1">
    <path d="M 751.534834 284.080286 
L 757.256517 287.514543 
L 758.568318 287.676791 
L 759.908029 288.488033 
L 761.387294 290.299806 
L 761.833864 292.13862 
L 761.443115 295.383587 
L 761.610579 297.492816 
L 762.447899 299.52092 
L 765.015679 303.090383 
L 768.811527 307.254757 
L 769.676758 309.363986 
L 769.900043 312.473746 
L 770.541988 314.339601 
L 772.802751 317.61161 
L 775.677548 320.018293 
L 779.557129 322.587225 
L 782.264462 324.344916 
L 783.576263 325.778109 
L 784.525225 327.752131 
L 784.971795 329.780235 
L 785.753293 330.618518 
L 786.925541 330.780766 
L 787.120915 333.052243 
L 788.097788 334.052775 
L 791.056317 335.161472 
L 795.215005 337.64928 
L 797.782785 340.055963 
L 801.801918 343.165723 
L 804.090592 344.652999 
L 805.318661 345.680572 
L 805.625678 348.844415 
L 807.384049 353.928196 
L 808.556296 355.821094 
L 809.784365 356.578252 
L 810.733327 357.551742 
L 811.040344 358.687481 
L 810.84497 361.851323 
L 810.84497 363.960552 
L 811.459004 367.746346 
L 811.738111 369.422913 
L 813.189465 370.017823 
L 814.501265 370.180072 
L 816.008441 370.15303 
L 816.929492 370.071906 
L 817.822633 370.261196 
L 818.799506 370.829065 
L 820.334592 371.613265 
L 821.478928 371.964803 
L 822.483712 372.505631 
L 823.488495 373.370956 
L 824.911939 374.939356 
L 826.223739 376.507757 
L 827.200612 377.886868 
L 828.512413 378.535861 
L 830.270784 379.238937 
L 831.080193 380.104262 
L 831.470942 381.645621 
L 831.108103 384.94467 
L 830.745265 390.109576 
L 831.38721 391.35348 
L 832.6711 392.299928 
L 834.122454 392.408094 
L 835.294701 391.596852 
L 837.415911 390.37999 
L 838.950997 390.028452 
L 840.262797 390.136617 
L 840.876832 390.56928 
L 841.993258 392.029515 
L 842.579381 393.462708 
L 843.639986 396.653592 
L 844.812234 401.304711 
L 846.403141 406.577782 
L 847.268371 408.659969 
L 848.356887 410.769198 
L 849.36167 414.149371 
L 850.115258 415.528482 
L 851.427058 416.718304 
L 853.464536 418.665284 
L 854.91589 421.017885 
L 857.288295 423.45161 
L 860.07936 425.912376 
L 861.530714 427.751191 
L 863.596103 430.07675 
L 863.958941 430.482371 
L 866.331347 431.807399 
L 868.368824 432.321185 
L 870.824962 434.16 
L 873.281099 435.566152 
L 875.45813 436.134021 
L 877.830535 436.134021 
L 880.705333 435.863608 
L 883.273113 435.620235 
L 885.561786 435.91769 
L 887.85046 436.728932 
L 888.408673 438.486622 
L 889.497188 440.163189 
L 891.032274 441.920879 
L 891.562576 443.218866 
L 893.404679 444.814308 
L 894.604837 445.517384 
L 895.944549 445.923005 
L 897.479635 446.058212 
L 900.68936 446.328625 
L 902.559373 446.869453 
L 903.619978 447.788861 
L 904.457298 449.952172 
L 905.713277 453.927256 
L 906.801792 455.117077 
L 908.560164 455.387491 
L 911.295407 454.657374 
L 916.626342 453.251221 
L 921.25951 451.926193 
L 926.311338 450.438917 
L 932.36795 447.97815 
L 934.014678 451.493531 
L 935.689318 454.954829 
L 937.029029 458.145713 
L 938.285008 461.444762 
L 939.680541 463.391742 
L 941.941304 464.554522 
L 944.453262 465.419847 
L 947.579255 466.663751 
L 949.393448 467.82653 
L 950.370321 469.124517 
L 951.6263 474.181257 
L 952.435709 476.993562 
L 953.691688 478.507879 
L 955.617523 479.670659 
L 956.594396 481.374267 
L 957.320073 485.078937 
L 957.096788 486.782545 
L 956.31529 487.783076 
L 954.668561 488.83769 
L 953.691688 490.027511 
L 952.714815 492.13674 
L 951.570479 494.732713 
L 949.309716 500.600695 
L 947.579255 505.143648 
L 946.239544 507.90187 
L 945.178939 510.065181 
L 943.225194 512.120327 
L 940.182933 514.256597 
L 937.587242 516.392867 
L 935.3823 517.853102 
L 934.544981 518.79955 
L 934.544981 520.205703 
L 935.884692 521.665938 
L 937.977991 523.721083 
L 939.848005 525.613981 
L 941.494733 526.019601 
L 943.336836 525.884394 
L 944.732369 526.641553 
L 945.848795 528.047706 
L 945.932527 529.778355 
L 945.318493 531.536045 
L 943.783407 535.159591 
L 942.1925 537.512192 
L 940.015469 540.648993 
L 938.815311 542.866387 
L 937.475599 544.894492 
L 936.247531 547.598631 
L 933.512287 550.654308 
L 931.08406 554.19673 
L 928.237173 557.198324 
L 926.255517 559.037138 
L 925.613572 560.389208 
L 924.943716 562.390271 
L 923.464452 565.770445 
L 923.101613 567.906714 
L 923.324899 569.988901 
L 924.050576 571.611385 
L 926.478802 573.477241 
L 929.186136 574.531855 
L 931.307345 574.937476 
L 934.768266 574.82931 
L 937.698885 573.801737 
L 939.62472 573.612448 
L 941.215627 573.963986 
L 942.304142 574.423689 
L 943.811317 574.450731 
L 945.62551 573.909903 
L 948.277022 572.990496 
L 952.854369 572.801206 
L 955.087221 573.369075 
L 956.566485 574.396648 
L 957.906197 577.695697 
L 959.162176 581.724865 
L 961.171743 586.781604 
L 962.511454 588.566336 
L 964.88386 591.730179 
L 967.730746 595.164435 
L 970.326437 598.003781 
L 969.656581 597.841533 
L 966.474767 600.004844 
L 961.03219 603.574308 
L 959.106355 606.170281 
L 958.352767 610.091283 
L 958.073661 618.230741 
L 957.403805 620.312928 
L 956.399022 621.502749 
L 953.049743 622.719612 
L 950.621517 623.044108 
L 947.914183 622.854819 
L 946.658204 623.179315 
L 945.820884 624.369136 
L 945.039386 626.748779 
L 944.034603 627.74931 
L 942.415785 628.317179 
L 937.391867 629.507001 
L 933.484376 629.777414 
L 928.348816 629.452918 
L 922.431758 628.181972 
L 916.737985 626.397241 
L 910.178981 624.342095 
L 906.494775 623.287481 
L 905.880741 623.179315 
L 902.894301 622.746653 
L 898.98681 622.557363 
L 895.888727 621.773163 
L 891.925415 619.934348 
L 889.078528 617.82512 
L 885.087305 614.661277 
L 881.486831 612.660215 
L 878.946961 611.308145 
L 877.328144 609.793827 
L 876.239628 607.251937 
L 875.430219 603.141645 
L 874.230061 600.085968 
L 873.001992 597.571119 
L 871.327353 595.380766 
L 869.094501 592.622545 
L 867.029113 590.945979 
L 865.326563 590.269944 
L 863.344907 589.864323 
L 860.749216 589.864323 
L 859.381594 589.566868 
L 857.958151 588.83675 
L 856.813814 588.485212 
L 855.502014 588.728585 
L 854.91589 589.512785 
L 854.134392 590.378109 
L 853.157519 590.756689 
L 852.292288 590.621482 
L 850.561828 589.837282 
L 849.166295 589.702075 
L 848.021959 590.026571 
L 846.738069 591.351599 
L 845.09134 594.001656 
L 844.142378 596.786919 
L 843.639986 599.491058 
L 842.607292 600.816086 
L 840.402351 601.789576 
L 837.136804 603.330935 
L 835.852914 604.385549 
L 835.713361 606.548861 
L 835.741272 609.84791 
L 836.159931 612.633173 
L 836.187842 612.849504 
L 836.578591 614.688319 
L 837.499643 615.986306 
L 839.453388 617.176127 
L 841.909526 618.447072 
L 843.528344 620.258845 
L 846.151945 623.936474 
L 847.296282 626.316117 
L 847.435835 629.236587 
L 846.598515 631.183567 
L 845.705375 632.697885 
L 845.537911 633.941788 
L 846.096124 635.320899 
L 849.082563 638.484742 
L 850.924667 639.944977 
L 853.520357 641.486336 
L 854.357677 642.811364 
L 854.525141 644.650179 
L 853.994838 648.490056 
L 853.045876 652.194727 
L 852.180646 653.168217 
L 849.389581 654.412121 
L 846.542694 656.169811 
L 842.886399 659.549985 
L 839.565031 664.092938 
L 837.778749 666.229208 
L 827.479719 677.424343 
L 821.785946 683.535697 
L 818.604131 686.942913 
L 814.808282 690.214921 
L 812.854537 692.107818 
L 811.933485 694.000715 
L 811.598557 697.78651 
L 811.542736 700.544732 
L 810.900791 702.221298 
L 808.891224 705.033602 
L 807.104942 706.710169 
L 804.788358 708.224486 
L 803.113719 710.279632 
L 801.327437 713.822054 
L 799.792352 715.714951 
L 798.340998 716.931814 
L 796.554716 717.553766 
L 794.824255 717.688973 
L 793.652008 718.175718 
L 792.284386 720.447195 
L 790.442283 724.016658 
L 789.353768 726.179969 
L 789.297946 727.856536 
L 790.051534 729.289729 
L 792.00528 732.02091 
L 792.591403 734.184221 
L 792.423939 738.051139 
L 790.051534 738.727174 
L 789.688695 738.754216 
L 785.557919 739.186878 
L 782.543568 739.349126 
L 781.008483 739.700664 
L 779.333843 740.187409 
L 776.319493 740.349658 
L 772.579466 739.592499 
L 768.05794 738.862381 
L 763.285218 738.051139 
L 760.856992 737.212856 
L 758.596229 735.374042 
L 757.200696 734.400552 
L 756.112181 734.157179 
L 754.688737 734.454635 
L 752.120957 736.88836 
L 749.497356 738.294512 
L 748.018092 738.619009 
L 746.845844 738.240429 
L 745.282848 737.239898 
L 743.636119 737.239898 
L 739.644896 737.970015 
L 734.900085 739.592499 
L 731.048415 740.863444 
L 729.373776 742.431845 
L 728.006154 745.433439 
L 727.308388 747.867164 
L 726.331515 749.192192 
L 724.238216 750.192724 
L 720.442367 751.707041 
L 717.511749 752.977987 
L 712.655295 753.599939 
L 703.137763 754.762718 
L 699.565199 756.114788 
L 696.215921 758.656679 
L 694.122622 762.658804 
L 692.755 765.552233 
L 691.47111 767.174716 
L 690.801254 767.688503 
L 685.944801 767.661461 
L 684.353894 765.930812 
L 683.823591 765.173654 
L 683.739859 764.497619 
L 684.102698 763.92975 
L 685.330766 763.388922 
L 686.78212 762.712887 
L 688.010189 761.901645 
L 688.763777 760.711824 
L 688.735866 760.035789 
L 688.512581 759.630169 
L 687.451976 759.522003 
L 684.102698 759.8465 
L 682.539701 760.035789 
L 681.953578 760.306203 
L 681.590739 761.171528 
L 681.060437 762.226142 
L 680.390581 762.57768 
L 678.939227 762.902177 
L 678.548478 763.226673 
L 677.76698 763.388922 
L 676.818018 763.253715 
L 674.836361 762.983301 
L 672.938437 762.76697 
L 671.37544 762.090935 
L 669.142588 760.901114 
L 666.518987 758.305141 
L 664.95599 757.575023 
L 664.09076 757.737271 
L 663.22553 758.196975 
L 662.695227 758.900051 
L 661.132231 761.685314 
L 658.983111 764.768033 
L 658.983111 765.552233 
L 659.401771 766.228268 
L 660.211179 767.147675 
L 660.65775 767.63442 
L 661.718355 769.040572 
L 661.913729 770.257435 
L 661.718355 771.285008 
L 661.188052 771.988084 
L 658.53654 774.773347 
L 656.303688 776.314706 
L 653.540534 777.720858 
L 651.028575 778.261686 
L 647.511833 778.586183 
L 641.120293 778.586183 
L 640.645812 778.613224 
L 638.440871 778.748431 
L 637.854747 779.154052 
L 637.54773 779.803045 
L 637.408176 780.424997 
L 637.54773 781.344405 
L 638.217585 782.155646 
L 639.501475 783.264343 
L 642.069255 784.400082 
L 643.408967 784.994992 
L 644.162554 785.616944 
L 644.664946 786.374103 
L 644.469572 788.970077 
L 643.827627 790.268063 
L 643.715984 790.430312 
L 643.520609 790.565519 
L 639.641029 795.595217 
L 630.849173 813.172121 
L 624.848383 826.882105 
L 622.699263 825.908615 
L 620.047751 823.988677 
L 616.893847 821.879448 
L 611.088431 818.986019 
L 609.246328 819.77022 
L 607.432136 821.392703 
L 605.785407 823.988677 
L 602.631504 828.017844 
L 600.956865 830.749024 
L 593.47681 843.188063 
L 591.997545 844.621257 
L 589.680961 845.108002 
L 585.35481 842.701318 
L 582.535834 841.890077 
L 577.567738 841.727828 
L 559.956116 850.597404 
L 557.304604 852.706633 
L 555.155484 853.031129 
L 554.485629 853.031129 
L 524.425856 830.127072 
L 520.462543 827.36885 
L 516.638784 824.313173 
L 513.317416 820.284006 
L 509.158729 817.525784 
L 504.525561 816.092591 
L 499.36209 815.281349 
L 482.25286 818.986019 
L 480.606132 819.337557 
L 477.396407 819.797261 
L 476.140428 819.986551 
L 472.316668 821.581993 
L 467.655589 824.177966 
L 466.650806 826.206071 
L 466.343789 828.693878 
L 466.678716 834.021032 
L 467.571857 840.348717 
L 467.850964 842.403863 
L 468.018428 847.731017 
L 466.84618 849.515749 
L 465.031988 850.164742 
L 462.017637 850.110659 
L 460.705837 849.975452 
L 460.119713 850.083618 
L 459.5615 850.462197 
L 458.193878 852.057639 
L 456.854167 853.707164 
L 455.933115 855.275565 
L 455.681919 856.005682 
L 455.29117 857.682248 
L 454.788779 859.818518 
L 454.230566 861.981829 
L 453.56071 862.901237 
L 452.388462 863.577271 
L 449.513665 864.33443 
L 447.615741 864.145141 
L 446.080655 863.955851 
L 445.131693 863.469106 
L 442.731377 861.41396 
L 439.940312 859.385856 
L 437.958655 858.141952 
L 436.284016 857.303669 
L 434.023253 856.276096 
L 432.236972 855.708227 
L 430.646064 855.356689 
L 429.362174 855.140358 
L 428.971425 855.19444 
L 428.496944 855.491896 
L 428.189927 855.76231 
L 426.906037 858.845028 
L 426.319913 860.44047 
L 426.012896 860.927215 
L 425.677968 861.386919 
L 425.426772 861.495084 
L 425.091845 861.630291 
L 424.394078 861.576208 
L 423.221831 860.737925 
L 422.32869 860.25118 
L 421.351817 860.170056 
L 420.570319 860.25118 
L 419.230608 860.683843 
L 416.634917 862.144078 
L 415.155652 863.225733 
L 414.513707 863.982892 
L 414.178779 865.362003 
L 414.374154 867.2549 
L 414.513707 868.309515 
L 414.429975 869.607501 
L 414.039226 870.635074 
L 413.704298 871.202943 
L 413.006532 871.689688 
L 412.113391 871.770812 
L 410.35502 871.473357 
L 408.289632 870.797322 
L 406.028869 870.040164 
L 400.0839 867.741645 
L 391.208313 863.874727 
L 389.115014 863.036444 
L 387.300821 862.38745 
L 386.37977 862.19816 
L 381.66287 861.468043 
L 377.42045 861.035381 
L 374.964313 861.22467 
L 372.843103 861.657333 
L 370.414877 862.19816 
L 368.963523 862.035912 
L 366.591117 860.846091 
L 365.446781 860.034849 
L 364.107069 859.034318 
L 363.074375 858.277159 
L 362.237056 858.141952 
L 361.511379 858.331242 
L 361.371825 858.520531 
L 359.725097 861.116505 
L 358.273743 863.766561 
L 356.989853 866.146203 
L 355.371035 869.20188 
L 354.31043 872.50093 
L 354.115056 873.555544 
L 354.226698 874.853531 
L 354.589537 877.909208 
L 354.477894 879.666898 
L 353.975502 881.26234 
L 353.277736 882.8037 
L 352.133399 885.291507 
L 351.910114 885.886418 
L 350.375028 888.184936 
L 349.202781 889.401799 
L 347.221125 891.429903 
L 346.774554 891.727358 
L 345.072004 892.863097 
L 343.536919 893.998835 
L 342.029743 895.188656 
L 341.611084 895.513153 
L 341.05287 896.486643 
L 340.466747 897.514216 
L 340.327194 898.893327 
L 340.801675 900.353562 
L 342.476314 904.626101 
L 343.509008 908.790475 
L 344.290506 912.549228 
L 344.402149 913.495677 
L 344.681255 916.09165 
L 344.318417 919.471824 
L 343.536919 923.636198 
L 342.001833 929.801635 
L 340.969139 935.615534 
L 340.075998 940.023281 
L 339.378231 941.970261 
L 338.345537 942.484047 
L 336.280149 942.619254 
L 334.996259 943.105999 
L 333.963565 943.998365 
L 333.712369 945.134103 
L 333.851922 946.756587 
L 336.950005 950.299009 
L 339.127035 953.192437 
L 339.796891 955.1935 
L 339.406142 957.70835 
L 336.977915 963.008462 
L 335.359097 965.847808 
L 333.935654 967.118753 
L 333.293709 967.740705 
L 331.116678 969.309106 
L 330.949214 969.39023 
L 329.274575 970.228513 
L 327.906953 971.310169 
L 326.03694 973.230107 
L 324.976335 975.014839 
L 324.473943 975.690874 
L 323.524981 976.502115 
L 322.576019 976.691405 
L 321.068843 976.772529 
L 320.315256 976.664364 
L 319.143008 976.231702 
L 317.607923 975.285253 
L 316.184479 974.203597 
L 314.119091 972.175493 
L 311.969971 970.36372 
L 310.65817 969.795851 
L 309.513833 969.849934 
L 309.011442 970.17443 
L 308.843978 970.580051 
L 308.704424 971.120879 
L 308.592782 971.932121 
L 308.536961 972.68928 
L 308.592782 974.609218 
L 308.369497 976.042412 
L 307.839194 977.17815 
L 307.22516 978.070516 
L 306.527394 978.692468 
L 304.462005 979.774124 
L 302.731545 980.504241 
L 301.643029 980.990986 
L 300.498693 981.964476 
L 299.745105 983.181339 
L 299.465999 984.830864 
L 299.745105 990.185059 
L 300.024212 991.780501 
L 299.912569 993.159612 
L 299.605552 994.403516 
L 297.930913 996.458661 
L 293.158191 999.1628 
L 290.199662 1000.190373 
L 287.352775 1001.055697 
L 283.110356 1001.893981 
L 278.812116 1001.434277 
L 276.970013 1001.136822 
L 270.773848 999.649545 
L 268.513085 998.865345 
L 266.615161 997.972979 
L 265.889484 997.459193 
L 264.493951 997.02653 
L 263.684542 997.21582 
L 263.014687 997.621441 
L 261.674975 998.865345 
L 260.753924 1000.001083 
L 259.051374 1006.031313 
L 258.074501 1006.842555 
L 256.818522 1007.410424 
L 254.222831 1007.248176 
L 251.459677 1005.923148 
L 249.561752 1005.247113 
L 247.161436 1005.084865 
L 244.035443 1005.084865 
L 243.533051 1005.274154 
L 243.170213 1005.598651 
L 242.919017 1006.5451 
L 243.002749 1007.951252 
L 244.31455 1014.414144 
L 246.993972 1024.013838 
L 246.993972 1026.123066 
L 246.017099 1027.258804 
L 244.677388 1027.421053 
L 243.89589 1027.421053 
L 242.807374 1027.421053 
L 240.965271 1027.529218 
L 238.732419 1027.529218 
L 236.862405 1028.448625 
L 234.824928 1030.611937 
L 231.308186 1034.587021 
L 225.753966 1037.696781 
L 221.846475 1039.860092 
L 214.450152 1042.780562 
L 209.25877 1045.133163 
L 206.467705 1048.756709 
L 206.300241 1051.839428 
L 206.495616 1054.192029 
L 206.858454 1058.167113 
L 206.495616 1060.519714 
L 205.769939 1061.601369 
L 201.862447 1064.494798 
L 200.215719 1066.685151 
L 199.657506 1069.2 
L 198.010777 1067.388227 
L 197.285101 1066.522902 
L 195.889568 1064.116219 
L 195.13598 1060.303383 
L 194.717321 1053.380787 
L 195.917479 1044.808666 
L 194.577767 1028.719039 
L 191.451774 1020.95816 
L 190.726097 1017.415738 
L 179.478104 1018.930056 
L 164.74128 1021.688278 
L 160.777967 1022.824016 
L 158.656758 1022.986265 
L 146.962194 1022.769934 
L 145.008449 1020.714788 
L 142.524401 1017.469821 
L 129.797143 1004.814451 
L 127.341006 1003.110843 
L 126.615329 1001.569484 
L 126.615329 999.35209 
L 127.843398 997.107655 
L 128.541164 995.566295 
L 131.164765 989.373817 
L 131.164765 985.777312 
L 130.606552 982.018559 
L 130.411178 976.529157 
L 131.471782 971.715789 
L 132.699851 969.309106 
L 134.458222 968.60603 
L 137.444662 968.957568 
L 140.626476 969.119816 
L 142.747686 969.119816 
L 143.78038 968.254492 
L 144.310682 966.713132 
L 144.840985 962.5758 
L 144.813074 959.682371 
L 143.947844 957.951722 
L 142.524401 956.761901 
L 139.705425 956.085866 
L 133.872099 955.085335 
L 125.750099 952.002616 
L 121.340216 949.785222 
L 116.762869 947.054042 
L 112.157611 944.160613 
L 110.036401 941.077895 
L 109.673563 938.671211 
L 110.203865 935.426244 
L 111.431934 932.343526 
L 117.014065 920.310107 
L 121.228573 912.062483 
L 123.852174 908.276689 
L 128.262057 902.787287 
L 129.852965 901.137762 
L 130.299535 900.542851 
L 130.327446 899.893858 
L 128.401611 894.891201 
L 128.401611 894.025876 
L 129.797143 892.322269 
L 132.253281 889.915585 
L 134.541954 888.022688 
L 140.012442 887.319612 
L 140.905583 886.778784 
L 142.831418 884.3721 
L 147.715782 871.500399 
L 151.762827 865.145672 
L 153.270002 862.901237 
L 154.665534 859.65627 
L 156.479727 856.600593 
L 158.489294 853.43675 
L 160.526771 850.191783 
L 161.224538 845.729954 
L 160.694235 841.944159 
L 161.475734 833.453163 
L 162.759624 829.261748 
L 163.987692 826.855064 
L 163.987692 823.961635 
L 163.792318 820.175841 
L 162.368874 811.955258 
L 161.615287 808.142422 
L 156.870476 799.110598 
L 152.069844 792.242085 
L 151.372077 790.024691 
L 151.009239 786.265938 
L 151.344167 783.507716 
L 152.572236 781.966357 
L 156.088978 777.315238 
L 158.545115 774.043229 
L 160.833789 770.960511 
L 163.624854 767.904834 
L 163.820228 766.66093 
L 164.127246 764.064957 
L 164.183067 758.413306 
L 164.797101 757.547982 
L 165.550689 757.412775 
L 167.616077 757.412775 
L 168.676682 757.277568 
L 169.87684 756.439285 
L 171.216551 755.006091 
L 172.612084 751.382545 
L 172.807458 747.137046 
L 172.528352 743.70279 
L 171.663122 740.511906 
L 171.691032 738.321553 
L 172.500441 732.102034 
L 172.360888 730.506592 
L 172.081781 729.046357 
L 171.495658 727.883577 
L 170.937445 726.856004 
L 170.937445 725.855473 
L 171.384015 724.395238 
L 173.365671 721.52885 
L 174.426276 720.230864 
L 175.45897 719.798201 
L 176.352111 719.662994 
L 179.924675 720.284946 
L 181.543493 720.311988 
L 182.743651 720.014532 
L 184.111273 718.446132 
L 186.065018 716.147614 
L 187.8513 714.579213 
L 190.112063 713.281226 
L 191.144757 713.146019 
L 192.037898 713.308268 
L 192.484468 713.605723 
L 194.828963 715.958324 
L 196.447781 717.418559 
L 197.340922 718.283883 
L 197.759582 719.311456 
L 198.485259 721.637016 
L 198.764365 723.827368 
L 199.322578 725.42281 
L 199.629595 726.152928 
L 200.494826 726.883045 
L 202.448571 727.477956 
L 204.513959 727.802453 
L 205.993224 727.504997 
L 207.639953 726.369259 
L 208.39354 725.80139 
L 209.900715 725.666183 
L 211.212516 726.558549 
L 212.552227 727.721329 
L 214.757169 728.775943 
L 216.236433 729.370853 
L 218.022715 729.100439 
L 218.915856 728.53257 
L 220.143925 726.937128 
L 220.897512 724.63861 
L 221.23244 720.717609 
L 220.450942 712.740399 
L 220.590495 711.280164 
L 221.511547 709.549515 
L 223.158275 707.548452 
L 224.525897 705.95301 
L 225.586502 704.682064 
L 228.48921 698.029882 
L 229.410261 694.86604 
L 228.321746 685.861257 
L 228.628763 684.698477 
L 229.410261 682.372918 
L 230.470866 679.209075 
L 230.973258 675.720736 
L 230.833705 673.124762 
L 231.754756 670.528789 
L 232.815361 669.230802 
L 233.736412 667.797609 
L 236.471656 662.010751 
L 236.778674 661.01022 
L 236.778674 660.280102 
L 236.360014 659.414778 
L 235.466873 658.387205 
L 234.462089 656.332059 
L 234.462089 654.898866 
L 234.93657 653.736086 
L 235.969265 653.168217 
L 237.615993 652.600347 
L 239.458096 651.599816 
L 239.988399 651.031947 
L 240.658254 650.328871 
L 240.90945 649.896208 
L 243.03066 646.732366 
L 243.951711 644.839469 
L 243.979622 642.54095 
L 243.700515 640.945508 
L 244.007532 639.485273 
L 244.482014 638.187287 
L 245.375154 637.186755 
L 246.742776 635.591313 
L 247.189347 634.293327 
L 247.245168 630.66978 
L 247.552185 628.641676 
L 248.16622 627.208482 
L 250.119965 625.045171 
L 250.734 623.044108 
L 250.76191 621.448666 
L 249.89668 619.988431 
L 248.417416 618.365948 
L 245.905457 616.446009 
L 245.040227 615.148022 
L 244.900673 613.390332 
L 244.928584 611.227021 
L 244.649477 609.334124 
L 244.509924 607.738682 
L 244.398282 606.278447 
L 243.505141 604.385549 
L 242.63991 603.087563 
L 241.021093 601.897741 
L 240.741986 600.734962 
L 240.741986 599.869637 
L 241.35602 599.166561 
L 242.556179 598.598692 
L 243.89589 597.435912 
L 244.202907 596.137925 
L 244.76112 594.67769 
L 245.20769 593.082248 
L 245.821725 591.94651 
L 246.826508 591.459765 
L 247.831292 591.108227 
L 250.231608 590.702606 
L 251.571319 590.269944 
L 254.250742 588.701543 
L 256.511505 586.997936 
L 258.325697 585.699949 
L 259.386302 583.536638 
L 260.279443 581.968237 
L 259.553766 580.372795 
L 258.381518 578.452856 
L 257.069718 576.559959 
L 256.064934 575.261972 
L 255.925381 573.504282 
L 256.846433 569.907777 
L 258.102412 565.851569 
L 260.530639 559.929504 
L 262.372742 555.738089 
L 263.293793 552.871702 
L 263.489168 549.951231 
L 263.517078 546.327685 
L 263.489168 539.323965 
L 263.489168 535.889709 
L 263.656632 534.591722 
L 264.43813 533.455984 
L 267.285016 531.157466 
L 269.071298 528.507409 
L 270.271456 528.101788 
L 270.662205 526.911967 
L 270.494741 523.288421 
L 269.601601 518.664343 
L 268.624728 515.500501 
L 268.596817 512.120327 
L 268.931745 508.659029 
L 268.680549 505.495187 
L 267.675766 504.170158 
L 263.796185 503.196668 
L 258.939731 502.655841 
L 253.497154 502.142054 
L 248.836075 502.033889 
L 245.737993 501.736433 
L 243.756337 500.871109 
L 243.505141 499.14046 
L 245.737993 496.003659 
L 250.929374 492.758692 
L 254.808955 489.513725 
L 256.902254 486.701421 
L 257.209271 483.672785 
L 256.31613 480.454859 
L 253.218048 475.506285 
L 251.292213 471.693449 
L 247.719649 467.556117 
L 245.486797 465.528012 
L 241.411842 463.905529 
L 236.471656 460.390148 
L 234.517911 459.25441 
L 233.401485 457.631926 
L 233.401485 457.415595 
L 233.317753 455.603822 
L 234.685375 452.223648 
L 238.118385 448.573061 
L 242.556179 446.382708 
L 244.202907 444.760225 
L 244.509924 442.732121 
L 244.509924 440.271354 
L 245.486797 439.135616 
L 249.115182 437.432008 
L 253.552976 435.160531 
L 256.344041 433.294676 
L 258.102412 430.590537 
L 259.637498 427.886398 
L 265.694109 423.85723 
L 269.434137 421.369423 
L 272.867147 417.583628 
L 275.57448 413.581502 
L 277.667779 411.715646 
L 281.240343 410.147246 
L 284.031408 408.687011 
L 287.408597 407.010445 
L 290.367126 403.765478 
L 291.455641 401.169504 
L 291.483552 400.30418 
L 291.567284 396.437261 
L 290.590411 390.812652 
L 288.608755 385.161002 
L 287.296954 382.348697 
L 285.929332 381.753786 
L 282.189305 381.943076 
L 279.537793 381.943076 
L 277.611958 381.104793 
L 275.379106 378.833316 
L 273.090432 376.615922 
L 271.611168 375.912846 
L 268.345621 375.858763 
L 266.14068 375.858763 
L 263.489168 375.263853 
L 260.084068 373.533204 
L 256.73479 371.856638 
L 254.446116 369.693327 
L 251.794604 366.232029 
L 250.371161 363.284517 
L 249.561752 358.741564 
L 248.249952 356.632335 
L 246.296206 355.983342 
L 242.081697 355.739969 
L 238.202117 356.010383 
L 234.93657 356.361921 
L 232.647897 355.469555 
L 230.861615 353.441451 
L 228.93578 350.683229 
L 227.149498 347.925008 
L 225.837698 346.789269 
L 224.497986 346.302524 
L 221.6511 345.545365 
L 219.557801 343.733592 
L 216.96211 341.54324 
L 214.031492 338.785018 
L 213.11044 336.621707 
L 213.11044 334.16094 
L 213.891939 332.349167 
L 214.505973 329.050118 
L 214.087313 326.967931 
L 213.026708 325.453613 
L 210.431018 323.425508 
L 206.356063 319.774921 
L 204.374406 317.854982 
L 204.430227 316.665161 
L 205.714118 315.826878 
L 209.342502 315.691671 
L 211.519533 315.448298 
L 212.496406 314.12327 
L 212.133568 312.798242 
L 210.626392 311.256883 
L 208.365629 309.985938 
L 206.439794 307.30884 
L 205.127994 303.279673 
L 204.988441 300.521451 
L 206.411884 297.033112 
L 208.561004 293.328441 
L 210.207733 291.516668 
L 213.668653 290.299806 
L 218.720481 289.569688 
L 223.35365 289.569688 
L 227.986818 289.731937 
L 230.945347 288.947736 
L 232.843272 287.974246 
L 236.136729 286.459928 
L 242.221251 281.835851 
L 247.161436 277.995973 
L 250.901464 275.886745 
L 253.859993 273.047399 
L 257.265092 271.424916 
L 259.777051 271.668288 
L 263.126329 272.858109 
L 267.089642 274.886214 
L 270.131903 277.022483 
L 274.011484 279.537333 
L 278.225992 281.457271 
L 281.99393 283.972121 
L 284.784995 285.70277 
L 287.296954 286.000225 
L 289.334432 285.865018 
L 290.757875 285.080818 
L 290.813696 282.674134 
L 291.539373 277.292897 
L 293.828047 273.669351 
L 296.032988 271.938702 
L 298.572858 271.50604 
L 302.647813 272.749944 
L 304.741112 273.290772 
L 307.448445 273.047399 
L 310.434885 273.290772 
L 312.137435 272.560654 
L 314.119091 270.289177 
L 314.370287 268.612611 
L 312.751469 264.637527 
L 310.965187 261.608891 
L 307.922926 258.634338 
L 305.07604 254.686295 
L 299.131071 245.870802 
L 298.824054 243.410036 
L 304.071256 238.24513 
L 310.155778 233.729218 
L 314.119091 232.512356 
L 315.291338 230.592417 
L 315.34716 228.618396 
L 314.481929 226.509167 
L 311.746686 221.831007 
L 308.95562 219.235033 
L 306.248287 216.612018 
L 305.885449 215.043618 
L 306.918143 213.71859 
L 309.37428 212.772141 
L 311.607132 212.096106 
L 314.174912 211.014451 
L 316.351943 208.742974 
L 316.965978 206.877118 
L 316.714782 205.714338 
L 316.100747 204.659724 
L 315.933283 203.388779 
L 316.993888 201.901502 
L 317.524191 200.68464 
L 317.217173 199.738191 
L 316.100747 199.008074 
L 313.812074 198.467246 
L 312.500273 198.088666 
L 311.328026 197.223342 
L 310.406974 195.709024 
L 308.816067 191.54465 
L 307.615909 188.461932 
L 306.973964 186.001165 
L 305.969181 184.35164 
L 303.485132 181.377087 
L 301.028995 177.374962 
L 298.712411 174.346326 
L 295.530597 171.452897 
L 292.460425 168.992131 
L 289.27861 167.342606 
L 287.631882 166.152785 
L 287.408597 165.341543 
L 287.380686 164.286929 
L 287.576061 163.989474 
L 288.218006 163.637936 
L 289.753092 163.692018 
L 294.38626 161.58279 
L 294.637456 161.420542 
L 294.749098 161.204211 
L 294.860741 160.771548 
L 294.80492 160.311845 
L 294.246707 159.25723 
L 294.079243 158.85161 
L 293.9676 158.445989 
L 294.162975 157.824037 
L 294.442081 157.553623 
L 294.916562 157.256168 
L 295.307311 157.066878 
L 295.67015 156.958712 
L 295.977167 156.931671 
L 296.228363 156.958712 
L 297.344789 157.769954 
L 298.042555 158.47303 
L 300.247497 161.609831 
L 300.777799 161.58279 
L 301.559297 161.204211 
L 303.875882 159.040899 
L 307.113517 156.444926 
L 308.062479 156.147471 
L 310.965187 155.417353 
L 311.411758 155.417353 
L 314.035359 154.876525 
L 314.286555 153.930077 
L 314.314466 153.254042 
L 314.06327 152.767297 
L 313.449235 151.901972 
L 312.304899 149.765703 
L 312.472363 148.143219 
L 313.086397 146.953398 
L 313.672521 146.142156 
L 314.035359 146.006949 
L 314.370287 146.061032 
L 315.012232 146.682984 
L 315.34716 146.926357 
L 315.849551 146.953398 
L 320.315256 145.303873 
L 321.76661 144.303342 
L 322.492287 143.627307 
L 322.548108 143.329852 
L 322.520197 142.951272 
L 322.157359 142.653817 
L 321.180486 142.626776 
L 320.091971 142.761983 
L 318.863902 143.194645 
L 318.221957 143.275769 
L 317.803297 143.167603 
L 317.245084 142.599734 
L 316.65896 141.815534 
L 316.100747 140.706837 
L 315.737909 139.571099 
L 315.737909 138.786898 
L 316.044926 137.678201 
L 315.933283 136.569504 
L 313.784163 129.755074 
L 313.756253 128.159632 
L 313.421325 123.021768 
L 313.560878 120.588043 
L 313.588789 118.722187 
L 313.532967 118.154318 
L 313.393414 117.775738 
L 311.802507 115.47722 
L 310.881455 109.582197 
L 310.518617 105.958651 
L 310.183689 102.848891 
L 313.812074 92.735411 
L 315.654177 87.786837 
L 316.240301 86.705181 
L 316.965978 86.164354 
L 319.059276 86.299561 
L 319.6454 86.299561 
L 320.147792 86.326602 
L 321.34795 86.137312 
L 322.743483 85.190864 
L 323.245874 84.244415 
L 323.664534 82.027021 
L 323.664534 80.891283 
L 323.49707 80.107082 
L 322.799304 79.079509 
L 320.008239 75.96975 
L 319.059276 75.050342 
L 317.468369 73.481942 
L 315.989105 72.427328 
L 313.672521 71.859458 
L 311.579222 71.372713 
L 309.402191 70.858927 
L 307.67173 69.912478 
L 306.304108 68.695616 
L 305.801717 68.019581 
L 305.327236 65.369525 
L 304.964397 63.882248 
L 304.434095 61.096985 
L 303.959614 57.338232 
L 303.875882 53.903975 
L 303.764239 51.686582 
L 303.540954 48.198242 
L 303.345579 47.116587 
L 302.619902 45.061441 
L 301.419744 42.735881 
L 298.210019 38.274052 
L 297.763449 36.029617 
L 298.628679 33.866306 
L 300.80571 31.973408 
L 305.410967 28.295779 
L 307.587998 27.268206 
L 308.50905 26.132468 
L 310.044136 21.346142 
L 311.048919 19.426203 
L 312.472363 17.452182 
L 314.06327 15.640409 
L 315.598356 13.963843 
L 315.933283 12.449525 
L 320.175703 11.151538 
L 322.21318 10.8 
L 324.836781 11.692366 
L 326.288135 12.611773 
L 327.432472 14.802126 
L 329.05129 17.965968 
L 330.865482 20.102238 
L 334.131029 22.400756 
L 337.089558 24.645192 
L 338.568822 26.592172 
L 339.964355 28.836607 
L 341.359888 31.108084 
L 342.30885 32.568319 
L 342.532135 33.000981 
L 342.643778 33.677016 
L 342.783331 34.434175 
L 342.615867 36.786776 
L 341.834369 39.220501 
L 341.694815 41.519019 
L 342.225118 44.006827 
L 342.867063 46.494635 
L 343.564829 49.279898 
L 343.760204 52.389658 
L 343.983489 55.066755 
L 344.764987 56.635156 
L 346.383805 58.555095 
L 348.532925 61.151068 
L 352.245042 63.233255 
L 354.477894 64.909821 
L 355.817606 67.046091 
L 357.241049 70.507389 
L 359.473901 74.049811 
L 363.046464 78.727971 
L 364.860657 81.43211 
L 366.367832 82.648973 
L 369.465914 85.271988 
L 371.698767 86.86743 
L 373.680423 89.490445 
L 375.048045 91.221094 
L 375.745811 91.410383 
L 378.453145 89.896065 
L 381.076746 88.81441 
L 385.235433 88.300623 
L 390.370993 88.273582 
L 389.673227 92.600204 
L 388.696354 100.036587 
L 388.807997 106.932141 
L 389.115014 113.367992 
L 389.422031 117.505324 
L 391.09667 122.210526 
L 393.776093 128.88975 
L 395.367 135.51489 
L 396.260141 140.220092 
L 396.120587 144.114052 
L 400.390917 144.168135 
L 400.92122 144.168135 
L 403.823927 143.465059 
L 406.196333 141.977782 
L 408.568738 139.327726 
L 410.382931 139.246602 
L 414.485797 140.787961 
L 418.337467 142.734941 
L 419.705089 144.708963 
L 419.984195 146.872274 
L 420.430766 148.711088 
L 421.88212 150.090199 
L 424.394078 151.496352 
L 427.436339 151.901972 
L 433.074291 151.956055 
L 438.237762 152.929545 
L 442.787198 154.957649 
L 446.7226 156.039305 
L 449.039184 155.931139 
L 451.606964 154.957649 
L 453.97937 153.984159 
L 456.156401 154.200491 
L 459.003287 155.606643 
L 461.515246 157.769954 
L 463.161974 159.040899 
L 466.567074 159.8251 
L 470.139637 159.419479 
L 476.531177 158.202616 
L 481.610915 157.634747 
L 486.802297 157.229126 
L 490.765609 157.824037 
L 493.528764 159.608769 
L 496.571025 162.988942 
L 498.552681 165.28746 
L 500.338963 167.477813 
L 504.023169 169.316627 
L 505.614076 169.587041 
L 506.786324 168.802841 
L 508.516784 165.747164 
L 511.196207 161.636873 
L 512.926667 160.501134 
L 516.862069 160.041431 
L 519.0391 159.662851 
L 521.104488 157.986285 
L 522.862859 157.093919 
L 524.844516 156.958712 
L 529.198578 157.932202 
L 531.738447 158.256699 
L 533.245622 159.63581 
L 534.138763 161.528707 
L 534.41787 162.096576 
L 535.394742 164.232846 
L 535.70176 166.558406 
L 535.645938 168.126806 
L 536.204151 169.073255 
L 537.87879 170.560531 
L 540.474481 171.69627 
L 544.940185 173.399877 
L 546.447361 174.481533 
L 546.977663 176.590761 
L 547.005574 179.997976 
L 547.926625 182.296495 
L 549.880371 183.675606 
L 553.815773 185.135841 
L 558.448941 186.271579 
L 562.830914 187.515483 
L 566.347656 188.488973 
L 569.641113 190.030332 
L 571.65068 191.923229 
L 574.832494 193.789085 
L 578.628343 195.43861 
L 580.889106 196.898845 
L 582.507923 198.710618 
L 583.010315 200.873929 
L 584.433758 202.658661 
L 585.271078 204.524517 
L 585.271078 206.498539 
L 584.098831 209.689423 
L 582.507923 212.718058 
L 581.893889 215.47628 
L 581.893889 218.829412 
L 581.726425 221.371303 
L 580.889106 223.886152 
L 579.130735 227.482657 
L 577.2049 232.160818 
L 574.832494 237.379806 
L 573.157855 240.732938 
L 571.23202 244.572816 
L 569.557381 246.114175 
L 567.212886 247.601451 
L 566.347656 249.413224 
L 566.012728 251.170915 
L 565.956907 254.76742 
L 565.761532 257.30931 
L 564.728838 258.445049 
L 561.937773 259.63487 
L 557.499979 261.041022 
L 554.848467 262.17676 
L 551.750385 264.610485 
L 549.657086 266.773797 
L 548.903498 268.910066 
L 548.791855 270.830005 
L 550.410673 272.966275 
L 552.978453 275.075503 
L 553.229649 275.535207 
L 553.955326 276.941359 
L 553.452934 279.077629 
L 551.889938 280.429699 
L 556.411464 287.217087 
L 558.700137 292.057496 
L 562.495986 296.302994 
L 565.482426 298.249974 
L 568.887525 299.412754 
L 570.36679 300.710741 
L 571.65068 303.0363 
L 573.269498 305.929729 
L 575.223243 307.146592 
L 577.511917 307.525171 
L 580.944927 306.362391 
L 583.763903 306.443516 
L 588.062143 307.741502 
L 589.62514 307.957833 
L 592.165009 306.713929 
L 594.676968 305.767481 
L 597.216837 305.983812 
L 601.515078 308.09304 
L 608.743937 309.688482 
L 613.935318 311.121676 
L 616.838026 313.284987 
L 621.359551 320.072376 
L 626.271826 326.670475 
L 628.5605 328.698579 
L 631.239922 329.212366 
L 636.235929 328.833786 
L 639.724761 329.699111 
L 643.213592 331.835381 
L 644.302108 333.782361 
L 644.162554 337.08141 
L 644.38584 339.920756 
L 646.032568 341.54324 
L 657.141008 340.542708 
L 660.127447 339.542177 
L 666.072416 335.404844 
L 671.180066 334.566561 
L 672.408134 334.512478 
L 678.715942 334.16094 
L 684.549268 333.430823 
L 688.875419 332.565498 
L 692.838732 329.185324 
L 695.350691 325.237282 
L 696.1601 322.28977 
L 695.908904 318.774389 
L 694.066801 310.986469 
L 691.387378 305.524108 
L 690.18722 300.872989 
L 689.266168 296.843822 
L 688.45676 291.54371 
L 689.182436 286.514011 
L 689.294079 282.052182 
L 688.093921 277.022483 
L 686.977495 273.804558 
L 687.647351 271.749412 
L 690.047667 269.423853 
L 694.45755 265.935514 
L 696.941598 263.961492 
L 699.983859 262.960961 
L 704.058814 262.609423 
L 707.184807 263.52883 
L 712.069171 266.287052 
L 717.762944 271.12746 
L 723.484628 275.264793 
L 726.97346 277.968932 
L 730.015721 280.916444 
L 732.890518 283.782831 
L 737.384133 285.405314 
L 741.068339 285.594604 
L 745.673597 285.405314 
L 751.534834 284.080286 
" clip-path="url(#p4f630641a8)"/>
   </g>
  </g>
 </g>
 <defs>
  <clipPath id="p4f630641a8">
   <rect x="109.673563" y="10.8" width="860.652874" height="1058.4"/>
  </clipPath>
 </defs>
</svg>
