<?xml version="1.0" encoding="utf-8" standalone="no"?>
<!DOCTYPE svg PUBLIC "-//W3C//DTD SVG 1.1//EN"
  "http://www.w3.org/Graphics/SVG/1.1/DTD/svg11.dtd">
<svg xmlns:xlink="http://www.w3.org/1999/xlink" width="1080pt" height="1080pt" viewBox="0 0 1080 1080" xmlns="http://www.w3.org/2000/svg" version="1.1">
 <metadata>
  <rdf:RDF xmlns:dc="http://purl.org/dc/elements/1.1/" xmlns:cc="http://creativecommons.org/ns#" xmlns:rdf="http://www.w3.org/1999/02/22-rdf-syntax-ns#">
   <cc:Work>
    <dc:type rdf:resource="http://purl.org/dc/dcmitype/StillImage"/>
    <dc:date>2022-07-01T13:43:25.107205</dc:date>
    <dc:format>image/svg+xml</dc:format>
    <dc:creator>
     <cc:Agent>
      <dc:title>Matplotlib v3.5.1, https://matplotlib.org/</dc:title>
     </cc:Agent>
    </dc:creator>
   </cc:Work>
  </rdf:RDF>
 </metadata>
 <defs>
  <style type="text/css">*{stroke-linejoin: round; stroke-linecap: butt}</style>
 </defs>
 <g id="figure_1">
  <g id="patch_1">
   <path d="M 0 1080 
L 1080 1080 
L 1080 0 
L 0 0 
L 0 1080 
z
" style="fill: none; opacity: 0"/>
  </g>
  <g id="axes_1">
   <g id="PatchCollection_1">
    <path d="M 778.119327 320.683231 
L 779.221905 323.086769 
L 779.647901 324.446346 
L 781.552355 328.282295 
L 782.304113 328.063792 
L 785.887492 326.704215 
L 789.596165 325.514585 
L 790.698743 325.198969 
L 791.575794 325.271803 
L 793.630599 325.951592 
L 796.838099 327.262612 
L 800.246069 329.569038 
L 801.47394 330.612999 
L 802.150522 331.12284 
L 802.751928 331.317065 
L 803.829448 331.268509 
L 804.781675 331.244231 
L 805.884253 331.535569 
L 806.535777 331.924019 
L 806.761304 332.215357 
L 806.736245 332.530973 
L 805.909312 333.963385 
L 804.556147 335.444353 
L 803.679097 336.852486 
L 803.102749 337.702222 
L 802.977456 338.163507 
L 803.002514 338.454845 
L 803.152866 338.770461 
L 804.255444 340.324263 
L 805.834136 342.727801 
L 809.217047 347.413486 
L 810.845856 350.423978 
L 811.572555 352.754682 
L 812.399489 357.051916 
L 813.176305 359.795348 
L 813.877946 361.300594 
L 814.479352 361.931827 
L 815.907692 362.368833 
L 817.887322 362.538781 
L 819.766716 363.364238 
L 820.94447 364.26253 
L 821.595994 364.990875 
L 821.520818 365.71922 
L 818.939783 369.628004 
L 817.38615 371.764482 
L 816.283571 372.905555 
L 815.381462 374.192298 
L 814.930407 374.944921 
L 814.955466 375.600431 
L 815.0557 375.843213 
L 815.782399 376.54728 
L 816.333688 377.081399 
L 816.509099 377.445572 
L 816.509099 377.882578 
L 815.95781 378.465254 
L 814.930407 379.776275 
L 814.754997 380.577454 
L 814.103473 382.106979 
L 812.625016 383.685059 
L 811.647731 384.704742 
L 811.246793 385.433087 
L 810.144215 386.889776 
L 809.51775 387.739512 
L 809.041636 388.103684 
L 807.964117 388.564969 
L 805.859195 389.633208 
L 804.305561 390.507222 
L 803.378393 391.211289 
L 802.576518 391.891077 
L 802.275815 392.376641 
L 801.398764 393.809052 
L 800.947709 394.63451 
L 800.57183 394.998682 
L 799.744897 395.362855 
L 799.444193 395.605636 
L 798.917963 396.042643 
L 797.289154 397.912061 
L 796.361986 399.24736 
L 795.93599 399.927149 
L 795.93599 400.534103 
L 796.086341 401.189613 
L 796.938334 402.54919 
L 797.239037 403.301813 
L 797.690092 404.00588 
L 798.391732 404.831337 
L 799.394076 405.681073 
L 801.398764 407.234875 
L 802.852163 408.400227 
L 803.704155 409.492744 
L 804.180268 410.682374 
L 804.881909 412.066229 
L 806.134839 413.547197 
L 807.112124 414.324098 
L 808.44023 414.712549 
L 809.141871 414.955331 
L 809.86857 415.562285 
L 810.469977 416.387742 
L 810.971149 417.892988 
L 811.522438 419.373956 
L 812.249137 420.417917 
L 813.025954 421.024871 
L 814.579587 421.461878 
L 816.408864 422.190223 
L 816.734626 422.457282 
L 816.960153 422.821455 
L 816.960153 423.355574 
L 816.609333 425.856225 
L 816.584274 426.366066 
L 816.759685 426.730239 
L 817.411208 426.900186 
L 820.618709 427.142968 
L 822.723631 427.482862 
L 824.277264 428.016981 
L 825.60537 428.915273 
L 826.281952 429.667896 
L 826.657831 430.80897 
L 826.457362 432.896892 
L 826.206776 435.640324 
L 826.281952 438.189531 
L 827.785468 439.840446 
L 833.724355 442.802382 
L 836.68127 444.696078 
L 839.688302 447.123894 
L 841.367228 447.755126 
L 842.996037 447.560901 
L 850.588792 444.598965 
L 852.894183 443.724952 
L 854.522992 443.433614 
L 857.279437 443.142276 
L 862.06563 443.360779 
L 864.120435 443.21511 
L 868.305221 442.341096 
L 870.46026 442.195428 
L 885.420243 439.961837 
L 887.6254 439.961837 
L 892.612061 439.767611 
L 893.764756 439.79189 
L 894.917452 439.864724 
L 895.568975 439.646221 
L 896.120264 439.112101 
L 896.746729 438.043862 
L 897.874366 436.902788 
L 898.726358 436.441503 
L 899.904113 436.150165 
L 900.530577 436.150165 
L 901.131984 436.271556 
L 901.833625 436.805676 
L 902.485148 437.266961 
L 903.036437 437.388352 
L 903.512551 437.242683 
L 904.364543 436.320113 
L 905.341828 435.397542 
L 906.218879 435.009092 
L 906.394289 434.936257 
L 906.995696 434.936257 
L 907.797571 435.373264 
L 909.276028 436.344391 
L 910.253313 436.587172 
L 912.082591 436.708563 
L 913.009759 436.999901 
L 915.665971 438.553703 
L 917.6456 440.034671 
L 918.923588 441.588474 
L 920.251694 443.21511 
L 921.604858 444.647522 
L 923.810015 446.371271 
L 926.516343 448.410637 
L 928.621266 450.328612 
L 929.322906 451.469685 
L 929.648668 452.586481 
L 929.748903 453.703276 
L 929.874196 454.57729 
L 930.400426 455.936867 
L 931.22736 457.709173 
L 931.352653 458.728855 
L 931.327594 459.432922 
L 930.701129 460.671108 
L 929.849137 461.812182 
L 929.548434 462.443414 
L 929.548434 463.244593 
L 929.899254 464.021494 
L 930.550778 465.599575 
L 930.701129 467.371881 
L 930.625954 471.110718 
L 930.400426 473.004414 
L 930.375368 473.732759 
L 930.475602 474.169766 
L 930.751247 474.363991 
L 932.30488 474.339713 
L 933.232048 474.412547 
L 934.660388 474.995223 
L 936.314255 475.990628 
L 938.494353 477.54443 
L 939.195994 478.248497 
L 939.421521 478.685504 
L 939.396463 479.00112 
L 938.143533 480.482088 
L 937.542127 481.307545 
L 937.416834 481.64744 
L 937.416834 482.03589 
L 938.494353 483.007017 
L 939.922693 484.366594 
L 940.123162 484.657932 
L 940.123162 484.900713 
L 939.972811 485.094938 
L 937.993181 485.653336 
L 935.236736 486.381681 
L 934.058981 487.158582 
L 933.181931 487.98404 
L 932.730876 488.493881 
L 932.705817 488.760941 
L 932.705817 489.076557 
L 933.632985 490.193352 
L 934.334626 491.310148 
L 934.43486 492.087049 
L 934.159216 493.13101 
L 933.106755 495.340322 
L 932.279821 496.311449 
L 930.600895 498.01092 
L 930.074664 498.884934 
L 929.999489 499.419054 
L 930.049606 499.928895 
L 930.174899 500.438736 
L 930.851481 501.482697 
L 932.630641 502.478102 
L 934.008864 503.15789 
L 934.835798 503.95907 
L 935.51238 505.051587 
L 935.587556 505.221534 
L 935.938376 506.678224 
L 936.339314 507.212343 
L 938.068357 507.867854 
L 938.920349 507.867854 
L 941.751971 507.188065 
L 943.20537 507.188065 
L 945.285233 508.232026 
L 949.344726 511.509578 
L 954.857618 516.607992 
L 957.639122 518.865861 
L 963.728361 523.308764 
L 966.309397 525.906527 
L 968.94055 528.868463 
L 969.592073 529.912424 
L 969.64219 531.053498 
L 969.667249 532.971472 
L 969.917835 534.088268 
L 971.296058 535.812017 
L 972.548988 537.899939 
L 973.601449 539.745079 
L 974.754144 540.740484 
L 976.382953 541.735889 
L 977.260004 542.464233 
L 978.76352 545.01344 
L 979.164458 546.008845 
L 979.690688 548.752277 
L 979.690688 549.917629 
L 978.713403 551.88416 
L 978.23729 553.947804 
L 978.462817 556.060004 
L 979.064223 556.958296 
L 981.319497 558.366429 
L 983.249009 559.191886 
L 984.401705 560.33296 
L 985.303814 561.78965 
L 987.233326 565.74699 
L 987.659322 567.762077 
L 987.809674 568.587535 
L 988.661666 569.364436 
L 990.616237 570.214172 
L 992.946687 570.214172 
L 994.600554 570.699735 
L 995.953718 571.549471 
L 997.432176 573.054716 
L 998.033582 574.341459 
L 997.757937 577.813236 
L 997.331941 579.512707 
L 996.555125 580.168218 
L 995.001492 581.236457 
L 994.249734 582.25614 
L 993.573152 583.397213 
L 993.447859 584.077002 
L 993.497976 584.732512 
L 995.627957 586.407705 
L 997.70782 587.573057 
L 999.712508 587.888673 
L 1003.396122 587.961507 
L 1006.65374 588.811243 
L 1008.08208 589.491032 
L 1009.635713 591.311894 
L 1012.116514 594.807949 
L 1013.62003 597.96411 
L 1014.948136 599.615025 
L 1016.326358 600.319092 
L 1018.005284 600.586151 
L 1018.932453 600.804655 
L 1020.486086 602.504126 
L 1025.197102 608.233772 
L 1026.374856 608.840726 
L 1028.404603 609.593349 
L 1029.482122 609.690462 
L 1031.060814 609.399124 
L 1032.38892 609.350568 
L 1038.177456 609.763296 
L 1038.979331 610.176025 
L 1039.430386 611.001482 
L 1040.031792 614.740319 
L 1040.507905 618.916163 
L 1040.382612 620.324296 
L 1039.806265 621.853821 
L 1039.756147 622.679278 
L 1039.756147 623.57757 
L 1040.106968 624.912869 
L 1041.710718 627.826248 
L 1042.813296 630.084117 
L 1043.46482 632.172039 
L 1043.489879 634.648412 
L 1043.339527 636.954837 
L 1042.337183 639.382653 
L 1040.43273 642.733039 
L 1040.507905 644.238285 
L 1040.633198 645.476471 
L 1040.658257 645.767809 
L 1041.460132 647.07883 
L 1042.487535 648.26846 
L 1044.742808 651.83735 
L 1045.494566 653.561099 
L 1045.995738 655.79469 
L 1046.647262 656.668704 
L 1048.376305 658.489566 
L 1049.17818 660.358984 
L 1049.929938 664.437715 
L 1050.506286 669.511851 
L 1050.60652 673.420635 
L 1050.656638 676.066955 
L 1050.907224 677.353697 
L 1050.731813 678.737552 
L 1049.954997 680.75264 
L 1049.328532 682.306442 
L 1049.328532 683.034787 
L 1050.781931 685.098431 
L 1052.76156 686.967849 
L 1055.944002 689.881228 
L 1056.946346 691.31364 
L 1056.996463 692.770329 
L 1056.495291 694.396966 
L 1054.615896 696.72767 
L 1051.884509 698.936982 
L 1051.132751 699.738162 
L 1051.132751 700.41795 
L 1058.47492 707.191557 
L 1060.955721 710.274884 
L 1062.634647 715.373298 
L 1069.2 720.690215 
L 1067.821777 722.219739 
L 1064.764628 724.866059 
L 1059.777967 726.419861 
L 1058.850799 728.02222 
L 1056.044236 732.974964 
L 1055.342595 738.558942 
L 1052.886853 741.545155 
L 1048.952653 745.769555 
L 1043.088941 751.572036 
L 1039.731089 750.892247 
L 1037.550991 749.751174 
L 1035.270658 748.173093 
L 1029.933177 743.803024 
L 1027.302024 743.123236 
L 1022.91677 747.250523 
L 1021.66384 748.488709 
L 1014.221436 750.261015 
L 1010.337354 750.139624 
L 1008.031962 755.966383 
L 1006.728915 759.510995 
L 1007.480673 767.304284 
L 1008.08208 776.068701 
L 1008.332666 779.200583 
L 1008.858896 785.464349 
L 1015.39919 791.92234 
L 1019.032687 795.029945 
L 1023.367824 798.623112 
L 1028.154017 803.430188 
L 1028.429661 805.760892 
L 1026.450032 807.169025 
L 1026.825911 808.382933 
L 1031.687279 810.470855 
L 1037.901811 814.76809 
L 1040.031792 818.701152 
L 1046.772555 825.668984 
L 1048.175836 827.247064 
L 1048.326188 829.674881 
L 1047.975368 831.350074 
L 1047.774899 832.563982 
L 1047.774899 833.098101 
L 1047.799957 833.486552 
L 1048.075602 833.923559 
L 1050.60652 835.088911 
L 1053.087322 841.109895 
L 1055.292478 844.290334 
L 1056.344939 845.115791 
L 1057.472576 845.601354 
L 1057.798338 846.18403 
L 1057.823397 846.742428 
L 1056.294822 852.714856 
L 1055.718474 854.390049 
L 1055.26742 854.462883 
L 1052.76156 854.341492 
L 1048.301129 854.608552 
L 1049.478883 860.84804 
L 1049.228297 864.27126 
L 1048.752184 864.586876 
L 1045.695035 862.69318 
L 1039.831323 862.596067 
L 1035.170424 863.518637 
L 1030.384232 865.703672 
L 1026.926145 867.257474 
L 1025.848626 867.864428 
L 1025.522864 868.252879 
L 1026.399915 869.539621 
L 1027.652845 872.647226 
L 1027.652845 873.25418 
L 1027.126614 874.565201 
L 1026.249563 876.458897 
L 1025.77345 877.260077 
L 1023.518176 879.906396 
L 1023.242531 880.391959 
L 1027.778138 884.179353 
L 1028.98095 885.563208 
L 1029.331771 886.267274 
L 1029.807884 888.330918 
L 1029.281654 890.054668 
L 1025.748391 892.53104 
L 1024.645813 893.016603 
L 1022.691242 893.380776 
L 1019.834562 893.817783 
L 1018.907394 893.817783 
L 1018.130577 893.526445 
L 1017.128234 892.482484 
L 1016.526827 892.142589 
L 1015.424249 891.511357 
L 1013.845557 891.050072 
L 1008.909013 889.326323 
L 1004.348349 885.053366 
L 1003.797059 885.053366 
L 1003.671766 886.84995 
L 1003.596591 892.142589 
L 1003.596591 893.647835 
L 1003.646708 898.042183 
L 1002.118133 899.231812 
L 1000.263797 899.668819 
L 999.336629 899.693098 
L 997.88323 899.426038 
L 996.730535 898.916196 
L 994.349968 897.580898 
L 990.315534 894.813187 
L 987.233326 895.881426 
L 986.481568 895.978539 
L 985.529342 895.929983 
L 985.078287 895.638645 
L 984.526998 894.934578 
L 983.900533 893.089438 
L 983.424419 890.952959 
L 982.547368 889.690495 
L 980.292095 889.787608 
L 978.788579 889.666217 
L 978.061879 889.253488 
L 977.385297 888.646534 
L 976.808949 887.38407 
L 976.182485 885.975936 
L 976.08225 885.101923 
L 976.007074 883.208226 
L 975.631195 881.04747 
L 975.255316 879.954952 
L 974.152738 877.430024 
L 973.726742 874.735148 
L 972.724398 871.724656 
L 973.651566 868.422826 
L 975.104965 866.796189 
L 972.624164 862.984518 
L 970.494183 866.844745 
L 969.065843 867.864428 
L 967.837971 868.180044 
L 967.086214 868.180044 
L 965.983635 867.937263 
L 964.129299 867.111805 
L 960.846623 865.46089 
L 960.119923 865.290943 
L 959.668869 865.266665 
L 958.440997 865.363778 
L 957.614063 865.436612 
L 954.932794 865.290943 
L 954.080801 864.853936 
L 953.604688 863.712863 
L 952.151289 860.338198 
L 951.750352 859.342794 
L 949.745664 856.575083 
L 948.843554 854.89989 
L 947.014277 853.97732 
L 946.137226 852.957637 
L 945.360409 850.893993 
L 944.959472 850.117092 
L 944.658768 849.874311 
L 942.278202 849.947145 
L 940.975154 849.922867 
L 940.499041 849.704364 
L 940.273514 849.073131 
L 940.173279 847.90778 
L 940.223397 847.227991 
L 940.423865 845.819858 
L 940.373748 844.945844 
L 940.098104 844.266055 
L 939.647049 843.829049 
L 939.44658 843.634823 
L 939.296228 843.440598 
L 938.719881 842.032465 
L 938.36906 840.745722 
L 938.19365 840.332993 
L 938.043299 840.090212 
L 937.642361 839.84743 
L 936.915662 839.750317 
L 935.587556 839.774596 
L 934.98615 839.823152 
L 934.409802 839.920265 
L 933.683102 840.138768 
L 932.630641 840.38155 
L 932.204645 840.405828 
L 931.528063 840.308715 
L 930.676071 839.920265 
L 929.573492 839.483258 
L 928.871852 839.19192 
L 927.493629 839.070529 
L 926.340933 839.216198 
L 925.990113 839.386145 
L 925.163179 840.77 
L 924.937652 840.915669 
L 924.586831 840.939947 
L 923.985425 840.697166 
L 922.732495 839.798874 
L 922.206265 839.070529 
L 922.131089 837.905177 
L 922.10603 836.788382 
L 921.93062 834.481956 
L 922.256382 833.049545 
L 922.657319 831.180127 
L 924.085659 827.659793 
L 925.463882 824.79497 
L 925.764586 823.192612 
L 925.639293 822.245763 
L 925.163179 821.323193 
L 924.26107 820.740517 
L 922.983081 820.206398 
L 921.980737 820.157841 
L 920.652632 820.497736 
L 918.146772 821.274637 
L 917.244662 821.323193 
L 915.590795 820.789074 
L 912.658939 820.667683 
L 910.428724 820.764795 
L 908.123333 821.298915 
L 904.840656 822.488545 
L 903.637844 822.828439 
L 903.261965 822.779883 
L 902.009035 821.930147 
L 899.327765 819.963616 
L 899.177413 819.745113 
L 898.049776 818.579761 
L 897.62378 817.560078 
L 896.746729 815.4236 
L 896.395909 814.598142 
L 895.29333 813.627016 
L 894.341104 813.068618 
L 892.912764 812.728724 
L 891.258896 812.510221 
L 889.329384 812.340273 
L 886.572938 811.611929 
L 885.946473 811.126365 
L 885.244833 809.451172 
L 884.618368 807.727423 
L 885.169657 805.153938 
L 885.746005 802.847512 
L 886.648114 801.924942 
L 887.850927 801.220876 
L 889.504794 800.516809 
L 891.058427 799.958411 
L 891.584658 799.472848 
L 892.536885 796.098184 
L 892.962881 793.840315 
L 894.065459 790.975492 
L 896.270616 788.377728 
L 898.776476 785.537183 
L 901.482804 782.162519 
L 902.009035 780.802942 
L 902.259621 779.783259 
L 902.610441 777.039827 
L 902.535265 776.262926 
L 899.202472 776.190091 
L 898.576007 776.141535 
L 898.024718 775.534581 
L 897.724014 774.539176 
L 897.698956 773.592328 
L 897.774132 772.621202 
L 897.573663 772.426976 
L 897.348136 772.426976 
L 895.919795 772.839705 
L 894.391221 773.228156 
L 893.113232 773.325268 
L 891.885361 773.349547 
L 891.283955 773.106765 
L 890.933134 772.596924 
L 890.807841 771.820022 
L 890.8329 771.140234 
L 890.983252 767.619901 
L 891.359131 764.730799 
L 891.659834 762.909937 
L 891.659834 762.278705 
L 891.609717 761.963089 
L 891.258896 761.453248 
L 890.131259 759.729498 
L 888.978564 757.811523 
L 886.698231 755.772158 
L 884.618368 754.873866 
L 881.836863 754.509693 
L 880.483699 751.013638 
L 879.080418 750.188181 
L 877.376433 750.018234 
L 877.376433 749.217054 
L 877.727253 748.634378 
L 878.50407 748.027424 
L 879.381121 747.153411 
L 879.656765 746.619291 
L 879.832176 745.866668 
L 880.132879 745.114045 
L 880.408523 744.312866 
L 881.160281 743.705912 
L 881.385809 743.050401 
L 881.460984 742.297778 
L 880.984871 739.50579 
L 881.060047 737.903431 
L 881.034988 737.320755 
L 880.583934 736.349629 
L 879.506414 735.742675 
L 877.07573 735.01433 
L 873.793053 734.164594 
L 870.009205 733.581918 
L 868.255103 732.489401 
L 867.027232 731.469718 
L 866.501001 731.008433 
L 865.924654 730.207254 
L 865.649009 729.697413 
L 865.598892 728.969068 
L 865.573833 728.240723 
L 865.197954 727.390987 
L 863.594204 724.647555 
L 862.692095 722.72958 
L 862.391391 721.41856 
L 862.441509 720.423155 
L 863.118091 718.262399 
L 863.418794 717.266994 
L 863.393735 716.829987 
L 863.143149 716.028808 
L 862.717153 714.984847 
L 862.190923 713.431045 
L 861.815044 712.387084 
L 861.714809 712.16858 
L 861.489282 711.731573 
L 860.511997 711.148898 
L 858.281781 709.886433 
L 857.555082 709.376592 
L 857.454848 708.599691 
L 857.630258 705.589199 
L 857.580141 704.666628 
L 857.22932 704.132509 
L 856.327211 703.549833 
L 855.525336 703.404164 
L 853.545706 703.282773 
L 852.092308 703.428442 
L 848.584104 704.860854 
L 846.253654 706.511769 
L 843.672619 704.885132 
L 841.241935 703.06427 
L 840.089239 702.481594 
L 839.437716 702.263091 
L 837.859024 701.971753 
L 835.102578 700.442228 
L 829.740038 696.363497 
L 825.379842 691.799203 
L 822.322693 691.774925 
L 820.343064 691.386474 
L 819.716599 691.240805 
L 817.336032 690.221123 
L 814.454294 688.910102 
L 812.825485 688.643042 
L 810.018922 688.230313 
L 807.387769 688.01181 
L 806.435542 687.817585 
L 805.708843 687.453412 
L 804.430854 686.360895 
L 799.394076 684.928483 
L 797.840443 684.952762 
L 796.261752 685.219821 
L 795.109056 685.171265 
L 794.031536 684.685702 
L 792.603196 683.423237 
L 790.824036 681.262481 
L 789.946985 680.606971 
L 789.120051 680.655527 
L 787.115363 681.578097 
L 785.411379 682.087939 
L 783.256339 682.767727 
L 776.99169 684.612867 
L 776.189815 684.928483 
L 775.613467 685.414047 
L 774.586064 686.700789 
L 773.308076 688.861546 
L 770.952568 691.143693 
L 769.173407 692.406157 
L 770.501513 694.202741 
L 770.852333 695.27098 
L 770.852333 697.043286 
L 770.601747 698.330028 
L 769.674579 699.883831 
L 769.248583 700.296559 
L 768.622118 700.806401 
L 768.521884 701.024904 
L 768.496825 701.364799 
L 768.572001 701.826084 
L 768.722352 702.53015 
L 769.499169 704.205343 
L 769.649521 704.763741 
L 769.624462 705.346417 
L 768.697294 706.220431 
L 767.644833 707.337226 
L 766.842958 708.915307 
L 766.44202 709.66793 
L 765.990965 710.274884 
L 763.359812 711.634461 
L 761.480418 712.896925 
L 760.929128 713.406767 
L 759.575964 717.84967 
L 758.799148 718.699406 
L 757.471042 717.631167 
L 755.792116 716.150199 
L 754.46401 715.324741 
L 753.160963 714.8149 
L 751.206392 714.402171 
L 749.226763 714.232224 
L 747.121841 713.89233 
L 745.793735 713.163985 
L 743.638696 711.221732 
L 741.859535 708.891029 
L 740.606606 707.02161 
L 740.055316 704.90941 
L 739.704496 703.695502 
L 739.178266 702.408759 
L 738.526742 701.753249 
L 736.221351 700.296559 
L 735.619945 699.738162 
L 734.943362 699.009817 
L 733.164202 696.679113 
L 731.610569 694.057072 
L 731.05928 692.357601 
L 731.159514 691.556421 
L 731.685745 690.633851 
L 733.164202 688.885824 
L 735.444534 686.967849 
L 738.752269 684.70998 
L 740.381078 683.593185 
L 741.208012 682.476389 
L 741.358364 681.529541 
L 740.907309 680.388467 
L 736.622289 674.391761 
L 732.036565 666.210021 
L 729.655998 664.389159 
L 728.127424 663.636536 
L 725.120392 663.393754 
L 723.616876 663.879318 
L 721.311485 665.020391 
L 720.133731 664.899 
L 718.780567 664.146377 
L 716.4 661.86423 
L 712.415683 656.790095 
L 710.511229 653.245483 
L 708.907479 649.992209 
L 707.855018 647.685784 
L 706.602088 643.971225 
L 700.437673 620.615634 
L 699.710974 617.677977 
L 698.332751 615.978506 
L 692.844918 610.176025 
L 691.617047 608.185216 
L 691.241168 606.14585 
L 691.366461 604.592048 
L 691.817515 602.407013 
L 691.617047 601.630112 
L 690.940465 600.853211 
L 689.913062 600.246257 
L 687.98355 600.052032 
L 686.154272 600.100588 
L 684.074409 600.416204 
L 667.159855 602.989689 
L 662.473897 602.941133 
L 658.940635 602.382735 
L 655.081611 601.848616 
L 654.37997 601.872894 
L 654.229619 601.945728 
L 653.427743 602.358457 
L 650.62118 604.276432 
L 648.441082 606.14585 
L 646.210867 608.646501 
L 645.709695 609.496236 
L 645.258641 610.613032 
L 643.554656 616.124174 
L 642.878074 617.556586 
L 639.244577 625.398432 
L 638.11694 627.000791 
L 636.287662 627.656301 
L 633.631451 628.020473 
L 629.797486 628.408924 
L 627.617388 628.773096 
L 625.988579 629.889892 
L 623.858598 632.269152 
L 617.092776 649.263865 
L 616.49137 651.764515 
L 616.792073 654.338 
L 617.167952 655.891803 
L 618.721585 658.198228 
L 625.061411 664.292046 
L 627.667505 667.690989 
L 628.043384 669.536129 
L 628.068442 671.089931 
L 627.116216 672.69229 
L 626.113872 673.663417 
L 625.311997 674.440318 
L 624.835883 674.561709 
L 622.831195 675.120106 
L 620.300277 674.998715 
L 616.090433 673.687695 
L 609.52508 671.017097 
L 604.212657 669.65752 
L 599.175879 668.977731 
L 597.321543 668.395056 
L 594.088984 666.137187 
L 587.949627 661.111607 
L 584.040486 658.392453 
L 579.980993 656.304531 
L 577.951247 655.551908 
L 576.447731 655.284849 
L 573.941871 655.79469 
L 570.934839 656.328809 
L 567.752397 656.086028 
L 563.893373 655.090623 
L 563.542553 654.944954 
L 558.480716 652.857032 
L 553.368762 649.385255 
L 551.840188 648.486963 
L 550.837844 648.511242 
L 550.035968 649.603759 
L 548.75798 651.667403 
L 547.429874 652.468582 
L 546.477648 652.468582 
L 545.926358 652.517138 
L 544.748604 651.910184 
L 543.069678 651.473177 
L 541.390752 651.667403 
L 540.162881 652.395747 
L 538.233369 655.26057 
L 536.930322 656.838651 
L 535.251396 656.887207 
L 533.071298 656.134584 
L 529.337567 654.192331 
L 527.107351 652.371469 
L 524.350906 648.851136 
L 520.817643 641.27635 
L 519.43942 639.601156 
L 516.883443 637.950241 
L 511.821607 635.86232 
L 507.311059 634.648412 
L 505.982953 638.460083 
L 506.008012 639.576878 
L 505.982953 641.713356 
L 505.181078 643.971225 
L 504.329086 645.670697 
L 503.652504 646.690379 
L 503.477094 647.807175 
L 503.151332 650.574885 
L 501.848285 652.055853 
L 499.442659 655.551908 
L 501.121585 656.474478 
L 502.725336 657.469883 
L 503.602387 658.101115 
L 503.802855 658.732347 
L 503.677562 659.970534 
L 503.026039 662.276959 
L 502.249222 662.981026 
L 501.372171 663.296642 
L 499.843597 663.418033 
L 495.533518 663.05386 
L 491.874963 662.956747 
L 488.642404 662.179846 
L 485.560196 660.820269 
L 483.555508 659.994812 
L 482.603281 660.043368 
L 481.400469 660.504653 
L 480.373066 661.160164 
L 479.896953 662.009899 
L 478.944726 664.292046 
L 478.117792 665.675902 
L 475.987812 666.88981 
L 474.133475 667.836658 
L 471.72785 669.050566 
L 469.673045 669.269069 
L 467.117068 669.147679 
L 465.012146 668.492168 
L 461.203239 666.88981 
L 457.920563 665.044669 
L 455.940933 664.170656 
L 454.637886 664.364881 
L 453.009077 665.117504 
L 450.979331 666.428525 
L 449.801577 666.671306 
L 448.072534 666.501359 
L 446.268315 666.161465 
L 443.987982 666.452803 
L 442.810228 666.671306 
L 442.05847 667.132591 
L 441.607415 667.860936 
L 440.379544 671.041375 
L 439.677903 674.14898 
L 439.352141 676.091233 
L 439.001321 677.18375 
L 438.399915 678.130598 
L 437.071809 680.097129 
L 436.921457 680.267076 
L 435.793821 681.480984 
L 434.966887 682.233607 
L 434.290305 682.59778 
L 433.66384 682.622058 
L 432.661496 682.282164 
L 430.857277 681.165368 
L 429.779757 680.606971 
L 429.002941 680.412745 
L 428.075772 680.437024 
L 425.143916 680.728362 
L 424.141573 680.75264 
L 423.46499 680.461302 
L 422.813467 679.975739 
L 421.635713 678.931778 
L 419.580908 676.601074 
L 419.405498 676.042676 
L 419.405498 675.460001 
L 419.681142 674.731656 
L 420.207373 673.930476 
L 420.182314 673.153575 
L 419.706201 672.376674 
L 418.82915 671.526938 
L 416.699169 669.196235 
L 414.468954 667.035479 
L 412.489325 664.850444 
L 409.983465 662.471184 
L 408.780652 661.063051 
L 408.379714 660.28615 
L 407.477605 658.416731 
L 406.85114 657.591274 
L 405.898913 656.960042 
L 404.52069 656.765816 
L 402.591178 656.741538 
L 401.037545 656.790095 
L 399.809674 656.741538 
L 398.732154 656.183141 
L 398.155807 655.551908 
L 397.754869 654.847842 
L 397.429107 653.852437 
L 397.228638 652.128688 
L 397.278756 650.987614 
L 397.704752 650.040766 
L 398.155807 649.45809 
L 399.283443 648.26846 
L 402.140124 645.476471 
L 402.365651 644.96663 
L 402.265417 644.408232 
L 401.989772 643.267159 
L 401.31319 640.985012 
L 400.887194 639.334097 
L 400.436139 636.906281 
L 400.160494 634.818359 
L 400.06026 634.114292 
L 399.584147 633.628729 
L 398.656978 633.216 
L 395.624888 631.686476 
L 395.148775 631.710754 
L 394.998423 631.856423 
L 395.023482 632.439099 
L 395.249009 635.012584 
L 395.274068 636.299326 
L 395.449478 637.513235 
L 395.900533 639.722547 
L 395.925591 640.596561 
L 395.549712 641.39774 
L 395.098658 641.761913 
L 393.79561 642.077529 
L 392.19186 642.19892 
L 391.189516 642.19892 
L 389.109653 642.126085 
L 388.032133 642.271754 
L 384.473812 644.019782 
L 382.945238 644.918074 
L 381.216194 646.520432 
L 380.238909 647.637228 
L 379.737737 648.511242 
L 379.211506 649.239586 
L 378.384573 649.822262 
L 376.705647 650.64772 
L 374.350139 651.788793 
L 373.42297 652.177244 
L 372.89674 652.177244 
L 371.944513 651.667403 
L 369.238185 650.502051 
L 368.461368 650.040766 
L 367.784786 649.433812 
L 367.058087 649.045361 
L 366.757383 648.899692 
L 365.679864 648.729745 
L 362.798125 648.632632 
L 359.966503 648.972527 
L 357.636054 649.84654 
L 355.831835 651.715959 
L 354.704198 655.818968 
L 353.100447 658.004003 
L 351.346346 659.120798 
L 350.093416 658.246784 
L 349.316599 657.809777 
L 348.489665 657.615552 
L 347.51238 657.615552 
L 344.906286 657.785499 
L 342.776305 657.931168 
L 341.874196 657.979724 
L 340.37068 658.343897 
L 339.067633 658.683791 
L 337.814703 658.780904 
L 336.010484 658.82946 
L 333.504624 658.805182 
L 331.725463 658.756626 
L 329.294779 658.17395 
L 327.766205 657.591274 
L 327.114681 657.105711 
L 326.413041 656.401644 
L 325.310462 655.551908 
L 323.581419 654.216609 
L 322.228255 653.269761 
L 320.649563 652.444304 
L 317.692649 650.963336 
L 316.264309 650.234991 
L 314.184445 649.506646 
L 312.806222 649.021083 
L 311.678585 648.559798 
L 309.924483 647.224499 
L 308.496143 645.962035 
L 307.343448 645.452193 
L 305.990283 645.112299 
L 304.687236 644.869517 
L 302.131259 644.553901 
L 301.204091 644.286842 
L 300.828212 643.946947 
L 300.602685 643.461384 
L 300.427275 642.733039 
L 300.402216 641.980416 
L 300.552568 640.596561 
L 300.727978 640.062441 
L 301.153974 639.358375 
L 302.131259 638.217301 
L 303.283955 637.246175 
L 303.73501 636.687777 
L 303.810185 636.25077 
L 303.609717 635.886598 
L 302.933134 635.522425 
L 301.930791 634.988306 
L 301.05374 634.40563 
L 300.702919 634.017179 
L 300.101513 633.167444 
L 299.299638 631.953536 
L 297.871298 629.91417 
L 296.543192 628.651706 
L 294.538504 627.26785 
L 294.212742 627.122182 
L 291.757 625.908273 
L 290.027957 624.742922 
L 287.722566 622.630722 
L 285.692819 620.300018 
L 284.214362 618.964719 
L 282.309908 617.677977 
L 280.455572 615.954227 
L 279.302877 614.448981 
L 278.475943 612.725232 
L 277.373365 609.787574 
L 276.797017 607.893878 
L 276.771958 607.165533 
L 277.248072 604.931942 
L 277.197954 603.815147 
L 277.09772 602.698351 
L 276.797017 601.338774 
L 275.644321 596.992983 
L 275.343618 595.147843 
L 275.544087 592.914252 
L 275.84479 591.481841 
L 276.345962 590.753496 
L 277.348306 590.000873 
L 279.879224 588.835521 
L 281.307564 587.840117 
L 282.134498 586.86899 
L 282.360026 585.727917 
L 282.259791 581.600629 
L 282.510377 578.638694 
L 283.186959 574.948413 
L 284.038952 571.258133 
L 284.765651 569.194489 
L 285.793053 567.519296 
L 284.640358 566.863785 
L 284.089069 566.523891 
L 283.788366 566.01405 
L 283.738248 565.552765 
L 283.71319 565.09148 
L 284.06401 564.168909 
L 284.089069 563.489121 
L 283.863541 562.930723 
L 282.986491 561.643981 
L 282.209674 560.794245 
L 281.583209 560.502907 
L 280.931685 560.527185 
L 280.230045 560.308682 
L 278.87688 559.14333 
L 277.573833 557.589528 
L 277.172896 556.64268 
L 277.022544 555.890057 
L 276.997486 554.943208 
L 276.897251 554.117751 
L 276.245728 553.195181 
L 274.817388 551.738491 
L 272.687407 550.087576 
L 270.808012 548.460939 
L 270.156488 548.31527 
L 269.279437 548.388105 
L 267.775922 548.533774 
L 266.322523 548.58233 
L 265.545706 548.485217 
L 264.844066 548.023932 
L 263.16514 546.882859 
L 261.811975 546.324461 
L 261.18551 546.397295 
L 260.634221 546.761468 
L 259.907522 547.732594 
L 259.155764 548.145323 
L 258.704709 548.169601 
L 258.128361 547.878263 
L 257.501896 547.174197 
L 256.223908 545.741785 
L 255.522267 545.134831 
L 254.695333 544.552155 
L 253.617814 544.042314 
L 251.863712 543.338247 
L 251.01172 543.1683 
L 250.510548 543.216856 
L 250.10961 543.43536 
L 249.382911 543.70242 
L 249.007032 543.726698 
L 248.405625 543.581029 
L 247.553633 543.289691 
L 246.952227 542.925518 
L 245.599062 541.32316 
L 243.218496 538.434059 
L 240.762753 535.860574 
L 237.530194 532.704413 
L 233.520818 535.350732 
L 231.841892 536.346137 
L 229.135564 537.195872 
L 227.932751 537.705714 
L 227.606989 538.045608 
L 227.632048 538.531171 
L 227.882634 538.919622 
L 228.859919 539.526576 
L 231.691541 540.424868 
L 234.573279 541.954392 
L 238.30701 543.775254 
L 240.061112 545.01344 
L 241.71498 546.640077 
L 243.218496 548.363827 
L 243.66955 549.23784 
L 243.794843 550.42747 
L 243.844961 552.491114 
L 244.245898 553.923525 
L 245.323418 555.817222 
L 247.353164 558.390707 
L 248.355508 560.454351 
L 249.382911 563.36773 
L 250.034434 565.115758 
L 250.360196 566.66956 
L 250.385255 568.029137 
L 249.75879 571.330967 
L 249.082208 573.394611 
L 248.230215 574.632797 
L 247.002344 575.628202 
L 245.348476 576.84211 
L 244.92248 577.376229 
L 244.74707 578.007461 
L 244.321074 579.901158 
L 243.945195 581.479238 
L 243.694609 582.741703 
L 243.31873 583.737107 
L 242.767441 584.514009 
L 242.0658 585.339466 
L 241.314042 585.970698 
L 240.662519 586.626209 
L 240.261581 587.257441 
L 239.635116 588.932634 
L 239.03371 590.292211 
L 238.382186 591.141947 
L 237.505135 592.113073 
L 236.903729 592.622914 
L 236.427616 592.865696 
L 235.851268 593.011365 
L 235.124569 593.011365 
L 234.02199 592.744305 
L 232.744002 592.040239 
L 231.090134 590.923443 
L 229.56156 590.025151 
L 226.980524 588.908356 
L 225.27654 588.228567 
L 224.424547 588.131455 
L 223.271852 588.107176 
L 220.289879 588.010064 
L 216.806733 587.767282 
L 215.453569 587.524501 
L 214.626635 587.111772 
L 213.950053 586.456261 
L 213.498999 585.752195 
L 212.496655 583.348657 
L 211.644662 581.212179 
L 211.218666 580.605225 
L 210.592201 580.168218 
L 208.612572 579.415595 
L 206.908587 578.784363 
L 206.106712 578.274521 
L 205.580482 577.788958 
L 202.999446 574.705631 
L 202.448157 574.414294 
L 201.771575 574.19579 
L 200.994758 574.098677 
L 200.368293 573.783061 
L 199.917238 573.224664 
L 199.616535 572.374928 
L 199.391008 571.355245 
L 199.315832 570.772569 
L 199.391008 569.728608 
L 199.641594 568.611813 
L 200.092649 567.300792 
L 200.06759 566.66956 
L 199.967356 565.868381 
L 199.691711 565.018645 
L 199.290773 564.363135 
L 198.739484 563.537677 
L 198.488898 562.785054 
L 198.363605 561.959597 
L 198.388664 560.939914 
L 198.438781 559.337555 
L 198.589133 558.390707 
L 198.965012 557.710919 
L 199.992414 556.594123 
L 201.14511 555.404493 
L 201.445813 554.991765 
L 201.470872 554.554758 
L 201.445813 553.802135 
L 201.32052 552.855286 
L 201.14511 551.859882 
L 200.794289 550.937312 
L 200.393352 550.378914 
L 199.666652 549.796238 
L 198.012785 549.067893 
L 194.379288 547.635482 
L 191.522608 546.640077 
L 189.69333 545.717507 
L 186.961943 543.726698 
L 184.030087 541.371716 
L 178.717665 537.48721 
L 177.063797 536.467528 
L 174.68323 535.229341 
L 171.626081 534.088268 
L 169.170339 533.699817 
L 167.466354 533.675539 
L 165.687194 534.161102 
L 164.885319 534.573831 
L 164.334029 535.253619 
L 163.632389 536.491806 
L 162.429576 539.769357 
L 161.82817 541.226047 
L 160.725591 542.998353 
L 159.547837 544.163705 
L 158.495376 544.794937 
L 156.415512 545.377613 
L 153.95977 545.523282 
L 152.080375 545.256222 
L 148.070999 543.70242 
L 145.089026 542.172895 
L 142.432815 540.497702 
L 140.352951 538.9439 
L 137.370978 536.686031 
L 135.36629 534.913725 
L 134.338888 533.724095 
L 133.311485 531.854677 
L 132.609844 529.888146 
L 131.883145 527.19327 
L 131.25668 524.789732 
L 130.73045 523.648658 
L 129.201875 521.342233 
L 126.244961 517.312058 
L 124.716386 515.394084 
L 123.137694 514.058785 
L 121.734413 513.257605 
L 120.230897 512.699208 
L 119.253612 512.043697 
L 118.476795 510.999736 
L 118.376561 510.247113 
L 118.677264 509.251709 
L 119.203495 508.013523 
L 118.952909 507.2609 
L 118.451737 506.751058 
L 117.349158 505.877044 
L 115.519881 504.468911 
L 114.016365 502.696605 
L 112.48779 500.39018 
L 111.460388 499.20055 
L 109.555934 497.35541 
L 108.854294 496.238614 
L 108.503473 495.340322 
L 108.303004 493.810798 
L 108.02736 492.378387 
L 107.526188 491.795711 
L 105.69691 490.921697 
L 104.869977 490.047683 
L 104.519156 489.29506 
L 103.316343 487.498476 
L 101.988238 486.017509 
L 100.735308 484.924991 
L 98.404858 483.832474 
L 97.577925 483.104129 
L 97.227104 482.278672 
L 97.12687 481.526049 
L 97.151928 479.632352 
L 96.95146 478.34561 
L 96.350053 477.131702 
L 94.996889 475.577899 
L 92.29056 472.00901 
L 90.436224 469.945366 
L 88.256126 467.954557 
L 87.028255 467.080543 
L 86.126145 466.789205 
L 84.97345 466.813483 
L 83.670403 466.692092 
L 82.442531 466.206529 
L 78.733859 464.555614 
L 77.480929 463.900104 
L 77.054933 463.29315 
L 76.603878 461.860738 
L 76.503644 460.598274 
L 76.503644 458.243292 
L 76.303175 457.102219 
L 75.300831 455.621251 
L 73.621905 453.921779 
L 72.293799 453.1206 
L 71.065928 452.999209 
L 68.860771 453.1206 
L 67.307138 453.023487 
L 66.480205 452.586481 
L 65.828681 451.906692 
L 64.726103 450.498559 
L 64.60081 450.328612 
L 63.423056 448.337802 
L 61.468485 445.424423 
L 60.791903 444.696078 
L 60.140379 444.477575 
L 59.012742 444.574687 
L 57.960281 444.841747 
L 56.982996 444.793191 
L 56.306414 444.283349 
L 55.30407 442.850938 
L 53.474792 439.646221 
L 55.930535 436.028775 
L 56.080886 435.56749 
L 56.055828 434.960535 
L 55.679949 434.135078 
L 55.329128 433.18823 
L 55.30407 432.702666 
L 55.354187 432.144269 
L 55.679949 431.658706 
L 56.957937 430.566188 
L 58.762156 429.61934 
L 59.463797 429.570784 
L 58.586746 424.448092 
L 57.559344 422.797177 
L 55.880418 420.879202 
L 55.203835 419.762407 
L 55.078543 418.694167 
L 55.178777 417.043253 
L 55.805242 413.887092 
L 56.156062 411.410719 
L 56.306414 409.444188 
L 56.181121 408.303114 
L 55.780183 407.186319 
L 55.354187 406.6522 
L 52.121628 402.015071 
L 51.595397 401.408117 
L 50.718346 401.068222 
L 48.788834 400.509825 
L 45.706627 399.78148 
L 43.902408 399.344473 
L 42.273599 398.834632 
L 39.968208 397.984896 
L 38.063755 397.183717 
L 37.286938 396.892379 
L 36.886 396.455372 
L 36.585297 395.775583 
L 35.833539 393.202098 
L 35.432602 390.750004 
L 35.207074 389.099089 
L 35.081781 388.613526 
L 34.580609 388.127962 
L 33.803793 387.836625 
L 32.575922 387.569565 
L 30.045003 387.448174 
L 29.067718 387.448174 
L 28.566546 387.10828 
L 28.265843 386.501326 
L 28.165608 385.942928 
L 27.889964 383.976397 
L 27.589261 381.864197 
L 27.163264 380.77168 
L 27.113147 380.553176 
L 27.037971 379.776275 
L 25.534456 375.648988 
L 24.757639 373.779569 
L 24.331643 373.026946 
L 23.680119 372.274323 
L 22.878244 371.376031 
L 22.427189 370.59913 
L 21.951076 369.652282 
L 21.474963 368.001367 
L 21.449904 367.637194 
L 21.500021 367.175909 
L 21.8759 366.666068 
L 22.752951 365.792054 
L 22.903303 365.45216 
L 22.878244 365.087988 
L 22.702834 364.578146 
L 22.352014 364.092583 
L 21.650373 363.485629 
L 19.946388 362.077496 
L 17.841466 360.717918 
L 16.864181 360.013852 
L 16.488302 359.601123 
L 16.112423 359.018447 
L 15.636309 358.071599 
L 14.834434 356.275015 
L 14.233028 355.27961 
L 13.280801 353.822921 
L 12.178223 352.706125 
L 11.476582 351.734999 
L 10.925293 350.836707 
L 10.97541 350.642482 
L 10.825059 349.792746 
L 10.8 349.137236 
L 10.8 348.651672 
L 10.825059 347.025036 
L 10.875176 346.320969 
L 11.15082 345.495511 
L 11.326231 345.179895 
L 11.70211 345.107061 
L 15.059962 344.597219 
L 17.816407 344.33016 
L 21.449904 343.40759 
L 23.805412 342.533576 
L 28.115491 340.931217 
L 30.521117 339.984369 
L 32.676156 339.086077 
L 32.375453 337.289493 
L 32.225101 336.294088 
L 32.099808 335.88136 
L 31.748988 335.517187 
L 31.247816 335.128737 
L 30.345706 334.570339 
L 29.719241 334.036219 
L 29.067718 333.332153 
L 28.641722 332.822311 
L 28.115491 331.948297 
L 27.113147 329.908932 
L 26.762327 328.962084 
L 26.637034 328.282295 
L 26.637034 327.505394 
L 26.762327 326.704215 
L 26.912678 326.145817 
L 27.338675 325.077578 
L 27.614319 324.664849 
L 27.990198 324.300677 
L 31.748988 323.013934 
L 32.951801 322.67404 
L 33.427914 322.625484 
L 33.904027 322.746874 
L 35.182016 323.159603 
L 36.585297 323.305272 
L 37.587641 323.256716 
L 38.840571 323.013934 
L 41.271255 322.431258 
L 42.398892 322.115642 
L 43.200767 321.800026 
L 44.002642 321.21735 
L 44.92981 320.173389 
L 46.583678 318.279693 
L 47.560963 317.235732 
L 48.563307 316.264605 
L 49.515534 315.123532 
L 50.342468 314.152405 
L 51.795866 312.598603 
L 52.397273 311.773145 
L 52.748093 311.093357 
L 53.14903 309.879449 
L 53.424675 308.762653 
L 53.70032 307.767249 
L 54.101257 306.96607 
L 54.853015 305.849274 
L 55.329128 305.218042 
L 56.281355 304.344028 
L 57.609461 303.348624 
L 58.286043 302.741669 
L 59.138035 301.916212 
L 60.290731 300.726582 
L 61.869423 298.3716 
L 62.946942 297.109136 
L 64.174814 296.52646 
L 65.803622 296.065175 
L 67.908545 295.773837 
L 70.414404 295.773837 
L 71.516983 295.676725 
L 72.118389 295.60389 
L 72.669678 294.972658 
L 72.870147 294.365704 
L 72.845088 293.807306 
L 72.544385 292.787623 
L 71.792627 291.816497 
L 70.790283 291.160987 
L 69.462178 290.772536 
L 68.735478 290.675423 
L 67.507607 290.821092 
L 66.154443 291.306656 
L 65.803622 291.428046 
L 65.377626 291.792219 
L 65.101982 292.180669 
L 63.999403 292.010722 
L 63.397997 291.743662 
L 62.721415 291.185265 
L 62.245302 290.699702 
L 61.794247 289.995635 
L 61.268016 288.441833 
L 60.416024 286.014016 
L 59.990028 283.926095 
L 59.789559 283.149193 
L 59.288387 282.056676 
L 58.737098 281.279775 
L 57.559344 280.187258 
L 55.955593 278.949072 
L 54.853015 278.099336 
L 54.22655 277.225322 
L 53.224206 275.622963 
L 52.372214 273.098035 
L 50.517878 268.582297 
L 50.041764 266.931382 
L 50.167057 266.008812 
L 50.442702 265.377579 
L 50.893757 264.649235 
L 51.871042 263.605274 
L 52.998679 262.828372 
L 54.677605 261.760133 
L 56.005711 261.27457 
L 56.957937 261.080345 
L 57.734754 261.056067 
L 58.661922 261.201736 
L 59.564032 261.638743 
L 62.120009 263.071154 
L 63.573407 263.580995 
L 65.352568 264.212228 
L 66.129384 264.260784 
L 66.931259 264.260784 
L 67.883486 264.090837 
L 68.986064 263.678108 
L 69.462178 263.265379 
L 69.687705 262.925485 
L 69.762881 262.488478 
L 69.888174 261.638743 
L 70.113701 261.226014 
L 70.539697 260.740451 
L 71.191221 260.400556 
L 71.892862 260.036384 
L 72.694737 259.745046 
L 73.571788 259.599377 
L 74.473897 259.575099 
L 75.776944 259.672211 
L 76.102706 259.623655 
L 76.528702 259.42943 
L 77.10505 258.968145 
L 78.032218 257.924184 
L 78.909269 256.953057 
L 79.560793 256.467494 
L 80.513019 255.86054 
L 82.46759 254.525241 
L 83.319582 253.772618 
L 83.820754 253.09283 
L 84.321926 251.878922 
L 84.497336 251.029186 
L 84.447219 249.936669 
L 84.522395 249.208324 
L 84.848157 248.237198 
L 85.32427 247.047568 
L 85.825442 246.343501 
L 86.40179 245.736547 
L 87.003196 245.178149 
L 87.429192 244.64403 
L 87.679778 243.915685 
L 87.754954 242.580386 
L 88.080716 240.759524 
L 88.757298 239.132887 
L 89.333646 238.064648 
L 89.985169 237.360581 
L 91.488685 236.438011 
L 94.97183 234.689984 
L 96.299936 234.034473 
L 96.675815 233.573188 
L 96.750991 232.772009 
L 96.725932 232.140777 
L 96.650756 231.509544 
L 96.350053 230.926869 
L 95.69853 230.174246 
L 94.119838 229.008894 
L 93.468315 228.207715 
L 93.01726 227.47937 
L 92.917025 226.67819 
L 93.117494 223.861924 
L 93.618666 220.972823 
L 94.069721 219.079126 
L 94.696186 218.132278 
L 96.625698 215.340289 
L 98.429917 213.009586 
L 99.407202 212.062737 
L 100.710249 211.188724 
L 101.913062 210.58177 
L 103.165992 210.31471 
L 105.471383 209.974815 
L 107.626422 209.732034 
L 110.332751 209.489252 
L 111.159685 209.367861 
L 111.585681 209.173636 
L 111.886384 208.930855 
L 112.061794 208.445291 
L 112.011677 205.993197 
L 112.237204 205.046349 
L 112.588025 204.63362 
L 112.888728 204.342282 
L 113.3899 204.196613 
L 114.091541 204.245169 
L 115.870701 204.487951 
L 116.948221 204.463673 
L 118.57703 204.196613 
L 120.255956 203.638215 
L 121.082889 203.419712 
L 121.909823 203.419712 
L 123.864394 203.662494 
L 125.468144 204.196613 
L 126.370254 204.827845 
L 126.946601 205.216296 
L 127.247304 205.264852 
L 127.823652 205.264852 
L 128.500234 204.90068 
L 129.076582 204.706454 
L 129.778223 204.682176 
L 130.655274 205.070627 
L 132.735137 207.134271 
L 134.639591 209.319305 
L 135.416407 210.508935 
L 135.892521 211.091611 
L 136.468869 211.674287 
L 138.273088 212.961029 
L 140.077307 214.102103 
L 140.778947 214.369163 
L 141.605881 214.344884 
L 142.357639 214.393441 
L 142.933987 214.660501 
L 143.836096 215.46168 
L 145.715491 217.233986 
L 147.945706 219.710358 
L 149.950394 221.943949 
L 151.779672 223.64342 
L 152.481313 224.153262 
L 153.508715 224.371765 
L 155.337993 224.56599 
L 155.789048 224.663103 
L 155.914341 224.905885 
L 155.864223 225.537117 
L 155.588579 226.653912 
L 155.413169 227.673595 
L 155.38811 228.547609 
L 155.463286 229.421623 
L 155.688813 230.344193 
L 156.415512 231.849439 
L 157.092095 232.966234 
L 158.119497 233.985917 
L 158.645728 234.374368 
L 159.222075 234.544315 
L 160.099126 234.592871 
L 161.126529 234.665705 
L 161.878287 234.957043 
L 162.780396 235.685388 
L 164.434264 237.821866 
L 165.160963 238.96294 
L 165.486725 239.788397 
L 165.762369 240.662411 
L 166.088131 243.284453 
L 166.11319 244.037076 
L 166.188366 244.522639 
L 166.46401 244.911089 
L 167.867292 246.052163 
L 168.268229 246.75623 
L 168.368464 247.630244 
L 168.193053 248.164363 
L 167.89235 249.208324 
L 167.817175 250.397954 
L 167.89235 250.98063 
L 168.142936 251.271968 
L 168.593991 251.320524 
L 169.897038 250.98063 
L 171.926785 250.592179 
L 173.731004 250.422232 
L 176.337098 250.349398 
L 177.514852 250.203729 
L 178.216493 249.912391 
L 178.692606 249.25688 
L 178.868016 248.431423 
L 178.993309 246.731952 
L 179.218837 243.381565 
L 179.444364 242.021988 
L 179.770126 240.54102 
L 180.697294 239.181443 
L 181.549286 238.331708 
L 182.977626 237.651919 
L 184.481142 236.923574 
L 185.40831 236.19523 
L 186.611123 234.811374 
L 187.713701 233.500354 
L 188.590752 233.063347 
L 189.968975 232.796287 
L 190.996378 232.772009 
L 192.073897 232.990512 
L 193.351886 233.597466 
L 195.531984 235.126991 
L 196.759855 236.219508 
L 198.914895 238.283151 
L 201.094993 240.15257 
L 201.946985 241.07514 
L 202.673684 242.289048 
L 203.600852 243.72146 
L 204.327552 244.595473 
L 205.555423 245.785103 
L 206.983763 246.974733 
L 208.838099 248.164363 
L 211.394076 249.742444 
L 212.446537 250.495067 
L 213.348647 251.271968 
L 214.72687 253.068552 
L 215.378393 253.74834 
L 215.929683 253.918287 
L 216.631323 253.966844 
L 217.708843 254.039678 
L 218.535777 254.258182 
L 219.638355 254.889414 
L 220.991519 256.1276 
L 221.968805 257.292952 
L 222.645387 258.555416 
L 223.246793 260.060662 
L 223.572555 260.352 
L 223.873258 260.352 
L 224.700192 259.866437 
L 227.23111 258.336913 
L 228.609333 257.535733 
L 230.463669 256.78311 
L 232.718943 255.981931 
L 234.297635 255.520646 
L 235.976561 255.20503 
L 237.42996 255.107917 
L 239.960878 254.816579 
L 240.888046 254.549519 
L 241.815214 253.991122 
L 242.742382 253.335611 
L 243.093203 252.971439 
L 243.193437 252.461598 
L 243.193437 252.024591 
L 243.343789 251.781809 
L 243.594375 251.733253 
L 244.070488 251.733253 
L 244.546601 251.830365 
L 245.273301 252.121703 
L 246.025059 252.582988 
L 247.328106 253.578393 
L 249.833965 255.350699 
L 250.660899 255.836262 
L 251.18713 256.030487 
L 251.563009 256.006209 
L 252.289708 255.811984 
L 252.815939 255.642037 
L 253.266993 255.666315 
L 253.818283 255.957653 
L 255.071212 256.734554 
L 256.148732 257.487177 
L 256.72508 258.118409 
L 257.126017 258.77392 
L 257.451779 259.963549 
L 257.952951 262.658425 
L 258.103303 263.38677 
L 258.078244 263.896612 
L 257.8026 264.5764 
L 257.652248 265.037685 
L 257.652248 265.353301 
L 257.752482 265.668917 
L 257.97801 265.984533 
L 258.32883 266.251593 
L 259.907522 266.542931 
L 261.135393 266.664322 
L 261.611506 266.809991 
L 262.08762 267.149885 
L 262.914554 267.805396 
L 263.315491 268.048177 
L 263.891839 268.023899 
L 264.242659 267.902508 
L 264.994417 267.319832 
L 265.670999 267.077051 
L 266.472874 266.931382 
L 266.948988 266.931382 
L 267.199574 267.004216 
L 267.675687 267.489779 
L 268.402387 268.558018 
L 268.652973 269.092138 
L 268.903558 269.796205 
L 268.928617 271.422842 
L 269.028851 271.811292 
L 269.254379 272.10263 
L 269.555082 272.36969 
L 270.156488 272.588193 
L 270.933305 272.855253 
L 271.359301 273.146591 
L 271.810356 273.656432 
L 272.311528 274.433334 
L 272.662348 274.87034 
L 273.138462 275.210235 
L 273.764926 275.428738 
L 274.341274 275.525851 
L 274.967739 275.355904 
L 276.070317 274.894619 
L 277.498658 274.627559 
L 278.776646 274.676115 
L 281.508033 274.603281 
L 282.660729 274.433334 
L 283.161901 274.263386 
L 283.487662 274.239108 
L 283.838483 274.360499 
L 284.615299 274.846062 
L 285.066354 275.40446 
L 286.043639 276.885428 
L 286.594929 278.17217 
L 286.519753 278.487786 
L 285.793053 279.89592 
L 285.66776 280.16298 
L 285.717878 280.478596 
L 285.843171 280.769934 
L 286.419518 281.061272 
L 286.92069 281.376888 
L 287.321628 281.789616 
L 288.198679 282.833577 
L 289.927722 285.407062 
L 290.85489 286.329633 
L 292.28323 287.616375 
L 292.909695 287.834879 
L 293.786746 287.859157 
L 295.064735 287.8106 
L 297.370126 287.567819 
L 298.121884 287.543541 
L 298.597997 287.567819 
L 299.199403 287.762044 
L 300.828212 288.393276 
L 301.605029 288.538945 
L 302.406904 288.563223 
L 303.309013 288.538945 
L 304.336416 288.563223 
L 304.962881 288.684614 
L 306.140635 289.218734 
L 307.142979 289.947079 
L 307.443682 290.335529 
L 307.443682 290.699702 
L 307.29333 290.942483 
L 306.41628 291.865053 
L 305.839932 292.739067 
L 304.587002 294.511373 
L 304.211123 295.166883 
L 304.186064 295.312552 
L 304.186064 295.725281 
L 304.536885 296.065175 
L 305.413936 296.987745 
L 305.990283 297.691812 
L 306.215811 298.25021 
L 306.491455 299.075667 
L 306.641807 299.998237 
L 306.842276 300.605191 
L 307.042745 300.920807 
L 307.443682 301.212145 
L 307.969913 301.357814 
L 310.074835 301.309258 
L 311.22753 301.454927 
L 311.879054 301.819099 
L 313.357511 302.571722 
L 314.735734 303.227233 
L 315.537609 303.372902 
L 316.314426 303.275789 
L 317.49218 302.911617 
L 319.27134 302.450332 
L 320.298743 302.231828 
L 321.000384 302.20755 
L 321.7772 302.377497 
L 323.105306 302.911617 
L 324.759173 303.809909 
L 325.53599 304.076968 
L 325.911869 304.101247 
L 326.387982 303.834187 
L 327.089623 303.057286 
L 328.167143 301.794821 
L 328.492904 301.527761 
L 329.119369 301.430649 
L 330.196889 301.406371 
L 331.124057 301.503483 
L 331.900874 301.721987 
L 333.354272 302.231828 
L 335.484253 303.13012 
L 340.069977 304.97526 
L 341.322906 305.485102 
L 342.024547 305.994943 
L 342.32525 306.43195 
L 342.250075 306.96607 
L 341.949371 307.961474 
L 341.874196 308.519872 
L 341.899254 309.07827 
L 342.124782 309.709502 
L 342.550778 310.122231 
L 343.803708 310.826297 
L 345.156872 311.336139 
L 346.184274 311.603198 
L 346.760622 311.57892 
L 348.264138 311.457529 
L 349.617302 311.287582 
L 350.419177 311.263304 
L 351.496697 311.31186 
L 353.300916 311.870258 
L 354.328319 312.404378 
L 354.904667 312.76855 
L 355.02996 313.132722 
L 355.105135 315.53626 
L 355.230428 315.973267 
L 355.631366 316.434552 
L 356.333007 317.090063 
L 357.335351 317.697017 
L 359.740976 318.983759 
L 361.720605 320.173389 
L 362.722949 320.901734 
L 363.299297 321.532966 
L 363.975879 322.576927 
L 364.652461 324.033617 
L 365.103516 325.247525 
L 365.153633 325.903035 
L 364.978223 326.63138 
L 364.527168 327.384003 
L 364.025996 327.918123 
L 363.399531 328.47652 
L 362.322012 329.180587 
L 361.720605 329.617594 
L 361.444961 330.078879 
L 361.294609 330.758668 
L 361.294609 332.215357 
L 361.294609 332.870868 
L 361.444961 333.599212 
L 361.720605 334.011941 
L 362.322012 334.570339 
L 363.449648 335.177293 
L 364.67752 336.00275 
L 365.529512 336.852486 
L 366.381504 337.99356 
L 366.657149 338.576235 
L 366.707266 340.469932 
L 366.45668 341.222555 
L 366.130918 341.829509 
L 365.604688 342.485019 
L 365.02834 343.310477 
L 364.827871 343.79604 
L 364.85293 344.427272 
L 365.37916 344.937114 
L 366.682208 346.005353 
L 369.889708 348.748785 
L 370.691583 349.404295 
L 371.418283 349.671355 
L 372.646154 349.986971 
L 373.473088 350.278309 
L 374.375197 350.93382 
L 376.354826 352.560456 
L 376.780823 353.16741 
L 376.805881 353.580139 
L 376.755764 353.725808 
L 376.430002 354.017146 
L 375.678244 354.381318 
L 375.051779 354.794047 
L 374.450373 355.255332 
L 373.07215 356.396406 
L 372.420626 357.00336 
L 372.220158 357.464645 
L 372.094865 357.950208 
L 372.195099 358.387215 
L 372.596037 358.775666 
L 374.024377 359.916739 
L 376.154358 361.737601 
L 378.284338 363.388516 
L 380.03844 364.650981 
L 381.817601 365.913445 
L 382.845003 366.884571 
L 383.646878 367.734307 
L 384.348519 368.826824 
L 384.674281 369.579447 
L 384.899808 370.404905 
L 384.849691 371.740204 
L 384.774515 373.221172 
L 384.774515 373.731013 
L 384.824632 374.070907 
L 385.175453 374.677861 
L 385.977328 375.284815 
L 387.205199 375.818935 
L 389.535649 376.498723 
L 391.84104 377.275624 
L 392.492563 377.615519 
L 393.119028 378.295307 
L 393.419732 378.950818 
L 393.519966 379.630606 
L 393.44479 380.89307 
L 393.344556 382.543985 
L 393.319497 383.393721 
L 393.44479 384.219179 
L 393.720435 385.38453 
L 394.321841 386.84122 
L 396.326529 390.555779 
L 396.852759 391.259845 
L 397.429107 391.866799 
L 397.905221 392.061025 
L 398.63192 392.036746 
L 399.308502 391.939634 
L 399.609205 391.915356 
L 401.162838 391.429792 
L 402.064948 391.089898 
L 402.716471 390.968507 
L 403.693757 391.041342 
L 405.77362 391.59974 
L 407.653015 392.061025 
L 408.880886 392.25525 
L 409.858172 392.230972 
L 411.336629 391.745409 
L 413.366375 390.968507 
L 414.042958 390.774282 
L 414.54413 390.79856 
L 415.195653 391.114176 
L 417.40081 393.032151 
L 418.603622 394.173225 
L 419.555849 394.804457 
L 420.207373 394.925848 
L 421.134541 394.901569 
L 422.512764 394.585953 
L 424.066397 394.36745 
L 425.394502 394.440284 
L 427.825186 394.755901 
L 428.752355 394.780179 
L 429.629405 394.610232 
L 430.957511 394.221781 
L 432.035031 393.930443 
L 432.811847 393.857609 
L 433.363137 393.906165 
L 433.864309 394.148946 
L 435.017004 395.362855 
L 436.645813 397.207995 
L 437.998977 398.85891 
L 438.274622 399.368751 
L 438.374856 399.854314 
L 438.249563 400.461268 
L 437.547922 402.063627 
L 436.846282 403.423204 
L 436.720989 404.054436 
L 436.87134 404.612834 
L 437.172043 405.001285 
L 437.77345 405.486848 
L 438.926145 405.923855 
L 440.504837 406.312305 
L 442.05847 406.433696 
L 443.987982 406.676478 
L 446.869721 406.967816 
L 447.847006 407.04065 
L 448.648881 407.331988 
L 449.350522 408.060333 
L 451.630854 411.847726 
L 452.482847 412.478958 
L 454.963648 413.668588 
L 457.444449 415.052443 
L 460.877477 417.383147 
L 461.679352 417.60165 
L 463.433454 416.897584 
L 464.310505 416.41202 
L 465.488259 416.169239 
L 467.292478 415.975013 
L 469.572811 415.999292 
L 471.37703 416.02357 
L 473.607245 415.853623 
L 475.135819 415.392338 
L 477.040273 413.64431 
L 478.218027 412.648905 
L 479.070019 412.284733 
L 479.621308 412.236177 
L 481.450586 412.9888 
L 483.229746 414.348377 
L 484.407501 414.809662 
L 486.261837 415.149556 
L 489.469337 414.542602 
L 491.724611 413.692866 
L 492.827189 413.061634 
L 493.428596 412.333289 
L 493.954826 407.938942 
L 493.929768 405.535404 
L 493.70424 402.767694 
L 493.679182 402.573468 
L 493.453654 401.286726 
L 492.551545 400.16993 
L 490.020626 398.397625 
L 488.416876 397.183717 
L 487.99088 396.625319 
L 487.940763 395.727027 
L 487.915704 394.853013 
L 489.644747 390.118772 
L 490.772384 387.472452 
L 491.474025 385.044636 
L 493.654123 376.595836 
L 494.982229 375.211981 
L 495.333049 374.677861 
L 495.633752 374.386523 
L 495.934456 374.192298 
L 496.485745 374.143742 
L 497.28762 374.119463 
L 498.440315 374.289411 
L 499.618069 374.337967 
L 500.971234 374.216576 
L 501.647816 374.070907 
L 502.098871 373.803847 
L 503.677562 372.298601 
L 505.281313 371.327475 
L 505.85766 371.181806 
L 506.609418 371.303197 
L 507.486469 371.545978 
L 511.696314 371.715926 
L 512.64854 371.910151 
L 513.099595 371.910151 
L 513.701001 371.545978 
L 514.853697 370.793355 
L 515.730748 370.477739 
L 516.05651 370.380627 
L 516.282037 370.33207 
L 517.008736 370.162123 
L 517.860729 369.919342 
L 518.537311 369.603725 
L 520.16612 368.365539 
L 520.892819 367.491525 
L 521.068229 366.957406 
L 521.068229 365.670663 
L 521.318815 365.282213 
L 522.170808 364.942319 
L 524.000085 364.456755 
L 524.526316 364.238252 
L 525.202898 363.946914 
L 526.480886 362.902953 
L 527.558406 361.713323 
L 528.310164 360.69364 
L 529.63827 358.217268 
L 530.565438 356.347849 
L 532.820712 354.745491 
L 535.602216 355.376723 
L 540.513701 355.983677 
L 540.789346 356.007955 
L 541.9671 356.177902 
L 542.944385 355.959399 
L 543.520733 355.255332 
L 544.498018 353.555861 
L 546.051651 352.24484 
L 552.291242 348.408891 
L 556.175325 345.616902 
L 559.207415 343.359033 
L 554.396165 339.207468 
L 553.093117 337.896447 
L 552.090773 336.415479 
L 549.885617 333.526378 
L 548.557511 331.924019 
L 547.429874 330.58872 
L 546.452589 329.132031 
L 544.447901 325.684532 
L 543.345323 323.159603 
L 543.144854 322.285589 
L 543.119795 321.435854 
L 543.946729 319.37221 
L 544.322608 318.498196 
L 544.623311 318.158302 
L 547.32964 315.681929 
L 548.281867 313.909624 
L 548.331984 312.258709 
L 548.281867 310.534959 
L 548.732921 308.786932 
L 551.288898 304.708201 
L 553.594289 302.086159 
L 557.87931 299.609787 
L 559.533177 298.662938 
L 560.184701 297.813203 
L 560.259876 296.453626 
L 559.633411 293.394577 
L 559.583294 291.37949 
L 560.059408 290.18986 
L 561.487748 288.781727 
L 564.319369 286.88803 
L 565.672534 286.135407 
L 566.850288 285.746957 
L 567.727339 285.892626 
L 570.533902 287.397872 
L 571.836949 288.101938 
L 574.593394 288.684614 
L 578.051481 288.781727 
L 583.263669 288.393276 
L 585.74447 288.34472 
L 586.9974 288.053382 
L 588.275389 287.106534 
L 589.553377 283.780426 
L 589.904198 281.304053 
L 590.655956 280.381483 
L 592.209589 279.434635 
L 598.048242 276.011414 
L 600.604219 274.166274 
L 601.456211 272.782419 
L 602.032559 271.56851 
L 602.508672 271.374285 
L 603.310548 271.374285 
L 604.989474 271.884127 
L 607.069337 272.466802 
L 608.372384 272.63675 
L 610.05131 272.588193 
L 613.45928 271.228616 
L 616.66678 269.33492 
L 622.179672 265.013407 
L 623.182016 263.580995 
L 623.156957 262.561313 
L 622.254848 258.385469 
L 621.979203 254.719467 
L 622.129555 253.068552 
L 622.981547 251.951756 
L 624.936118 250.543623 
L 625.512465 249.888113 
L 625.913403 249.378271 
L 625.938462 248.86843 
L 625.938462 248.479979 
L 625.512465 247.290349 
L 625.161645 245.882216 
L 625.111528 245.03248 
L 625.236821 244.279857 
L 625.813169 242.289048 
L 626.038696 241.560703 
L 626.063755 240.953749 
L 626.038696 240.298239 
L 625.537524 239.23 
L 624.810825 237.554807 
L 624.309653 236.243786 
L 624.084125 235.248381 
L 624.109184 233.694579 
L 624.259535 231.43671 
L 624.460004 230.562696 
L 624.860942 230.198524 
L 625.562583 229.470179 
L 626.790454 228.596165 
L 627.517153 227.819264 
L 627.943149 226.94525 
L 628.569614 225.852733 
L 629.145962 225.342892 
L 630.373833 224.638825 
L 631.701939 223.837646 
L 632.57899 223.109301 
L 633.205455 222.3324 
L 633.430982 221.579777 
L 633.531217 220.074531 
L 633.781803 219.41902 
L 634.18274 218.957735 
L 635.235201 217.913774 
L 636.212487 217.161151 
L 637.290006 216.481363 
L 638.217175 216.214303 
L 638.768464 215.825852 
L 639.595397 214.587666 
L 639.795866 213.883599 
L 639.921159 213.203811 
L 639.871042 212.69397 
L 639.445046 211.941347 
L 639.495163 211.358671 
L 639.896101 210.144763 
L 640.44739 208.979411 
L 640.923503 208.226788 
L 644.957937 198.95253 
L 645.08323 198.466967 
L 645.559344 198.005682 
L 645.98534 197.64151 
L 646.135691 197.253059 
L 646.135691 196.694661 
L 645.935223 195.844926 
L 645.459109 193.975507 
L 644.957937 191.984698 
L 644.857703 190.697955 
L 644.90782 189.071319 
L 645.133348 187.881689 
L 645.659578 186.619224 
L 646.135691 186.01227 
L 646.536629 185.648098 
L 646.712039 185.478151 
L 647.087918 185.041144 
L 647.037801 184.774084 
L 646.461453 184.142852 
L 645.860047 183.584454 
L 645.358875 182.71044 
L 645.283699 181.545089 
L 645.509227 180.695353 
L 645.759812 180.404015 
L 646.110633 180.306902 
L 646.636863 180.306902 
L 648.315789 180.8653 
L 649.368251 181.108082 
L 650.09495 181.326585 
L 650.596122 181.666479 
L 651.598466 182.564771 
L 652.275048 183.293116 
L 652.525634 183.730123 
L 652.525634 184.409912 
L 652.726103 184.749806 
L 653.252333 185.283926 
L 655.156787 186.862006 
L 655.80831 187.129066 
L 656.409717 187.153344 
L 658.865459 186.837728 
L 660.318858 186.910562 
L 661.872491 187.153344 
L 662.899893 187.541795 
L 663.977413 188.318696 
L 664.779288 188.585755 
L 666.859152 189.071319 
L 668.237375 189.022762 
L 669.665715 188.779981 
L 670.517707 188.755703 
L 671.219348 188.804259 
L 673.750266 189.508326 
L 676.431536 190.260949 
L 678.962455 191.110684 
L 679.889623 191.571969 
L 682.195014 193.247162 
L 683.047006 194.291123 
L 683.974174 195.505031 
L 684.575581 196.306211 
L 685.427573 197.714344 
L 686.530151 199.025365 
L 687.357085 199.656597 
L 688.309312 200.384942 
L 689.386831 200.991896 
L 690.163648 201.501737 
L 691.065758 201.963022 
L 692.619391 202.351473 
L 694.047731 202.545698 
L 694.42361 202.594254 
L 700.738376 203.298321 
L 703.244236 203.201208 
L 705.173748 203.589659 
L 706.551971 204.269448 
L 707.554315 205.483356 
L 708.030428 207.085714 
L 707.504198 210.751717 
L 707.82996 212.718248 
L 709.508886 215.048951 
L 713.944257 215.558793 
L 718.555039 217.646714 
L 721.286427 219.15196 
L 723.01547 220.365868 
L 723.591818 221.239882 
L 724.042872 224.784494 
L 723.792286 227.163754 
L 723.140763 228.499052 
L 720.359258 230.174246 
L 717.903516 231.193928 
L 715.974004 232.165055 
L 715.172129 233.039069 
L 714.896484 233.573188 
L 714.921543 234.20442 
L 715.773535 235.539719 
L 716.700703 236.632236 
L 716.825996 237.360581 
L 716.600469 239.836954 
L 715.748476 241.3422 
L 715.096953 242.167657 
L 714.871426 243.138784 
L 715.021777 243.964241 
L 715.923887 244.983924 
L 717.201875 246.149276 
L 717.803281 247.217515 
L 717.903516 248.06725 
L 717.627871 250.397954 
L 717.377285 252.485876 
L 718.404688 254.063956 
L 722.338888 256.685998 
L 725.496271 258.77392 
L 729.706115 261.371683 
L 731.861155 262.73126 
L 734.793011 265.741752 
L 735.645003 267.708283 
L 735.118773 269.796205 
L 734.041253 274.311943 
L 733.089026 277.419547 
L 732.863499 279.143297 
L 733.74055 280.648543 
L 735.619945 282.032398 
L 738.526742 283.756147 
L 738.977797 284.460214 
L 738.92768 285.455619 
L 738.150863 287.106534 
L 738.326273 287.737766 
L 740.581547 289.170177 
L 743.939399 291.185265 
L 745.342681 292.035 
L 746.294907 293.588803 
L 746.896314 298.080263 
L 748.124185 300.338132 
L 750.504752 303.421458 
L 753.21108 305.290876 
L 760.327722 308.082865 
L 762.68323 308.689819 
L 764.337098 309.539555 
L 765.239207 311.287582 
L 765.038739 312.817106 
L 764.938504 314.006736 
L 765.113914 314.4923 
L 765.840614 315.948989 
L 767.820243 317.551348 
L 770.827275 318.619587 
L 777.367569 320.464727 
L 778.119327 320.683231 
" clip-path="url(#pa49b647268)"/>
   </g>
  </g>
 </g>
 <defs>
  <clipPath id="pa49b647268">
   <rect x="10.8" y="180.306902" width="1058.4" height="719.386195"/>
  </clipPath>
 </defs>
</svg>
