<?xml version="1.0" encoding="utf-8" standalone="no"?>
<!DOCTYPE svg PUBLIC "-//W3C//DTD SVG 1.1//EN"
  "http://www.w3.org/Graphics/SVG/1.1/DTD/svg11.dtd">
<svg xmlns:xlink="http://www.w3.org/1999/xlink" width="1080pt" height="1080pt" viewBox="0 0 1080 1080" xmlns="http://www.w3.org/2000/svg" version="1.1">
 <metadata>
  <rdf:RDF xmlns:dc="http://purl.org/dc/elements/1.1/" xmlns:cc="http://creativecommons.org/ns#" xmlns:rdf="http://www.w3.org/1999/02/22-rdf-syntax-ns#">
   <cc:Work>
    <dc:type rdf:resource="http://purl.org/dc/dcmitype/StillImage"/>
    <dc:date>2022-07-01T13:43:25.473390</dc:date>
    <dc:format>image/svg+xml</dc:format>
    <dc:creator>
     <cc:Agent>
      <dc:title>Matplotlib v3.5.1, https://matplotlib.org/</dc:title>
     </cc:Agent>
    </dc:creator>
   </cc:Work>
  </rdf:RDF>
 </metadata>
 <defs>
  <style type="text/css">*{stroke-linejoin: round; stroke-linecap: butt}</style>
 </defs>
 <g id="figure_1">
  <g id="patch_1">
   <path d="M 0 1080 
L 1080 1080 
L 1080 0 
L 0 0 
L 0 1080 
z
" style="fill: none; opacity: 0"/>
  </g>
  <g id="axes_1">
   <g id="PatchCollection_1">
    <path d="M 1069.2 253.573498 
L 1066.606721 257.411293 
L 1060.679225 258.515694 
L 1056.575574 258.847015 
L 1053.640323 258.929845 
L 1051.474507 259.647706 
L 1048.111793 262.187829 
L 1045.746494 263.844431 
L 1044.15063 264.893612 
L 1043.637674 265.887574 
L 1044.236123 266.964365 
L 1044.891567 268.013546 
L 1045.461519 269.007508 
L 1045.632504 270.167129 
L 1045.119548 272.127442 
L 1043.865654 276.324167 
L 1042.925234 277.566618 
L 1040.331955 278.86429 
L 1036.62727 279.830641 
L 1032.86559 281.238753 
L 1030.15832 282.205104 
L 1029.160905 282.784915 
L 1029.075412 283.613216 
L 1029.417383 284.745228 
L 1030.585784 285.739189 
L 1038.451115 291.288806 
L 1040.531438 293.249118 
L 1044.207625 297.556284 
L 1046.287948 299.709866 
L 1047.969305 302.24999 
L 1049.223199 305.038603 
L 1049.79315 307.523506 
L 1055.43567 322.929906 
L 1056.2621 324.310408 
L 1056.746559 328.010152 
L 1056.575574 330.909206 
L 1055.977124 333.035179 
L 1054.637738 335.575302 
L 1053.041874 338.115425 
L 1051.844976 339.689197 
L 1050.933053 340.351838 
L 1049.508174 340.572718 
L 1046.14546 340.572718 
L 1044.720582 341.235359 
L 1043.637674 342.615861 
L 1043.124717 344.438123 
L 1038.821583 351.975662 
L 1036.883748 355.509747 
L 1035.031405 361.335464 
L 1034.432956 362.909236 
L 1034.518449 364.952379 
L 1035.259386 366.857471 
L 1036.256801 369.149104 
L 1036.912246 371.137027 
L 1036.912246 372.600359 
L 1036.142811 375.250922 
L 1035.544362 378.205196 
L 1034.632439 380.082678 
L 1033.606527 382.319091 
L 1032.267141 384.279403 
L 1030.329305 386.074056 
L 1028.049499 388.697009 
L 1026.62462 390.436441 
L 1024.772278 392.893734 
L 1023.261906 394.522726 
L 1023.176414 394.660776 
L 1022.008013 396.427819 
L 1021.238578 398.056811 
L 1020.412149 399.851463 
L 1019.8137 402.419196 
L 1019.557221 404.048188 
L 1019.785202 406.118941 
L 1021.637544 408.907554 
L 1022.777447 411.309627 
L 1021.80853 434.474447 
L 1021.039095 436.71086 
L 1019.92769 438.919662 
L 1018.246333 441.211295 
L 1017.049435 443.033558 
L 1016.650468 443.585758 
L 1015.824039 445.656511 
L 1015.567561 447.533993 
L 1014.712633 450.653927 
L 1013.943199 454.519332 
L 1013.002779 459.461528 
L 1012.660808 463.823914 
L 1013.230759 468.186299 
L 1014.228174 473.100885 
L 1014.798126 475.337298 
L 1014.969111 477.04912 
L 1015.368078 478.705723 
L 1015.197092 480.831695 
L 1014.171179 483.482259 
L 1012.176349 485.939552 
L 1007.474249 491.019798 
L 1005.963877 492.15181 
L 1005.194443 492.73162 
L 990.831664 508.883491 
L 990.062229 509.877452 
L 989.720258 511.257954 
L 990.4042 512.583235 
L 992.655509 514.239837 
L 995.81874 516.14493 
L 998.326527 517.221721 
L 1000.52084 518.215682 
L 1003.427593 519.375304 
L 1005.849887 520.037945 
L 1017.733376 522.053477 
L 1019.92769 522.881778 
L 1022.264491 523.87574 
L 1024.943263 524.869701 
L 1026.852601 525.780832 
L 1028.191987 527.078504 
L 1028.932924 528.569446 
L 1029.018417 529.894727 
L 1028.419968 531.68938 
L 1027.166074 534.063843 
L 1025.826688 536.300255 
L 1024.458805 538.260568 
L 1023.632375 539.88956 
L 1023.290404 541.711822 
L 1023.119418 543.837795 
L 1023.261906 546.157038 
L 1023.945848 548.28301 
L 1024.430307 550.270933 
L 1025.256737 552.231245 
L 1026.767108 553.970678 
L 1028.761939 555.295959 
L 1031.782682 556.621241 
L 1034.119483 558.112183 
L 1036.62727 559.520295 
L 1038.964071 560.900796 
L 1040.303457 561.894758 
L 1041.471858 563.46853 
L 1041.870824 565.373622 
L 1046.259451 579.42713 
L 1047.513344 581.829203 
L 1048.767237 583.872345 
L 1049.337189 587.10272 
L 1049.080711 587.82058 
L 1048.254281 588.731712 
L 1036.057318 606.623014 
L 1033.948498 608.914647 
L 1031.92517 611.20628 
L 1030.101325 612.338291 
L 1027.821519 613.249423 
L 1025.655703 613.166592 
L 1023.57538 612.338291 
L 1022.463974 611.59282 
L 1020.725622 610.681689 
L 1019.642714 610.847349 
L 1016.450985 612.062191 
L 1013.088271 613.691183 
L 1010.922456 614.823195 
L 1007.559742 616.314136 
L 1004.140032 617.860298 
L 1000.862811 619.48929 
L 993.339451 623.492745 
L 991.059645 623.492745 
L 987.725428 623.713626 
L 984.191729 624.293436 
L 979.94559 624.845637 
L 976.582876 625.259788 
L 949.225202 629.787833 
L 946.745913 632.686887 
L 942.100808 638.153674 
L 941.84433 640.445307 
L 941.815832 644.476372 
L 941.901325 650.246869 
L 941.872827 653.201143 
L 941.787334 655.327116 
L 941.530856 657.535918 
L 941.616349 659.358181 
L 950.450598 671.782696 
L 953.357351 674.35043 
L 958.116446 680.203757 
L 959.541325 683.240861 
L 960.937706 685.615324 
L 962.362585 687.603246 
L 963.530985 689.756829 
L 964.471405 692.324562 
L 961.051696 693.346134 
L 957.859968 695.637767 
L 955.523166 698.26072 
L 952.986882 702.705936 
L 951.305525 705.99153 
L 949.624168 711.071776 
L 948.284782 715.185671 
L 946.261454 718.305605 
L 944.352116 719.962207 
L 943.411696 720.762898 
L 939.564523 723.882832 
L 935.37538 726.478176 
L 932.354637 727.472137 
L 929.675864 727.803457 
L 926.170662 726.643836 
L 922.494475 724.987234 
L 919.986688 722.833651 
L 917.165428 720.542018 
L 914.657641 718.719756 
L 911.323425 716.069192 
L 908.473667 714.27454 
L 904.79748 712.949258 
L 901.121292 712.259008 
L 898.129047 711.927687 
L 894.937318 712.424668 
L 890.09273 713.225359 
L 875.359483 720.100258 
L 872.33874 720.100258 
L 867.323166 720.238308 
L 863.16252 720.735288 
L 858.289435 721.535979 
L 853.615832 721.70164 
L 850.452601 720.045037 
L 847.460355 715.599822 
L 845.949984 713.97083 
L 844.439612 712.976869 
L 842.615767 712.479888 
L 822.35399 715.544602 
L 818.193344 716.041582 
L 815.999031 719.161516 
L 814.0042 722.612771 
L 811.809887 725.235724 
L 809.131115 726.864716 
L 805.625913 728.024338 
L 802.776155 728.521318 
L 798.928982 728.493708 
L 795.42378 722.585161 
L 794.112892 719.133906 
L 792.431535 715.516992 
L 788.897835 714.05366 
L 784.566204 714.661081 
L 779.721616 715.158061 
L 767.182682 713.170139 
L 763.335509 714.633471 
L 751.651502 719.686107 
L 748.117803 721.204659 
L 737.402714 729.570499 
L 734.894927 732.690433 
L 734.381971 734.982066 
L 729.195412 748.952744 
L 728.853441 751.741357 
L 729.508885 755.855253 
L 731.190242 759.969148 
L 733.014087 763.751723 
L 735.008918 767.699958 
L 737.003748 770.985552 
L 739.68252 775.596428 
L 741.021906 776.617999 
L 742.304297 775.955358 
L 743.900162 774.823347 
L 745.154055 772.366054 
L 747.09189 771.040772 
L 749.257706 771.151212 
L 751.053053 772.366054 
L 754.757738 776.397119 
L 757.977964 782.747427 
L 761.625654 787.579183 
L 764.788885 793.929491 
L 761.711147 797.077035 
L 757.522003 800.831999 
L 752.848401 804.780234 
L 742.959742 815.133998 
L 742.190307 815.989909 
L 739.45454 819.054623 
L 736.120323 821.511916 
L 733.441551 824.63185 
L 730.762779 828.580085 
L 727.086591 831.865679 
L 723.068433 835.316933 
L 719.050275 837.774226 
L 714.718643 839.734539 
L 710.700485 842.026172 
L 706.853312 844.814785 
L 692.633021 857.128861 
L 682.088918 865.329041 
L 680.094087 868.310925 
L 676.930856 871.734569 
L 673.397157 874.053812 
L 669.236511 875.185823 
L 662.881551 876.345445 
L 657.524006 876.483495 
L 651.026559 877.808777 
L 645.811502 879.769089 
L 641.508368 881.729402 
L 637.661195 884.048645 
L 634.640452 886.671598 
L 632.645622 888.797571 
L 630.137835 888.797571 
L 629.311405 886.671598 
L 628.143005 883.717324 
L 627.14559 882.723363 
L 625.635218 882.226382 
L 624.808788 883.386004 
L 622.301002 887.472289 
L 621.104103 891.751844 
L 620.249176 894.595678 
L 619.793215 896.19706 
L 619.280258 898.820013 
L 617.570404 899.952025 
L 617.285428 900.145295 
L 614.606656 901.277306 
L 597.39412 908.676796 
L 593.375961 912.459371 
L 589.557286 914.916664 
L 585.710113 917.705277 
L 583.544297 920.825211 
L 582.860355 923.779485 
L 582.860355 927.230739 
L 583.373312 931.013314 
L 583.5158 933.801927 
L 583.202326 935.62419 
L 581.036511 936.921861 
L 575.365493 938.302363 
L 576.22042 929.743252 
L 577.360323 923.475774 
L 578.8137 919.88647 
L 580.238578 916.656096 
L 579.497641 915.662135 
L 578.699709 914.585343 
L 576.020937 911.96239 
L 573.51315 908.511136 
L 572.515735 906.523213 
L 571.860291 903.071959 
L 573.028691 899.620704 
L 573.855121 896.00379 
L 573.171179 893.380836 
L 570.834378 889.763922 
L 567.671147 885.484366 
L 565.16336 880.73544 
L 564.165945 877.781167 
L 564.507916 872.17633 
L 563.99496 868.062434 
L 562.655574 860.994265 
L 562.000129 858.039992 
L 557.981971 856.74232 
L 553.479354 855.582699 
L 546.810921 853.926097 
L 544.189144 853.070185 
L 543.277221 852.794085 
L 539.943005 850.806163 
L 533.103586 848.34887 
L 526.577641 846.554217 
L 518.911793 843.434283 
L 516.233021 841.612021 
L 513.89622 840.314349 
L 511.388433 840.314349 
L 507.883231 841.943341 
L 505.204459 842.937303 
L 501.870242 843.599944 
L 499.19147 843.599944 
L 497.168142 841.777681 
L 495.999742 838.989068 
L 495.002326 837.360076 
L 491.66811 835.206493 
L 489.587787 834.543852 
L 485.968595 833.411841 
L 473.942617 831.285868 
L 462.258611 829.960586 
L 448.066817 828.994235 
L 423.501906 827.365243 
L 415.57958 826.951092 
L 410.621002 826.702602 
L 399.763425 825.736251 
L 395.602779 826.095181 
L 393.835929 826.260842 
L 390.41622 826.564552 
L 379.045687 827.061533 
L 372.519742 827.254803 
L 364.397932 828.276374 
L 364.340937 828.800965 
L 363.770985 829.518826 
L 362.65958 829.739706 
L 361.519677 829.684486 
L 358.242456 829.132285 
L 355.934152 829.215115 
L 354.566268 829.518826 
L 353.825331 829.905366 
L 352.970404 830.706057 
L 350.6621 834.019261 
L 349.208724 835.068443 
L 347.213893 835.703474 
L 346.016995 835.537813 
L 344.791599 834.902783 
L 343.594701 833.964041 
L 342.483296 832.224609 
L 342.31231 832.114169 
L 341.628368 834.350582 
L 341.799354 837.636176 
L 341.314895 840.093469 
L 339.975509 843.379063 
L 338.123166 846.526607 
L 335.814863 849.812201 
L 333.13609 852.103834 
L 329.459903 854.423077 
L 324.273344 857.211691 
L 319.941712 858.536972 
L 313.273279 858.868293 
L 306.09189 858.398922 
L 301.076317 857.101251 
L 296.231729 854.643957 
L 296.060743 854.533517 
L 291.187658 852.021004 
L 286.514055 850.861383 
L 282.837868 850.861383 
L 276.653893 850.557672 
L 271.63832 849.895031 
L 265.140872 847.631009 
L 257.76 843.848434 
L 254.254798 840.56284 
L 250.065654 835.813914 
L 247.386882 832.85964 
L 243.710695 828.911405 
L 240.518966 825.653421 
L 238.524136 822.699147 
L 236.329822 819.744873 
L 234.819451 817.922611 
L 230.82979 817.28758 
L 228.322003 818.115881 
L 217.122456 823.058078 
L 213.617254 826.343672 
L 211.992892 829.491216 
L 210.140549 832.94247 
L 209.31412 834.405802 
L 207.148304 836.559385 
L 205.808918 837.553346 
L 203.78559 835.096053 
L 194.751858 827.889834 
L 192.899515 825.570591 
L 191.389144 821.649966 
L 190.049758 818.861352 
L 185.860614 816.238399 
L 182.697383 815.741418 
L 180.189596 813.615446 
L 172.153279 806.077906 
L 170.642908 803.123632 
L 170.61441 800.335019 
L 170.272439 795.558483 
L 172.096284 788.821634 
L 172.096284 786.833712 
L 170.414927 784.376419 
L 168.73357 783.244407 
L 165.399354 781.587805 
L 161.979645 778.937242 
L 158.958901 780.234913 
L 150.552116 782.526546 
L 149.21273 782.857867 
L 148.329305 783.520508 
L 147.873344 784.597299 
L 148.101325 786.971762 
L 148.300808 788.241824 
L 148.215315 789.318615 
L 147.189402 790.229746 
L 145.736026 790.699117 
L 142.344814 791.113267 
L 140.122003 791.196097 
L 139.637544 790.809557 
L 139.552052 789.042515 
L 139.837027 787.772453 
L 140.549467 786.668052 
L 141.147916 785.50843 
L 141.147916 784.901009 
L 140.976931 783.989878 
L 139.523554 782.857867 
L 137.92769 782.250446 
L 136.331826 782.250446 
L 134.735961 783.244407 
L 132.057189 785.50843 
L 130.176349 786.695662 
L 129.435412 784.404029 
L 129.321422 782.775037 
L 129.007948 779.296172 
L 129.520905 777.25303 
L 130.033861 776.231458 
L 131.57273 774.906177 
L 134.365493 772.945864 
L 138.070178 771.427312 
L 139.951018 770.792282 
L 141.603877 769.88115 
L 142.74378 768.445429 
L 143.028756 766.816437 
L 143.228239 765.573985 
L 143.541712 763.944993 
L 145.33706 760.659399 
L 151.606527 753.72928 
L 153.145396 751.879408 
L 155.539192 749.698215 
L 158.132472 748.152053 
L 158.787916 747.710292 
L 159.072892 747.296142 
L 158.132472 746.743941 
L 157.078061 745.94325 
L 156.308627 744.866459 
L 155.254216 743.541177 
L 154.285299 742.326336 
L 153.344879 741.139104 
L 152.318966 740.366023 
L 151.350048 739.869042 
L 149.725687 739.261622 
L 148.899257 739.261622 
L 148.215315 738.957911 
L 147.702359 738.350491 
L 147.44588 737.79829 
L 146.904426 734.153765 
L 146.476963 732.607603 
L 145.821519 731.530812 
L 144.938094 730.757731 
L 143.114249 729.377229 
L 141.603877 728.466098 
L 139.552052 726.864716 
L 136.901777 725.346164 
L 134.16601 723.855222 
L 132.570145 722.971701 
L 131.886204 722.11579 
L 131.601228 721.480759 
L 131.401745 720.818118 
L 131.059774 720.100258 
L 130.831793 719.548057 
L 130.090856 718.940636 
L 128.551987 719.106296 
L 127.241099 719.962207 
L 125.901712 721.287489 
L 124.562326 722.944091 
L 123.93538 723.717172 
L 123.251438 724.296983 
L 122.709984 724.407423 
L 122.28252 724.407423 
L 121.057124 723.551512 
L 118.463845 721.315099 
L 116.782488 719.492837 
L 115.756575 716.207243 
L 115.528595 713.97083 
L 115.215121 712.341838 
L 114.64517 711.955297 
L 113.676252 711.734417 
L 111.595929 712.231398 
L 110.627011 712.314228 
L 102.248724 713.059699 
L 101.336801 713.059699 
L 98.914507 713.611899 
L 98.145073 713.91561 
L 96.207237 715.434162 
L 93.727948 717.891455 
L 91.448142 719.989817 
L 90.707205 720.569628 
L 90.222746 721.287489 
L 88.65538 721.81208 
L 86.945525 721.508369 
L 85.435153 720.790508 
L 84.18126 719.989817 
L 84.06727 719.382397 
L 84.608724 718.692146 
L 85.720129 718.139945 
L 88.598384 716.538563 
L 89.481809 715.682652 
L 90.53622 714.716301 
L 91.305654 713.225359 
L 92.018094 709.636054 
L 92.616543 704.831908 
L 92.730533 702.402225 
L 92.502553 701.076943 
L 92.103586 699.806882 
L 91.989596 699.420341 
L 91.362649 698.39877 
L 90.849693 697.791349 
L 89.909273 697.708519 
L 88.569887 697.404809 
L 86.746042 697.101098 
L 85.520646 696.631728 
L 84.152763 696.079527 
L 80.790048 694.146825 
L 79.650145 692.738713 
L 79.536155 691.910412 
L 80.049111 691.192551 
L 81.502488 690.36425 
L 83.155347 689.646389 
L 83.981777 688.624818 
L 83.981777 687.796517 
L 83.981777 685.228783 
L 84.038772 682.992371 
L 83.611309 679.099356 
L 82.157932 675.454831 
L 81.445493 674.23999 
L 80.30559 673.411689 
L 78.139774 673.411689 
L 77.71231 673.743009 
L 77.626817 674.046719 
L 77.199354 674.65414 
L 76.600905 678.326275 
L 76.287431 682.21929 
L 76.002456 686.195135 
L 75.489499 688.762868 
L 74.463586 690.5023 
L 73.323683 691.717142 
L 72.383263 692.490223 
L 70.758901 693.787894 
L 70.217447 694.588585 
L 69.932472 695.527326 
L 69.875477 697.901789 
L 69.846979 700.110592 
L 69.846979 700.938893 
L 68.906559 701.546314 
L 66.826236 701.546314 
L 65.002391 701.187384 
L 63.520517 700.745623 
L 62.181131 699.227071 
L 61.981648 698.868141 
L 61.867658 698.61965 
L 60.813247 696.576508 
L 60.015315 694.312485 
L 59.445363 693.677454 
L 58.19147 693.401354 
L 55.569693 693.401354 
L 51.72252 693.677454 
L 47.248401 693.953554 
L 45.282068 694.063995 
L 44.227658 693.953554 
L 43.002262 692.324562 
L 38.927108 685.394444 
L 36.732795 679.265016 
L 35.336414 675.648101 
L 34.054023 672.141627 
L 34.054023 670.402195 
L 34.225008 669.877604 
L 35.96336 667.227041 
L 38.841616 663.223586 
L 40.408982 661.180443 
L 40.579968 660.352142 
L 40.608465 657.977679 
L 40.323489 656.707617 
L 40.067011 653.560073 
L 39.525557 650.55058 
L 38.699128 647.982846 
L 37.986688 646.823225 
L 35.877868 645.056183 
L 28.269015 639.147635 
L 26.815638 637.905184 
L 25.818223 637.242543 
L 25.048788 636.911222 
L 20.774152 635.641161 
L 18.608336 635.11657 
L 16.072052 634.426319 
L 14.618675 633.653238 
L 13.934733 632.686887 
L 13.307787 631.610096 
L 12.994313 630.505694 
L 12.880323 629.539343 
L 13.051309 628.655822 
L 13.564265 627.579031 
L 14.903651 626.005259 
L 15.787076 624.818027 
L 16.015057 624.210606 
L 15.587593 623.078595 
L 14.248207 621.145893 
L 13.193796 620.234761 
L 12.509855 619.654951 
L 10.999483 618.495329 
L 10.8 617.694638 
L 10.8 616.700677 
L 11.027981 615.955206 
L 12.538352 613.277033 
L 15.331115 609.687728 
L 20.061712 602.150189 
L 23.62391 598.864594 
L 25.020291 596.849062 
L 25.248271 594.585039 
L 25.248271 591.078565 
L 24.478837 586.937059 
L 23.880388 585.915488 
L 24.963296 581.884423 
L 25.476252 576.058706 
L 25.248271 572.276131 
L 25.761228 569.211417 
L 27.214604 567.140664 
L 35.877868 560.127715 
L 36.960775 559.327024 
L 38.157674 558.940484 
L 41.890856 558.940484 
L 45.310565 558.719604 
L 47.077415 558.001743 
L 49.357221 556.262311 
L 52.748433 553.169987 
L 54.914249 552.037975 
L 55.854669 551.844705 
L 56.681099 551.927535 
L 58.960905 553.252817 
L 61.155218 553.363257 
L 69.13454 551.596215 
L 73.779645 549.276972 
L 76.88588 547.068169 
L 80.191599 544.389996 
L 81.075024 543.313204 
L 82.157932 541.932702 
L 84.637221 539.116479 
L 85.891115 538.122518 
L 87.629467 537.238997 
L 89.567302 536.603966 
L 94.953344 535.830885 
L 96.264233 535.913715 
L 97.974087 536.631576 
L 99.541454 538.260568 
L 100.396381 539.144089 
L 101.137318 539.66868 
L 102.106236 539.97239 
L 104.443037 540.19327 
L 104.870501 540.22088 
L 105.782423 540.552201 
L 105.981906 540.745471 
L 106.779838 541.435722 
L 107.207302 542.043143 
L 107.549273 542.733393 
L 109.715089 546.571188 
L 110.541519 547.59276 
L 113.505267 549.580682 
L 117.751405 551.844705 
L 118.178869 552.037975 
L 118.862811 552.258855 
L 119.489758 552.424516 
L 119.803231 552.424516 
L 120.145202 552.369296 
L 120.800646 552.176025 
L 121.598578 551.513385 
L 130.860291 540.966351 
L 131.316252 540.441761 
L 131.686721 540.2761 
L 132.000194 540.24849 
L 132.598643 540.2761 
L 132.912116 540.38654 
L 133.396575 540.635031 
L 134.023522 541.049181 
L 138.098675 543.230374 
L 138.412149 543.396034 
L 140.834443 544.804146 
L 142.715283 545.770497 
L 143.769693 546.074208 
L 145.251567 546.239868 
L 146.562456 546.405528 
L 147.303393 546.405528 
L 147.873344 546.295088 
L 149.184233 545.963768 
L 150.637609 545.356347 
L 153.857835 543.837795 
L 154.883748 543.230374 
L 155.852666 542.374463 
L 160.982229 536.797236 
L 161.837157 535.692835 
L 163.746494 532.07592 
L 164.173958 531.109569 
L 164.230953 530.143218 
L 164.116963 528.431395 
L 163.91748 526.912843 
L 163.91748 526.167373 
L 164.002973 525.477122 
L 164.287948 524.759261 
L 164.74391 523.93096 
L 165.712827 522.716118 
L 166.368271 522.053477 
L 168.220614 520.093165 
L 169.389015 519.568574 
L 173.863134 518.243293 
L 176.000452 517.608262 
L 186.088595 516.835181 
L 189.964265 516.47625 
L 192.101583 516.28298 
L 193.412472 515.97927 
L 200.25189 516.03449 
L 201.249305 516.11732 
L 202.588691 516.36581 
L 205.010985 516.918011 
L 206.093893 517.249331 
L 207.005816 517.746312 
L 208.858158 519.071594 
L 209.941066 520.258825 
L 210.397027 520.728196 
L 211.736414 522.881778 
L 212.021389 523.130269 
L 212.334863 523.213099 
L 213.30378 523.268319 
L 214.073215 523.213099 
L 214.728659 523.102659 
L 215.669079 522.826558 
L 217.407431 522.191528 
L 218.433344 521.418447 
L 219.288271 520.672976 
L 220.029208 519.706624 
L 220.428174 518.464173 
L 222.024039 515.482289 
L 223.078449 514.018957 
L 225.956704 510.512483 
L 235.560388 501.373561 
L 237.29874 500.24155 
L 237.897189 499.965449 
L 241.003425 498.888658 
L 246.218481 496.845515 
L 246.47496 496.762685 
L 249.923166 494.360612 
L 250.920582 493.532311 
L 252.715929 492.013759 
L 254.454281 490.301937 
L 255.280711 489.169926 
L 255.793667 488.562505 
L 256.021648 488.286405 
L 256.278126 488.093134 
L 256.392116 487.899864 
L 257.389532 487.209613 
L 258.70042 486.905903 
L 259.868821 486.905903 
L 260.438772 487.016343 
L 260.980226 487.320053 
L 261.493183 487.817034 
L 262.034637 488.175965 
L 262.490598 488.286405 
L 263.231535 488.258795 
L 264.171955 488.175965 
L 264.941389 488.065524 
L 265.539838 487.844644 
L 265.881809 487.623764 
L 266.252278 487.099173 
L 266.594249 486.326092 
L 268.019128 482.792008 
L 270.840388 477.297611 
L 271.666817 475.420128 
L 271.353344 473.266546 
L 271.353344 471.968874 
L 272.151276 470.257052 
L 273.148691 469.0146 
L 273.604653 468.51762 
L 274.45958 467.993029 
L 275.314507 467.606489 
L 276.311922 467.164728 
L 286.57105 462.332972 
L 290.817189 460.59354 
L 293.581454 459.516748 
L 294.635864 458.522787 
L 295.205816 457.335556 
L 296.858675 453.718641 
L 297.457124 453.13883 
L 299.223974 453.30449 
L 302.387205 453.580591 
L 303.099645 453.773861 
L 303.954572 453.801471 
L 304.724006 453.746251 
L 305.350953 453.663421 
L 306.633344 453.332101 
L 307.231793 452.91795 
L 308.200711 451.868769 
L 308.770662 450.902417 
L 308.856155 450.626317 
L 308.856155 450.322607 
L 308.68517 450.046506 
L 308.257706 449.604746 
L 306.604847 448.555564 
L 305.008982 447.644433 
L 304.524523 447.202673 
L 304.32504 446.816132 
L 304.353538 445.04909 
L 304.410533 443.558148 
L 304.752504 437.539161 
L 304.866494 436.434759 
L 304.951987 435.385578 
L 305.322456 433.949856 
L 305.635929 433.618536 
L 305.892407 433.397655 
L 306.20588 433.231995 
L 306.519354 433.093945 
L 307.602262 432.624574 
L 316.436511 429.22854 
L 317.063457 429.03527 
L 317.319935 429.00766 
L 317.718901 428.98005 
L 318.174863 429.14571 
L 322.933958 430.829922 
L 324.44433 431.409733 
L 324.928788 431.630613 
L 325.327754 431.741053 
L 325.926204 431.741053 
L 326.32517 431.685833 
L 326.838126 431.244073 
L 327.351082 430.305331 
L 328.120517 428.86961 
L 328.861454 428.151749 
L 329.317415 427.765208 
L 329.887367 427.461498 
L 330.428821 427.295838 
L 330.998772 427.213008 
L 331.654216 427.185397 
L 332.480646 427.268228 
L 332.993603 427.406278 
L 342.255315 431.023192 
L 344.478126 431.851493 
L 345.475541 432.762625 
L 346.387464 433.590926 
L 348.011826 436.462369 
L 349.009241 438.864442 
L 349.237221 440.079284 
L 349.237221 441.404565 
L 348.809758 442.508967 
L 347.242391 443.502928 
L 345.903005 443.502928 
L 343.651696 442.950727 
L 342.19832 442.950727 
L 341.770856 443.392488 
L 341.314895 444.276009 
L 341.656866 445.490851 
L 343.993667 450.985248 
L 345.789015 453.967131 
L 347.470372 455.927444 
L 348.068821 456.755745 
L 348.239806 457.335556 
L 348.154313 457.887756 
L 347.270889 458.798887 
L 346.244976 459.351088 
L 343.794184 460.234609 
L 343.224233 461.00769 
L 343.338223 463.326933 
L 343.594701 464.127624 
L 344.022165 464.845485 
L 345.13357 465.287246 
L 346.700937 465.176805 
L 348.268304 463.299323 
L 349.265719 462.636682 
L 350.263134 462.526242 
L 351.944491 462.912783 
L 357.102553 466.391647 
L 363.913473 470.008562 
L 366.820226 471.858434 
L 368.729564 472.852395 
L 372.405751 475.171638 
L 373.517157 476.055159 
L 374.201099 476.60736 
L 374.856543 477.573711 
L 375.882456 479.230313 
L 376.309919 479.892954 
L 377.107851 480.224274 
L 378.447237 480.224274 
L 379.900614 479.230313 
L 383.633796 476.57975 
L 386.483554 474.150067 
L 388.022423 473.045665 
L 390.387722 472.079314 
L 392.382553 471.830824 
L 396.201228 472.383025 
L 401.102811 472.272584 
L 404.892989 471.499503 
L 407.457771 470.947303 
L 411.247948 470.284662 
L 413.613247 469.953342 
L 414.268691 469.511581 
L 414.724653 467.744539 
L 415.209111 464.458945 
L 415.551082 463.326933 
L 416.007044 462.222532 
L 417.175444 460.92486 
L 418.28685 460.262219 
L 419.170275 459.930899 
L 421.649564 459.599578 
L 422.98895 459.599578 
L 424.100355 460.262219 
L 424.86979 461.918821 
L 425.667722 464.320894 
L 426.323166 465.314856 
L 427.976026 465.811836 
L 430.141842 465.756616 
L 432.108174 465.176805 
L 435.299903 463.961964 
L 436.724782 463.547813 
L 442.082326 462.885173 
L 446.755929 462.664292 
L 452.027981 462.443412 
L 457.755994 462.277752 
L 459.608336 462.553852 
L 460.719742 462.774732 
L 463.597997 463.879134 
L 465.535832 464.735045 
L 467.331179 466.170767 
L 467.872633 466.943848 
L 468.556575 469.815291 
L 468.898546 472.659125 
L 469.667981 475.641009 
L 470.009952 477.297611 
L 470.351922 478.622892 
L 470.237932 480.031004 
L 469.44 481.024966 
L 468.556575 481.687606 
L 466.761228 482.460687 
L 463.968465 483.012888 
L 463.427011 483.344208 
L 462.743069 483.896409 
L 462.429596 485.000811 
L 462.543586 488.396845 
L 462.515089 493.062941 
L 461.517674 498.750608 
L 461.546171 500.29677 
L 462.657577 502.063812 
L 467.901131 508.44173 
L 469.012536 509.960282 
L 474.569564 513.715247 
L 477.761292 515.261409 
L 482.805363 517.332161 
L 484.714701 517.884362 
L 486.25357 517.939582 
L 487.19399 517.608262 
L 487.649952 517.166501 
L 487.963425 514.764428 
L 488.105913 513.715247 
L 488.675864 512.279525 
L 489.78727 510.843803 
L 491.696607 509.628962 
L 495.030824 508.19324 
L 497.481616 507.420159 
L 498.051567 506.674688 
L 498.393538 505.459846 
L 498.279548 504.465885 
L 498.165557 503.692804 
L 498.279548 502.588403 
L 498.792504 501.539221 
L 499.704426 500.49004 
L 501.727754 499.275199 
L 503.523102 498.943878 
L 504.064556 498.833438 
L 505.574927 499.496079 
L 509.593086 501.484001 
L 511.388433 502.588403 
L 512.043877 503.582364 
L 512.157868 504.686765 
L 511.730404 505.873997 
L 511.616414 506.978398 
L 511.844394 507.97236 
L 517.059451 513.411536 
L 520.080194 516.44864 
L 522.673473 518.657443 
L 523.214927 519.651404 
L 523.214927 521.169956 
L 523.072439 522.467628 
L 523.072439 522.660898 
L 524.269338 522.688508 
L 525.637221 522.688508 
L 527.461066 521.556497 
L 528.629467 519.402914 
L 529.968853 517.773922 
L 531.65021 515.785999 
L 534.841939 514.653988 
L 539.344556 513.163046 
L 543.049241 511.368394 
L 545.557027 510.374433 
L 548.406785 510.374433 
L 550.401616 510.705753 
L 553.593344 510.705753 
L 555.588174 510.043112 
L 557.782488 508.38651 
L 558.266947 506.260537 
L 559.121874 504.106955 
L 560.119289 502.312302 
L 562.627076 500.35199 
L 567.642649 497.535766 
L 573.855121 493.753192 
L 579.383651 490.301937 
L 583.401809 488.010304 
L 585.738611 488.010304 
L 587.932924 489.335586 
L 590.09874 490.964578 
L 592.264556 487.844644 
L 596.140226 481.936097 
L 602.3242 473.045665 
L 608.707658 464.514165 
L 614.407173 457.114675 
L 614.749144 456.590085 
L 618.596317 450.847197 
L 621.61706 445.766951 
L 622.443489 443.282048 
L 622.101519 441.818716 
L 620.591147 440.659095 
L 618.254346 438.864442 
L 615.062617 437.704821 
L 611.044459 436.87652 
L 607.368271 435.716898 
L 602.922649 434.584887 
L 603.293118 432.348474 
L 603.093635 430.443382 
L 601.953732 426.826467 
L 599.531438 421.691001 
L 597.422617 417.936036 
L 593.945913 412.717739 
L 592.179063 409.818686 
L 590.725687 408.410574 
L 589.557286 408.106863 
L 588.987334 408.217304 
L 588.132407 409.349315 
L 587.533958 410.674597 
L 586.964006 411.806608 
L 586.194572 412.193149 
L 585.425137 412.193149 
L 584.370727 411.530508 
L 579.839612 409.349315 
L 577.04685 407.637493 
L 576.163425 406.781582 
L 576.163425 406.036111 
L 576.847367 403.081837 
L 576.847367 400.044733 
L 575.39399 392.921344 
L 574.710048 389.60814 
L 573.855121 387.509777 
L 570.321422 382.595191 
L 568.355089 381.5184 
L 566.046785 380.662489 
L 564.507916 379.613307 
L 562.370598 376.769474 
L 561.629661 375.554632 
L 561.316187 374.560671 
L 561.031212 373.180169 
L 560.774733 371.689227 
L 559.748821 369.066274 
L 559.321357 363.820367 
L 559.321357 361.611565 
L 557.924976 359.264712 
L 555.388691 356.227608 
L 552.994895 354.571006 
L 550.629596 353.880755 
L 548.862746 352.583083 
L 547.893829 351.064531 
L 547.893829 349.96013 
L 548.036317 348.165478 
L 549.717674 339.164606 
L 550.145137 335.299201 
L 549.860162 333.780649 
L 548.862746 332.952348 
L 547.181389 332.814298 
L 545.785008 333.090399 
L 543.961163 333.780649 
L 541.168401 334.05675 
L 537.663199 333.9187 
L 532.59063 332.952348 
L 527.261583 331.433797 
L 523.898869 329.915245 
L 521.362585 328.148202 
L 519.966204 327.154241 
L 518.341842 325.91179 
L 517.458417 325.221539 
L 514.722649 323.012736 
L 515.378094 322.073995 
L 515.492084 321.908334 
L 515.834055 321.549404 
L 519.082779 318.12576 
L 519.282262 317.904879 
L 522.075024 315.696077 
L 524.326333 314.039475 
L 526.292666 312.797023 
L 527.546559 311.278471 
L 528.543974 308.655518 
L 529.370404 300.924708 
L 529.512892 295.540751 
L 529.997351 292.420817 
L 530.70979 289.107613 
L 531.821195 286.48466 
L 533.217577 284.413907 
L 534.642456 283.309506 
L 538.689111 282.205104 
L 541.225396 281.929004 
L 542.764265 281.929004 
L 545.300549 282.067054 
L 547.40937 282.205104 
L 549.090727 281.929004 
L 551.05706 281.100703 
L 553.422359 279.444101 
L 555.246204 276.406997 
L 556.528595 273.231843 
L 557.355024 271.851341 
L 559.748821 269.918639 
L 563.453506 267.627006 
L 565.562326 266.936755 
L 566.844717 266.798705 
L 568.782553 267.074805 
L 571.603813 268.731407 
L 574.681551 270.111909 
L 577.787787 270.66411 
L 584.228239 271.768511 
L 588.588368 273.287063 
L 591.096155 274.529515 
L 594.458869 274.805615 
L 597.280129 274.253414 
L 599.38895 273.287063 
L 601.212795 271.21631 
L 603.03664 271.878951 
L 605.202456 273.010963 
L 606.91231 273.231843 
L 608.508174 273.010963 
L 611.101454 271.989391 
L 613.951212 269.752979 
L 616.231018 267.737446 
L 618.396834 266.163674 
L 620.220679 265.721914 
L 622.927948 265.418203 
L 623.184426 265.390593 
L 623.412407 262.82286 
L 623.526397 259.343995 
L 623.640388 253.849599 
L 623.469402 249.984194 
L 622.55748 245.953129 
L 621.788045 241.784013 
L 622.130016 239.768481 
L 623.839871 237.642508 
L 626.062682 240.569172 
L 627.772536 242.805585 
L 629.339903 243.909986 
L 631.049758 243.909986 
L 633.529047 243.136905 
L 643.275218 238.249929 
L 649.829661 235.129995 
L 653.676834 232.921192 
L 656.726074 230.574339 
L 659.233861 228.807297 
L 660.687237 228.475976 
L 662.055121 228.586417 
L 662.739063 229.249057 
L 663.052536 230.463899 
L 663.736478 232.479432 
L 664.876381 234.246474 
L 667.0137 236.703767 
L 671.886785 241.397473 
L 675.505977 244.406967 
L 678.213247 245.511368 
L 681.148498 246.063569 
L 686.164071 246.588159 
L 687.987916 246.256839 
L 689.783263 245.124828 
L 691.835089 243.247345 
L 694.542359 240.348291 
L 696.594184 238.581249 
L 698.161551 237.918608 
L 700.213376 237.697728 
L 703.034637 237.808168 
L 705.627916 238.360369 
L 707.907722 240.044581 
L 710.04504 242.363824 
L 711.954378 246.229229 
L 713.236769 249.956584 
L 714.547658 252.938467 
L 715.45958 254.180919 
L 716.855961 254.346579 
L 718.223845 253.683938 
L 719.9337 251.557966 
L 721.187593 249.017842 
L 722.412989 243.661496 
L 722.75496 239.43716 
L 723.780872 236.317226 
L 725.091761 233.583833 
L 727.941519 228.365536 
L 730.078837 225.466483 
L 735.065913 221.463028 
L 739.483037 218.591584 
L 742.076317 217.128252 
L 743.672181 216.686492 
L 745.695509 216.907372 
L 751.138546 219.143785 
L 754.643748 220.275796 
L 757.237027 220.827997 
L 759.602326 220.165356 
L 763.221519 217.735673 
L 774.392569 209.673543 
L 778.125751 206.553609 
L 780.263069 205.559648 
L 782.314895 205.449207 
L 784.452213 205.670088 
L 786.618029 206.001408 
L 787.957415 205.918578 
L 788.527367 204.786567 
L 788.527367 203.571725 
L 787.643942 201.997953 
L 785.706107 200.230911 
L 784.13874 198.657139 
L 783.682779 197.442297 
L 783.454798 194.985004 
L 783.739774 193.273182 
L 784.423716 191.92029 
L 786.561034 191.036769 
L 790.864168 190.374128 
L 794.169887 189.490607 
L 796.193215 188.496646 
L 798.13105 187.281804 
L 799.584426 186.729604 
L 800.524847 186.619164 
L 801.180291 186.536333 
L 802.291696 186.950484 
L 805.027464 187.723565 
L 809.102617 188.966017 
L 812.921292 190.539789 
L 817.110436 192.776201 
L 818.7063 193.991043 
L 821.698546 195.620035 
L 823.721874 195.951355 
L 827.227076 195.951355 
L 833.696026 195.178274 
L 837.970662 194.184313 
L 842.957738 192.08595 
L 846.804911 190.098028 
L 848.856737 188.303376 
L 849.654669 187.088534 
L 850.680582 184.879731 
L 851.820485 183.52684 
L 853.159871 183.52684 
L 854.81273 185.045392 
L 856.380097 187.944445 
L 857.40601 189.490607 
L 858.061454 190.070418 
L 858.545913 190.070418 
L 858.859386 190.070418 
L 859.429338 189.849538 
L 859.999289 188.938407 
L 860.569241 185.155832 
L 860.711729 178.253323 
L 860.825719 174.249868 
L 861.737641 172.372386 
L 862.421583 171.930625 
L 864.216931 172.151505 
L 866.297254 172.979806 
L 868.235089 173.200687 
L 869.317997 173.173077 
L 873.763619 172.261945 
L 875.701454 170.688173 
L 877.325816 168.617421 
L 878.180743 163.758055 
L 878.209241 159.395669 
L 878.465719 157.214476 
L 879.206656 156.607056 
L 880.432052 156.607056 
L 881.172989 157.352527 
L 882.141906 160.14114 
L 882.512375 162.073843 
L 883.50979 162.432773 
L 884.364717 161.714912 
L 885.732601 158.926299 
L 887.356963 154.315423 
L 889.209305 148.986686 
L 890.634184 147.716624 
L 892.372536 147.357694 
L 894.338869 147.965115 
L 898.015057 150.284358 
L 898.613506 151.029829 
L 900.978805 154.177373 
L 903.429596 159.285229 
L 903.914055 163.758055 
L 904.91147 166.325788 
L 907.476252 168.396541 
L 909.699063 169.721822 
L 911.180937 170.108363 
L 913.403748 169.859872 
L 914.486656 169.362892 
L 916.481486 168.424151 
L 919.445234 168.06522 
L 922.893441 168.562201 
L 925.37273 168.672641 
L 927.709532 168.20327 
L 930.730275 166.933209 
L 931.870178 165.966858 
L 932.354637 164.613966 
L 931.984168 162.791703 
L 931.129241 160.859001 
L 931.129241 159.395669 
L 932.126656 157.573407 
L 933.49454 156.137685 
L 934.605945 155.778755 
L 935.945331 155.889195 
L 940.134475 156.993596 
L 948.626753 159.450889 
L 949.424685 159.67177 
L 951.220032 160.27919 
L 959.056866 162.957364 
L 961.051696 163.481954 
L 962.448078 163.509564 
L 963.929952 163.454344 
L 964.499903 163.426734 
L 965.782294 163.123024 
L 967.691632 162.460383 
L 968.461066 162.460383 
L 969.116511 162.846924 
L 969.202003 163.702835 
L 968.632052 164.807236 
L 968.233086 166.132518 
L 969.372989 168.20327 
L 971.196834 169.611382 
L 972.450727 170.108363 
L 973.961099 170.108363 
L 975.699451 169.638992 
L 978.435218 168.562201 
L 982.510372 166.657108 
L 985.103651 165.911637 
L 986.842003 165.939247 
L 988.152892 165.773587 
L 991.515606 163.537174 
L 998.782488 159.94787 
L 1000.862811 159.64416 
L 1003.085622 159.340449 
L 1013.259257 158.677808 
L 1016.308498 158.070388 
L 1019.129758 157.131646 
L 1021.552052 155.916805 
L 1024.173829 154.177373 
L 1025.855186 152.631211 
L 1027.964006 150.781338 
L 1029.44588 148.959076 
L 1030.813764 146.998764 
L 1031.868174 145.259331 
L 1032.609111 143.82361 
L 1033.92 141.835687 
L 1034.03399 141.697637 
L 1035.544362 141.973737 
L 1047.598837 146.639833 
L 1049.280194 148.185995 
L 1051.246527 150.560458 
L 1050.904556 158.788248 
L 1050.049628 168.03761 
L 1051.161034 180.903886 
L 1051.360517 183.55445 
L 1049.650662 191.47853 
L 1048.795735 194.460413 
L 1048.795735 197.331857 
L 1050.135121 200.120471 
L 1052.329435 202.274053 
L 1057.971955 205.780528 
L 1059.453829 206.940149 
L 1061.021195 208.790022 
L 1062.360582 210.833164 
L 1062.047108 215.885801 
L 1061.306171 217.514793 
L 1058.85538 223.782271 
L 1057.373506 226.764154 
L 1056.319095 229.635598 
L 1056.119612 231.48547 
L 1056.946042 233.142072 
L 1057.971955 234.771064 
L 1059.453829 236.234396 
L 1060.907205 238.194709 
L 1062.360582 241.369863 
L 1063.699968 245.594198 
L 1065.267334 248.686522 
L 1067.262165 251.060985 
L 1069.2 253.573498 
" clip-path="url(#p96aa09fdde)"/>
   </g>
  </g>
 </g>
 <defs>
  <clipPath id="p96aa09fdde">
   <rect x="10.8" y="141.697637" width="1058.4" height="796.604726"/>
  </clipPath>
 </defs>
</svg>
