<?xml version="1.0" encoding="utf-8" standalone="no"?>
<!DOCTYPE svg PUBLIC "-//W3C//DTD SVG 1.1//EN"
  "http://www.w3.org/Graphics/SVG/1.1/DTD/svg11.dtd">
<svg xmlns:xlink="http://www.w3.org/1999/xlink" width="1080pt" height="1080pt" viewBox="0 0 1080 1080" xmlns="http://www.w3.org/2000/svg" version="1.1">
 <metadata>
  <rdf:RDF xmlns:dc="http://purl.org/dc/elements/1.1/" xmlns:cc="http://creativecommons.org/ns#" xmlns:rdf="http://www.w3.org/1999/02/22-rdf-syntax-ns#">
   <cc:Work>
    <dc:type rdf:resource="http://purl.org/dc/dcmitype/StillImage"/>
    <dc:date>2022-07-01T13:43:25.709924</dc:date>
    <dc:format>image/svg+xml</dc:format>
    <dc:creator>
     <cc:Agent>
      <dc:title>Matplotlib v3.5.1, https://matplotlib.org/</dc:title>
     </cc:Agent>
    </dc:creator>
   </cc:Work>
  </rdf:RDF>
 </metadata>
 <defs>
  <style type="text/css">*{stroke-linejoin: round; stroke-linecap: butt}</style>
 </defs>
 <g id="figure_1">
  <g id="patch_1">
   <path d="M 0 1080 
L 1080 1080 
L 1080 0 
L 0 0 
L 0 1080 
z
" style="fill: none; opacity: 0"/>
  </g>
  <g id="axes_1">
   <g id="PatchCollection_1">
    <path d="M 404.184703 95.668502 
L 402.739161 104.644574 
L 402.509188 106.045096 
L 402.739161 108.273199 
L 403.231959 108.559669 
L 405.564539 108.9098 
L 405.991631 108.97346 
L 411.938068 115.594109 
L 412.430867 116.16705 
L 415.157686 119.604695 
L 415.81475 120.336786 
L 416.833201 121.991948 
L 418.213037 124.220051 
L 419.921406 127.434886 
L 421.465508 131.127171 
L 421.531214 131.413641 
L 421.432655 134.278345 
L 420.512764 136.060827 
L 417.851651 137.74782 
L 417.161733 138.893701 
L 416.931761 139.912263 
L 417.12888 141.058144 
L 418.114477 142.681477 
L 418.640129 143.700038 
L 415.880457 145.45069 
L 413.055078 147.455983 
L 412.332307 148.315394 
L 410.821058 149.429446 
L 407.995679 151.180098 
L 403.921877 150.607158 
L 402.83772 150.511667 
L 400.078048 150.034217 
L 398.533946 158.564669 
L 398.665359 159.32859 
L 399.223864 159.74238 
L 402.903427 162.065973 
L 406.845816 164.134926 
L 409.211249 161.524863 
L 411.182444 160.442641 
L 411.872362 160.347151 
L 412.56228 160.506301 
L 413.055078 161.015582 
L 414.073529 162.702574 
L 414.533474 165.153488 
L 415.321952 166.203879 
L 416.143283 166.55401 
L 417.785945 166.71316 
L 419.494313 166.172049 
L 420.874149 164.739697 
L 422.089719 163.402835 
L 422.253986 163.243685 
L 422.943904 163.180025 
L 423.962354 163.816626 
L 426.360641 165.758258 
L 429.744524 167.477081 
L 431.124361 168.050022 
L 433.161261 168.527472 
L 434.77107 168.559302 
L 436.479439 168.336492 
L 440.060442 167.286101 
L 442.622995 166.363029 
L 443.838565 166.363029 
L 444.758455 166.93597 
L 446.53253 169.100413 
L 447.94522 171.933287 
L 448.536578 172.315247 
L 449.226496 172.347078 
L 450.343506 172.187927 
L 452.938912 170.946556 
L 456.552769 169.227733 
L 459.279588 168.272832 
L 460.659424 167.19061 
L 461.447902 166.61767 
L 461.776434 166.394859 
L 462.203526 166.331199 
L 462.827738 166.331199 
L 473.012242 166.68133 
L 473.636454 166.93597 
L 474.556345 167.22244 
L 476.166153 168.113682 
L 477.644549 169.164073 
L 479.155798 170.055314 
L 480.929873 170.946556 
L 481.948324 171.519496 
L 481.948324 171.901457 
L 481.061286 174.03407 
L 480.437075 176.198513 
L 480.239955 178.108315 
L 480.404222 179.381517 
L 481.849764 182.023411 
L 483.163894 184.283344 
L 485.036528 185.906676 
L 486.547778 187.339028 
L 487.730494 188.61223 
L 488.453265 189.407981 
L 489.044624 190.681183 
L 489.438863 192.272685 
L 489.438863 193.577717 
L 488.650385 195.93314 
L 487.500521 198.161243 
L 487.336255 198.415884 
L 487.336255 198.797844 
L 487.829054 199.052484 
L 489.701689 199.466275 
L 490.884405 199.880066 
L 491.672883 200.675817 
L 492.067122 201.885358 
L 492.067122 202.617449 
L 491.64003 203.4132 
L 489.537422 205.386663 
L 488.157586 206.882675 
L 487.566228 207.678426 
L 487.599081 208.728818 
L 488.683238 210.09751 
L 490.52302 211.752672 
L 492.329948 212.198293 
L 493.414105 212.198293 
L 494.761088 212.102802 
L 496.40375 211.752672 
L 497.192227 211.466202 
L 498.900596 210.797771 
L 499.919046 210.41581 
L 500.608964 210.32032 
L 500.904644 210.32032 
L 501.200323 210.54313 
L 501.496002 211.593522 
L 501.463149 214.076265 
L 501.463149 214.617376 
L 501.627415 215.031166 
L 502.350186 215.572277 
L 503.105811 216.081558 
L 505.471244 216.336198 
L 507.540998 217.195609 
L 507.836677 217.35476 
L 508.26377 218.309661 
L 508.592302 219.264562 
L 508.559449 220.760574 
L 508.198063 221.715476 
L 507.672411 222.511227 
L 506.226869 224.007239 
L 504.912739 224.80299 
L 503.467196 226.394492 
L 503.105811 226.999263 
L 502.941545 227.476714 
L 502.744425 228.367955 
L 502.941545 229.513836 
L 504.288527 231.137169 
L 506.226869 232.760501 
L 507.081053 234.352003 
L 507.212466 236.420956 
L 508.855128 242.818795 
L 509.249367 243.741866 
L 509.676459 245.174218 
L 509.972138 246.79755 
L 510.432083 248.707353 
L 511.6148 251.285586 
L 513.027489 254.309441 
L 515.130097 257.046824 
L 516.707052 260.261659 
L 517.232704 261.471201 
L 517.199851 262.585252 
L 517.265557 264.972505 
L 517.232704 266.723158 
L 516.641346 266.659498 
L 516.017134 266.691328 
L 515.491482 266.945968 
L 515.06439 267.232439 
L 514.473032 267.709889 
L 514.04594 268.5693 
L 513.914527 269.301391 
L 513.914527 270.415443 
L 514.210206 271.879625 
L 514.341619 273.280147 
L 514.341619 274.107728 
L 514.013087 275.28544 
L 513.323169 276.494981 
L 512.271865 277.672693 
L 510.49779 278.977725 
L 508.428036 279.900796 
L 506.456841 280.410077 
L 504.879886 280.696547 
L 503.434343 280.441907 
L 500.97035 279.741646 
L 499.656221 279.359685 
L 499.294835 283.720401 
L 498.769183 285.916674 
L 498.144971 287.189876 
L 491.180084 295.147387 
L 491.048671 295.624838 
L 491.015818 296.102288 
L 491.574323 296.929869 
L 493.118426 298.616862 
L 495.976658 301.577056 
L 498.473504 306.256072 
L 503.861435 312.176461 
L 505.898336 313.449662 
L 507.442439 313.863453 
L 512.994636 313.736133 
L 517.528383 313.449662 
L 518.284008 313.640643 
L 519.203899 314.468224 
L 520.288056 316.091556 
L 520.649441 317.269268 
L 520.682295 318.637959 
L 519.959523 320.006651 
L 519.138192 320.611422 
L 518.513981 320.866063 
L 515.228657 320.452272 
L 514.1445 321.152533 
L 513.224609 322.075604 
L 512.600397 323.444296 
L 511.089148 330.669716 
L 507.212466 334.202851 
L 509.315073 337.831476 
L 510.267817 340.123239 
L 510.267817 341.141801 
L 510.103551 344.802256 
L 509.775019 350.436173 
L 511.286268 356.038261 
L 512.206158 358.330024 
L 513.290315 359.857866 
L 514.932977 361.035578 
L 519.795257 363.391001 
L 524.000472 365.650934 
L 525.281748 367.879037 
L 525.577427 369.311389 
L 525.380308 371.093872 
L 525.216042 372.207923 
L 525.413161 374.149556 
L 524.263298 376.345829 
L 523.113434 378.128312 
L 522.653489 380.069944 
L 522.752049 382.520858 
L 524.427564 388.377586 
L 524.69039 389.746278 
L 524.821803 395.634836 
L 522.45637 395.953136 
L 521.897864 396.335097 
L 521.503626 397.385488 
L 519.072486 403.496857 
L 516.838465 404.833718 
L 514.1445 406.648031 
L 513.158902 411.709008 
L 513.323169 413.586981 
L 514.1445 414.732862 
L 516.969878 416.260704 
L 518.941073 416.992795 
L 520.222349 417.724886 
L 520.288056 418.584297 
L 520.288056 419.539199 
L 520.419469 421.321681 
L 520.748001 423.390634 
L 521.306506 424.759326 
L 522.324957 427.40122 
L 522.423516 428.483441 
L 522.423516 428.960892 
L 522.16069 429.820303 
L 520.846561 431.316315 
L 520.058083 432.080236 
L 515.918575 434.340169 
L 504.452794 444.907744 
L 503.138664 446.785716 
L 502.645865 447.963428 
L 502.218773 450.923622 
L 501.594562 452.515124 
L 501.594562 454.329437 
L 501.988801 456.87584 
L 502.678719 461.204726 
L 503.20437 463.178189 
L 511.844773 467.666225 
L 512.501838 467.920866 
L 513.126049 473.140993 
L 513.126049 475.687396 
L 513.323169 480.589223 
L 514.374472 483.231117 
L 514.998684 483.549417 
L 515.425776 483.772227 
L 516.181401 483.199287 
L 518.218301 477.724519 
L 519.82811 474.286874 
L 520.813707 471.26302 
L 521.470772 469.798838 
L 521.832158 469.544198 
L 522.752049 469.671518 
L 524.953216 470.753739 
L 527.548622 471.581321 
L 529.618376 471.676811 
L 530.899652 471.19936 
L 532.443755 470.467269 
L 534.250683 468.143676 
L 537.437447 462.955379 
L 538.455898 461.141066 
L 538.718724 460.154335 
L 538.68587 459.072113 
L 539.080109 456.90767 
L 539.835734 454.966038 
L 541.642662 453.024405 
L 543.581003 450.828132 
L 544.796573 450.000551 
L 545.716464 449.013819 
L 546.209262 448.122578 
L 546.439235 446.944867 
L 546.307822 445.130554 
L 546.012143 443.984672 
L 546.176409 443.698202 
L 546.932034 443.093431 
L 548.607549 442.36134 
L 550.217358 441.97938 
L 551.498634 441.91572 
L 553.272709 442.23402 
L 555.276757 442.647811 
L 557.017979 442.52049 
L 558.824907 442.01121 
L 561.09178 440.769838 
L 563.030122 439.878597 
L 564.73849 439.592126 
L 570.126422 439.655786 
L 572.393295 439.910427 
L 574.134517 440.451538 
L 576.631363 441.756569 
L 578.635411 442.743301 
L 585.370325 446.021795 
L 585.698858 446.467416 
L 586.750161 448.281728 
L 587.768612 450.828132 
L 588.852769 454.202117 
L 589.181301 455.220678 
L 589.838366 456.016429 
L 590.495431 456.111919 
L 592.959424 455.984599 
L 594.864912 455.984599 
L 596.277601 456.46205 
L 598.643035 457.862572 
L 600.778495 458.944793 
L 601.731239 459.740544 
L 602.618277 460.536295 
L 603.702434 462.637078 
L 604.655178 464.737861 
L 604.655178 465.438122 
L 604.260939 466.233873 
L 603.275341 467.347925 
L 602.848249 467.857205 
L 602.74969 468.652957 
L 603.406754 469.735178 
L 604.392352 470.530929 
L 607.611969 471.51766 
L 609.74743 472.026941 
L 612.08001 472.090601 
L 614.872535 471.48583 
L 618.387832 470.658249 
L 620.950385 470.244459 
L 623.414378 470.339949 
L 625.582692 470.8174 
L 626.108344 470.626419 
L 626.732555 470.117139 
L 626.831115 469.321387 
L 626.206903 467.920866 
L 625.122746 465.438122 
L 625.089893 464.737861 
L 625.746958 464.22858 
L 628.408071 463.400999 
L 630.116439 463.305509 
L 631.956221 463.273679 
L 633.336057 463.87845 
L 635.077278 465.374462 
L 637.114179 466.965964 
L 638.165483 467.061454 
L 639.3482 466.456683 
L 640.728036 465.151652 
L 642.239285 464.13309 
L 642.863496 464.0376 
L 643.389148 464.0376 
L 644.998957 465.310802 
L 646.083114 465.724592 
L 646.937298 465.597272 
L 647.692923 465.024332 
L 648.645667 463.91028 
L 649.401291 462.700738 
L 649.926943 462.509758 
L 650.682568 462.477928 
L 654.854929 463.78296 
L 656.037646 464.578711 
L 657.121803 465.565442 
L 658.403079 466.265703 
L 659.782915 466.456683 
L 660.867072 466.456683 
L 661.721257 466.329363 
L 662.444028 465.820083 
L 663.528185 465.438122 
L 664.612342 465.215312 
L 666.32071 465.310802 
L 670.263099 466.584004 
L 672.727092 467.379755 
L 676.932307 468.875767 
L 679.724832 469.735178 
L 682.090266 471.454 
L 683.897194 473.045503 
L 685.079911 473.427463 
L 686.59116 473.618443 
L 687.149665 473.522953 
L 687.872436 473.427463 
L 689.679364 472.090601 
L 692.340477 470.403609 
L 693.621753 470.085308 
L 695.231562 470.085308 
L 696.611398 470.276289 
L 698.122647 471.07204 
L 698.878272 471.644981 
L 699.305364 472.472562 
L 699.305364 474.573345 
L 699.436777 475.846546 
L 700.718053 477.469879 
L 701.90077 479.252361 
L 702.459275 481.353144 
L 702.492128 484.440658 
L 702.163596 485.45922 
L 700.78376 487.050722 
L 700.58664 487.560003 
L 700.455227 488.164773 
L 701.013732 488.960525 
L 703.050633 492.270849 
L 705.416067 495.740324 
L 706.960169 498.732348 
L 707.485821 500.833131 
L 707.715793 503.538685 
L 707.420114 505.543977 
L 707.420114 506.753519 
L 707.518674 507.13548 
L 708.274298 507.64476 
L 710.11408 508.249531 
L 711.263943 508.217701 
L 713.859349 508.026721 
L 716.947554 507.008159 
L 721.218475 505.766788 
L 724.10956 505.066527 
L 725.719369 505.066527 
L 726.770673 505.543977 
L 727.329178 506.339729 
L 727.526297 508.154041 
L 727.559151 510.063844 
L 727.329178 511.846326 
L 727.460591 513.374168 
L 727.690564 513.851619 
L 729.300372 515.061161 
L 732.815669 516.939133 
L 734.556891 517.130113 
L 734.983983 517.034623 
L 735.706754 516.429852 
L 736.462379 515.029331 
L 737.612242 513.915279 
L 739.452024 513.501488 
L 741.061833 513.883449 
L 742.014577 513.883449 
L 742.868761 513.596979 
L 744.47857 512.992208 
L 747.895307 510.859595 
L 753.184678 503.315874 
L 755.320139 499.018818 
L 755.944351 497.427316 
L 755.944351 496.504245 
L 755.484405 494.817253 
L 755.484405 494.021502 
L 755.878644 493.289411 
L 756.010057 493.00294 
L 756.765682 491.793398 
L 760.182419 488.992355 
L 760.609511 488.769544 
L 761.233722 488.769544 
L 761.989347 489.278825 
L 763.402036 490.965817 
L 764.256221 492.493659 
L 765.044698 494.244312 
L 765.734616 496.281435 
L 766.227415 496.536075 
L 767.607251 496.249605 
L 770.366923 495.103723 
L 771.418227 494.689932 
L 772.272411 494.689932 
L 773.947926 495.294703 
L 775.722001 495.485684 
L 777.824609 495.167383 
L 780.025776 494.753593 
L 781.307052 495.040063 
L 782.884008 495.931304 
L 784.658083 497.395486 
L 786.037919 499.8464 
L 786.793544 501.024111 
L 788.17338 502.106333 
L 789.750335 502.679273 
L 793.298485 502.074503 
L 794.678321 502.774764 
L 796.058157 504.620906 
L 797.536553 506.976329 
L 799.014949 507.867571 
L 802.16886 508.822472 
L 804.370027 508.917962 
L 806.899727 508.504172 
L 813.306109 507.70842 
L 816.657139 507.48561 
L 817.609883 511.018745 
L 817.938416 513.756129 
L 817.741296 516.016062 
L 817.971269 518.689786 
L 819.778197 521.522659 
L 820.829501 523.782593 
L 820.796648 525.214945 
L 819.449665 527.411218 
L 818.234095 528.716249 
L 815.868662 530.530562 
L 818.102682 533.968207 
L 819.745344 538.328923 
L 817.642737 539.124674 
L 815.441569 540.015915 
L 814.094587 541.607417 
L 812.944723 544.949572 
L 811.039235 547.018525 
L 805.651304 549.787739 
L 803.417283 550.328849 
L 799.869133 550.90179 
L 798.292178 551.888521 
L 796.18957 555.230676 
L 793.167072 559.082111 
L 790.571666 560.991914 
L 788.271939 562.360606 
L 784.42811 563.315507 
L 781.011373 563.952108 
L 777.233251 568.535634 
L 776.181947 570.763737 
L 772.76521 573.978572 
L 769.775565 577.989157 
L 768.855674 579.230529 
L 769.381326 584.864447 
L 770.465483 589.957254 
L 777.463223 591.039475 
L 781.964117 594.6681 
L 786.070772 598.487706 
L 791.458704 601.70254 
L 793.659871 602.530121 
L 796.123864 602.848422 
L 799.047802 602.912082 
L 802.103154 603.389532 
L 806.636901 604.758224 
L 810.940675 607.081818 
L 814.521679 608.068549 
L 820.205289 608.92796 
L 822.406456 609.1826 
L 825.593221 609.309921 
L 827.991507 608.95979 
L 830.159821 608.291359 
L 831.473951 608.132209 
L 834.529302 608.51417 
L 836.730469 609.08711 
L 837.880333 609.564561 
L 838.208865 610.264822 
L 838.208865 610.965083 
L 838.833077 613.320506 
L 839.720114 614.530048 
L 841.09995 615.86691 
L 843.071145 616.758151 
L 844.713807 617.426582 
L 846.422175 618.095013 
L 847.473479 619.177234 
L 849.707499 621.246187 
L 850.955923 621.723638 
L 854.734045 621.787298 
L 857.690837 621.787298 
L 859.563472 621.978278 
L 860.319096 622.551219 
L 860.647629 623.63344 
L 860.647629 624.811152 
L 861.17328 625.797883 
L 862.783089 627.803176 
L 864.590017 630.31775 
L 865.674174 631.622781 
L 866.298386 632.323042 
L 866.988304 633.246114 
L 867.579662 633.787224 
L 869.255178 634.869446 
L 870.864986 635.697027 
L 873.13186 636.811079 
L 874.905935 637.193039 
L 876.187211 637.097549 
L 876.909983 637.097549 
L 877.435634 637.575 
L 878.716911 639.930423 
L 879.045443 641.330945 
L 878.716911 642.190356 
L 878.716911 642.986107 
L 879.144003 643.877348 
L 880.852371 646.041791 
L 882.527887 647.505973 
L 883.250658 647.792444 
L 884.301962 647.792444 
L 886.10889 647.283163 
L 886.930221 647.474143 
L 888.507177 648.747345 
L 890.182692 649.638586 
L 893.665135 650.784468 
L 897.443258 652.05767 
L 899.118773 652.662441 
L 900.170077 653.330871 
L 900.827142 654.508583 
L 900.827142 655.686295 
L 900.925702 656.482046 
L 901.681326 657.054987 
L 903.356841 657.946228 
L 904.178172 658.041718 
L 905.130916 657.627927 
L 907.332083 656.259235 
L 908.284827 656.354726 
L 909.237571 656.927666 
L 910.223169 657.978058 
L 911.504445 659.123939 
L 912.654308 659.72871 
L 914.954035 660.015181 
L 918.009387 660.397141 
L 919.35637 660.588121 
L 920.834765 661.574853 
L 923.890117 664.598707 
L 924.645741 665.967399 
L 925.697045 669.118573 
L 926.452669 670.200795 
L 927.405413 671.187526 
L 929.606581 672.046937 
L 931.906307 672.619878 
L 934.238888 674.08406 
L 936.242935 675.866543 
L 937.91845 678.317456 
L 938.542662 680.195429 
L 939.495406 681.15033 
L 941.302334 681.946081 
L 942.452198 682.455362 
L 943.470648 682.932812 
L 944.127713 683.314773 
L 944.686218 683.505753 
L 945.737522 684.110524 
L 946.920238 684.810785 
L 949.022846 685.893006 
L 952.373876 687.548169 
L 953.885125 688.152939 
L 955.85632 688.72588 
L 957.531835 689.298821 
L 958.484579 690.094572 
L 958.944524 691.335944 
L 959.108791 692.736466 
L 959.437323 693.436727 
L 960.390067 694.200648 
L 962.591234 694.805419 
L 965.843705 695.76032 
L 968.471964 695.9513 
L 971.822995 695.85581 
L 972.775739 695.53751 
L 973.202831 695.060059 
L 973.169978 692.609146 
L 973.49851 690.635683 
L 974.221281 687.389018 
L 975.141172 685.511046 
L 976.619568 683.537583 
L 978.459349 681.27765 
L 979.904892 679.717978 
L 980.824783 678.922227 
L 981.61326 678.253796 
L 984.602905 676.025693 
L 986.245567 675.229942 
L 987.855376 674.497851 
L 993.013335 673.001839 
L 997.185697 671.824127 
L 998.664092 671.633147 
L 999.616836 671.919617 
L 1000.7667 672.492558 
L 1002.540775 672.874518 
L 1004.21629 672.970009 
L 1005.366153 672.683538 
L 1006.023218 672.078767 
L 1006.121778 671.505827 
L 1005.793246 670.710075 
L 1005.366153 669.723344 
L 1005.563273 669.341384 
L 1006.088925 669.150403 
L 1009.965607 667.04962 
L 1012.495307 664.980668 
L 1013.64517 664.598707 
L 1014.893593 664.375897 
L 1016.043457 664.566877 
L 1017.226173 664.885177 
L 1018.901689 666.63583 
L 1020.380084 669.182233 
L 1020.905736 671.155696 
L 1021.398535 672.556218 
L 1022.219866 673.92491 
L 1023.369729 675.070791 
L 1027.213558 677.903665 
L 1028.494835 678.253796 
L 1030.630296 678.381116 
L 1032.568637 678.572096 
L 1034.408418 678.826737 
L 1034.112739 680.195429 
L 1033.291408 683.155623 
L 1032.765756 684.651635 
L 1032.338664 686.911568 
L 1032.371517 688.089279 
L 1033.192848 689.553461 
L 1034.999777 692.800126 
L 1036.14964 695.155549 
L 1038.909312 697.097182 
L 1042.358902 699.166135 
L 1044.36295 700.630317 
L 1044.822895 701.362408 
L 1045.052868 703.24038 
L 1045.47996 706.168744 
L 1046.235585 708.046717 
L 1047.484008 709.319919 
L 1048.436752 709.92469 
L 1049.586615 710.11567 
L 1051.065011 709.797369 
L 1052.116315 709.892859 
L 1052.937646 710.27482 
L 1054.317482 711.675342 
L 1055.795878 713.521485 
L 1056.420089 714.794686 
L 1056.420089 715.781418 
L 1056.025851 716.481679 
L 1054.218922 717.75488 
L 1053.397591 718.455141 
L 1053.299032 718.837102 
L 1055.171666 721.351675 
L 1057.33998 722.242917 
L 1059.146908 723.388798 
L 1061.052396 724.85298 
L 1062.990738 726.826443 
L 1063.352123 727.431214 
L 1064.239161 728.099645 
L 1065.454731 729.277356 
L 1066.078942 730.359578 
L 1066.177502 731.028009 
L 1065.980382 731.95108 
L 1065.454731 733.319772 
L 1065.257611 735.197744 
L 1065.356171 737.553168 
L 1066.111795 740.099571 
L 1066.538888 741.977544 
L 1066.96598 743.537216 
L 1068.017283 746.68839 
L 1069.068587 749.330284 
L 1069.2 750.030545 
L 1068.970027 751.399237 
L 1068.575788 753.181719 
L 1067.98443 754.0093 
L 1066.111795 754.996032 
L 1062.760765 756.874004 
L 1061.282369 757.860736 
L 1061.183809 758.656487 
L 1061.742314 762.889883 
L 1062.267966 764.258575 
L 1063.089297 764.831515 
L 1064.896225 765.627266 
L 1065.290464 766.613998 
L 1066.046089 769.255891 
L 1066.374621 771.706805 
L 1066.703154 773.489287 
L 1066.177502 774.476019 
L 1064.797666 776.035691 
L 1063.187857 778.072814 
L 1063.516389 778.868565 
L 1065.947529 781.510458 
L 1067.918724 783.897712 
L 1066.998833 784.406992 
L 1064.272014 785.266404 
L 1061.676608 785.998495 
L 1059.114055 786.412285 
L 1056.781475 787.017056 
L 1055.0074 787.971957 
L 1053.200472 789.563459 
L 1052.280581 790.677511 
L 1049.553762 792.650974 
L 1047.484008 793.128424 
L 1044.46151 792.778294 
L 1042.12893 791.791563 
L 1039.434964 790.422871 
L 1034.736951 788.576728 
L 1032.141545 788.481238 
L 1030.433176 789.086009 
L 1028.363422 790.327381 
L 1027.312118 790.677511 
L 1025.997989 789.94542 
L 1025.340924 788.481238 
L 1024.158207 786.412285 
L 1023.139757 786.189475 
L 1021.168562 786.412285 
L 1018.047504 787.176206 
L 1013.086665 788.544898 
L 1011.016911 789.531629 
L 1010.359846 790.391041 
L 1009.604222 792.078033 
L 1008.027266 795.993128 
L 1007.008815 798.571362 
L 1005.694686 800.067374 
L 1003.624932 801.786196 
L 1002.705041 802.995738 
L 1002.475068 804.71456 
L 1002.343655 807.515604 
L 1001.686591 809.711877 
L 1000.142488 811.93998 
L 997.941321 813.149522 
L 995.707301 813.658803 
L 993.867519 813.531483 
L 992.45483 813.435992 
L 989.00524 813.245012 
L 986.245567 813.372332 
L 984.0444 814.008933 
L 978.952148 815.250305 
L 975.338292 817.223768 
L 973.104271 818.560629 
L 972.217234 819.929321 
L 971.691582 824.799318 
L 971.330196 825.91337 
L 970.278892 826.29533 
L 968.83335 825.91337 
L 965.449466 824.099057 
L 959.831562 822.030104 
L 956.579091 821.679974 
L 952.899528 821.679974 
L 949.647057 822.316575 
L 946.657412 823.303306 
L 943.799181 825.276769 
L 940.021058 828.459773 
L 937.031413 831.038007 
L 936.144375 832.152058 
L 936.275788 833.011469 
L 937.129973 834.411991 
L 939.495406 836.958395 
L 943.273529 839.632119 
L 946.033201 840.74617 
L 948.365781 843.037933 
L 950.862627 845.743487 
L 952.176757 848.544531 
L 953.228061 849.276622 
L 954.377924 849.276622 
L 956.87477 849.021982 
L 958.681699 849.117472 
L 959.601589 849.849563 
L 960.915719 851.695705 
L 962.229849 855.833611 
L 963.149739 858.284524 
L 964.102483 861.212888 
L 964.102483 863.409161 
L 963.511125 865.573604 
L 963.018326 868.247328 
L 963.281152 870.093471 
L 963.412565 871.684973 
L 964.595282 873.499285 
L 967.354954 876.300329 
L 969.030469 878.623922 
L 971.001664 881.202156 
L 971.133077 882.539018 
L 970.903104 883.78039 
L 970.114626 885.467382 
L 968.176285 887.568165 
L 965.712292 889.668948 
L 967.157835 892.469992 
L 967.552074 894.284304 
L 967.157835 895.652996 
L 965.909411 897.180838 
L 964.628135 899.249791 
L 964.496722 900.618483 
L 964.890961 901.700704 
L 966.205091 905.233839 
L 966.862155 908.066713 
L 968.209138 911.249717 
L 969.654681 914.910172 
L 970.443159 918.697948 
L 971.100223 923.345134 
L 971.133077 926.273498 
L 971.527316 928.724412 
L 972.3815 930.475064 
L 973.794189 931.461795 
L 976.291036 931.334475 
L 977.210926 931.334475 
L 979.674919 934.61297 
L 980.331984 936.204472 
L 980.102011 938.400745 
L 979.773479 940.947148 
L 979.707773 941.360939 
L 980.102011 944.639434 
L 981.021902 946.963027 
L 981.941793 948.077078 
L 984.307226 949.54126 
L 986.508393 951.005442 
L 985.095704 953.201715 
L 983.420189 956.034589 
L 983.157363 958.453673 
L 983.058803 962.018637 
L 982.664564 964.819681 
L 981.777527 967.779875 
L 979.57636 972.554382 
L 978.032257 976.596798 
L 976.718128 978.06098 
L 975.305438 978.57026 
L 972.18438 979.047711 
L 966.566476 980.289083 
L 965.515173 978.47477 
L 962.131289 974.941635 
L 957.039037 970.421769 
L 953.359474 966.888634 
L 948.924286 962.241448 
L 946.296027 960.809096 
L 944.291979 960.618116 
L 940.776682 961.604847 
L 939.199727 962.973539 
L 936.242935 966.888634 
L 934.403154 968.225496 
L 932.464813 968.862097 
L 931.150683 968.862097 
L 928.423864 968.384646 
L 925.828458 969.021247 
L 923.495878 969.880658 
L 920.999032 971.21752 
L 918.04224 974.177714 
L 915.052595 976.501307 
L 908.547653 980.702873 
L 906.872138 981.053004 
L 904.375292 980.448233 
L 900.071517 978.63392 
L 897.837497 977.424379 
L 895.242091 977.328889 
L 891.463968 978.57026 
L 887.817259 979.429672 
L 883.644897 978.697581 
L 877.79702 977.010588 
L 873.821778 976.183007 
L 871.456345 975.514576 
L 868.860939 974.782485 
L 863.900099 972.840852 
L 859.202086 971.4085 
L 855.818202 971.05837 
L 853.617035 970.93105 
L 849.31326 971.0902 
L 847.473479 971.822291 
L 846.717854 972.681702 
L 846.06079 974.400525 
L 845.173752 980.034442 
L 844.943779 983.090127 
L 844.155302 984.426988 
L 843.761063 985.2864 
L 842.611199 986.018491 
L 838.833077 987.387183 
L 836.106258 988.246594 
L 834.167917 990.220056 
L 831.703924 994.262472 
L 830.521207 995.249203 
L 829.108518 995.249203 
L 827.268736 995.153713 
L 824.147678 994.899073 
L 821.420859 994.071492 
L 819.055426 993.721361 
L 817.379911 994.326132 
L 815.605836 995.662994 
L 813.700348 998.368548 
L 811.072088 1004.002465 
L 808.936628 1007.853901 
L 806.801167 1009.891024 
L 803.680109 1010.814095 
L 798.423591 1012.182787 
L 791.951502 1013.551479 
L 788.337646 1010.877755 
L 785.183735 1008.172201 
L 783.738192 1003.684165 
L 782.029824 1000.532991 
L 779.598684 997.381816 
L 773.816514 993.11659 
L 766.88448 988.628554 
L 764.45334 987.387183 
L 762.744971 986.814242 
L 759.328234 986.145811 
L 756.897095 985.25457 
L 755.812938 984.458818 
L 755.188726 983.535747 
L 755.188726 982.612676 
L 755.418699 981.466794 
L 756.765682 980.448233 
L 757.718426 979.429672 
L 758.342637 978.28379 
L 759.032555 974.273204 
L 759.853886 969.371378 
L 759.985299 967.079614 
L 759.59106 965.265302 
L 758.014105 962.527918 
L 757.028508 961.286546 
L 756.371443 960.649946 
L 755.188726 959.472234 
L 754.695927 958.549163 
L 754.695927 957.307791 
L 754.564515 954.347597 
L 754.170276 950.909952 
L 754.170276 948.650019 
L 754.663074 947.822438 
L 755.484405 947.249497 
L 757.685572 945.212374 
L 758.868289 943.589042 
L 759.131115 942.920611 
L 759.098262 942.22035 
L 758.638316 941.329109 
L 758.112665 939.960417 
L 758.112665 939.037346 
L 758.244077 938.368915 
L 759.68962 937.095713 
L 760.675217 936.395452 
L 761.627961 935.822511 
L 764.059101 935.02676 
L 767.344425 934.54931 
L 768.428582 933.849049 
L 768.888527 933.053298 
L 768.888527 932.034736 
L 768.658555 931.238985 
L 767.80437 930.443234 
L 764.617606 928.055981 
L 762.055053 926.241668 
L 760.970896 925.573237 
L 759.985299 925.223107 
L 759.262528 924.777486 
L 759.032555 923.981735 
L 758.638316 923.058664 
L 758.276931 920.894221 
L 757.784132 920.00298 
L 756.207177 918.857098 
L 754.991607 918.061347 
L 753.776037 917.838537 
L 751.706283 917.870367 
L 748.420959 918.220497 
L 744.642836 919.016248 
L 741.127539 919.971149 
L 739.550584 920.54409 
L 738.466427 921.689972 
L 736.298113 925.000296 
L 734.85257 926.814609 
L 733.177055 928.533431 
L 731.107301 930.029443 
L 729.300372 930.729704 
L 728.183362 930.857024 
L 726.869233 930.857024 
L 725.752222 930.506894 
L 724.799479 929.838463 
L 723.945294 928.119641 
L 722.828284 925.063956 
L 721.9741 922.899514 
L 721.349888 921.976442 
L 720.265731 921.435331 
L 718.42595 921.212521 
L 716.980407 921.212521 
L 715.764837 921.658142 
L 713.695083 923.727095 
L 710.179786 926.496308 
L 708.372858 927.992321 
L 707.157288 928.565261 
L 706.56593 928.119641 
L 706.204544 927.865 
L 706.204544 927.196569 
L 706.56593 926.273498 
L 707.387261 924.681996 
L 707.978619 922.294743 
L 708.110032 920.4486 
L 707.485821 918.188667 
L 706.270251 916.819975 
L 705.153241 916.374354 
L 704.660442 916.247034 
L 703.839111 916.469845 
L 702.492128 917.520236 
L 700.915173 919.239058 
L 698.024087 923.026834 
L 696.578545 924.841146 
L 695.362975 925.414087 
L 694.410231 925.541407 
L 693.293221 925.541407 
L 692.701862 925.318597 
L 691.979091 925.095787 
L 690.369282 923.727095 
L 687.675317 920.798731 
L 686.098361 918.061347 
L 684.751378 916.915465 
L 682.813037 915.801414 
L 680.973256 914.878342 
L 679.133474 913.06403 
L 675.84815 908.416844 
L 675.092525 907.048152 
L 674.961112 906.252401 
L 675.092525 904.310768 
L 675.683884 902.019005 
L 676.275242 900.873123 
L 676.8666 900.300182 
L 678.08217 899.727242 
L 680.381897 898.80417 
L 681.137522 898.135739 
L 681.498907 897.562799 
L 682.320238 896.512407 
L 683.897194 892.979272 
L 684.25858 891.960711 
L 684.225726 890.910319 
L 683.634368 890.019078 
L 682.878743 889.096007 
L 681.564614 888.204766 
L 679.133474 887.409015 
L 677.523665 886.963394 
L 676.439508 886.390453 
L 675.322498 885.149081 
L 673.975515 882.761828 
L 672.924212 880.883856 
L 672.825652 880.279085 
L 672.792799 879.515164 
L 672.891358 878.974053 
L 673.187037 878.401112 
L 673.876956 877.2234 
L 674.271194 876.61863 
L 674.369754 876.173009 
L 674.271194 875.791048 
L 674.041222 875.377258 
L 673.909809 875.218108 
L 673.41701 874.867977 
L 670.525925 873.594775 
L 665.762205 871.303012 
L 664.250956 870.602751 
L 662.674 870.188961 
L 658.501639 869.58419 
L 656.530444 869.52053 
L 655.314875 869.52053 
L 645.951701 870.348111 
L 636.358555 872.321574 
L 635.898609 872.321574 
L 635.077278 871.971443 
L 634.420214 871.271182 
L 634.38736 869.96615 
L 634.781599 868.852099 
L 635.405811 867.801707 
L 635.60293 867.356087 
L 635.60293 866.560336 
L 634.748746 864.141252 
L 634.354507 863.250011 
L 633.138937 862.3906 
L 632.284753 861.944979 
L 631.857661 861.690339 
L 631.463422 861.181058 
L 631.167743 860.417137 
L 631.167743 859.780536 
L 631.529128 858.252694 
L 632.021927 856.533872 
L 632.481872 855.992761 
L 633.664589 855.706291 
L 635.570077 855.610801 
L 636.621381 855.610801 
L 637.902657 855.13335 
L 639.315346 854.146619 
L 640.662329 852.873417 
L 641.155128 852.332306 
L 641.253688 851.791195 
L 641.220834 850.868124 
L 641.023715 849.690412 
L 641.023715 848.608191 
L 641.220834 847.71695 
L 641.58222 846.793878 
L 642.173578 845.902637 
L 642.929203 845.616167 
L 644.01336 845.616167 
L 645.163223 846.698388 
L 646.313087 847.8761 
L 647.101564 848.321721 
L 647.594363 848.321721 
L 648.711373 847.74878 
L 653.803626 838.740877 
L 652.32523 837.244865 
L 649.434145 835.271403 
L 647.791482 834.475651 
L 646.4445 834.125521 
L 643.356295 833.77539 
L 642.370698 833.32977 
L 641.417954 832.438529 
L 640.826595 831.260817 
L 640.629476 830.178596 
L 640.728036 828.523433 
L 640.695183 827.441212 
L 640.596623 826.549971 
L 639.742439 824.640168 
L 638.953961 822.571215 
L 637.475565 819.961151 
L 636.030022 817.796708 
L 635.635783 817.351088 
L 634.781599 817.160108 
L 633.434616 817.191938 
L 631.693395 817.096447 
L 630.674944 816.841807 
L 629.755053 816.650827 
L 627.619593 815.759586 
L 625.878371 815.409455 
L 623.480084 815.059325 
L 619.899081 814.804684 
L 617.205115 814.741024 
L 615.168215 814.741024 
L 611.422945 815.950566 
L 609.221778 816.778147 
L 607.480556 817.223768 
L 605.476509 817.605728 
L 604.195232 817.510238 
L 600.449963 816.364356 
L 599.00442 815.727756 
L 598.511622 815.186645 
L 598.215942 814.199913 
L 597.526024 813.404162 
L 596.67184 812.672071 
L 593.485076 810.794099 
L 591.80956 809.711877 
L 590.068339 808.470506 
L 588.819916 807.483774 
L 588.425677 806.560703 
L 588.195704 804.969201 
L 588.129998 803.473189 
L 587.834318 803.027568 
L 587.374373 802.995738 
L 586.355923 803.314038 
L 583.366278 804.45992 
L 580.24522 805.542142 
L 579.719568 805.764952 
L 577.748373 806.560703 
L 576.467097 806.879003 
L 575.087261 807.038154 
L 573.740278 806.942663 
L 572.754681 806.783513 
L 571.144872 806.242402 
L 570.389248 806.051422 
L 569.69933 806.115082 
L 569.107971 806.210572 
L 567.202483 807.038154 
L 566.578272 807.388284 
L 564.771343 808.852466 
L 563.325801 810.221158 
L 562.800149 810.762269 
L 562.537323 811.303379 
L 562.30735 811.84449 
L 562.143084 812.703901 
L 561.945965 813.626973 
L 561.847405 814.518214 
L 561.847405 814.900174 
L 561.847405 815.282135 
L 561.913111 815.504945 
L 562.208791 816.778147 
L 563.161535 818.78344 
L 563.588627 819.579191 
L 564.147132 820.438602 
L 565.329849 821.011543 
L 566.775391 820.979713 
L 566.906804 821.552654 
L 566.775391 822.189254 
L 566.315446 823.335136 
L 565.428408 825.435919 
L 563.358654 831.006177 
L 562.570176 831.770098 
L 561.650286 832.565849 
L 560.533275 833.011469 
L 559.219146 833.10696 
L 557.445071 833.13879 
L 553.732655 832.470359 
L 551.104395 832.056568 
L 547.424832 830.942517 
L 544.895133 829.955785 
L 543.712416 829.287354 
L 541.905488 827.186571 
L 539.737174 824.067227 
L 538.521604 822.061934 
L 537.207475 820.597752 
L 536.123318 820.056642 
L 533.626471 819.388211 
L 530.866799 818.401479 
L 529.45411 817.860369 
L 526.563025 817.096447 
L 524.887509 816.428017 
L 523.704793 815.886906 
L 522.029277 814.327234 
L 520.94512 812.544751 
L 519.729551 810.412138 
L 518.776807 809.425407 
L 516.838465 808.311355 
L 515.16295 807.069984 
L 514.703005 806.401553 
L 514.703005 805.414821 
L 515.130097 802.263647 
L 515.721455 798.253061 
L 516.27996 794.560776 
L 516.641346 793.096594 
L 517.824063 790.391041 
L 517.791209 789.62712 
L 517.068438 788.958689 
L 514.440179 787.399016 
L 507.015346 783.643071 
L 504.879886 782.87915 
L 502.251627 782.210719 
L 498.900596 781.669609 
L 497.126521 781.351308 
L 495.549565 780.587387 
L 494.596821 779.791636 
L 491.837149 777.022422 
L 490.982965 776.353991 
L 489.931661 776.035691 
L 485.627887 776.831442 
L 483.262453 777.531703 
L 481.652645 778.231964 
L 479.911423 779.568826 
L 478.630147 780.682877 
L 477.316017 780.810197 
L 476.363273 780.810197 
L 474.556345 780.046276 
L 471.5667 778.263794 
L 470.745369 778.168304 
L 469.792625 778.263794 
L 468.938441 778.741245 
L 468.478495 779.632486 
L 467.657164 780.205427 
L 465.521704 781.319478 
L 463.25483 782.338039 
L 461.710728 782.68817 
L 460.035212 782.46536 
L 455.370052 781.733269 
L 453.694537 781.510458 
L 453.103179 780.937518 
L 452.873206 780.269087 
L 452.840353 779.377845 
L 452.478967 778.836735 
L 451.657636 778.263794 
L 449.259349 777.499873 
L 447.485274 777.181572 
L 445.546933 777.213402 
L 444.49563 777.531703 
L 442.458729 778.773075 
L 438.779166 780.937518 
L 433.194115 782.75183 
L 428.923193 783.897712 
L 426.163521 784.470652 
L 422.451105 784.502482 
L 420.939856 784.502482 
L 417.326 783.515751 
L 411.839508 781.987909 
L 409.802607 781.796929 
L 408.619891 782.019739 
L 396.497045 788.799538 
L 394.952943 789.72261 
L 393.080308 791.282282 
L 392.357537 792.396333 
L 392.127564 793.192084 
L 392.48895 794.879077 
L 392.751776 796.311429 
L 392.620363 797.2345 
L 391.339086 799.016983 
L 389.663571 800.703975 
L 383.881401 807.897565 
L 383.651428 808.788806 
L 381.877353 810.921419 
L 380.004718 812.863052 
L 378.559176 813.849783 
L 377.507872 813.977103 
L 376.062329 813.658803 
L 375.109585 813.658803 
L 374.64964 813.881613 
L 373.696896 814.900174 
L 372.612739 816.364356 
L 371.232903 819.833831 
L 370.772958 821.425333 
L 370.772958 822.189254 
L 371.134343 823.080496 
L 371.627142 823.971737 
L 371.627142 824.640168 
L 371.495729 825.97703 
L 370.674398 828.236963 
L 370.345865 829.796635 
L 369.294562 832.502189 
L 368.473231 834.507481 
L 367.520487 836.098984 
L 367.126248 836.799245 
L 366.600596 837.754146 
L 365.056494 839.218328 
L 364.235163 839.918589 
L 362.78962 840.36421 
L 361.705463 840.49153 
L 360.785572 841.064471 
L 358.978644 842.401332 
L 356.744624 844.756756 
L 354.970549 847.016689 
L 354.871989 848.13074 
L 355.101962 849.372112 
L 355.726173 850.708974 
L 357.894487 853.605508 
L 359.471443 855.929101 
L 360.916985 858.602825 
L 363.085299 862.836221 
L 365.976384 866.846806 
L 366.107797 867.515237 
L 365.976384 868.406478 
L 364.10375 871.112032 
L 362.198262 873.149155 
L 358.190166 876.65046 
L 356.777477 877.764511 
L 354.37919 878.687582 
L 351.290986 879.833464 
L 348.79414 880.279085 
L 346.067321 880.852025 
L 344.884604 881.202156 
L 344.03042 881.870587 
L 343.570474 882.793658 
L 340.28515 890.401039 
L 339.365259 892.438161 
L 338.642488 894.347964 
L 335.52143 904.215278 
L 334.831512 909.117104 
L 334.141594 910.135666 
L 333.780209 910.485796 
L 322.412987 918.506967 
L 320.868885 919.175398 
L 319.554755 919.652849 
L 317.156469 919.652849 
L 315.842339 919.334549 
L 314.955302 918.920758 
L 313.805438 918.443307 
L 311.440005 918.029517 
L 309.633077 917.902197 
L 308.581773 918.156837 
L 308.088974 918.920758 
L 307.267643 920.28945 
L 306.314899 920.735071 
L 305.362155 920.735071 
L 302.996722 920.32128 
L 302.142538 920.19396 
L 301.321207 919.652849 
L 300.598436 918.315987 
L 299.612838 916.183374 
L 298.528681 914.973833 
L 297.70735 914.432722 
L 296.853166 914.432722 
L 295.670449 914.782852 
L 287.227167 917.297426 
L 285.781624 917.552066 
L 283.350484 918.220497 
L 280.229426 919.716509 
L 278.323938 921.212521 
L 277.108369 922.835853 
L 275.728532 923.981735 
L 273.494512 925.000296 
L 271.063372 925.987028 
L 269.782096 926.973759 
L 269.584976 927.992321 
L 270.866253 930.602384 
L 272.114676 932.544017 
L 274.020164 934.071859 
L 275.49856 935.09042 
L 277.239781 936.045322 
L 278.455351 937.350353 
L 278.816737 939.610287 
L 278.84959 941.424599 
L 278.488205 942.888781 
L 277.63402 944.193813 
L 275.761386 945.848975 
L 273.330246 946.517406 
L 271.227638 946.708386 
L 269.157884 946.549236 
L 267.580929 945.753485 
L 265.839707 945.435185 
L 263.408567 945.435185 
L 261.503079 945.944465 
L 260.123243 946.772046 
L 258.907673 948.236228 
L 257.527837 950.050541 
L 255.819469 951.864853 
L 252.369878 953.679166 
L 247.868984 955.684459 
L 245.766377 955.843609 
L 242.809585 955.207008 
L 240.904097 954.411257 
L 240.01706 953.774656 
L 240.01706 952.787925 
L 239.130022 951.642043 
L 238.111572 950.687142 
L 236.896002 951.355573 
L 234.13633 953.169885 
L 231.70519 953.806486 
L 227.927067 954.092957 
L 224.017532 953.774656 
L 221.093593 952.978905 
L 219.94373 952.660605 
L 216.789819 951.896684 
L 214.161559 951.132762 
L 208.675068 947.535968 
L 207.459498 946.549236 
L 204.371294 944.257473 
L 202.30154 941.99754 
L 202.071567 941.201789 
L 201.841594 939.673947 
L 201.841594 939.069176 
L 202.071567 938.528065 
L 202.695778 937.732314 
L 203.51711 936.618262 
L 203.911348 935.981662 
L 204.042761 935.440551 
L 204.207028 934.167349 
L 205.225478 928.278791 
L 205.258331 927.92866 
L 205.258331 927.5467 
L 205.159772 926.719119 
L 205.192625 925.827878 
L 205.356891 924.904806 
L 205.783983 923.408794 
L 206.079662 923.122324 
L 206.736727 923.058664 
L 207.689471 922.804023 
L 208.379389 922.358403 
L 208.773628 921.530822 
L 208.806481 920.67141 
L 208.346536 919.971149 
L 207.328085 919.398209 
L 206.408195 918.220497 
L 206.178222 915.992394 
L 206.112516 915.514943 
L 205.948249 914.878342 
L 206.013956 913.668801 
L 206.178222 911.981808 
L 205.816836 911.217887 
L 205.488304 910.931417 
L 203.779935 910.135666 
L 203.057164 910.008346 
L 201.743035 910.294816 
L 198.392004 910.931417 
L 197.570673 911.186057 
L 197.012168 911.727168 
L 196.32225 913.06403 
L 195.862304 913.31867 
L 195.238093 913.3505 
L 194.876707 913.15952 
L 194.055376 911.981808 
L 192.642687 908.512334 
L 191.919916 907.748413 
L 191.098585 907.143642 
L 190.178694 907.175472 
L 187.221902 908.639654 
L 185.414974 909.849195 
L 185.152148 910.867757 
L 185.513534 911.822658 
L 186.761957 913.12769 
L 186.959076 913.891611 
L 186.531984 914.400892 
L 185.447827 914.751022 
L 183.378073 914.782852 
L 180.585548 914.432722 
L 178.154408 913.605141 
L 176.807425 912.87305 
L 174.409138 911.249717 
L 172.832183 909.658215 
L 172.306531 908.766974 
L 172.405091 908.194033 
L 173.226422 906.984492 
L 174.212019 905.488479 
L 174.212019 904.820049 
L 173.949193 904.310768 
L 173.390688 903.705997 
L 172.79933 903.578677 
L 171.945145 903.674167 
L 170.631016 904.469918 
L 168.659821 905.74312 
L 167.509958 906.252401 
L 167.707077 904.247108 
L 168.134169 901.987175 
L 168.758381 899.408941 
L 170.039657 896.353257 
L 170.565309 894.889075 
L 170.565309 893.265743 
L 169.973951 891.32411 
L 169.448299 890.401039 
L 168.791234 889.987248 
L 167.575664 889.891758 
L 167.148572 889.605288 
L 166.918599 889.096007 
L 167.214279 886.931564 
L 167.969903 883.748559 
L 168.495555 882.316207 
L 168.922647 881.074836 
L 169.973951 879.037713 
L 171.715173 875.631898 
L 171.912292 874.804317 
L 171.813732 874.390527 
L 171.682319 874.199546 
L 170.696722 874.199546 
L 169.415446 874.613337 
L 167.674224 874.963467 
L 165.900149 874.645167 
L 164.48746 874.040396 
L 161.629228 872.639874 
L 160.117979 872.130593 
L 159.132381 872.257914 
L 151.838962 873.753926 
L 150.393419 873.944906 
L 149.210703 874.676997 
L 148.257959 876.427649 
L 147.600894 877.15974 
L 146.385324 877.573531 
L 136.397939 881.233986 
L 135.510901 881.552286 
L 135.083809 881.552286 
L 134.328185 881.043006 
L 132.882642 879.101373 
L 132.094164 876.96876 
L 131.4371 875.027127 
L 130.845741 873.085495 
L 130.254383 871.716803 
L 129.203079 871.080202 
L 126.969059 870.921052 
L 123.683735 870.952882 
L 120.562677 870.666411 
L 116.423169 870.029811 
L 109.688254 870.093471 
L 104.333176 869.011249 
L 99.832282 867.738047 
L 96.711224 866.464846 
L 94.970002 865.350794 
L 93.031661 863.759292 
L 91.126173 862.45426 
L 88.005115 861.021908 
L 84.555525 859.939687 
L 81.434467 859.780536 
L 78.510529 859.812366 
L 74.6667 858.380014 
L 72.596946 856.947662 
L 71.907028 855.801781 
L 71.512789 853.382698 
L 71.808468 846.411918 
L 72.137 843.992835 
L 72.958331 841.541921 
L 73.319717 840.39604 
L 73.286864 838.772707 
L 72.761212 837.022055 
L 71.512789 834.252841 
L 70.987137 831.833758 
L 71.775615 824.035397 
L 71.709908 817.255598 
L 72.531239 813.977103 
L 73.188304 808.947956 
L 73.155451 807.165474 
L 72.465533 805.573972 
L 71.21711 803.950639 
L 71.21711 801.690706 
L 71.874174 799.908224 
L 74.075341 794.528946 
L 74.239608 792.746464 
L 74.239608 791.441432 
L 73.155451 789.340649 
L 72.629799 788.226598 
L 72.629799 787.558167 
L 72.958331 786.921566 
L 73.845369 786.412285 
L 75.028085 785.934834 
L 78.641942 784.757123 
L 80.383164 783.929542 
L 83.635634 781.796929 
L 85.902508 780.014446 
L 86.033921 779.855296 
L 91.848945 772.820856 
L 95.265682 768.746611 
L 96.284132 767.600729 
L 96.284132 765.659096 
L 95.068562 764.226744 
L 94.017259 762.762562 
L 91.816091 751.590217 
L 91.29044 748.375383 
L 91.126173 746.65656 
L 91.09332 746.083619 
L 91.586119 744.460287 
L 92.965955 742.996105 
L 94.510057 742.009374 
L 99.142364 739.55846 
L 101.376384 737.903298 
L 103.084753 736.120816 
L 103.774671 734.656634 
L 103.938937 732.874151 
L 103.577552 730.932519 
L 103.906084 729.945787 
L 105.088801 728.640755 
L 108.177005 726.667293 
L 110.936677 724.69383 
L 114.024882 722.720367 
L 116.850261 720.301284 
L 119.839906 717.43658 
L 120.628383 714.794686 
L 120.201291 713.298674 
L 118.788602 710.4658 
L 118.755749 707.441946 
L 119.018575 706.869005 
L 120.562677 705.786784 
L 122.00822 704.640902 
L 123.322349 703.431361 
L 125.523516 701.139597 
L 125.786342 700.566657 
L 126.509113 695.85581 
L 127.100472 693.213916 
L 128.283188 690.540193 
L 129.663025 688.089279 
L 130.057263 686.179477 
L 130.02441 683.346603 
L 129.170226 680.322749 
L 128.151776 678.062816 
L 125.917755 676.025693 
L 121.876807 673.606609 
L 120.431264 672.842688 
L 119.248547 672.842688 
L 118.032977 673.065499 
L 116.226049 674.975301 
L 114.649094 677.235234 
L 111.692302 677.840005 
L 109.261162 677.203404 
L 97.795381 671.696807 
L 96.218426 671.155696 
L 95.101415 669.564194 
L 94.345791 668.100012 
L 94.115818 666.50851 
L 93.721579 665.489948 
L 92.276037 665.267138 
L 87.775143 666.094719 
L 85.606829 666.126549 
L 83.865607 665.394458 
L 82.255798 664.089426 
L 73.911075 657.532437 
L 71.677055 655.304334 
L 69.837273 654.540413 
L 67.241867 654.381263 
L 63.595158 653.458192 
L 58.305786 650.879958 
L 56.301738 649.383946 
L 55.480407 648.238064 
L 55.447554 644.482119 
L 53.804892 641.458265 
L 49.92821 637.161209 
L 49.172585 636.301798 
L 48.285548 635.283237 
L 47.267097 632.832323 
L 46.610032 630.190429 
L 45.591582 629.076378 
L 43.390415 628.694417 
L 38.955227 629.490169 
L 32.713111 631.049841 
L 28.902136 631.845592 
L 25.879637 632.259382 
L 24.861187 631.686442 
L 22.824286 629.617489 
L 21.575863 627.739516 
L 20.557412 626.052524 
L 20.360293 624.747492 
L 20.32744 623.21965 
L 20.688825 619.463705 
L 20.655972 613.957107 
L 19.407549 611.729004 
L 15.957959 607.782079 
L 12.672635 603.262212 
L 10.832853 600.461168 
L 10.8 598.360386 
L 11.588478 596.482413 
L 13.592525 593.426729 
L 15.596573 591.548756 
L 16.976409 590.943985 
L 19.21043 590.943985 
L 21.017358 590.530195 
L 22.430047 589.384313 
L 29.000695 582.158893 
L 29.822026 581.013012 
L 29.789173 579.70798 
L 28.967842 578.020987 
L 26.700968 574.424193 
L 24.039856 570.477267 
L 23.021406 567.867203 
L 22.988552 565.41629 
L 23.77703 562.933547 
L 25.353986 560.482633 
L 27.949392 556.854008 
L 28.737869 554.021134 
L 28.705016 551.952181 
L 28.507897 550.042379 
L 27.456593 547.782446 
L 26.635262 544.217481 
L 26.602409 541.575587 
L 27.193767 539.283824 
L 28.179364 537.596832 
L 29.986293 536.64193 
L 35.604197 534.891278 
L 38.429575 533.713566 
L 39.250906 533.331606 
L 40.006531 531.262653 
L 40.006531 529.925791 
L 39.809411 529.00272 
L 39.349466 528.143309 
L 37.936777 525.405925 
L 37.936777 523.718933 
L 38.725255 522.382071 
L 41.320661 520.663248 
L 41.912019 519.517367 
L 41.912019 518.021355 
L 41.484927 515.570441 
L 40.269357 513.883449 
L 38.626695 512.769397 
L 35.604197 511.464366 
L 31.333275 510.000184 
L 28.902136 509.427243 
L 26.898088 509.077112 
L 24.861187 508.345021 
L 21.805836 506.467049 
L 19.374696 504.238946 
L 17.732034 502.933914 
L 13.953911 501.533392 
L 15.727986 500.1647 
L 17.502061 499.050648 
L 21.050211 496.408755 
L 23.218525 494.530782 
L 23.87559 493.894181 
L 24.631214 492.93928 
L 24.89404 491.984379 
L 24.861187 491.443268 
L 24.532655 490.902157 
L 23.67847 490.361046 
L 21.674423 489.915426 
L 18.159126 489.406145 
L 17.140675 489.406145 
L 16.812143 489.469805 
L 16.056519 489.947256 
L 14.972362 490.583857 
L 14.381003 490.743007 
L 13.888205 490.456537 
L 13.559672 489.915426 
L 13.428259 488.260264 
L 13.493966 485.204579 
L 13.888205 483.931378 
L 14.578123 483.231117 
L 15.990812 482.435366 
L 19.341843 481.321314 
L 21.083064 480.971184 
L 23.185672 481.193994 
L 24.926893 481.480464 
L 25.616812 481.321314 
L 25.945344 480.780203 
L 26.175317 479.984452 
L 26.405289 478.36112 
L 26.635262 476.164847 
L 26.536702 473.491123 
L 26.273876 471.19936 
L 26.175317 469.162237 
L 26.273876 464.06943 
L 26.602409 461.268386 
L 26.898088 457.162311 
L 27.029501 455.761789 
L 26.963794 454.997868 
L 26.339583 454.297607 
L 25.156866 453.342705 
L 23.908443 452.801595 
L 22.134368 452.451464 
L 21.641569 452.355974 
L 21.477303 452.037674 
L 21.641569 451.751203 
L 22.594313 450.828132 
L 23.842737 447.899768 
L 24.171269 443.666372 
L 24.204122 440.069577 
L 24.007003 437.586834 
L 23.251378 435.10409 
L 21.608716 432.143896 
L 19.144723 429.279192 
L 16.417904 426.860109 
L 14.216737 425.682397 
L 12.541222 424.568346 
L 11.982717 423.104164 
L 11.687037 421.703642 
L 11.687037 420.14397 
L 11.982717 419.602859 
L 12.869754 419.157238 
L 14.676682 417.947697 
L 16.155078 416.419854 
L 17.042116 414.478222 
L 17.173529 413.55515 
L 17.173529 411.804498 
L 16.77929 410.149336 
L 15.727986 407.825743 
L 14.972362 405.438489 
L 14.775242 403.974307 
L 14.610976 393.979673 
L 14.610976 392.515491 
L 15.235187 390.860329 
L 15.925106 390.032748 
L 21.148771 387.772815 
L 22.232928 387.486344 
L 22.922846 387.486344 
L 23.612764 387.868305 
L 24.302682 388.345756 
L 25.189719 388.886866 
L 26.076757 389.173337 
L 26.668115 389.173337 
L 27.259474 388.918696 
L 28.54075 387.359024 
L 29.5592 385.321902 
L 30.249118 382.489028 
L 30.97189 381.024846 
L 32.253166 379.910794 
L 33.140204 379.369683 
L 36.556941 379.083213 
L 39.809411 378.637592 
L 49.92821 381.374976 
L 53.27924 382.043407 
L 58.272933 382.361707 
L 61.328284 382.361707 
L 62.018202 382.202557 
L 62.60956 381.756937 
L 63.332332 380.451905 
L 64.745021 376.79145 
L 66.35483 369.97982 
L 66.781922 366.383025 
L 67.406134 364.664203 
L 72.531239 357.375123 
L 73.319717 356.452052 
L 74.206754 356.101921 
L 75.586591 356.101921 
L 76.867867 356.929502 
L 77.952024 357.948064 
L 78.543382 357.979894 
L 79.036181 357.693423 
L 79.43042 357.247803 
L 85.278296 352.664276 
L 85.869655 352.314146 
L 86.362453 351.486565 
L 86.888105 349.831403 
L 86.888105 348.558201 
L 86.23104 346.712058 
L 85.048324 344.929576 
L 82.97857 343.369904 
L 82.518624 342.542322 
L 82.617184 341.969382 
L 91.126173 330.383246 
L 92.013211 330.033115 
L 92.604569 330.033115 
L 93.294487 330.319586 
L 94.674323 330.797036 
L 95.462801 330.797036 
L 96.152719 330.351416 
L 97.335436 329.332854 
L 98.551006 328.155143 
L 102.723367 323.285146 
L 105.515893 320.643252 
L 121.252595 307.370124 
L 123.618028 305.651302 
L 125.227837 303.709669 
L 126.410554 301.704376 
L 127.133325 299.412613 
L 126.739086 298.107581 
L 125.950608 297.37549 
L 124.012267 296.356929 
L 122.435312 295.147387 
L 120.431264 292.951114 
L 117.803005 288.526738 
L 116.456022 286.012164 
L 116.258902 284.579812 
L 116.357462 281.428638 
L 116.521728 279.200535 
L 116.488875 278.436614 
L 116.521728 278.118314 
L 116.554582 277.004262 
L 116.620288 276.272171 
L 117.540179 274.807989 
L 119.314254 272.516226 
L 120.628383 271.147534 
L 122.106779 270.033482 
L 127.59327 266.341197 
L 129.203079 265.258976 
L 129.695878 264.240414 
L 130.517209 261.12107 
L 131.732779 257.556105 
L 132.948349 253.131729 
L 133.474 249.566764 
L 133.802533 246.065459 
L 133.802533 245.046898 
L 134.229625 243.105265 
L 136.233673 232.21939 
L 136.365086 230.755208 
L 136.463645 228.176975 
L 136.397939 226.967433 
L 135.708021 225.598741 
L 132.882642 222.256586 
L 130.287236 219.614693 
L 128.611721 218.118681 
L 115.897517 207.360126 
L 115.010479 207.360126 
L 113.827763 207.805746 
L 111.922275 208.887968 
L 110.542439 209.238098 
L 109.556841 208.856138 
L 108.308418 207.582936 
L 107.027142 205.450323 
L 104.333176 199.720915 
L 102.559101 197.492812 
L 101.63921 195.328369 
L 99.602309 192.081705 
L 98.715272 190.331052 
L 98.748125 188.48491 
L 99.273777 185.652036 
L 99.668016 182.500862 
L 99.799429 181.32315 
L 100.095108 180.400079 
L 101.507797 177.630865 
L 103.774671 172.283417 
L 105.483039 169.355053 
L 107.979886 165.853749 
L 110.542439 163.498325 
L 112.250807 161.843163 
L 114.517681 160.283491 
L 115.240452 159.48774 
L 115.339012 158.914799 
L 115.339012 157.737087 
L 115.141892 156.527546 
L 113.992029 153.758332 
L 113.006432 151.912189 
L 112.053688 150.702648 
L 104.661708 141.662915 
L 100.062255 138.607231 
L 97.598262 137.493179 
L 94.937149 136.824749 
L 91.881798 135.965337 
L 89.713484 134.564815 
L 88.267941 132.623183 
L 85.836802 126.989265 
L 87.315197 124.983972 
L 87.873703 123.55162 
L 90.929054 117.026461 
L 92.637422 112.251955 
L 93.097368 109.864701 
L 93.130221 108.84614 
L 92.703129 106.968167 
L 92.571716 105.822286 
L 92.604569 104.676404 
L 93.064515 103.021242 
L 94.082965 101.36608 
L 99.30663 90.066414 
L 100.42364 88.379422 
L 102.000596 87.01073 
L 103.741818 85.482888 
L 106.370077 82.936484 
L 107.651353 81.472302 
L 108.538391 80.07178 
L 109.655401 77.079756 
L 110.082493 75.806554 
L 110.805264 74.628843 
L 111.856568 73.387471 
L 114.944773 71.445838 
L 129.860144 66.734992 
L 131.207127 66.448521 
L 133.441147 66.448521 
L 137.613509 67.976363 
L 157.226893 74.183222 
L 160.249392 75.838384 
L 163.961808 78.830408 
L 167.542811 83.159294 
L 169.809685 87.36086 
L 170.072511 90.066414 
L 170.335336 92.485497 
L 171.156667 93.504059 
L 178.450087 99.297127 
L 184.659349 103.307712 
L 188.700298 105.790456 
L 190.967172 107.222808 
L 193.168339 108.209539 
L 194.515322 108.71882 
L 195.763745 109.323591 
L 197.767792 109.896531 
L 199.016216 109.960191 
L 200.494611 109.769211 
L 202.00586 109.03712 
L 203.845642 107.445618 
L 205.324038 106.140586 
L 206.276782 105.694966 
L 206.605314 105.694966 
L 207.459498 106.013266 
L 209.39784 107.350128 
L 210.284877 108.241369 
L 210.580556 109.19627 
L 210.580556 109.832871 
L 209.989198 111.392543 
L 209.594959 112.761235 
L 209.496399 113.875287 
L 209.496399 114.448228 
L 210.51485 115.498619 
L 212.387484 116.962801 
L 214.194413 118.363323 
L 218.399628 122.946849 
L 218.990986 123.838091 
L 219.089546 124.220051 
L 219.155252 125.111292 
L 219.155252 126.448154 
L 219.418078 128.835407 
L 219.516638 131.668281 
L 219.286665 132.909653 
L 218.695307 134.278345 
L 218.136802 134.946776 
L 216.954085 135.806187 
L 216.39558 136.379128 
L 216.329873 137.270369 
L 216.954085 138.16161 
L 226.514378 147.710624 
L 227.664241 148.633695 
L 232.427961 151.657549 
L 233.512118 152.26232 
L 235.089074 152.26232 
L 237.848746 151.944019 
L 242.25108 151.148268 
L 245.70067 150.670818 
L 251.942786 146.914872 
L 253.322622 146.055461 
L 253.552595 145.896311 
L 256.54224 143.222587 
L 259.696151 140.580694 
L 261.10884 138.893701 
L 261.897318 138.416251 
L 262.52153 138.384421 
L 266.003973 138.479911 
L 270.964813 139.402982 
L 274.118724 140.230563 
L 277.141222 141.376445 
L 278.291085 142.331346 
L 280.853638 145.00507 
L 282.791979 147.583303 
L 284.270375 149.365786 
L 285.387385 150.097877 
L 286.405836 150.416177 
L 288.015644 150.543497 
L 289.264068 150.384347 
L 290.676757 149.397616 
L 292.812218 147.487813 
L 294.027787 146.851212 
L 295.276211 146.564742 
L 297.313111 146.883042 
L 298.561535 147.105853 
L 299.744251 147.837944 
L 300.828408 148.824675 
L 302.142538 150.002387 
L 304.179439 150.734478 
L 307.004817 151.657549 
L 308.746039 152.03951 
L 310.158729 152.03951 
L 311.99851 151.721209 
L 314.199677 151.211928 
L 319.357636 149.970557 
L 320.178967 149.524936 
L 329.607847 146.023631 
L 331.184803 145.22788 
L 337.328359 142.585986 
L 338.281103 142.140366 
L 339.06958 140.771674 
L 340.120884 138.06612 
L 340.153737 137.334029 
L 340.055178 136.888409 
L 339.595232 136.379128 
L 337.558331 135.901677 
L 335.291458 135.742527 
L 333.780209 135.583377 
L 332.531785 135.074096 
L 332.07184 134.532985 
L 331.841867 134.087365 
L 331.841867 133.737234 
L 332.006134 133.514424 
L 333.18885 133.291614 
L 335.160045 132.750503 
L 336.802707 131.859262 
L 339.135287 130.8407 
L 340.48227 129.376518 
L 341.073628 128.294297 
L 341.073628 127.339395 
L 340.613683 126.670964 
L 339.989471 126.225344 
L 338.182543 125.684233 
L 336.145642 125.143122 
L 335.422871 124.697502 
L 335.291458 124.060901 
L 335.61999 123.23332 
L 336.704147 122.437569 
L 339.332406 121.609988 
L 341.829253 121.164367 
L 343.340502 120.527766 
L 344.063273 119.954825 
L 344.227539 119.381884 
L 344.063273 118.777114 
L 343.669034 118.267833 
L 342.81485 117.822212 
L 341.50072 117.440252 
L 340.646536 116.771821 
L 340.416563 116.03973 
L 340.416563 115.307639 
L 341.270747 114.734698 
L 344.358952 113.588816 
L 346.363 113.047706 
L 347.315744 112.920386 
L 348.334194 112.793065 
L 350.009709 112.665745 
L 350.995307 112.633915 
L 351.948051 112.665745 
L 352.900795 112.761235 
L 356.514651 114.448228 
L 359.931388 115.88058 
L 361.738316 117.026461 
L 363.151006 117.663062 
L 364.202309 117.981363 
L 364.793668 117.822212 
L 365.812118 117.408422 
L 376.095183 109.610061 
L 376.029476 109.03712 
L 374.846759 107.254638 
L 373.992575 106.331566 
L 373.53263 105.854116 
L 373.171244 105.631305 
L 373.006978 105.344835 
L 373.204097 104.962875 
L 378.230643 100.697649 
L 378.789148 100.443008 
L 379.479066 100.347518 
L 380.103278 100.283858 
L 383.97996 100.092878 
L 386.969605 99.838237 
L 389.105066 99.615427 
L 391.306233 99.647257 
L 393.40884 99.742747 
L 394.690117 99.838237 
L 395.93854 99.265297 
L 398.862478 97.896605 
L 399.552396 97.578304 
L 404.184703 95.668502 
" clip-path="url(#p84ee61816f)"/>
   </g>
  </g>
 </g>
 <defs>
  <clipPath id="p84ee61816f">
   <rect x="10.8" y="66.448521" width="1058.4" height="947.102957"/>
  </clipPath>
 </defs>
</svg>
