<?xml version="1.0" encoding="utf-8" standalone="no"?>
<!DOCTYPE svg PUBLIC "-//W3C//DTD SVG 1.1//EN"
  "http://www.w3.org/Graphics/SVG/1.1/DTD/svg11.dtd">
<svg xmlns:xlink="http://www.w3.org/1999/xlink" width="1080pt" height="1080pt" viewBox="0 0 1080 1080" xmlns="http://www.w3.org/2000/svg" version="1.1">
 <metadata>
  <rdf:RDF xmlns:dc="http://purl.org/dc/elements/1.1/" xmlns:cc="http://creativecommons.org/ns#" xmlns:rdf="http://www.w3.org/1999/02/22-rdf-syntax-ns#">
   <cc:Work>
    <dc:type rdf:resource="http://purl.org/dc/dcmitype/StillImage"/>
    <dc:date>2022-07-01T13:43:25.767696</dc:date>
    <dc:format>image/svg+xml</dc:format>
    <dc:creator>
     <cc:Agent>
      <dc:title>Matplotlib v3.5.1, https://matplotlib.org/</dc:title>
     </cc:Agent>
    </dc:creator>
   </cc:Work>
  </rdf:RDF>
 </metadata>
 <defs>
  <style type="text/css">*{stroke-linejoin: round; stroke-linecap: butt}</style>
 </defs>
 <g id="figure_1">
  <g id="patch_1">
   <path d="M 0 1080 
L 1080 1080 
L 1080 0 
L 0 0 
L 0 1080 
z
" style="fill: none; opacity: 0"/>
  </g>
  <g id="axes_1">
   <g id="PatchCollection_1">
    <path d="M 792.896557 203.901546 
L 792.518111 208.48479 
L 792.063975 210.721413 
L 791.042171 212.664708 
L 786.084528 222.087858 
L 786.160217 222.894509 
L 786.500819 223.811158 
L 787.409089 224.984469 
L 800.692545 234.590948 
L 803.493045 236.20425 
L 807.580262 238.550871 
L 809.358959 239.137526 
L 810.494297 239.540852 
L 813.029885 239.944177 
L 815.376251 239.944177 
L 842.700054 233.564301 
L 847.884764 232.794316 
L 855.037394 244.674085 
L 859.578746 254.133901 
L 857.762205 255.747203 
L 855.756442 257.213841 
L 855.377995 257.507168 
L 855.340151 257.910494 
L 855.529374 258.497149 
L 860.978997 273.236862 
L 861.357443 273.896849 
L 864.044409 276.683462 
L 870.553681 281.633365 
L 878.349669 288.049907 
L 880.847413 289.516545 
L 885.994279 291.973164 
L 893.97949 294.209787 
L 904.197533 296.373078 
L 905.522094 296.849736 
L 906.316831 297.399725 
L 906.846655 298.389706 
L 907.035878 299.966342 
L 910.66896 311.552783 
L 910.782494 312.176104 
L 910.744649 312.726093 
L 910.063446 313.75274 
L 909.685 314.74272 
L 909.609311 317.529333 
L 911.198784 326.989149 
L 912.485501 331.682391 
L 912.901791 333.295692 
L 912.977481 334.102343 
L 912.901791 334.395671 
L 912.485501 334.798996 
L 907.073723 336.302301 
L 900.942897 335.422318 
L 899.65618 334.835662 
L 897.953173 333.919014 
L 896.515078 333.295692 
L 895.039139 332.819035 
L 892.352172 332.41571 
L 890.649165 332.452376 
L 880.885258 333.515688 
L 878.917338 333.77235 
L 877.517088 334.029011 
L 876.87373 334.249007 
L 875.095033 334.94566 
L 873.50556 335.422318 
L 873.202803 335.605647 
L 873.01358 335.935641 
L 872.975736 336.338966 
L 873.392026 338.39226 
L 873.429871 339.235577 
L 872.710823 343.745489 
L 871.386262 345.90878 
L 871.159195 346.238774 
L 869.456188 349.575375 
L 869.418343 351.115345 
L 870.780749 353.645296 
L 871.878242 356.50524 
L 871.916087 358.338538 
L 870.288769 362.445125 
L 866.35293 367.725022 
L 864.95268 369.668317 
L 864.082254 371.538281 
L 863.211828 377.07484 
L 863.287517 379.201465 
L 864.195788 380.521439 
L 866.277241 381.621418 
L 873.278493 382.978058 
L 879.901298 384.40803 
L 881.263704 385.178015 
L 882.663954 386.534656 
L 884.177738 389.944589 
L 885.956434 394.857827 
L 887.772975 398.63442 
L 893.676733 403.877651 
L 899.580491 409.120882 
L 900.829363 410.000865 
L 909.041642 413.85079 
L 910.971717 414.840771 
L 914.188508 415.317428 
L 915.815826 415.904084 
L 917.253921 416.7474 
L 918.654171 418.324036 
L 919.675975 419.82734 
L 920.69778 421.807302 
L 920.470712 421.953966 
L 916.307806 424.44725 
L 912.144899 427.490525 
L 896.969214 442.706895 
L 896.136632 444.83352 
L 896.023099 447.693464 
L 897.76395 454.183338 
L 899.391268 458.546586 
L 903.137884 465.21979 
L 912.56119 477.099558 
L 913.696528 478.566196 
L 923.573969 482.086128 
L 925.504044 482.34279 
L 928.380234 482.269458 
L 931.597025 482.269458 
L 934.43537 482.599451 
L 935.835621 482.966111 
L 936.365445 483.33277 
L 936.592513 483.919426 
L 936.743891 485.459396 
L 936.516823 486.339378 
L 935.949154 487.256027 
L 935.570708 488.722665 
L 935.722087 489.785978 
L 936.365445 490.555963 
L 941.777223 496.935839 
L 942.799027 497.412496 
L 946.734866 497.889153 
L 950.103036 497.852488 
L 952.222333 498.035817 
L 954.114564 498.9158 
L 957.331355 502.582395 
L 961.191504 505.332342 
L 974.47496 513.802177 
L 980.64363 516.002134 
L 989.045132 519.522065 
L 991.505031 521.318697 
L 993.321572 523.115329 
L 996.235606 527.111918 
L 996.878964 528.761886 
L 996.538363 530.375187 
L 993.700018 533.821787 
L 991.505031 536.865061 
L 990.59676 538.111703 
L 990.294004 539.431678 
L 990.823828 540.604988 
L 994.721822 544.198252 
L 997.560167 546.214879 
L 999.868688 547.241526 
L 1006.453649 546.031549 
L 1010.995001 545.628224 
L 1013.757657 545.884885 
L 1018.147631 547.131528 
L 1021.515801 549.661479 
L 1022.99174 552.008099 
L 1023.143119 553.548069 
L 1022.916051 554.978042 
L 1021.288733 556.44468 
L 1017.579962 558.754635 
L 1013.568434 561.541247 
L 1011.297758 563.521209 
L 1009.367683 565.757832 
L 1008.535102 567.077806 
L 1008.383724 567.847791 
L 1008.383724 568.471112 
L 1008.610791 569.277763 
L 1013.4549 572.797695 
L 1014.968685 574.117669 
L 1021.288733 583.320823 
L 1021.894247 585.300784 
L 1022.348382 588.490722 
L 1021.932091 593.40396 
L 1020.531841 596.740562 
L 1008.875704 608.107007 
L 1007.021318 609.646977 
L 1001.685229 613.24024 
L 1000.890492 613.753564 
L 998.203526 613.460236 
L 996.651897 613.276906 
L 995.895005 613.276906 
L 992.943126 615.293534 
L 989.158666 618.190144 
L 987.607037 619.363454 
L 987.001523 620.133439 
L 987.001523 621.856739 
L 991.921322 645.322949 
L 993.700018 650.236186 
L 994.911045 653.132797 
L 995.970694 654.012779 
L 997.295255 654.306107 
L 1016.520313 651.079503 
L 1017.579962 650.56618 
L 1018.980212 647.046249 
L 1020.002017 645.249617 
L 1020.948132 644.626296 
L 1022.386227 644.332968 
L 1024.391991 644.332968 
L 1028.895498 645.57961 
L 1028.554897 648.989544 
L 1028.138606 652.362812 
L 1026.700511 662.812608 
L 1026.549133 663.399263 
L 1026.549133 663.802589 
L 1026.776201 664.24258 
L 1028.214295 670.365794 
L 1028.74412 671.282443 
L 1030.295749 672.345756 
L 1033.323317 674.875707 
L 1035.139858 675.57236 
L 1037.145622 676.269013 
L 1038.848629 676.635672 
L 1039.605521 676.525674 
L 1047.477198 673.372402 
L 1050.996746 671.172445 
L 1053.229578 670.255796 
L 1055.235342 670.035801 
L 1057.846619 670.292462 
L 1061.101255 671.245777 
L 1062.274438 672.12576 
L 1067.496993 674.985704 
L 1068.70802 675.535694 
L 1069.048622 675.865687 
L 1069.2 676.159015 
L 1069.010777 676.56234 
L 1065.112783 679.788944 
L 1061.706769 682.318895 
L 1059.965917 683.382208 
L 1059.360403 684.188858 
L 1056.749126 687.305464 
L 1056.294991 688.185447 
L 1056.408524 691.815377 
L 1057.203261 696.691948 
L 1059.095491 702.448503 
L 1059.928072 705.785105 
L 1061.55539 710.148353 
L 1064.620803 713.778282 
L 1065.188472 714.731597 
L 1065.491229 715.61158 
L 1065.566918 716.821556 
L 1066.475189 721.074807 
L 1065.756141 720.744813 
L 1064.545114 720.04816 
L 1063.636843 719.314841 
L 1062.085215 717.774871 
L 1060.874187 716.271567 
L 1060.268674 715.464916 
L 1059.890228 715.318252 
L 1059.587471 715.318252 
L 1059.133336 715.354918 
L 1058.6792 715.721578 
L 1057.733085 716.748224 
L 1056.711281 717.738205 
L 1056.219301 718.031533 
L 1055.689477 718.068199 
L 1046.379705 718.068199 
L 1045.547123 718.068199 
L 1044.752387 717.994867 
L 1043.995495 717.518209 
L 1043.46567 716.858222 
L 1043.314292 716.344899 
L 1043.314292 715.648246 
L 1043.352136 713.741616 
L 1043.238603 712.788301 
L 1043.087224 712.16498 
L 1042.708778 711.614991 
L 1041.914042 710.99167 
L 1041.422062 710.771674 
L 1040.58948 710.735008 
L 1039.605521 710.918338 
L 1038.129581 711.578325 
L 1035.858905 712.861633 
L 1035.177702 713.008297 
L 1034.00452 713.008297 
L 1033.51254 712.71497 
L 1032.944871 712.274978 
L 1032.377202 711.981651 
L 1031.166174 713.558286 
L 1030.068681 714.438269 
L 1027.646626 715.721578 
L 1025.565173 716.344899 
L 1026.208531 720.04816 
L 1026.35991 722.028122 
L 1026.473444 723.898085 
L 1026.776201 725.804715 
L 1027.76016 727.968006 
L 1030.257904 731.267942 
L 1030.825573 732.037927 
L 1030.787728 732.844578 
L 1030.63635 733.651228 
L 1029.917303 734.27455 
L 1028.289985 735.227864 
L 1025.86793 735.741188 
L 1024.694747 736.071181 
L 1023.862166 736.584505 
L 1023.710788 737.024496 
L 1023.748632 737.867813 
L 1024.543369 740.507762 
L 1025.830085 744.467684 
L 1026.965424 746.520978 
L 1027.381714 747.547624 
L 1027.381714 748.244278 
L 1027.041113 749.014263 
L 1024.95966 751.140888 
L 1023.559409 752.644192 
L 1023.143119 753.450843 
L 1023.143119 754.514155 
L 1021.175199 770.86717 
L 1021.213044 772.370474 
L 1022.802517 775.120421 
L 1024.127078 776.220399 
L 1025.716552 777.503708 
L 1026.35991 778.273693 
L 1026.35991 778.56702 
L 1025.981464 778.823682 
L 1024.354146 779.080344 
L 1021.59149 779.263673 
L 1019.69926 779.740331 
L 1018.904523 780.143656 
L 1018.185476 780.766978 
L 1014.93084 785.716881 
L 1014.325326 786.670196 
L 1013.909036 787.623511 
L 1013.871191 788.320164 
L 1013.984725 788.906819 
L 1014.098259 789.860134 
L 1014.552394 791.290106 
L 1014.552394 791.693431 
L 1014.211792 792.316753 
L 1008.989237 799.723275 
L 1007.588987 801.776568 
L 1006.226581 802.729883 
L 1005.280466 802.803215 
L 1004.296507 802.473221 
L 1001.079715 800.786588 
L 999.452397 799.906605 
L 996.765431 798.879958 
L 995.062424 798.329969 
L 993.96493 797.853311 
L 992.905281 796.973329 
L 990.445382 792.280087 
L 988.969443 790.556787 
L 987.909794 789.566806 
L 981.5519 784.396907 
L 966.300526 769.290534 
L 964.44614 767.493903 
L 959.526342 764.560626 
L 953.092759 760.63737 
L 942.534115 754.917481 
L 933.300032 748.977597 
L 931.710559 747.76762 
L 929.856173 745.384333 
L 927.017828 740.984419 
L 919.524597 732.221256 
L 918.351414 730.754618 
L 915.475224 728.407997 
L 912.712568 727.014691 
L 910.896027 726.464702 
L 908.436128 726.134708 
L 906.998033 725.731383 
L 905.40856 724.521406 
L 904.689513 722.908104 
L 904.235377 721.038141 
L 903.932621 717.004886 
L 903.667708 714.218274 
L 903.478485 712.201646 
L 902.948661 710.881672 
L 902.002546 709.488366 
L 901.207809 708.681715 
L 900.488762 708.278389 
L 897.499038 707.875064 
L 895.833876 707.875064 
L 893.373976 708.791713 
L 891.973726 709.048374 
L 889.324604 708.791713 
L 887.848664 708.058394 
L 886.751171 706.518424 
L 885.275232 703.805143 
L 883.420846 701.20186 
L 880.923102 699.258565 
L 876.608818 696.325289 
L 873.278493 695.078646 
L 868.093782 694.052 
L 865.785261 693.978668 
L 864.309322 694.638655 
L 853.788522 703.10849 
L 851.782758 705.565109 
L 849.24717 709.671695 
L 847.35494 714.25494 
L 846.106068 715.831576 
L 844.630128 716.638226 
L 841.451182 716.894888 
L 837.515343 716.601561 
L 835.244667 716.78489 
L 834.525619 717.004886 
L 834.185018 717.848203 
L 834.185018 718.654854 
L 835.698802 720.121492 
L 839.672485 727.234687 
L 840.845668 731.891263 
L 841.148425 732.477918 
L 841.375493 732.73458 
L 841.829628 732.807912 
L 842.851432 732.73458 
L 843.911081 732.73458 
L 845.689777 733.211237 
L 847.468474 734.164552 
L 848.452433 734.897871 
L 848.868724 735.594524 
L 851.517846 743.184376 
L 851.025866 747.180965 
L 849.625616 751.250886 
L 849.171481 752.130869 
L 848.452433 752.717524 
L 845.614088 753.670839 
L 845.954689 753.964166 
L 847.884764 756.530783 
L 848.565967 757.410766 
L 850.609576 760.27071 
L 852.009826 762.397335 
L 852.691029 763.643978 
L 855.680752 773.873778 
L 853.902056 774.863759 
L 853.183009 775.047089 
L 852.463961 775.230419 
L 850.496042 775.633744 
L 849.24717 775.927072 
L 847.582007 776.477061 
L 846.333135 777.02705 
L 845.879 777.21038 
L 845.651933 777.613706 
L 840.126621 787.220185 
L 839.937398 788.246832 
L 839.786019 792.280087 
L 839.558952 794.33338 
L 839.180506 795.103365 
L 838.537147 795.616688 
L 834.563464 796.680001 
L 831.725119 797.486652 
L 830.741159 797.926643 
L 830.097801 798.439967 
L 829.7572 798.95329 
L 829.227375 800.346596 
L 828.962463 802.803215 
L 829.113841 807.936448 
L 829.719355 812.81302 
L 830.059956 816.039624 
L 830.17349 817.909587 
L 830.17349 818.642907 
L 830.022112 819.852883 
L 830.022112 820.952862 
L 830.324869 821.722847 
L 830.854693 822.346168 
L 832.519856 823.116153 
L 835.358201 825.096114 
L 837.212586 826.526086 
L 837.742411 827.186073 
L 850.193285 843.42909 
L 853.069475 847.792339 
L 856.89178 853.658891 
L 857.913584 854.465542 
L 859.616591 855.162195 
L 860.941152 855.968846 
L 862.871227 858.572129 
L 864.536389 862.165392 
L 865.255437 865.53866 
L 865.520349 867.628619 
L 865.974484 876.061788 
L 866.125863 877.345097 
L 867.450424 880.058377 
L 868.510073 881.488349 
L 869.191275 882.441664 
L 869.645411 883.871636 
L 869.910323 885.228276 
L 869.910323 885.888264 
L 869.758944 886.768246 
L 869.569721 887.464899 
L 869.872478 889.334863 
L 871.045661 892.121475 
L 875.208567 901.067968 
L 876.419595 905.174555 
L 877.819845 910.454452 
L 877.971223 913.46106 
L 877.744156 916.614332 
L 876.835885 919.730938 
L 876.533128 924.387514 
L 875.511324 928.530766 
L 880.544656 937.220597 
L 875.170723 948.660374 
L 867.791025 952.436967 
L 852.236893 963.473419 
L 845.311331 963.840079 
L 837.136897 971.723258 
L 835.92587 982.723044 
L 826.691787 991.082881 
L 806.82337 1005.125941 
L 804.174248 1005.199273 
L 794.97801 998.856063 
L 791.458462 996.436111 
L 786.122373 987.012961 
L 783.738163 982.099723 
L 780.710595 976.013175 
L 778.099317 970.659946 
L 777.153202 965.086721 
L 766.670247 962.263443 
L 752.6299 957.606867 
L 746.38554 955.443576 
L 740.368248 947.780391 
L 737.681282 943.930466 
L 727.955219 948.550376 
L 720.840433 951.116993 
L 712.211864 952.106974 
L 707.973268 950.970329 
L 703.507605 947.963721 
L 697.490314 943.8938 
L 688.33192 940.557199 
L 678.870769 937.147265 
L 673.53468 935.533963 
L 670.052977 935.387299 
L 666.609118 937.623923 
L 665.284557 940.593865 
L 665.284557 941.070522 
L 667.820145 944.663785 
L 675.237687 948.88037 
L 683.904101 957.460203 
L 687.34796 963.216757 
L 687.045203 968.789982 
L 687.007359 977.553145 
L 686.136933 981.109742 
L 682.730919 983.603027 
L 675.199843 986.792965 
L 670.280044 989.28625 
L 666.760496 989.982903 
L 661.916387 990.862886 
L 655.44496 993.282839 
L 653.174284 993.502834 
L 649.541202 993.576166 
L 643.448221 992.916179 
L 637.620152 992.109528 
L 629.256495 990.82622 
L 620.552237 989.28625 
L 617.184067 988.442933 
L 611.20462 987.782946 
L 605.263017 987.452952 
L 602.197604 986.719633 
L 599.77555 985.582989 
L 594.288082 982.723044 
L 588.157257 977.333149 
L 583.313148 975.096526 
L 580.474802 974.179877 
L 575.327936 973.226563 
L 570.521672 972.749905 
L 563.482576 969.669965 
L 558.297865 967.800002 
L 555.421676 967.323344 
L 553.113155 967.54334 
L 550.993857 967.983331 
L 543.727693 977.993136 
L 541.835463 978.653124 
L 539.072807 978.433128 
L 535.326192 977.883139 
L 529.346744 975.939843 
L 522.080581 972.896569 
L 512.922187 968.863314 
L 507.623943 967.72667 
L 501.228205 967.286678 
L 492.069811 966.443361 
L 475.683098 964.500066 
L 464.783852 958.450184 
L 460.696635 953.573612 
L 457.744756 948.440379 
L 456.836486 945.690432 
L 456.987864 944.003798 
L 458.161047 941.583845 
L 461.794129 936.230616 
L 462.210419 935.387299 
L 460.091122 926.660803 
L 454.414431 919.987599 
L 450.402903 918.227634 
L 440.487618 910.19779 
L 437.952029 902.49794 
L 434.205414 897.841364 
L 423.116945 887.611563 
L 423.116945 886.584917 
L 424.252283 885.37494 
L 428.377345 882.038338 
L 431.21569 878.518407 
L 431.972582 876.061788 
L 431.896893 873.861831 
L 430.383109 871.69854 
L 425.576844 867.298626 
L 422.587121 864.475347 
L 420.392134 861.358741 
L 420.392134 860.258763 
L 421.338249 857.912142 
L 422.511431 854.868868 
L 422.776344 852.778908 
L 422.397898 850.835613 
L 422.322208 846.839024 
L 422.17083 840.935806 
L 421.300404 833.272622 
L 420.165066 827.112742 
L 418.954039 824.289463 
L 416.342761 821.539517 
L 415.358801 820.219542 
L 414.601909 816.846275 
L 413.466571 814.242992 
L 410.060557 808.853097 
L 408.508928 807.056466 
L 407.297901 805.076504 
L 407.260056 804.636513 
L 407.070833 802.766549 
L 406.9573 800.49326 
L 409.833489 795.433359 
L 411.347274 791.766763 
L 411.574341 788.283498 
L 411.536497 784.543571 
L 410.552537 781.390299 
L 408.887374 777.980365 
L 406.46532 773.580451 
L 405.935495 771.563823 
L 405.935495 770.207183 
L 406.011185 768.960541 
L 406.88161 766.650586 
L 407.070833 764.523961 
L 406.351786 758.217417 
L 405.443516 752.57086 
L 404.762313 751.324218 
L 403.551285 750.700896 
L 394.809182 750.077575 
L 392.803418 750.150907 
L 390.419208 750.590899 
L 388.79189 750.444235 
L 385.726478 749.30759 
L 383.947781 748.390941 
L 376.832996 739.737777 
L 374.486631 737.17116 
L 373.08638 736.841166 
L 370.550792 736.437841 
L 368.469339 735.374528 
L 366.463575 732.881243 
L 364.192899 728.11467 
L 360.446283 722.834772 
L 358.099918 720.084826 
L 355.942775 719.058179 
L 351.022977 717.774871 
L 345.459821 717.664873 
L 342.432252 717.188216 
L 339.29115 715.42825 
L 336.074359 712.898299 
L 335.99867 711.908319 
L 336.187893 710.881672 
L 337.209697 709.158372 
L 338.345035 707.618402 
L 340.691401 706.0051 
L 341.864583 705.01512 
L 342.507942 702.448503 
L 342.924232 697.205272 
L 342.015962 695.261976 
L 339.78313 692.988687 
L 337.739522 691.705379 
L 335.241778 690.97206 
L 331.72223 690.97206 
L 328.770351 689.688751 
L 327.483634 688.515441 
L 327.256567 687.268798 
L 326.613208 684.225524 
L 323.699174 678.248974 
L 322.336768 676.049017 
L 320.595917 674.325717 
L 317.681882 673.079075 
L 314.275868 670.95245 
L 313.367598 669.595809 
L 313.026996 666.405871 
L 313.746044 663.289265 
L 315.221983 660.319323 
L 315.221983 658.559358 
L 314.427246 654.416105 
L 313.821733 652.912801 
L 311.551057 649.062876 
L 310.226496 647.962897 
L 307.766596 646.459593 
L 306.025745 644.956289 
L 304.436271 642.169677 
L 302.544041 639.016405 
L 300.462588 636.413122 
L 300.084142 634.726488 
L 300.046297 631.829878 
L 299.970608 630.106578 
L 298.986649 628.529942 
L 295.012965 624.056696 
L 291.114971 620.133439 
L 281.918733 613.42357 
L 277.717982 610.013636 
L 269.392169 602.313786 
L 263.261344 597.363883 
L 260.120242 595.787247 
L 257.925255 595.787247 
L 253.648815 596.813893 
L 252.362098 596.813893 
L 249.750821 595.823913 
L 249.145307 595.017262 
L 248.615483 592.817305 
L 248.501949 592.560643 
L 247.480144 590.910675 
L 246.231273 589.700699 
L 244.149819 588.674052 
L 241.462853 587.170748 
L 240.441048 585.594112 
L 240.251825 584.824127 
L 240.176136 584.054142 
L 240.28967 583.247491 
L 241.084407 581.927517 
L 243.619995 579.3609 
L 244.868867 577.894262 
L 246.45834 574.55766 
L 246.874631 572.981024 
L 246.723252 571.807714 
L 245.663604 570.12108 
L 244.263353 568.434446 
L 244.263353 567.957789 
L 244.301198 567.554463 
L 244.982401 566.784478 
L 246.306962 565.537836 
L 248.085658 564.364525 
L 252.248564 563.264547 
L 255.238288 562.42123 
L 255.465356 562.127902 
L 255.465356 561.761243 
L 255.162599 561.321251 
L 253.005456 559.267958 
L 251.378139 557.80132 
L 251.378139 557.214665 
L 251.567362 556.701341 
L 252.475632 555.454699 
L 254.367862 553.218076 
L 254.405707 552.741419 
L 254.065105 552.081431 
L 253.005456 551.018119 
L 249.712976 548.671498 
L 247.215232 547.168194 
L 245.05809 546.288211 
L 243.65784 546.178213 
L 241.311474 546.214879 
L 240.895184 545.921551 
L 240.743805 545.261564 
L 240.78165 544.161586 
L 241.122251 541.301641 
L 241.235785 535.655085 
L 241.008717 532.97847 
L 240.024758 530.595183 
L 239.494933 529.421873 
L 239.494933 528.211896 
L 239.949069 527.258581 
L 241.235785 525.535282 
L 242.1819 523.665318 
L 242.219745 522.602006 
L 242.030522 521.062036 
L 240.78165 518.385421 
L 239.986913 516.332128 
L 239.79769 515.012153 
L 239.646312 513.32552 
L 239.154332 511.638886 
L 238.094683 509.915586 
L 234.915736 507.018976 
L 230.828519 503.939036 
L 227.498194 501.335753 
L 225.454586 499.172462 
L 223.448822 496.715843 
L 221.518747 494.369222 
L 218.529023 492.132599 
L 214.517496 489.785978 
L 213.117245 489.345987 
L 210.354589 489.162657 
L 208.87865 488.795997 
L 206.645818 487.329359 
L 205.434791 486.669372 
L 204.526521 486.669372 
L 204.261608 486.77937 
L 202.937047 487.366025 
L 201.461108 488.759331 
L 200.174391 490.152637 
L 199.455344 490.372633 
L 198.622763 490.189303 
L 197.638803 489.49265 
L 196.579154 488.685999 
L 195.670884 488.50267 
L 194.724768 488.50267 
L 192.946072 488.942661 
L 191.659356 489.639314 
L 189.956349 491.362614 
L 189.010233 492.975916 
L 188.177652 493.782567 
L 187.193693 494.11256 
L 185.452841 494.002563 
L 183.711989 493.965897 
L 176.180913 494.259224 
L 172.850588 494.259224 
L 150.25736 497.632492 
L 147.002725 497.852488 
L 140.682676 499.172462 
L 137.579419 499.392458 
L 130.3511 499.062464 
L 126.188193 499.502455 
L 123.728294 499.942447 
L 120.246591 501.262421 
L 108.779676 505.735667 
L 106.319777 506.028995 
L 103.784189 505.07568 
L 99.242836 501.409085 
L 94.777173 498.549141 
L 85.808002 494.075894 
L 83.537326 491.58261 
L 83.423792 487.732685 
L 83.802238 483.589432 
L 84.104995 480.43616 
L 83.537326 478.71286 
L 82.515522 477.576216 
L 80.509758 476.219576 
L 78.163393 475.412925 
L 74.984446 474.899601 
L 70.140337 474.532942 
L 69.156377 474.27628 
L 68.891465 473.726291 
L 68.92931 472.956306 
L 69.459134 469.179713 
L 69.459134 468.373062 
L 69.118533 467.823072 
L 68.626553 467.419747 
L 65.863897 466.319768 
L 63.517531 465.659781 
L 62.344349 464.743132 
L 61.246855 463.166496 
L 60.414274 460.929873 
L 59.657382 458.656584 
L 58.749111 457.409942 
L 57.651618 456.493293 
L 56.591969 456.126634 
L 54.586205 455.539978 
L 53.110266 454.366668 
L 51.218036 452.130045 
L 50.158387 450.040085 
L 49.439339 448.243454 
L 48.152623 446.593486 
L 45.957636 444.83352 
L 42.930068 442.486899 
L 41.416283 441.203591 
L 40.356635 439.956948 
L 39.675432 438.893636 
L 39.221297 437.756991 
L 37.93458 435.703698 
L 37.707512 434.713717 
L 37.707512 433.797068 
L 38.350871 432.770422 
L 39.751121 430.753794 
L 42.21102 427.930516 
L 43.005757 427.270529 
L 43.459892 426.903869 
L 44.708764 426.35388 
L 45.276433 425.803891 
L 45.957636 424.557248 
L 47.282197 422.393957 
L 47.736332 421.660638 
L 48.947359 420.633991 
L 50.34761 419.570679 
L 52.693975 418.250705 
L 55.872922 416.637403 
L 57.50024 415.940749 
L 58.219287 415.39076 
L 59.165402 414.107452 
L 60.830565 411.907495 
L 61.436078 410.807516 
L 62.912018 409.267546 
L 65.144849 406.884259 
L 66.128809 404.574304 
L 66.393721 403.364328 
L 67.94535 401.384366 
L 68.777931 400.504383 
L 68.777931 399.844396 
L 68.513019 399.294407 
L 67.680438 398.487756 
L 66.582944 397.424443 
L 66.431566 397.057784 
L 66.393721 396.067803 
L 67.074924 394.931159 
L 68.43733 392.987863 
L 70.102492 391.264563 
L 72.448858 388.03796 
L 76.346852 382.134741 
L 76.460385 381.034763 
L 75.476426 379.934784 
L 73.697729 378.578144 
L 70.859384 377.331501 
L 67.869661 377.07484 
L 65.712518 376.414853 
L 64.804248 375.461538 
L 63.744599 373.188249 
L 62.571416 369.044996 
L 61.322544 362.555123 
L 60.225051 359.035191 
L 57.765152 354.488613 
L 52.65613 347.412084 
L 50.27192 343.782155 
L 48.606758 341.435534 
L 48.37969 340.958877 
L 48.341846 340.518885 
L 48.531069 339.822232 
L 49.401495 338.538924 
L 50.726056 336.412298 
L 52.769664 334.175675 
L 54.018536 332.012384 
L 54.056381 331.535727 
L 53.715779 331.095735 
L 52.73182 330.50908 
L 51.066657 330.069089 
L 49.628562 330.105755 
L 48.001244 330.179086 
L 47.092974 329.885759 
L 46.07117 329.115774 
L 44.216784 327.539138 
L 39.069918 324.055872 
L 34.225809 322.075911 
L 31.122552 321.049264 
L 29.79799 320.939266 
L 28.132828 321.415924 
L 22.531827 323.212555 
L 17.120049 325.265849 
L 15.984711 325.595842 
L 13.108521 319.802622 
L 12.465163 317.749329 
L 10.8 314.119399 
L 11.29198 314.229397 
L 12.881453 314.449393 
L 13.941102 314.192731 
L 14.962906 313.422746 
L 16.779447 310.929461 
L 28.549119 291.203179 
L 32.144356 286.216609 
L 33.16616 284.713305 
L 34.187964 282.696678 
L 34.377187 279.983397 
L 34.301498 277.270117 
L 34.793478 275.290155 
L 36.382951 274.043513 
L 41.113527 272.210215 
L 48.795981 271.073571 
L 50.877434 270.560248 
L 52.201995 270.523582 
L 53.791469 270.010258 
L 54.018536 268.250293 
L 56.213523 259.083804 
L 57.42455 254.133901 
L 58.446355 252.153939 
L 60.489963 249.623989 
L 61.814524 248.377346 
L 62.041592 246.654047 
L 60.868409 242.987451 
L 54.888962 237.157565 
L 51.142346 235.287601 
L 50.309765 233.820963 
L 50.007008 232.354325 
L 48.001244 226.707768 
L 47.244352 222.821177 
L 46.600994 220.291227 
L 45.654879 217.504614 
L 44.822298 214.424674 
L 44.746609 211.014741 
L 62.155126 185.091912 
L 65.447606 183.66194 
L 69.799735 181.865308 
L 73.092216 180.105343 
L 76.99021 174.23879 
L 78.39046 170.462197 
L 79.412264 167.712251 
L 82.25061 162.542351 
L 85.240333 157.739112 
L 90.084442 151.799227 
L 93.717524 149.342608 
L 98.675167 144.246041 
L 99.507748 142.779403 
L 99.696971 141.496095 
L 99.696971 139.919459 
L 99.35637 138.63615 
L 97.691207 135.189551 
L 97.691207 134.492898 
L 98.107498 133.576249 
L 99.35637 132.072945 
L 100.643086 131.11963 
L 105.941331 127.929692 
L 107.833561 126.903045 
L 115.932306 122.356467 
L 117.635313 121.439818 
L 118.35436 121.219823 
L 118.84634 121.293155 
L 119.868145 121.51315 
L 124.674409 122.906457 
L 126.377416 123.089786 
L 127.550599 124.116433 
L 130.540323 125.986397 
L 133.113755 126.793048 
L 133.416512 126.829714 
L 136.368391 127.123041 
L 136.633304 127.196373 
L 139.282426 128.773009 
L 141.136811 130.862968 
L 143.066886 134.822891 
L 143.59671 139.039476 
L 143.369643 143.80605 
L 144.08869 145.712679 
L 146.207988 147.765972 
L 148.743576 148.792619 
L 154.003976 150.369255 
L 157.939815 152.642544 
L 163.048836 156.565801 
L 175.121264 166.685604 
L 183.257854 173.725467 
L 194.762613 184.175263 
L 205.737548 194.991719 
L 214.101205 202.434908 
L 216.44757 205.551514 
L 222.881153 218.787923 
L 223.865112 221.501203 
L 225.07614 224.434479 
L 226.249322 225.681122 
L 226.514235 225.681122 
L 227.611728 225.717788 
L 227.95233 225.717788 
L 229.655337 225.42446 
L 235.218493 223.737826 
L 239.078643 223.004507 
L 239.419244 223.077839 
L 240.554582 223.187837 
L 240.819494 223.297835 
L 242.976637 224.434479 
L 250.204956 233.160976 
L 280.594172 266.453661 
L 285.854571 273.016866 
L 288.957829 279.32341 
L 292.553066 287.719913 
L 295.467101 292.486487 
L 295.618479 292.743149 
L 297.737777 295.236434 
L 301.408703 297.289727 
L 307.653063 301.212984 
L 311.286144 304.659583 
L 313.708199 308.326179 
L 315.184138 311.296121 
L 316.660078 313.422746 
L 319.952558 316.356022 
L 326.840276 319.91262 
L 328.126993 320.682605 
L 332.971102 324.642528 
L 336.717717 329.005776 
L 340.123732 334.139009 
L 344.400172 341.875525 
L 346.708692 343.525493 
L 349.81195 345.175461 
L 350.076862 345.175461 
L 350.341774 345.248793 
L 351.742025 345.212127 
L 353.331498 344.478808 
L 353.974856 342.975504 
L 354.391147 340.665549 
L 355.261573 338.942249 
L 356.851046 338.685587 
L 357.229492 338.795585 
L 359.235256 339.125579 
L 361.922223 341.142206 
L 372.632245 353.021975 
L 381.260815 360.905155 
L 393.219709 367.871686 
L 395.52823 369.118328 
L 397.155548 370.768296 
L 397.571838 374.251561 
L 398.782866 377.624829 
L 401.015697 379.641456 
L 401.280609 379.751454 
L 403.059306 380.484773 
L 403.324218 380.521439 
L 403.58913 380.594771 
L 405.935495 380.888099 
L 406.276097 380.924765 
L 408.016949 380.961431 
L 409.34151 381.071429 
L 409.682111 381.108095 
L 412.63399 381.474754 
L 416.456295 384.078037 
L 431.026467 399.587735 
L 431.253535 398.231094 
L 432.61594 396.764456 
L 434.432481 395.701144 
L 436.021954 395.151154 
L 436.930225 395.481148 
L 437.611428 396.91112 
L 437.914185 398.891082 
L 439.163056 399.734398 
L 440.714685 399.771064 
L 443.666564 399.221075 
L 445.748017 397.974433 
L 449.381099 394.234506 
L 454.111674 388.661281 
L 455.436236 387.524636 
L 456.268817 387.194643 
L 457.063553 386.937981 
L 459.107162 386.901315 
L 464.821697 387.927962 
L 466.827461 388.441285 
L 468.946759 389.431266 
L 469.703651 389.651262 
L 470.082097 389.614596 
L 470.384854 389.431266 
L 471.141746 388.917942 
L 474.888361 385.654673 
L 475.758787 384.738024 
L 476.250767 384.261366 
L 476.364301 384.041371 
L 476.704902 383.674711 
L 476.818436 383.198054 
L 476.818436 382.721396 
L 476.742747 382.061409 
L 476.326456 380.924765 
L 475.683098 379.018135 
L 475.077584 376.928176 
L 474.434226 374.618221 
L 473.639489 372.968253 
L 472.958287 371.941606 
L 471.67157 370.694964 
L 471.141746 370.36497 
L 470.082097 369.448322 
L 470.990367 367.028369 
L 472.314928 364.791746 
L 473.261043 363.765099 
L 478.597132 358.22854 
L 478.937734 356.981898 
L 478.786355 355.698589 
L 478.294376 354.488613 
L 477.499639 353.4253 
L 476.250767 352.471986 
L 475.228963 351.921996 
L 474.623449 351.225343 
L 474.54776 350.52869 
L 474.396381 349.318714 
L 474.396381 347.962073 
L 474.358537 346.825429 
L 474.358537 346.605433 
L 474.585604 346.055444 
L 475.191118 345.652118 
L 478.634977 344.992131 
L 479.73247 344.882133 
L 480.262295 344.36881 
L 480.489362 344.002151 
L 480.489362 343.342163 
L 480.073072 342.865506 
L 471.17959 335.165656 
L 470.422698 334.285673 
L 470.157786 333.58902 
L 470.157786 333.075697 
L 470.7633 332.305712 
L 477.915929 330.949071 
L 478.180842 330.619078 
L 478.521443 330.179086 
L 478.710666 329.299104 
L 478.559288 327.135812 
L 478.483599 324.605862 
L 478.029463 320.939266 
L 478.029463 318.959305 
L 478.370065 316.502686 
L 479.013423 315.036048 
L 480.905653 311.076125 
L 484.614424 305.5029 
L 485.333472 304.256258 
L 486.166053 302.936284 
L 487.187857 301.469646 
L 488.550263 298.279708 
L 489.231466 295.676425 
L 489.76129 293.769796 
L 490.139736 292.999811 
L 489.382844 289.333215 
L 488.890864 286.913262 
L 488.85302 285.996614 
L 488.890864 284.933301 
L 491.691365 275.950143 
L 491.880588 274.190177 
L 494.681088 263.337055 
L 494.870311 260.990434 
L 495.702893 257.067177 
L 496.951765 253.107254 
L 498.957529 247.16737 
L 501.114671 238.990862 
L 501.114671 237.707554 
L 499.865799 235.617595 
L 498.503393 234.444284 
L 497.178832 233.160976 
L 495.778582 231.547674 
L 494.491865 229.751042 
L 493.734973 228.027743 
L 493.242994 226.744434 
L 493.507906 225.277796 
L 497.481589 214.498006 
L 498.843995 211.344734 
L 498.80615 207.274813 
L 500.357779 203.86488 
L 502.552766 198.364987 
L 505.201888 192.058443 
L 508.797125 183.66194 
L 512.430207 178.822034 
L 517.766296 173.028814 
L 530.330704 159.865737 
L 535.856016 155.502488 
L 538.656517 153.595859 
L 541.267794 151.872559 
L 544.484585 149.96593 
L 547.852755 147.765972 
L 549.972053 146.189336 
L 551.902128 141.936086 
L 560.265785 126.059729 
L 564.580069 119.496523 
L 570.181071 115.023277 
L 577.636457 108.166744 
L 581.420918 105.673459 
L 583.010391 105.160136 
L 585.167533 104.903474 
L 587.665277 105.270133 
L 590.768534 106.736772 
L 593.1149 108.900063 
L 594.931441 109.926709 
L 597.277806 110.256703 
L 600.645976 109.633382 
L 607.34447 107.433425 
L 614.232188 103.620166 
L 618.546473 100.50356 
L 620.363014 98.266936 
L 621.914642 96.983628 
L 623.201359 96.396973 
L 625.055744 96.396973 
L 627.629177 97.460286 
L 629.407874 98.083607 
L 632.813888 98.340268 
L 634.933186 98.156939 
L 637.468774 96.836964 
L 641.442457 93.867022 
L 643.978046 92.547048 
L 646.551479 91.630399 
L 648.481553 91.08041 
L 650.108871 90.640418 
L 652.682304 89.72377 
L 659.078042 87.81714 
L 661.500097 87.010489 
L 662.711124 86.350502 
L 668.236436 84.627202 
L 670.923403 83.893883 
L 672.247964 84.297209 
L 673.988815 85.507185 
L 675.729667 87.193819 
L 678.227411 86.937157 
L 681.974027 86.27717 
L 684.850216 84.883864 
L 688.861744 81.65726 
L 690.943197 80.740611 
L 696.39282 79.053977 
L 698.436429 78.943979 
L 703.129159 79.347305 
L 705.248457 79.603967 
L 705.967505 79.75063 
L 708.011113 77.514007 
L 709.487053 75.790708 
L 710.471012 75.13072 
L 711.795573 74.800727 
L 713.839182 74.984057 
L 716.86675 76.487361 
L 718.304845 77.184014 
L 727.425394 85.727181 
L 725.949455 89.430442 
L 721.673015 107.83675 
L 717.245196 119.313193 
L 715.542189 124.263097 
L 712.968756 131.742951 
L 711.984796 135.812872 
L 711.795573 138.342823 
L 711.719884 142.412743 
L 712.59031 147.472645 
L 712.741688 149.41594 
L 713.271513 150.699249 
L 714.406851 152.239219 
L 722.429907 161.222377 
L 724.057225 163.788994 
L 724.662738 165.292298 
L 724.662738 167.235593 
L 723.905846 172.478824 
L 723.640934 174.312122 
L 724.473515 174.128792 
L 725.41963 174.128792 
L 728.257975 173.908797 
L 730.907098 173.688801 
L 732.723639 173.688801 
L 733.783287 173.872131 
L 735.902585 174.862111 
L 740.860228 177.428728 
L 744.379776 179.445355 
L 747.86148 181.571981 
L 751.267494 183.29528 
L 754.787042 184.761919 
L 756.641427 185.055246 
L 758.760725 185.20191 
L 761.220624 184.945248 
L 764.815862 184.0286 
L 767.805585 183.331946 
L 769.849194 183.258615 
L 772.044181 183.441944 
L 774.125634 183.991934 
L 776.471999 185.20191 
L 790.70157 193.928407 
L 791.836908 196.275028 
L 792.518111 197.631668 
L 793.01009 199.758293 
L 793.047935 201.224931 
L 793.047935 202.104914 
L 792.896557 203.901546 
" clip-path="url(#pe0b9bb0691)"/>
   </g>
  </g>
 </g>
 <defs>
  <clipPath id="pe0b9bb0691">
   <rect x="10.8" y="74.800727" width="1058.4" height="930.398546"/>
  </clipPath>
 </defs>
</svg>
