<?xml version="1.0" encoding="utf-8" standalone="no"?>
<!DOCTYPE svg PUBLIC "-//W3C//DTD SVG 1.1//EN"
  "http://www.w3.org/Graphics/SVG/1.1/DTD/svg11.dtd">
<svg xmlns:xlink="http://www.w3.org/1999/xlink" width="1080pt" height="1080pt" viewBox="0 0 1080 1080" xmlns="http://www.w3.org/2000/svg" version="1.1">
 <metadata>
  <rdf:RDF xmlns:dc="http://purl.org/dc/elements/1.1/" xmlns:cc="http://creativecommons.org/ns#" xmlns:rdf="http://www.w3.org/1999/02/22-rdf-syntax-ns#">
   <cc:Work>
    <dc:type rdf:resource="http://purl.org/dc/dcmitype/StillImage"/>
    <dc:date>2022-07-01T13:43:26.189027</dc:date>
    <dc:format>image/svg+xml</dc:format>
    <dc:creator>
     <cc:Agent>
      <dc:title>Matplotlib v3.5.1, https://matplotlib.org/</dc:title>
     </cc:Agent>
    </dc:creator>
   </cc:Work>
  </rdf:RDF>
 </metadata>
 <defs>
  <style type="text/css">*{stroke-linejoin: round; stroke-linecap: butt}</style>
 </defs>
 <g id="figure_1">
  <g id="patch_1">
   <path d="M 0 1080 
L 1080 1080 
L 1080 0 
L 0 0 
L 0 1080 
z
" style="fill: none; opacity: 0"/>
  </g>
  <g id="axes_1">
   <g id="PatchCollection_1">
    <path d="M 571.052852 312.958648 
L 571.987274 313.475974 
L 572.788207 314.21963 
L 573.188674 314.963286 
L 573.288791 316.2566 
L 573.12193 319.004893 
L 573.222046 321.138862 
L 573.489024 322.464509 
L 574.289957 323.887155 
L 577.093224 328.737084 
L 586.303957 328.995747 
L 591.30979 328.12276 
L 593.979568 327.249773 
L 605.392868 323.919488 
L 608.663345 320.686202 
L 608.963695 320.298208 
L 611.43324 319.037226 
L 619.776295 317.032589 
L 623.714217 315.80394 
L 629.120517 313.572972 
L 634.026234 311.342005 
L 637.463572 309.369701 
L 642.636267 308.593712 
L 648.54315 308.852375 
L 657.920744 311.148008 
L 666.464033 313.54064 
L 667.832294 312.020995 
L 669.233927 311.309672 
L 672.103938 310.695348 
L 673.672433 310.242688 
L 675.307671 308.69071 
L 676.876166 306.459743 
L 677.743844 304.487438 
L 677.643727 301.90081 
L 675.774883 296.630553 
L 673.906038 293.300268 
L 670.134977 290.842971 
L 665.829961 288.030012 
L 664.76205 286.154706 
L 664.394955 284.95839 
L 664.661933 283.244749 
L 666.564149 277.651164 
L 671.636727 282.598091 
L 673.93941 280.65812 
L 677.24326 278.491818 
L 679.979782 277.715829 
L 683.483866 276.907508 
L 686.220388 277.101505 
L 691.326338 278.588817 
L 697.199849 280.076128 
L 703.273593 283.115417 
L 709.147104 286.704365 
L 714.853754 290.131648 
L 721.127731 293.170937 
L 724.26472 296.016229 
L 725.866587 298.505859 
L 727.26822 301.965475 
L 732.507659 298.732189 
L 736.812675 304.487438 
L 750.929125 323.434495 
L 783.200063 319.392888 
L 789.340552 324.04882 
L 818.841595 346.811154 
L 854.583245 364.62656 
L 855.317433 364.658893 
L 888.856516 380.566661 
L 881.180905 404.945638 
L 869.83435 449.564987 
L 866.797478 461.883807 
L 860.323267 476.562926 
L 859.121867 479.246554 
L 829.220356 502.655545 
L 836.829223 512.226072 
L 843.537039 520.664949 
L 849.277061 527.939843 
L 866.430383 536.669715 
L 875.374138 531.658122 
L 888.088955 562.406673 
L 888.62291 563.667654 
L 890.42501 563.50599 
L 900.169699 562.309674 
L 902.172032 566.642278 
L 903.773899 572.20353 
L 904.007504 576.05114 
L 903.239943 580.868737 
L 900.536793 584.134356 
L 899.769232 586.850316 
L 902.572499 589.889605 
L 903.106454 590.471596 
L 907.044376 594.286874 
L 909.580665 594.868866 
L 911.349393 593.866547 
L 930.23807 589.921938 
L 934.309481 590.633261 
L 937.246237 590.827258 
L 939.782526 591.376917 
L 942.919514 593.284555 
L 944.454637 593.478553 
L 944.688242 593.44622 
L 944.921848 592.346902 
L 945.25557 590.956589 
L 947.35802 587.270643 
L 948.125581 586.138993 
L 958.304108 591.053588 
L 961.641331 593.737215 
L 968.115542 601.012109 
L 968.516008 602.531754 
L 968.582753 610.226975 
L 968.215658 613.686591 
L 970.751947 613.880588 
L 972.787653 614.074585 
L 973.088003 614.074585 
L 976.458597 614.91524 
L 977.55988 615.206235 
L 979.495469 611.875951 
L 981.831525 609.353987 
L 984.534674 607.058354 
L 988.405852 603.566405 
L 994.846691 601.594101 
L 998.751241 602.143759 
L 1000.08613 602.531754 
L 1000.353107 602.596419 
L 1001.053924 602.725751 
L 1003.523468 601.044442 
L 1005.792779 599.136803 
L 1009.930935 597.002834 
L 1010.46489 596.744172 
L 1013.435018 594.771867 
L 1015.036885 592.443901 
L 1015.437351 589.986604 
L 1015.370607 589.275281 
L 1015.337235 589.016618 
L 1026.917396 591.085921 
L 1030.087757 591.312251 
L 1038.564301 593.931213 
L 1044.337695 597.423162 
L 1047.674917 600.300786 
L 1050.811906 604.116064 
L 1052.9811 606.799691 
L 1053.982267 610.06531 
L 1052.647378 619.312509 
L 1052.280284 621.414145 
L 1050.745162 624.130105 
L 1048.609339 626.813733 
L 1046.473517 629.72369 
L 1044.971767 634.153292 
L 1045.00514 634.896948 
L 1045.172001 638.000903 
L 1045.972934 641.072524 
L 1047.574801 645.663791 
L 1049.543762 649.511401 
L 1051.112256 651.613037 
L 1052.08005 652.938684 
L 1053.448312 653.326679 
L 1055.9846 652.55069 
L 1056.752161 650.804716 
L 1057.719956 649.446735 
L 1059.088217 648.282752 
L 1060.856945 649.446735 
L 1063.7937 652.680022 
L 1066.730456 656.527632 
L 1064.661378 660.860235 
L 1064.327656 662.800207 
L 1064.260911 665.031175 
L 1064.427772 668.555456 
L 1064.494517 670.721758 
L 1065.195333 676.250677 
L 1066.1965 681.973594 
L 1066.930689 686.435529 
L 1068.29895 694.939071 
L 1068.933022 697.396369 
L 1068.999767 697.655032 
L 1069.2 699.174676 
L 1069.033139 700.661988 
L 1068.29895 704.250935 
L 1067.030806 707.257891 
L 1065.629172 709.456526 
L 1063.193 713.239471 
L 1061.491017 716.50509 
L 1060.48985 718.477394 
L 1059.922522 720.320367 
L 1059.522056 721.93701 
L 1059.421939 722.260339 
L 1059.321822 722.583668 
L 1058.787867 723.294991 
L 1057.953561 723.876982 
L 1056.084717 725.331961 
L 1051.546095 728.338917 
L 1046.907356 731.7662 
L 1044.571301 733.641506 
L 1042.368734 735.678476 
L 1038.831279 739.041094 
L 1034.593006 742.72704 
L 1032.724162 744.376016 
L 1031.823112 745.346002 
L 1030.721829 746.509985 
L 1029.186707 748.417624 
L 1026.884023 752.10357 
L 1025.315529 754.754865 
L 1023.68029 757.955818 
L 1022.412146 760.445448 
L 1020.843651 763.775733 
L 1020.67679 764.034396 
L 1018.87469 766.718023 
L 1016.738868 769.110655 
L 1015.504096 770.274638 
L 1014.336068 771.147625 
L 1013.001179 771.955947 
L 1011.299196 772.537938 
L 1009.396979 772.8936 
L 1007.494763 773.152263 
L 1005.091963 773.281594 
L 1003.757074 773.249261 
L 1002.388813 773.022931 
L 1001.654624 772.861267 
L 1000.486596 772.505605 
L 998.617752 771.503287 
L 997.249491 770.403969 
L 996.415185 769.466316 
L 995.981346 769.045989 
L 994.846691 767.300015 
L 994.112502 765.877369 
L 993.845524 764.325392 
L 993.77878 763.484737 
L 993.77878 762.708748 
L 993.745408 761.286103 
L 994.179246 754.36687 
L 994.312735 752.491564 
L 994.245991 748.417624 
L 993.979013 745.443001 
L 993.445058 742.824039 
L 992.844358 741.36906 
L 992.410519 740.625404 
L 991.909935 739.817083 
L 991.609585 739.396755 
L 990.541674 738.103441 
L 988.906435 736.519131 
L 987.705035 735.613811 
L 987.304569 735.355148 
L 986.57038 735.064152 
L 985.802819 734.870155 
L 985.001886 734.805489 
L 984.200952 734.773156 
L 983.333274 734.837822 
L 981.864897 735.128818 
L 980.062797 735.807808 
L 978.027091 736.971791 
L 977.326275 737.553782 
L 976.758947 738.006442 
L 976.291736 738.459103 
L 975.223825 740.043413 
L 974.523008 741.660056 
L 973.989052 743.212033 
L 973.488469 744.925675 
L 972.854397 747.738634 
L 972.620791 749.096614 
L 971.786486 753.558549 
L 971.018925 756.080512 
L 971.018925 756.306842 
L 970.585086 757.115163 
L 969.917641 758.149815 
L 968.949847 759.249132 
L 967.448097 760.930441 
L 966.413558 761.835761 
L 965.312275 762.417753 
L 964.878436 762.708748 
L 963.143081 763.323073 
L 961.007258 764.002063 
L 958.637831 764.778052 
L 956.435264 765.845036 
L 953.131414 767.558678 
L 951.796525 768.302333 
L 950.461636 769.175321 
L 949.46047 769.983642 
L 947.124414 771.826615 
L 945.088709 773.152263 
L 943.386726 774.122249 
L 941.017298 775.092234 
L 939.54892 775.38323 
L 938.04717 775.38323 
L 937.179492 775.253899 
L 936.111581 774.995236 
L 935.243904 774.70424 
L 934.576459 774.510243 
L 934.342854 774.510243 
L 933.942387 774.47791 
L 933.375059 774.542576 
L 933.041337 774.607241 
L 930.271443 775.544894 
L 929.837604 778.260855 
L 929.870976 779.974496 
L 930.371559 781.332477 
L 932.073542 783.40178 
L 932.273776 783.498778 
L 932.507381 785.406417 
L 932.807731 788.15471 
L 931.906681 790.256346 
L 929.904348 791.711325 
L 924.598165 793.4573 
L 918.457676 794.297954 
L 913.818937 794.718281 
L 910.348226 795.138608 
L 908.612871 795.300273 
L 907.54496 794.36262 
L 907.411471 793.198637 
L 907.778565 790.288679 
L 908.012171 785.956076 
L 907.077749 784.662761 
L 899.602371 781.138479 
L 898.133993 780.685819 
L 896.265149 781.041481 
L 894.663282 782.108465 
L 892.82781 784.210101 
L 890.091288 787.960713 
L 883.550333 777.484866 
L 876.175072 783.143117 
L 874.072622 783.822107 
L 870.835516 783.725108 
L 869.367139 783.983771 
L 867.264689 784.792093 
L 863.560372 787.572719 
L 855.584411 792.972307 
L 841.60145 808.524413 
L 836.662362 807.36043 
L 829.053495 804.256475 
L 827.31814 805.194128 
L 825.582784 806.90777 
L 823.079868 809.817727 
L 817.807057 808.880074 
L 814.870301 807.166433 
L 813.702273 805.064797 
L 813.668901 803.157158 
L 815.437629 802.736831 
L 817.172984 802.930828 
L 819.709273 803.674484 
L 822.445795 802.898495 
L 824.581618 801.540515 
L 823.580451 800.182535 
L 821.044162 797.337243 
L 817.70694 794.653615 
L 814.970418 794.103957 
L 811.666568 793.360301 
L 809.130279 793.360301 
L 796.68244 795.979263 
L 794.713479 794.427285 
L 792.544285 790.612008 
L 791.142652 786.958394 
L 785.836469 779.909831 
L 785.636235 778.357853 
L 786.203563 776.256217 
L 789.106946 776.029887 
L 792.644402 776.191552 
L 797.683607 774.801239 
L 804.458168 771.30929 
L 808.529579 768.011338 
L 811.833429 764.519389 
L 814.536579 763.161409 
L 817.473334 762.935078 
L 819.50904 762.644083 
L 817.540079 761.156771 
L 812.30064 758.440811 
L 810.465168 757.082831 
L 809.430629 755.72485 
L 809.130279 754.625533 
L 809.030162 754.269872 
L 808.529579 752.362233 
L 805.893174 748.805618 
L 800.687107 744.08502 
L 793.411963 738.394437 
L 788.506246 736.001805 
L 788.205896 731.054877 
L 781.164358 728.241918 
L 776.458874 726.33428 
L 773.588863 733.867836 
L 766.246975 742.177382 
L 765.245808 741.627723 
L 758.237641 737.650781 
L 748.059114 730.40822 
L 747.425042 722.777665 
L 747.39167 722.357338 
L 748.059114 706.190907 
L 740.617109 700.661988 
L 737.880586 702.246298 
L 734.543364 700.338659 
L 733.108359 699.433339 
L 729.67102 697.29937 
L 730.038114 683.525571 
L 722.495992 680.647947 
L 719.192143 678.352313 
L 709.313965 664.772512 
L 705.77651 661.733223 
L 698.034154 665.710165 
L 685.819921 655.880975 
L 677.810588 647.345099 
L 608.629973 654.005669 
L 604.22484 653.197347 
L 602.823207 653.359012 
L 570.852619 654.846323 
L 559.739669 655.331316 
L 558.538269 655.395982 
L 547.825786 655.880975 
L 543.754375 656.074972 
L 520.861031 657.044958 
L 520.99452 663.123536 
L 521.027892 665.77483 
L 520.99452 667.488472 
L 521.027892 669.234447 
L 521.061264 670.592427 
L 521.094637 672.112071 
L 521.128009 673.825713 
L 521.194753 675.313024 
L 521.228125 676.703337 
L 521.228125 678.481645 
L 521.328242 680.809611 
L 521.328242 682.361588 
L 521.328242 684.721887 
L 521.361614 686.015202 
L 521.394987 688.860493 
L 521.495103 690.347805 
L 521.561848 692.869768 
L 521.628592 693.581091 
L 521.628592 695.003737 
L 521.628592 696.84671 
L 521.628592 697.784363 
L 521.561848 701.890636 
L 506.410859 700.920651 
L 505.97702 700.888318 
L 436.062217 693.775088 
L 435.227911 693.67809 
L 407.328734 691.964448 
L 386.83819 690.606468 
L 386.437723 690.347805 
L 385.736907 690.283139 
L 358.672035 688.504832 
L 357.904474 687.761176 
L 330.038669 651.613037 
L 328.103081 649.15574 
L 326.801564 647.409765 
L 325.53342 645.631458 
L 324.231903 643.885483 
L 322.897014 642.107176 
L 321.562125 640.328869 
L 320.260609 638.550561 
L 318.959092 636.772254 
L 317.690948 635.026279 
L 316.422803 633.280305 
L 315.154659 631.53433 
L 313.853142 629.691357 
L 311.250109 626.037744 
L 309.948592 624.259436 
L 303.808103 616.04689 
L 302.840309 614.753575 
L 300.237276 611.326292 
L 298.935759 609.61265 
L 297.60087 607.899009 
L 296.332726 606.2177 
L 294.530626 603.889734 
L 294.030043 603.566405 
L 289.19107 600.656448 
L 284.352098 597.811156 
L 270.903093 590.536262 
L 266.698193 589.598609 
L 250.979877 586.656319 
L 249.144405 586.33299 
L 247.609283 585.363004 
L 237.097033 575.501482 
L 235.99575 574.46683 
L 227.218855 566.22195 
L 220.310806 559.755378 
L 220.143945 559.593714 
L 209.2646 549.441195 
L 204.325512 544.849929 
L 200.687939 541.454979 
L 198.28514 539.224011 
L 188.940918 530.526472 
L 186.27114 528.036841 
L 173.589696 516.235347 
L 173.122485 515.81502 
L 154.967996 498.937266 
L 136.446413 481.703851 
L 92.361709 440.932113 
L 95.398581 440.67345 
L 96.032653 440.641117 
L 106.578275 439.800463 
L 101.972909 430.650263 
L 97.167309 421.015071 
L 95.732303 418.169779 
L 90.659726 408.01726 
L 81.782715 388.876206 
L 60.391121 378.206362 
L 39.032899 367.568851 
L 24.716216 362.977585 
L 24.883077 361.037613 
L 24.582727 359.485635 
L 23.181094 357.416332 
L 10.8 337.369958 
L 15.672344 340.506246 
L 43.738382 337.531623 
L 44.272338 337.49929 
L 55.518777 331.711708 
L 76.710137 328.219759 
L 106.578275 319.845548 
L 106.878625 319.748549 
L 117.791342 316.579929 
L 129.671852 313.120312 
L 145.023074 310.048691 
L 154.167063 307.753057 
L 174.55749 297.406542 
L 181.098446 291.1663 
L 187.639401 284.570396 
L 194.914545 279.785132 
L 202.923878 276.422515 
L 210.966584 274.547209 
L 221.612322 274.417877 
L 243.904966 270.182273 
L 246.107533 270.182273 
L 246.97521 270.796597 
L 252.514999 272.607237 
L 275.20811 320.880199 
L 281.582204 332.002703 
L 314.086748 373.3241 
L 319.82677 381.019321 
L 320.160492 384.123276 
L 308.146492 407.855596 
L 307.879514 412.220532 
L 308.71382 412.996521 
L 310.415803 414.67783 
L 319.326186 418.29911 
L 336.279275 425.283008 
L 343.72128 427.158314 
L 357.403891 430.650263 
L 372.187785 433.301558 
L 376.893268 433.269225 
L 378.762113 431.07059 
L 378.42839 429.518613 
L 373.02209 422.728712 
L 372.955346 414.968825 
L 373.489302 413.837175 
L 375.72524 409.342908 
L 383.200618 404.007985 
L 391.610418 398.931726 
L 392.54484 396.442096 
L 390.575879 388.391213 
L 388.94064 382.829961 
L 384.13504 372.612777 
L 384.101668 368.247841 
L 386.904935 368.247841 
L 438.431644 413.643178 
L 439.666417 414.742495 
L 442.703289 417.39379 
L 447.041677 420.659409 
L 447.208539 420.853406 
L 451.046344 423.763364 
L 460.423938 430.908926 
L 473.605966 440.123792 
L 487.588926 449.920648 
L 498.334782 455.708231 
L 512.150881 457.745201 
L 534.81062 456.484219 
L 541.918903 456.096225 
L 571.787041 454.576581 
L 596.348996 475.431276 
L 595.481318 443.680406 
L 593.378868 432.202241 
L 587.538729 423.472368 
L 572.487857 400.839365 
L 572.020646 394.146463 
L 549.894864 369.70282 
L 549.894864 368.021511 
L 552.598014 361.102279 
L 561.575141 347.55481 
L 558.471525 338.469276 
L 557.937569 333.587014 
L 556.135469 317.194253 
L 566.447485 311.729999 
L 569.250752 312.376657 
L 571.052852 312.958648 
" clip-path="url(#pfffac52857)"/>
   </g>
  </g>
 </g>
 <defs>
  <clipPath id="pfffac52857">
   <rect x="10.8" y="270.182273" width="1058.4" height="539.635455"/>
  </clipPath>
 </defs>
</svg>
