<?xml version="1.0" encoding="utf-8" standalone="no"?>
<!DOCTYPE svg PUBLIC "-//W3C//DTD SVG 1.1//EN"
  "http://www.w3.org/Graphics/SVG/1.1/DTD/svg11.dtd">
<svg xmlns:xlink="http://www.w3.org/1999/xlink" width="1080pt" height="1080pt" viewBox="0 0 1080 1080" xmlns="http://www.w3.org/2000/svg" version="1.1">
 <metadata>
  <rdf:RDF xmlns:dc="http://purl.org/dc/elements/1.1/" xmlns:cc="http://creativecommons.org/ns#" xmlns:rdf="http://www.w3.org/1999/02/22-rdf-syntax-ns#">
   <cc:Work>
    <dc:type rdf:resource="http://purl.org/dc/dcmitype/StillImage"/>
    <dc:date>2022-07-01T13:43:26.380230</dc:date>
    <dc:format>image/svg+xml</dc:format>
    <dc:creator>
     <cc:Agent>
      <dc:title>Matplotlib v3.5.1, https://matplotlib.org/</dc:title>
     </cc:Agent>
    </dc:creator>
   </cc:Work>
  </rdf:RDF>
 </metadata>
 <defs>
  <style type="text/css">*{stroke-linejoin: round; stroke-linecap: butt}</style>
 </defs>
 <g id="figure_1">
  <g id="patch_1">
   <path d="M 0 1080 
L 1080 1080 
L 1080 0 
L 0 0 
L 0 1080 
z
" style="fill: none; opacity: 0"/>
  </g>
  <g id="axes_1">
   <g id="PatchCollection_1">
    <path d="M 296.124478 1017.617459 
L 294.641952 1017.976548 
L 293.468285 1017.976548 
L 292.97411 1017.677307 
L 292.850566 1017.138675 
L 292.850566 1016.480346 
L 293.468285 1015.582625 
L 295.506758 1014.026576 
L 299.460161 1010.675084 
L 305.513809 1006.78496 
L 309.528983 1004.510734 
L 318.856543 998.825168 
L 326.2074 992.960058 
L 327.628155 992.361577 
L 328.616505 992.301729 
L 329.234224 992.481273 
L 329.481312 992.840362 
L 329.295996 993.618386 
L 328.245874 994.875196 
L 322.501086 1000.022129 
L 314.408965 1005.947087 
L 308.725948 1010.49554 
L 302.548757 1014.924296 
L 299.521933 1016.540194 
L 298.039407 1017.138675 
L 296.124478 1017.617459 
" clip-path="url(#p2e84142880)"/>
    <path d="M 334.299521 986.496467 
L 333.867118 986.496467 
L 333.311171 986.436619 
L 332.755224 985.957834 
L 332.63168 985.060114 
L 333.187627 984.162393 
L 334.484837 982.546495 
L 337.511661 979.554092 
L 339.982538 976.980625 
L 341.712151 975.963208 
L 343.441765 975.005639 
L 343.997712 974.766247 
L 344.2448 974.287462 
L 344.2448 973.569286 
L 343.874168 972.252628 
L 343.688853 971.773844 
L 343.688853 971.055667 
L 344.121256 970.636731 
L 344.986063 970.397338 
L 345.603782 970.397338 
L 346.406817 970.576883 
L 346.962764 971.175363 
L 347.765799 973.090501 
L 347.827571 973.988222 
L 347.333396 974.885943 
L 346.345045 975.544272 
L 345.294922 976.082904 
L 343.874168 977.399562 
L 341.712151 979.554092 
L 336.955714 984.521481 
L 335.411416 985.957834 
L 334.299521 986.496467 
" clip-path="url(#p2e84142880)"/>
    <path d="M 354.190078 966.806455 
L 353.448815 966.806455 
L 353.016412 966.686758 
L 352.584008 966.507214 
L 352.151605 966.02843 
L 352.089833 965.250405 
L 352.398693 964.292836 
L 353.325271 962.377698 
L 354.128306 960.46256 
L 355.240201 959.026207 
L 356.16678 957.829245 
L 357.216902 956.871676 
L 359.07006 954.717146 
L 359.873094 953.759577 
L 360.36727 952.802008 
L 360.861445 951.664895 
L 361.788024 943.764951 
L 362.158655 942.86723 
L 362.591059 942.268749 
L 363.085234 941.969509 
L 363.641181 941.789965 
L 364.629532 941.789965 
L 365.185479 941.849813 
L 365.617883 942.089205 
L 366.050286 942.508141 
L 366.668005 943.764951 
L 367.100409 944.842216 
L 366.915093 946.637658 
L 366.359146 947.894467 
L 364.505988 951.724743 
L 362.96169 954.118665 
L 360.552586 957.829245 
L 359.07006 960.103472 
L 356.228551 964.891317 
L 355.610832 965.848886 
L 354.869569 966.507214 
L 354.190078 966.806455 
" clip-path="url(#p2e84142880)"/>
    <path d="M 1015.02603 521.297481 
L 1014.346539 521.357329 
L 1013.790592 521.297481 
L 1013.543504 520.878544 
L 1013.667048 519.861127 
L 1014.840714 516.509636 
L 1015.458434 515.192978 
L 1015.952609 514.295257 
L 1017.743994 513.098296 
L 1021.079678 511.302854 
L 1027.133326 508.310451 
L 1028.430536 507.771819 
L 1029.357115 507.592274 
L 1030.160149 507.652122 
L 1030.716097 508.011211 
L 1031.1485 508.729388 
L 1031.272044 509.447564 
L 1030.901412 509.926349 
L 1029.604202 510.883918 
L 1025.959659 512.439967 
L 1023.179923 513.876321 
L 1020.585503 515.911155 
L 1017.496907 518.963406 
L 1015.890837 520.639152 
L 1015.02603 521.297481 
" clip-path="url(#p2e84142880)"/>
    <path d="M 1067.532158 504.180935 
L 1066.60558 504.240783 
L 1066.049632 503.881695 
L 1065.679001 503.10367 
L 1065.617229 501.966557 
L 1065.802545 499.39309 
L 1065.98786 496.939319 
L 1066.420264 496.460535 
L 1066.976211 496.340839 
L 1067.532158 496.580231 
L 1068.335193 497.5378 
L 1068.767597 498.315825 
L 1069.076456 499.452938 
L 1069.2 500.889291 
L 1069.076456 501.84686 
L 1068.89114 502.684733 
L 1068.396965 503.462758 
L 1067.532158 504.180935 
" clip-path="url(#p2e84142880)"/>
    <path d="M 1034.669499 510.883918 
L 1033.866464 510.943766 
L 1033.186973 510.464981 
L 1033.125201 509.088476 
L 1033.063429 507.293034 
L 1033.063429 504.599871 
L 1033.434061 502.983974 
L 1035.904938 498.435521 
L 1037.449235 495.921902 
L 1042.514533 490.595425 
L 1044.985409 488.500743 
L 1045.726672 487.184085 
L 1046.406163 484.790163 
L 1046.591479 482.934873 
L 1046.900339 478.147028 
L 1047.023882 475.753105 
L 1047.27097 474.07736 
L 1047.703373 473.000095 
L 1048.444636 472.162222 
L 1049.185899 472.162222 
L 1049.803619 472.700854 
L 1050.544882 474.137208 
L 1050.977285 477.129611 
L 1050.544882 481.678064 
L 1049.309443 487.423477 
L 1047.57983 491.67269 
L 1043.873515 498.136281 
L 1040.970235 502.385493 
L 1037.511007 507.173338 
L 1035.34899 510.285437 
L 1034.669499 510.883918 
" clip-path="url(#p2e84142880)"/>
    <path d="M 419.853624 88.3566 
L 425.166009 91.349003 
L 429.304727 92.785356 
L 434.8642 93.323989 
L 449.504144 93.204293 
L 456.422598 93.982317 
L 458.275756 94.52095 
L 462.908649 95.957304 
L 473.039244 101.762566 
L 475.880752 103.976944 
L 479.154663 107.388283 
L 480.698961 110.440535 
L 482.428575 114.510203 
L 483.108066 120.195769 
L 482.552119 123.8465 
L 480.204786 131.985837 
L 477.733909 139.347149 
L 473.286331 148.56375 
L 470.321279 153.650835 
L 463.958772 163.046981 
L 458.831703 171.246166 
L 458.213984 173.460544 
L 458.028668 175.315834 
L 458.461072 177.949149 
L 460.005369 182.198361 
L 463.217509 187.704383 
L 466.244333 191.774051 
L 468.344578 194.58691 
L 472.668612 199.195211 
L 475.263033 201.648981 
L 480.698961 204.401992 
L 490.582468 206.795914 
L 499.848255 208.112572 
L 508.681639 209.070141 
L 537.09672 208.830749 
L 543.335683 209.848166 
L 548.70984 210.805735 
L 558.655118 213.379201 
L 564.029275 215.354187 
L 568.167993 217.987502 
L 572.492028 221.997322 
L 575.333536 225.827598 
L 576.630746 229.298786 
L 577.310237 233.368454 
L 577.372009 236.839642 
L 576.939605 241.088854 
L 575.086448 244.978978 
L 571.688993 249.467583 
L 560.755364 258.744032 
L 554.763488 263.053093 
L 545.621244 269.995468 
L 539.382281 275.740882 
L 533.637493 282.922649 
L 529.004599 289.68548 
L 525.17474 297.824817 
L 524.371705 301.296004 
L 524.18639 305.006584 
L 524.865881 309.255797 
L 526.224863 314.10349 
L 528.38688 319.609511 
L 530.795985 323.858724 
L 531.475476 324.636749 
L 534.255212 327.689 
L 537.529123 330.741251 
L 541.173666 332.536693 
L 544.632894 333.314718 
L 547.906805 333.25487 
L 551.736664 332.835933 
L 558.593347 330.980643 
L 564.585222 328.467025 
L 570.824186 324.756445 
L 579.781114 319.370119 
L 585.15527 315.898932 
L 589.479304 312.906529 
L 592.011953 311.170935 
L 597.756741 306.442938 
L 606.09595 298.423297 
L 614.620474 291.061986 
L 619.129824 287.53095 
L 623.824489 284.478699 
L 628.519155 281.187056 
L 631.298891 278.613589 
L 633.028505 277.057539 
L 640.502907 269.875772 
L 648.34794 261.497043 
L 653.907412 256.35011 
L 656.934236 254.315276 
L 658.849165 253.716795 
L 661.875989 253.656947 
L 662.926112 254.49482 
L 664.902813 256.709198 
L 667.497234 260.539474 
L 669.041531 263.591725 
L 671.203549 267.840938 
L 677.318968 277.775716 
L 681.272371 283.22189 
L 684.299195 287.291558 
L 688.870316 291.480922 
L 694.923964 296.149071 
L 702.707225 300.577828 
L 709.996311 303.330839 
L 714.999837 304.5278 
L 720.373993 305.12628 
L 725.933466 305.066432 
L 727.786623 305.12628 
L 732.419517 305.245977 
L 736.743551 305.784609 
L 740.57341 307.220963 
L 747.306548 310.991391 
L 757.251827 317.873918 
L 766.579386 325.714014 
L 769.60621 328.945809 
L 774.177332 334.631375 
L 777.636559 340.077549 
L 783.072487 347.977493 
L 789.62031 356.296373 
L 794.191432 361.503155 
L 798.330151 366.59024 
L 806.978219 374.849273 
L 808.151885 375.687146 
L 811.919972 378.32046 
L 822.112338 383.946178 
L 828.165986 386.340101 
L 836.566966 388.674175 
L 841.694035 389.871136 
L 849.230209 390.649161 
L 857.01347 391.008249 
L 864.920275 390.529465 
L 870.109116 389.691592 
L 875.236185 388.434783 
L 881.228061 385.74162 
L 886.169814 383.048457 
L 890.679164 379.756814 
L 894.941426 375.687146 
L 898.27711 371.737174 
L 900.253811 369.343251 
L 904.08367 365.632671 
L 906.616318 363.657685 
L 906.925178 363.358445 
L 909.643142 361.922091 
L 912.48465 361.084218 
L 919.156017 361.084218 
L 927.30991 361.622851 
L 931.386857 360.964522 
L 934.166593 359.348625 
L 938.861258 356.475918 
L 945.717941 351.927465 
L 949.362484 350.072175 
L 951.709817 349.234302 
L 953.43943 349.054758 
L 954.983728 348.99491 
L 957.083973 349.832783 
L 958.319412 350.491111 
L 958.813587 350.8502 
L 961.222692 352.645642 
L 964.496603 356.894854 
L 967.955831 361.563003 
L 972.279865 366.829632 
L 976.171495 370.659908 
L 983.584125 377.123499 
L 993.282316 386.220405 
L 1002.609875 395.077918 
L 1008.478207 400.943028 
L 1015.211346 407.705859 
L 1012.060978 412.852792 
L 1014.840714 415.665651 
L 1019.84424 418.897446 
L 1030.407237 428.951921 
L 1034.113552 432.722349 
L 1035.410762 435.295815 
L 1035.410762 436.732169 
L 1034.669499 437.62989 
L 1028.492308 439.365484 
L 1025.712571 440.323053 
L 1024.971309 441.460166 
L 1025.03308 443.375304 
L 1026.330291 451.394944 
L 1027.318641 456.302485 
L 1027.380413 460.312305 
L 1026.392063 465.519087 
L 1023.73587 472.82055 
L 1016.817416 483.473505 
L 1014.408311 485.388643 
L 1010.887312 487.124237 
L 1000.386086 491.912082 
L 995.876736 494.006764 
L 993.714719 494.246157 
L 992.293965 494.12646 
L 990.996755 493.587828 
L 988.464106 492.031778 
L 983.028178 487.483326 
L 982.163371 485.867428 
L 982.286915 484.670467 
L 983.954757 480.840191 
L 985.746142 477.249307 
L 987.166896 472.641006 
L 987.166896 471.683437 
L 985.869686 470.606172 
L 984.016529 470.127388 
L 981.051477 470.36678 
L 973.453531 473.179639 
L 965.237866 476.23189 
L 958.998903 478.147028 
L 954.674869 477.369003 
L 951.277413 475.513713 
L 946.397432 471.204653 
L 944.420731 470.426628 
L 942.999977 470.426628 
L 939.293662 472.102374 
L 937.872908 473.718271 
L 938.181767 475.573561 
L 938.181767 476.950067 
L 936.513926 478.266724 
L 930.830909 480.780343 
L 923.171192 482.695481 
L 917.241088 484.909859 
L 908.160616 489.278767 
L 903.651266 492.211322 
L 902.230512 493.408284 
L 902.106969 494.246157 
L 902.106969 494.724941 
L 902.78646 495.562814 
L 904.08367 497.477952 
L 904.08367 498.794609 
L 903.033547 499.871874 
L 902.292284 500.350659 
L 897.041672 501.607468 
L 884.440201 504.95896 
L 872.085818 505.976377 
L 859.731435 507.592274 
L 844.473771 509.088476 
L 832.304704 510.165741 
L 816.120462 511.602095 
L 814.020217 512.140727 
L 811.487569 512.858904 
L 801.974694 519.14295 
L 799.442045 520.519456 
L 797.403572 520.99824 
L 793.511941 521.357329 
L 775.474542 521.297481 
L 768.617859 521.297481 
L 764.973316 521.596721 
L 764.232053 521.836113 
L 763.49079 522.314898 
L 763.367246 523.033074 
L 763.367246 524.11034 
L 763.367246 526.504262 
L 762.873071 527.461831 
L 761.88472 528.180008 
L 751.445267 534.224662 
L 735.940516 541.167037 
L 733.284324 542.603391 
L 728.404342 545.176857 
L 714.814521 553.256346 
L 707.525435 556.907078 
L 691.155877 563.849453 
L 685.781721 566.303223 
L 685.040458 567.380488 
L 684.916914 568.338057 
L 685.164001 569.535019 
L 685.905264 570.492588 
L 686.955387 570.851676 
L 688.190825 570.672132 
L 689.117404 570.791828 
L 689.364492 571.390309 
L 689.117404 572.467574 
L 686.337668 575.878913 
L 672.747846 591.73865 
L 663.852691 602.690845 
L 655.575254 610.770333 
L 646.062379 618.730126 
L 638.649749 626.33083 
L 630.804716 634.769406 
L 620.427034 646.798867 
L 618.017929 649.910966 
L 616.164772 652.903369 
L 614.188071 655.237444 
L 609.184545 659.785896 
L 603.130898 666.548727 
L 599.856986 670.438851 
L 592.5679 677.860011 
L 589.66462 679.715301 
L 586.637796 681.450895 
L 583.363885 683.545577 
L 579.904657 687.256157 
L 572.492028 696.951543 
L 568.662169 702.337868 
L 563.411556 708.202978 
L 555.010575 717.599124 
L 551.674892 721.608944 
L 539.814684 733.817949 
L 531.166616 742.316374 
L 519.182864 755.423099 
L 511.090744 764.699549 
L 504.234061 771.46238 
L 502.689763 773.138126 
L 495.030046 781.397158 
L 482.799206 795.281909 
L 474.645313 805.276535 
L 470.259507 811.799974 
L 448.392249 836.158135 
L 440.423672 844.65656 
L 438.879374 846.81109 
L 438.199883 847.409571 
L 437.643936 847.828507 
L 436.779129 848.307292 
L 435.420147 848.786076 
L 434.678884 848.905772 
L 434.061165 848.546684 
L 433.999393 847.948203 
L 434.246481 847.050482 
L 434.370025 846.571698 
L 434.678884 846.033065 
L 430.787253 846.092913 
L 424.54829 846.272458 
L 424.115887 847.529267 
L 423.745255 849.743645 
L 423.436395 851.479239 
L 422.077413 854.471642 
L 419.421221 858.661006 
L 416.703257 862.431434 
L 415.52959 864.765509 
L 415.097187 866.441255 
L 414.973643 869.074569 
L 415.776678 872.785149 
L 416.209081 875.8374 
L 416.270853 878.291171 
L 416.085538 880.385853 
L 415.467818 882.300991 
L 414.108836 886.370659 
L 413.429345 888.166101 
L 412.440995 889.42291 
L 411.205556 891.218352 
L 410.155434 891.996377 
L 407.190382 893.13349 
L 405.151908 894.091059 
L 403.175207 895.946349 
L 399.530664 899.537233 
L 394.156508 905.222799 
L 387.176281 911.746238 
L 379.454792 918.748461 
L 377.910494 919.765878 
L 376.675055 920.30451 
L 374.945442 920.30451 
L 373.215828 920.30451 
L 371.609758 919.825726 
L 367.409268 917.192411 
L 365.86497 915.935602 
L 365.803198 914.618944 
L 366.853321 913.421983 
L 369.447741 912.225022 
L 373.462916 911.028061 
L 376.242652 910.369732 
L 377.972266 910.010644 
L 380.443142 910.190188 
L 382.543387 910.010644 
L 384.273001 909.172771 
L 384.767176 907.796265 
L 384.025913 906.479608 
L 382.975791 905.701583 
L 381.802124 905.342495 
L 379.887195 905.522039 
L 374.451266 906.41976 
L 369.447741 907.796265 
L 363.517637 909.8311 
L 361.232077 909.8311 
L 359.687779 908.873531 
L 357.402218 905.881127 
L 356.660955 903.427357 
L 356.660955 902.469788 
L 357.649305 900.614498 
L 358.699428 898.759208 
L 358.514112 898.100879 
L 357.649305 897.502399 
L 354.004762 897.023614 
L 346.097957 896.305437 
L 316.941613 905.462191 
L 295.939162 912.58411 
L 297.236372 918.987853 
L 300.016108 919.586334 
L 303.660651 919.765878 
L 307.058107 917.671196 
L 310.70265 915.636362 
L 311.629228 922.518889 
L 310.949737 926.16962 
L 309.590755 929.461264 
L 307.984685 931.974882 
L 307.614054 931.316554 
L 306.131528 931.077162 
L 298.842442 930.538529 
L 296.124478 929.640808 
L 285.685024 932.932451 
L 284.511358 929.760504 
L 280.619727 916.653779 
L 278.581254 905.881127 
L 278.519482 897.562247 
L 280.866815 880.864637 
L 286.982234 862.25189 
L 291.429812 850.042886 
L 296.803969 835.260414 
L 297.298144 833.764213 
L 299.460161 827.001382 
L 302.301669 817.904476 
L 303.845967 812.637847 
L 304.58723 808.149242 
L 304.957862 802.164436 
L 306.007984 793.905403 
L 306.131528 792.76829 
L 306.872791 785.945611 
L 308.170001 773.377518 
L 310.023159 768.709369 
L 313.667702 764.220765 
L 316.941613 761.348058 
L 322.253998 758.654895 
L 327.937014 756.919301 
L 331.581557 755.842036 
L 335.287872 754.764771 
L 339.488362 752.969329 
L 345.418466 748.60042 
L 349.804272 743.214095 
L 352.522236 736.810352 
L 354.807797 729.269496 
L 355.240201 723.524082 
L 355.672604 716.282467 
L 356.413867 704.253006 
L 357.525762 698.028808 
L 362.220427 685.520563 
L 370.930267 667.506296 
L 375.748477 658.648783 
L 377.663406 656.254861 
L 379.887195 653.50185 
L 382.975791 651.347319 
L 385.693755 649.49203 
L 390.079561 644.584488 
L 392.179806 640.814061 
L 392.550438 635.068647 
L 392.241578 628.605056 
L 389.956017 619.448302 
L 387.546913 609.094588 
L 384.828948 594.312116 
L 383.840598 585.693995 
L 383.408194 565.106262 
L 382.790475 554.513155 
L 381.616809 548.348805 
L 380.257827 542.902631 
L 376.613284 528.359552 
L 371.115583 512.021031 
L 368.644706 502.983974 
L 367.409268 494.605245 
L 365.741426 491.074209 
L 363.641181 489.099223 
L 361.293848 488.021958 
L 358.267025 488.021958 
L 355.178429 488.26135 
L 344.615431 492.450715 
L 326.701576 499.034002 
L 309.405439 503.582454 
L 301.68395 505.198352 
L 301.251547 505.198352 
L 297.298144 504.779415 
L 294.950811 502.864277 
L 292.109303 498.016584 
L 289.206023 490.056792 
L 283.893638 469.768299 
L 281.175674 458.038079 
L 281.36099 454.507043 
L 281.546306 452.77145 
L 281.669849 452.053273 
L 279.693148 447.923757 
L 278.334166 446.367707 
L 275.863289 444.991201 
L 272.960009 444.632113 
L 269.315466 445.290442 
L 265.918011 447.145732 
L 262.644099 450.138135 
L 260.852714 453.848715 
L 258.876013 460.551698 
L 257.269943 467.015288 
L 255.416785 473.239487 
L 253.687172 476.351586 
L 246.830489 484.850011 
L 242.506455 489.159071 
L 238.305965 492.271171 
L 225.58095 500.470355 
L 219.897934 503.343062 
L 215.26504 504.599871 
L 211.682269 504.839264 
L 207.358235 504.360479 
L 202.66357 503.10367 
L 197.84536 500.829443 
L 194.015501 498.435521 
L 190.43273 495.38327 
L 186.23224 491.612842 
L 181.784662 487.064389 
L 178.016575 482.755329 
L 176.410505 479.284141 
L 175.483927 474.496296 
L 175.483927 473.359183 
L 175.669242 471.982677 
L 176.348734 470.36678 
L 177.707716 468.691034 
L 180.178592 467.494073 
L 182.464153 466.835744 
L 185.985152 466.6562 
L 189.073748 466.775896 
L 194.694992 467.134984 
L 199.574974 467.374377 
L 202.725341 466.95544 
L 205.443306 465.10015 
L 206.493428 463.185012 
L 206.740516 460.551698 
L 206.308113 456.541877 
L 205.196218 452.831298 
L 203.095973 449.419958 
L 199.080798 445.769226 
L 196.23929 444.632113 
L 193.64487 444.632113 
L 190.926906 445.05105 
L 186.5411 447.026036 
L 185.799837 447.385124 
L 183.452504 448.222997 
L 175.483927 451.454792 
L 170.295086 452.711601 
L 158.620194 453.07069 
L 145.401004 452.232817 
L 138.606093 451.095704 
L 134.220287 450.377527 
L 124.64564 447.265428 
L 116.800607 443.19576 
L 107.164188 436.672321 
L 101.4194 432.303412 
L 99.628014 430.089034 
L 99.566243 427.455719 
L 100.678137 423.266355 
L 101.295856 421.650457 
L 103.643189 416.144436 
L 107.102416 404.055127 
L 107.596592 398.848346 
L 106.731785 391.726426 
L 105.311031 387.836302 
L 100.183962 379.696966 
L 93.944998 372.096262 
L 80.416949 358.750144 
L 71.336477 351.568377 
L 65.653461 348.157037 
L 47.616062 339.838156 
L 32.914346 333.613958 
L 30.937644 332.955629 
L 30.567013 330.681403 
L 30.937644 328.407177 
L 31.308276 327.569304 
L 32.173083 325.953406 
L 34.273328 324.217812 
L 42.427221 319.011031 
L 50.519342 310.213366 
L 54.843376 299.859651 
L 56.140586 292.79758 
L 55.399323 289.865025 
L 53.36085 288.308975 
L 51.631236 288.009735 
L 44.156834 288.069583 
L 33.902696 287.53095 
L 31.12296 285.615812 
L 29.763978 281.725688 
L 29.702206 276.279515 
L 29.269803 270.833341 
L 27.293101 269.157595 
L 27.107786 264.190206 
L 25.748804 260.719018 
L 22.289576 256.589502 
L 18.521489 253.417555 
L 14.444543 248.988798 
L 12.344298 243.243384 
L 10.8 228.221521 
L 11.479491 224.092004 
L 12.344298 221.75793 
L 14.01214 220.979905 
L 17.286051 220.560969 
L 18.521489 220.501121 
L 23.092611 221.638234 
L 30.505241 221.219297 
L 35.817626 218.406439 
L 47.492518 212.361784 
L 49.407447 211.224671 
L 50.210482 210.506494 
L 50.581114 209.249685 
L 49.716307 203.444423 
L 49.345675 200.870956 
L 49.654535 199.255059 
L 50.272254 198.477034 
L 51.384148 197.758857 
L 57.746656 195.005846 
L 59.846901 193.868733 
L 61.76183 191.295266 
L 69.359776 181.420336 
L 72.819003 178.667325 
L 75.28988 178.068845 
L 80.293405 178.248389 
L 80.725808 181.659728 
L 88.261982 181.420336 
L 88.323754 179.14611 
L 88.323754 178.727173 
L 88.323754 176.512795 
L 90.547543 170.228749 
L 90.918174 167.475738 
L 92.153613 157.481111 
L 92.894876 154.907645 
L 94.624489 153.471291 
L 99.628014 154.847797 
L 100.12219 160.832603 
L 100.739909 164.662879 
L 102.284207 167.894674 
L 105.002171 170.468141 
L 107.53482 171.485558 
L 114.885678 171.42571 
L 117.727186 171.784798 
L 119.333256 172.323431 
L 120.074519 173.221152 
L 120.074519 175.016594 
L 117.294782 182.318057 
L 114.700362 190.57709 
L 113.094292 198.836122 
L 112.661889 206.61637 
L 113.217836 211.643607 
L 114.453274 213.678442 
L 123.966149 223.852612 
L 127.487148 220.979905 
L 135.455725 216.551149 
L 138.976725 215.773124 
L 173.074822 214.755707 
L 173.754313 214.755707 
L 172.518875 213.618594 
L 169.368507 210.745887 
L 163.747263 204.820928 
L 160.596895 199.733843 
L 160.226264 198.117945 
L 160.10272 194.527062 
L 160.843983 189.739217 
L 165.723964 172.562823 
L 168.318384 166.278776 
L 172.580647 161.490931 
L 175.236839 157.8402 
L 175.978102 154.907645 
L 175.545699 149.042535 
L 175.545699 147.785725 
L 177.151768 147.067549 
L 180.549224 146.349372 
L 182.773013 145.990283 
L 187.776538 145.152411 
L 190.74159 143.476665 
L 193.521326 141.14259 
L 195.127396 139.646389 
L 195.436255 137.611555 
L 195.436255 134.499455 
L 194.818536 128.215409 
L 194.756764 125.043462 
L 195.436255 119.896528 
L 197.104097 110.979167 
L 199.513202 107.80722 
L 206.122797 104.39588 
L 209.829112 103.378463 
L 213.65897 103.198919 
L 218.786039 103.617855 
L 221.751091 105.772386 
L 227.434108 112.834457 
L 229.904984 115.288228 
L 231.69637 115.288228 
L 236.576351 113.073849 
L 240.900385 111.039015 
L 243.00063 110.859471 
L 245.100875 110.859471 
L 246.706945 111.697344 
L 248.313015 115.467772 
L 249.919085 118.938959 
L 252.204646 121.39273 
L 255.910961 122.709387 
L 273.515957 129.651762 
L 280.866815 131.26766 
L 284.202498 131.387356 
L 286.488059 130.369939 
L 287.908813 128.873738 
L 288.897164 126.360119 
L 293.344741 115.587468 
L 293.838917 112.894305 
L 293.838917 110.919319 
L 293.653601 109.123877 
L 288.341216 102.061806 
L 283.152375 94.82019 
L 282.472884 92.306572 
L 283.337691 87.937663 
L 285.932112 81.414224 
L 288.711848 78.421821 
L 293.221198 75.608962 
L 308.231773 67.828714 
L 312.432263 67.290082 
L 322.068682 66.571905 
L 326.454488 65.853728 
L 328.740049 64.656767 
L 330.778522 62.202997 
L 332.013961 62.023452 
L 333.434715 62.502237 
L 335.53496 64.118135 
L 339.42659 68.367347 
L 340.847344 69.025676 
L 343.997712 69.684004 
L 349.186553 71.000662 
L 347.271624 85.783133 
L 347.456939 94.580798 
L 348.507062 99.488339 
L 350.298448 102.181502 
L 352.707552 104.695121 
L 355.178429 107.448131 
L 359.626007 110.26099 
L 363.27055 110.560231 
L 370.250776 109.602662 
L 385.693755 106.25117 
L 397.924594 103.438311 
L 401.32205 101.164085 
L 408.364048 93.024748 
L 411.3291 90.989914 
L 416.394397 89.433865 
L 419.853624 88.3566 
" clip-path="url(#p2e84142880)"/>
   </g>
  </g>
 </g>
 <defs>
  <clipPath id="p2e84142880">
   <rect x="10.8" y="62.023452" width="1058.4" height="955.953095"/>
  </clipPath>
 </defs>
</svg>
