<?xml version="1.0" encoding="utf-8" standalone="no"?>
<!DOCTYPE svg PUBLIC "-//W3C//DTD SVG 1.1//EN"
  "http://www.w3.org/Graphics/SVG/1.1/DTD/svg11.dtd">
<svg xmlns:xlink="http://www.w3.org/1999/xlink" width="1080pt" height="1080pt" viewBox="0 0 1080 1080" xmlns="http://www.w3.org/2000/svg" version="1.1">
 <metadata>
  <rdf:RDF xmlns:dc="http://purl.org/dc/elements/1.1/" xmlns:cc="http://creativecommons.org/ns#" xmlns:rdf="http://www.w3.org/1999/02/22-rdf-syntax-ns#">
   <cc:Work>
    <dc:type rdf:resource="http://purl.org/dc/dcmitype/StillImage"/>
    <dc:date>2022-07-01T13:43:26.596413</dc:date>
    <dc:format>image/svg+xml</dc:format>
    <dc:creator>
     <cc:Agent>
      <dc:title>Matplotlib v3.5.1, https://matplotlib.org/</dc:title>
     </cc:Agent>
    </dc:creator>
   </cc:Work>
  </rdf:RDF>
 </metadata>
 <defs>
  <style type="text/css">*{stroke-linejoin: round; stroke-linecap: butt}</style>
 </defs>
 <g id="figure_1">
  <g id="patch_1">
   <path d="M 0 1080 
L 1080 1080 
L 1080 0 
L 0 0 
L 0 1080 
z
" style="fill: none; opacity: 0"/>
  </g>
  <g id="axes_1">
   <g id="PatchCollection_1">
    <path d="M 1068.983228 780.101645 
L 1068.825575 780.158924 
L 1068.411738 780.101645 
L 1067.919074 779.605232 
L 1068.076726 778.898798 
L 1068.451151 778.784241 
L 1069.14088 779.089726 
L 1069.2 779.547954 
L 1069.2 779.853439 
L 1068.983228 780.101645 
" clip-path="url(#pc99a018441)"/>
    <path d="M 960.932152 779.681603 
L 960.419781 779.719789 
L 959.96653 779.681603 
L 959.434453 779.18519 
L 959.020615 778.536035 
L 958.784136 777.982343 
L 958.784136 777.600487 
L 958.803843 777.390466 
L 959.060028 777.084981 
L 959.90741 776.569475 
L 960.813912 776.111248 
L 961.621881 775.65302 
L 962.587503 774.679287 
L 962.883101 774.316523 
L 963.1787 774.240152 
L 963.434885 774.411988 
L 964.242854 775.194793 
L 964.715811 775.614835 
L 965.109943 776.111248 
L 965.109943 776.817682 
L 964.932584 777.275909 
L 964.223147 777.791415 
L 963.218113 778.154179 
L 962.016013 778.249643 
L 961.85836 778.383292 
L 961.464229 778.936984 
L 961.208043 779.433397 
L 960.932152 779.681603 
" clip-path="url(#pc99a018441)"/>
    <path d="M 1057.632248 779.605232 
L 1057.060758 779.815253 
L 1056.036017 779.605232 
L 1054.87333 778.975169 
L 1054.065361 778.115993 
L 1053.060326 776.39764 
L 1051.858226 774.755658 
L 1051.247323 773.132769 
L 1050.991137 772.540892 
L 1051.345855 772.273593 
L 1052.311477 772.579078 
L 1054.439786 774.163781 
L 1056.962225 776.073062 
L 1057.435183 776.569475 
L 1057.927847 777.925065 
L 1057.947553 779.032448 
L 1057.632248 779.605232 
" clip-path="url(#pc99a018441)"/>
    <path d="M 976.106204 531.933287 
L 975.987965 532.296051 
L 974.884397 535.885499 
L 974.35232 538.558493 
L 973.406405 540.219567 
L 971.494869 541.517878 
L 970.075996 541.498786 
L 969.543919 540.945094 
L 969.524212 539.780433 
L 968.992135 539.28402 
L 967.179132 539.494041 
L 966.016444 539.914082 
L 964.223147 541.861549 
L 962.567796 545.107327 
L 961.22775 548.353105 
L 960.813912 550.472407 
L 959.099441 558.682316 
L 958.882669 559.770606 
L 958.508245 560.687061 
L 957.719982 561.737165 
L 955.03989 563.646446 
L 953.916616 564.62018 
L 953.286006 565.002036 
L 952.950994 564.868386 
L 952.773635 564.333788 
L 952.931288 563.340961 
L 953.128353 561.011639 
L 952.891875 559.904256 
L 952.143025 558.796872 
L 950.704446 557.55584 
L 949.462933 557.116705 
L 948.241126 558.720501 
L 947.374037 559.86607 
L 947.689342 560.362483 
L 947.925821 560.858896 
L 947.945528 561.870815 
L 947.452864 563.130941 
L 946.250763 564.448345 
L 944.989543 565.536635 
L 943.629791 566.968596 
L 942.270038 569.202454 
L 941.146764 573.269223 
L 940.259969 578.729767 
L 939.708185 581.80371 
L 939.294347 584.037569 
L 938.82139 588.906235 
L 939.097282 593.335768 
L 939.156401 598.299899 
L 938.742563 603.798628 
L 938.486378 610.175627 
L 938.644031 615.330686 
L 939.116988 618.652835 
L 939.944664 620.92488 
L 940.910285 622.528676 
L 942.329158 624.647978 
L 942.644463 624.93437 
L 942.861235 625.54534 
L 942.54593 625.946289 
L 940.319088 626.175403 
L 936.909853 626.118124 
L 935.648633 626.519073 
L 934.072108 628.065591 
L 933.126193 628.46654 
L 932.475877 628.275612 
L 932.259105 627.072765 
L 932.436464 624.533421 
L 930.997885 624.991648 
L 929.795785 625.373505 
L 929.815491 626.996394 
L 929.204588 629.020231 
L 927.312758 630.853141 
L 925.204156 632.399659 
L 920.238102 635.187209 
L 919.272481 635.187209 
L 918.208327 634.194383 
L 916.809161 631.979617 
L 914.326134 629.68848 
L 912.946675 629.402088 
L 911.350443 629.21116 
L 909.222135 629.440273 
L 905.734073 631.292276 
L 904.334907 632.514216 
L 900.846846 635.53088 
L 898.541178 637.879296 
L 895.407835 642.156085 
L 891.762121 649.086776 
L 888.549952 655.482868 
L 886.027512 661.325268 
L 884.904238 665.162923 
L 883.899203 670.833488 
L 883.662724 676.198568 
L 883.741551 678.776097 
L 883.564192 681.506369 
L 883.248887 682.919237 
L 882.204439 684.16027 
L 881.159991 684.675776 
L 880.82498 685.706787 
L 880.549088 686.60415 
L 881.554122 687.08147 
L 882.401504 687.635161 
L 883.051821 688.685266 
L 883.406539 690.556361 
L 883.327713 692.942963 
L 883.505072 695.157729 
L 883.820377 697.257938 
L 884.175095 700.026396 
L 884.687466 703.100338 
L 885.318076 706.174281 
L 886.126045 709.840101 
L 886.855187 712.245795 
L 887.505504 714.670582 
L 887.840515 715.835243 
L 887.722276 716.866255 
L 887.840515 717.78271 
L 888.27406 718.221845 
L 888.924376 718.832815 
L 889.318507 721.047581 
L 890.461488 724.006966 
L 891.013272 725.973526 
L 891.269457 727.004538 
L 891.545349 728.226478 
L 891.88036 728.780169 
L 892.05772 728.932912 
L 892.57009 729.372046 
L 893.594831 730.116666 
L 894.284561 730.307594 
L 895.131943 730.21213 
L 896.038445 730.498522 
L 898.324406 731.644091 
L 898.81707 732.04504 
L 899.092962 732.445989 
L 898.994429 732.99968 
L 898.718537 733.553372 
L 898.738244 733.916135 
L 899.152082 734.412548 
L 900.76802 735.042611 
L 901.989826 735.539024 
L 902.817502 735.500839 
L 903.388992 734.737126 
L 903.645178 733.667929 
L 904.275788 733.114237 
L 904.591093 732.904216 
L 905.399062 733.801578 
L 905.990258 734.813497 
L 906.699695 736.417294 
L 907.350011 737.429213 
L 907.665316 737.581955 
L 908.768884 737.620141 
L 910.207463 737.200099 
L 910.838073 737.085542 
L 911.37015 737.429213 
L 911.803694 738.192925 
L 912.079586 739.300308 
L 913.321099 740.235856 
L 914.168481 740.694083 
L 914.602026 740.732269 
L 915.074983 740.121299 
L 915.488821 739.624886 
L 916.277083 739.204844 
L 917.656543 739.796721 
L 918.838936 740.293134 
L 919.607492 740.904104 
L 920.336635 743.538912 
L 920.927832 744.837223 
L 921.420496 745.753678 
L 924.080882 749.266755 
L 925.420928 750.870552 
L 926.662441 752.073399 
L 928.061607 753.123503 
L 929.933731 753.658102 
L 930.938765 753.448081 
L 932.416757 752.722554 
L 933.264139 752.932575 
L 934.012989 753.619916 
L 934.111522 753.98268 
L 934.072108 754.173608 
L 932.968541 754.59365 
L 932.436464 754.860949 
L 932.022626 755.357362 
L 931.805854 756.063796 
L 931.727028 757.3812 
L 932.081746 757.973077 
L 932.475877 758.584047 
L 933.283846 759.595966 
L 933.71739 759.996915 
L 934.111522 760.378771 
L 934.131228 760.550607 
L 934.072108 760.684256 
L 933.914456 760.836999 
L 933.264139 760.932463 
L 931.864974 760.894277 
L 931.786147 761.715268 
L 931.707321 762.574445 
L 932.436464 767.003977 
L 935.254502 771.929922 
L 936.850734 775.080236 
L 938.151367 777.237724 
L 940.516154 780.235295 
L 942.132092 782.10639 
L 944.693945 784.664827 
L 946.664601 786.784129 
L 947.413451 787.433285 
L 953.305712 793.657541 
L 953.561898 794.211233 
L 953.581604 794.917667 
L 953.581604 795.471358 
L 952.438624 796.387813 
L 951.906547 796.750576 
L 953.404245 798.163444 
L 949.42352 800.588231 
L 947.827288 802.249306 
L 946.763134 803.375782 
L 945.718686 804.674093 
L 945.147196 806.35426 
L 945.265435 807.404365 
L 945.659567 808.492655 
L 947.511983 811.700248 
L 948.871736 814.64054 
L 949.581172 816.492543 
L 951.374469 821.208467 
L 953.739257 826.649919 
L 955.394608 830.029346 
L 957.44409 833.92428 
L 958.429418 837.227336 
L 958.547658 838.964782 
L 957.936754 840.549485 
L 956.81348 841.847796 
L 954.054562 843.146107 
L 949.679705 843.90982 
L 947.117852 844.043469 
L 944.713652 843.508871 
L 940.516154 841.924167 
L 937.974008 841.637775 
L 936.318656 841.924167 
L 934.229761 842.993365 
L 932.57441 844.005284 
L 931.332896 845.112667 
L 930.544634 846.888298 
L 929.36224 850.764139 
L 928.84987 852.635234 
L 928.396619 854.277216 
L 927.352171 858.210335 
L 927.253638 858.363078 
L 926.228897 859.985967 
L 925.085916 861.456113 
L 923.903523 861.876155 
L 922.149639 862.162547 
L 920.573114 862.773517 
L 919.686319 863.74725 
L 918.858643 865.751996 
L 918.740404 868.119504 
L 918.937469 872.339015 
L 919.036002 877.169497 
L 918.740404 880.491646 
L 918.149207 882.534576 
L 916.86828 884.367486 
L 914.996157 886.792273 
L 912.729902 888.491534 
L 912.394891 888.73974 
L 910.778953 889.064318 
L 909.695092 888.987947 
L 909.241841 888.415162 
L 908.808297 886.811366 
L 908.374752 886.238582 
L 906.936173 885.608519 
L 905.497594 885.627612 
L 905.182289 885.742169 
L 903.980189 886.143118 
L 900.76802 887.727821 
L 898.777657 888.797018 
L 897.023773 890.362629 
L 894.856051 893.111994 
L 893.77219 894.066634 
L 892.550384 894.505769 
L 890.835913 894.696697 
L 888.884963 894.71579 
L 886.579295 894.429398 
L 884.332747 893.3602 
L 883.22918 892.233724 
L 882.854755 891.431826 
L 882.637983 890.916321 
L 882.204439 889.178875 
L 878.913443 889.407988 
L 878.519312 889.446174 
L 874.794772 889.618009 
L 873.218247 890.038051 
L 871.917614 890.897228 
L 870.814046 891.508198 
L 869.493707 891.52729 
L 868.528085 891.737311 
L 867.660996 893.245643 
L 866.990973 895.498595 
L 866.399777 897.885197 
L 865.847993 898.419795 
L 864.606479 898.438888 
L 861.847561 897.808825 
L 859.699546 897.426969 
L 857.492411 897.522433 
L 851.619856 898.572538 
L 850.516288 899.183508 
L 849.570373 900.500912 
L 848.486512 901.245531 
L 846.693215 901.321903 
L 846.555269 901.340995 
L 845.648767 901.073696 
L 844.466374 899.966313 
L 843.126328 898.610723 
L 842.160706 898.152496 
L 839.874745 897.446062 
L 839.086482 896.472329 
L 838.219394 893.245643 
L 837.293185 890.362629 
L 836.386684 889.197968 
L 835.401355 888.415162 
L 834.494854 887.823285 
L 833.37158 886.066747 
L 832.524198 884.558414 
L 831.933001 882.248184 
L 831.913294 879.479727 
L 831.617696 878.639643 
L 829.942638 877.264961 
L 828.602592 875.966649 
L 827.203426 873.86644 
L 826.080152 872.759057 
L 824.779519 872.396294 
L 822.276786 872.549036 
L 820.838207 872.491758 
L 819.301095 872.434479 
L 815.911566 871.040704 
L 813.132941 870.544291 
L 812.384092 870.81159 
L 812.1082 871.613489 
L 812.127906 873.121821 
L 811.595829 873.980997 
L 810.413436 874.324668 
L 808.698965 874.553781 
L 806.767722 875.298401 
L 805.545915 876.233949 
L 803.752618 877.112218 
L 802.097267 877.264961 
L 799.04275 876.902197 
L 796.993267 877.379517 
L 794.451121 878.658736 
L 793.42638 879.861583 
L 792.697237 882.515484 
L 791.396604 884.042909 
L 789.682133 884.386579 
L 787.12028 883.966537 
L 784.400775 882.534576 
L 783.238087 882.362741 
L 781.44479 882.840061 
L 777.050227 884.615693 
L 773.069502 886.505881 
L 771.335324 887.116851 
L 769.06907 887.403243 
L 766.723989 887.555986 
L 763.551233 888.396069 
L 762.506785 888.338791 
L 761.186445 887.766007 
L 759.806986 887.441429 
L 758.210754 887.536893 
L 755.9445 887.632357 
L 753.717658 886.792273 
L 751.904655 884.978456 
L 749.461041 883.756516 
L 746.347404 882.801876 
L 743.647606 882.630041 
L 742.87905 882.248184 
L 740.849274 879.575191 
L 739.430401 877.226775 
L 738.169181 876.577619 
L 736.51383 876.272134 
L 732.710464 875.985742 
L 727.015268 874.534689 
L 726.049646 873.885533 
L 722.798064 868.195875 
L 721.379191 866.821193 
L 720.275624 866.783007 
L 718.915871 867.909483 
L 718.226141 868.062226 
L 717.122574 867.54672 
L 715.230744 865.981109 
L 713.910404 865.675624 
L 712.117107 865.885645 
L 710.737648 866.439337 
L 709.653787 867.833112 
L 708.904938 868.692288 
L 707.525479 869.11233 
L 704.904506 869.150516 
L 702.441186 870.296085 
L 695.859194 874.668338 
L 693.947658 876.195763 
L 692.449959 878.257787 
L 690.223118 882.305463 
L 689.277203 883.50831 
L 688.173635 883.661052 
L 686.853296 883.355567 
L 684.902346 880.93078 
L 683.148462 879.36517 
L 680.093945 878.353251 
L 677.394146 878.391436 
L 673.728726 878.639643 
L 670.201251 878.219601 
L 669.156803 877.837745 
L 668.191182 876.596712 
L 669.905653 875.393865 
L 670.161838 874.47741 
L 669.728294 871.842602 
L 669.669174 870.773405 
L 670.220958 869.570558 
L 670.595382 868.596824 
L 670.299784 867.470349 
L 669.531228 865.809274 
L 669.452402 864.033643 
L 670.654502 860.406008 
L 671.147166 859.909595 
L 672.21132 859.642296 
L 672.940463 859.298625 
L 673.275475 858.382171 
L 673.196649 857.312973 
L 672.21132 854.945465 
L 671.462471 854.143566 
L 670.890981 854.048102 
L 669.826827 854.277216 
L 668.821792 854.563608 
L 668.191182 854.296309 
L 665.806688 849.484921 
L 664.998719 848.854858 
L 662.673345 848.492094 
L 660.939167 848.835765 
L 659.362642 849.561292 
L 658.456141 849.523106 
L 657.549639 848.778487 
L 656.446071 846.69737 
L 654.416296 843.871634 
L 651.381485 839.976701 
L 650.179385 838.964782 
L 649.095524 838.812039 
L 648.03137 839.041153 
L 646.671617 839.232081 
L 644.917733 838.659297 
L 643.420034 837.437357 
L 641.114367 834.172486 
L 640.937008 833.485145 
L 642.809131 830.162996 
L 643.144142 829.303819 
L 646.100127 827.318167 
L 646.277486 826.993589 
L 646.041007 826.630826 
L 644.957146 826.038949 
L 642.671185 824.626081 
L 641.863216 823.614162 
L 641.09466 821.036632 
L 640.700529 820.387477 
L 639.675788 820.196548 
L 635.320638 820.578405 
L 631.655217 820.998446 
L 630.315171 821.666695 
L 628.462754 823.079563 
L 627.260654 825.256143 
L 626.472391 826.019856 
L 625.526477 826.191691 
L 623.654353 825.905299 
L 620.58013 824.855194 
L 617.072362 823.67144 
L 614.116377 823.327769 
L 608.184702 823.67144 
L 606.036687 823.824183 
L 599.907947 824.874287 
L 598.981738 824.396967 
L 598.804379 823.80509 
L 599.178804 821.857623 
L 600.617383 819.413743 
L 603.238356 816.454357 
L 602.98217 815.767016 
L 601.799777 814.888747 
L 599.533522 813.55225 
L 598.587607 813.915014 
L 594.941893 816.549822 
L 593.779206 817.027142 
L 592.458866 816.702564 
L 590.665569 814.812376 
L 589.108751 813.934106 
L 584.950667 813.07493 
L 583.393848 811.85299 
L 582.782945 810.287379 
L 582.999717 808.93179 
L 584.595948 805.514177 
L 584.93096 804.158587 
L 584.458003 803.604896 
L 583.630327 803.738545 
L 574.782081 809.294553 
L 574.033232 809.657317 
L 573.382915 809.695502 
L 572.614359 809.54276 
L 572.121695 809.256368 
L 571.727564 808.702676 
L 571.136367 807.5762 
L 570.66341 806.602467 
L 570.190452 806.01059 
L 569.658375 805.762383 
L 569.224831 805.686012 
L 568.594221 805.705105 
L 567.805958 805.915126 
L 567.214761 806.220611 
L 566.623564 806.831581 
L 565.992954 807.748036 
L 565.55941 808.301727 
L 565.224399 808.45447 
L 564.514962 808.416284 
L 563.687287 808.129892 
L 561.756044 807.518922 
L 560.278052 806.946138 
L 559.410963 806.640653 
L 558.819766 806.526096 
L 557.755612 806.526096 
L 556.612631 806.640653 
L 554.169018 807.70985 
L 553.321636 807.996242 
L 552.691026 808.091706 
L 545.951382 808.569027 
L 545.537544 808.626305 
L 545.143413 808.549934 
L 544.749281 808.129892 
L 544.552216 807.633479 
L 544.374857 806.850674 
L 544.29603 803.948566 
L 543.862486 802.440234 
L 543.428942 801.180109 
L 541.89183 799.614498 
L 541.635645 799.309013 
L 541.576525 798.984435 
L 542.325374 796.425999 
L 543.113637 793.71482 
L 543.310702 792.779272 
L 543.251583 792.015559 
L 543.09393 791.480961 
L 542.758919 790.908176 
L 542.187428 790.469042 
L 541.340046 789.991721 
L 540.827676 789.762608 
L 539.862054 789.380751 
L 538.994965 789.037081 
L 533.6939 785.848581 
L 533.457422 785.714932 
L 532.905638 784.588456 
L 532.373561 783.843836 
L 531.34882 782.98466 
L 530.402905 782.507339 
L 530.008773 782.488247 
L 529.654055 782.564618 
L 529.417577 782.736453 
L 529.102272 783.213773 
L 528.964326 783.710187 
L 528.688434 784.225692 
L 528.294303 784.512085 
L 527.762225 784.645734 
L 527.584866 784.68392 
L 526.619245 784.741198 
L 525.909809 784.664827 
L 524.747121 784.492992 
L 523.426782 784.225692 
L 522.677933 784.2066 
L 522.106442 784.282971 
L 521.397006 784.855755 
L 520.510211 785.543096 
L 520.017547 785.77221 
L 519.465763 785.867674 
L 510.558397 784.55027 
L 510.341625 784.588456 
L 510.065733 784.760291 
L 502.656066 790.717248 
L 502.537827 791.00364 
L 502.301348 791.00364 
L 501.099248 790.65997 
L 499.463603 789.266195 
L 498.8527 788.464296 
L 498.340329 787.586027 
L 497.433827 786.535923 
L 496.665271 785.963138 
L 495.12816 785.371261 
L 494.596083 785.142147 
L 489.886214 785.02759 
L 488.999419 785.046683 
L 487.718493 785.390354 
L 481.4321 786.707758 
L 477.411961 786.669572 
L 475.993089 786.745943 
L 474.43627 786.555015 
L 472.367081 786.268623 
L 471.499993 785.867674 
L 471.125568 785.409447 
L 467.992225 782.201854 
L 467.657213 781.323585 
L 466.258047 776.989517 
L 465.804796 776.626754 
L 465.469785 776.569475 
L 464.701229 776.569475 
L 462.967051 776.779496 
L 462.119669 776.951331 
L 453.113771 780.254388 
L 452.739346 780.254388 
L 452.187562 780.006181 
L 450.946049 779.204283 
L 449.270991 778.135086 
L 448.147717 777.61958 
L 447.418575 777.409559 
L 445.309972 777.447745 
L 443.694034 777.657765 
L 443.122544 777.390466 
L 442.767826 776.87496 
L 442.511641 775.824856 
L 441.959857 773.743739 
L 441.94015 772.159036 
L 442.235749 771.070746 
L 442.255455 770.497961 
L 441.959857 770.135198 
L 441.329247 769.906084 
L 434.707842 769.314207 
L 434.412244 769.19965 
L 433.131317 768.264102 
L 431.791271 765.686573 
L 430.411812 763.891849 
L 429.800909 761.161577 
L 430.470932 757.51485 
L 429.741789 757.572128 
L 427.022283 758.12582 
L 424.775735 757.85852 
L 423.869234 757.743964 
L 423.37657 757.782149 
L 422.62772 757.973077 
L 421.898577 758.297655 
L 421.169435 758.813161 
L 420.479705 759.443224 
L 419.809682 759.805987 
L 418.686408 760.130565 
L 417.858732 760.206936 
L 417.031057 760.245122 
L 416.538393 760.149658 
L 412.262069 759.023182 
L 411.848231 758.679511 
L 411.51322 758.259469 
L 410.606718 756.827509 
L 408.202517 751.366965 
L 407.236896 750.469603 
L 406.212155 749.610426 
L 404.261205 748.96127 
L 403.512356 748.503043 
L 403.137931 747.968444 
L 402.586147 746.994711 
L 402.251136 746.001885 
L 401.935831 745.658214 
L 401.502286 745.467286 
L 397.285082 743.72984 
L 395.905623 743.481634 
L 394.683816 743.367077 
L 392.673747 743.290706 
L 392.279616 743.137963 
L 391.649006 742.469715 
L 390.978983 741.190496 
L 390.230133 740.350413 
L 388.101825 738.803895 
L 387.471215 738.192925 
L 387.352975 737.88744 
L 387.431802 737.371934 
L 388.35801 734.718033 
L 388.259477 734.278899 
L 387.924466 733.897043 
L 383.884621 731.796833 
L 373.479556 729.200211 
L 372.395695 728.780169 
L 371.745379 728.37922 
L 370.897997 727.481858 
L 369.952082 726.794517 
L 368.749981 726.107176 
L 368.178491 725.916248 
L 367.705534 725.93534 
L 367.074924 726.030804 
L 366.207835 726.317197 
L 364.276592 726.985445 
L 363.665689 727.061816 
L 363.330677 726.889981 
L 362.975959 726.259918 
L 362.897133 725.362556 
L 363.054785 723.701481 
L 362.85772 722.40317 
L 362.463588 721.773108 
L 359.58643 717.133554 
L 356.512207 713.63957 
L 356.315141 712.875858 
L 356.295435 711.596639 
L 356.137782 710.794741 
L 355.625411 709.687358 
L 354.975095 708.599068 
L 354.462724 707.758984 
L 349.201072 702.775761 
L 346.501274 700.236417 
L 346.264795 699.281776 
L 345.988903 697.945279 
L 346.028316 696.188741 
L 346.185969 693.630304 
L 345.791837 691.682837 
L 345.515945 690.919125 
L 344.707976 689.86902 
L 343.446757 688.971658 
L 339.544857 685.783159 
L 338.776301 685.038539 
L 338.539823 685.038539 
L 336.667699 686.394129 
L 336.037089 686.680521 
L 334.637924 687.348769 
L 333.770835 687.520605 
L 332.7658 687.386955 
L 331.50458 687.138748 
L 330.578372 687.043284 
L 329.947762 686.833263 
L 329.1595 686.184108 
L 328.607716 685.286746 
L 328.095345 684.122084 
L 326.814419 680.742657 
L 326.361168 679.921666 
L 325.730558 679.196139 
L 323.54313 677.076837 
L 322.676041 676.21766 
L 322.124257 675.950361 
L 318.182945 674.938442 
L 315.581679 675.186649 
L 315.167841 675.186649 
L 314.931362 675.453948 
L 314.261339 676.618609 
L 313.492783 677.916921 
L 310.556506 683.033794 
L 310.083548 683.358372 
L 305.275147 682.289174 
L 304.900722 682.212803 
L 300.112028 684.694868 
L 299.087287 684.828518 
L 298.456677 684.733054 
L 297.786654 684.542126 
L 297.372816 684.255734 
L 296.978685 683.873878 
L 296.328368 682.995608 
L 295.205094 681.449091 
L 294.515365 680.589914 
L 293.805928 679.921666 
L 291.480554 678.585169 
L 291.303195 678.279684 
L 291.184956 678.069663 
L 289.943442 675.835804 
L 289.608431 675.492134 
L 289.470485 675.415762 
L 289.273419 675.339391 
L 289.03694 675.301205 
L 286.672153 675.644876 
L 285.94301 675.301205 
L 284.760617 674.632957 
L 284.386192 674.346565 
L 284.248246 674.117451 
L 284.149713 673.831059 
L 284.16942 673.506481 
L 284.248246 672.723676 
L 284.524138 671.635386 
L 285.056215 670.107961 
L 285.154748 669.668826 
L 285.213868 669.363341 
L 285.253281 669.115135 
L 285.233574 668.962392 
L 285.174454 668.80965 
L 285.075922 668.656907 
L 281.252849 663.92189 
L 277.883027 661.344361 
L 277.528309 661.038876 
L 277.193297 660.752483 
L 276.858286 660.217885 
L 275.991197 658.518625 
L 275.794131 658.098583 
L 275.695598 657.716726 
L 275.833544 657.258499 
L 276.641513 655.922002 
L 277.094764 655.272847 
L 277.390363 654.871898 
L 277.449482 654.661877 
L 277.488896 654.375485 
L 277.390363 654.108185 
L 277.252417 653.783607 
L 276.838579 653.153545 
L 275.991197 651.683398 
L 275.754718 651.186985 
L 275.537946 650.843314 
L 275.064988 650.232345 
L 274.434378 649.545003 
L 273.665823 649.010405 
L 272.838147 648.609456 
L 271.892232 648.380342 
L 271.261622 648.227599 
L 265.99997 647.425701 
L 265.783198 647.406609 
L 265.566426 647.292052 
L 265.251121 647.024752 
L 263.241052 645.592791 
L 261.447755 643.626232 
L 260.777731 643.07254 
L 257.545855 640.838682 
L 257.072898 640.743217 
L 255.831385 641.125074 
L 254.629284 641.335095 
L 249.505578 642.25155 
L 243.120652 639.80767 
L 240.342027 638.299338 
L 236.124823 636.122757 
L 234.390646 635.168117 
L 232.87324 634.557147 
L 230.252268 633.946177 
L 229.483712 633.69797 
L 228.51809 632.953351 
L 226.941566 630.967698 
L 226.488315 630.146707 
L 226.508021 629.459366 
L 225.719759 625.048927 
L 224.773844 622.815068 
L 224.16294 621.612221 
L 223.611157 621.153993 
L 222.38935 620.733951 
L 214.920563 618.118236 
L 213.659343 617.831844 
L 211.452208 617.793659 
L 209.737737 617.984587 
L 204.2199 619.741125 
L 201.520101 620.447559 
L 196.159917 620.084796 
L 193.55865 620.581209 
L 190.898265 621.803149 
L 190.228242 621.87952 
L 188.868489 621.344921 
L 186.22781 620.237538 
L 184.533045 619.664754 
L 183.07476 618.920134 
L 181.596768 618.328257 
L 180.828212 617.660009 
L 179.251687 614.929737 
L 179.2911 614.471509 
L 183.567424 606.643457 
L 184.414806 605.822466 
L 185.774559 604.772361 
L 186.661354 603.932278 
L 187.154018 603.187658 
L 187.134311 602.366667 
L 186.720474 600.877428 
L 185.991331 599.789138 
L 184.808937 598.929961 
L 183.449184 598.681755 
L 181.971192 598.24262 
L 174.87683 596.963402 
L 173.891502 596.40971 
L 173.280599 595.531441 
L 172.787935 594.061294 
L 171.21141 587.798852 
L 168.137186 583.36932 
L 166.994206 581.383668 
L 165.082669 579.321644 
L 164.353526 578.863417 
L 163.663797 578.806138 
L 158.737156 578.901602 
L 151.682207 578.481561 
L 148.667104 578.118797 
L 139.030595 576.171331 
L 138.360572 575.904031 
L 137.45407 574.720277 
L 134.971043 570.806251 
L 132.823028 568.056886 
L 131.26621 566.834946 
L 130.359708 566.472183 
L 129.216727 566.682203 
L 128.369345 567.617751 
L 127.679616 570.195281 
L 127.226365 570.729879 
L 126.418396 571.226292 
L 125.984851 571.321757 
L 125.295122 571.2072 
L 124.585686 570.481673 
L 124.211261 569.641589 
L 123.521531 568.343278 
L 120.841439 563.608261 
L 120.250242 562.901827 
L 119.560512 562.500878 
L 115.776853 560.801618 
L 112.604096 558.682316 
L 111.815834 557.651304 
L 110.534907 556.123879 
L 110.101363 555.302888 
L 109.766351 554.577361 
L 109.3131 554.36734 
L 108.564251 554.424619 
L 106.160051 555.570187 
L 104.544113 556.314807 
L 103.460252 556.314807 
L 102.336978 555.665651 
L 101.371356 555.512909 
L 99.814538 555.932951 
L 92.424577 557.727675 
L 85.192269 559.274193 
L 83.320146 559.522399 
L 79.339421 560.553411 
L 78.689104 560.763432 
L 76.481969 562.099929 
L 75.319282 562.65362 
L 74.590139 562.768177 
L 73.959529 562.634527 
L 73.348626 562.443599 
L 72.619483 561.985372 
L 71.437089 559.560585 
L 70.845893 558.796872 
L 65.052164 556.123879 
L 64.027422 555.761116 
L 63.002681 555.684744 
L 61.012318 555.493816 
L 59.140195 554.691918 
L 54.568273 552.114389 
L 51.967007 549.575045 
L 46.96154 544.152686 
L 44.399687 542.109756 
L 41.837834 540.143196 
L 37.443271 536.553748 
L 35.984985 535.198158 
L 32.753109 530.577698 
L 32.339272 529.241201 
L 32.477218 528.821159 
L 32.674283 528.229282 
L 32.556044 527.408291 
L 31.708662 526.491836 
L 28.673851 525.193525 
L 25.579921 523.857028 
L 23.688091 523.379708 
L 21.953914 523.570636 
L 20.653281 524.124328 
L 19.825605 524.811669 
L 19.155582 526.549115 
L 18.682625 527.140992 
L 17.854949 527.503755 
L 16.909034 527.656498 
L 15.450748 527.083713 
L 15.431042 526.453651 
L 15.391629 525.957237 
L 14.741312 525.36536 
L 13.972756 525.117154 
L 12.021807 524.945318 
L 11.37149 524.601648 
L 10.918239 524.181606 
L 10.819707 523.360615 
L 10.8 521.83319 
L 10.957652 519.141104 
L 11.075892 518.682876 
L 11.37149 518.224649 
L 15.628108 514.711572 
L 19.746779 512.153135 
L 20.870053 511.9813 
L 22.66335 512.057671 
L 25.323736 512.649548 
L 26.407597 512.668641 
L 27.117033 512.649548 
L 29.521233 511.580351 
L 31.078052 510.62571 
L 31.984554 509.327399 
L 32.418098 508.18183 
L 32.69399 507.208097 
L 33.068414 506.768962 
L 33.817264 506.406199 
L 34.940538 506.234364 
L 37.108259 505.833415 
L 38.527132 505.451558 
L 40.241603 504.668753 
L 41.46341 503.943226 
L 45.050004 501.365697 
L 46.863007 499.761901 
L 47.59215 499.322766 
L 48.28188 498.979095 
L 49.011023 498.902724 
L 49.602219 498.673611 
L 49.818992 498.406311 
L 50.016057 498.024455 
L 51.119625 495.943339 
L 52.026126 494.511378 
L 52.755269 493.09851 
L 54.055902 489.719082 
L 54.095315 489.356319 
L 54.016489 488.993555 
L 53.543532 488.268028 
L 52.420258 486.931532 
L 51.986713 486.435119 
L 51.888181 486.167819 
L 51.927594 485.881427 
L 52.302018 485.537757 
L 56.519222 482.196515 
L 56.913354 482.062865 
L 57.425724 482.120143 
L 58.292813 482.253793 
L 58.903716 482.158329 
L 59.39638 481.795566 
L 59.948164 481.203688 
L 60.460535 480.306326 
L 60.913786 478.70253 
L 61.110851 478.301581 
L 61.40645 478.129746 
L 62.155299 478.053375 
L 64.047129 477.938818 
L 65.70248 477.900632 
L 66.845461 477.881539 
L 67.456364 477.728797 
L 67.909615 477.404219 
L 69.072302 475.953165 
L 69.584673 475.418567 
L 69.899978 475.189453 
L 70.589707 475.055803 
L 71.653862 475.03671 
L 72.954495 475.132174 
L 73.939823 475.246731 
L 74.767498 475.475845 
L 75.752826 476.144093 
L 76.324317 476.487764 
L 77.526417 476.678692 
L 79.162062 476.735971 
L 79.713845 476.697785 
L 80.285336 476.564135 
L 80.817413 476.25865 
L 81.270664 475.514031 
L 82.334818 474.120256 
L 82.669829 474.158441 
L 83.083667 474.158441 
L 83.379266 473.986606 
L 84.167528 473.070151 
L 84.50254 472.096418 
L 84.679899 470.740828 
L 84.719312 470.2826 
L 84.896671 469.900744 
L 85.093737 469.709816 
L 85.566694 469.518888 
L 86.315543 469.518888 
L 87.438817 469.690723 
L 88.384732 469.690723 
L 89.310941 469.557074 
L 90.256856 469.098846 
L 91.242184 468.316041 
L 92.385164 467.724164 
L 93.035481 467.533236 
L 94.887898 466.807709 
L 96.523542 466.063089 
L 98.415372 464.764778 
L 98.691264 464.688407 
L 99.006569 464.7075 
L 99.34158 464.860242 
L 99.558353 465.127542 
L 99.676592 465.623955 
L 100.405735 468.201484 
L 100.563387 468.487876 
L 100.878692 468.621526 
L 102.652283 468.85064 
L 105.07619 469.117939 
L 105.529441 469.137032 
L 105.844746 469.098846 
L 106.120638 469.041568 
L 106.376823 469.022475 
L 106.633008 469.022475 
L 106.928607 469.060661 
L 107.401564 469.213403 
L 108.288359 469.518888 
L 108.85985 469.079753 
L 109.352514 468.067834 
L 109.687525 466.922266 
L 109.746645 465.089356 
L 109.786058 462.779126 
L 109.884591 461.270794 
L 109.94371 460.163411 
L 110.199896 459.036935 
L 110.554614 457.64316 
L 110.751679 456.803076 
L 111.32317 454.912888 
L 111.500529 454.244639 
L 111.697594 453.50002 
L 111.599062 453.041792 
L 111.382289 452.774493 
L 111.047278 452.564472 
L 109.805765 452.373544 
L 106.9089 452.068059 
L 106.396529 451.762574 
L 106.21917 451.380718 
L 106.317703 451.017954 
L 106.84978 450.674284 
L 107.874521 450.483355 
L 108.682491 450.139685 
L 109.273687 449.719643 
L 109.549579 449.452344 
L 110.63344 448.459517 
L 111.480822 447.772176 
L 112.367617 446.626608 
L 113.569718 445.576503 
L 114.298861 444.831883 
L 114.791525 444.507306 
L 116.368049 444.278192 
L 116.565115 444.163635 
L 116.762181 443.934521 
L 116.781887 443.648129 
L 116.584822 443.11353 
L 116.269517 442.292539 
L 116.19069 441.68157 
L 116.24981 440.688743 
L 116.387756 439.905938 
L 116.525702 438.722184 
L 116.683354 438.130307 
L 117.057779 437.481151 
L 118.003694 436.068283 
L 118.673717 435.170921 
L 119.659045 433.758053 
L 120.191122 433.147083 
L 121.117331 432.440649 
L 121.945006 432.211535 
L 123.422998 432.077886 
L 124.979817 431.90605 
L 126.103091 432.077886 
L 126.418396 432.17335 
L 126.970179 432.383371 
L 127.778149 432.746134 
L 128.487585 432.994341 
L 129.157608 432.994341 
L 130.044403 432.841598 
L 130.655306 432.555206 
L 130.911492 432.364278 
L 131.305623 431.791493 
L 131.975646 430.588646 
L 132.350071 429.939491 
L 132.842735 429.672191 
L 133.493051 429.46217 
L 134.222194 429.213964 
L 134.951337 428.946665 
L 135.227229 428.622087 
L 135.325762 428.297509 
L 135.345468 427.782003 
L 135.384881 426.750991 
L 135.424294 426.235485 
L 135.286348 425.968186 
L 135.010457 425.567237 
L 134.754271 425.357216 
L 134.163074 424.97536 
L 133.295986 424.459854 
L 131.502689 422.970615 
L 130.675013 422.111438 
L 130.418828 421.78686 
L 130.359708 421.500468 
L 130.162642 421.118612 
L 129.768511 420.469456 
L 129.039368 419.705744 
L 128.408758 419.056588 
L 127.265778 418.159226 
L 127.009593 417.853741 
L 126.260743 416.880008 
L 125.768079 416.307224 
L 125.452774 415.753532 
L 126.79282 415.104377 
L 127.127832 414.760706 
L 127.502257 414.149736 
L 128.231399 412.507754 
L 128.369345 411.992248 
L 128.448172 411.018515 
L 128.329932 410.006596 
L 128.191986 408.460078 
L 128.251106 407.79183 
L 128.389052 407.390881 
L 128.74377 407.085396 
L 127.659909 405.634342 
L 126.595755 404.565145 
L 126.457809 404.374217 
L 126.33957 403.973268 
L 126.16221 402.980442 
L 126.122797 401.987615 
L 126.16221 401.052068 
L 126.16221 399.677385 
L 126.142504 399.066415 
L 126.16221 398.054496 
L 126.319863 396.718 
L 126.576048 395.266946 
L 126.930766 394.865997 
L 127.797855 394.293213 
L 127.837268 393.930449 
L 127.719029 393.414943 
L 127.226365 392.91853 
L 126.438102 392.231189 
L 125.571014 391.448384 
L 124.152141 390.341001 
L 123.028867 389.443639 
L 121.846474 388.737205 
L 121.274983 388.565369 
L 120.151709 388.508091 
L 116.860713 386.866109 
L 115.855679 385.185942 
L 112.367617 381.080987 
L 110.180189 377.739745 
L 109.805765 375.735 
L 108.820436 374.360318 
L 105.352082 372.260109 
L 104.504699 370.579941 
L 104.149981 368.747031 
L 105.194429 364.718448 
L 107.874521 360.346195 
L 107.992761 358.188707 
L 106.002398 355.592085 
L 103.499665 353.014555 
L 103.637611 351.62078 
L 106.022105 348.661394 
L 109.017502 343.659078 
L 109.588992 339.80233 
L 109.411633 338.045791 
L 109.234274 336.27016 
L 109.904297 336.518366 
L 110.06195 336.61383 
L 112.623803 338.026698 
L 115.579787 340.795156 
L 117.097192 342.532602 
L 118.437238 343.697263 
L 119.994057 344.842832 
L 121.688821 345.491988 
L 127.127832 347.248526 
L 129.334967 347.534918 
L 130.891785 347.515825 
L 133.473345 347.401269 
L 134.261607 347.153062 
L 142.242765 346.713927 
L 143.76017 346.293886 
L 149.218887 344.747368 
L 150.263335 344.174584 
L 151.721621 342.876272 
L 152.490177 341.787982 
L 152.785775 341.043363 
L 152.766068 340.031444 
L 152.450763 337.816677 
L 152.273404 336.480181 
L 152.233991 335.372798 
L 152.864601 332.069741 
L 153.73169 330.275017 
L 154.382006 329.702233 
L 155.012616 329.434933 
L 155.62352 329.320377 
L 156.175303 329.568583 
L 159.249527 331.916999 
L 160.372801 332.909825 
L 160.963998 333.387145 
L 161.397542 333.520795 
L 161.988739 333.501702 
L 162.836121 332.948011 
L 163.70321 331.439679 
L 164.353526 330.866894 
L 165.732986 330.656873 
L 168.767796 330.236832 
L 170.304908 330.217739 
L 171.290236 330.275017 
L 171.704074 330.446852 
L 172.689402 331.172379 
L 173.04412 331.363307 
L 173.339718 331.401493 
L 173.714143 331.363307 
L 174.226514 331.057822 
L 176.70954 328.32755 
L 178.286065 326.781033 
L 178.798436 326.399176 
L 179.488166 326.074599 
L 180.374961 325.769114 
L 181.675594 325.54 
L 185.439547 324.776288 
L 191.390929 323.783461 
L 191.982126 323.821647 
L 192.336844 324.012575 
L 192.98716 324.623545 
L 193.361585 324.852659 
L 194.110434 325.043587 
L 195.45048 325.196329 
L 199.884457 325.67365 
L 201.559514 326.055506 
L 202.170418 326.189156 
L 202.998093 326.15097 
L 203.471051 326.01732 
L 204.180487 325.750021 
L 204.535205 325.67365 
L 204.79139 325.67365 
L 205.047576 325.711835 
L 205.244641 325.807299 
L 205.737305 326.28462 
L 206.190556 326.781033 
L 206.68322 327.582931 
L 207.235004 328.384829 
L 207.43207 328.613943 
L 207.767081 328.862149 
L 208.515931 329.244005 
L 209.028301 329.415841 
L 209.757444 329.511305 
L 210.880718 329.511305 
L 211.432502 329.54949 
L 214.289953 330.007718 
L 215.472347 330.217739 
L 216.122663 330.408667 
L 216.8321 330.580502 
L 217.28535 330.637781 
L 217.837134 330.542316 
L 219.393952 330.122275 
L 222.882014 329.091263 
L 223.749103 328.862149 
L 224.537365 328.823963 
L 225.345334 328.919428 
L 225.975944 328.995799 
L 226.389782 329.186727 
L 227.138631 329.854975 
L 228.00572 330.465945 
L 231.04053 332.337041 
L 232.636762 333.310774 
L 233.700916 333.95993 
L 234.055634 334.265415 
L 234.2527 334.43725 
L 234.568005 334.895477 
L 234.88331 335.601911 
L 235.060669 336.155603 
L 235.060669 336.537459 
L 234.804484 337.320264 
L 233.661503 339.783237 
L 233.168839 341.062455 
L 233.0506 341.768889 
L 233.0506 342.265302 
L 233.129426 343.105386 
L 233.425024 343.639985 
L 233.700916 344.040934 
L 234.843897 343.105386 
L 235.809518 342.570787 
L 238.745796 341.138827 
L 241.70178 339.821423 
L 242.864467 339.210453 
L 243.908915 337.873956 
L 244.480405 337.129336 
L 244.756297 336.384717 
L 244.85483 335.067313 
L 245.051895 334.3036 
L 245.248961 333.95993 
L 246.549594 333.005289 
L 247.850227 332.279762 
L 249.761764 331.439679 
L 250.431787 331.325122 
L 250.963864 331.267843 
L 252.678335 331.573328 
L 254.471632 331.85972 
L 254.806643 331.802442 
L 255.259894 331.477864 
L 256.895539 330.084089 
L 257.644388 329.68314 
L 257.959693 329.54949 
L 258.432651 329.492212 
L 260.285067 329.606769 
L 263.674596 329.797697 
L 265.231414 329.664047 
L 265.586132 329.530397 
L 266.256156 329.053077 
L 267.142951 328.556664 
L 268.108572 328.136622 
L 269.113607 327.907509 
L 269.823043 327.907509 
L 270.374827 328.136622 
L 270.768958 328.346643 
L 271.320742 328.652128 
L 272.30607 329.186727 
L 272.798734 329.301284 
L 273.192865 329.20582 
L 274.907336 328.308458 
L 275.222641 327.98388 
L 275.281761 327.678395 
L 274.986162 327.029239 
L 274.927043 326.532826 
L 275.104402 326.15097 
L 275.616772 325.654557 
L 276.562687 325.196329 
L 278.119505 324.738102 
L 281.036077 324.260782 
L 281.844046 324.298967 
L 282.356416 324.661731 
L 283.735875 326.074599 
L 285.332107 327.773859 
L 285.410933 328.079344 
L 285.391227 328.308458 
L 284.543844 329.664047 
L 283.952648 330.733245 
L 283.913235 331.134194 
L 283.932941 331.267843 
L 284.130007 331.51605 
L 285.056215 332.413412 
L 285.332107 332.986196 
L 285.470053 333.597166 
L 285.43064 334.017208 
L 285.3124 334.494528 
L 284.937976 335.410983 
L 284.149713 336.480181 
L 283.952648 336.938408 
L 283.952648 337.205708 
L 286.534207 340.947898 
L 286.69186 341.272476 
L 287.598362 341.787982 
L 288.248678 341.940725 
L 289.234006 341.97891 
L 290.396693 341.864353 
L 293.195025 341.272476 
L 296.072183 341.348848 
L 296.584554 341.425219 
L 297.786654 342.322581 
L 298.042839 342.647159 
L 298.062546 343.048108 
L 298.042839 343.697263 
L 297.727534 344.441883 
L 296.643673 346.904856 
L 296.072183 347.916775 
L 296.091889 348.298631 
L 296.249542 348.585023 
L 296.525434 349.04325 
L 296.978685 349.425107 
L 300.072615 351.353481 
L 300.703225 351.582594 
L 301.373248 351.716244 
L 302.516228 351.868986 
L 303.42273 352.059915 
L 304.191286 352.384492 
L 304.664244 352.632699 
L 305.097788 352.84272 
L 305.728398 353.110019 
L 306.240769 353.167298 
L 307.107857 353.167298 
L 307.955239 353.014555 
L 308.743502 352.689977 
L 309.551471 352.0981 
L 310.398853 351.468037 
L 311.935965 350.303376 
L 312.468042 349.978798 
L 312.665108 349.978798 
L 313.827795 350.39884 
L 315.108721 350.666139 
L 316.172876 350.742511 
L 317.434095 350.780696 
L 319.050034 350.895253 
L 319.542698 351.086181 
L 320.291547 351.544409 
L 320.725091 351.945358 
L 321.060103 352.403585 
L 321.217755 353.090926 
L 321.257168 354.293773 
L 321.355701 355.076579 
L 321.631593 355.89757 
L 323.109585 359.238811 
L 323.286944 359.506111 
L 324.587577 360.308009 
L 325.572905 360.99535 
L 326.459701 362.08364 
L 326.912952 362.809167 
L 326.893245 363.611065 
L 326.893245 364.279314 
L 326.775006 365.043026 
L 326.814419 365.596718 
L 327.188843 366.379523 
L 327.405616 366.723193 
L 327.83916 366.875936 
L 328.785075 366.895029 
L 329.770403 366.818657 
L 330.519252 366.914122 
L 331.268102 367.143235 
L 332.371669 367.658741 
L 333.554063 368.32699 
L 335.012348 369.167073 
L 335.997676 369.75895 
L 336.746526 370.408106 
L 337.160363 370.828148 
L 337.554495 370.999983 
L 338.362464 371.057262 
L 342.559961 371.553675 
L 343.131452 371.534582 
L 343.604409 371.267282 
L 344.018247 370.866333 
L 345.476532 369.186166 
L 346.402741 368.269711 
L 346.895405 368.136061 
L 347.15159 368.155154 
L 347.506308 368.365175 
L 347.624548 368.460639 
L 349.457258 369.816229 
L 351.802339 370.675405 
L 353.97006 370.904519 
L 356.256021 370.999983 
L 357.615774 370.999983 
L 358.640515 370.923612 
L 359.330245 370.50357 
L 359.921442 369.243444 
L 360.768824 366.742286 
L 361.5965 365.864017 
L 363.232144 364.737541 
L 366.976391 363.057374 
L 368.98646 362.370032 
L 370.385626 362.255476 
L 376.337008 361.186278 
L 378.307664 360.899886 
L 379.371818 360.689865 
L 380.002428 360.804422 
L 382.327802 362.732796 
L 383.332837 363.420137 
L 384.081686 363.515601 
L 384.830535 363.458323 
L 386.170582 363.420137 
L 387.392388 363.496508 
L 389.363045 364.202942 
L 390.565145 365.214861 
L 391.116929 366.150409 
L 391.333701 366.49408 
L 394.920295 366.322244 
L 396.043569 365.88311 
L 397.403322 365.100304 
L 398.250704 363.591972 
L 398.585715 362.331847 
L 399.117793 360.842608 
L 399.748402 359.29609 
L 399.925762 358.360542 
L 399.728696 356.814024 
L 399.551337 355.668456 
L 399.038966 354.503794 
L 397.088017 351.544409 
L 396.969777 351.086181 
L 397.048604 350.016984 
L 397.442735 349.291457 
L 398.546302 348.508652 
L 399.866642 348.107703 
L 401.699352 347.916775 
L 402.960572 347.573104 
L 403.847367 347.019412 
L 404.024726 346.73302 
L 404.064139 345.988401 
L 403.88678 344.55644 
L 403.768541 342.933551 
L 403.985313 341.902539 
L 404.241498 341.272476 
L 404.812989 340.585135 
L 406.251568 339.592309 
L 407.414255 338.351276 
L 408.005452 337.511193 
L 408.813421 336.231974 
L 409.109019 335.410983 
L 409.207552 334.971849 
L 408.971073 333.82628 
L 407.512788 331.286936 
L 406.192448 328.862149 
L 405.542132 327.697488 
L 405.404186 326.800126 
L 405.601251 326.494641 
L 406.153035 326.208248 
L 407.315722 325.788207 
L 408.754301 325.387257 
L 410.646131 323.936204 
L 412.124123 322.6188 
L 413.523289 321.435046 
L 415.020988 319.716693 
L 415.671304 318.781145 
L 415.86837 317.99834 
L 416.085142 317.330091 
L 416.49898 316.833678 
L 417.247829 316.451822 
L 418.528755 315.955409 
L 420.73589 315.363532 
L 421.701512 314.80984 
L 423.100678 312.423239 
L 423.928353 310.170287 
L 424.440724 309.158368 
L 427.790839 306.638117 
L 431.140955 304.499722 
L 432.165696 303.621453 
L 434.845788 300.929367 
L 435.614344 300.280211 
L 436.44202 299.93654 
L 437.368228 299.726519 
L 438.373263 299.669241 
L 439.299471 299.821984 
L 439.693602 299.955633 
L 440.462158 300.471139 
L 441.289834 301.215759 
L 442.413108 302.475884 
L 443.161957 303.010483 
L 443.772861 303.220504 
L 444.482297 303.201411 
L 445.349386 302.99139 
L 446.019409 302.590441 
L 447.004737 302.227678 
L 447.891532 302.189492 
L 450.059254 302.437699 
L 451.517539 302.724091 
L 452.128443 302.609534 
L 452.443748 302.399513 
L 452.640813 302.074935 
L 452.699933 301.578522 
L 452.66052 300.776624 
L 452.581694 299.974726 
L 452.877292 299.32557 
L 453.429076 298.752786 
L 454.315871 297.969981 
L 455.360319 297.206268 
L 457.350681 295.678844 
L 457.744813 295.125152 
L 457.764519 294.83876 
L 457.685693 294.380532 
L 457.626573 293.960491 
L 457.094496 293.349521 
L 456.44418 292.509437 
L 455.517971 290.982012 
L 455.399732 290.69562 
L 455.655917 289.951 
L 455.852983 289.817351 
L 456.38506 289.683701 
L 457.153616 289.760072 
L 459.025739 290.008279 
L 460.444612 289.970093 
L 461.331407 289.740979 
L 462.178789 289.397309 
L 463.026171 288.499947 
L 464.129739 287.258914 
L 465.765383 285.636025 
L 468.386356 284.662292 
L 470.041707 283.97495 
L 472.54444 282.810289 
L 473.391822 282.466618 
L 473.845073 282.447525 
L 474.239205 282.619361 
L 474.633336 282.943939 
L 475.855143 283.898579 
L 476.603992 284.261343 
L 477.451374 284.471363 
L 477.983451 284.471363 
L 479.441737 284.165878 
L 480.151173 284.089507 
L 480.762076 284.204064 
L 481.471513 284.71957 
L 481.924764 285.292354 
L 482.358308 285.46419 
L 483.048038 285.46419 
L 483.619528 285.387818 
L 484.841335 284.872312 
L 487.206122 284.051322 
L 488.230863 283.459444 
L 489.413257 282.562082 
L 490.260639 281.702906 
L 490.910956 280.729172 
L 491.679511 279.621789 
L 492.290415 277.941622 
L 493.019558 275.879598 
L 493.196917 274.963144 
L 493.17721 273.703018 
L 492.999851 273.111141 
L 491.797751 270.839096 
L 491.679511 270.189941 
L 491.659805 269.292579 
L 491.738631 268.357031 
L 492.251002 265.855873 
L 492.5466 264.882139 
L 493.768407 262.228239 
L 494.142832 261.369062 
L 494.576376 260.891742 
L 495.955835 260.147122 
L 496.980576 259.517059 
L 497.630893 258.676976 
L 498.340329 256.996808 
L 498.537395 256.214003 
L 498.517688 255.755776 
L 498.143264 255.335734 
L 497.47324 254.820228 
L 494.49755 253.388267 
L 492.586013 252.414534 
L 492.073643 251.956306 
L 491.797751 251.383522 
L 491.797751 250.810738 
L 491.935697 250.027932 
L 492.5466 248.7869 
L 492.999851 248.099558 
L 493.689581 247.584053 
L 495.187279 246.915804 
L 496.231727 246.285741 
L 497.000283 245.655679 
L 497.177642 245.178358 
L 497.236762 244.586481 
L 497.512654 243.975511 
L 497.926491 243.42182 
L 498.576808 242.524458 
L 498.990646 242.085323 
L 498.970939 241.665281 
L 498.655634 240.997033 
L 498.10385 239.966021 
L 497.039696 237.617605 
L 496.113488 236.605686 
L 495.187279 235.441025 
L 494.852268 234.772776 
L 494.635496 233.970878 
L 494.635496 233.016238 
L 494.773442 232.157061 
L 494.931094 231.393349 
L 495.344932 230.591451 
L 496.093781 229.369511 
L 496.428793 228.319406 
L 496.783511 227.46023 
L 497.118522 226.295568 
L 497.197349 225.455485 
L 497.276175 223.641667 
L 497.512654 222.858862 
L 497.985611 222.362449 
L 498.635928 221.732386 
L 498.596514 221.35053 
L 498.497982 221.178695 
L 497.847665 220.911395 
L 496.862337 220.434075 
L 495.739063 219.708548 
L 495.384345 219.288507 
L 495.285812 218.90665 
L 495.285812 218.42933 
L 495.364638 218.29568 
L 495.364638 218.162031 
L 495.463171 217.741989 
L 495.620824 216.539142 
L 495.798183 215.259923 
L 496.034662 214.76351 
L 496.724391 213.980705 
L 498.379742 212.300538 
L 500.212453 210.773113 
L 501.907217 209.417523 
L 503.227556 208.214676 
L 504.40995 207.240943 
L 505.749996 205.427126 
L 506.262367 204.949805 
L 507.464467 204.30065 
L 509.001579 203.632401 
L 511.97727 202.563204 
L 513.435555 202.085884 
L 514.795308 201.704028 
L 516.90391 201.2458 
L 517.692172 201.035779 
L 518.638087 200.462995 
L 519.662829 199.890211 
L 520.707276 199.279241 
L 521.692604 198.610992 
L 523.111477 197.331774 
L 523.505608 196.720804 
L 523.7815 196.167112 
L 524.372697 195.346121 
L 525.73245 193.933253 
L 526.520712 192.864056 
L 527.387801 191.661209 
L 528.176063 190.420176 
L 528.668727 189.618278 
L 529.102272 188.930937 
L 529.240217 188.167225 
L 529.220511 187.518069 
L 529.102272 186.50615 
L 529.062858 185.551509 
L 529.161391 184.596869 
L 529.378163 183.527671 
L 529.575229 183.088537 
L 529.870827 182.763959 
L 530.481731 182.553938 
L 531.17146 182.324824 
L 531.545885 181.981154 
L 532.255321 180.969235 
L 532.294734 180.491915 
L 532.235615 180.033687 
L 531.999136 179.556367 
L 533.654487 178.811747 
L 534.048618 178.69719 
L 534.265391 178.659005 
L 534.501869 178.869026 
L 535.191599 180.110058 
L 535.506904 181.179256 
L 535.802502 182.019339 
L 536.236047 182.305732 
L 537.792865 182.706681 
L 541.734177 183.164908 
L 542.719505 183.164908 
L 547.074656 183.126722 
L 548.82854 182.668495 
L 550.897728 182.057525 
L 551.666284 181.713854 
L 552.296894 181.217441 
L 552.769852 180.950142 
L 553.104863 180.911956 
L 553.597527 181.083792 
L 554.740508 182.210268 
L 555.371118 182.802145 
L 555.844075 183.546764 
L 556.041141 184.234105 
L 555.982021 187.136213 
L 556.317033 188.740009 
L 556.711164 189.675557 
L 557.341774 190.000134 
L 558.662114 190.191063 
L 559.529202 189.885578 
L 561.302793 189.217329 
L 561.77575 189.140958 
L 562.485187 189.160051 
L 562.839905 189.331886 
L 563.805526 190.248341 
L 564.593789 191.031146 
L 566.860043 192.634942 
L 571.215193 195.117008 
L 573.717927 196.854454 
L 574.033232 197.57998 
L 574.782081 200.329345 
L 575.412691 201.054872 
L 575.885648 201.341264 
L 576.319193 201.341264 
L 578.329262 200.90213 
L 579.432829 200.825758 
L 581.304953 200.749387 
L 581.994682 200.863944 
L 582.664705 201.073965 
L 584.142698 202.104977 
L 585.128026 203.002339 
L 586.19218 203.880608 
L 587.098682 204.377021 
L 588.281075 204.816156 
L 589.680241 205.159826 
L 590.468504 205.140734 
L 590.961168 205.25529 
L 591.296179 205.618054 
L 591.493245 206.629973 
L 591.74943 207.393685 
L 592.084442 207.756449 
L 592.517986 207.813727 
L 593.207716 207.508242 
L 593.956565 206.419952 
L 594.035391 206.267209 
L 594.626588 206.458138 
L 595.336024 206.954551 
L 595.631623 207.317314 
L 596.281939 208.596532 
L 596.459298 209.302966 
L 596.597244 210.200328 
L 596.774603 211.326804 
L 596.814017 211.517732 
L 597.109615 211.708661 
L 598.154063 211.632289 
L 603.021583 211.517732 
L 605.051359 211.212247 
L 611.12098 210.123957 
L 614.471096 209.570266 
L 617.407373 209.016574 
L 618.392701 208.730182 
L 619.417442 208.291047 
L 620.284531 207.851913 
L 620.698369 207.83282 
L 621.072794 207.947377 
L 622.609905 208.749275 
L 623.516407 209.092945 
L 624.18643 209.245688 
L 624.856453 209.226595 
L 626.019141 209.05476 
L 626.630044 208.978389 
L 626.905936 208.978389 
L 627.378893 209.073853 
L 631.871989 210.773113 
L 632.620839 211.154969 
L 633.152916 211.555918 
L 633.684993 212.052331 
L 635.300931 213.789777 
L 636.227139 214.534397 
L 637.350413 215.011717 
L 639.813734 216.195471 
L 641.350845 216.825534 
L 641.66615 216.271842 
L 642.29676 215.756337 
L 642.434706 215.718151 
L 642.730305 215.718151 
L 642.92737 215.756337 
L 643.420034 215.98545 
L 645.548343 216.940091 
L 646.986922 217.188297 
L 647.538706 217.188297 
L 647.775184 217.092833 
L 648.307261 216.73007 
L 648.642273 216.214564 
L 650.297624 216.86372 
L 650.514396 216.901905 
L 651.046474 216.59642 
L 651.75591 216.233657 
L 652.189454 216.157286 
L 652.425933 216.176378 
L 653.293022 216.539142 
L 655.027199 217.531968 
L 655.401624 217.703803 
L 656.702257 217.894731 
L 657.490519 218.009288 
L 658.042303 218.219309 
L 658.613793 218.582073 
L 659.26411 219.345785 
L 660.249438 220.453168 
L 660.702689 221.159602 
L 660.840635 221.713294 
L 661.15594 225.169092 
L 661.451538 226.868353 
L 661.72743 228.243035 
L 661.924495 229.63681 
L 662.082148 230.85875 
L 662.220094 232.118876 
L 662.693051 235.498303 
L 662.771878 236.204737 
L 662.92953 236.491129 
L 663.244835 236.815707 
L 664.013391 237.31212 
L 664.742534 237.674884 
L 665.274611 237.980369 
L 665.609622 238.419503 
L 665.688449 238.782267 
L 665.609622 239.164123 
L 665.333731 240.023299 
L 665.353437 240.386063 
L 665.530796 240.939754 
L 666.673777 242.314437 
L 667.186147 242.81085 
L 667.580279 243.42182 
L 667.698518 243.784583 
L 667.777344 244.567388 
L 667.737931 246.400298 
L 667.481746 246.95399 
L 667.186147 247.679517 
L 666.673777 248.195022 
L 666.062873 248.500507 
L 664.742534 249.054199 
L 662.377746 249.531519 
L 658.377314 249.779726 
L 655.53957 250.085211 
L 654.16011 250.237953 
L 652.879184 250.21886 
L 650.041439 249.684262 
L 649.391122 249.703355 
L 648.701393 249.817911 
L 648.228435 250.180675 
L 647.91313 250.48616 
L 647.617532 251.689007 
L 647.183987 255.24027 
L 646.986922 257.015901 
L 646.947509 258.218748 
L 646.848976 258.886997 
L 646.71103 259.287946 
L 646.395725 259.898916 
L 645.44981 260.968113 
L 644.346243 261.903661 
L 642.966783 262.686466 
L 640.46405 263.832035 
L 639.931973 264.080241 
L 639.577255 264.538469 
L 639.163417 265.397645 
L 638.848112 268.204288 
L 638.848112 269.006186 
L 638.986058 269.750806 
L 639.380189 271.220953 
L 639.636374 272.366521 
L 639.636374 272.710192 
L 639.399896 272.996584 
L 638.57222 273.741204 
L 638.040143 274.447638 
L 637.803664 275.020422 
L 637.685425 275.936877 
L 638.079556 278.2662 
L 638.926938 281.626535 
L 639.518135 283.268516 
L 639.754614 284.337714 
L 639.695494 285.636025 
L 639.360483 287.736234 
L 639.380189 288.538132 
L 639.754614 289.282752 
L 640.582289 290.56197 
L 642.158814 293.578634 
L 642.415 294.323254 
L 642.415 294.724203 
L 642.336173 295.067874 
L 642.040575 295.392451 
L 640.917301 296.308906 
L 640.503463 296.786227 
L 640.148745 297.263547 
L 640.148745 297.588125 
L 640.266984 297.817238 
L 640.897594 298.580951 
L 641.193193 299.11555 
L 641.547911 300.394768 
L 641.705563 301.654893 
L 641.961749 302.934112 
L 641.882922 303.373246 
L 640.996127 304.977042 
L 640.818768 305.626198 
L 640.818768 305.931683 
L 641.252313 306.65721 
L 642.099695 307.459108 
L 642.769718 308.165542 
L 643.833872 309.005626 
L 646.77015 310.895814 
L 647.97225 311.697712 
L 648.445207 312.194125 
L 648.937871 313.167858 
L 649.312296 313.664272 
L 649.86408 314.389798 
L 650.770582 315.096232 
L 651.401192 315.630831 
L 651.775616 315.707202 
L 653.923631 315.688109 
L 654.554241 315.89813 
L 654.987786 316.337265 
L 655.086319 316.738214 
L 654.771014 318.151082 
L 654.21923 319.334836 
L 653.549207 320.060363 
L 651.63767 321.606881 
L 650.888821 322.427872 
L 650.652342 322.847914 
L 650.652342 323.344327 
L 650.947941 323.745276 
L 652.012095 324.585359 
L 654.21923 326.76194 
L 655.756342 327.831137 
L 656.209593 328.174808 
L 656.209593 328.384829 
L 656.012527 329.702233 
L 655.933701 332.031556 
L 655.835168 333.616259 
L 655.913994 334.341786 
L 656.249006 335.029127 
L 657.549639 336.00286 
L 659.283816 337.148429 
L 660.052372 337.396636 
L 660.840635 337.4921 
L 663.166009 337.301172 
L 664.230163 337.129336 
L 664.604588 337.129336 
L 664.88048 337.167522 
L 665.333731 337.530285 
L 666.299352 338.58039 
L 667.481746 339.401381 
L 670.772741 341.406126 
L 675.541729 344.308233 
L 677.000015 345.014667 
L 678.51742 345.797472 
L 679.246563 346.312978 
L 680.133358 347.305805 
L 681.394578 349.386921 
L 681.67047 349.864241 
L 682.399613 350.53249 
L 685.276771 352.651792 
L 686.104446 353.014555 
L 687.602145 353.090926 
L 688.725419 353.396411 
L 690.065465 354.179217 
L 691.247859 354.885651 
L 691.720816 355.000207 
L 692.489372 354.752001 
L 693.119982 354.083752 
L 693.711179 353.224576 
L 694.046191 351.773522 
L 694.361495 350.093355 
L 694.657094 349.577849 
L 695.36653 349.1769 
L 696.135086 349.119622 
L 696.706576 349.119622 
L 697.002175 349.157807 
L 697.967796 349.940612 
L 699.997572 352.155379 
L 701.140553 353.701896 
L 702.598838 355.802105 
L 704.273896 358.188707 
L 704.589201 358.856955 
L 704.76656 359.754317 
L 704.805973 362.160012 
L 705.003039 363.038281 
L 705.889834 364.145664 
L 706.914575 365.310325 
L 707.269293 365.864017 
L 707.998436 367.200514 
L 709.102003 369.816229 
L 709.476428 371.496396 
L 709.673494 372.775614 
L 709.732613 373.55842 
L 709.870559 373.959369 
L 710.107038 374.16939 
L 710.816474 374.322132 
L 712.708304 374.703988 
L 713.949818 375.12403 
L 715.447516 376.231413 
L 715.683995 376.555991 
L 715.683995 377.014219 
L 715.30957 379.477191 
L 715.013972 380.584574 
L 714.619841 381.252823 
L 713.930111 381.71105 
L 712.767424 382.111999 
L 711.112073 382.665691 
L 710.639115 383.06664 
L 710.639115 383.391217 
L 711.427378 384.746807 
L 713.200968 388.049863 
L 714.324242 389.99733 
L 714.403068 390.589207 
L 714.639547 393.071273 
L 714.521308 394.636883 
L 714.186296 395.744266 
L 713.792165 396.221586 
L 713.102435 396.546164 
L 711.663856 396.966206 
L 710.836181 397.558083 
L 710.126745 398.703652 
L 709.81144 399.50555 
L 709.81144 400.211984 
L 710.540582 402.5604 
L 710.757355 403.476855 
L 710.777061 404.507866 
L 710.244984 406.875375 
L 709.594667 409.032863 
L 708.057556 412.565033 
L 707.978729 413.099631 
L 708.569926 414.283386 
L 711.112073 418.38834 
L 711.348551 418.732011 
L 711.70327 419.457537 
L 712.057988 420.622199 
L 712.570358 422.073253 
L 712.84625 422.989708 
L 713.200968 423.867977 
L 713.437447 424.650782 
L 713.555686 425.395402 
L 713.516273 426.235485 
L 712.865957 428.412066 
L 712.333879 429.805841 
L 712.294466 430.703203 
L 712.392999 431.275988 
L 712.668891 431.524194 
L 713.003903 431.56238 
L 713.299501 431.600565 
L 714.442482 431.333266 
L 715.348983 431.314173 
L 715.802234 431.29508 
L 716.511671 431.466916 
L 717.792597 432.077886 
L 718.265554 432.555206 
L 718.541446 433.12799 
L 718.994697 433.948981 
L 720.393863 439.390432 
L 720.571222 440.154145 
L 721.812736 439.180411 
L 722.522172 438.225771 
L 722.738944 437.633894 
L 722.87689 436.469232 
L 723.113369 435.724613 
L 723.704565 434.769972 
L 724.394295 433.948981 
L 724.926372 433.586218 
L 726.266418 432.058793 
L 727.074387 430.875038 
L 727.645878 429.786748 
L 728.177955 428.832108 
L 728.532673 428.259323 
L 729.360349 427.323776 
L 731.0157 425.529051 
L 731.941908 424.918081 
L 733.203128 424.612596 
L 734.286989 424.288019 
L 735.232904 423.734327 
L 735.88322 423.14245 
L 736.336471 422.474202 
L 736.51383 421.958696 
L 736.612363 421.290447 
L 736.651776 420.736756 
L 736.730603 419.934858 
L 736.888255 419.629373 
L 737.617398 417.796463 
L 739.568347 414.054272 
L 740.593089 411.705856 
L 741.401058 410.693937 
L 741.992254 410.273895 
L 743.667312 409.109234 
L 744.77088 408.288243 
L 747.372146 408.116408 
L 749.401922 408.230965 
L 750.190184 408.517357 
L 750.978446 408.88012 
L 751.687883 409.834761 
L 754.170909 413.15691 
L 754.978878 414.98982 
L 755.392716 417.147307 
L 755.491249 418.407433 
L 755.195651 420.412178 
L 754.821226 421.691396 
L 753.757072 423.027893 
L 753.047635 424.001627 
L 757.974276 428.774829 
L 761.068206 431.848772 
L 762.270306 433.338011 
L 764.103016 436.431047 
L 766.191912 439.963217 
L 766.664869 440.574187 
L 767.945796 442.177983 
L 769.285842 443.571758 
L 769.837626 444.450027 
L 770.014985 444.889162 
L 770.014985 445.423761 
L 769.246429 446.244751 
L 768.556699 447.447598 
L 768.576406 448.47861 
L 769.207016 449.815107 
L 770.724421 451.724388 
L 771.512683 452.449915 
L 772.300946 452.736307 
L 774.11395 452.869957 
L 775.434289 452.698122 
L 776.045193 452.182616 
L 777.444358 450.521541 
L 778.823818 449.108673 
L 779.454428 449.013209 
L 780.085038 449.013209 
L 786.351724 449.375972 
L 788.184434 449.662365 
L 789.406241 450.006035 
L 791.298071 451.495274 
L 793.386967 453.251813 
L 795.180264 455.180187 
L 796.323244 456.230292 
L 796.875028 456.306663 
L 801.722842 454.836516 
L 803.023475 454.206454 
L 804.048216 453.309091 
L 804.698533 452.411729 
L 805.605035 450.617005 
L 805.782394 450.349706 
L 806.531243 450.082406 
L 807.102733 450.254242 
L 808.048648 451.208882 
L 811.733775 454.282825 
L 812.67969 454.798331 
L 813.330007 455.06563 
L 813.980323 455.046537 
L 816.936307 452.526286 
L 823.143874 447.218485 
L 824.267148 446.492958 
L 825.567781 446.30203 
L 827.558144 446.111102 
L 834.356908 445.500132 
L 835.854606 445.652874 
L 837.076413 446.263844 
L 840.091517 448.631353 
L 841.431563 449.948757 
L 842.160706 451.476182 
L 844.229895 456.917633 
L 845.471408 459.666998 
L 848.131794 463.103704 
L 852.979608 468.812454 
L 855.935592 472.783759 
L 858.418619 476.831435 
L 859.364534 477.805168 
L 861.709615 479.027108 
L 863.207314 480.40179 
L 863.601445 480.764554 
L 864.921784 482.349257 
L 865.217383 483.151155 
L 865.335622 484.296724 
L 865.05973 485.728685 
L 865.079437 486.969717 
L 865.473568 487.943451 
L 867.266865 490.501887 
L 869.079869 492.35389 
L 869.966664 492.697561 
L 870.203143 492.773932 
L 871.878201 492.678468 
L 873.435019 492.239333 
L 874.380934 492.162962 
L 874.814478 492.22024 
L 876.804841 493.155788 
L 877.868995 493.384902 
L 878.952856 493.193974 
L 879.662292 492.793025 
L 880.017011 492.277519 
L 880.13525 491.762013 
L 880.115543 490.501887 
L 880.292902 490.158217 
L 882.854755 487.809801 
L 884.155388 486.931532 
L 884.805705 486.702418 
L 885.653087 486.683325 
L 886.736948 486.797882 
L 887.288732 487.026996 
L 887.406971 487.065181 
L 888.412006 487.847987 
L 888.84555 488.420771 
L 888.924376 489.050834 
L 888.707604 491.437435 
L 888.589365 492.583004 
L 888.78643 493.537644 
L 889.771758 495.351461 
L 890.303836 495.236905 
L 891.919774 494.358635 
L 892.62921 494.129521 
L 892.865689 494.129521 
L 893.476592 494.396821 
L 893.969256 494.855048 
L 894.087495 495.370554 
L 894.087495 495.866967 
L 894.048082 497.127093 
L 894.166322 497.814434 
L 895.585194 500.697448 
L 896.255217 501.25114 
L 898.048514 501.518439 
L 899.132375 501.632996 
L 899.802398 501.957574 
L 900.314769 502.492173 
L 900.905966 503.542277 
L 901.39863 505.298816 
L 901.773054 506.043436 
L 902.364251 506.539849 
L 902.975155 506.826241 
L 903.388992 506.826241 
L 904.531973 506.406199 
L 904.945811 506.406199 
L 905.615834 506.520756 
L 907.054413 507.074447 
L 907.901795 507.799974 
L 908.15798 508.410944 
L 908.098861 508.92645 
L 906.936173 512.878662 
L 906.305563 514.978871 
L 906.187324 515.99079 
L 905.911432 518.43467 
L 905.911432 519.637517 
L 906.285857 520.210301 
L 907.015 520.248487 
L 909.143308 518.56832 
L 911.350443 516.849967 
L 911.94164 516.60176 
L 912.729902 516.888152 
L 912.986088 517.69005 
L 912.926968 519.04564 
L 913.183153 520.076652 
L 916.198257 525.689938 
L 917.479184 527.045528 
L 918.563045 527.312827 
L 919.50896 527.121899 
L 920.454875 526.377279 
L 921.361376 525.689938 
L 922.366411 525.441732 
L 925.204156 525.880866 
L 928.751337 526.415465 
L 930.308155 526.453651 
L 931.31319 526.148166 
L 933.047367 524.773483 
L 935.03773 522.864202 
L 936.141297 522.615996 
L 935.313622 518.472856 
L 936.476309 518.625598 
L 938.328726 518.892897 
L 940.358502 518.759248 
L 942.506517 517.995535 
L 945.06837 516.086254 
L 945.324555 517.460937 
L 945.403381 519.618424 
L 945.738393 521.451334 
L 947.157265 525.136247 
L 947.827288 526.663671 
L 948.379072 527.121899 
L 949.265867 526.930971 
L 950.270902 525.040783 
L 951.098577 524.41072 
L 951.94596 524.448905 
L 954.862531 527.045528 
L 955.650793 528.630231 
L 956.163164 530.405862 
L 956.833187 531.245946 
L 958.094407 531.742359 
L 959.769465 531.780545 
L 960.478901 531.60871 
L 961.503642 530.749533 
L 963.336352 529.413036 
L 964.89317 528.821159 
L 967.120012 528.859345 
L 968.79507 528.840252 
L 970.824845 527.847426 
L 972.499903 527.102806 
L 973.642884 526.625486 
L 974.35232 526.682764 
L 974.785864 527.293734 
L 975.968258 531.570524 
L 976.106204 531.933287 
" clip-path="url(#pc99a018441)"/>
   </g>
  </g>
 </g>
 <defs>
  <clipPath id="pc99a018441">
   <rect x="10.8" y="178.659005" width="1058.4" height="722.681991"/>
  </clipPath>
 </defs>
</svg>
