<?xml version="1.0" encoding="utf-8" standalone="no"?>
<!DOCTYPE svg PUBLIC "-//W3C//DTD SVG 1.1//EN"
  "http://www.w3.org/Graphics/SVG/1.1/DTD/svg11.dtd">
<svg xmlns:xlink="http://www.w3.org/1999/xlink" width="1080pt" height="1080pt" viewBox="0 0 1080 1080" xmlns="http://www.w3.org/2000/svg" version="1.1">
 <metadata>
  <rdf:RDF xmlns:dc="http://purl.org/dc/elements/1.1/" xmlns:cc="http://creativecommons.org/ns#" xmlns:rdf="http://www.w3.org/1999/02/22-rdf-syntax-ns#">
   <cc:Work>
    <dc:type rdf:resource="http://purl.org/dc/dcmitype/StillImage"/>
    <dc:date>2022-07-01T13:43:26.954076</dc:date>
    <dc:format>image/svg+xml</dc:format>
    <dc:creator>
     <cc:Agent>
      <dc:title>Matplotlib v3.5.1, https://matplotlib.org/</dc:title>
     </cc:Agent>
    </dc:creator>
   </cc:Work>
  </rdf:RDF>
 </metadata>
 <defs>
  <style type="text/css">*{stroke-linejoin: round; stroke-linecap: butt}</style>
 </defs>
 <g id="figure_1">
  <g id="patch_1">
   <path d="M 0 1080 
L 1080 1080 
L 1080 0 
L 0 0 
L 0 1080 
z
" style="fill: none; opacity: 0"/>
  </g>
  <g id="axes_1">
   <g id="PatchCollection_1">
    <path d="M 854.450872 734.980779 
L 852.996764 735.450386 
L 851.203364 734.605094 
L 849.313024 732.773627 
L 847.713505 730.425592 
L 847.422683 729.909025 
L 847.374213 729.204614 
L 847.713505 728.547165 
L 848.876791 728.406283 
L 850.621721 728.500204 
L 852.802883 728.969811 
L 853.675348 730.378632 
L 854.547813 732.350981 
L 854.838635 733.853723 
L 854.450872 734.980779 
" clip-path="url(#p16c4e08a3c)"/>
    <path d="M 889.688758 649.606247 
L 888.13771 650.169775 
L 887.362185 650.028893 
L 887.216775 649.08968 
L 887.216775 647.868702 
L 888.040769 646.131156 
L 889.300996 644.910178 
L 891.288277 644.111847 
L 892.403093 643.548318 
L 893.275558 643.548318 
L 893.711791 644.205768 
L 893.51791 645.238903 
L 892.887796 646.647724 
L 891.579099 648.385269 
L 889.688758 649.606247 
" clip-path="url(#p16c4e08a3c)"/>
    <path d="M 912.130493 448.097932 
L 912.275904 448.755382 
L 911.64579 450.023321 
L 910.579444 450.117242 
L 908.689104 449.647635 
L 904.666071 449.459792 
L 903.211963 449.788517 
L 902.097147 451.197338 
L 901.176212 452.559198 
L 900.594569 453.827136 
L 900.255277 455.235957 
L 900.158336 456.691738 
L 900.206807 458.14752 
L 900.303747 459.603301 
L 900.400688 461.059082 
L 900.497628 462.467903 
L 900.594569 463.923684 
L 900.73998 465.379466 
L 900.88539 466.788286 
L 901.127742 468.244068 
L 901.418563 469.652888 
L 902.000207 471.10867 
L 902.67879 472.282687 
L 903.502785 473.550626 
L 904.32678 474.771604 
L 905.199244 475.945621 
L 906.16865 477.072677 
L 907.186525 478.105812 
L 908.301342 479.045026 
L 909.513098 479.843358 
L 910.821796 480.500808 
L 912.082023 481.205218 
L 913.293779 482.05051 
L 914.457066 482.942763 
L 915.668823 483.788056 
L 916.832109 484.680309 
L 917.995396 485.525601 
L 919.255623 486.323933 
L 928.610385 493.508918 
L 929.919082 494.166368 
L 931.082368 495.058621 
L 932.100244 496.185678 
L 932.924239 497.453616 
L 933.554352 498.721555 
L 935.687044 503.605466 
L 936.123276 505.24909 
L 936.317157 506.282226 
L 936.220217 507.221439 
L 933.893644 508.958985 
L 932.875768 510.039081 
L 931.906363 511.166137 
L 932.342595 512.340154 
L 933.699763 513.279368 
L 935.00846 513.983779 
L 936.268687 514.688189 
L 937.577384 515.392599 
L 938.837611 516.14397 
L 940.097838 516.848381 
L 941.406536 517.552791 
L 942.666763 518.304162 
L 944.02393 518.726808 
L 945.574979 518.492005 
L 946.689795 517.646712 
L 947.61073 516.425734 
L 948.919427 515.768285 
L 950.422006 515.627403 
L 951.730703 516.284852 
L 952.603168 517.50583 
L 952.748579 518.961612 
L 952.360817 520.323471 
L 951.294471 521.403567 
L 949.985773 522.061017 
L 948.677076 522.624545 
L 947.319909 523.235034 
L 945.962741 523.798562 
L 944.654044 524.456012 
L 944.0724 525.911793 
L 944.993336 527.03885 
L 946.205092 527.837182 
L 947.56226 528.588553 
L 948.919427 529.011199 
L 950.276595 528.494631 
L 951.488352 527.555418 
L 952.457757 526.522282 
L 953.814925 525.864833 
L 955.317503 526.099636 
L 956.238438 527.226693 
L 957.062433 534.364717 
L 957.304784 535.820499 
L 957.450195 537.229319 
L 957.547135 538.685101 
L 957.644076 540.140882 
L 957.789487 541.596663 
L 957.886427 543.005484 
L 957.983368 544.461265 
L 958.080308 545.917047 
L 958.225719 547.372828 
L 958.37113 548.781649 
L 958.661952 550.23743 
L 958.46807 551.646251 
L 957.983368 553.008111 
L 957.498665 554.369971 
L 956.868552 555.731831 
L 955.996087 556.999769 
L 954.881271 557.938983 
L 953.475633 558.549472 
L 952.069995 558.925158 
L 950.664357 559.300843 
L 949.258719 559.629568 
L 947.804611 559.864371 
L 946.398973 560.287017 
L 938.159028 561.273192 
L 935.929395 561.507995 
L 934.766109 561.78976 
L 933.748233 562.400248 
L 932.681887 563.386423 
L 931.760952 564.842204 
L 930.646136 565.828379 
L 929.288968 566.438868 
L 927.883331 566.814553 
L 926.429222 567.096317 
L 924.975114 567.190239 
L 924.393471 566.767593 
L 924.15112 565.969261 
L 924.102649 564.513479 
L 924.005709 563.292502 
L 923.617947 561.742799 
L 922.793952 560.521821 
L 917.753044 552.914189 
L 917.122931 552.3037 
L 916.105055 552.068897 
L 914.990239 553.055071 
L 914.117774 554.416931 
L 913.196839 555.68487 
L 912.275904 556.952809 
L 912.227434 557.516337 
L 912.712136 558.455551 
L 913.875423 559.77045 
L 914.747888 561.414074 
L 916.347406 564.184755 
L 916.92905 565.311811 
L 917.607633 567.425042 
L 917.946925 568.974745 
L 918.431628 570.101801 
L 918.964801 571.604543 
L 920.031147 572.966403 
L 921.242904 573.952578 
L 922.503131 575.032674 
L 922.987833 575.737084 
L 922.987833 576.488455 
L 922.115368 577.897276 
L 920.709731 578.742568 
L 917.801514 580.620996 
L 914.505536 584.612654 
L 903.405844 597.057237 
L 903.405844 598.513018 
L 903.987488 600.01576 
L 904.763012 601.424581 
L 905.587007 602.786441 
L 906.21712 604.336143 
L 906.023239 605.087514 
L 905.490066 605.651043 
L 898.413407 611.662011 
L 897.347061 612.366421 
L 895.35978 612.742107 
L 893.808731 612.789067 
L 892.160742 612.789067 
L 891.239807 612.836028 
L 890.464283 613.164753 
L 889.834169 614.479652 
L 886.198899 629.272269 
L 886.053488 630.821972 
L 885.908077 632.418635 
L 885.762666 633.968338 
L 885.617256 635.565001 
L 885.471845 637.114704 
L 885.326434 638.711367 
L 885.084083 640.26107 
L 884.841731 641.810773 
L 883.387623 651.954282 
L 883.048331 653.503984 
L 882.75751 655.053687 
L 882.418218 656.60339 
L 881.448812 661.205537 
L 881.157991 662.75524 
L 880.624818 664.257982 
L 878.298245 673.368356 
L 878.249775 674.965019 
L 878.201304 676.561682 
L 878.152834 678.111385 
L 878.104364 679.708049 
L 877.958953 681.304712 
L 876.844137 682.056083 
L 875.293088 681.210791 
L 874.129802 680.130695 
L 872.772634 679.238442 
L 871.318526 678.580992 
L 869.767478 678.299228 
L 868.167959 678.44011 
L 866.56844 678.862756 
L 865.017391 679.426284 
L 863.563283 680.130695 
L 862.303056 681.069909 
L 861.18824 682.243926 
L 860.218834 683.511864 
L 859.34637 684.826764 
L 858.425435 686.141663 
L 857.60144 687.456562 
L 856.728975 688.771462 
L 855.904981 690.133322 
L 855.129456 691.542142 
L 854.402402 692.997924 
L 853.772289 694.453705 
L 853.336056 695.956447 
L 850.37937 708.072305 
L 849.022202 710.936907 
L 848.343618 712.392688 
L 847.713505 713.848469 
L 847.034921 715.25729 
L 846.453278 716.713071 
L 845.823164 718.215813 
L 845.289992 719.671595 
L 844.756819 721.174337 
L 843.108829 723.945017 
L 840.927667 726.386973 
L 836.516873 730.23775 
L 835.305116 731.223924 
L 834.14183 732.30402 
L 833.075484 733.524998 
L 832.009138 734.792936 
L 831.136673 736.107836 
L 830.991262 737.469696 
L 831.136673 739.911651 
L 833.511716 749.068986 
L 833.511716 749.491632 
L 833.463246 749.867317 
L 833.366305 750.430846 
L 833.172424 751.041335 
L 832.881603 751.792706 
L 832.639251 752.215352 
L 832.34843 752.591037 
L 832.009138 752.966723 
L 831.475965 753.342408 
L 830.845851 753.765055 
L 830.361149 753.905937 
L 829.876446 753.858976 
L 829.440213 753.577212 
L 829.149392 753.201526 
L 828.955511 752.825841 
L 828.90704 752.497116 
L 826.725878 747.002715 
L 823.720722 743.058018 
L 822.896727 742.165764 
L 821.103327 740.991747 
L 818.679814 739.535966 
L 810.585279 736.577443 
L 804.090263 734.37029 
L 803.750971 734.323329 
L 803.411679 734.182447 
L 802.684625 733.853723 
L 802.054511 733.478037 
L 801.375927 733.102352 
L 800.745814 732.632745 
L 796.965133 730.002946 
L 794.929382 728.735008 
L 792.651279 727.373148 
L 789.791533 725.635602 
L 788.531306 724.931192 
L 787.36802 724.367664 
L 786.640966 724.085899 
L 785.913912 723.804135 
L 785.138387 723.569332 
L 784.362863 723.42845 
L 783.635809 723.334528 
L 782.860285 723.287568 
L 782.08476 723.287568 
L 781.260766 723.381489 
L 775.735155 723.945017 
L 771.27589 724.367664 
L 770.548836 724.414624 
L 770.064133 724.508546 
L 769.627901 724.602467 
L 769.143198 724.743349 
L 768.610025 724.931192 
L 768.173793 725.119035 
L 767.204388 725.588641 
L 765.265577 726.574816 
L 764.393112 727.091383 
L 762.502771 728.265401 
L 760.51549 730.190789 
L 760.224669 730.472553 
L 759.594555 730.801278 
L 758.915972 731.036081 
L 758.188917 731.223924 
L 757.461863 731.317845 
L 756.492458 731.411767 
L 754.795999 731.411767 
L 753.584242 731.411767 
L 752.566366 731.317845 
L 751.693901 731.223924 
L 750.579085 731.036081 
L 749.512739 730.801278 
L 748.446393 730.519514 
L 747.428518 730.23775 
L 745.295826 729.533339 
L 743.938658 729.063732 
L 741.854437 727.842754 
L 736.280356 721.878747 
L 732.935907 717.2766 
L 729.349107 709.903771 
L 725.423015 704.785056 
L 718.588707 699.57242 
L 717.619302 697.787914 
L 717.619302 696.332132 
L 717.813183 695.111154 
L 718.782589 693.091845 
L 719.800464 692.340474 
L 722.272448 690.555968 
L 723.726556 689.100186 
L 726.731713 684.685882 
L 727.119475 683.605786 
L 727.507237 682.009122 
L 727.555707 681.022948 
L 727.507237 680.083734 
L 727.216415 679.614127 
L 726.780183 678.862756 
L 725.762307 677.876582 
L 724.308199 676.655604 
L 722.030097 673.368356 
L 720.624459 669.517579 
L 720.382107 665.619842 
L 719.994345 663.788375 
L 719.218821 662.285633 
L 715.680491 659.749756 
L 712.578394 658.387896 
L 710.445702 658.528778 
L 705.598675 659.32711 
L 702.738929 660.078481 
L 701.284821 661.252498 
L 700.751648 662.473476 
L 700.606238 665.291117 
L 700.606238 666.746899 
L 700.606238 667.967876 
L 700.218475 668.578365 
L 699.491421 669.094933 
L 698.473546 669.705422 
L 697.358729 669.658461 
L 695.032157 669.047972 
L 692.511703 668.578365 
L 689.167254 668.90709 
L 687.179973 669.893265 
L 685.822805 671.349046 
L 686.162097 673.65012 
L 686.452919 674.166687 
L 687.761616 676.608643 
L 689.555016 681.022948 
L 691.057594 685.437253 
L 691.687708 686.846073 
L 692.754054 688.160973 
L 695.032157 689.804597 
L 696.631675 690.649889 
L 697.50414 691.166457 
L 698.618956 691.776946 
L 703.562924 694.970272 
L 708.943124 698.821049 
L 712.190632 701.732612 
L 714.808026 703.892803 
L 718.200945 706.616523 
L 721.012221 709.622007 
L 722.951032 712.345727 
L 723.920437 714.224155 
L 725.616896 717.511403 
L 726.101599 719.436791 
L 726.101599 720.798651 
L 725.519956 721.596983 
L 724.889842 721.831786 
L 722.66021 722.019629 
L 720.430578 722.254433 
L 719.703524 722.395315 
L 719.07341 722.536197 
L 717.667772 722.958843 
L 716.213664 723.47541 
L 715.632021 723.710214 
L 715.098848 723.945017 
L 714.468735 724.273742 
L 713.984032 724.555506 
L 713.402389 724.931192 
L 712.917686 725.259917 
L 712.481453 725.635602 
L 712.045221 726.011288 
L 711.463578 726.574816 
L 710.930405 727.091383 
L 710.397232 727.701872 
L 709.912529 728.265401 
L 709.427827 728.828929 
L 708.991594 729.439418 
L 708.506891 730.096868 
L 708.022189 730.848239 
L 707.537486 731.59961 
L 707.101254 732.397941 
L 705.841027 734.652054 
L 704.968562 736.3896 
L 704.289978 737.892342 
L 703.999156 738.596752 
L 703.562924 739.81773 
L 703.369043 740.52214 
L 703.223632 741.132629 
L 703.078221 741.790079 
L 702.88434 743.1989 
L 702.738929 744.842524 
L 702.641989 746.955755 
L 702.641989 749.961239 
L 702.641989 750.853492 
L 702.690459 751.792706 
L 702.738929 752.544077 
L 702.83587 753.248487 
L 702.93281 753.905937 
L 703.078221 754.563386 
L 703.272102 755.314757 
L 703.465983 755.972207 
L 703.999156 757.56887 
L 704.920091 759.963865 
L 705.356324 761.090922 
L 706.3742 763.345035 
L 712.093691 768.792475 
L 713.59627 770.858745 
L 714.080972 772.643251 
L 714.371794 773.958151 
L 714.323324 775.601775 
L 713.838621 777.198438 
L 712.529924 781.284018 
L 711.705929 783.49117 
L 710.348762 785.134795 
L 709.185475 785.369598 
L 708.21607 784.946952 
L 707.440545 783.632053 
L 707.343605 782.739799 
L 707.343605 781.612743 
L 707.731367 780.06304 
L 707.828308 778.419416 
L 708.458421 775.883539 
L 709.185475 771.281391 
L 708.1676 770.389138 
L 706.907373 770.48306 
L 704.047627 772.032762 
L 702.88434 772.408448 
L 700.315416 772.784133 
L 697.940373 773.065898 
L 695.66227 773.20678 
L 693.141816 773.770308 
L 687.325384 775.27305 
L 682.866119 777.104517 
L 679.667081 778.560298 
L 678.891557 779.123826 
L 678.503795 779.922158 
L 678.600735 780.438726 
L 678.940027 780.861372 
L 680.491076 781.049215 
L 680.830368 781.049215 
L 682.623768 781.096175 
L 683.253881 781.049215 
L 684.368697 781.002254 
L 686.6468 780.908333 
L 691.639238 781.330979 
L 695.565329 782.176271 
L 697.019438 782.598917 
L 698.570486 783.303328 
L 700.703178 784.430384 
L 702.254227 785.416559 
L 703.465983 786.21489 
L 703.902216 786.87234 
L 703.902216 787.952436 
L 700.170005 790.582234 
L 695.66227 793.352915 
L 692.608643 796.828006 
L 689.894308 801.946721 
L 688.4402 807.722886 
L 687.179973 815.283557 
L 686.259038 829.512645 
L 686.452919 833.598225 
L 686.549859 834.913125 
L 687.034562 843.741734 
L 688.924903 857.454255 
L 689.942778 866.329825 
L 688.827962 877.788233 
L 687.713146 887.13341 
L 686.404449 892.674771 
L 685.774335 900.517206 
L 686.210568 903.992297 
L 687.276913 908.312681 
L 687.955497 912.116497 
L 688.779492 918.362268 
L 688.731022 924.60804 
L 688.731022 927.754406 
L 687.664676 931.746064 
L 686.065157 934.84547 
L 681.993654 938.461443 
L 681.848243 938.93105 
L 681.460481 940.011146 
L 681.2666 941.232124 
L 680.927308 943.674079 
L 680.927308 947.665738 
L 680.684957 954.099352 
L 680.830368 961.190416 
L 680.830368 966.21521 
L 682.042124 971.615689 
L 683.399292 976.828325 
L 684.950341 980.632141 
L 686.889151 983.96635 
L 689.651957 987.253598 
L 693.86887 989.695554 
L 697.164848 992.043589 
L 698.085783 997.350146 
L 697.940373 1000.449552 
L 697.213319 1002.515822 
L 694.935216 1004.910817 
L 690.427481 1008.620712 
L 685.338103 1011.767078 
L 678.067562 1015.289129 
L 674.04453 1017.214518 
L 671.233254 1017.214518 
L 668.955152 1016.322265 
L 665.998465 1016.463147 
L 663.671892 1019.233827 
L 662.799427 1022.521076 
L 662.072373 1025.150874 
L 659.7458 1030.692235 
L 657.128406 1034.496051 
L 651.990557 1038.816434 
L 648.452228 1041.023587 
L 644.574606 1042.761132 
L 640.890866 1044.451717 
L 638.225001 1047.081516 
L 632.941741 1051.730624 
L 627.658482 1056.379732 
L 624.992617 1058.25816 
L 618.691482 1059.291295 
L 609.724482 1060.653155 
L 603.762639 1062.484622 
L 600.466661 1063.846481 
L 595.619634 1066.147555 
L 591.596602 1068.354708 
L 589.657791 1069.059118 
L 579.527505 1069.2 
L 572.644726 1068.49559 
L 571.336029 1067.83814 
L 570.754386 1066.945887 
L 570.124272 1065.677948 
L 570.657445 1062.766386 
L 569.978862 1060.183548 
L 569.106397 1058.492963 
L 562.369029 1052.716798 
L 555.631662 1048.584258 
L 551.75404 1046.095341 
L 548.603473 1043.606425 
L 544.968203 1039.89653 
L 542.011516 1036.750164 
L 536.631316 1033.650759 
L 532.850635 1032.194977 
L 532.317462 1031.960174 
L 531.83276 1031.913213 
L 531.202646 1031.866253 
L 530.814884 1031.772331 
L 529.797008 1031.72537 
L 528.3429 1031.584488 
L 526.597971 1031.490567 
L 524.125987 1031.302724 
L 520.199895 1034.308208 
L 517.5825 1037.12585 
L 516.079922 1037.595457 
L 507.597625 1037.642417 
L 508.954792 1033.228113 
L 513.220176 1032.711545 
L 516.903917 1031.302724 
L 518.358025 1028.532044 
L 519.23049 1023.50725 
L 519.812133 1017.637164 
L 514.722755 1011.485314 
L 510.748192 1011.438353 
L 498.533685 1010.264336 
L 488.888101 1001.294844 
L 484.671188 997.068382 
L 482.683906 993.734173 
L 481.859912 989.507711 
L 481.326739 985.32821 
L 480.454274 983.074097 
L 478.176171 982.228805 
L 473.377615 982.228805 
L 468.239766 981.947041 
L 458.594183 979.645967 
L 451.759875 978.800674 
L 440.999475 977.626657 
L 430.190605 974.527252 
L 421.126664 971.099121 
L 410.899438 965.5108 
L 404.937594 961.847866 
L 396.746119 955.649055 
L 378.86059 943.580158 
L 373.48039 940.480753 
L 372.656395 936.301251 
L 373.819682 928.74058 
L 374.692146 917.000408 
L 375.613081 902.160831 
L 377.06719 888.777034 
L 377.939654 879.807543 
L 377.988125 871.730304 
L 377.454952 867.785607 
L 371.202287 866.095022 
L 362.962341 865.249729 
L 355.837212 865.202769 
L 348.42126 865.484533 
L 338.775677 868.208253 
L 331.359726 870.978933 
L 323.943774 874.031378 
L 316.285472 875.956766 
L 308.869521 876.23853 
L 302.907677 875.675002 
L 293.843737 872.8104 
L 286.427786 869.429231 
L 280.465943 865.531493 
L 275.085743 860.177975 
L 270.868829 854.026125 
L 267.475911 847.874275 
L 264.082992 842.238992 
L 259.526786 834.960085 
L 256.909392 830.404898 
L 255.309873 827.681178 
L 250.220495 815.659242 
L 245.421938 802.792013 
L 240.38103 788.2342 
L 236.69729 778.70118 
L 234.176836 769.82561 
L 227.051706 770.013453 
L 218.81176 769.684728 
L 211.686631 769.684728 
L 206.548782 768.839436 
L 200.586939 767.994143 
L 192.928636 765.974834 
L 186.094328 765.129541 
L 177.854383 764.284249 
L 167.336334 763.391996 
L 160.356615 763.01631 
L 158.757096 758.648966 
L 156.769815 754.986032 
L 154.346302 751.604863 
L 151.971259 747.566244 
L 149.547745 742.400568 
L 141.45321 732.444902 
L 136.509243 728.077558 
L 121.483459 706.945248 
L 121.338048 703.845843 
L 121.774281 700.088987 
L 121.919692 696.473014 
L 121.968162 691.448221 
L 121.822751 681.633437 
L 121.871221 674.777176 
L 122.307454 670.879439 
L 130.208108 661.581223 
L 134.425021 656.650351 
L 180.95648 648.948798 
L 186.675972 648.244387 
L 193.898042 647.305173 
L 199.908355 646.318999 
L 205.579377 645.943314 
L 209.456998 645.943314 
L 222.253149 639.134014 
L 227.82723 636.363333 
L 233.643663 633.733534 
L 239.363154 631.197657 
L 243.046895 629.272269 
L 248.766387 626.501588 
L 254.195057 624.435318 
L 256.036927 624.153554 
L 258.993613 625.703257 
L 260.883954 626.971195 
L 264.422284 628.380016 
L 268.106024 628.520898 
L 271.983646 626.971195 
L 275.085743 625.045807 
L 278.527132 621.14807 
L 282.113932 617.250333 
L 302.859207 586.819807 
L 304.264845 585.270104 
L 304.701077 584.049126 
L 303.731672 578.554725 
L 301.59898 575.079634 
L 299.466288 570.994054 
L 292.001867 547.091064 
L 291.323283 543.850776 
L 289.336002 541.174017 
L 287.057899 539.483432 
L 283.083337 537.135398 
L 278.817954 534.740403 
L 274.843392 532.204526 
L 269.705543 529.950413 
L 266.312624 527.6963 
L 263.7437 524.737776 
L 262.338062 521.403567 
L 261.514067 518.022398 
L 260.350781 514.406425 
L 260.10843 510.461727 
L 260.399251 506.845754 
L 260.980894 503.746348 
L 262.386532 500.975668 
L 264.713105 497.641459 
L 266.991208 493.837643 
L 269.1239 489.799024 
L 270.141775 486.746579 
L 269.996365 484.492466 
L 268.736138 481.956589 
L 266.458035 479.749437 
L 263.210527 478.199734 
L 258.654322 476.509149 
L 254.679759 474.818564 
L 250.947549 473.409744 
L 230.735446 469.981613 
L 226.615473 468.854557 
L 221.671506 466.882208 
L 217.939295 465.191623 
L 213.673912 463.360156 
L 208.293712 460.119869 
L 204.46456 457.302227 
L 203.301274 455.048114 
L 203.882917 452.70008 
L 205.191614 451.009495 
L 229.62063 423.537492 
L 230.929327 422.551318 
L 233.498252 420.62593 
L 241.495846 411.985163 
L 244.888765 407.805662 
L 246.633695 403.297435 
L 246.924516 399.681462 
L 246.245933 396.863821 
L 245.955111 393.952258 
L 244.985706 390.148443 
L 243.289246 381.78944 
L 242.319841 374.369651 
L 242.901484 366.949862 
L 244.501003 358.543899 
L 245.8097 351.969403 
L 247.263808 346.662845 
L 247.700041 343.469518 
L 249.105678 339.947467 
L 249.784262 339.008253 
L 251.820014 335.908847 
L 254.679759 332.01111 
L 256.5701 328.254255 
L 257.878797 324.450439 
L 259.526786 285.050422 
L 257.587976 280.964842 
L 254.437408 276.221812 
L 254.049646 272.69976 
L 254.485878 269.92908 
L 255.503754 265.561736 
L 256.909392 262.509291 
L 258.218089 259.73861 
L 260.20537 256.733126 
L 260.350781 256.498323 
L 262.919705 253.727642 
L 266.070273 249.548141 
L 268.493786 246.589618 
L 272.371408 242.128352 
L 275.667386 239.075907 
L 277.945489 235.741698 
L 279.690418 231.937883 
L 281.241467 228.744556 
L 282.259343 223.719762 
L 283.56804 219.211536 
L 283.56804 216.72262 
L 282.453224 213.34145 
L 280.756764 209.443713 
L 279.496537 206.203425 
L 279.351127 202.728334 
L 280.369002 200.051575 
L 283.51957 190.14287 
L 286.815548 184.131902 
L 294.134559 171.311634 
L 295.007024 168.212228 
L 296.848894 165.864194 
L 299.272407 164.737137 
L 304.991899 164.737137 
L 307.415413 164.361452 
L 308.966461 163.234395 
L 311.002212 160.557636 
L 313.716548 156.237253 
L 315.99465 151.916869 
L 317.012526 148.300896 
L 317.303347 143.370024 
L 316.479353 137.077292 
L 315.073715 134.729257 
L 305.476602 108.525193 
L 304.507196 104.298731 
L 302.374504 99.555701 
L 299.514759 95.235318 
L 295.976429 91.572384 
L 289.723764 84.246517 
L 286.185435 80.912308 
L 272.80764 71.47321 
L 270.820359 69.782625 
L 270.238716 67.857237 
L 270.384127 66.448416 
L 272.080586 65.462242 
L 276.685262 63.818617 
L 283.083337 61.423622 
L 289.384472 59.779998 
L 293.795267 57.572846 
L 295.394786 55.459615 
L 297.527478 48.32159 
L 298.399942 44.987381 
L 298.109121 43.015032 
L 297.139715 41.324448 
L 296.024899 39.539941 
L 295.007024 37.708475 
L 295.879488 36.01789 
L 298.593823 34.233384 
L 302.616856 31.415742 
L 308.336348 27.095359 
L 312.020088 25.874381 
L 317.012526 25.733499 
L 323.992245 25.169971 
L 334.074061 23.291543 
L 338.484855 16.764007 
L 338.727207 16.95185 
L 342.459417 19.159003 
L 344.979871 21.272234 
L 346.433979 22.070565 
L 349.051374 23.526347 
L 352.783585 24.089875 
L 359.714833 25.357813 
L 384.143849 27.001438 
L 388.069941 26.156145 
L 389.330168 23.855071 
L 394.177195 14.087248 
L 401.690086 10.8 
L 405.083005 11.316568 
L 407.74887 13.429799 
L 411.481081 18.360671 
L 413.032129 22.915858 
L 413.419892 26.390949 
L 412.838248 31.838388 
L 411.238729 36.346615 
L 409.930032 43.155914 
L 409.784621 43.860325 
L 407.74887 52.078445 
L 406.682524 57.478924 
L 405.567708 64.053421 
L 409.833092 70.299192 
L 416.473519 80.771426 
L 418.945502 92.323755 
L 418.897032 99.133055 
L 419.333264 105.284905 
L 421.514427 110.168817 
L 426.119102 115.381454 
L 427.912502 119.467033 
L 428.591086 126.04153 
L 430.432956 132.381223 
L 434.552929 139.425326 
L 437.073383 142.571692 
L 430.917659 151.30638 
L 426.070632 158.960973 
L 425.004286 161.262046 
L 428.203324 161.074204 
L 433.728934 162.154299 
L 438.866783 163.375277 
L 443.132167 164.831059 
L 447.785313 166.568604 
L 450.693529 167.836543 
L 450.160356 168.869678 
L 450.645058 172.955258 
L 452.826221 177.88613 
L 452.923161 178.167894 
L 453.117042 178.59054 
L 459.805939 182.863963 
L 468.336707 187.982678 
L 470.469399 189.203656 
L 473.716907 189.767184 
L 483.31402 191.739533 
L 492.911133 198.595794 
L 494.510652 201.883042 
L 496.061701 205.405094 
L 496.594874 207.847049 
L 497.128047 212.214393 
L 497.079576 216.76958 
L 496.207112 220.808199 
L 494.559122 224.799858 
L 492.765723 228.134067 
L 486.319177 234.191996 
L 483.992604 237.150519 
L 485.010479 254.29117 
L 486.222236 257.108812 
L 487.676344 259.409886 
L 489.760566 260.865667 
L 492.087139 260.114296 
L 495.673939 258.893318 
L 498.727566 257.531458 
L 501.39343 255.934795 
L 503.332241 255.277345 
L 505.125641 256.498323 
L 507.985387 258.752436 
L 519.32743 266.172225 
L 536.195084 278.80465 
L 538.133895 280.589156 
L 541.332932 281.105724 
L 546.858543 279.556021 
L 551.70557 278.194161 
L 566.14971 275.282598 
L 568.815575 275.470441 
L 571.820732 276.691419 
L 573.759543 278.616807 
L 574.292716 280.917881 
L 574.825889 283.876404 
L 576.425407 286.506203 
L 579.430564 289.323844 
L 583.356656 291.437075 
L 591.160369 293.550306 
L 595.086461 293.409424 
L 598.624791 293.409424 
L 602.744764 293.080699 
L 605.60451 292.939817 
L 608.270374 293.644228 
L 610.209185 295.381773 
L 612.681169 297.307161 
L 615.347034 300.829213 
L 618.546071 305.760085 
L 621.551228 308.718609 
L 628.676358 312.24066 
L 634.153498 315.950555 
L 640.890866 318.439471 
L 646.077184 319.331724 
L 650.68186 319.519567 
L 655.480417 320.083095 
L 673.899119 312.287621 
L 675.8864 311.630171 
L 677.6798 311.019682 
L 702.302697 325.812299 
L 712.820745 327.268081 
L 720.236697 330.132683 
L 725.326075 335.721005 
L 729.83381 341.919815 
L 732.935907 349.76225 
L 735.16554 360.375366 
L 735.747183 361.784187 
L 738.267637 367.701233 
L 740.788091 378.032585 
L 742.53302 382.681693 
L 743.841718 386.156784 
L 747.81628 393.764416 
L 753.19648 403.297435 
L 760.806312 413.675748 
L 767.349798 420.954654 
L 774.668809 429.971107 
L 780.921474 437.531777 
L 786.301674 443.448824 
L 791.10023 447.393522 
L 794.783971 450.211163 
L 799.921819 451.901748 
L 807.046949 454.202822 
L 817.564997 455.658603 
L 828.955511 456.269092 
L 840.636846 456.879581 
L 854.596283 455.001154 
L 867.683256 451.713905 
L 878.540596 449.27195 
L 889.107115 447.628325 
L 898.752699 446.829994 
L 904.181369 446.59519 
L 909.028396 447.205679 
L 912.130493 448.097932 
" clip-path="url(#p16c4e08a3c)"/>
   </g>
  </g>
 </g>
 <defs>
  <clipPath id="p16c4e08a3c">
   <rect x="121.338048" y="10.8" width="837.323903" height="1058.4"/>
  </clipPath>
 </defs>
</svg>
