<?xml version="1.0" encoding="utf-8" standalone="no"?>
<!DOCTYPE svg PUBLIC "-//W3C//DTD SVG 1.1//EN"
  "http://www.w3.org/Graphics/SVG/1.1/DTD/svg11.dtd">
<svg xmlns:xlink="http://www.w3.org/1999/xlink" width="1080pt" height="1080pt" viewBox="0 0 1080 1080" xmlns="http://www.w3.org/2000/svg" version="1.1">
 <metadata>
  <rdf:RDF xmlns:dc="http://purl.org/dc/elements/1.1/" xmlns:cc="http://creativecommons.org/ns#" xmlns:rdf="http://www.w3.org/1999/02/22-rdf-syntax-ns#">
   <cc:Work>
    <dc:type rdf:resource="http://purl.org/dc/dcmitype/StillImage"/>
    <dc:date>2022-07-01T13:43:26.898179</dc:date>
    <dc:format>image/svg+xml</dc:format>
    <dc:creator>
     <cc:Agent>
      <dc:title>Matplotlib v3.5.1, https://matplotlib.org/</dc:title>
     </cc:Agent>
    </dc:creator>
   </cc:Work>
  </rdf:RDF>
 </metadata>
 <defs>
  <style type="text/css">*{stroke-linejoin: round; stroke-linecap: butt}</style>
 </defs>
 <g id="figure_1">
  <g id="patch_1">
   <path d="M 0 1080 
L 1080 1080 
L 1080 0 
L 0 0 
L 0 1080 
z
" style="fill: none; opacity: 0"/>
  </g>
  <g id="axes_1">
   <g id="PatchCollection_1">
    <path d="M 550.037759 141.140084 
L 553.505955 146.632687 
L 562.109749 159.685697 
L 564.043935 161.753501 
L 567.111954 163.175116 
L 570.91363 164.790587 
L 572.847816 166.082964 
L 574.248434 167.504579 
L 581.45161 178.81288 
L 593.256815 193.158267 
L 595.057609 195.484546 
L 596.991795 197.100017 
L 601.593824 198.65087 
L 603.661403 199.684772 
L 605.929069 201.623338 
L 607.129599 204.33733 
L 608.530216 209.312982 
L 609.864138 212.673163 
L 612.1985 215.904106 
L 615.6 219.264287 
L 618.668019 221.008996 
L 625.337627 223.270656 
L 628.739127 223.981463 
L 630.273136 223.981463 
L 632.540803 222.49523 
L 635.942303 219.458143 
L 639.343802 216.80877 
L 643.679047 225.079984 
L 645.946714 229.926398 
L 649.014733 236.517522 
L 652.349537 239.554609 
L 656.751478 239.554609 
L 660.019585 237.745281 
L 668.08981 232.511153 
L 670.690957 231.412632 
L 673.225408 231.412632 
L 674.826114 232.705009 
L 676.960388 234.514338 
L 677.427261 240.394654 
L 677.493957 246.27497 
L 678.96127 250.475196 
L 681.962594 252.543 
L 693.034142 253.124569 
L 701.104367 253.05995 
L 702.971857 253.383045 
L 705.172828 255.063135 
L 705.97318 258.229459 
L 704.572563 265.854485 
L 699.903838 277.033548 
L 691.166652 286.53252 
L 682.36277 292.154361 
L 680.095104 294.028308 
L 679.161359 295.773017 
L 678.761182 296.677681 
L 678.361006 299.133198 
L 678.761182 301.588715 
L 680.895457 302.299522 
L 696.769122 309.019884 
L 716.244376 318.001905 
L 722.380415 321.68518 
L 732.184738 329.439443 
L 746.791178 343.849449 
L 753.527481 352.056045 
L 759.063255 360.84421 
L 760.597265 365.044436 
L 761.53101 372.73408 
L 760.997442 378.355921 
L 757.262461 391.408931 
L 754.728011 397.353866 
L 754.06105 399.098575 
L 752.860521 403.621895 
L 752.927217 406.465125 
L 754.861403 408.856023 
L 761.064138 413.5732 
L 771.468725 420.616655 
L 779.939127 425.010738 
L 790.277018 428.370919 
L 795.012439 429.146345 
L 802.349007 430.374103 
L 816.621967 431.278767 
L 829.227525 430.891054 
L 834.829996 429.534058 
L 843.433789 426.04464 
L 845.96824 425.139976 
L 846.768593 424.752263 
L 851.504014 422.61984 
L 854.438641 422.167508 
L 857.239876 422.167508 
L 860.307896 423.395266 
L 864.643141 427.337017 
L 866.910807 431.020292 
L 868.111337 435.026661 
L 868.578209 439.356125 
L 868.311425 442.199355 
L 867.177592 444.267158 
L 864.242964 446.270343 
L 860.841464 446.722675 
L 855.572475 446.4642 
L 849.503132 446.076486 
L 846.168328 445.947249 
L 842.366652 446.141105 
L 839.898897 446.851913 
L 837.231054 448.14429 
L 835.763741 449.953618 
L 835.030084 451.698327 
L 834.829996 453.184561 
L 834.829996 454.412319 
L 835.830437 459.581828 
L 837.564535 463.329722 
L 841.632995 467.98228 
L 846.435112 472.893313 
L 850.970446 476.964302 
L 854.838818 480.259864 
L 858.973974 482.844618 
L 864.176268 485.300135 
L 869.24517 486.657131 
L 873.913895 487.174082 
L 877.782267 486.915606 
L 882.784473 485.55861 
L 888.920512 482.456905 
L 902.659903 473.604121 
L 907.195236 470.24394 
L 911.863961 465.591382 
L 919.267225 456.415504 
L 921.134715 453.055323 
L 923.135598 446.334962 
L 924.869696 439.356125 
L 927.00397 432.118813 
L 928.938156 428.112443 
L 932.473048 424.8815 
L 936.141332 422.878316 
L 940.076401 422.167508 
L 943.211116 422.555221 
L 945.878959 424.041455 
L 947.346273 425.721545 
L 949.480547 430.180247 
L 949.347155 430.955673 
L 949.147067 432.82962 
L 948.946978 436.642133 
L 951.881606 449.307429 
L 957.617468 471.213223 
L 960.752184 479.807532 
L 963.820203 485.041659 
L 966.354654 487.109463 
L 970.623202 487.561795 
L 971.090075 487.561795 
L 979.427084 485.817086 
L 998.101985 480.906052 
L 1017.443846 473.797978 
L 1028.848875 469.274657 
L 1032.183679 469.016182 
L 1035.451787 469.016182 
L 1037.986237 470.179321 
L 1040.253904 472.311744 
L 1042.054698 476.124257 
L 1043.388619 485.170897 
L 1046.056462 494.928345 
L 1051.992413 512.569294 
L 1055.927481 528.271677 
L 1057.394795 534.151993 
L 1058.66202 540.807736 
L 1059.328981 552.245274 
L 1059.795854 574.474162 
L 1060.862991 583.779278 
L 1063.797618 599.740136 
L 1066.398765 610.919199 
L 1068.86652 620.805885 
L 1069.2 627.784722 
L 1068.799824 633.988132 
L 1066.532157 638.059121 
L 1061.796736 643.357867 
L 1058.862109 645.361052 
L 1055.527305 647.687331 
L 1053.126246 650.659798 
L 1051.058668 653.244553 
L 1045.856374 662.808144 
L 1036.452228 682.258421 
L 1031.383326 695.763763 
L 1030.182797 702.484124 
L 1029.382444 715.472515 
L 1028.915571 723.291397 
L 1028.448699 729.494808 
L 1025.980944 737.636784 
L 1023.046317 744.551003 
L 1018.310895 750.3667 
L 1011.908072 755.083877 
L 1007.372739 757.022443 
L 1003.370975 758.185582 
L 999.435906 759.348722 
L 993.299868 761.222669 
L 987.564005 764.130517 
L 984.029113 767.232223 
L 980.094045 772.078637 
L 978.093163 777.118908 
L 976.692545 790.688869 
L 975.892192 798.055419 
L 975.7588 799.283177 
L 974.624967 808.20058 
L 974.22479 814.662466 
L 973.424438 819.508881 
L 971.757036 825.19534 
L 968.689016 835.017407 
L 966.354654 842.319338 
L 965.821085 843.93481 
L 960.018527 859.895668 
L 955.216409 873.077916 
L 948.613498 893.174381 
L 946.079047 911.203043 
L 946.145743 920.185065 
L 948.346714 931.81646 
L 952.548566 945.96799 
L 953.815792 949.39279 
L 942.010587 953.076065 
L 941.543714 956.500865 
L 940.209793 959.796426 
L 938.342303 962.639656 
L 934.740715 968.390735 
L 931.339215 974.077195 
L 929.071548 979.828273 
L 928.137803 982.219171 
L 925.403264 986.22554 
L 923.135598 987.776393 
L 916.199206 990.425766 
L 912.330834 992.105857 
L 909.129422 992.558189 
L 902.393119 993.721328 
L 896.59056 994.884468 
L 895.456727 994.690611 
L 894.989854 994.238279 
L 895.189943 992.881283 
L 895.590119 990.942717 
L 894.923158 989.585721 
L 893.255757 988.293344 
L 882.784473 982.025314 
L 879.716453 979.828273 
L 879.516365 978.729753 
L 879.716453 977.631232 
L 880.383414 975.886523 
L 880.11663 973.689481 
L 878.24914 969.101542 
L 875.848081 963.608939 
L 873.513719 956.823959 
L 871.379444 950.685167 
L 871.44614 949.586647 
L 871.712925 948.940458 
L 873.31363 947.583462 
L 874.714248 946.808036 
L 874.714248 946.161847 
L 873.980591 945.386421 
L 850.970446 924.708385 
L 849.36974 923.739102 
L 848.235906 923.157533 
L 847.102073 923.028295 
L 845.167887 923.157533 
L 842.700132 923.222151 
L 841.499603 922.963676 
L 838.698368 921.154348 
L 833.696162 916.695647 
L 830.694839 912.818515 
L 829.694398 910.621474 
L 829.094133 908.101338 
L 828.493869 906.485867 
L 827.826908 905.645821 
L 826.959859 905.645821 
L 826.759771 885.613975 
L 826.759771 880.573704 
L 827.693516 876.438097 
L 828.160388 874.56415 
L 830.694839 867.520694 
L 836.230613 860.024906 
L 841.366211 855.372348 
L 847.102073 852.98145 
L 850.236789 852.270643 
L 851.437318 852.206024 
L 862.10869 852.141405 
L 866.977503 850.784409 
L 872.780062 847.811941 
L 877.582179 841.867006 
L 884.318483 829.395566 
L 888.120159 822.610586 
L 891.721747 812.336187 
L 895.056551 801.480219 
L 895.923599 793.532099 
L 901.926246 779.768281 
L 910.396648 761.351906 
L 911.863961 749.009704 
L 908.862638 744.486384 
L 906.128099 742.353961 
L 902.926687 742.160105 
L 883.985002 744.486384 
L 865.110013 747.458851 
L 859.640935 748.169659 
L 849.236348 751.723696 
L 844.167446 753.016073 
L 834.363123 753.403786 
L 829.82779 753.339168 
L 826.359594 753.274549 
L 821.290693 753.274549 
L 815.688222 752.305266 
L 813.287164 751.077507 
L 811.152889 749.332798 
L 808.151566 746.295712 
L 806.284076 744.551003 
L 803.082664 743.323244 
L 770.801764 738.347592 
L 766.266431 737.89526 
L 760.397177 737.89526 
L 750.592854 739.316875 
L 737.853904 741.83701 
L 735.186061 742.353961 
L 727.916189 743.323244 
L 720.179444 742.935531 
L 718.245258 742.547818 
L 708.841112 734.858173 
L 689.899427 717.992651 
L 682.296074 712.047716 
L 673.3588 706.167399 
L 669.490428 703.194932 
L 667.689634 701.773317 
L 665.55536 699.123944 
L 661.620291 691.305062 
L 657.751919 684.713938 
L 655.150772 681.159901 
L 652.149449 678.704384 
L 649.014733 677.21815 
L 643.612351 676.184248 
L 635.608822 675.408822 
L 630.940097 674.762633 
L 627.872078 673.211781 
L 614.132686 661.645005 
L 608.930393 656.992447 
L 604.928628 654.860024 
L 599.259462 653.115315 
L 577.183061 648.010425 
L 571.713983 646.394954 
L 565.044376 643.422486 
L 559.308513 639.286879 
L 548.236965 630.886427 
L 546.636259 629.852525 
L 541.70075 626.556963 
L 528.895104 618.285749 
L 525.693692 616.799516 
L 520.558094 615.377901 
L 513.888487 613.891667 
L 509.08637 612.793146 
L 505.284693 610.725343 
L 503.017027 607.752875 
L 501.082841 603.552649 
L 499.815615 601.743321 
L 497.547949 600.257087 
L 495.613763 599.093948 
L 482.874813 594.44139 
L 471.069607 589.401119 
L 452.194618 579.12672 
L 440.989678 571.695551 
L 438.521923 569.950842 
L 435.5206 567.883038 
L 433.453022 567.172231 
L 429.651345 566.590661 
L 415.64517 565.233665 
L 409.575827 562.907386 
L 407.374857 561.679628 
L 404.506925 559.030254 
L 401.905779 556.962451 
L 399.371328 556.057787 
L 378.362064 552.116036 
L 368.157565 549.208188 
L 355.085135 544.55563 
L 347.748566 542.229351 
L 345.81438 540.743117 
L 346.081165 537.70603 
L 346.681429 535.315133 
L 345.747684 532.924235 
L 344.413763 530.210243 
L 339.945126 526.39773 
L 311.132422 507.464404 
L 292.857697 495.316058 
L 282.319718 488.531078 
L 269.647464 481.61686 
L 266.446052 479.549056 
L 265.512307 478.644392 
L 265.512307 478.062822 
L 266.712836 473.281027 
L 266.979621 470.82551 
L 266.979621 467.529948 
L 266.64614 466.043714 
L 264.978738 464.299005 
L 254.173974 459.581828 
L 250.305602 457.255549 
L 246.103749 452.796848 
L 243.235818 449.178192 
L 241.568416 444.137921 
L 241.16824 439.937695 
L 240.501279 437.546797 
L 238.300309 436.319039 
L 236.366123 435.737469 
L 230.963741 435.220518 
L 227.495545 434.638948 
L 226.495104 434.057378 
L 225.227878 432.571145 
L 224.227437 430.761817 
L 223.893957 425.398451 
L 222.893516 422.684459 
L 219.025143 417.321094 
L 200.350243 400.132477 
L 192.946978 392.701308 
L 188.611734 390.181172 
L 182.542391 387.273323 
L 169.46996 384.430094 
L 145.926246 378.355921 
L 142.391354 376.869687 
L 139.523423 375.124978 
L 136.322011 372.475604 
L 127.918306 362.976632 
L 126.584385 359.357976 
L 124.583502 351.280618 
L 121.648875 345.917253 
L 112.311425 333.122718 
L 108.443052 328.340923 
L 103.907719 324.786886 
L 100.706308 323.300652 
L 96.904632 323.365271 
L 94.0367 323.688365 
L 83.898897 326.79007 
L 78.496515 327.500878 
L 75.028319 327.242402 
L 70.559682 325.174599 
L 58.621085 317.226479 
L 56.953683 317.032622 
L 55.686458 317.097241 
L 53.418791 318.001905 
L 49.350331 320.134328 
L 48.083105 320.134328 
L 46.749184 319.294282 
L 45.148478 316.903385 
L 46.082223 311.4754 
L 46.615792 308.179838 
L 46.949272 305.788941 
L 45.615351 303.656518 
L 38.879047 299.58553 
L 34.07693 296.936157 
L 27.407322 293.963689 
L 24.472695 291.895886 
L 23.20547 290.151176 
L 22.205029 285.95095 
L 22.071637 276.645835 
L 22.671901 270.313186 
L 22.338421 268.826952 
L 15.868902 260.814214 
L 13.267755 256.355512 
L 11.533657 247.955061 
L 10.8 241.040842 
L 18.003176 242.850171 
L 29.808381 245.111831 
L 39.012439 247.179634 
L 44.148037 247.373491 
L 49.750507 246.85654 
L 54.619321 245.822638 
L 59.688222 243.560978 
L 65.023908 239.683846 
L 71.826908 232.12344 
L 74.628143 230.184874 
L 76.162153 229.926398 
L 77.429378 229.86178 
L 88.43423 233.157341 
L 105.908602 238.973039 
L 113.845434 243.496359 
L 132.453639 257.970984 
L 138.122805 262.300448 
L 141.057433 264.174394 
L 143.725276 265.01444 
L 145.792854 265.208296 
L 148.927569 264.755964 
L 150.728363 264.691345 
L 154.796824 265.919104 
L 162.466873 270.700899 
L 179.67446 285.563237 
L 189.945655 296.289968 
L 197.148831 302.557998 
L 204.418703 308.63217 
L 210.554742 314.060155 
L 221.226114 325.368455 
L 226.228319 329.762538 
L 231.163829 332.670386 
L 235.499074 334.73819 
L 241.368328 336.805994 
L 247.170887 337.387563 
L 250.772475 337.322944 
L 254.374063 337.129088 
L 256.041464 336.482899 
L 258.709307 334.673571 
L 266.846228 326.337738 
L 273.048963 318.712713 
L 279.451787 310.699974 
L 281.852845 309.019884 
L 303.795854 301.071764 
L 315.40097 297.065394 
L 318.002117 295.449923 
L 319.936303 292.412836 
L 323.471195 287.372565 
L 324.938509 284.400098 
L 325.538774 280.781442 
L 318.735774 275.159601 
L 312.799824 268.568477 
L 306.597089 260.038787 
L 300.46105 249.893626 
L 297.659815 243.690216 
L 294.925276 237.616043 
L 289.256109 229.667923 
L 285.254345 221.784422 
L 284.053816 219.199668 
L 284.053816 218.48886 
L 284.65408 216.162581 
L 281.385973 213.190114 
L 270.647905 202.915715 
L 265.912483 195.936878 
L 265.579003 194.515263 
L 265.312219 193.416742 
L 266.712836 190.638131 
L 268.51363 188.958041 
L 269.847552 187.148713 
L 270.847993 183.788532 
L 270.447816 180.49297 
L 268.313542 176.228125 
L 252.106396 161.495025 
L 253.106837 160.008792 
L 255.4412 159.297984 
L 259.376268 158.716414 
L 266.446052 157.682513 
L 270.314424 157.424037 
L 285.521129 157.682513 
L 288.05558 158.328701 
L 290.123158 159.168746 
L 296.392589 163.045878 
L 300.727834 163.627448 
L 304.19603 163.562829 
L 307.397442 164.015161 
L 309.931892 165.242919 
L 315.06749 169.960096 
L 321.336921 175.129605 
L 324.271548 177.068171 
L 328.006528 178.295929 
L 329.607234 178.942118 
L 330.140803 180.234495 
L 329.00697 186.825619 
L 327.80644 200.395579 
L 327.873136 201.752575 
L 332.475165 202.334145 
L 347.548478 205.823564 
L 349.882841 206.792846 
L 352.083811 207.955986 
L 353.417733 209.119125 
L 353.884605 210.346884 
L 353.817909 216.291819 
L 353.084252 223.722988 
L 352.95086 225.532316 
L 352.817468 227.729357 
L 353.284341 229.926398 
L 354.684958 233.997387 
L 355.085135 234.514338 
L 372.359418 233.028104 
L 373.093075 224.046082 
L 374.02682 221.590565 
L 376.294486 217.196483 
L 377.094839 215.387155 
L 377.094839 214.482491 
L 377.161535 213.190114 
L 376.627966 209.636076 
L 374.3603 204.401949 
L 373.226467 200.654055 
L 372.626202 192.835173 
L 372.49281 187.407188 
L 372.359418 186.373287 
L 372.15933 184.305483 
L 371.425673 179.782163 
L 370.291839 175.452699 
L 369.024614 172.609469 
L 366.089987 168.409243 
L 365.156242 166.858391 
L 364.889457 165.695251 
L 365.489722 160.590361 
L 365.956595 156.583992 
L 366.623555 155.679328 
L 367.757389 154.903902 
L 373.960124 153.28843 
L 376.027702 152.771479 
L 377.161535 151.737577 
L 377.228231 151.02677 
L 376.694663 149.928249 
L 374.293604 147.925065 
L 373.026378 146.50345 
L 372.15933 143.983314 
L 367.357212 126.019271 
L 364.489281 114.323257 
L 364.089105 112.190835 
L 364.089105 111.221552 
L 364.689369 110.18765 
L 368.090869 108.701416 
L 374.960565 107.150564 
L 376.361182 107.150564 
L 378.228672 107.34442 
L 379.896074 108.442941 
L 381.49678 109.153748 
L 382.497221 109.541462 
L 387.032554 108.766035 
L 397.170357 105.793568 
L 399.104543 105.793568 
L 400.171681 106.052043 
L 401.572298 107.021326 
L 403.973357 110.316888 
L 406.507808 113.677069 
L 407.908425 115.163302 
L 408.708778 115.744872 
L 409.775915 116.261823 
L 411.576709 116.132585 
L 414.177856 115.486397 
L 415.64517 114.969446 
L 416.378827 114.19402 
L 416.712307 113.677069 
L 418.579797 110.639982 
L 421.381032 105.470473 
L 425.516189 96.553071 
L 425.782973 94.614505 
L 425.716277 87.50643 
L 425.983061 86.795623 
L 426.449934 86.278672 
L 427.116895 85.890959 
L 431.252051 85.115532 
L 432.052404 85.115532 
L 432.719365 85.24477 
L 433.386326 86.084815 
L 435.18712 96.359214 
L 435.85408 98.29778 
L 438.722011 102.433387 
L 446.125276 112.190835 
L 451.260873 118.523483 
L 459.13101 126.148509 
L 465.000265 131.18878 
L 476.80547 140.041564 
L 487.143361 147.408114 
L 494.013057 149.282061 
L 498.348302 149.605155 
L 503.483899 149.86363 
L 506.085046 149.152823 
L 508.952978 147.860446 
L 512.554566 145.404929 
L 515.289105 144.24179 
L 520.091222 143.014031 
L 521.358447 142.884794 
L 524.226378 142.49708 
L 530.762594 142.755556 
L 536.965329 143.530982 
L 540.967093 143.466363 
L 545.902603 142.432462 
L 550.037759 141.140084 
" clip-path="url(#p4a1daf939e)"/>
   </g>
  </g>
 </g>
 <defs>
  <clipPath id="p4a1daf939e">
   <rect x="10.8" y="85.115532" width="1058.4" height="909.768935"/>
  </clipPath>
 </defs>
</svg>
