<?xml version="1.0" encoding="utf-8" standalone="no"?>
<!DOCTYPE svg PUBLIC "-//W3C//DTD SVG 1.1//EN"
  "http://www.w3.org/Graphics/SVG/1.1/DTD/svg11.dtd">
<svg xmlns:xlink="http://www.w3.org/1999/xlink" width="1080pt" height="1080pt" viewBox="0 0 1080 1080" xmlns="http://www.w3.org/2000/svg" version="1.1">
 <metadata>
  <rdf:RDF xmlns:dc="http://purl.org/dc/elements/1.1/" xmlns:cc="http://creativecommons.org/ns#" xmlns:rdf="http://www.w3.org/1999/02/22-rdf-syntax-ns#">
   <cc:Work>
    <dc:type rdf:resource="http://purl.org/dc/dcmitype/StillImage"/>
    <dc:date>2022-07-01T13:43:27.195565</dc:date>
    <dc:format>image/svg+xml</dc:format>
    <dc:creator>
     <cc:Agent>
      <dc:title>Matplotlib v3.5.1, https://matplotlib.org/</dc:title>
     </cc:Agent>
    </dc:creator>
   </cc:Work>
  </rdf:RDF>
 </metadata>
 <defs>
  <style type="text/css">*{stroke-linejoin: round; stroke-linecap: butt}</style>
 </defs>
 <g id="figure_1">
  <g id="patch_1">
   <path d="M 0 1080 
L 1080 1080 
L 1080 0 
L 0 0 
L 0 1080 
z
" style="fill: none; opacity: 0"/>
  </g>
  <g id="axes_1">
   <g id="PatchCollection_1">
    <path d="M 790.076473 291.926495 
L 789.245654 295.297196 
L 787.272459 301.636125 
L 787.272459 304.151573 
L 787.895573 306.516095 
L 789.29758 309.031543 
L 791.426553 311.546991 
L 796.619171 316.829432 
L 798.592366 319.143645 
L 800.409782 322.916817 
L 802.694534 333.984789 
L 805.965883 345.60616 
L 810.379608 360.296378 
L 813.599031 370.307862 
L 814.533703 374.483506 
L 814.897186 378.005134 
L 813.962515 384.99808 
L 811.833541 395.864816 
L 811.885467 398.07841 
L 812.66436 402.00251 
L 814.222145 404.517958 
L 816.351119 406.882479 
L 818.480092 408.29113 
L 822.062998 408.945147 
L 823.724636 408.894838 
L 825.334348 408.743911 
L 826.995985 408.039586 
L 828.761475 406.178154 
L 832.448234 400.795095 
L 835.563805 397.525012 
L 842.781543 391.991026 
L 849.791577 388.821561 
L 855.036121 387.362601 
L 857.113168 387.312292 
L 862.773122 388.570016 
L 868.485001 391.035155 
L 874.560364 395.764198 
L 879.701056 402.153437 
L 885.828345 411.913376 
L 887.126499 416.390874 
L 887.178425 420.868372 
L 884.893674 430.427075 
L 880.843432 441.444738 
L 878.818311 446.777488 
L 878.299049 452.412092 
L 879.337573 462.524194 
L 879.389499 465.593041 
L 879.026016 470.573629 
L 878.922163 471.630117 
L 878.818311 473.240004 
L 878.870237 475.705143 
L 880.479948 481.037893 
L 882.972405 485.968172 
L 885.672566 490.44567 
L 889.463177 494.923168 
L 895.019278 500.004373 
L 904.521769 506.091758 
L 919.788065 514.342428 
L 932.302274 519.876414 
L 938.793046 523.297424 
L 945.12804 528.479247 
L 950.476436 533.007054 
L 951.51496 533.862306 
L 959.148108 543.521628 
L 962.834867 549.810248 
L 963.87339 552.526932 
L 963.87339 555.495161 
L 963.457981 558.211845 
L 962.575236 560.224204 
L 961.43286 561.632855 
L 960.34241 562.488107 
L 959.771222 562.940888 
L 957.48647 564.29923 
L 956.292168 565.104173 
L 955.409423 566.060044 
L 955.04594 566.663751 
L 954.682457 567.418386 
L 954.267047 568.525183 
L 954.163195 569.330126 
L 954.267047 570.235688 
L 955.72098 571.493412 
L 956.499873 571.946193 
L 959.044256 573.505771 
L 958.784625 574.914422 
L 956.967209 580.699952 
L 955.461349 591.214526 
L 954.422826 601.276319 
L 954.3709 602.232189 
L 953.747786 610.784713 
L 942.791362 610.835022 
L 939.727717 604.043312 
L 931.523381 587.240118 
L 922.228596 579.039757 
L 894.344238 568.927655 
L 869.419673 570.285997 
L 855.295752 572.902063 
L 840.029456 575.719365 
L 833.279053 585.982394 
L 828.761475 595.692024 
L 828.346066 610.885331 
L 828.190287 614.809431 
L 828.086435 617.677042 
L 827.87873 625.273695 
L 825.957462 640.064531 
L 822.686112 653.144862 
L 819.985951 659.936572 
L 819.570542 661.043369 
L 813.858662 675.985132 
L 812.716286 679.909231 
L 812.093172 683.380549 
L 812.093172 684.688583 
L 811.418132 685.79538 
L 809.600716 686.700941 
L 800.357856 690.071642 
L 792.724708 691.882765 
L 785.818526 694.599449 
L 767.644364 704.158152 
L 762.39982 708.031942 
L 756.68794 713.515619 
L 751.027987 723.67803 
L 746.250779 730.067269 
L 741.837054 735.903109 
L 740.071563 739.72659 
L 739.656154 742.242038 
L 739.70808 744.355015 
L 741.110087 748.933131 
L 746.406557 756.429166 
L 751.131839 763.06995 
L 770.240673 787.972887 
L 778.445009 800.44951 
L 783.481848 810.008214 
L 783.949184 813.378914 
L 784.053036 818.812283 
L 781.975989 829.729328 
L 776.731445 841.099154 
L 762.763303 860.568723 
L 754.507041 877.824698 
L 750.612578 886.276604 
L 749.314423 890.905029 
L 749.418275 895.935925 
L 755.026303 915.15395 
L 760.530478 925.567906 
L 766.865471 932.15838 
L 777.718042 942.119555 
L 779.639311 944.685312 
L 783.014513 949.16281 
L 791.166923 959.979238 
L 795.00946 967.877745 
L 803.784984 988.755965 
L 809.80842 1007.521209 
L 815.5203 1032.172602 
L 816.299193 1036.801027 
L 797.138433 1040.222036 
L 794.386346 1041.177907 
L 792.776634 1042.48594 
L 791.634258 1044.548607 
L 790.439956 1045.152315 
L 781.14517 1045.454169 
L 779.950868 1045.85664 
L 779.171975 1046.611275 
L 778.808492 1049.78074 
L 778.28923 1053.855766 
L 777.302633 1056.119669 
L 775.952552 1058.383573 
L 774.965955 1059.49037 
L 773.563948 1059.892842 
L 766.969324 1059.892842 
L 752.170363 1059.792224 
L 749.158645 1059.087898 
L 747.964342 1058.182337 
L 743.342913 1053.000513 
L 741.317792 1051.69248 
L 739.552302 1051.541553 
L 736.540583 1052.145261 
L 735.190503 1053.65453 
L 733.840422 1056.673068 
L 733.061529 1058.534499 
L 732.282637 1059.087898 
L 731.296039 1059.49037 
L 726.518831 1058.98728 
L 724.545636 1057.52832 
L 723.091703 1054.560091 
L 720.079985 1045.756022 
L 719.87228 1043.592737 
L 719.768428 1038.914003 
L 719.404945 1037.907824 
L 718.158716 1037.253807 
L 715.354703 1037.455043 
L 714.316179 1037.958133 
L 712.706468 1040.322654 
L 711.356387 1042.536249 
L 709.435118 1043.693355 
L 706.215695 1044.548607 
L 705.177172 1044.598916 
L 703.56746 1044.095827 
L 695.15542 1036.046392 
L 693.701487 1033.933416 
L 692.611037 1032.424147 
L 691.676366 1031.870748 
L 690.637842 1031.518585 
L 686.691453 1031.669512 
L 683.368177 1032.373838 
L 682.018097 1032.373838 
L 681.810392 1033.22909 
L 681.810392 1034.386196 
L 681.498835 1035.241449 
L 679.577566 1036.599791 
L 670.905894 1039.517711 
L 656.470417 1043.844282 
L 653.30292 1045.906949 
L 651.589356 1047.567145 
L 651.018168 1048.271471 
L 651.070095 1049.579504 
L 651.641282 1051.088773 
L 653.926034 1053.201749 
L 657.508941 1055.314726 
L 658.080129 1056.019051 
L 658.080129 1056.673068 
L 656.678122 1057.679247 
L 652.420175 1059.238825 
L 650.083497 1059.590988 
L 645.825551 1059.792224 
L 644.008134 1060.043768 
L 641.827235 1060.748094 
L 639.802114 1062.257363 
L 638.971295 1063.86725 
L 638.348181 1065.376519 
L 638.140476 1066.936097 
L 637.569288 1067.992585 
L 636.478839 1068.445366 
L 633.051711 1069.2 
L 631.390073 1069.2 
L 629.416878 1068.646601 
L 627.235979 1067.539804 
L 626.093603 1066.634243 
L 624.899301 1065.275901 
L 623.601146 1062.106436 
L 622.354918 1058.383573 
L 621.472173 1056.874304 
L 619.395126 1054.509782 
L 618.148898 1052.799277 
L 617.993119 1051.893716 
L 618.823938 1048.925487 
L 620.225945 1046.158494 
L 621.887583 1043.542428 
L 627.547536 1038.10906 
L 630.507328 1035.442685 
L 631.286221 1033.782489 
L 632.065113 1029.405609 
L 632.428597 1028.047267 
L 633.155563 1026.638616 
L 634.921053 1024.827493 
L 635.180684 1024.223786 
L 634.921053 1023.569769 
L 633.674825 1022.764826 
L 624.743522 1017.633311 
L 623.029958 1016.878677 
L 619.395126 1015.771879 
L 616.227629 1015.117863 
L 615.448736 1015.26879 
L 614.877549 1015.973115 
L 613.735173 1019.947524 
L 612.800501 1022.110809 
L 611.710052 1023.066679 
L 605.47891 1026.387071 
L 600.701702 1029.405609 
L 598.572729 1030.81426 
L 597.222648 1031.267041 
L 594.730192 1032.021675 
L 588.91446 1032.927236 
L 575.72521 1034.436505 
L 575.154022 1034.889286 
L 574.842465 1035.996083 
L 574.738613 1038.662458 
L 574.582834 1039.517711 
L 574.063573 1040.222036 
L 573.336606 1040.423272 
L 569.805626 1040.171727 
L 563.574485 1039.366784 
L 559.264612 1038.008442 
L 557.239491 1037.656279 
L 556.356746 1037.756897 
L 547.373517 1039.467402 
L 543.894463 1039.718947 
L 539.013403 1040.825744 
L 536.988282 1041.278525 
L 536.001684 1041.278525 
L 534.184268 1040.775435 
L 523.072066 1036.599791 
L 520.995019 1035.241449 
L 515.386992 1029.757772 
L 513.361871 1027.644795 
L 509.363555 1022.161118 
L 507.598065 1019.846906 
L 506.819172 1019.14258 
L 505.884501 1018.589181 
L 504.897904 1018.287328 
L 499.601434 1017.834547 
L 495.135782 1016.928986 
L 489.268124 1014.7657 
L 485.529439 1013.155813 
L 483.34854 1011.898089 
L 481.16764 1009.785113 
L 479.869486 1006.51503 
L 479.506003 1005.05607 
L 479.506003 1003.999582 
L 480.025265 1001.836296 
L 480.129117 1000.880426 
L 480.025265 1000.075482 
L 479.090593 998.566214 
L 473.326788 992.730374 
L 469.48425 987.749786 
L 464.862821 980.807149 
L 462.629995 976.983668 
L 460.812579 974.669455 
L 456.918115 969.487632 
L 455.308404 966.770948 
L 454.68529 963.75241 
L 454.321806 962.092214 
L 453.750619 960.733872 
L 452.088981 959.37553 
L 450.323491 958.067497 
L 449.700377 957.514098 
L 448.661853 957.262553 
L 446.221323 957.715334 
L 444.923168 957.312862 
L 435.576456 947.653541 
L 434.226376 946.446126 
L 433.655188 946.194581 
L 432.616664 946.194581 
L 430.747322 947.754159 
L 428.877979 948.860956 
L 426.385523 948.911265 
L 417.713851 946.24489 
L 413.196274 944.182223 
L 411.586562 942.823881 
L 410.703817 941.264303 
L 407.95173 935.478772 
L 406.653575 934.12043 
L 404.109192 932.108071 
L 402.343702 931.303128 
L 401.201326 931.152201 
L 398.864648 931.604981 
L 395.074037 933.717958 
L 390.608386 937.49113 
L 387.70052 939.855652 
L 386.817775 940.308432 
L 386.246587 940.006579 
L 385.675399 939.251944 
L 385.779252 938.396692 
L 388.635191 933.969503 
L 389.050601 932.309307 
L 389.310232 930.498184 
L 389.154453 928.837988 
L 387.752446 924.762962 
L 386.713923 923.102766 
L 381.988641 918.927122 
L 379.444258 916.210438 
L 376.640244 912.135412 
L 374.563197 910.223671 
L 370.876439 908.161004 
L 368.851318 907.456678 
L 365.995378 907.305751 
L 365.00878 907.35606 
L 364.385666 907.205134 
L 358.206451 902.325164 
L 347.925068 896.439015 
L 342.05741 893.219241 
L 335.151228 891.760281 
L 326.791114 891.156574 
L 323.727469 890.905029 
L 321.702348 889.446069 
L 318.898334 885.270425 
L 316.873214 882.956213 
L 314.224978 880.994163 
L 311.524817 880.692309 
L 304.878266 884.616408 
L 283.328903 888.792052 
L 277.720875 883.459302 
L 269.049204 875.560795 
L 260.325606 872.190094 
L 250.667337 873.548436 
L 247.915249 873.598745 
L 245.942055 872.995038 
L 244.695826 871.485769 
L 244.124638 869.724955 
L 244.332343 868.165377 
L 245.838202 865.800856 
L 249.94037 863.033863 
L 252.484753 861.977374 
L 259.390935 861.474285 
L 259.339008 859.612853 
L 259.598639 855.688754 
L 260.014049 853.42485 
L 261.519908 851.563419 
L 263.80466 849.450442 
L 264.116217 847.790246 
L 263.960438 846.582831 
L 263.285398 845.023253 
L 261.312203 843.061204 
L 260.429458 841.904097 
L 256.015733 839.086795 
L 254.198317 836.873201 
L 250.148075 831.037361 
L 247.447914 825.503375 
L 246.772873 822.987927 
L 246.617095 818.862592 
L 246.565169 816.397452 
L 247.603692 811.970263 
L 247.707545 810.008214 
L 246.876726 807.844928 
L 245.05931 804.574846 
L 242.047591 803.317121 
L 233.272067 799.393022 
L 226.106255 794.462744 
L 225.794698 789.431847 
L 208.399428 783.746934 
L 203.518367 782.237665 
L 199.104642 778.816656 
L 192.665796 773.634832 
L 190.277192 770.062896 
L 174.751265 765.182926 
L 168.779754 761.560681 
L 167.377747 757.787508 
L 168.520123 751.700124 
L 171.427989 744.153779 
L 174.128151 736.909288 
L 176.257124 731.425611 
L 174.855117 727.400894 
L 166.079593 721.917216 
L 174.699338 713.767164 
L 177.347574 706.019584 
L 178.905359 698.624166 
L 182.072856 690.725658 
L 182.903675 686.499705 
L 182.644044 684.235802 
L 180.359292 680.261394 
L 176.049419 673.117521 
L 173.037701 670.300219 
L 169.818278 668.086624 
L 165.923814 667.080445 
L 161.717794 665.722103 
L 158.861854 664.112216 
L 157.044438 661.948931 
L 156.940586 660.741515 
L 162.237056 656.213709 
L 170.856801 652.289609 
L 167.689304 644.994809 
L 166.754633 641.925963 
L 164.62566 632.467877 
L 164.833365 626.380492 
L 165.248774 623.814735 
L 164.989143 622.255157 
L 163.015948 620.846506 
L 157.771404 618.180131 
L 154.551981 615.31252 
L 152.26723 612.495218 
L 152.371082 607.766175 
L 155.3828 601.125392 
L 155.278948 597.553456 
L 152.578787 588.548151 
L 152.682639 587.894134 
L 153.201901 585.026523 
L 154.136572 577.379561 
L 154.188498 576.42369 
L 154.603908 568.877346 
L 155.590505 554.237437 
L 155.642431 552.074152 
L 154.551981 549.910866 
L 153.565384 548.75376 
L 145.101417 546.389239 
L 138.039457 545.483677 
L 133.366101 542.666375 
L 120.955744 533.20829 
L 117.580543 521.939082 
L 116.12661 520.379504 
L 122.409677 515.19768 
L 125.992584 514.141192 
L 131.289054 513.336249 
L 136.845155 514.191501 
L 146.866907 515.549843 
L 154.344277 515.952315 
L 160.108082 514.644282 
L 161.665868 514.292119 
L 163.794841 513.135013 
L 163.898693 512.380378 
L 161.717794 507.651336 
L 159.32919 502.419203 
L 158.758002 500.960243 
L 157.875257 499.048503 
L 157.5637 497.690161 
L 158.031035 496.482746 
L 159.277264 495.577184 
L 162.496687 495.577184 
L 167.689304 496.28151 
L 169.870204 495.728111 
L 170.233687 495.074094 
L 170.181761 489.590417 
L 170.077909 483.503033 
L 170.233687 479.478315 
L 179.943882 478.170282 
L 181.501668 478.673372 
L 183.838346 481.289438 
L 185.915393 485.062611 
L 188.148219 489.137637 
L 189.394447 492.8605 
L 189.965635 494.671623 
L 195.262105 501.11117 
L 197.598783 502.972602 
L 204.920374 507.299173 
L 206.478159 508.255043 
L 208.451354 509.009678 
L 212.03426 509.009678 
L 217.226878 507.953189 
L 225.431214 506.292994 
L 226.469738 505.286814 
L 227.24863 504.02909 
L 228.598711 501.815496 
L 230.727684 498.243559 
L 231.19502 496.029965 
L 230.883463 495.023786 
L 230.000718 492.910809 
L 227.352483 488.232075 
L 222.575274 480.132332 
L 211.670777 472.032589 
L 209.334099 468.963742 
L 208.814837 467.907254 
L 209.178321 465.794277 
L 210.320697 459.857819 
L 206.374307 454.927541 
L 206.114676 453.166727 
L 206.685864 448.236448 
L 207.464757 446.475635 
L 208.243649 444.815439 
L 211.514999 442.400608 
L 213.851677 441.293811 
L 217.901918 441.394429 
L 223.406093 441.796901 
L 227.456335 434.401483 
L 230.935389 425.597414 
L 232.28547 421.773933 
L 233.843255 420.314973 
L 238.620463 416.944272 
L 240.282101 414.931914 
L 241.164846 412.466774 
L 241.11292 408.945147 
L 240.541732 404.517958 
L 239.970544 401.851583 
L 238.620463 398.933663 
L 238.25698 395.009564 
L 245.578571 389.928358 
L 246.40939 387.563837 
L 246.669021 382.53294 
L 246.720947 379.816256 
L 244.747752 368.848902 
L 235.81645 355.013937 
L 227.196704 342.990094 
L 224.963879 338.663523 
L 222.056013 330.362544 
L 222.159865 326.539063 
L 222.211791 324.577013 
L 221.744456 321.30693 
L 218.42118 316.426961 
L 213.695898 309.081852 
L 212.813153 307.572583 
L 211.099589 302.038597 
L 206.789716 289.612283 
L 207.724388 275.223919 
L 209.697582 273.161251 
L 209.697582 272.507235 
L 209.697582 270.696112 
L 207.932092 266.570777 
L 205.439636 261.137408 
L 202.687548 256.307748 
L 198.118045 252.081795 
L 195.158253 250.220363 
L 189.498299 246.598118 
L 188.563628 244.736686 
L 188.096292 236.536325 
L 188.303997 235.479836 
L 189.290594 233.36686 
L 192.406165 229.392452 
L 194.015877 227.681947 
L 195.106326 226.927312 
L 198.845011 226.877004 
L 203.518367 226.172678 
L 210.580327 225.015572 
L 217.901918 222.801977 
L 225.690845 217.82139 
L 227.144778 216.060576 
L 226.469738 211.784314 
L 226.885147 205.294458 
L 227.456335 201.722521 
L 227.456335 199.609545 
L 226.833221 195.93699 
L 224.652322 189.950223 
L 223.45802 185.623652 
L 221.329046 177.322673 
L 220.446301 170.68189 
L 220.757858 165.34914 
L 220.082818 162.733073 
L 215.045979 155.387965 
L 218.109623 156.293526 
L 222.263717 157.249396 
L 231.19502 156.846925 
L 237.633866 157.04816 
L 237.530014 152.973134 
L 236.179933 143.313813 
L 234.726 138.886624 
L 234.933705 134.560053 
L 236.958826 132.195532 
L 241.320625 127.164635 
L 241.11292 126.812473 
L 248.642216 121.429413 
L 253.315572 118.410876 
L 257.833149 116.096663 
L 266.297116 114.78863 
L 271.749365 114.235231 
L 274.293748 113.128434 
L 277.461245 109.45588 
L 279.590218 106.789505 
L 280.421037 104.324365 
L 280.36911 101.808917 
L 280.161406 101.154901 
L 281.511486 100.70212 
L 286.184842 99.192851 
L 290.338937 96.526476 
L 292.364058 95.268752 
L 295.271924 93.558247 
L 296.777783 92.753304 
L 298.85483 91.394961 
L 299.94528 90.338473 
L 301.139582 88.728586 
L 305.397528 89.734766 
L 310.174737 95.017207 
L 312.199858 98.337599 
L 313.965348 99.494705 
L 315.886616 99.947486 
L 316.769361 99.897177 
L 318.223294 99.595323 
L 319.261818 99.192851 
L 320.871529 98.086054 
L 324.973697 95.218443 
L 327.206523 94.061337 
L 328.089268 93.558247 
L 329.28357 93.105466 
L 330.529798 92.350832 
L 333.697295 90.086928 
L 337.124423 89.785075 
L 342.940155 88.627968 
L 343.40749 86.917464 
L 343.199786 81.886567 
L 343.14786 79.220192 
L 335.514711 73.48497 
L 335.982047 72.629718 
L 340.343846 71.07014 
L 346.574987 69.158399 
L 350.88486 67.246658 
L 356.960223 64.529974 
L 359.71231 64.781519 
L 361.89321 64.379047 
L 362.516324 63.875958 
L 363.295217 61.058656 
L 363.710626 59.096606 
L 363.295217 57.838882 
L 360.854686 56.128377 
L 360.491203 54.920962 
L 361.166243 53.462002 
L 364.385666 52.506132 
L 367.657016 52.153969 
L 377.263358 52.304896 
L 383.286795 52.657059 
L 385.883104 52.908603 
L 386.765849 52.60675 
L 387.388963 52.053351 
L 387.804373 49.789448 
L 387.752446 46.670292 
L 388.012077 44.959787 
L 388.894822 43.500827 
L 390.141051 43.098355 
L 392.425802 43.601445 
L 394.50285 43.601445 
L 396.320266 42.997737 
L 399.020427 41.236924 
L 402.603333 37.111589 
L 403.953414 36.105409 
L 404.576528 36.0551 
L 405.77083 36.206027 
L 409.924924 39.425801 
L 412.83279 42.142485 
L 420.31016 49.236049 
L 423.010321 50.996863 
L 429.241463 53.763856 
L 433.966745 55.474361 
L 437.030389 55.776214 
L 438.795879 55.373743 
L 440.042108 54.417872 
L 440.769074 52.858295 
L 441.132557 51.097481 
L 441.651819 50.594391 
L 442.119155 50.342846 
L 442.534564 50.342846 
L 443.521161 50.845936 
L 448.817632 55.273125 
L 451.362014 57.084248 
L 455.048773 57.9395 
L 465.330156 60.555566 
L 469.432324 60.907729 
L 473.897976 60.85742 
L 479.557929 60.35433 
L 481.323419 60.304021 
L 483.452392 60.404639 
L 488.177674 60.807111 
L 491.449024 60.605875 
L 492.799104 55.675597 
L 492.695252 53.612929 
L 490.981688 45.110714 
L 488.489232 38.872402 
L 487.606486 37.363133 
L 485.840996 36.407263 
L 479.557929 36.004791 
L 477.117399 34.897994 
L 475.87117 32.986253 
L 475.87117 31.829147 
L 476.338506 29.716171 
L 477.896291 27.251031 
L 480.336822 25.037437 
L 481.375345 22.723225 
L 481.323419 21.163647 
L 481.063788 20.559939 
L 479.194446 17.189239 
L 476.546211 12.711741 
L 480.440674 11.001236 
L 481.998459 10.8 
L 483.608171 11.30309 
L 492.072138 13.969465 
L 494.35689 14.925335 
L 495.966601 15.730279 
L 497.212829 17.038312 
L 497.784017 19.654378 
L 497.835944 23.125696 
L 498.407132 25.087746 
L 499.445655 26.043616 
L 505.105608 28.257211 
L 512.375273 30.319878 
L 514.660025 30.772659 
L 517.30826 30.923586 
L 522.241247 30.873277 
L 525.564523 31.476985 
L 528.056979 32.583782 
L 529.978248 34.042742 
L 534.132342 38.771784 
L 536.105537 40.683525 
L 537.299839 41.337542 
L 539.065329 41.337542 
L 544.517577 39.627037 
L 552.721914 36.709117 
L 554.331625 36.658808 
L 555.88941 37.010971 
L 559.628095 38.922711 
L 559.887726 44.054226 
L 561.030102 47.22369 
L 563.262928 50.191919 
L 566.274646 52.355205 
L 567.468948 53.814165 
L 568.715176 57.134557 
L 568.559398 59.90155 
L 568.819029 60.85742 
L 569.338291 61.058656 
L 570.117183 60.958038 
L 573.076975 57.637646 
L 576.504103 54.669417 
L 578.944633 52.958912 
L 580.34664 52.60675 
L 582.060204 52.807986 
L 594.470561 53.965092 
L 596.287977 54.216637 
L 597.638057 54.719726 
L 598.313098 56.530849 
L 598.624655 60.404639 
L 599.455474 62.81947 
L 601.324816 65.183991 
L 604.180756 66.592642 
L 610.10034 66.995114 
L 611.917756 66.995114 
L 614.254434 67.196349 
L 615.81222 68.403765 
L 615.864146 69.61118 
L 615.39681 73.233425 
L 615.39681 75.195475 
L 617.525784 77.811541 
L 630.818885 85.609431 
L 633.415194 86.816846 
L 637.828919 88.175188 
L 657.24931 90.388782 
L 670.750116 91.495579 
L 673.657982 101.708299 
L 674.800358 107.04105 
L 674.800358 109.908661 
L 673.242572 113.530906 
L 669.659666 118.561802 
L 665.661351 122.988991 
L 661.403404 125.906911 
L 659.741766 126.9634 
L 658.859021 128.573286 
L 658.859021 130.032246 
L 660.312954 133.201711 
L 662.701558 137.176119 
L 666.647948 142.307634 
L 668.049955 144.219374 
L 668.880774 144.873391 
L 670.023149 145.124936 
L 676.773553 146.181424 
L 682.745063 147.036676 
L 685.341372 147.388839 
L 686.068338 147.640384 
L 686.743379 147.992547 
L 687.729976 149.049035 
L 690.274359 153.778078 
L 691.572513 156.897234 
L 692.455258 159.714536 
L 692.611037 162.179675 
L 692.662963 163.336781 
L 692.351406 164.242342 
L 691.416735 164.745432 
L 688.249238 165.449758 
L 686.743379 166.606864 
L 684.82211 168.568913 
L 683.627808 170.68189 
L 683.47203 171.084362 
L 685.445224 173.09672 
L 687.574198 176.064949 
L 688.145386 177.876072 
L 688.35309 182.001407 
L 688.664647 185.472726 
L 689.287761 188.793117 
L 690.430137 191.207948 
L 694.116896 196.792243 
L 700.607668 203.533644 
L 708.967783 210.124118 
L 716.133595 214.802852 
L 719.820354 217.167373 
L 722.05318 219.330659 
L 723.351334 221.393326 
L 723.922522 222.550433 
L 723.922522 224.11001 
L 723.247482 226.323605 
L 715.146998 234.121494 
L 713.848844 235.681072 
L 713.277656 236.636943 
L 713.173803 237.844358 
L 713.744991 240.007643 
L 715.458555 242.422474 
L 717.275971 243.529271 
L 717.795233 243.629889 
L 722.780146 244.786995 
L 733.684644 245.49132 
L 739.70808 247.201825 
L 742.875577 248.610476 
L 746.146926 250.069436 
L 748.95094 251.930868 
L 750.301021 253.741991 
L 752.378068 257.313927 
L 752.897329 259.426904 
L 752.689625 261.690807 
L 751.287618 266.570777 
L 750.768356 270.142713 
L 750.820282 274.318357 
L 751.339544 277.689058 
L 752.118437 280.606978 
L 753.57237 283.323662 
L 755.441712 285.537256 
L 759.180397 288.656412 
L 761.257444 289.310429 
L 763.957605 289.511665 
L 767.177028 288.455176 
L 776.575667 283.776443 
L 780.625908 283.223044 
L 782.962586 283.42428 
L 785.662748 284.531077 
L 788.103278 286.442818 
L 789.609137 288.404867 
L 789.920694 289.914136 
L 790.076473 291.926495 
" clip-path="url(#p8c0019b1a9)"/>
   </g>
  </g>
 </g>
 <defs>
  <clipPath id="p8c0019b1a9">
   <rect x="116.12661" y="10.8" width="847.74678" height="1058.4"/>
  </clipPath>
 </defs>
</svg>
