<?xml version="1.0" encoding="utf-8" standalone="no"?>
<!DOCTYPE svg PUBLIC "-//W3C//DTD SVG 1.1//EN"
  "http://www.w3.org/Graphics/SVG/1.1/DTD/svg11.dtd">
<svg xmlns:xlink="http://www.w3.org/1999/xlink" width="1080pt" height="1080pt" viewBox="0 0 1080 1080" xmlns="http://www.w3.org/2000/svg" version="1.1">
 <metadata>
  <rdf:RDF xmlns:dc="http://purl.org/dc/elements/1.1/" xmlns:cc="http://creativecommons.org/ns#" xmlns:rdf="http://www.w3.org/1999/02/22-rdf-syntax-ns#">
   <cc:Work>
    <dc:type rdf:resource="http://purl.org/dc/dcmitype/StillImage"/>
    <dc:date>2022-07-01T13:43:27.423278</dc:date>
    <dc:format>image/svg+xml</dc:format>
    <dc:creator>
     <cc:Agent>
      <dc:title>Matplotlib v3.5.1, https://matplotlib.org/</dc:title>
     </cc:Agent>
    </dc:creator>
   </cc:Work>
  </rdf:RDF>
 </metadata>
 <defs>
  <style type="text/css">*{stroke-linejoin: round; stroke-linecap: butt}</style>
 </defs>
 <g id="figure_1">
  <g id="patch_1">
   <path d="M 0 1080 
L 1080 1080 
L 1080 0 
L 0 0 
L 0 1080 
z
" style="fill: none; opacity: 0"/>
  </g>
  <g id="axes_1">
   <g id="PatchCollection_1">
    <path d="M 888.653245 940.710943 
L 888.357973 940.751811 
L 888.104882 940.629207 
L 887.936155 940.343131 
L 887.80961 939.239694 
L 887.429974 936.951085 
L 887.387792 936.338065 
L 887.429974 935.847648 
L 887.80961 934.662476 
L 888.400154 933.150359 
L 889.032881 932.210395 
L 889.412516 932.006055 
L 889.792152 931.88345 
L 890.171788 931.842582 
L 890.551423 931.924318 
L 892.027785 932.373867 
L 893.293237 932.905151 
L 893.715055 933.313831 
L 893.925963 933.763379 
L 893.925963 934.17206 
L 893.630691 934.744212 
L 892.787056 935.80678 
L 890.509242 938.50407 
L 888.653245 940.710943 
" clip-path="url(#p41fdbdbd3b)"/>
    <path d="M 812.768279 577.475975 
L 812.473006 577.475975 
L 812.051189 577.435107 
L 811.713735 577.353371 
L 811.376281 577.189899 
L 810.954463 576.944691 
L 810.701373 576.699483 
L 810.490464 576.454274 
L 810.321737 576.12733 
L 810.195192 575.882122 
L 810.110829 575.555178 
L 810.068647 575.187366 
L 810.068647 574.819554 
L 810.15301 574.492609 
L 810.279556 574.002193 
L 810.490464 573.675249 
L 810.659191 573.470909 
L 810.912282 573.225701 
L 811.207554 573.021361 
L 811.502826 572.857889 
L 811.924644 572.694417 
L 812.262098 572.653549 
L 812.599552 572.612681 
L 812.894824 572.653549 
L 813.190096 572.694417 
L 813.485368 572.817021 
L 813.822822 572.980493 
L 814.160276 573.225701 
L 814.455549 573.552645 
L 814.666457 573.797853 
L 814.835184 574.124797 
L 814.96173 574.574346 
L 815.003911 575.10563 
L 814.96173 575.473442 
L 814.877366 575.800386 
L 814.793003 576.045594 
L 814.624276 576.372538 
L 814.286822 576.740351 
L 813.949368 577.067295 
L 813.654095 577.230767 
L 813.401005 577.312503 
L 813.063551 577.435107 
L 812.768279 577.475975 
" clip-path="url(#p41fdbdbd3b)"/>
    <path d="M 803.783566 568.648483 
L 803.066476 568.811955 
L 802.518114 568.771087 
L 801.885387 568.403274 
L 801.083934 567.585914 
L 800.366845 565.910325 
L 800.155936 563.662584 
L 800.451208 562.191335 
L 800.74648 561.905259 
L 801.294843 561.619183 
L 802.222841 561.373975 
L 803.193022 561.292239 
L 803.783566 561.373975 
L 804.289747 561.537447 
L 804.416292 561.823523 
L 804.331929 562.232203 
L 804.753746 567.831122 
L 804.458474 568.362406 
L 803.783566 568.648483 
" clip-path="url(#p41fdbdbd3b)"/>
    <path d="M 829.472251 459.571735 
L 826.097711 459.816943 
L 823.90426 459.653471 
L 822.174809 458.713507 
L 820.951538 456.58837 
L 820.065721 452.4607 
L 819.264268 449.436466 
L 819.390813 447.433933 
L 820.487539 446.126156 
L 822.006082 445.186192 
L 823.060625 444.81838 
L 823.862079 445.063588 
L 824.958804 446.534837 
L 826.30862 447.883481 
L 828.839525 449.068654 
L 833.184245 450.580771 
L 834.534061 451.357263 
L 834.913697 452.419832 
L 834.618425 455.076253 
L 833.816971 457.323994 
L 832.593701 458.386563 
L 830.695522 459.285659 
L 829.472251 459.571735 
" clip-path="url(#p41fdbdbd3b)"/>
    <path d="M 884.645979 922.156862 
L 879.795078 917.906587 
L 873.130361 910.305136 
L 868.195097 904.174932 
L 860.771109 896.573481 
L 855.287481 899.47511 
L 847.52604 905.033161 
L 838.752236 911.081628 
L 832.003156 914.678014 
L 827.489709 915.863186 
L 825.422803 916.639679 
L 820.52972 918.519608 
L 818.758087 922.156862 
L 817.239544 925.794115 
L 813.738459 928.450537 
L 810.490464 930.126126 
L 808.254832 929.145293 
L 806.019199 926.448004 
L 797.076668 923.464638 
L 791.382132 924.527207 
L 787.923229 925.262831 
L 785.265778 927.306232 
L 781.764693 930.085258 
L 777.251246 932.619075 
L 774.003252 934.049456 
L 771.177074 934.049456 
L 757.594551 931.638242 
L 755.358919 931.147826 
L 750.634563 929.390501 
L 745.530571 928.164461 
L 742.071668 927.633176 
L 741.059306 928.246197 
L 739.034582 929.962653 
L 736.292768 933.354699 
L 734.141499 935.275496 
L 731.146595 938.422334 
L 726.253512 942.304796 
L 721.276066 946.677674 
L 716.003347 951.5001 
L 712.375717 954.892146 
L 710.51972 954.646938 
L 708.874631 954.033918 
L 706.512453 952.194857 
L 703.433186 949.374963 
L 699.215011 944.102989 
L 695.629562 940.915283 
L 692.044114 939.198826 
L 686.940122 937.931918 
L 680.106679 936.419801 
L 675.635413 936.174593 
L 672.134328 935.888516 
L 649.187457 939.32143 
L 646.445643 940.016187 
L 644.336556 941.732643 
L 642.564922 943.408232 
L 640.919834 946.187258 
L 639.401291 949.620171 
L 637.671839 953.134821 
L 635.773661 956.281659 
L 634.508208 958.488532 
L 633.495846 961.390161 
L 631.977303 964.414395 
L 630.20567 968.460329 
L 627.379493 983.29542 
L 627.379493 984.644065 
L 625.017315 986.687466 
L 621.51623 989.343888 
L 620.630413 989.589096 
L 618.268235 988.853471 
L 615.062422 986.891806 
L 610.970792 984.153649 
L 604.770075 976.225253 
L 603.040624 973.527964 
L 600.931536 971.198486 
L 597.978814 969.604634 
L 595.110455 969.48203 
L 593.085731 970.176786 
L 591.60937 971.402826 
L 591.187552 972.914943 
L 590.850098 974.181852 
L 583.299565 989.997776 
L 580.76866 993.185482 
L 577.900301 995.678431 
L 565.625412 1002.544258 
L 564.486505 1010.227446 
L 565.119231 1012.679527 
L 565.583231 1015.867233 
L 566.173775 1020.362715 
L 563.685052 1024.980802 
L 561.660328 1027.759827 
L 561.322874 1028.086771 
L 559.677786 1029.721492 
L 557.779607 1029.680624 
L 554.95343 1028.822396 
L 552.085071 1027.473751 
L 549.975984 1026.125106 
L 533.229829 1022.896533 
L 524.582571 1024.899066 
L 520.617486 1024.286045 
L 516.483675 1024.980802 
L 513.23568 1026.084238 
L 509.481505 1029.108472 
L 498.893886 1036.587319 
L 477.634284 1055.386609 
L 475.60956 1057.43001 
L 470.632114 1062.1707 
L 465.612486 1065.807954 
L 461.352129 1068.341772 
L 459.91795 1069.2 
L 460.592858 1063.192401 
L 461.60522 1059.064731 
L 461.85831 1055.672685 
L 461.141221 1052.975396 
L 455.193594 1045.169604 
L 453.717233 1040.510649 
L 452.240872 1034.911731 
L 454.054687 1026.165974 
L 457.049591 1022.038304 
L 458.568134 1018.60539 
L 458.821224 1014.47772 
L 458.863406 1009.859634 
L 454.940504 991.795969 
L 454.982685 988.894339 
L 453.717233 987.177882 
L 451.017601 986.891806 
L 448.022697 987.137014 
L 444.268521 985.665766 
L 441.779798 983.458893 
L 441.568889 980.761603 
L 441.568889 977.124349 
L 441.864161 974.181852 
L 443.340523 969.808974 
L 439.164529 961.267557 
L 433.005994 951.09142 
L 430.179817 951.622704 
L 420.478015 955.137354 
L 411.155848 959.183288 
L 403.900587 962.534466 
L 403.056952 959.878045 
L 402.086772 958.161588 
L 396.856235 957.671172 
L 386.901343 956.159055 
L 378.422811 956.608603 
L 371.673731 956.567735 
L 340.332692 952.317461 
L 337.337788 952.276593 
L 334.849065 951.29576 
L 329.365437 950.560136 
L 325.653443 948.108055 
L 319.958907 942.958684 
L 314.981461 938.790146 
L 311.016377 934.417268 
L 308.274563 929.758313 
L 306.334202 923.914186 
L 306.587293 918.560476 
L 307.852745 913.942389 
L 307.135656 910.999892 
L 305.617113 909.038227 
L 302.917481 906.586146 
L 298.446215 904.624481 
L 292.456407 902.172399 
L 276.300797 892.364074 
L 268.581537 887.214704 
L 263.857181 888.399876 
L 260.356096 889.380709 
L 257.108102 891.056298 
L 253.860107 893.017963 
L 250.612112 895.674384 
L 248.62957 895.919592 
L 245.887756 893.957927 
L 243.441215 891.505846 
L 240.952492 887.0921 
L 237.746679 879.0411 
L 231.335053 864.16514 
L 228.087058 860.24181 
L 225.851426 856.11414 
L 216.951077 839.031307 
L 209.273998 828.03781 
L 205.308914 820.19115 
L 202.103101 816.308688 
L 197.631836 812.630566 
L 177.932959 805.969079 
L 174.980237 805.723871 
L 170.213699 805.969079 
L 165.489343 808.6255 
L 160.975896 812.998378 
L 158.824627 815.164383 
L 156.546812 817.534729 
L 153.551908 816.186084 
L 151.65373 814.633099 
L 150.683549 813.080114 
L 149.418097 810.260221 
L 149.755551 807.113383 
L 152.62391 801.473596 
L 153.59409 797.100718 
L 153.636272 794.607769 
L 153.425363 792.400896 
L 151.316276 789.049718 
L 145.832648 782.919515 
L 139.12575 776.380632 
L 136.004301 774.296363 
L 130.773764 771.803413 
L 127.399224 770.332165 
L 122.632686 768.3705 
L 119.553419 767.021855 
L 119.426873 766.776647 
L 121.02978 764.079357 
L 125.163591 759.297799 
L 125.965045 758.276099 
L 135.118484 746.465241 
L 136.088664 744.707916 
L 137.43848 742.174098 
L 140.391203 736.697784 
L 141.867564 736.57518 
L 145.87483 736.207367 
L 151.738093 736.043895 
L 152.792637 735.921291 
L 154.859542 735.921291 
L 156.926448 735.921291 
L 161.102441 735.594347 
L 164.139527 734.858723 
L 166.543887 734.041362 
L 172.997694 731.630149 
L 178.565685 729.423276 
L 187.297307 726.23557 
L 195.480567 723.129601 
L 198.897288 721.862692 
L 202.524919 720.595783 
L 206.827457 719.492347 
L 207.249275 718.715855 
L 207.249275 717.653286 
L 206.911821 714.179504 
L 206.279094 709.806626 
L 205.730732 703.022535 
L 204.97146 697.178408 
L 204.170007 690.680392 
L 203.579462 685.040605 
L 202.609282 677.888702 
L 202.229646 673.107143 
L 201.807829 668.652529 
L 201.090739 661.82757 
L 200.964194 657.577296 
L 200.964194 653.98091 
L 201.934374 651.733169 
L 203.326372 649.240219 
L 204.887097 646.624666 
L 206.236913 644.376925 
L 207.291456 644.336057 
L 207.502365 639.431894 
L 209.400544 634.119052 
L 210.370724 630.767874 
L 215.263807 629.909646 
L 218.849255 629.255757 
L 220.283435 628.479265 
L 221.084888 626.272392 
L 220.831798 624.678539 
L 219.397618 623.125554 
L 214.209263 619.324828 
L 213.028174 616.177991 
L 212.901629 613.317229 
L 213.449992 610.579072 
L 214.251445 609.434767 
L 216.402714 609.026087 
L 220.620889 609.189559 
L 224.375065 609.066955 
L 227.15906 608.167859 
L 228.213604 606.328798 
L 228.508876 603.345432 
L 228.255785 600.239463 
L 228.382331 598.64561 
L 229.057239 597.337833 
L 231.039781 596.847417 
L 232.642687 596.847417 
L 233.823776 597.909985 
L 235.932864 600.770747 
L 238.084133 602.487204 
L 241.838309 603.100224 
L 245.423757 602.936752 
L 248.334298 602.119391 
L 250.021568 601.302031 
L 255.083378 597.378701 
L 261.748094 590.921554 
L 266.261541 586.712148 
L 268.370629 585.281767 
L 271.323351 583.238366 
L 278.494248 579.723716 
L 282.923332 578.334203 
L 286.508781 577.435107 
L 287.816415 577.435107 
L 289.672412 578.252467 
L 292.709498 580.704549 
L 294.228041 581.194965 
L 296.6324 580.663681 
L 297.729126 578.865488 
L 298.235307 577.435107 
L 299.458577 572.735285 
L 301.862937 566.073797 
L 308.021472 552.301274 
L 310.299287 548.45968 
L 311.480376 545.884995 
L 311.480376 544.045934 
L 309.835288 542.166005 
L 307.641837 539.836528 
L 307.093474 539.18264 
L 306.334202 538.038335 
L 305.532749 536.444482 
L 305.532749 535.136706 
L 305.78584 534.237609 
L 306.882565 533.338513 
L 308.865107 532.030736 
L 309.666561 531.662924 
L 309.624379 531.254244 
L 309.118198 525.246645 
L 309.371288 521.568523 
L 311.142922 519.157309 
L 315.867278 515.765264 
L 321.899268 511.637594 
L 323.375629 509.921137 
L 326.918896 498.968507 
L 328.985802 491.203583 
L 329.998164 484.86904 
L 330.546526 475.346791 
L 330.799617 467.786207 
L 332.107251 458.304827 
L 330.377799 449.518202 
L 328.395257 446.575705 
L 326.412715 445.104456 
L 324.430173 444.859248 
L 315.19237 441.630674 
L 312.450556 437.748212 
L 308.232381 432.108425 
L 306.418566 428.634644 
L 305.026568 426.01909 
L 301.567665 418.662847 
L 299.332032 411.837887 
L 295.113857 405.503344 
L 290.895682 400.599181 
L 277.228796 385.191938 
L 271.998259 380.287775 
L 268.750264 376.609653 
L 266.514632 373.462816 
L 265.03827 370.27511 
L 262.338638 360.752861 
L 262.085548 357.606024 
L 260.145188 346.857734 
L 260.187369 338.398054 
L 261.241913 335.292084 
L 262.001184 332.840003 
L 262.633911 329.570561 
L 262.043366 320.538729 
L 261.326276 315.430226 
L 260.356096 310.035648 
L 259.892097 305.662769 
L 260.145188 301.739439 
L 260.398278 298.469998 
L 259.47028 293.851911 
L 259.807734 291.318094 
L 259.090644 286.005251 
L 254.830287 279.83418 
L 251.202657 275.216094 
L 248.37648 272.028388 
L 245.339394 268.840683 
L 244.53794 267.410302 
L 244.116123 265.448637 
L 244.748849 262.260931 
L 246.984482 257.847185 
L 247.743753 253.596911 
L 247.954662 249.183165 
L 247.490663 246.445007 
L 244.242668 249.060561 
L 238.463769 251.594378 
L 231.714689 253.515175 
L 225.345245 254.700348 
L 219.819436 256.130728 
L 212.564175 258.419337 
L 198.095835 262.547007 
L 195.438385 263.241764 
L 190.714029 263.609576 
L 186.200582 262.71048 
L 170.804244 259.277566 
L 167.471885 258.541941 
L 164.983162 258.133261 
L 162.620984 257.397637 
L 161.482077 255.926388 
L 160.764987 253.882987 
L 151.991184 236.023662 
L 150.93664 233.612449 
L 151.063185 232.631616 
L 162.325712 200.591088 
L 163.422437 199.405916 
L 176.836234 192.989636 
L 181.729316 188.98457 
L 182.741678 185.551656 
L 183.121314 182.404819 
L 183.50095 178.358885 
L 183.75404 174.844235 
L 184.175858 171.779134 
L 185.061675 168.877504 
L 186.453672 165.567194 
L 188.942396 161.684732 
L 189.954757 159.641331 
L 193.034025 156.249286 
L 198.855106 149.914742 
L 199.361287 148.688702 
L 200.753285 148.32089 
L 203.115463 148.93391 
L 207.249275 150.650367 
L 210.876905 151.876407 
L 215.34817 153.020712 
L 218.46962 153.511128 
L 219.988163 152.775504 
L 222.223795 150.241687 
L 237.156134 137.858676 
L 239.560494 136.632636 
L 241.543036 135.651803 
L 248.039026 135.937879 
L 254.281924 136.101351 
L 260.398278 136.223956 
L 264.78518 136.387428 
L 269.172082 137.123052 
L 270.648443 138.226489 
L 272.420076 140.67857 
L 274.866618 144.315824 
L 277.228796 147.013113 
L 279.886246 147.748737 
L 283.007695 148.770438 
L 286.129145 148.893042 
L 296.37931 149.914742 
L 298.994578 149.914742 
L 301.862937 149.54693 
L 304.225115 149.219986 
L 305.996748 148.11655 
L 307.388746 147.013113 
L 308.274563 145.378392 
L 308.569835 144.6019 
L 323.502174 163.401189 
L 328.94362 172.964306 
L 331.685434 180.770098 
L 337.169061 180.52489 
L 343.918141 179.339717 
L 350.161039 178.154545 
L 355.47594 177.21458 
L 360.748658 176.029408 
L 369.185008 174.353819 
L 375.427907 175.089443 
L 393.397332 180.034474 
L 398.16387 182.731763 
L 405.123858 186.695961 
L 417.820565 195.033037 
L 421.827831 197.975535 
L 424.569644 199.691992 
L 428.32382 199.691992 
L 435.32599 199.978068 
L 444.310703 200.509352 
L 453.801596 200.795428 
L 460.550676 201.081504 
L 481.599369 192.867032 
L 490.0779 190.496687 
L 495.603709 187.840266 
L 500.117156 182.486555 
L 504.419695 176.39722 
L 511.464047 167.692331 
L 514.501133 161.848204 
L 518.508399 157.230118 
L 521.545485 153.592864 
L 529.475654 148.239154 
L 539.304001 145.82794 
L 549.301076 145.909676 
L 556.303246 145.950544 
L 556.809427 145.541864 
L 564.570869 143.539331 
L 567.692318 140.637702 
L 572.627583 136.060483 
L 573.893035 132.62757 
L 577.39412 128.009483 
L 581.949749 124.617438 
L 584.944653 123.922681 
L 589.162828 126.129554 
L 592.157732 127.600803 
L 594.435547 126.660839 
L 593.170094 103.897351 
L 594.477729 98.175828 
L 599.58172 92.045625 
L 602.871897 89.634412 
L 604.39044 88.163163 
L 600.467537 79.703483 
L 597.177361 69.44561 
L 600.256628 64.500579 
L 604.516985 65.52228 
L 609.241341 69.690818 
L 616.201329 74.104564 
L 619.702414 77.047062 
L 623.709681 77.782686 
L 626.957675 77.333138 
L 630.20567 75.657549 
L 632.483484 72.715051 
L 632.736575 69.568214 
L 633.284937 64.704919 
L 632.778757 61.517214 
L 632.778757 56.776523 
L 633.369301 45.90563 
L 633.917664 41.77796 
L 634.930026 37.159873 
L 635.689297 32.255711 
L 637.460931 28.168909 
L 643.071103 24.327315 
L 651.169999 21.916102 
L 658.383078 19.872701 
L 661.546709 18.932736 
L 666.692883 17.461487 
L 669.308151 16.112843 
L 672.682691 13.701629 
L 677.871046 10.8 
L 681.625222 10.840868 
L 684.873216 11.576492 
L 686.855758 14.764198 
L 688.58521 19.137076 
L 690.525571 23.796031 
L 708.790268 27.555888 
L 714.020805 29.80363 
L 716.003347 32.460051 
L 717.690617 34.912132 
L 716.55171 36.628589 
L 715.454984 39.08067 
L 714.906621 42.840528 
L 715.370621 46.477782 
L 716.973527 49.910696 
L 717.100072 51.831493 
L 716.467346 53.793158 
L 713.683351 58.615584 
L 710.646265 63.397143 
L 709.886993 65.481412 
L 709.844812 67.320473 
L 712.797534 73.900224 
L 717.943707 84.852854 
L 723.764789 95.642011 
L 728.826599 103.815615 
L 734.014954 110.885783 
L 739.498581 117.915082 
L 745.783662 124.535702 
L 751.689106 130.13462 
L 758.05855 135.243123 
L 762.909452 138.185621 
L 768.224352 141.128118 
L 770.797439 141.863742 
L 773.665798 141.782006 
L 777.293428 140.67857 
L 780.24615 140.351626 
L 783.958144 141.209854 
L 785.687596 142.558499 
L 786.953048 144.520164 
L 787.417048 146.114017 
L 787.417048 146.808773 
L 787.332684 147.094849 
L 786.74214 147.462661 
L 785.814141 147.380925 
L 782.059966 145.991412 
L 779.782151 145.01058 
L 778.432335 145.991412 
L 777.630882 147.258321 
L 777.251246 148.32089 
L 777.377791 149.179118 
L 778.010518 151.140783 
L 778.010518 152.203352 
L 777.715245 153.715468 
L 776.787247 155.064113 
L 775.099977 156.535362 
L 773.792343 157.516194 
L 771.514528 158.088347 
L 769.447623 158.088347 
L 768.435261 158.292687 
L 767.296353 159.150915 
L 766.199628 161.398656 
L 765.145084 164.668098 
L 764.470176 168.427956 
L 764.427995 170.144413 
L 765.102903 175.048575 
L 765.904356 180.851834 
L 766.368355 181.587458 
L 767.549444 182.568291 
L 770.122531 183.712596 
L 772.358163 184.897768 
L 773.328344 185.388184 
L 773.876706 185.878601 
L 773.876706 186.736829 
L 772.653436 187.840266 
L 771.55671 189.18891 
L 770.670893 190.128875 
L 769.86944 190.619291 
L 767.422899 190.455819 
L 765.018539 189.107174 
L 763.035997 187.799398 
L 761.137818 186.450753 
L 759.534912 184.816032 
L 759.028731 184.03954 
L 759.028731 183.426519 
L 759.324003 182.568291 
L 760.336365 181.423986 
L 761.517454 180.157078 
L 762.023635 178.808433 
L 762.192362 177.909337 
L 762.234544 176.846768 
L 761.981453 173.781667 
L 761.643999 171.738266 
L 761.053455 166.874971 
L 760.926909 164.382022 
L 760.547274 162.542961 
L 759.914547 160.7039 
L 758.860004 158.047479 
L 757.299279 155.595397 
L 756.666553 154.737169 
L 755.358919 154.042413 
L 753.123286 154.165017 
L 751.014198 154.778037 
L 749.917473 154.900641 
L 749.495655 154.859773 
L 748.905111 154.491961 
L 748.188021 153.06158 
L 747.049114 150.282555 
L 745.99457 148.280022 
L 743.969846 145.541864 
L 742.873121 144.6019 
L 741.354578 143.539331 
L 739.751671 142.967179 
L 737.937856 142.762839 
L 736.208405 142.599367 
L 735.196043 142.395027 
L 734.478953 142.027214 
L 733.972772 141.455062 
L 732.665138 139.125585 
L 731.905866 137.204788 
L 731.52623 135.774407 
L 730.851322 132.137153 
L 730.049869 129.031184 
L 729.248416 126.619971 
L 727.729873 123.432265 
L 726.675329 121.511468 
L 725.662967 120.367163 
L 723.638243 118.732443 
L 721.486974 116.93425 
L 719.799704 115.667341 
L 718.323343 113.991752 
L 716.762618 111.907483 
L 715.623711 109.578006 
L 714.906621 106.962453 
L 713.767714 103.733879 
L 712.417898 100.709646 
L 711.278991 98.012356 
L 710.51972 95.233331 
L 709.718266 92.536041 
L 709.380812 90.2883 
L 709.127722 86.528442 
L 708.874631 83.299869 
L 708.030996 79.090463 
L 707.271725 75.534945 
L 706.554635 72.837655 
L 706.301545 71.611615 
L 705.668818 71.039463 
L 704.783002 70.87599 
L 703.644095 71.448143 
L 701.745916 72.919391 
L 698.244831 76.393173 
L 697.190287 77.49661 
L 696.557561 77.946158 
L 695.882653 78.150498 
L 695.33429 78.068762 
L 694.828109 77.782686 
L 694.532837 76.801853 
L 694.406292 75.289737 
L 694.490655 73.450676 
L 695.207745 71.243803 
L 696.093561 69.282138 
L 696.30447 68.015229 
L 696.473197 66.380508 
L 695.713926 63.764955 
L 694.785927 61.312874 
L 693.815747 59.514681 
L 692.423749 58.166036 
L 690.483389 57.144335 
L 689.471027 57.021731 
L 688.796119 57.226072 
L 688.289938 57.553016 
L 687.572848 58.615584 
L 686.982304 59.964229 
L 686.602668 63.02933 
L 686.391759 70.916858 
L 686.223032 74.104564 
L 685.67467 77.660082 
L 685.379397 79.294803 
L 684.746671 80.479975 
L 683.692127 81.746884 
L 681.962676 82.809452 
L 679.980133 83.463341 
L 679.347407 83.953757 
L 678.756863 85.34327 
L 677.786682 89.2666 
L 676.563412 92.168229 
L 675.972867 93.966422 
L 676.183776 95.028991 
L 676.985229 95.519407 
L 677.997591 95.315067 
L 683.9874 92.454305 
L 686.64485 90.247432 
L 688.036847 89.348336 
L 689.260118 88.939656 
L 690.778661 89.307468 
L 692.465931 89.920488 
L 695.207745 91.882153 
L 697.232469 93.59861 
L 705.120456 102.507838 
L 707.566997 105.327732 
L 710.05572 108.719778 
L 714.062986 114.523037 
L 715.918983 117.220326 
L 717.142254 118.609839 
L 719.799704 121.102788 
L 721.993155 123.023585 
L 722.963335 124.494834 
L 724.186606 126.946915 
L 724.777151 128.867712 
L 724.988059 131.156321 
L 725.030241 135.692671 
L 724.945878 138.594301 
L 725.156786 139.820341 
L 726.590966 140.801174 
L 730.429505 143.457595 
L 731.357503 144.520164 
L 732.032411 145.787072 
L 731.99023 147.667001 
L 731.104413 151.917275 
L 730.007688 156.78057 
L 730.007688 157.516194 
L 730.682595 159.150915 
L 731.779321 160.417824 
L 733.086955 160.867372 
L 735.702224 160.989976 
L 739.372036 160.744768 
L 745.910207 160.009144 
L 749.326928 159.518727 
L 752.237469 159.273519 
L 753.587285 159.273519 
L 754.894919 159.477859 
L 756.329099 160.131748 
L 756.83528 160.90824 
L 756.919643 162.134281 
L 756.540008 162.910773 
L 755.527646 162.951641 
L 753.798194 162.379489 
L 751.984379 162.379489 
L 749.748746 162.869905 
L 746.880387 163.769001 
L 744.012028 165.158514 
L 741.818577 166.588895 
L 740.510943 168.264484 
L 739.70949 170.267017 
L 738.612764 174.108611 
L 737.136403 180.075342 
L 734.605498 186.450753 
L 733.129137 189.720195 
L 732.665138 191.395783 
L 732.749501 192.213144 
L 733.382227 193.275712 
L 734.478953 194.133941 
L 736.33495 194.828697 
L 739.076764 195.80953 
L 747.006932 197.689459 
L 751.267289 198.711159 
L 754.262193 199.73286 
L 757.510188 201.326712 
L 761.981453 204.391814 
L 765.229448 206.394347 
L 767.296353 207.538652 
L 769.363259 208.315144 
L 771.683255 208.80556 
L 774.21416 208.60122 
L 775.732703 208.19254 
L 778.811971 206.925631 
L 780.625786 205.536119 
L 782.439601 204.06487 
L 783.451963 202.797961 
L 783.662872 201.571921 
L 783.62069 200.14154 
L 783.114509 198.098139 
L 782.186511 196.381682 
L 780.161787 194.174809 
L 778.727607 192.458352 
L 778.601062 191.845332 
L 778.685426 191.273179 
L 779.402515 190.210611 
L 780.119605 189.556723 
L 781.300694 189.229778 
L 782.313056 189.515855 
L 783.958144 190.496687 
L 786.109413 192.376616 
L 788.345046 194.992169 
L 789.441772 196.708626 
L 790.158861 198.997235 
L 790.327588 201.040636 
L 790.833769 204.88223 
L 791.761768 208.846428 
L 791.888313 210.848961 
L 791.930495 211.666322 
L 791.382132 212.52455 
L 790.960315 212.72889 
L 790.158861 212.72889 
L 789.526135 212.483682 
L 789.019954 211.788926 
L 788.176319 209.091636 
L 787.459229 207.456916 
L 787.037412 206.721291 
L 786.067232 206.435215 
L 784.970506 206.721291 
L 783.62069 207.293444 
L 782.059966 208.356012 
L 780.24615 210.031601 
L 779.02288 211.461982 
L 777.757427 213.709723 
L 777.124701 215.753124 
L 776.745065 217.469581 
L 776.660702 219.104301 
L 776.702883 221.638119 
L 777.124701 223.967596 
L 778.094881 227.277906 
L 779.529061 231.037764 
L 781.385058 235.124566 
L 783.451963 239.252236 
L 785.687596 243.461642 
L 787.121775 245.872855 
L 788.977772 248.2432 
L 791.08686 250.73615 
L 793.406856 253.188231 
L 795.853397 255.354236 
L 797.667213 256.416804 
L 799.565391 257.152429 
L 803.40393 257.601977 
L 805.470836 257.397637 
L 807.579924 256.621144 
L 809.267194 255.190764 
L 809.984283 254.005591 
L 811.038827 251.308302 
L 812.009007 247.548444 
L 812.304279 246.445007 
L 812.641733 245.505043 
L 813.316641 245.096363 
L 813.822822 245.096363 
L 815.130457 246.036327 
L 817.070817 247.752784 
L 818.547178 249.183165 
L 819.601722 250.858754 
L 821.035901 254.046459 
L 822.048263 256.866353 
L 822.132627 257.683713 
L 822.090445 258.337601 
L 821.879536 258.868886 
L 821.542082 259.154962 
L 820.740629 259.40017 
L 819.55954 259.522774 
L 818.884632 259.318434 
L 817.745725 258.337601 
L 816.817727 257.315901 
L 816.269364 256.825485 
L 815.341365 256.580276 
L 814.075913 256.662013 
L 813.063551 256.866353 
L 811.798098 257.315901 
L 810.912282 258.010657 
L 809.89992 259.19583 
L 808.971921 260.707947 
L 807.875196 262.669612 
L 807.031561 264.672145 
L 806.609743 266.429469 
L 806.483198 267.941586 
L 806.609743 269.412835 
L 807.158106 271.537972 
L 808.297013 274.194393 
L 809.646829 276.278662 
L 810.827918 277.872515 
L 811.207554 278.60814 
L 811.207554 279.057688 
L 811.081009 279.670708 
L 810.617009 280.03852 
L 809.562466 280.161124 
L 808.339195 280.283728 
L 806.314471 280.610673 
L 804.83811 280.896749 
L 803.657021 281.428033 
L 802.644659 282.163657 
L 801.632297 283.430566 
L 800.957389 284.574871 
L 800.535572 286.168723 
L 800.451208 288.130388 
L 800.873026 291.971982 
L 801.083934 294.996216 
L 800.957389 296.917013 
L 800.788662 298.960414 
L 800.788662 301.289891 
L 801.041753 304.191521 
L 801.294843 305.867109 
L 801.674479 307.91051 
L 801.885387 308.973079 
L 801.927569 309.790439 
L 801.758842 310.280856 
L 801.379207 310.566932 
L 800.535572 310.771272 
L 799.52321 310.648668 
L 795.769034 309.790439 
L 794.334854 309.504363 
L 793.491219 309.545231 
L 792.310131 309.99478 
L 790.918133 310.893876 
L 790.11668 311.711236 
L 789.357408 312.896409 
L 789.019954 313.795505 
L 788.851227 314.776338 
L 788.935591 315.75717 
L 789.104318 317.473627 
L 789.146499 318.86314 
L 788.935591 319.6805 
L 788.218501 320.334389 
L 787.501411 320.456993 
L 785.771959 320.375257 
L 785.392324 320.334389 
L 784.886143 320.048313 
L 784.084689 319.353556 
L 782.987964 318.127516 
L 782.39742 317.310155 
L 781.849057 315.920643 
L 781.806875 315.307622 
L 782.017784 314.12245 
L 782.439601 313.141617 
L 783.030146 312.242521 
L 783.241055 311.670368 
L 783.114509 311.057348 
L 782.523965 310.076516 
L 781.595966 308.891343 
L 780.878877 308.114851 
L 779.99306 307.70617 
L 779.149425 307.379226 
L 777.757427 307.542698 
L 776.365429 308.114851 
L 771.894164 309.626967 
L 769.236714 310.076516 
L 756.582189 312.651201 
L 755.654191 312.651201 
L 754.979283 312.487729 
L 745.488389 298.878678 
L 744.813481 296.917013 
L 744.813481 296.017916 
L 745.488389 294.587536 
L 749.664382 289.765109 
L 751.267289 289.111221 
L 753.924739 288.866013 
L 756.708735 289.274693 
L 759.49273 290.214658 
L 760.842546 290.214658 
L 762.445452 289.846845 
L 764.470176 288.539069 
L 765.398175 286.086987 
L 766.073083 284.125322 
L 767.169808 282.899282 
L 771.219256 280.03852 
L 775.479613 277.913383 
L 777.630882 276.932551 
L 779.655606 275.134358 
L 780.96324 273.172693 
L 781.849057 271.129292 
L 781.638148 268.227662 
L 781.089785 265.857317 
L 780.288332 264.263464 
L 779.02288 262.465271 
L 776.154521 260.01319 
L 774.382887 258.664546 
L 772.822163 258.378469 
L 770.966166 258.378469 
L 769.278896 258.501073 
L 768.266534 258.337601 
L 767.127626 258.010657 
L 765.440357 256.907221 
L 764.174904 254.945556 
L 761.89709 250.981358 
L 758.860004 246.731083 
L 757.299279 244.401606 
L 755.780736 242.971226 
L 753.966921 241.540845 
L 751.646925 240.355672 
L 749.242565 239.78352 
L 745.277481 239.293104 
L 742.788757 238.720951 
L 740.173489 237.535779 
L 738.02222 236.187134 
L 736.58804 234.838489 
L 734.816407 232.304672 
L 732.454229 228.585682 
L 731.357503 227.40051 
L 729.290598 226.746621 
L 727.603328 226.746621 
L 726.295694 226.950961 
L 725.409877 227.523114 
L 724.692787 228.463078 
L 724.52406 229.852591 
L 723.933516 231.037764 
L 722.246246 232.590748 
L 720.89643 233.285505 
L 718.323343 233.694185 
L 716.720437 233.367241 
L 714.780076 233.203769 
L 713.261533 233.653317 
L 711.953899 234.756753 
L 711.700809 235.778454 
L 712.038263 238.189667 
L 712.628807 239.906124 
L 713.683351 241.459109 
L 715.750256 243.379906 
L 717.353163 244.892023 
L 718.281161 246.731083 
L 718.49207 248.202332 
L 718.323343 249.755317 
L 717.690617 251.103962 
L 716.129892 253.188231 
L 713.936441 255.435972 
L 711.785172 257.969789 
L 710.266629 260.748815 
L 708.537177 265.080825 
L 707.271725 268.391134 
L 705.626637 271.660576 
L 703.77064 275.175226 
L 705.331364 279.588972 
L 706.554635 282.408866 
L 709.929175 288.579937 
L 711.574263 291.522434 
L 713.43026 293.034551 
L 714.737894 293.688439 
L 716.509528 293.688439 
L 718.702979 292.952815 
L 720.052795 292.421531 
L 721.486974 292.421531 
L 722.921154 293.198023 
L 723.849152 294.219724 
L 724.102243 295.241424 
L 723.849152 295.772708 
L 723.005517 296.671805 
L 718.112434 300.431663 
L 717.226618 300.676871 
L 716.425164 300.431663 
L 715.201894 299.491698 
L 713.978623 298.469998 
L 713.092806 298.347394 
L 712.333535 298.756074 
L 705.837545 305.049749 
L 704.487729 306.561866 
L 703.855003 307.665302 
L 703.77064 308.768739 
L 704.614275 309.913043 
L 706.174999 310.526064 
L 708.284087 310.771272 
L 711.447718 310.81214 
L 713.219351 311.01648 
L 714.442622 311.874708 
L 715.244075 312.732937 
L 715.876802 314.163318 
L 715.918983 315.225886 
L 715.11753 318.168384 
L 714.316077 320.293521 
L 713.345897 323.562962 
L 712.755352 327.241084 
L 712.417898 328.426257 
L 711.74299 329.325353 
L 711.110264 329.693165 
L 708.621541 329.652297 
L 707.187361 329.366221 
L 705.500091 328.671465 
L 703.517549 326.832404 
L 700.522645 322.78647 
L 699.341556 321.274353 
L 698.793193 320.661333 
L 698.287012 320.334389 
L 697.359014 320.579597 
L 696.810651 321.356089 
L 696.768469 322.58213 
L 696.852833 323.072546 
L 696.937196 324.993343 
L 697.612104 328.998409 
L 698.118285 331.491358 
L 699.215011 332.921739 
L 701.324098 334.229516 
L 706.090636 337.376353 
L 707.14518 337.621562 
L 708.874631 337.703298 
L 710.730628 337.212881 
L 713.303715 336.150313 
L 715.792438 335.006008 
L 717.310981 334.270384 
L 718.829524 333.94344 
L 720.137158 333.94344 
L 722.625881 334.679064 
L 726.844056 336.640729 
L 728.700053 337.580693 
L 729.58587 338.07111 
L 730.049869 338.847602 
L 730.471687 341.504023 
L 730.851322 347.920303 
L 731.104413 350.45412 
L 731.779321 352.987937 
L 732.96041 356.175643 
L 734.183681 358.791196 
L 735.786587 360.752861 
L 738.27531 363.286679 
L 742.113849 366.433516 
L 744.265119 368.190841 
L 745.952389 369.212542 
L 747.470932 369.907298 
L 748.820747 370.356846 
L 749.580019 371.051602 
L 749.790928 371.623755 
L 749.833109 372.155039 
L 749.664382 372.808927 
L 749.11602 373.17674 
L 748.356748 373.258476 
L 747.217841 373.299344 
L 745.361844 372.972399 
L 742.915303 372.277643 
L 741.607668 371.501151 
L 740.173489 370.029902 
L 737.769129 367.455217 
L 736.250586 366.14744 
L 734.310226 365.044003 
L 732.032411 364.022303 
L 730.260778 363.531887 
L 728.573508 363.409283 
L 726.92842 363.409283 
L 725.578604 363.613623 
L 724.439697 364.022303 
L 723.722607 364.676191 
L 723.174244 365.084871 
L 722.372791 366.065704 
L 722.1197 366.637856 
L 721.571338 368.803861 
L 721.318247 370.193374 
L 720.643339 371.868963 
L 719.630977 373.626288 
L 718.49207 375.465349 
L 717.606253 376.773125 
L 716.55171 378.285242 
L 719.588796 377.958298 
L 721.782246 377.549618 
L 722.5837 376.936597 
L 723.55388 376.119237 
L 724.608424 373.953232 
L 725.747331 372.400247 
L 727.18151 370.928998 
L 729.290598 369.825562 
L 730.30296 369.66209 
L 730.893504 369.66209 
L 731.905866 370.234242 
L 733.2135 371.501151 
L 735.280406 373.258476 
L 737.431675 375.179273 
L 739.456399 376.691389 
L 741.565487 377.999166 
L 744.265119 378.693922 
L 748.061476 379.429547 
L 749.917473 379.552151 
L 750.592381 379.306943 
L 751.05638 378.73479 
L 751.942197 376.527917 
L 753.671649 372.686323 
L 755.8651 368.272577 
L 756.83528 365.616156 
L 757.425824 364.553587 
L 758.142914 364.022303 
L 759.281821 363.654491 
L 762.529816 363.123206 
L 763.499996 363.123206 
L 764.512358 363.327547 
L 767.169808 364.635323 
L 770.038167 365.166607 
L 772.315982 365.003135 
L 772.822163 364.880531 
L 775.521794 363.899699 
L 777.040337 363.286679 
L 777.715245 363.082338 
L 778.55888 363.04147 
L 779.739969 363.123206 
L 781.089785 363.204942 
L 782.186511 363.327547 
L 782.608328 363.450151 
L 782.903601 363.613623 
L 783.325418 363.858831 
L 783.662872 364.185775 
L 783.873781 364.553587 
L 784.169053 365.003135 
L 784.379962 365.779628 
L 785.181415 372.236775 
L 785.139233 372.686323 
L 784.970506 373.340212 
L 784.548689 373.78976 
L 784.000326 374.157572 
L 782.692692 374.443648 
L 781.511603 374.770592 
L 780.878877 375.179273 
L 780.71015 375.424481 
L 780.035242 376.364445 
L 779.866515 376.813993 
L 779.782151 377.794826 
L 780.077423 379.797359 
L 780.878877 382.412912 
L 781.93342 384.578917 
L 782.566147 385.518882 
L 783.114509 386.009298 
L 783.873781 386.622318 
L 786.02505 387.439679 
L 787.163957 388.052699 
L 787.627956 388.706587 
L 787.796683 389.27874 
L 788.598137 392.915994 
L 788.893409 395.449811 
L 788.851227 396.021963 
L 788.471591 396.553247 
L 787.754502 396.798455 
L 786.235959 396.92106 
L 785.223597 396.92106 
L 784.253416 396.839323 
L 783.536327 396.675851 
L 782.692692 396.185435 
L 779.908696 394.468978 
L 778.010518 393.488146 
L 775.395249 392.711653 
L 773.834525 392.711653 
L 771.978528 393.120334 
L 769.61635 395.000263 
L 768.477442 396.92106 
L 767.718171 399.250537 
L 767.085445 403.092131 
L 767.001081 408.977126 
L 767.380717 413.63608 
L 768.18217 416.455973 
L 770.713075 423.853085 
L 773.412707 430.678045 
L 776.491975 438.116024 
L 778.221426 442.488903 
L 779.655606 445.4314 
L 779.866515 446.739177 
L 779.529061 448.128689 
L 778.30579 448.864314 
L 776.955974 449.027786 
L 775.732703 448.53737 
L 774.762523 447.433933 
L 772.611254 444.450568 
L 770.83962 441.385466 
L 769.405441 437.870816 
L 768.18217 434.683111 
L 767.380717 432.476238 
L 766.199628 430.105892 
L 765.229448 428.593776 
L 764.048359 426.754715 
L 763.246906 425.855618 
L 761.939271 424.670446 
L 760.716001 423.403537 
L 759.113094 421.360136 
L 756.624371 417.314202 
L 755.907281 416.210765 
L 754.684011 415.638613 
L 753.587285 415.352537 
L 752.195287 415.475141 
L 750.80329 416.088161 
L 748.736384 417.722882 
L 747.006932 419.807151 
L 745.825843 421.850552 
L 745.446208 422.994857 
L 745.614935 424.384369 
L 746.205479 425.324334 
L 748.314566 427.612943 
L 750.845471 430.596309 
L 752.279651 432.63971 
L 753.292013 434.764847 
L 753.882557 436.399568 
L 753.924739 437.707344 
L 753.756012 438.851649 
L 752.828014 440.363766 
L 751.815652 441.181126 
L 749.833109 442.611507 
L 748.525475 443.469735 
L 747.133478 444.001019 
L 745.235299 444.205359 
L 742.282576 443.878415 
L 739.245491 443.469735 
L 736.419313 443.551471 
L 734.689862 443.714943 
L 733.972772 444.123623 
L 733.846227 444.327964 
L 734.268044 444.654908 
L 736.33495 445.758344 
L 738.528401 446.820913 
L 740.215671 447.597405 
L 741.734214 448.006085 
L 744.729118 448.128689 
L 746.796024 448.251294 
L 747.977113 448.53737 
L 748.441112 449.068654 
L 748.905111 450.008618 
L 749.284747 451.112055 
L 749.284747 451.765943 
L 749.11602 452.419832 
L 748.483293 453.237192 
L 746.585115 454.136289 
L 744.982208 454.994517 
L 743.758938 456.016217 
L 743.126211 456.751842 
L 742.830939 458.01875 
L 742.788757 460.021283 
L 742.830939 461.94208 
L 743.252757 463.903745 
L 743.548029 464.884578 
L 744.3073 465.620202 
L 745.150935 465.906278 
L 746.163297 465.742806 
L 748.947293 465.088918 
L 749.959655 465.04805 
L 750.845471 465.45673 
L 751.520379 466.478431 
L 751.942197 468.235756 
L 751.942197 469.339192 
L 751.098562 470.851309 
L 749.748746 472.404294 
L 748.989474 473.344258 
L 748.567657 474.529431 
L 748.314566 476.041548 
L 748.483293 479.515329 
L 748.736384 481.844807 
L 749.158201 483.356923 
L 750.381472 485.400324 
L 752.237469 487.402857 
L 755.14801 489.936675 
L 757.341461 492.266152 
L 759.619275 494.718233 
L 763.58436 498.968507 
L 765.693447 501.747533 
L 767.507262 504.036142 
L 768.772715 505.589127 
L 769.658531 506.283883 
L 770.755257 506.896903 
L 771.514528 506.937771 
L 771.978528 506.856035 
L 772.2738 506.324751 
L 773.159617 499.581528 
L 774.003252 494.554761 
L 775.099977 488.138482 
L 775.099977 486.994177 
L 774.889068 484.991644 
L 774.21416 482.294355 
L 773.539252 480.087482 
L 772.2738 477.22672 
L 770.333439 472.89471 
L 768.772715 469.747872 
L 766.874536 466.151487 
L 766.073083 464.680238 
L 765.566902 463.249857 
L 765.229448 462.309893 
L 764.849812 460.10302 
L 764.891994 457.691806 
L 765.313811 454.218025 
L 765.566902 452.215492 
L 765.904356 451.520735 
L 766.283991 451.275527 
L 766.874536 451.275527 
L 767.886898 451.847679 
L 768.983623 452.746776 
L 770.755257 453.972816 
L 771.978528 454.258893 
L 773.539252 454.258893 
L 774.635978 454.054552 
L 776.112339 453.523268 
L 780.288332 451.398131 
L 781.553785 450.499035 
L 782.39742 449.722542 
L 783.030146 448.905182 
L 783.536327 447.270461 
L 783.451963 445.758344 
L 782.903601 443.674075 
L 782.819237 442.080222 
L 782.861419 441.630674 
L 783.241055 441.30373 
L 783.915962 441.09939 
L 784.633052 441.426334 
L 785.476687 442.488903 
L 789.483953 447.842613 
L 792.605403 451.970283 
L 795.769034 455.280593 
L 797.245395 457.242258 
L 798.553029 459.285659 
L 800.999571 463.699405 
L 802.813386 467.704471 
L 803.825748 470.320025 
L 805.217746 473.752938 
L 806.567562 477.512796 
L 807.073743 478.943177 
L 807.158106 480.373558 
L 806.862834 481.272654 
L 806.230108 481.885675 
L 804.500656 483.029979 
L 802.560295 483.84734 
L 800.409026 484.705568 
L 797.582849 485.400324 
L 795.094126 485.849873 
L 793.955219 486.135949 
L 793.111584 486.585497 
L 792.647584 486.994177 
L 792.183585 487.852406 
L 791.888313 490.181883 
L 791.888313 492.797436 
L 792.900675 500.725832 
L 793.364674 502.973573 
L 794.039582 504.649162 
L 794.798854 505.670863 
L 795.895579 506.243015 
L 797.287577 506.774299 
L 797.920303 507.101243 
L 798.299939 507.714264 
L 798.299939 508.286416 
L 797.709394 509.185512 
L 796.950123 510.166345 
L 795.811216 510.779365 
L 792.985038 511.351517 
L 791.255587 511.92367 
L 789.863589 512.618426 
L 788.260683 513.844467 
L 786.699958 516.05134 
L 784.379962 519.402518 
L 783.114509 521.159842 
L 782.566147 522.345015 
L 782.566147 523.652792 
L 782.987964 526.840497 
L 783.873781 531.417716 
L 784.759597 534.401081 
L 786.27814 538.242675 
L 787.923229 542.329477 
L 789.947953 546.293675 
L 791.297769 548.25534 
L 793.238129 550.257873 
L 795.220671 552.056066 
L 796.106488 552.750822 
L 796.40176 553.200371 
L 796.40176 553.854259 
L 796.14867 554.222071 
L 795.051944 554.508147 
L 792.942857 554.957696 
L 791.761768 555.448112 
L 790.538497 556.51068 
L 789.062136 558.268005 
L 787.417048 561.660051 
L 785.139233 568.362406 
L 783.873781 572.367472 
L 783.283236 574.165665 
L 782.65051 576.290802 
L 782.102147 578.865488 
L 781.764693 582.257533 
L 781.68033 585.731315 
L 781.849057 589.368569 
L 782.439601 593.782315 
L 783.156691 597.174361 
L 784.126871 600.811615 
L 785.518869 604.816681 
L 787.627956 610.21126 
L 789.568317 614.625006 
L 792.225767 619.733508 
L 794.756672 623.983783 
L 797.414122 628.111453 
L 801.71666 633.873844 
L 806.061381 639.595366 
L 814.455549 650.547996 
L 817.155181 653.899174 
L 819.137723 656.187783 
L 820.27663 657.332087 
L 820.909356 658.067712 
L 821.078083 658.558128 
L 820.782811 658.966808 
L 820.023539 659.212016 
L 818.968996 659.007676 
L 817.534816 658.639864 
L 816.142819 658.51726 
L 814.96173 658.7216 
L 812.683915 659.498093 
L 810.532646 660.478925 
L 808.086105 661.950174 
L 806.272289 663.176214 
L 804.289747 664.851803 
L 801.843206 667.344752 
L 801.421388 668.734265 
L 801.505752 670.123778 
L 801.46357 673.188879 
L 800.957389 674.987072 
L 799.987209 676.417453 
L 798.80612 677.357418 
L 796.654851 678.992138 
L 794.081764 680.708595 
L 792.267949 681.8529 
L 795.68467 682.26158 
L 798.679575 682.220712 
L 801.337025 681.689428 
L 803.446112 680.872067 
L 804.585019 680.013839 
L 805.428654 678.54259 
L 806.441016 676.744397 
L 807.875196 675.314017 
L 809.857738 673.679296 
L 812.768279 672.412387 
L 815.088275 671.799367 
L 817.155181 671.145478 
L 819.686085 670.328118 
L 821.331174 670.205514 
L 822.21699 670.777666 
L 822.93408 671.676763 
L 823.355898 672.575859 
L 823.398079 672.984539 
L 823.060625 673.59756 
L 821.499901 674.128844 
L 819.896994 674.455788 
L 818.758087 674.8236 
L 817.197362 675.477489 
L 816.311546 676.090509 
L 816.142819 677.071341 
L 816.649 677.766098 
L 818.673724 678.052174 
L 821.499901 678.215646 
L 823.229352 678.501722 
L 824.62135 678.910402 
L 825.886803 679.482555 
L 826.688256 679.686895 
L 827.363164 679.523423 
L 827.574073 678.665194 
L 827.531891 676.294849 
L 827.2788 674.455788 
L 826.097711 671.349819 
L 825.33844 669.46989 
L 824.157351 667.589961 
L 822.259172 665.383087 
L 821.288992 663.911839 
L 821.078083 663.094478 
L 821.035901 662.277118 
L 821.204628 661.704966 
L 821.837355 661.337153 
L 822.554444 661.582362 
L 823.777715 662.317986 
L 825.802439 664.606595 
L 827.02571 665.996108 
L 828.459889 668.693397 
L 829.978432 673.107143 
L 832.129701 678.093042 
L 834.323152 682.833732 
L 837.444602 689.331748 
L 839.384962 692.764661 
L 843.687501 700.120905 
L 844.278045 701.101738 
L 848.369675 708.171905 
L 850.352217 711.850027 
L 854.022029 719.001931 
L 857.18566 724.927794 
L 861.192926 731.548413 
L 865.664192 737.964692 
L 871.105637 745.566144 
L 875.661266 751.124195 
L 881.397984 758.194362 
L 884.308525 762.076824 
L 885.363068 763.548073 
L 885.869249 764.488038 
L 886.037976 764.937586 
L 886.12234 765.428002 
L 886.164522 767.307931 
L 886.291067 768.77918 
L 888.400154 772.49817 
L 896.288141 782.429099 
L 903.712129 791.297459 
L 909.195756 797.550266 
L 912.106297 800.5745 
L 913.920112 802.250089 
L 916.155745 803.966546 
L 917.294652 804.90651 
L 917.71647 805.51953 
L 917.885197 806.296023 
L 917.885197 806.827307 
L 917.589924 807.276855 
L 916.535381 807.849008 
L 915.480837 807.685536 
L 914.384112 806.990779 
L 913.245204 806.009947 
L 912.232842 805.437794 
L 910.461209 805.31519 
L 908.520848 805.478662 
L 907.213214 806.132551 
L 906.200852 807.154251 
L 905.610308 807.889876 
L 905.357217 808.6255 
L 907.171033 808.135084 
L 908.605212 807.971612 
L 909.701937 808.175952 
L 910.883026 808.870708 
L 911.389207 809.688069 
L 911.473571 810.341957 
L 911.347026 811.404525 
L 914.679384 812.671434 
L 918.981922 813.856607 
L 922.77828 814.428759 
L 924.803004 814.224419 
L 926.026274 813.488795 
L 926.321546 812.95751 
L 926.321546 812.34449 
L 925.393548 810.954977 
L 922.820461 808.584632 
L 921.428464 806.582099 
L 920.036466 804.252622 
L 918.222651 802.209221 
L 912.739023 797.223322 
L 905.989944 789.744474 
L 898.650319 781.16219 
L 895.149234 776.298896 
L 890.846696 771.272129 
L 889.243789 769.269596 
L 888.821972 768.288764 
L 888.695427 767.798347 
L 888.695427 767.553139 
L 888.864154 766.899251 
L 889.201608 766.654043 
L 889.876516 766.694911 
L 890.509242 766.899251 
L 891.226331 767.307931 
L 891.901239 767.839215 
L 897.764503 775.522403 
L 903.121585 782.224759 
L 908.394303 788.39583 
L 911.600116 791.787876 
L 913.667022 793.872145 
L 916.451017 796.773774 
L 918.517923 798.817175 
L 922.272099 802.863109 
L 925.140458 806.868175 
L 926.068456 807.80814 
L 926.701182 808.21682 
L 929.653905 810.219353 
L 930.539721 811.200185 
L 931.088084 812.507962 
L 931.172448 813.488795 
L 931.088084 814.347023 
L 930.834994 815.082647 
L 930.117904 816.186084 
L 929.316451 816.88084 
L 928.725906 817.166916 
L 927.924453 817.534729 
L 927.544817 818.066013 
L 927.502635 819.046845 
L 927.629181 819.98681 
L 927.882271 820.80417 
L 929.569541 823.624064 
L 930.624085 824.890972 
L 932.775354 827.42479 
L 935.474986 830.735099 
L 938.46989 834.985373 
L 940.072797 837.069642 
L 942.055339 839.60346 
L 942.856792 840.666028 
L 943.911336 841.442521 
L 946.442241 842.913769 
L 947.792057 843.445054 
L 951.841505 844.711962 
L 955.089499 845.815399 
L 956.017498 846.387551 
L 956.481497 846.877967 
L 956.650224 847.572724 
L 956.608042 848.47182 
L 955.806589 850.351749 
L 954.245864 854.070739 
L 952.896048 858.361881 
L 952.22114 860.405282 
L 952.094595 861.508719 
L 952.22114 861.958267 
L 952.432049 862.489551 
L 953.022593 863.184308 
L 953.824047 863.429516 
L 954.709863 863.511252 
L 956.56586 863.388648 
L 958.126585 863.14344 
L 958.801493 863.184308 
L 959.392038 863.592988 
L 959.645128 864.246876 
L 959.771673 865.105105 
L 959.476401 866.535485 
L 958.885857 867.67979 
L 958.210949 868.742358 
L 957.367314 869.682323 
L 956.31277 870.458815 
L 955.722225 871.276176 
L 955.34259 871.970932 
L 955.216044 872.62482 
L 955.258226 873.278709 
L 955.426953 873.932597 
L 955.933134 874.790826 
L 957.831313 876.670754 
L 959.645128 878.550683 
L 960.151309 879.163704 
L 960.573127 880.103668 
L 960.573127 880.675821 
L 960.151309 881.493181 
L 959.518583 881.901861 
L 958.759311 882.106201 
L 957.957858 882.106201 
L 956.692406 881.779257 
L 955.637862 881.738389 
L 954.920772 881.942729 
L 953.824047 882.474013 
L 952.853866 883.046166 
L 952.263322 883.618318 
L 951.96805 884.149602 
L 951.757141 885.375643 
L 951.757141 887.214704 
L 951.883686 890.198069 
L 952.178958 891.873658 
L 952.642958 893.426643 
L 953.402229 896.042196 
L 953.866228 898.330805 
L 954.203682 901.028095 
L 954.330228 901.968059 
L 954.119319 903.275836 
L 953.824047 904.052328 
L 952.980412 904.747085 
L 952.263322 905.155765 
L 950.99787 905.400973 
L 949.394963 905.646181 
L 945.261152 906.259201 
L 941.549158 906.953958 
L 938.849526 907.689582 
L 936.698257 908.588679 
L 935.179714 909.365171 
L 933.492444 910.468608 
L 932.564445 911.367704 
L 931.383356 913.043293 
L 929.485178 915.944922 
L 928.09318 916.966623 
L 926.743364 917.620511 
L 925.731002 917.783983 
L 924.507731 917.783983 
L 923.706278 917.702247 
L 922.567371 917.497907 
L 921.09101 917.211831 
L 918.855377 916.394471 
L 918.264832 916.108394 
L 917.674288 915.413638 
L 917.589924 914.800618 
L 917.632106 914.35107 
L 917.843015 913.942389 
L 919.150649 912.471141 
L 924.381186 906.586146 
L 925.646638 905.114897 
L 926.363728 904.461009 
L 928.008816 903.275836 
L 930.581903 901.395907 
L 932.311355 900.210734 
L 933.576807 899.229902 
L 934.800078 897.799521 
L 936.06553 895.878724 
L 936.571711 894.979628 
L 937.162256 893.467511 
L 937.415346 891.464978 
L 937.626255 886.806024 
L 937.457528 883.413978 
L 937.288801 882.269673 
L 936.78262 881.656653 
L 935.938985 881.370577 
L 934.082988 880.839293 
L 932.142628 880.675821 
L 930.117904 880.716689 
L 928.388452 881.043633 
L 926.743364 881.615785 
L 925.604457 882.392277 
L 924.507731 883.536582 
L 922.187735 885.784323 
L 920.247375 888.1138 
L 918.68665 889.830257 
L 916.493199 891.260638 
L 914.088839 892.404942 
L 911.726661 893.222303 
L 909.069211 893.957927 
L 905.736853 894.693552 
L 901.56086 895.633516 
L 899.704863 896.1648 
L 898.819046 896.573481 
L 898.144138 897.063897 
L 897.806684 897.431709 
L 897.680139 897.799521 
L 897.680139 898.126465 
L 897.806684 898.739486 
L 898.270684 899.802054 
L 898.861228 901.028095 
L 899.578318 902.417608 
L 899.831408 903.39844 
L 899.87359 904.501877 
L 899.704863 905.564445 
L 898.650319 907.73045 
L 897.680139 909.079095 
L 896.625595 910.591212 
L 895.064871 912.389405 
L 891.648149 915.617978 
L 888.357973 918.928288 
L 886.206703 920.889953 
L 884.645979 922.156862 
" clip-path="url(#p41fdbdbd3b)"/>
   </g>
  </g>
 </g>
 <defs>
  <clipPath id="p41fdbdbd3b">
   <rect x="119.426873" y="10.8" width="841.146253" height="1058.4"/>
  </clipPath>
 </defs>
</svg>
