<?xml version="1.0" encoding="utf-8" standalone="no"?>
<!DOCTYPE svg PUBLIC "-//W3C//DTD SVG 1.1//EN"
  "http://www.w3.org/Graphics/SVG/1.1/DTD/svg11.dtd">
<svg xmlns:xlink="http://www.w3.org/1999/xlink" width="1080pt" height="1080pt" viewBox="0 0 1080 1080" xmlns="http://www.w3.org/2000/svg" version="1.1">
 <metadata>
  <rdf:RDF xmlns:dc="http://purl.org/dc/elements/1.1/" xmlns:cc="http://creativecommons.org/ns#" xmlns:rdf="http://www.w3.org/1999/02/22-rdf-syntax-ns#">
   <cc:Work>
    <dc:type rdf:resource="http://purl.org/dc/dcmitype/StillImage"/>
    <dc:date>2022-07-01T13:43:27.685427</dc:date>
    <dc:format>image/svg+xml</dc:format>
    <dc:creator>
     <cc:Agent>
      <dc:title>Matplotlib v3.5.1, https://matplotlib.org/</dc:title>
     </cc:Agent>
    </dc:creator>
   </cc:Work>
  </rdf:RDF>
 </metadata>
 <defs>
  <style type="text/css">*{stroke-linejoin: round; stroke-linecap: butt}</style>
 </defs>
 <g id="figure_1">
  <g id="patch_1">
   <path d="M 0 1080 
L 1080 1080 
L 1080 0 
L 0 0 
L 0 1080 
z
" style="fill: none; opacity: 0"/>
  </g>
  <g id="axes_1">
   <g id="PatchCollection_1">
    <path d="M 670.280383 260.408459 
L 669.707656 260.612892 
L 668.743062 260.379254 
L 667.688038 259.532316 
L 666.93445 258.334922 
L 666.904306 257.312757 
L 667.386603 255.823315 
L 668.652632 253.983417 
L 669.677512 251.997495 
L 670.461244 250.683281 
L 671.244976 250.24521 
L 671.998565 250.24521 
L 672.963158 250.85851 
L 673.867464 252.172723 
L 674.048325 253.925007 
L 673.656459 255.881724 
L 671.968421 258.802198 
L 670.280383 260.408459 
" clip-path="url(#pa2bf328afd)"/>
    <path d="M 690.476555 233.861353 
L 689.602392 233.919763 
L 689.150239 233.627716 
L 688.72823 233.131235 
L 688.456938 232.079864 
L 687.944498 231.145313 
L 687.432057 230.619628 
L 686.34689 229.393029 
L 686.166029 228.692115 
L 686.618182 228.049611 
L 688.366507 226.939831 
L 689.300957 226.881421 
L 689.873684 227.319493 
L 691.2 229.042572 
L 691.561722 230.765651 
L 691.62201 232.109069 
L 691.230144 233.364873 
L 690.476555 233.861353 
" clip-path="url(#pa2bf328afd)"/>
    <path d="M 719.233493 214.644637 
L 717.816746 214.90748 
L 715.586124 214.761456 
L 713.958373 214.469409 
L 713.415789 214.060542 
L 713.144498 213.505652 
L 713.265072 212.892353 
L 713.114354 211.928597 
L 712.330622 210.731202 
L 712.210048 209.738241 
L 712.662201 209.241761 
L 713.415789 208.920509 
L 717.364593 209.533808 
L 719.896651 210.439155 
L 720.439234 211.081659 
L 720.469378 212.249849 
L 720.017225 213.885314 
L 719.233493 214.644637 
" clip-path="url(#pa2bf328afd)"/>
    <path d="M 710.491866 208.161186 
L 709.828708 208.161186 
L 709.346411 208.073571 
L 707.598086 206.642539 
L 707.176077 205.737193 
L 707.387081 205.182303 
L 708.381818 204.715027 
L 709.979426 204.335365 
L 710.672727 204.393775 
L 711.637321 205.036279 
L 711.999043 206.116854 
L 711.818182 207.168225 
L 711.516746 207.6355 
L 710.491866 208.161186 
" clip-path="url(#pa2bf328afd)"/>
    <path d="M 701.056938 192.507447 
L 700.90622 193.003928 
L 700.363636 193.354384 
L 698.52488 193.646432 
L 697.409569 194.113708 
L 696.836842 194.756212 
L 696.655981 195.778377 
L 696.716268 197.326228 
L 697.439713 200.48034 
L 698.645455 203.459223 
L 699.610048 204.685822 
L 700.544498 205.182303 
L 701.659809 205.299121 
L 704.101435 205.328326 
L 704.855024 205.620374 
L 705.277033 206.262878 
L 705.186603 206.788563 
L 704.282297 207.664705 
L 701.780383 209.008123 
L 699.911483 210.088698 
L 698.555024 211.286092 
L 696.897129 213.418038 
L 694.274641 218.090796 
L 693.279904 219.872285 
L 692.22488 221.186498 
L 691.561722 221.916616 
L 691.109569 222.208664 
L 690.295694 222.179459 
L 688.095215 221.361726 
L 685.955024 221.040474 
L 684.538278 220.923655 
L 682.548804 221.186498 
L 681.674641 221.566159 
L 680.619617 222.471506 
L 679.263158 224.515838 
L 677.966986 226.881421 
L 674.590909 231.232927 
L 671.395694 234.649881 
L 670.189952 236.460575 
L 669.556938 237.774788 
L 668.592344 239.731505 
L 666.542584 243.732554 
L 664.733971 247.441556 
L 663.709091 250.420439 
L 662.955502 252.114313 
L 662.292344 253.57455 
L 661.689474 254.333873 
L 661.026316 254.771944 
L 659.7 254.947173 
L 657.409091 254.976378 
L 656.112919 255.29763 
L 653.82201 256.465819 
L 655.148325 257.400371 
L 655.811483 258.130489 
L 656.143062 259.094245 
L 655.992344 260.320844 
L 655.178469 262.131538 
L 653.279426 266.044973 
L 651.681818 270.250455 
L 650.988517 272.499219 
L 650.656938 274.514346 
L 650.385646 279.333128 
L 649.933493 284.531571 
L 649.812919 288.970691 
L 650.023923 292.504464 
L 650.92823 297.556883 
L 652.314833 303.339421 
L 654.726316 313.88233 
L 656.896651 321.855223 
L 659.609569 330.879487 
L 663.498086 342.094106 
L 665.879426 348.2271 
L 672.239713 362.04094 
L 676.339234 369.31292 
L 680.288038 375.066253 
L 683.603828 379.914239 
L 684.327273 381.374476 
L 685.593301 384.002902 
L 685.894737 385.28791 
L 685.382297 385.90121 
L 684.9 386.134848 
L 686.34689 387.770313 
L 687.221053 388.734069 
L 688.065072 389.697825 
L 688.969378 390.048282 
L 689.783254 391.041243 
L 691.350718 395.451158 
L 693.460766 404.796674 
L 694.515789 407.366691 
L 697.590431 413.207638 
L 702.443541 421.122122 
L 706.874641 426.524998 
L 709.647847 430.233999 
L 712.210048 433.534134 
L 713.204785 435.081985 
L 713.204785 435.72449 
L 712.99378 436.454608 
L 712.511483 436.629836 
L 711.757895 436.688246 
L 710.220574 436.191765 
L 708.954545 436.104151 
L 708.291388 436.337789 
L 707.326794 437.447569 
L 706.814354 438.937011 
L 706.663636 441.361004 
L 708.743541 439.696334 
L 709.768421 439.316672 
L 710.61244 439.462696 
L 711.788038 439.929972 
L 713.234928 441.390208 
L 714.832536 443.054878 
L 716.520574 444.982391 
L 717.726316 446.062966 
L 719.354067 447.31877 
L 722.519139 449.859582 
L 724.026316 450.823338 
L 725.201914 451.290614 
L 726.739234 451.903913 
L 727.884689 452.517213 
L 728.819139 453.597788 
L 729.602871 455.02882 
L 732.617225 462.125571 
L 735.390431 468.375385 
L 738.19378 473.953489 
L 740.846411 478.859885 
L 745.578947 486.803573 
L 750.070335 493.871119 
L 754.019139 499.682862 
L 756.521053 503.216635 
L 758.058373 505.377785 
L 759.866986 507.830983 
L 761.916746 511.627599 
L 764.117225 515.132167 
L 766.649282 518.578326 
L 769.723923 522.112099 
L 770.417225 522.900627 
L 776.777512 531.194772 
L 781.932057 538.116295 
L 786.453589 544.249289 
L 789.347368 547.607834 
L 790.432536 549.360118 
L 790.97512 550.907969 
L 791.186124 553.215143 
L 790.97512 554.67538 
L 792.301435 557.011759 
L 793.02488 558.209153 
L 793.748325 557.566649 
L 794.170335 557.479035 
L 794.712919 557.508239 
L 795.285646 558.00472 
L 796.973684 561.158831 
L 799.475598 565.335109 
L 802.158373 569.569795 
L 804.569856 572.694702 
L 808.699522 577.834736 
L 811.41244 581.339304 
L 815.933971 587.005023 
L 818.526316 589.983906 
L 825.399043 597.343499 
L 827.870813 600.263973 
L 834.833971 608.38289 
L 835.316268 608.966984 
L 842.460287 616.735444 
L 845.173206 619.743532 
L 851.322488 626.197779 
L 855.51244 629.935985 
L 862.174163 636.361027 
L 865.670813 639.8948 
L 872.664115 646.290637 
L 874.111005 647.926102 
L 875.829187 650.028843 
L 880.230144 654.175916 
L 883.877512 658.381398 
L 886.711005 662.03199 
L 888.670335 663.813479 
L 891.895694 666.266677 
L 896.266507 669.566812 
L 904.555981 676.167082 
L 917.698565 687.410906 
L 923.064115 692.142073 
L 926.77177 695.383799 
L 933.343062 700.903494 
L 942.68756 707.941835 
L 947.269378 711.738451 
L 950.585167 713.870397 
L 959.055502 720.091005 
L 964.149761 723.624778 
L 969.515311 727.742646 
L 975.031579 731.831309 
L 995.890909 746.959363 
L 1001.34689 751.310868 
L 1010.450239 758.787281 
L 1017.533971 764.306976 
L 1023.833971 768.716891 
L 1033.299043 776.777398 
L 1036.042105 778.850935 
L 1042.522967 783.523692 
L 1047.526794 786.707009 
L 1055.786124 791.963861 
L 1061.302392 795.760477 
L 1069.2 801.601424 
L 1061.995694 809.077836 
L 1052.651196 818.744604 
L 1051.204306 820.175636 
L 1031.249282 839.567581 
L 1029.289952 841.378275 
L 1026.999043 843.072149 
L 1020.337321 845.583757 
L 1020.156459 845.642166 
L 1019.885167 845.583757 
L 1019.704306 845.408528 
L 1019.463158 845.204095 
L 1019.22201 845.087276 
L 1018.890431 845.028867 
L 1018.588995 845.058071 
L 1018.136842 845.204095 
L 1016.750239 845.78819 
L 1013.253589 847.686498 
L 1011.56555 848.591844 
L 1009.937799 849.292758 
L 1008.912919 849.964467 
L 1007.315311 850.986633 
L 1004.783254 852.680507 
L 1003.758373 853.439831 
L 1002.040191 854.549611 
L 1001.497608 854.695634 
L 998.272249 856.418714 
L 997.789952 856.681556 
L 996.765072 857.178037 
L 995.860766 857.762132 
L 992.605263 860.6534 
L 992.303828 861.091472 
L 992.122967 861.471133 
L 992.002392 862.347275 
L 991.761244 863.106598 
L 991.369378 863.544669 
L 990.947368 863.924331 
L 989.530622 864.800473 
L 985.129665 865.472182 
L 984.40622 865.559796 
L 983.441627 865.530591 
L 982.296172 865.384568 
L 981.331579 865.326158 
L 979.97512 865.530591 
L 974.036842 866.435938 
L 972.288517 866.844805 
L 970.901914 867.341285 
L 969.605742 868.129813 
L 967.706699 869.969711 
L 966.862679 870.875058 
L 966.44067 871.605177 
L 966.410526 872.218476 
L 966.44067 872.685752 
L 966.621531 873.269846 
L 967.103828 873.883146 
L 967.435407 874.204398 
L 968.430144 874.817697 
L 970.148325 875.664635 
L 973.132536 877.475328 
L 977.443062 881.301149 
L 978.588517 882.381724 
L 979.583254 883.462299 
L 979.97512 884.163213 
L 980.186124 884.834922 
L 980.216268 885.331402 
L 980.035407 886.032316 
L 979.613397 886.704025 
L 979.161244 887.22971 
L 977.111483 889.215632 
L 975.453589 890.734279 
L 972.951675 893.245886 
L 970.751196 895.407036 
L 969.816746 896.575226 
L 969.605742 897.013297 
L 969.274163 897.714211 
L 968.761722 898.38592 
L 968.279426 899.028424 
L 966.892823 900.342637 
L 965.234928 901.306393 
L 963.004306 902.094921 
L 961.466986 902.503787 
L 960.833971 902.620606 
L 959.748804 902.591402 
L 958.543062 902.270149 
L 958.000478 901.978102 
L 957.699043 901.832078 
L 957.488038 901.627645 
L 957.337321 901.452417 
L 956.945455 900.985141 
L 956.523445 900.517865 
L 956.131579 900.342637 
L 955.528708 900.225818 
L 955.046411 900.167408 
L 954.262679 900.225818 
L 951.730622 900.430251 
L 950.977033 900.517865 
L 950.01244 900.780708 
L 949.288995 900.868322 
L 948.56555 900.751503 
L 948.113397 900.634684 
L 941.089952 898.064667 
L 940.125359 897.685006 
L 939.462201 897.305344 
L 938.407177 896.341588 
L 937.713876 895.991131 
L 937.32201 895.961926 
L 936.869856 896.020336 
L 936.116268 896.312383 
L 935.392823 896.750454 
L 931.052153 900.517865 
L 930.780861 900.751503 
L 930.6 900.985141 
L 930.328708 901.715259 
L 930.298565 902.737425 
L 930.328708 903.233906 
L 930.509569 903.788796 
L 930.690431 904.314481 
L 931.052153 905.073804 
L 931.11244 905.54108 
L 931.082297 905.920741 
L 930.961722 906.504836 
L 930.660287 907.001317 
L 930.08756 907.673026 
L 929.424402 908.432349 
L 928.64067 909.220877 
L 925.957895 911.148389 
L 925.716746 911.382027 
L 925.355024 911.761689 
L 925.174163 912.170555 
L 925.174163 912.433398 
L 925.264593 912.929878 
L 925.535885 913.747611 
L 925.807177 914.41932 
L 926.229187 914.9158 
L 926.500478 915.441485 
L 926.832057 916.726494 
L 927.465072 918.916849 
L 928.64067 922.070961 
L 928.7311 922.333803 
L 929.122967 923.355969 
L 929.484689 924.407339 
L 929.57512 925.137458 
L 929.57512 925.896781 
L 929.454545 926.276443 
L 929.15311 926.743718 
L 928.21866 927.911908 
L 927.977512 928.291569 
L 927.404785 929.196916 
L 927.163636 929.810216 
L 926.892344 930.686358 
L 926.621053 931.883752 
L 926.349761 932.759894 
L 925.837321 933.285579 
L 925.32488 933.548422 
L 924.541148 933.694446 
L 923.395694 933.986493 
L 921.948804 934.395359 
L 921.165072 934.628997 
L 920.441627 935.008659 
L 919.477033 935.738777 
L 918.51244 936.731738 
L 917.48756 937.549471 
L 916.733971 937.783109 
L 915.769378 937.783109 
L 914.503349 937.637085 
L 912.875598 937.315833 
L 912.001435 937.228219 
L 911.18756 937.403447 
L 910.614833 937.637085 
L 909.921531 938.337999 
L 909.378947 939.214141 
L 908.474641 940.645173 
L 908.263636 941.054039 
L 907.027751 945.201112 
L 907.027751 945.814411 
L 907.118182 947.216238 
L 907.540191 948.384428 
L 908.233493 949.903074 
L 908.414354 950.428759 
L 908.323923 951.304901 
L 907.992344 952.122634 
L 907.419617 952.940367 
L 906.515311 953.991737 
L 906.063158 954.312989 
L 905.068421 954.546627 
L 903.922967 954.75106 
L 902.867943 955.072312 
L 902.265072 955.568793 
L 901.782775 956.182092 
L 901.451196 956.97062 
L 901.451196 957.554715 
L 901.511483 958.021991 
L 901.57177 958.314038 
L 903.229665 964.622261 
L 903.742105 966.549774 
L 904.37512 968.681719 
L 903.169378 969.557862 
L 901.99378 970.317185 
L 900.848325 971.33935 
L 899.883732 972.565949 
L 899.61244 973.208454 
L 899.582297 974.17221 
L 899.733014 974.697895 
L 900.155024 975.720061 
L 900.848325 977.44314 
L 901.05933 978.348487 
L 901.421053 979.750314 
L 901.421053 980.276 
L 900.094737 980.889299 
L 898.376555 981.619418 
L 896.929665 982.553969 
L 896.055502 982.846016 
L 893.855024 983.254883 
L 888.037321 984.364663 
L 887.404306 984.393867 
L 886.560287 984.16023 
L 885.535407 983.926592 
L 884.932536 983.926592 
L 884.329665 984.014206 
L 883.666507 984.335458 
L 882.430622 985.182395 
L 880.802871 986.37979 
L 880.079426 986.847065 
L 879.68756 986.847065 
L 879.416268 986.817861 
L 879.144976 986.671837 
L 878.662679 986.262971 
L 878.029665 985.737285 
L 876.522488 984.685915 
L 874.080861 983.342497 
L 872.151675 982.43715 
L 870.674641 981.853055 
L 869.107177 981.531803 
L 867.17799 981.239756 
L 865.64067 981.035323 
L 864.495215 980.655661 
L 863.77177 980.159181 
L 863.1689 979.458267 
L 862.837321 978.698944 
L 862.837321 976.94666 
L 862.777033 976.654612 
L 862.264593 975.982903 
L 861.480861 975.048352 
L 860.184689 973.704934 
L 858.40622 971.923445 
L 857.592344 971.33935 
L 856.477033 970.959689 
L 855.723445 970.901279 
L 855.090431 970.872075 
L 853.673684 971.222531 
L 852.467943 971.602193 
L 851.352632 971.835831 
L 849.302871 972.069469 
L 847.855981 972.273902 
L 847.373684 971.485374 
L 846.770813 970.375594 
L 845.896651 969.411838 
L 845.323923 968.915357 
L 844.449761 968.126829 
L 843.605742 967.163073 
L 843.002871 966.316136 
L 842.550718 965.264765 
L 842.068421 964.038166 
L 841.706699 962.753158 
L 841.344976 961.877016 
L 840.983254 961.380535 
L 840.591388 961.263716 
L 840.169378 961.205307 
L 838.210048 961.176102 
L 837.426316 961.000874 
L 836.431579 960.533598 
L 835.828708 960.270755 
L 835.135407 960.825645 
L 833.176077 962.490315 
L 831.940191 963.483276 
L 831.337321 963.892143 
L 830.22201 964.417828 
L 828.322967 965.177151 
L 826.90622 965.702836 
L 825.188038 966.228522 
L 823.711005 966.666593 
L 821.811962 967.250687 
L 821.058373 967.571939 
L 820.787081 967.805577 
L 820.274641 968.272853 
L 819.912919 968.915357 
L 819.310048 970.317185 
L 818.526316 972.069469 
L 817.411005 973.996981 
L 816.717703 974.931533 
L 816.114833 975.515628 
L 815.662679 975.749266 
L 814.72823 975.83688 
L 813.28134 975.807675 
L 811.593301 975.77847 
L 809.513397 975.749266 
L 808.247368 975.720061 
L 807.49378 975.515628 
L 804.720574 974.17221 
L 803.66555 973.880162 
L 802.64067 973.821753 
L 800.982775 973.675729 
L 798.81244 973.237658 
L 796.702392 972.828792 
L 794.562201 972.273902 
L 793.205742 972.011059 
L 792.482297 972.011059 
L 792.030144 972.127878 
L 791.608134 972.390721 
L 791.186124 972.799587 
L 790.55311 973.61732 
L 789.859809 974.1138 
L 788.955502 974.347438 
L 788.262201 974.376643 
L 787.689474 974.376643 
L 787.207177 974.230619 
L 786.604306 973.967777 
L 785.820574 973.734139 
L 785.247847 973.675729 
L 783.981818 973.704934 
L 781.841627 973.850958 
L 778.555981 973.880162 
L 776.355502 973.704934 
L 775.390909 973.588115 
L 774.637321 973.208454 
L 773.913876 972.595154 
L 772.67799 971.368555 
L 771.080383 969.645476 
L 770.025359 968.389672 
L 769.603349 967.601144 
L 769.543062 966.987845 
L 769.543062 966.345341 
L 769.663636 964.885104 
L 769.754067 963.278843 
L 769.784211 962.753158 
L 769.874641 961.730992 
L 769.844498 961.351331 
L 769.723923 961.059283 
L 768.910048 960.29996 
L 767.523445 959.657456 
L 765.895694 959.131771 
L 764.9311 958.868928 
L 764.539234 958.547676 
L 764.388517 958.168014 
L 764.32823 957.729943 
L 764.41866 956.707778 
L 764.539234 955.802431 
L 764.509091 955.218336 
L 764.207656 954.517422 
L 762.610048 951.859791 
L 762.007177 950.837626 
L 760.349282 949.465003 
L 759.505263 948.559656 
L 759.233971 947.946357 
L 759.113397 947.333057 
L 759.173684 946.135663 
L 759.47512 944.967474 
L 759.746411 944.441788 
L 760.228708 943.974513 
L 760.982297 943.478032 
L 762.760766 942.6603 
L 764.448804 941.725748 
L 765.081818 941.170858 
L 765.35311 940.615968 
L 765.35311 939.88585 
L 765.232536 939.068117 
L 764.9311 938.308794 
L 764.478947 937.637085 
L 763.876077 937.082195 
L 762.911483 936.4981 
L 761.585167 935.797187 
L 760.469856 935.38832 
L 759.143541 935.154682 
L 757.726794 935.008659 
L 756.641627 935.008659 
L 755.315311 935.271501 
L 753.928708 935.475934 
L 752.210526 935.44673 
L 749.829187 935.417525 
L 748.653589 935.417525 
L 747.206699 935.534344 
L 745.669378 935.884801 
L 744.07177 936.352077 
L 742.474163 936.614919 
L 741.841148 936.585714 
L 741.419139 936.439691 
L 741.117703 936.00162 
L 740.846411 935.183887 
L 740.243541 934.220131 
L 739.7311 933.606831 
L 738.736364 932.876713 
L 737.711483 932.61387 
L 735.511005 932.205004 
L 733.611962 931.766933 
L 733.159809 931.533295 
L 732.798086 931.095224 
L 732.195215 930.248287 
L 731.743062 929.34294 
L 731.501914 929.021688 
L 731.019617 928.671231 
L 731.290909 926.597695 
L 731.984211 923.093126 
L 731.622488 921.01959 
L 730.688038 920.026629 
L 729.964593 920.026629 
L 729.030144 920.114243 
L 728.095694 920.815157 
L 727.432536 922.625851 
L 727.010526 929.255326 
L 726.769378 930.306696 
L 726.015789 930.744767 
L 722.820574 932.234209 
L 721.343541 933.490012 
L 720.288517 935.826391 
L 718.751196 939.944259 
L 716.972727 942.718709 
L 714.078947 944.763041 
L 708.743541 947.216238 
L 705.75933 948.822499 
L 703.709569 948.880908 
L 699.519617 947.975562 
L 697.379426 946.778167 
L 695.088517 944.529403 
L 692.857895 942.893937 
L 691.320574 942.368252 
L 689.361244 941.959386 
L 687.401914 941.521315 
L 684.960287 940.93722 
L 682.066507 940.469944 
L 679.745455 940.557559 
L 677.333971 940.878811 
L 675.736364 940.878811 
L 671.27512 939.418574 
L 668.863636 937.66629 
L 666.241148 935.505139 
L 665.186124 934.366154 
L 664.703828 932.438642 
L 664.492823 929.459759 
L 663.920096 928.203955 
L 663.10622 927.736679 
L 661.689474 927.61986 
L 659.790431 927.824294 
L 656.233493 928.612821 
L 651.380383 930.160672 
L 648.064593 930.9492 
L 646.406699 930.598744 
L 645.351675 929.664192 
L 644.326794 927.561451 
L 643.301914 925.809167 
L 642.457895 924.611773 
L 640.769856 923.852449 
L 639.051675 923.355969 
L 638.026794 922.655055 
L 637.845933 921.778913 
L 637.604785 915.762738 
L 637.544498 913.397154 
L 637.152632 911.557256 
L 636.730622 910.243042 
L 635.43445 906.913703 
L 634.801435 905.219828 
L 628.591866 898.590353 
L 624.79378 894.99817 
L 621.47799 891.66883 
L 619.187081 888.777561 
L 618.403349 887.171301 
L 618.403349 886.207545 
L 619.096651 884.046394 
L 621.447847 879.957731 
L 624.160766 877.533738 
L 625.909091 876.044296 
L 626.75311 874.467241 
L 628.682297 869.969711 
L 628.923445 869.414821 
L 629.375598 867.166057 
L 622.533014 859.806463 
L 621.47799 858.579864 
L 618.433493 856.652352 
L 616.202871 854.841658 
L 614.544976 852.534484 
L 610.626316 849.000711 
L 609.420574 848.475025 
L 608.968421 848.299797 
L 607.762679 848.182978 
L 605.532057 847.978545 
L 604.145455 847.511269 
L 601.462679 845.934213 
L 598.719617 844.181929 
L 596.880861 842.517259 
L 595.524402 839.713605 
L 594.529665 834.631981 
L 594.107656 832.967311 
L 593.444498 831.594688 
L 591.84689 829.667175 
L 589.164115 827.272387 
L 584.311005 824.585551 
L 583.376555 823.271338 
L 583.255981 822.336787 
L 582.864115 820.088022 
L 582.110526 817.313572 
L 581.748804 816.554249 
L 580.422488 814.977193 
L 579.488038 814.655941 
L 577.046411 814.247075 
L 576.684689 813.896618 
L 576.684689 813.546161 
L 576.805263 813.078885 
L 581.477512 808.493742 
L 582.622967 806.916686 
L 582.864115 806.186568 
L 582.773684 805.573268 
L 582.170813 805.105992 
L 578.885167 803.645756 
L 574.815789 801.104943 
L 570.927273 799.119021 
L 570.022967 798.534927 
L 568.063636 796.841052 
L 561.401914 788.955773 
L 560.85933 788.050426 
L 559.231579 784.575063 
L 557.0311 781.070494 
L 556.850239 780.632423 
L 556.669378 780.281967 
L 556.639234 780.077533 
L 556.699522 779.8731 
L 557.302392 779.172187 
L 558.146411 778.20843 
L 561.070335 775.667618 
L 561.070335 775.141933 
L 560.588038 774.791476 
L 556.51866 773.243625 
L 551.966986 770.790427 
L 550.278947 770.49838 
L 546.81244 769.534624 
L 543.165072 768.33723 
L 542.803349 767.869954 
L 542.773206 767.461087 
L 542.773206 767.16904 
L 543.315789 766.61415 
L 545.003828 764.94948 
L 545.78756 763.8397 
L 546.3 760.948431 
L 547.053589 760.364337 
L 549.284211 759.546604 
L 551.816268 759.283761 
L 553.685167 759.45899 
L 556.729665 760.130699 
L 558.116268 760.948431 
L 558.9 761.06525 
L 559.864593 761.006841 
L 560.557895 759.429785 
L 561.492344 757.356249 
L 562.276077 755.779193 
L 563.059809 754.757027 
L 565.471292 754.143728 
L 565.893301 753.676452 
L 566.013876 753.325995 
L 566.737321 749.500175 
L 566.616746 748.624033 
L 565.742584 747.514253 
L 565.019139 746.930158 
L 563.029665 746.112425 
L 559.593301 745.674354 
L 555.041627 746.287654 
L 553.655024 746.287654 
L 551.484689 745.615945 
L 547.505742 744.53537 
L 547.083732 743.717637 
L 546.902871 742.607857 
L 547.264593 741.994558 
L 548.229187 741.70251 
L 551.966986 741.20603 
L 553.53445 740.242273 
L 554.257895 739.190903 
L 554.438756 738.489989 
L 554.288038 736.76691 
L 553.594737 734.751783 
L 553.353589 734.48894 
L 553.082297 734.226098 
L 552.057416 733.700412 
L 551.213397 733.758822 
L 549.585646 734.576555 
L 548.892344 734.54735 
L 548.319617 734.372121 
L 547.596172 733.904846 
L 544.250239 730.254254 
L 545.27512 724.500921 
L 545.727273 721.960109 
L 546.330144 719.536115 
L 546.360287 718.075879 
L 546.119139 713.490735 
L 545.78756 710.307419 
L 545.425837 708.438316 
L 544.943541 704.524881 
L 544.461244 702.97703 
L 543.82823 702.100888 
L 543.40622 701.516793 
L 541.326316 701.020313 
L 538.04067 700.523832 
L 533.911005 700.290194 
L 531.017225 700.290194 
L 527.791866 700.465423 
L 522.788038 700.669856 
L 522.12488 701.137132 
L 521.944019 701.458384 
L 521.642584 702.801802 
L 521.130144 705.284204 
L 521.311005 707.299331 
L 523.210048 710.949923 
L 525.139234 715.1262 
L 525.410526 716.615642 
L 525.410526 718.484745 
L 524.415789 721.872494 
L 523.300478 724.150464 
L 521.733014 726.165591 
L 520.858852 726.924914 
L 518.567943 727.83026 
L 514.106699 730.458687 
L 511.604785 732.386199 
L 508.590431 733.057908 
L 506.600957 733.291546 
L 505.154067 733.671208 
L 504.249761 734.138483 
L 503.405742 734.985421 
L 503.194737 735.248263 
L 498.854067 735.919972 
L 498.010048 735.978382 
L 494.211962 736.182815 
L 491.438756 736.036791 
L 489.720574 735.277468 
L 484.566029 730.925963 
L 476.095694 724.354897 
L 472.749761 722.135337 
L 469.946411 719.886572 
L 468.680383 719.302478 
L 466.660766 718.659973 
L 463.766986 717.433374 
L 457.949282 713.578349 
L 456.14067 712.030498 
L 453.819617 708.876387 
L 449.870813 704.6417 
L 444.866986 700.699061 
L 442.09378 699.005186 
L 435.944498 694.974932 
L 433.261722 693.60231 
L 430.337799 691.850026 
L 426.539713 689.747285 
L 424.21866 688.871142 
L 422.530622 687.819772 
L 421.204306 686.651583 
L 420.933014 686.038283 
L 420.661722 683.526676 
L 420.81244 681.044273 
L 420.993301 680.430974 
L 421.596172 678.970737 
L 421.716746 678.299028 
L 421.415311 677.831752 
L 414.633014 671.523529 
L 413.969856 671.056253 
L 408.935885 668.13578 
L 406.795694 666.295881 
L 403.811483 664.017912 
L 401.520574 662.265628 
L 398.415789 661.155848 
L 396.366029 660.396525 
L 395.461722 659.754021 
L 391.482775 656.979571 
L 388.890431 654.81842 
L 388.408134 654.526373 
L 387.443541 654.117506 
L 385.966507 653.76705 
L 381.444976 651.722718 
L 379.154067 649.649182 
L 372.221053 641.909927 
L 359.892344 628.066882 
L 337.37512 602.83399 
L 283.327751 542.292572 
L 282.694737 541.620863 
L 222.920096 474.917246 
L 203.959809 453.773017 
L 202.000478 452.341984 
L 200.553589 452.195961 
L 199.227273 452.458803 
L 197.720096 452.488008 
L 197.267943 451.874709 
L 197.147368 451.115386 
L 197.689952 449.655149 
L 199.257416 446.822289 
L 199.679426 443.98943 
L 198.77512 442.529193 
L 197.870813 442.295555 
L 196.544498 442.733626 
L 194.344019 445.916943 
L 192.56555 447.640022 
L 191.058373 447.844455 
L 187.471292 446.76388 
L 185.059809 445.420462 
L 183.070335 443.288516 
L 182.135885 441.390208 
L 181.291866 435.432442 
L 180.598565 429.445471 
L 179.483254 426.203746 
L 178.669378 425.794879 
L 177.07177 426.408179 
L 175.323445 427.868416 
L 172.791388 432.365945 
L 171.374641 434.089024 
L 170.651196 434.264253 
L 169.505742 433.767772 
L 166.4311 431.051732 
L 163.989474 428.072849 
L 163.266029 426.875455 
L 162.150718 423.137248 
L 161.246411 422.377925 
L 160.522967 422.290311 
L 158.744498 423.341681 
L 157.599043 423.867367 
L 156.875598 423.51691 
L 155.880861 422.523949 
L 153.800957 417.997215 
L 151.2689 414.521851 
L 150.002871 413.937756 
L 146.867943 414.288213 
L 145.270335 413.966961 
L 143.642584 412.711158 
L 141.683254 411.601378 
L 139.000478 411.396944 
L 134.900957 411.075692 
L 133.092344 411.455354 
L 127.09378 416.887435 
L 125.315311 416.91664 
L 120.763636 416.011293 
L 119.7689 415.018332 
L 118.41244 405.26395 
L 116.061244 387.653494 
L 114.49378 375.533528 
L 114.041627 374.511363 
L 113.227751 374.336134 
L 112.082297 374.774205 
L 109.489952 376.176033 
L 107.621053 376.526489 
L 106.023445 376.117623 
L 104.305263 375.037048 
L 103.220096 372.817488 
L 102.556938 368.553596 
L 102.587081 364.172886 
L 103.642105 361.690483 
L 104.486124 359.792176 
L 104.486124 358.419553 
L 103.85311 357.222159 
L 102.587081 356.638064 
L 100.085167 355.119418 
L 97.824402 353.279519 
L 96.347368 350.388251 
L 95.08134 348.431533 
L 93.21244 347.584596 
L 92.127273 347.584596 
L 90.529665 348.635966 
L 89.384211 348.665171 
L 86.038278 347.146525 
L 83.536364 345.715493 
L 79.647847 342.18172 
L 76.030622 337.596576 
L 73.076555 330.178573 
L 71.539234 326.936847 
L 70.182775 325.242973 
L 64.787081 321.796814 
L 62.797608 319.664868 
L 62.315311 317.795765 
L 62.466029 315.722229 
L 68.193301 301.382703 
L 69.067464 299.57201 
L 69.218182 297.527678 
L 68.374163 292.91333 
L 68.163158 289.58399 
L 67.530144 288.795462 
L 66.354545 288.561824 
L 64.576077 288.503415 
L 63.490909 287.481249 
L 62.013876 284.239523 
L 61.62201 281.611097 
L 61.169856 279.888018 
L 59.542105 278.106529 
L 55.291866 275.332079 
L 52.51866 272.966495 
L 51.614354 272.3824 
L 50.167464 272.732857 
L 48.238278 273.433771 
L 46.700957 273.55059 
L 44.379904 272.966495 
L 39.888517 270.279659 
L 37.477033 269.870793 
L 36.120574 270.22125 
L 34.97512 270.834549 
L 34.251675 270.513297 
L 33.889952 269.987612 
L 33.437799 268.907037 
L 32.322488 265.490083 
L 31.689474 264.380303 
L 23.460287 257.45878 
L 21.01866 254.917968 
L 19.511483 254.421488 
L 16.195694 253.428527 
L 13.934928 250.449644 
L 11.342584 245.2512 
L 10.8 242.710388 
L 11.041148 241.162537 
L 11.73445 239.935939 
L 12.879904 238.65093 
L 16.617703 235.788866 
L 17.491866 234.82511 
L 17.913876 233.364873 
L 18.486603 229.77269 
L 19.632057 226.939831 
L 21.892823 223.143215 
L 22.46555 219.200576 
L 22.405263 214.060542 
L 22.525837 207.226634 
L 22.857416 206.02924 
L 23.460287 205.240712 
L 25.329187 204.043318 
L 25.78134 203.167176 
L 25.841627 200.860002 
L 26.263636 198.786465 
L 28.102392 196.888157 
L 31.478469 194.727007 
L 34.673684 193.412794 
L 35.06555 193.062337 
L 36.964593 191.368462 
L 37.416746 190.112659 
L 37.296172 179.511339 
L 37.899043 171.363218 
L 37.808612 169.406501 
L 39.91866 167.712626 
L 42.81244 167.420579 
L 46.580383 167.186941 
L 49.202871 167.128531 
L 50.649761 167.099327 
L 54.538278 167.128531 
L 56.588038 167.186941 
L 57.79378 167.24535 
L 61.983732 167.391374 
L 65.088517 167.420579 
L 70.333493 167.566602 
L 72.35311 167.595807 
L 74.553589 167.654217 
L 79.135407 167.771036 
L 84.259809 167.85865 
L 84.95311 167.829445 
L 85.314833 167.80024 
L 85.555981 167.712626 
L 85.736842 167.566602 
L 88.932057 164.821357 
L 90.8311 163.273506 
L 91.042105 162.981459 
L 91.132536 162.660207 
L 90.74067 161.375198 
L 91.011962 160.207009 
L 92.097129 159.009615 
L 92.579426 158.688363 
L 93.72488 158.483929 
L 94.65933 158.337906 
L 95.623923 158.016654 
L 96.045933 157.783016 
L 96.437799 157.490968 
L 96.829665 157.228126 
L 97.402392 156.118346 
L 97.402392 155.534251 
L 97.100957 153.781967 
L 96.889952 151.533202 
L 96.558373 150.248194 
L 96.256938 147.853405 
L 96.10622 146.714421 
L 96.196651 146.101121 
L 96.347368 145.867483 
L 97.402392 144.845318 
L 98.216268 144.173609 
L 98.969856 143.5019 
L 101.682775 140.260174 
L 102.496651 139.179599 
L 103.009091 138.099024 
L 103.461244 137.076858 
L 103.913397 136.28833 
L 104.666986 135.704235 
L 105.330144 135.295369 
L 105.782297 135.003322 
L 107.199043 134.536046 
L 108.947368 134.156384 
L 110.635407 133.776723 
L 111.328708 133.776723 
L 119.105742 136.200716 
L 119.829187 136.521968 
L 120.703349 137.3397 
L 121.215789 138.011409 
L 122.029665 139.384032 
L 122.662679 140.406198 
L 123.838278 141.515978 
L 124.531579 141.866435 
L 127.60622 142.8886 
L 130.319139 143.209852 
L 131.705742 143.268262 
L 133.001914 143.472695 
L 133.755502 143.706333 
L 134.84067 144.290428 
L 137.252153 146.509988 
L 138.548325 147.707382 
L 139.663636 148.583524 
L 140.447368 148.846366 
L 140.778947 148.846366 
L 141.14067 148.787957 
L 141.502392 148.525114 
L 143.763158 146.626807 
L 146.566507 143.910766 
L 147.711962 143.122238 
L 148.164115 142.8886 
L 148.797129 142.742577 
L 150.545455 142.742577 
L 152.263636 142.917805 
L 154.67512 143.5019 
L 155.308134 143.589514 
L 155.790431 143.589514 
L 156.242584 143.5019 
L 164.049761 142.129277 
L 164.954067 142.012458 
L 165.255502 141.77882 
L 165.40622 141.545182 
L 165.40622 141.077907 
L 165.376077 140.785859 
L 165.225359 140.493812 
L 164.923923 139.968127 
L 164.230622 138.683118 
L 163.748325 137.748567 
L 163.657895 137.368905 
L 163.718182 137.135267 
L 164.049761 136.901629 
L 166.762679 135.587416 
L 169.32488 133.922746 
L 169.957895 133.51388 
L 170.379904 133.221833 
L 170.68134 133.192628 
L 170.922488 133.221833 
L 171.344498 133.397061 
L 171.826794 133.805927 
L 174.479426 136.054692 
L 177.945933 137.368905 
L 179.96555 137.018448 
L 182.979904 133.718313 
L 183.733493 132.637738 
L 184.185646 131.820005 
L 184.185646 130.534997 
L 183.37177 128.315437 
L 182.949761 127.556114 
L 182.708612 127.264066 
L 182.467464 125.716215 
L 180.960287 123.963931 
L 178.51866 122.445285 
L 174.931579 119.64163 
L 172.700957 117.451275 
L 171.977512 116.283086 
L 172.489952 115.669786 
L 172.700957 115.523763 
L 177.312919 114.297164 
L 179.513397 112.778517 
L 180.357416 112.194423 
L 183.130622 114.09273 
L 183.311483 114.326368 
L 185.24067 113.012155 
L 187.802871 111.201462 
L 190.696651 111.93158 
L 194.52488 112.866132 
L 196.423923 110.442138 
L 197.026794 110.296115 
L 198.051675 110.32532 
L 200.855024 110.500548 
L 205.979426 110.851005 
L 210.410526 111.084643 
L 211.224402 111.055438 
L 212.068421 110.909414 
L 212.882297 110.675776 
L 213.515311 110.32532 
L 213.816746 110.062477 
L 214.299043 109.507587 
L 214.932057 108.310193 
L 216.077512 106.353475 
L 220.267464 101.271851 
L 221.684211 99.78241 
L 223.522967 98.146945 
L 229.370813 93.62021 
L 229.973684 93.328163 
L 230.425837 93.182139 
L 230.968421 93.152935 
L 231.691866 93.182139 
L 233.741627 93.444982 
L 239.951196 94.291919 
L 241.910526 94.846809 
L 243.538278 95.752156 
L 244.593301 96.307046 
L 245.256459 96.891141 
L 246.100478 97.825692 
L 247.245933 99.344339 
L 247.878947 99.928433 
L 248.150239 100.045252 
L 248.572249 100.016048 
L 248.843541 99.840819 
L 250.471292 98.380582 
L 250.983732 97.971716 
L 253.907656 96.219432 
L 257.223445 94.1751 
L 257.585167 93.970667 
L 257.886603 93.795439 
L 258.429187 93.67862 
L 258.790909 93.707825 
L 259.152632 93.766234 
L 259.725359 94.116691 
L 260.026794 94.613171 
L 260.358373 95.314085 
L 261.202392 97.153984 
L 263.613876 100.570938 
L 264.488038 101.651513 
L 266.748804 103.725049 
L 272.114354 110.997028 
L 272.476077 111.668737 
L 272.476077 112.48647 
L 272.265072 114.121935 
L 272.204785 116.283086 
L 274.254545 117.743323 
L 276.244019 117.48048 
L 279.800957 116.516724 
L 281.760287 116.516724 
L 282.302871 116.808771 
L 282.755024 117.159228 
L 284.201914 118.561055 
L 285.166507 119.349583 
L 285.52823 119.437197 
L 285.829665 119.437197 
L 286.1311 119.261969 
L 286.643541 118.999126 
L 288.090431 117.714118 
L 291.285646 114.560006 
L 292.551675 113.625455 
L 293.335407 113.304203 
L 294.088995 113.099769 
L 296.470335 112.807722 
L 297.434928 112.807722 
L 298.821531 112.778517 
L 299.424402 112.807722 
L 299.906699 113.012155 
L 306.236842 121.043458 
L 307.050718 122.240852 
L 308.407177 123.409041 
L 311.089952 125.511782 
L 312.68756 126.796791 
L 313.71244 127.439295 
L 321.640191 134.769684 
L 322.514354 135.879464 
L 323.267943 139.06278 
L 323.539234 139.61767 
L 323.9311 140.11415 
L 324.503828 140.72745 
L 326.191866 142.39212 
L 327.488038 143.239057 
L 335.626794 145.487822 
L 336.320096 145.575436 
L 336.862679 145.575436 
L 337.164115 145.458617 
L 337.284689 145.254184 
L 338.339713 142.771781 
L 338.701435 142.479734 
L 339.063158 142.304506 
L 345.694737 140.289379 
L 345.905742 140.201765 
L 346.14689 140.230969 
L 346.418182 140.376993 
L 346.599043 140.581426 
L 346.810048 141.136316 
L 349.221531 148.057839 
L 349.673684 148.583524 
L 350.06555 148.700343 
L 355.250239 150.10217 
L 356.606699 152.146502 
L 356.214833 154.132424 
L 356.033971 155.592661 
L 356.335407 156.673236 
L 357.058852 157.520173 
L 359.741627 160.09019 
L 361.911962 162.747821 
L 369.417703 169.348091 
L 369.990431 170.282643 
L 369.598565 171.12958 
L 368.362679 171.68447 
L 365.197608 172.414589 
L 363.509569 173.465959 
L 362.454545 175.364267 
L 361.12823 177.174961 
L 358.204306 179.657363 
L 355.551675 181.584876 
L 353.803349 182.957498 
L 348.920096 186.754114 
L 347.865072 187.659461 
L 347.473206 188.243556 
L 346.930622 189.061288 
L 346.840191 189.38254 
L 346.960766 190.054249 
L 348.437799 193.734046 
L 348.287081 194.230526 
L 348.045933 194.902235 
L 347.443062 196.245653 
L 345.72488 202.232624 
L 345.574163 202.670695 
L 345.574163 202.991947 
L 345.815311 203.167176 
L 355.792823 207.752319 
L 361.851675 209.825856 
L 369.357416 211.987006 
L 373.547368 212.863148 
L 377.104306 213.096786 
L 381.203828 213.826904 
L 385.152632 214.819865 
L 389.553589 216.426126 
L 394.316268 217.389882 
L 398.325359 217.857158 
L 403.088038 218.996143 
L 408.544019 221.274112 
L 411.407656 222.237868 
L 413.638278 222.413097 
L 417.767943 222.880373 
L 424.007656 224.077767 
L 429.433493 225.275161 
L 434.557895 226.530965 
L 439.893301 227.290288 
L 443.058373 227.231878 
L 444.806699 226.268122 
L 446.675598 224.340609 
L 448.665072 223.084806 
L 451.950718 221.858207 
L 454.663636 221.215703 
L 456.622967 220.865246 
L 457.888995 221.128088 
L 458.823445 221.887412 
L 459.54689 223.493672 
L 460.270335 224.574247 
L 461.325359 225.362775 
L 462.711962 225.800846 
L 464.128708 225.304366 
L 465.605742 224.22379 
L 466.87177 222.675939 
L 468.529665 220.45638 
L 470.428708 219.025347 
L 473.985646 217.652725 
L 478.235885 216.221693 
L 482.516268 215.549984 
L 486.887081 216.046464 
L 488.394258 216.134079 
L 489.720574 216.309307 
L 492.403349 216.221693 
L 494.633971 216.250898 
L 496.593301 217.010221 
L 500.300957 219.638647 
L 505.967943 223.289239 
L 509.735885 226.005279 
L 511.454067 226.852217 
L 512.810526 226.910626 
L 514.37799 225.830051 
L 517.332057 224.019357 
L 519.291388 223.72731 
L 520.768421 223.960948 
L 522.697608 224.866295 
L 524.687081 226.589374 
L 529.479904 223.756515 
L 529.932057 219.054552 
L 529.329187 217.331473 
L 527.882297 215.520779 
L 525.862679 214.002133 
L 525.621531 212.600305 
L 526.827273 210.147108 
L 529.178469 206.700949 
L 530.384211 205.824807 
L 531.589952 205.561964 
L 534.905742 205.240712 
L 536.834928 204.218546 
L 537.889952 201.502506 
L 539.06555 197.618276 
L 541.929187 193.617227 
L 544.672249 191.426872 
L 548.560766 190.317092 
L 554.077033 190.49232 
L 556.970813 190.404706 
L 559.080861 189.061288 
L 560.678469 184.855806 
L 562.245933 178.956449 
L 564.325837 176.006771 
L 567.521053 172.180951 
L 570.836842 170.428667 
L 575.117225 169.932186 
L 581.356938 169.902981 
L 585.486603 169.46491 
L 589.46555 169.844572 
L 595.644976 171.421628 
L 600.558373 173.144707 
L 604.778469 174.750967 
L 608.395694 175.393472 
L 613.037799 176.094385 
L 615.720574 176.561661 
L 618.132057 177.700646 
L 621.055981 180.56271 
L 623.226316 182.110561 
L 625.72823 182.577837 
L 628.109569 182.22738 
L 630.189474 182.461018 
L 631.817225 183.366365 
L 633.625837 184.505349 
L 635.253589 184.972625 
L 637.755502 184.709782 
L 640.830144 183.687617 
L 643.332057 183.366365 
L 645.200957 183.600003 
L 648.215311 184.972625 
L 649.963636 186.432862 
L 650.566507 188.564808 
L 650.355502 194.493369 
L 650.837799 198.143961 
L 652.46555 199.545788 
L 654.997608 200.100678 
L 657.348804 199.312151 
L 661.388038 197.004976 
L 664.733971 196.274858 
L 670.129665 195.749173 
L 673.988038 196.420882 
L 676.7311 197.326228 
L 678.358852 197.384638 
L 681.584211 195.953606 
L 686.738756 193.208361 
L 689.933971 192.273809 
L 693.340191 191.689714 
L 696.354545 191.806533 
L 699.700478 192.419833 
L 701.056938 192.507447 
" clip-path="url(#pa2bf328afd)"/>
   </g>
  </g>
 </g>
 <defs>
  <clipPath id="pa2bf328afd">
   <rect x="10.8" y="93.152935" width="1058.4" height="893.694131"/>
  </clipPath>
 </defs>
</svg>
