<?xml version="1.0" encoding="utf-8" standalone="no"?>
<!DOCTYPE svg PUBLIC "-//W3C//DTD SVG 1.1//EN"
  "http://www.w3.org/Graphics/SVG/1.1/DTD/svg11.dtd">
<svg xmlns:xlink="http://www.w3.org/1999/xlink" width="1080pt" height="1080pt" viewBox="0 0 1080 1080" xmlns="http://www.w3.org/2000/svg" version="1.1">
 <metadata>
  <rdf:RDF xmlns:dc="http://purl.org/dc/elements/1.1/" xmlns:cc="http://creativecommons.org/ns#" xmlns:rdf="http://www.w3.org/1999/02/22-rdf-syntax-ns#">
   <cc:Work>
    <dc:type rdf:resource="http://purl.org/dc/dcmitype/StillImage"/>
    <dc:date>2022-07-01T13:43:28.595463</dc:date>
    <dc:format>image/svg+xml</dc:format>
    <dc:creator>
     <cc:Agent>
      <dc:title>Matplotlib v3.5.1, https://matplotlib.org/</dc:title>
     </cc:Agent>
    </dc:creator>
   </cc:Work>
  </rdf:RDF>
 </metadata>
 <defs>
  <style type="text/css">*{stroke-linejoin: round; stroke-linecap: butt}</style>
 </defs>
 <g id="figure_1">
  <g id="patch_1">
   <path d="M 0 1080 
L 1080 1080 
L 1080 0 
L 0 0 
L 0 1080 
z
" style="fill: none; opacity: 0"/>
  </g>
  <g id="axes_1">
   <g id="PatchCollection_1">
    <path d="M 1005.670359 561.869252 
L 1004.85203 562.027821 
L 1003.215371 561.869252 
L 1000.623994 561.287834 
L 999.942053 560.759272 
L 999.641999 560.336423 
L 999.669277 559.860717 
L 999.942053 559.596436 
L 1000.705827 559.305727 
L 1002.042432 559.173586 
L 1004.524698 559.094302 
L 1006.106801 559.147158 
L 1006.734187 559.252871 
L 1007.061519 559.411439 
L 1007.225185 559.728576 
L 1007.225185 560.09857 
L 1006.979686 560.706416 
L 1006.270467 561.525687 
L 1005.670359 561.869252 
" clip-path="url(#p2bbe1686ee)"/>
    <path d="M 990.449432 560.574276 
L 988.239942 560.759272 
L 985.975898 560.759272 
L 985.212123 560.521419 
L 984.448349 559.67572 
L 983.057189 558.222175 
L 981.666029 557.085766 
L 981.338697 556.398636 
L 981.31142 555.737933 
L 981.829695 554.865806 
L 982.566192 554.25796 
L 983.548187 554.178675 
L 984.612015 554.575097 
L 985.266679 555.36794 
L 986.085008 556.398636 
L 987.148836 557.217907 
L 987.776222 557.720041 
L 989.303771 558.486456 
L 990.831319 559.385011 
L 991.322316 559.807861 
L 991.158651 560.336423 
L 990.449432 560.574276 
" clip-path="url(#p2bbe1686ee)"/>
    <path d="M 1026.155872 546.673095 
L 1025.36482 550.161604 
L 1025.010211 552.962983 
L 1025.010211 554.997947 
L 1025.419376 556.530776 
L 1026.374093 558.195747 
L 1027.301533 559.226443 
L 1028.447195 560.23071 
L 1029.42919 560.891413 
L 1029.89291 561.419975 
L 1030.056576 561.842824 
L 1030.056576 562.265674 
L 1029.729244 563.058517 
L 1029.183691 563.613507 
L 1028.119863 564.062785 
L 1027.056035 564.009929 
L 1025.664875 563.560651 
L 1023.646329 562.74138 
L 1020.291178 560.124998 
L 1018.218077 558.327887 
L 1017.290637 556.451492 
L 1016.635973 554.231532 
L 1015.899477 552.910127 
L 1015.05387 552.328708 
L 1013.526321 551.720862 
L 1011.80783 551.853003 
L 1010.198448 551.74729 
L 1008.916399 550.980875 
L 1008.507234 550.240889 
L 1008.479957 549.844467 
L 1008.479957 549.051624 
L 1008.752733 548.390922 
L 1009.925672 547.413082 
L 1010.716724 546.963804 
L 1012.135161 546.805236 
L 1014.153707 546.805236 
L 1016.854194 546.858092 
L 1018.545409 546.567383 
L 1019.882013 546.170961 
L 1021.245896 545.378118 
L 1022.964388 544.188854 
L 1024.028216 542.57674 
L 1024.491936 541.04391 
L 1024.573769 540.171783 
L 1024.410103 539.220371 
L 1023.619051 537.898966 
L 1023.264442 536.86827 
L 1023.40083 536.075427 
L 1023.97366 535.388297 
L 1024.846545 535.256156 
L 1025.828541 535.520437 
L 1027.11059 536.339708 
L 1030.220242 540.145355 
L 1030.711239 541.070338 
L 1030.82035 541.731041 
L 1030.711239 542.629596 
L 1030.002021 543.343155 
L 1028.338084 543.845289 
L 1027.492477 544.320994 
L 1026.728703 545.35169 
L 1026.155872 546.673095 
" clip-path="url(#p2bbe1686ee)"/>
    <path d="M 1040.776691 330.62338 
L 1039.712863 331.072658 
L 1036.38499 331.019802 
L 1035.512105 330.834805 
L 1035.157496 330.226959 
L 1035.675771 327.055587 
L 1036.548656 325.681326 
L 1037.094209 325.549185 
L 1038.076204 325.972035 
L 1040.885802 328.112711 
L 1041.267689 328.879126 
L 1041.3768 329.751253 
L 1040.776691 330.62338 
" clip-path="url(#p2bbe1686ee)"/>
    <path d="M 932.26621 267.116657 
L 930.847772 267.592363 
L 928.065452 267.565935 
L 925.828685 267.010944 
L 924.9558 266.138817 
L 924.9558 265.240262 
L 926.046906 263.258154 
L 927.956341 261.381759 
L 931.175104 259.346796 
L 931.993433 258.976802 
L 932.83904 259.135371 
L 933.411871 259.611077 
L 933.520981 260.826769 
L 932.975428 262.095318 
L 932.566264 263.284582 
L 932.975428 265.187406 
L 932.920873 266.270958 
L 932.26621 267.116657 
" clip-path="url(#p2bbe1686ee)"/>
    <path d="M 891.67707 241.692825 
L 890.449576 242.908518 
L 889.522136 242.855661 
L 888.649251 242.247815 
L 888.158254 241.111407 
L 887.585423 239.684289 
L 887.585423 238.547881 
L 888.130976 237.649326 
L 889.631247 235.720074 
L 890.722353 235.059372 
L 892.822731 234.821519 
L 893.941115 235.059372 
L 894.432113 235.50865 
L 894.486668 236.169352 
L 891.67707 241.692825 
" clip-path="url(#p2bbe1686ee)"/>
    <path d="M 921.955259 227.421651 
L 928.392784 228.6902 
L 929.893054 230.090889 
L 930.493163 231.227297 
L 930.165831 234.345813 
L 929.974887 237.464329 
L 930.847772 241.058551 
L 931.33877 243.622076 
L 931.011438 248.061997 
L 931.611546 250.044104 
L 932.37532 252.026212 
L 931.884323 253.083336 
L 930.220386 253.823323 
L 927.192567 253.823323 
L 925.528631 252.951195 
L 922.17348 248.326278 
L 919.172939 245.947749 
L 914.29024 243.093514 
L 909.816706 240.080711 
L 908.534656 238.2836 
L 908.534656 235.720074 
L 907.689049 230.989445 
L 906.134223 229.192334 
L 904.061122 228.610916 
L 902.206242 228.901625 
L 900.651416 230.328742 
L 899.314811 230.77802 
L 898.16915 230.593023 
L 896.096049 228.584488 
L 893.586506 226.126674 
L 892.222623 224.435276 
L 892.522677 222.928874 
L 894.950388 221.686753 
L 896.832546 220.391777 
L 899.314811 217.828251 
L 901.278802 216.427562 
L 904.688508 214.815448 
L 906.461555 214.815448 
L 908.016381 215.396866 
L 910.935089 217.193977 
L 911.61703 218.806091 
L 911.50792 220.233208 
L 911.207866 222.215315 
L 911.998918 223.906714 
L 913.553743 224.963838 
L 916.881616 225.994534 
L 921.955259 227.421651 
" clip-path="url(#p2bbe1686ee)"/>
    <path d="M 868.545625 221.924606 
L 867.345409 222.347456 
L 866.417969 222.347456 
L 864.372145 220.867482 
L 863.881147 219.65179 
L 863.96298 218.885375 
L 865.24503 216.612558 
L 867.345409 214.181173 
L 868.518347 213.229762 
L 869.41851 213.176905 
L 870.536893 213.599755 
L 871.164279 214.471882 
L 871.355223 215.634719 
L 871.055169 217.643254 
L 869.500343 220.656058 
L 868.545625 221.924606 
" clip-path="url(#p2bbe1686ee)"/>
    <path d="M 432.04871 160.214994 
L 435.403861 161.509971 
L 438.295291 162.302814 
L 440.504781 162.514238 
L 441.704997 162.276385 
L 443.123435 160.95498 
L 444.896482 159.29001 
L 446.478586 158.550023 
L 448.306188 158.550023 
L 451.906837 158.338599 
L 455.534765 157.968605 
L 459.735522 157.677896 
L 461.535847 157.413615 
L 463.117951 157.730752 
L 464.918275 158.893589 
L 467.809706 161.351402 
L 470.128306 163.46565 
L 473.56529 165.13062 
L 478.3116 167.112728 
L 481.121198 168.777698 
L 483.167021 170.627665 
L 485.785676 172.768341 
L 488.322497 175.199726 
L 490.040989 176.415419 
L 497.378676 170.231243 
L 502.77965 167.562005 
L 510.471947 163.333509 
L 518.682518 158.946445 
L 524.847267 156.567916 
L 528.093307 155.40508 
L 530.875627 154.797233 
L 531.939455 155.140799 
L 532.130399 156.250779 
L 530.930182 160.928552 
L 529.429912 166.425597 
L 529.048025 170.918374 
L 529.238968 173.719753 
L 530.548295 176.098282 
L 533.576114 179.190369 
L 535.921992 182.308885 
L 538.431535 186.140959 
L 540.641025 188.387348 
L 542.55046 189.682325 
L 544.787227 191.532292 
L 546.069277 192.906553 
L 546.26022 194.518667 
L 545.7965 198.218601 
L 545.169114 203.583505 
L 544.705394 206.86059 
L 543.559733 208.869125 
L 541.241133 210.586952 
L 538.8407 213.150477 
L 533.057839 217.907535 
L 527.929641 222.241744 
L 527.002201 223.985998 
L 526.811257 226.813805 
L 525.310987 229.80018 
L 523.265163 233.182977 
L 523.565217 235.50865 
L 525.556486 238.2836 
L 529.975465 242.829233 
L 534.421721 246.76702 
L 539.577196 250.572666 
L 541.432076 251.973356 
L 546.232942 255.567577 
L 550.488255 255.620433 
L 555.643731 254.959731 
L 560.390041 254.034747 
L 564.80902 252.131924 
L 569.118889 249.753395 
L 572.719538 248.616987 
L 578.420566 247.480579 
L 582.675879 246.21203 
L 585.239978 245.551328 
L 589.522569 245.260618 
L 597.16031 245.339903 
L 599.042468 245.815609 
L 600.570016 247.639147 
L 603.516002 250.229101 
L 606.598376 251.233369 
L 610.580913 251.444794 
L 615.054447 251.180513 
L 617.427602 250.017676 
L 618.082266 248.537703 
L 618.84604 245.894893 
L 621.000974 243.859929 
L 630.384485 238.045747 
L 632.212087 237.358617 
L 634.230633 237.411473 
L 636.740177 238.257172 
L 641.977485 241.534256 
L 647.814902 245.709896 
L 651.388273 247.454151 
L 654.416092 247.74486 
L 658.234963 246.978445 
L 661.671947 245.709896 
L 661.099116 243.701361 
L 661.099116 241.692825 
L 661.86289 236.962195 
L 663.281328 232.786555 
L 663.990547 231.967284 
L 667.072921 232.971552 
L 670.482627 234.742235 
L 672.855782 236.962195 
L 674.683384 240.688557 
L 676.620097 241.719253 
L 679.429695 242.062818 
L 681.721017 241.111407 
L 683.739563 236.724342 
L 683.821396 233.658683 
L 683.903229 230.170173 
L 684.721559 225.095978 
L 685.676276 224.065282 
L 687.176547 224.250279 
L 691.89558 225.439544 
L 696.287281 225.254547 
L 698.360382 224.699557 
L 699.069601 225.465972 
L 699.969764 226.205959 
L 700.324373 227.395223 
L 700.24254 229.24519 
L 699.860653 231.967284 
L 699.369655 233.526542 
L 701.52459 237.094336 
L 703.734079 239.578577 
L 712.29926 236.169352 
L 711.72643 235.482222 
L 711.590041 234.742235 
L 711.590041 233.447258 
L 711.780985 231.861572 
L 713.11759 229.324474 
L 715.108858 229.535899 
L 716.47274 229.456615 
L 717.263792 229.007337 
L 718.191232 227.738788 
L 720.64622 224.778841 
L 722.692044 222.400312 
L 724.355981 220.708914 
L 726.810969 218.462525 
L 728.747682 217.405401 
L 731.748223 217.061836 
L 733.848602 217.114692 
L 735.512538 217.69611 
L 736.521811 219.123228 
L 738.185748 223.034587 
L 739.385964 224.012426 
L 741.431788 224.355992 
L 742.877503 225.175263 
L 744.623273 227.315939 
L 745.823489 227.738788 
L 746.750929 227.71236 
L 747.623814 225.175263 
L 751.388129 225.307403 
L 754.443226 224.488132 
L 756.516327 223.642433 
L 758.09843 222.506025 
L 758.316652 222.876018 
L 764.781454 232.680843 
L 769.58232 239.129299 
L 777.411005 246.793448 
L 785.3488 253.611898 
L 797.651019 261.672468 
L 801.524445 264.183138 
L 812.380949 270.790163 
L 827.356377 280.172138 
L 828.82937 281.863536 
L 828.802093 283.581363 
L 828.692982 283.76636 
L 831.420747 285.827751 
L 834.966841 288.549846 
L 836.085225 288.62913 
L 837.694606 289.18412 
L 838.403825 289.897679 
L 838.349269 290.664094 
L 838.049215 291.800502 
L 837.176331 293.91475 
L 837.012665 298.724664 
L 838.212881 303.957428 
L 838.676601 306.01882 
L 841.758975 318.783592 
L 843.341079 324.518489 
L 847.432726 335.988285 
L 850.433267 342.357457 
L 856.488905 353.721539 
L 861.371604 361.78211 
L 870.127729 376.687558 
L 888.567418 405.996321 
L 899.205701 422.513883 
L 909.625762 438.978589 
L 917.372614 450.421956 
L 920.564099 455.152586 
L 931.720657 470.903733 
L 942.93177 485.941322 
L 944.32293 487.738433 
L 954.361104 500.582489 
L 965.872271 514.219389 
L 979.647483 529.706255 
L 986.221396 535.75829 
L 990.503987 538.82395 
L 995.086632 541.995322 
L 1001.769655 545.060981 
L 1004.879307 546.699523 
L 1005.370305 548.311637 
L 1005.206639 548.998768 
L 1004.797474 549.897323 
L 1003.46087 550.373029 
L 1000.32394 549.976608 
L 998.769114 549.210193 
L 998.141728 551.800147 
L 997.405232 553.967251 
L 996.968789 555.764361 
L 996.641458 558.037178 
L 996.286848 558.909305 
L 995.850406 559.305727 
L 995.168465 559.622864 
L 994.541079 559.622864 
L 993.913693 559.358583 
L 992.986253 558.486456 
L 991.731481 556.768629 
L 990.203933 553.650113 
L 988.949161 552.487277 
L 987.748945 551.958715 
L 986.030453 551.958715 
L 983.984629 551.826575 
L 982.566192 551.245156 
L 981.120476 550.373029 
L 979.92026 549.500902 
L 979.020097 549.236621 
L 978.17449 549.263049 
L 976.78333 549.818039 
L 974.655674 551.350869 
L 973.673679 552.328708 
L 973.046293 553.438689 
L 972.691683 554.997947 
L 972.528017 556.90077 
L 972.773516 557.746469 
L 973.42818 558.4336 
L 974.055566 558.618596 
L 975.037561 558.618596 
L 976.401443 558.327887 
L 977.628937 558.407171 
L 978.692766 558.935733 
L 979.10193 559.67572 
L 979.265596 560.494991 
L 979.892982 561.472831 
L 981.475086 562.477099 
L 982.948079 562.87352 
L 985.293956 563.164229 
L 987.039726 563.481367 
L 988.594552 563.481367 
L 990.394876 563.719219 
L 991.349594 564.194925 
L 991.786036 564.749915 
L 992.413422 566.203461 
L 992.849865 568.634846 
L 992.495255 570.11482 
L 991.676926 570.986947 
L 989.740213 572.096927 
L 988.785495 574.237603 
L 988.512719 575.664721 
L 988.649107 577.541116 
L 989.65838 579.100373 
L 992.167924 582.033893 
L 994.350135 583.302441 
L 997.241566 584.650274 
L 998.441782 585.522402 
L 1000.869493 587.319512 
L 1003.215371 588.006643 
L 1005.479415 588.403065 
L 1008.589067 588.799486 
L 1009.516507 588.773058 
L 1010.498503 587.715934 
L 1011.044056 586.579526 
L 1010.907667 585.813111 
L 1009.980227 584.940983 
L 1007.798016 584.333137 
L 1005.943135 584.148141 
L 1003.897312 583.963144 
L 1003.024427 583.408154 
L 1002.806206 582.403886 
L 1003.297204 580.871056 
L 1004.361032 579.311798 
L 1004.742919 578.228246 
L 1004.824752 577.06541 
L 1004.688364 575.717577 
L 1004.688364 573.920466 
L 1005.179361 571.753362 
L 1006.761465 566.758451 
L 1007.443406 565.014196 
L 1008.152625 564.327066 
L 1008.970954 563.824932 
L 1010.498503 563.42851 
L 1011.480498 563.42851 
L 1012.053329 563.772076 
L 1012.517049 564.432778 
L 1012.953491 566.256317 
L 1013.089879 567.181301 
L 1013.471766 568.264853 
L 1014.317373 569.533401 
L 1016.035865 572.017643 
L 1018.327187 576.536848 
L 1019.80018 578.968233 
L 1020.182067 579.549651 
L 1021.164063 580.025357 
L 1022.391557 580.157497 
L 1023.455385 580.289638 
L 1024.082771 580.686059 
L 1024.464658 581.426046 
L 1024.32827 582.562455 
L 1023.782717 583.672435 
L 1024.246437 584.808843 
L 1025.446653 585.390261 
L 1026.619592 584.914555 
L 1027.983475 583.143873 
L 1028.883637 581.267478 
L 1028.883637 579.734648 
L 1028.310806 578.228246 
L 1027.192423 575.770433 
L 1026.455926 574.951162 
L 1024.355548 574.079035 
L 1021.927837 573.814754 
L 1021.000397 573.233335 
L 1020.809453 572.704773 
L 1021.136785 571.541937 
L 1022.309724 570.537669 
L 1026.074039 569.004839 
L 1029.074581 566.996304 
L 1032.429731 564.723487 
L 1033.057117 563.9835 
L 1033.248061 562.635667 
L 1033.057117 560.494991 
L 1032.757063 559.279299 
L 1031.966011 558.327887 
L 1031.829623 557.217907 
L 1032.593397 555.975786 
L 1034.06639 555.579365 
L 1035.266607 556.055071 
L 1036.712322 557.45576 
L 1037.339708 559.200014 
L 1037.585207 561.604971 
L 1037.939816 562.820664 
L 1039.603752 565.437046 
L 1041.513188 569.057696 
L 1043.313513 573.365476 
L 1043.831788 575.189015 
L 1043.831788 575.611864 
L 1043.286235 576.616132 
L 1042.249684 577.567544 
L 1041.622298 578.571811 
L 1040.803969 580.553919 
L 1040.285694 582.615311 
L 1040.258416 585.205264 
L 1040.831247 586.949519 
L 1042.140574 589.565901 
L 1049.396428 597.890752 
L 1057.879776 605.739898 
L 1067.208732 614.223318 
L 1069.2 615.703292 
L 1068.136172 618.134677 
L 1067.590619 619.641078 
L 1058.234386 630.714452 
L 1055.561176 633.912252 
L 1052.206026 635.497938 
L 1048.659931 635.709363 
L 1045.441169 635.577222 
L 1041.731409 635.973644 
L 1033.002562 638.11432 
L 1029.865632 638.642882 
L 1025.037489 639.805718 
L 1022.364279 640.043571 
L 1019.009129 638.960019 
L 1016.254086 637.189337 
L 1013.66271 636.845771 
L 1009.189176 637.347905 
L 1003.515425 639.250728 
L 997.814397 641.074267 
L 992.031535 643.875646 
L 986.003175 646.624168 
L 983.411799 647.787005 
L 977.983547 648.68556 
L 976.183222 650.35053 
L 974.792062 652.623347 
L 972.991737 653.601186 
L 969.691142 654.261889 
L 965.65405 654.261889 
L 961.862457 653.654043 
L 960.744074 653.759755 
L 958.070864 653.997608 
L 953.951939 655.556866 
L 949.451128 658.807522 
L 945.932311 660.895342 
L 942.740826 660.895342 
L 938.430958 660.78963 
L 934.393866 661.688185 
L 930.329497 663.353155 
L 926.70157 665.78454 
L 924.38297 669.616615 
L 922.746311 670.700167 
L 921.109652 670.435886 
L 916.554285 668.770916 
L 913.199134 667.581651 
L 908.971099 666.894521 
L 906.297889 667.31737 
L 903.106404 669.061625 
L 899.996753 673.58083 
L 896.887101 676.408636 
L 894.132058 678.31146 
L 891.731625 678.390744 
L 888.621974 677.88861 
L 884.584882 677.624329 
L 878.038246 677.782898 
L 873.210103 677.862182 
L 869.52762 678.020751 
L 865.463251 677.597901 
L 862.46271 676.567205 
L 860.662385 675.166516 
L 859.980444 673.316549 
L 859.544001 667.634507 
L 858.343785 666.788808 
L 857.880065 666.841664 
L 854.470359 667.290942 
L 853.597474 672.708703 
L 851.360707 675.562937 
L 847.487281 679.130731 
L 845.496013 679.817861 
L 842.386361 678.628597 
L 839.222154 677.545045 
L 836.985387 679.025018 
L 836.958109 682.06425 
L 836.71261 683.649936 
L 835.457839 684.574919 
L 832.102688 685.420618 
L 829.947754 685.552759 
L 828.174707 684.8392 
L 826.483493 683.59708 
L 824.328559 682.487099 
L 821.846293 682.169962 
L 819.582248 682.539956 
L 816.30893 683.914217 
L 811.20801 687.587723 
L 809.762295 688.169141 
L 808.452968 688.037 
L 807.470972 687.931288 
L 803.515714 686.715595 
L 796.9418 685.94918 
L 793.532095 685.605615 
L 789.41317 685.39419 
L 785.3488 684.865628 
L 781.775428 684.416351 
L 778.420278 684.812772 
L 775.883457 686.028465 
L 773.455746 688.8827 
L 771.600866 691.419797 
L 769.827819 693.824754 
L 766.827278 697.339691 
L 765.490673 699.242515 
L 765.954393 700.14107 
L 767.863828 701.488903 
L 769.009489 703.788148 
L 769.145878 706.563098 
L 768.573047 710.659454 
L 767.836551 712.562277 
L 766.390835 714.385816 
L 761.944579 716.632204 
L 760.062421 718.297174 
L 756.461772 720.754988 
L 753.133899 723.001376 
L 752.479235 724.48135 
L 753.324842 726.859879 
L 754.906946 729.449832 
L 755.479776 733.176195 
L 756.13444 734.444743 
L 757.880209 734.603312 
L 761.126249 734.233319 
L 765.599784 734.682596 
L 768.573047 735.449011 
L 770.591593 737.351834 
L 770.946202 740.021072 
L 769.718708 744.091 
L 766.527224 748.293068 
L 761.453581 752.072286 
L 760.908028 752.680132 
L 759.95331 753.763684 
L 759.571423 755.507939 
L 760.007866 756.776488 
L 761.671802 757.410762 
L 765.217896 758.124321 
L 766.936388 759.260729 
L 767.236442 760.714274 
L 766.8 762.617098 
L 765.572506 765.074911 
L 765.927115 767.03059 
L 766.718167 769.937681 
L 766.527224 772.104785 
L 765.272452 773.822612 
L 761.644525 777.020412 
L 757.307379 782.75531 
L 754.225005 787.723792 
L 751.251741 792.692275 
L 749.478694 797.07934 
L 748.496699 800.726417 
L 746.641819 802.893521 
L 743.504889 805.060626 
L 739.167743 807.333442 
L 736.849143 809.711971 
L 736.576367 810.399102 
L 735.948981 812.064072 
L 736.385423 815.394013 
L 737.640195 820.045358 
L 737.094642 823.111018 
L 736.876421 824.062429 
L 736.112647 827.128089 
L 734.80332 830.563742 
L 732.893884 832.783702 
L 729.947898 834.448672 
L 720.755331 838.201463 
L 722.910265 841.134982 
L 724.792423 845.152053 
L 724.928811 849.169124 
L 723.619484 854.031894 
L 722.555656 858.233962 
L 723.210319 860.401066 
L 725.119755 862.462458 
L 725.774418 864.682419 
L 724.983366 867.668794 
L 722.882988 870.4966 
L 717.154682 871.791577 
L 712.65387 871.976574 
L 709.05322 871.791577 
L 704.661519 870.205891 
L 701.851921 867.404513 
L 698.878658 864.52385 
L 695.468952 861.88104 
L 689.877034 857.837541 
L 684.312394 853.106911 
L 679.538806 850.411245 
L 676.483709 849.512689 
L 672.501173 849.856255 
L 669.527909 850.834094 
L 667.100198 852.763346 
L 662.79033 856.17257 
L 660.444452 858.445387 
L 659.789789 860.453923 
L 660.880895 863.598866 
L 662.053834 868.514493 
L 661.944723 872.875129 
L 661.235504 877.790756 
L 662.026556 882.970663 
L 662.926718 886.90845 
L 664.099657 891.454083 
L 666.718311 896.79256 
L 668.518636 904.403852 
L 668.764135 907.839505 
L 667.973083 910.720168 
L 665.518095 914.578671 
L 661.644669 917.882183 
L 657.416634 918.727882 
L 651.715605 919.441441 
L 645.550857 919.785006 
L 644.35064 919.837863 
L 639.358831 920.657134 
L 633.548692 924.700633 
L 630.629984 925.678473 
L 619.77348 926.656312 
L 618.164099 925.070626 
L 617.945878 922.295676 
L 618.082266 919.071448 
L 617.018438 917.168624 
L 613.608732 915.080805 
L 610.199026 914.235105 
L 605.316327 914.605099 
L 602.697673 914.102965 
L 600.460906 912.120857 
L 595.66004 905.672401 
L 591.241061 899.038948 
L 588.404185 896.9247 
L 583.330543 895.524011 
L 576.265632 893.964753 
L 572.064875 891.903361 
L 569.582609 891.691936 
L 567.12762 892.61692 
L 564.645355 893.832612 
L 563.117806 893.621188 
L 558.917049 892.352639 
L 556.162006 892.273355 
L 552.806855 893.409763 
L 550.570088 893.039769 
L 548.660653 891.850505 
L 547.07855 889.022698 
L 545.823778 886.749882 
L 544.378062 885.481333 
L 541.050189 884.344925 
L 538.131481 882.442102 
L 534.421721 878.29289 
L 532.184954 873.56226 
L 527.765975 866.928807 
L 529.293523 865.607402 
L 529.784521 863.519582 
L 529.075302 862.145321 
L 528.829803 861.696043 
L 526.32026 859.634651 
L 524.738156 857.546832 
L 524.847267 855.670437 
L 525.583763 853.582617 
L 527.629587 851.468369 
L 530.657406 849.08984 
L 533.248782 847.97986 
L 537.585928 846.605598 
L 540.313693 845.442762 
L 541.322966 844.332782 
L 541.513909 841.84854 
L 541.568465 838.333603 
L 541.895797 836.615777 
L 542.741404 834.845094 
L 545.032726 833.391549 
L 546.669385 831.885147 
L 548.551542 828.132357 
L 550.188201 824.855272 
L 552.506801 819.754649 
L 554.388959 815.182588 
L 556.107451 811.667651 
L 556.92578 809.209837 
L 557.089446 806.725596 
L 557.089446 803.448512 
L 557.689554 800.752845 
L 559.24438 797.792898 
L 560.390041 794.674382 
L 560.390041 792.745131 
L 559.571712 790.921592 
L 558.180552 789.177338 
L 557.689554 787.06309 
L 556.107451 785.292407 
L 553.897961 783.86529 
L 550.188201 782.253176 
L 547.07855 780.429637 
L 545.114559 778.57967 
L 541.895797 777.073268 
L 538.458813 776.121857 
L 534.176222 774.906164 
L 529.648133 773.796184 
L 525.801984 772.369066 
L 523.892549 771.021233 
L 522.992387 768.774845 
L 522.965109 765.444904 
L 522.446834 763.383512 
L 520.973841 762.326388 
L 516.609417 760.661418 
L 514.072596 759.551438 
L 512.435937 758.097893 
L 511.890384 757.172909 
L 511.94494 755.640079 
L 511.644885 753.367263 
L 510.690168 751.279443 
L 510.417391 750.724453 
L 509.544507 748.874486 
L 508.071514 747.526653 
L 505.589248 747.209515 
L 501.333935 746.258104 
L 499.397222 746.390244 
L 497.67873 747.262372 
L 495.660184 748.900914 
L 493.532528 749.270907 
L 489.686379 749.720185 
L 487.995165 750.830165 
L 485.376511 754.847236 
L 483.685297 757.833612 
L 482.539636 758.600026 
L 480.98481 758.335745 
L 477.38416 756.538635 
L 475.638391 754.397959 
L 473.701678 752.15157 
L 470.728414 748.848058 
L 468.027927 747.103803 
L 464.154501 746.522385 
L 459.080859 746.918806 
L 454.116327 747.473796 
L 447.869746 748.663061 
L 444.378207 749.059482 
L 441.050334 748.293068 
L 439.440953 747.050947 
L 436.985964 744.936699 
L 434.203644 743.562438 
L 432.075988 743.351013 
L 429.757388 744.302425 
L 427.247844 745.253836 
L 424.983799 745.359549 
L 421.137651 744.302425 
L 416.691395 742.320317 
L 411.64503 741.368905 
L 406.134945 741.316049 
L 403.161681 740.919628 
L 400.706693 739.545367 
L 399.288255 738.197533 
L 398.851813 736.400423 
L 398.579037 734.286175 
L 397.242432 732.356923 
L 393.478117 730.4541 
L 389.468302 728.947699 
L 387.695255 729.026983 
L 385.376655 731.616937 
L 383.058055 733.070482 
L 380.22118 733.757613 
L 379.702905 733.757613 
L 375.529424 733.704757 
L 375.665813 729.89911 
L 374.792928 725.300621 
L 373.238102 718.825736 
L 370.619448 712.297996 
L 368.982789 707.699506 
L 368.682735 703.656007 
L 368.382681 697.366119 
L 368.27357 690.626954 
L 369.228288 683.359227 
L 369.910229 679.130731 
L 364.891142 679.157159 
L 360.826773 679.659293 
L 358.262674 680.716417 
L 355.616742 682.19639 
L 354.934801 682.011394 
L 353.598196 680.319995 
L 351.661483 677.75647 
L 349.479271 676.197212 
L 346.451452 673.633686 
L 344.978459 672.444422 
L 343.205412 669.801612 
L 339.713873 665.22955 
L 337.531662 661.767469 
L 336.140502 658.384672 
L 334.831174 656.296853 
L 332.648963 654.65831 
L 329.021036 652.623347 
L 326.920657 650.086249 
L 325.338553 648.209854 
L 324.574779 646.677024 
L 324.356558 644.060642 
L 324.165614 641.021411 
L 323.483673 638.299317 
L 322.856287 635.867932 
L 322.338012 633.436546 
L 322.4744 631.190158 
L 323.238174 628.811629 
L 323.40184 626.512384 
L 323.265452 625.772397 
L 323.156341 625.111695 
L 322.93812 624.688845 
L 322.01068 623.261728 
L 320.646798 621.041768 
L 319.282915 618.848235 
L 317.8372 616.945412 
L 314.945769 614.75188 
L 311.754285 612.505491 
L 309.981238 610.417672 
L 308.399134 607.325584 
L 307.28075 605.184908 
L 305.862313 604.286352 
L 303.298214 603.414225 
L 301.306946 603.75779 
L 297.160743 605.026339 
L 296.451524 603.942787 
L 295.68775 603.361369 
L 289.032004 603.282085 
L 288.26823 602.991376 
L 287.777233 602.621382 
L 286.931625 601.484974 
L 285.758687 601.088552 
L 284.122028 600.877128 
L 282.867256 600.956412 
L 282.103482 601.432118 
L 281.885261 602.727095 
L 281.585207 604.312781 
L 281.366985 604.788486 
L 280.794155 605.264192 
L 279.321162 605.898467 
L 277.439004 606.347744 
L 275.802345 606.215604 
L 273.756522 606.4006 
L 271.928919 607.404868 
L 271.246978 608.039143 
L 269.883096 609.254835 
L 262.545409 616.548991 
L 257.19899 618.821807 
L 255.753274 619.112516 
L 254.007505 619.086088 
L 252.752733 618.716095 
L 245.551434 614.144034 
L 244.296662 613.08691 
L 242.196284 611.791933 
L 238.29558 610.761237 
L 237.559084 610.761237 
L 237.231752 610.893377 
L 234.831319 611.791933 
L 233.249215 612.135498 
L 232.376331 611.871217 
L 231.8035 611.263371 
L 225.856973 605.792754 
L 224.547646 604.682774 
L 224.165759 603.652078 
L 224.165759 602.251389 
L 224.547646 600.057857 
L 224.874977 598.577883 
L 225.093199 598.102177 
L 229.784954 589.380904 
L 230.275952 588.059499 
L 230.112286 586.156676 
L 229.894065 585.495974 
L 228.448349 584.597418 
L 227.520909 583.778147 
L 227.084467 582.588883 
L 226.675302 581.320334 
L 225.284142 576.801129 
L 224.056648 575.189015 
L 223.265596 574.158319 
L 222.5291 572.88977 
L 222.010824 570.194104 
L 221.519827 565.727755 
L 221.274328 565.146337 
L 220.31961 564.697059 
L 218.764784 564.247781 
L 215.627855 563.666363 
L 211.645318 563.058517 
L 209.517662 562.159962 
L 207.79917 560.970697 
L 205.780624 560.494991 
L 203.762078 560.706416 
L 201.388923 561.102838 
L 198.797546 561.948537 
L 197.13361 561.604971 
L 196.097059 560.917841 
L 195.633339 559.887145 
L 195.687895 559.252871 
L 195.960671 558.803593 
L 197.215443 557.667185 
L 198.251994 556.874342 
L 199.124878 556.240067 
L 199.397655 555.526509 
L 199.397655 554.548669 
L 198.497492 553.095123 
L 197.542775 552.275852 
L 195.142342 550.452313 
L 193.178351 549.078052 
L 191.432582 547.888788 
L 189.495869 547.254513 
L 186.358939 547.333798 
L 184.340393 547.30737 
L 183.440231 546.858092 
L 183.003789 546.038821 
L 182.158181 544.823128 
L 180.494245 544.056713 
L 175.502436 543.581008 
L 168.464802 543.554579 
L 165.927981 543.898145 
L 164.373155 545.113837 
L 163.827602 546.32953 
L 163.582104 547.835932 
L 163.554826 549.025196 
L 163.882158 550.663738 
L 163.85488 551.879431 
L 163.472993 552.487277 
L 162.600108 553.042267 
L 160.690673 553.042267 
L 154.58048 552.645846 
L 148.988562 552.037999 
L 148.55212 552.037999 
L 141.923651 551.298013 
L 138.568501 550.293745 
L 136.522677 549.395189 
L 135.786181 549.395189 
L 134.395021 550.055892 
L 131.912755 551.007304 
L 131.148981 550.875163 
L 129.948764 550.50517 
L 129.621432 549.051624 
L 129.348656 547.201657 
L 128.121162 545.35169 
L 128.421216 542.180318 
L 128.448494 540.145355 
L 128.175717 538.82395 
L 126.975501 534.22546 
L 125.093343 531.476938 
L 124.602345 530.419814 
L 124.493235 529.124837 
L 124.54779 525.847753 
L 124.220458 524.552776 
L 120.919863 519.055731 
L 117.946599 512.95084 
L 117.510157 511.259442 
L 117.564712 509.75304 
L 117.919322 507.24237 
L 118.492152 504.414564 
L 118.573985 504.070998 
L 118.628541 500.978911 
L 117.728378 498.124676 
L 116.828216 497.358261 
L 114.836948 496.353993 
L 114.155006 496.353993 
L 113.473065 496.776843 
L 112.218293 497.966107 
L 110.417969 498.256817 
L 104.389609 495.904716 
L 103.380336 495.032588 
L 102.834783 494.477598 
L 102.834783 494.054749 
L 102.889338 491.279798 
L 104.580552 488.47842 
L 109.326863 485.174907 
L 109.70875 484.117783 
L 109.654194 482.796378 
L 108.344867 479.307869 
L 107.03554 476.347922 
L 105.917157 475.581507 
L 104.116832 475.105801 
L 102.889338 475.105801 
L 102.098286 474.656524 
L 102.125564 473.890109 
L 102.371063 471.51158 
L 102.725672 468.578061 
L 102.643839 467.547365 
L 102.152841 466.91309 
L 96.233592 462.261745 
L 95.224319 461.653899 
L 92.114667 460.411778 
L 87.286524 459.381082 
L 84.449648 459.169657 
L 79.648782 459.618935 
L 75.829912 459.909644 
L 71.43821 460.623203 
L 68.301281 460.596775 
L 65.87357 460.226781 
L 65.000686 459.883216 
L 64.155078 459.486794 
L 62.709363 458.667523 
L 61.454591 457.504687 
L 57.553888 454.571168 
L 56.13545 453.223335 
L 52.834855 449.232692 
L 51.852859 446.959875 
L 51.03453 443.920644 
L 50.161645 442.01782 
L 48.71593 439.137158 
L 48.224932 437.630756 
L 48.334043 436.309351 
L 48.71593 434.353672 
L 48.934151 433.270119 
L 49.970702 431.420152 
L 51.007252 428.724486 
L 52.616634 425.790967 
L 53.544074 424.284566 
L 55.589897 421.588899 
L 56.162728 420.161782 
L 56.162728 419.289655 
L 55.726285 418.52324 
L 54.171459 416.99041 
L 54.089627 415.986142 
L 54.63518 414.21546 
L 55.398954 412.550489 
L 56.762836 411.1498 
L 57.172001 410.251245 
L 57.008335 409.696255 
L 56.899224 409.405545 
L 56.13545 408.401278 
L 54.335125 406.868448 
L 51.061808 403.009945 
L 50.243478 401.424259 
L 49.479704 399.098587 
L 49.888869 394.420813 
L 49.888869 393.548686 
L 49.452426 393.20512 
L 48.033989 392.861555 
L 45.224391 392.623702 
L 44.215118 392.491562 
L 42.987624 392.597274 
L 41.132744 393.363689 
L 40.123471 393.707254 
L 39.605196 393.522258 
L 39.005087 392.438705 
L 38.077647 389.901608 
L 38.132203 387.734504 
L 38.15948 386.783092 
L 38.51409 385.620256 
L 40.341692 383.61172 
L 40.805412 382.660309 
L 41.132744 381.576757 
L 41.050911 380.942482 
L 39.55064 378.960375 
L 37.641205 377.08398 
L 36.413711 376.528989 
L 34.613386 376.396849 
L 31.912899 376.687558 
L 28.203139 377.08398 
L 21.00184 377.77111 
L 19.092405 378.405385 
L 16.610139 380.228923 
L 15.246257 380.546061 
L 13.555042 380.546061 
L 13.173155 380.096783 
L 12.845824 379.541793 
L 12.082049 376.264708 
L 11.345553 370.027677 
L 11.454664 368.17771 
L 11.836551 367.675576 
L 13.991485 366.724164 
L 15.137146 366.274887 
L 15.791809 363.817074 
L 16.091864 361.544257 
L 16.200974 359.773574 
L 16.36464 355.730075 
L 16.773805 354.540811 
L 17.783078 353.351546 
L 19.856179 352.558703 
L 21.110951 352.030141 
L 23.102219 351.078729 
L 24.002381 350.048034 
L 24.13877 349.730896 
L 24.13877 349.281619 
L 23.593217 344.81527 
L 22.583944 340.586774 
L 22.011113 338.155389 
L 21.329172 334.904732 
L 18.055854 329.38126 
L 15.819087 326.051319 
L 14.264261 323.884215 
L 11.700162 321.162121 
L 10.909111 320.395706 
L 10.8 320.078569 
L 11.018221 319.391438 
L 11.863828 318.519311 
L 13.009489 317.752896 
L 14.727981 316.933625 
L 16.173697 316.114354 
L 16.637417 315.797216 
L 17.510301 314.63438 
L 18.465019 313.735825 
L 19.447014 313.339403 
L 20.920007 313.312975 
L 25.557207 312.176567 
L 25.884539 311.727289 
L 25.911817 310.855162 
L 26.239148 308.79377 
L 26.92109 308.159496 
L 27.521198 308.027355 
L 28.748692 308.291636 
L 31.20368 309.824466 
L 33.113116 310.828734 
L 36.795598 311.515864 
L 38.05037 310.88159 
L 39.168753 309.692325 
L 41.923796 306.468097 
L 43.287678 305.17312 
L 45.442612 303.772431 
L 46.888328 303.349581 
L 51.061808 303.058872 
L 52.534801 302.873876 
L 53.216742 302.451026 
L 53.271297 301.446758 
L 53.162187 299.940357 
L 53.189464 298.407527 
L 53.325852 297.218262 
L 53.762295 296.663272 
L 55.808118 295.923285 
L 56.380949 295.949714 
L 56.817391 296.372563 
L 58.263107 298.143246 
L 59.490601 298.486811 
L 60.172542 298.381099 
L 61.181815 297.958249 
L 64.127801 295.923285 
L 64.918853 295.262583 
L 67.210175 292.80477 
L 68.874111 291.853358 
L 71.056323 290.822662 
L 72.72026 290.769806 
L 74.165975 292.196923 
L 74.847916 292.329064 
L 75.857189 292.223352 
L 77.903013 290.71695 
L 79.730615 288.999123 
L 81.449107 285.325618 
L 83.985928 280.013569 
L 84.367815 279.802145 
L 90.368898 277.132907 
L 92.060112 276.498632 
L 93.533105 276.52506 
L 98.552192 279.405723 
L 99.343244 279.405723 
L 105.480714 273.935107 
L 106.844597 273.512257 
L 109.408696 273.432973 
L 111.972795 273.380116 
L 114.618726 273.115835 
L 117.7011 271.873715 
L 121.438138 270.710878 
L 121.874581 270.737306 
L 122.338301 270.843019 
L 123.102075 271.503721 
L 127.439221 275.573649 
L 131.339924 278.137174 
L 131.694534 278.137174 
L 133.494858 276.94791 
L 134.1768 276.419348 
L 136.549955 274.595809 
L 140.068771 273.32726 
L 141.1326 273.010123 
L 142.332816 272.164424 
L 142.905647 271.080872 
L 143.478477 270.103032 
L 146.779073 263.971713 
L 148.961285 262.20103 
L 150.543388 261.355331 
L 152.589212 260.509632 
L 153.271153 260.086782 
L 154.198593 258.157531 
L 155.316976 252.158352 
L 155.726141 251.524078 
L 156.244416 251.206941 
L 156.926358 250.863376 
L 158.617572 250.546238 
L 159.626845 249.911964 
L 160.827061 248.934124 
L 161.781779 247.18987 
L 161.781779 246.079889 
L 161.563558 244.335635 
L 161.672668 242.512096 
L 163.636659 237.490757 
L 164.645932 232.945124 
L 166.200758 229.033765 
L 168.710301 224.488132 
L 170.23785 220.62963 
L 174.493163 214.075461 
L 174.820494 212.357634 
L 174.711384 211.8555 
L 173.156558 209.344831 
L 172.338228 207.996998 
L 172.174563 206.649165 
L 172.174563 206.305599 
L 172.338228 206.252743 
L 173.974887 206.490596 
L 175.993433 206.807733 
L 176.648097 206.675593 
L 177.139094 206.252743 
L 178.612087 204.34992 
L 180.248746 200.676414 
L 181.803572 196.395062 
L 183.522064 193.514399 
L 184.804113 191.426579 
L 186.195273 189.708753 
L 186.904492 188.49306 
L 187.368212 187.277368 
L 187.777377 185.638826 
L 188.131986 184.528845 
L 188.595706 183.366009 
L 188.759372 182.678878 
L 192.1418 179.481078 
L 194.569511 177.710396 
L 197.59733 176.203994 
L 199.724986 175.305439 
L 201.170702 173.878321 
L 203.407469 171.896214 
L 204.935017 172.001926 
L 207.144507 172.583344 
L 209.135775 173.904749 
L 212.054483 176.362563 
L 213.772975 178.688235 
L 215.409634 183.048872 
L 216.691683 185.955963 
L 218.382897 187.647361 
L 220.646942 188.783769 
L 223.238319 189.497328 
L 224.711312 189.418044 
L 225.393253 189.365188 
L 227.684575 188.757341 
L 229.4849 188.704485 
L 232.567274 189.576612 
L 236.958975 191.00373 
L 239.22302 191.955141 
L 241.214288 192.53656 
L 243.560166 192.695128 
L 245.278658 192.298707 
L 247.815479 191.056586 
L 250.461411 188.942338 
L 252.20718 186.722378 
L 253.298286 184.978123 
L 253.461952 183.392437 
L 253.48923 180.670343 
L 253.325564 179.031801 
L 252.534512 177.657539 
L 249.970413 174.565452 
L 248.633808 172.08121 
L 248.088255 170.759805 
L 248.551975 169.491257 
L 250.079524 168.19628 
L 254.362114 165.183476 
L 257.062601 163.8885 
L 259.326646 163.095657 
L 262.76363 162.461382 
L 265.818726 162.117817 
L 270.346816 161.351402 
L 274.493018 160.981409 
L 278.802887 160.637843 
L 281.448818 160.135709 
L 283.467364 159.29001 
L 288.541007 157.810037 
L 294.487534 155.695789 
L 297.024355 159.924285 
L 297.979073 162.646379 
L 298.47007 165.844179 
L 297.815407 167.931999 
L 296.04236 170.601237 
L 294.405701 174.010462 
L 294.514811 176.309706 
L 295.333141 177.578255 
L 296.724301 178.21253 
L 299.261122 178.476811 
L 302.452607 178.793948 
L 305.31676 179.745359 
L 308.971965 181.833179 
L 313.118167 184.555273 
L 315.600433 186.114531 
L 318.137254 186.775234 
L 321.165073 186.82809 
L 323.074508 187.25094 
L 323.838283 187.409508 
L 326.620603 188.783769 
L 329.021036 190.871589 
L 330.71225 193.699396 
L 333.303626 198.007176 
L 334.803897 200.332849 
L 335.649504 201.178548 
L 338.568212 202.077104 
L 342.005196 202.68495 
L 345.633123 203.23994 
L 348.906441 203.424937 
L 351.825149 203.451365 
L 353.843695 203.081371 
L 355.971351 201.997819 
L 358.835504 200.147852 
L 362.627097 197.716467 
L 366.173191 194.88866 
L 367.973516 192.430847 
L 368.573624 189.021622 
L 368.300848 185.506685 
L 367.673462 181.780323 
L 368.464514 178.89966 
L 370.619448 176.891125 
L 375.611257 173.957605 
L 381.803283 171.050515 
L 386.685982 169.30626 
L 390.150244 167.456293 
L 392.823453 165.659182 
L 395.496662 164.734199 
L 397.133321 163.941356 
L 398.579037 162.461382 
L 399.970197 160.294278 
L 400.952192 159.025729 
L 401.44319 157.598612 
L 401.415912 155.722217 
L 401.143135 153.766537 
L 403.188959 153.4494 
L 407.498827 153.343688 
L 410.144759 153.475828 
L 411.972362 153.898678 
L 414.372795 155.457936 
L 418.328053 157.387187 
L 420.673931 159.052157 
L 422.77431 161.430686 
L 423.974526 162.884232 
L 424.983799 163.386366 
L 426.347682 163.571362 
L 428.202562 163.571362 
L 429.893776 163.148513 
L 431.148548 161.774252 
L 432.04871 160.214994 
" clip-path="url(#p2bbe1686ee)"/>
   </g>
  </g>
 </g>
 <defs>
  <clipPath id="p2bbe1686ee">
   <rect x="10.8" y="153.343688" width="1058.4" height="773.312625"/>
  </clipPath>
 </defs>
</svg>
