<?xml version="1.0" encoding="utf-8" standalone="no"?>
<!DOCTYPE svg PUBLIC "-//W3C//DTD SVG 1.1//EN"
  "http://www.w3.org/Graphics/SVG/1.1/DTD/svg11.dtd">
<svg xmlns:xlink="http://www.w3.org/1999/xlink" width="1080pt" height="1080pt" viewBox="0 0 1080 1080" xmlns="http://www.w3.org/2000/svg" version="1.1">
 <metadata>
  <rdf:RDF xmlns:dc="http://purl.org/dc/elements/1.1/" xmlns:cc="http://creativecommons.org/ns#" xmlns:rdf="http://www.w3.org/1999/02/22-rdf-syntax-ns#">
   <cc:Work>
    <dc:type rdf:resource="http://purl.org/dc/dcmitype/StillImage"/>
    <dc:date>2022-07-01T13:43:29.058583</dc:date>
    <dc:format>image/svg+xml</dc:format>
    <dc:creator>
     <cc:Agent>
      <dc:title>Matplotlib v3.5.1, https://matplotlib.org/</dc:title>
     </cc:Agent>
    </dc:creator>
   </cc:Work>
  </rdf:RDF>
 </metadata>
 <defs>
  <style type="text/css">*{stroke-linejoin: round; stroke-linecap: butt}</style>
 </defs>
 <g id="figure_1">
  <g id="patch_1">
   <path d="M 0 1080 
L 1080 1080 
L 1080 0 
L 0 0 
L 0 1080 
z
" style="fill: none; opacity: 0"/>
  </g>
  <g id="axes_1">
   <g id="PatchCollection_1">
    <path d="M 1069.2 530.139587 
L 1066.428694 532.500531 
L 1064.087418 533.750442 
L 1060.599395 535.09294 
L 1056.20353 537.268712 
L 1052.619945 538.796381 
L 1047.698488 540.509223 
L 1043.875997 546.573609 
L 1042.633687 548.564209 
L 1040.005724 553.378683 
L 1036.852169 558.794966 
L 1032.647429 565.970384 
L 1030.449497 570.136756 
L 1028.633813 568.840552 
L 1025.623602 572.4977 
L 1025.862507 573.56244 
L 1027.487066 575.136403 
L 1028.108221 575.645626 
L 1029.016062 576.293728 
L 1029.876123 576.849244 
L 1032.456304 578.4695 
L 1032.504086 579.904584 
L 1032.312961 581.247081 
L 1031.787369 582.4507 
L 1030.975089 583.330267 
L 1030.019466 583.37656 
L 1027.295941 583.793197 
L 1020.033208 589.255774 
L 1012.866038 596.014555 
L 1006.511146 602.171526 
L 1003.30981 606.661949 
L 1000.586285 612.078233 
L 1000.251817 615.550209 
L 1000.77741 619.531409 
L 999.5351 622.540455 
L 997.623854 623.234851 
L 994.565862 623.420023 
L 991.651212 623.234851 
L 989.405499 624.068125 
L 986.347506 626.382776 
L 985.487445 627.956739 
L 985.487445 629.391822 
L 986.1086 631.336129 
L 988.593219 633.095264 
L 989.88331 634.900692 
L 990.217778 636.70612 
L 989.548842 638.55784 
L 988.115408 639.62258 
L 985.726351 640.594733 
L 982.620577 641.659473 
L 981.569392 643.00197 
L 979.036992 645.733259 
L 972.25207 651.519886 
L 970.101919 653.88083 
L 971.535353 656.982463 
L 973.351036 658.78789 
L 974.880033 659.204528 
L 975.740093 659.204528 
L 976.600153 658.695304 
L 977.364652 657.908323 
L 977.69912 656.797291 
L 977.69912 654.436346 
L 978.272493 653.001263 
L 979.323678 652.167988 
L 980.757113 652.260575 
L 981.951641 652.816091 
L 983.002826 653.927123 
L 983.432856 655.593672 
L 983.432856 657.260221 
L 982.76392 658.741597 
L 980.948237 661.102541 
L 978.606961 664.389346 
L 976.982403 668.74089 
L 976.600153 670.638904 
L 976.600153 671.796229 
L 976.839059 673.046141 
L 977.69912 674.296052 
L 979.753709 675.499671 
L 984.770728 677.02734 
L 987.207566 678.09208 
L 988.736563 679.434578 
L 989.787748 681.00854 
L 990.695589 682.952847 
L 992.176805 686.193358 
L 994.231394 689.572749 
L 996.142639 692.211451 
L 996.811575 692.766967 
L 993.801363 699.433162 
L 993.275771 699.988679 
L 989.02325 703.784706 
L 987.064223 705.404962 
L 984.197355 707.67332 
L 980.040395 710.867538 
L 974.211097 715.080203 
L 970.340824 717.48744 
L 967.043926 719.47804 
L 962.218031 722.024156 
L 958.299977 724.338807 
L 954.095237 726.560872 
L 952.375116 727.718198 
L 950.081622 729.89397 
L 947.50144 732.023449 
L 946.115787 732.949309 
L 944.96904 733.319653 
L 942.818889 733.643704 
L 941.672141 733.921463 
L 940.38205 734.430686 
L 938.948616 734.893616 
L 937.276276 735.541718 
L 936.129529 736.050941 
L 935.269469 736.467579 
L 934.743876 736.699044 
L 934.313846 737.023095 
L 933.64491 737.532318 
L 931.064728 740.217313 
L 928.19786 743.180067 
L 927.385581 743.781876 
L 926.573301 743.781876 
L 925.999928 743.550411 
L 924.757618 742.115327 
L 922.941935 740.633951 
L 921.986312 739.800676 
L 921.07847 739.337746 
L 919.883942 738.828523 
L 917.208198 737.902662 
L 914.436892 737.069388 
L 911.187775 735.680597 
L 907.508627 733.458532 
L 904.068385 730.958709 
L 901.631547 728.227421 
L 900.102551 725.542426 
L 899.624739 723.875877 
L 899.67252 721.098296 
L 899.194709 719.94097 
L 898.477992 719.431747 
L 897.331245 719.200282 
L 896.088935 719.339161 
L 894.989969 719.663212 
L 882.280186 724.061049 
L 880.894533 724.755445 
L 879.317755 725.681305 
L 877.119823 726.977509 
L 876.020857 727.625612 
L 874.730766 728.088542 
L 874.06183 728.181128 
L 871.577211 728.3663 
L 868.853686 728.551472 
L 865.461225 728.875523 
L 861.304266 728.968109 
L 859.297458 728.921816 
L 857.051745 728.875523 
L 851.556914 728.82923 
L 849.597887 728.690351 
L 848.45114 728.227421 
L 847.638861 727.579319 
L 846.34877 726.144235 
L 845.058679 724.801738 
L 843.864151 724.3851 
L 843.051871 724.3851 
L 842.000686 724.431393 
L 840.185003 724.98691 
L 838.560444 725.357254 
L 836.888104 725.91277 
L 835.02464 726.514579 
L 833.638987 726.884923 
L 831.67996 727.44044 
L 829.529809 727.533026 
L 823.27048 727.486733 
L 812.519724 728.597765 
L 808.028297 728.921816 
L 804.82696 729.569919 
L 802.867934 730.032849 
L 800.908907 730.727244 
L 796.41748 732.856723 
L 791.830491 734.430686 
L 789.871464 734.893616 
L 788.629154 734.893616 
L 787.673532 734.569565 
L 786.431222 733.921463 
L 785.332256 733.689997 
L 784.758882 733.643704 
L 783.42101 733.967756 
L 782.178701 734.430686 
L 781.031953 734.893616 
L 777.209462 736.097235 
L 773.33919 737.115681 
L 770.424541 737.393439 
L 769.421137 737.671197 
L 768.369952 738.365593 
L 765.120834 740.633951 
L 763.209589 741.930155 
L 761.967279 742.485671 
L 758.861505 743.550411 
L 755.851293 744.522564 
L 753.557799 745.448425 
L 752.124365 746.466871 
L 750.547587 748.040834 
L 749.496402 749.52221 
L 748.015187 751.744275 
L 747.7285 753.595996 
L 747.537375 756.697629 
L 746.91622 759.752968 
L 745.960598 760.956586 
L 744.718288 761.46581 
L 743.045948 761.836154 
L 740.991359 762.160205 
L 739.701269 762.345377 
L 737.312212 762.530549 
L 734.397562 762.576842 
L 731.100664 762.39167 
L 729.141637 762.160205 
L 727.421516 761.743568 
L 724.984678 761.095466 
L 722.786746 760.910293 
L 721.162187 761.141759 
L 712.131552 762.900893 
L 710.029182 763.780461 
L 708.930215 764.706321 
L 706.875626 767.159851 
L 705.251068 768.36347 
L 704.199883 768.733814 
L 702.81423 768.733814 
L 700.568516 768.594935 
L 698.083897 768.456056 
L 694.548093 768.36347 
L 693.066877 768.456056 
L 692.302379 768.641228 
L 689.005481 770.585535 
L 686.568642 771.511395 
L 683.606212 771.696567 
L 680.357094 770.631828 
L 676.295698 769.335623 
L 674.097765 769.057865 
L 672.998799 769.196744 
L 672.18652 769.75226 
L 671.75649 770.492949 
L 671.708708 771.233637 
L 671.899833 772.853893 
L 672.807675 775.816646 
L 673.381048 778.038711 
L 673.381048 779.381209 
L 673.189924 780.862585 
L 671.660927 784.936371 
L 669.845244 788.547227 
L 668.364029 791.185929 
L 667.456187 793.222822 
L 667.217281 794.565319 
L 667.1695 795.907817 
L 667.360625 796.694798 
L 667.886217 798.222468 
L 669.558557 801.092635 
L 671.278678 803.222114 
L 674.432233 806.184867 
L 677.585788 808.638398 
L 680.500438 810.999342 
L 683.653993 812.573304 
L 685.182989 812.989941 
L 686.47308 813.406579 
L 689.244386 814.19356 
L 689.578854 814.239853 
L 691.06007 814.425025 
L 691.776787 814.425025 
L 693.353564 814.563904 
L 694.261406 814.65649 
L 695.217029 814.934248 
L 695.551497 815.073127 
L 696.411557 815.628644 
L 697.223836 816.878555 
L 697.606086 818.035881 
L 698.22724 819.193206 
L 699.230644 820.119067 
L 700.759641 820.767169 
L 702.957573 821.044927 
L 704.9166 820.952341 
L 706.971189 820.211653 
L 708.834653 819.424671 
L 711.22371 818.961741 
L 713.182737 819.008034 
L 713.708329 819.239499 
L 714.090578 819.424671 
L 714.472827 819.795015 
L 714.472827 820.211653 
L 714.138359 821.230099 
L 713.995016 822.109666 
L 714.090578 822.989234 
L 714.138359 823.54475 
L 714.99842 825.257592 
L 716.336292 827.942587 
L 716.622979 828.544396 
L 717.196352 830.997926 
L 717.483039 832.757061 
L 717.721945 833.775508 
L 718.104194 834.562489 
L 718.916473 835.34947 
L 719.585409 835.395763 
L 720.158783 835.164298 
L 721.639998 833.35887 
L 722.786746 831.044219 
L 723.694587 830.210945 
L 724.936897 830.210945 
L 726.418112 830.534996 
L 728.090452 831.275684 
L 730.383947 832.618182 
L 734.110875 834.747661 
L 739.127895 837.386363 
L 742.902605 839.515842 
L 745.100537 841.182391 
L 748.349655 844.376609 
L 749.878651 846.22833 
L 750.929836 847.894879 
L 752.267708 850.20953 
L 755.70795 855.024004 
L 757.332509 857.940464 
L 758.001445 859.329255 
L 758.765943 861.366148 
L 760.151596 864.93071 
L 760.868313 867.38424 
L 762.492872 872.661645 
L 763.544057 876.642845 
L 763.591838 878.679737 
L 763.496276 879.559305 
L 763.018464 880.762923 
L 761.537249 882.799816 
L 759.48266 884.558951 
L 757.666977 886.318086 
L 756.854697 887.429118 
L 756.376886 888.308686 
L 755.755731 889.466011 
L 755.27792 890.206699 
L 754.513422 890.993681 
L 753.653361 891.826955 
L 733.203034 895.808155 
L 718.582005 898.076513 
L 703.292041 898.817201 
L 693.353564 900.205992 
L 676.773509 906.362964 
L 671.469803 907.520289 
L 667.742874 909.881233 
L 664.589319 912.89028 
L 656.562087 923.16733 
L 654.937529 926.500428 
L 653.981906 930.99085 
L 651.115038 937.564459 
L 647.961483 940.851264 
L 647.340328 943.258501 
L 648.200388 946.267547 
L 648.773762 950.804263 
L 648.773762 953.2115 
L 646.862516 957.424165 
L 643.708961 960.386918 
L 642.132184 963.071914 
L 642.084403 965.803202 
L 642.371089 972.423104 
L 642.227746 976.172838 
L 641.12878 977.42275 
L 639.88647 978.163438 
L 636.92404 979.274471 
L 633.674922 980.987313 
L 630.808054 982.514982 
L 628.275653 983.950066 
L 624.883193 986.172131 
L 622.111887 988.255317 
L 621.156264 989.320056 
L 620.391766 990.616261 
L 619.245018 993.069791 
L 618.862769 993.532721 
L 617.716022 994.551168 
L 616.999305 995.106684 
L 616.425931 995.245563 
L 615.94812 995.245563 
L 615.231403 995.106684 
L 614.753591 994.690047 
L 613.84575 993.810479 
L 612.412315 992.097637 
L 611.74338 991.449535 
L 611.026662 991.079191 
L 610.07104 991.032898 
L 608.112013 991.403242 
L 605.531832 992.236517 
L 604.576209 992.884619 
L 602.856088 994.504875 
L 601.470435 995.6622 
L 600.084782 996.495474 
L 598.364661 997.18987 
L 596.405634 997.421335 
L 593.538766 997.513921 
L 591.62752 997.837972 
L 589.907399 998.393488 
L 588.856214 998.995297 
L 588.139497 1000.060037 
L 586.706063 1003.393134 
L 585.272629 1007.142869 
L 584.0781 1010.568553 
L 583.504727 1012.97579 
L 583.409164 1014.96639 
L 583.456946 1016.308887 
L 583.791413 1017.651385 
L 584.460349 1018.623538 
L 585.941565 1020.290087 
L 590.002961 1024.502752 
L 598.842472 1030.428258 
L 607.777545 1038.298072 
L 615.470308 1047.417797 
L 620.343984 1056.213471 
L 621.347388 1063.851819 
L 619.006113 1063.481475 
L 617.285992 1063.203717 
L 616.951524 1062.879666 
L 616.712618 1062.463028 
L 616.617056 1061.676047 
L 616.903742 1060.565015 
L 617.333773 1059.083638 
L 617.381554 1058.111485 
L 617.094867 1057.231917 
L 616.282588 1056.398643 
L 614.849154 1055.241317 
L 613.081251 1054.222871 
L 610.835538 1053.019252 
L 609.067636 1052.093392 
L 607.58642 1051.352704 
L 605.101801 1051.074945 
L 603.763929 1051.306411 
L 602.903869 1051.44529 
L 600.228125 1052.556322 
L 598.030193 1053.852527 
L 595.975604 1055.148731 
L 594.207702 1056.583815 
L 592.86983 1057.324503 
L 591.866426 1057.602261 
L 590.815241 1057.787433 
L 589.764056 1057.926312 
L 588.951776 1058.018899 
L 587.518342 1058.204071 
L 586.706063 1058.435536 
L 585.224848 1058.759587 
L 583.552508 1059.222517 
L 581.306794 1059.963205 
L 578.535488 1061.120531 
L 576.289775 1061.768633 
L 573.231782 1062.509322 
L 569.457072 1063.111131 
L 567.020234 1063.620354 
L 562.911056 1064.453628 
L 561.525403 1064.6388 
L 558.801878 1064.499921 
L 557.320663 1063.435182 
L 555.791666 1060.518722 
L 555.027168 1058.018899 
L 554.740481 1055.657954 
L 554.549357 1052.000806 
L 554.740481 1048.714001 
L 555.313855 1042.788495 
L 556.890632 1038.298072 
L 557.702912 1033.113254 
L 557.702912 1031.955928 
L 557.798474 1031.307826 
L 556.842851 1020.938189 
L 556.747289 1020.104915 
L 556.938414 1019.364226 
L 557.511787 1017.88285 
L 558.228504 1013.90165 
L 558.849659 1010.337087 
L 558.849659 1009.411227 
L 558.515191 1007.883557 
L 558.132942 1006.679939 
L 557.320663 1004.504167 
L 556.126134 1001.171069 
L 554.979387 998.300902 
L 554.214889 997.467628 
L 553.545953 996.865819 
L 552.494768 996.449181 
L 551.300239 996.634353 
L 550.05793 997.328749 
L 549.197869 997.6528 
L 547.334405 997.6528 
L 546.187657 997.467628 
L 543.177446 996.495474 
L 540.740608 995.801079 
L 537.825958 994.828926 
L 534.911309 993.903065 
L 531.901097 992.884619 
L 528.26973 991.588414 
L 524.638364 990.060745 
L 522.583775 989.134884 
L 519.525782 987.931266 
L 517.566755 987.144284 
L 515.416604 986.31101 
L 513.218672 985.431443 
L 511.8808 984.875926 
L 510.829615 984.551875 
L 509.396181 983.85748 
L 507.819403 983.070498 
L 505.717033 981.913173 
L 504.283599 981.126192 
L 502.611259 980.246624 
L 500.269983 978.209731 
L 498.215394 976.543183 
L 497.068647 975.200685 
L 496.065243 973.487843 
L 495.205183 971.682415 
L 494.727371 970.756555 
L 493.915092 969.830695 
L 492.57722 968.719662 
L 490.427069 967.60863 
L 487.655763 966.034667 
L 486.031204 964.506997 
L 483.689928 962.377518 
L 481.348652 960.248039 
L 478.864033 958.859249 
L 476.570539 957.563044 
L 474.802636 955.757616 
L 474.181482 954.692877 
L 473.608108 952.933742 
L 473.178078 949.230301 
L 473.416983 947.424873 
L 473.655889 943.721431 
L 471.457957 941.082729 
L 469.451149 938.582906 
L 468.065496 936.453427 
L 467.539903 935.018343 
L 467.635466 934.462827 
L 468.208839 933.629553 
L 470.884583 930.389041 
L 471.696862 928.491027 
L 472.174674 925.759739 
L 472.939172 923.676553 
L 474.94598 921.408195 
L 476.61832 919.047251 
L 477.287256 916.964065 
L 477.287256 915.158638 
L 476.905007 914.001312 
L 476.379414 913.723554 
L 475.280448 913.492089 
L 472.700266 913.214331 
L 468.352183 913.862433 
L 467.205435 914.093898 
L 466.775405 914.27907 
L 464.816378 915.760447 
L 462.570665 918.676907 
L 461.758386 919.64906 
L 461.137231 919.78794 
L 460.324951 919.78794 
L 459.560453 919.64906 
L 458.127019 919.000958 
L 453.253343 916.871479 
L 449.383071 915.528982 
L 446.133953 914.325363 
L 444.222708 912.473642 
L 443.07596 910.529335 
L 442.932617 909.325717 
L 442.741492 906.409257 
L 442.789274 904.372364 
L 443.028179 903.122452 
L 443.45821 902.566936 
L 444.31827 901.687369 
L 446.42064 900.298578 
L 447.997418 898.724615 
L 449.096384 897.520997 
L 450.816505 894.419364 
L 452.106596 892.104713 
L 453.062218 890.577044 
L 454.686777 889.373425 
L 456.406898 888.401272 
L 459.894921 886.873602 
L 462.570665 885.76257 
L 463.096258 885.253346 
L 463.144039 884.744123 
L 463.048476 883.77197 
L 461.94951 881.411026 
L 461.08945 879.975942 
L 460.611638 878.911203 
L 460.563857 877.753877 
L 460.707201 876.642845 
L 461.710604 873.680091 
L 462.045072 872.522766 
L 461.94951 871.504319 
L 461.280574 870.43958 
L 459.942702 868.217515 
L 457.649208 865.023296 
L 455.594619 863.680799 
L 452.871094 862.430887 
L 451.915471 862.199422 
L 450.338694 861.505027 
L 449.621976 860.440287 
L 449.191946 859.144083 
L 449.048603 858.310808 
L 449.096384 856.551674 
L 449.430852 854.329609 
L 449.956444 851.59832 
L 450.290912 848.820739 
L 450.864286 845.209884 
L 451.581003 843.867386 
L 452.488845 842.895233 
L 453.874498 841.969372 
L 455.881306 840.487996 
L 460.516076 836.645675 
L 461.041669 834.88654 
L 461.662823 832.757061 
L 461.94951 829.794308 
L 462.236197 827.340778 
L 462.37954 825.396471 
L 463.860756 809.2865 
L 463.860756 808.314346 
L 463.956318 806.786677 
L 463.526288 804.610905 
L 462.857352 802.435133 
L 461.901729 800.583412 
L 460.946106 799.426086 
L 459.321548 797.94471 
L 458.222581 797.389194 
L 455.929087 796.509626 
L 454.304528 796.046696 
L 453.301124 795.676352 
L 452.202158 795.074543 
L 451.103192 793.685752 
L 450.19535 791.834031 
L 449.478633 789.010157 
L 448.570791 786.973264 
L 447.376263 785.769645 
L 446.468421 785.260422 
L 445.273893 784.843785 
L 443.219304 784.427148 
L 439.6835 783.316115 
L 437.390005 782.482841 
L 435.239854 781.325515 
L 421.048856 773.177944 
L 418.086425 771.27993 
L 412.448251 768.641228 
L 409.629163 767.252437 
L 405.567767 766.048819 
L 402.175306 765.215544 
L 398.735064 764.521149 
L 397.397192 764.428563 
L 396.537132 764.38227 
L 394.864792 764.335977 
L 393.95695 764.613735 
L 393.52692 764.937786 
L 393.335795 765.30813 
L 392.619078 766.465456 
L 392.141267 768.270884 
L 392.045704 770.168898 
L 392.045704 772.020618 
L 391.806799 775.353716 
L 391.328987 777.483195 
L 390.660051 778.871985 
L 389.75221 780.538534 
L 388.414338 783.08465 
L 385.929719 785.584473 
L 385.54747 787.112143 
L 385.451907 788.269469 
L 385.356345 792.204375 
L 386.83756 794.380147 
L 387.840964 795.167129 
L 389.799991 797.342901 
L 389.895553 799.750138 
L 389.131055 802.85177 
L 388.653244 804.240561 
L 387.315372 805.583058 
L 386.40753 806.462626 
L 384.591847 808.453225 
L 383.158413 811.971495 
L 382.680601 813.036234 
L 381.533854 815.860109 
L 380.673794 817.619243 
L 379.049235 821.230099 
L 373.697747 838.173345 
L 372.168751 840.487996 
L 370.87866 842.617475 
L 369.540788 844.746953 
L 367.91623 847.061604 
L 365.574954 849.931772 
L 363.950395 853.079697 
L 363.32924 854.422195 
L 362.89921 855.996157 
L 362.182493 858.773739 
L 361.752463 860.671752 
L 360.892402 862.986403 
L 359.602311 866.365794 
L 358.885594 868.032343 
L 358.168877 868.634152 
L 357.738847 868.032343 
L 356.687662 866.550966 
L 354.680854 863.310455 
L 352.769609 860.440287 
L 350.667238 857.153483 
L 349.759397 856.088743 
L 348.564868 855.209176 
L 347.035872 854.746246 
L 346.366936 854.746246 
L 345.029064 855.162883 
L 342.640007 856.135036 
L 340.107607 857.246069 
L 335.950648 859.144083 
L 333.274904 860.255115 
L 331.602564 860.532873 
L 329.7391 860.718045 
L 325.916609 860.764339 
L 323.240865 861.736492 
L 321.75965 863.032697 
L 320.565121 864.375194 
L 320.373997 865.301055 
L 320.51734 865.99545 
L 321.329619 867.013896 
L 323.145303 868.634152 
L 324.29205 869.606305 
L 325.008767 871.041389 
L 325.629922 873.217161 
L 325.916609 874.467073 
L 325.247673 875.34664 
L 323.240865 880.901802 
L 323.193084 884.188607 
L 323.909801 889.419718 
L 324.339831 893.539797 
L 324.196488 897.335825 
L 323.193084 901.779955 
L 321.616306 905.483396 
L 319.27503 908.816494 
L 315.165853 912.612521 
L 309.62324 915.390103 
L 305.370719 916.408549 
L 300.592605 916.964065 
L 294.285495 916.7326 
L 291.800876 916.778893 
L 290.70191 917.519582 
L 289.937411 918.676907 
L 289.937411 920.019405 
L 290.367442 922.658107 
L 290.319661 925.111637 
L 289.650725 927.379995 
L 287.930604 929.833525 
L 286.067139 932.101883 
L 284.203675 933.351795 
L 282.674678 933.351795 
L 281.48015 932.796278 
L 280.858995 931.453781 
L 280.667871 929.416888 
L 280.23784 925.574567 
L 279.712248 923.445088 
L 278.13547 919.64906 
L 277.179847 916.26967 
L 276.940942 911.223731 
L 277.609878 907.427703 
L 278.517719 903.307624 
L 278.5655 900.298578 
L 277.370972 898.724615 
L 275.985319 897.798755 
L 274.265198 897.56729 
L 270.920518 898.585736 
L 266.906903 900.576336 
L 264.374502 902.428057 
L 264.135597 903.677968 
L 264.900095 904.974173 
L 266.620216 906.45555 
L 269.72599 908.260977 
L 271.350549 909.927526 
L 271.637235 911.547782 
L 270.920518 913.121745 
L 268.961492 914.695707 
L 267.098027 915.066051 
L 265.234563 914.742 
L 262.988849 913.075452 
L 260.0742 910.714508 
L 257.398456 908.029512 
L 254.961618 906.45555 
L 252.429218 905.575982 
L 246.122107 904.418657 
L 241.391775 903.585382 
L 237.187034 901.965127 
L 232.743389 899.372718 
L 230.163207 898.446857 
L 227.248558 898.169099 
L 225.098406 898.261685 
L 222.518225 898.863494 
L 220.606979 898.909787 
L 219.316889 898.215392 
L 218.217922 897.335825 
L 217.69233 896.085913 
L 217.69233 894.373071 
L 218.600172 892.289885 
L 219.890262 890.901095 
L 224.381689 888.447565 
L 225.910686 887.382825 
L 226.10181 886.132914 
L 225.67178 884.744123 
L 222.566006 881.596198 
L 218.361266 877.80017 
L 216.402239 876.642845 
L 215.016586 876.411379 
L 214.108745 876.828017 
L 212.627529 878.170514 
L 210.334035 880.901802 
L 208.757257 882.475765 
L 207.037136 882.892402 
L 205.747045 882.568351 
L 204.69586 881.503612 
L 203.692456 879.281547 
L 202.832396 872.198715 
L 203.262426 867.245361 
L 203.883581 859.282962 
L 203.8358 856.273916 
L 203.310207 854.792539 
L 201.637867 853.12599 
L 200.013309 852.894525 
L 198.340969 852.987111 
L 195.999693 853.912971 
L 191.078236 857.662706 
L 189.214771 858.264515 
L 187.829118 858.03305 
L 186.873496 857.060897 
L 186.443465 855.486934 
L 186.730152 850.996511 
L 187.829118 846.552381 
L 189.453677 843.126698 
L 189.883707 842.015665 
L 189.97927 840.441703 
L 189.644802 839.052912 
L 188.402492 837.247484 
L 186.347903 835.534642 
L 185.917873 834.192145 
L 185.917873 832.803354 
L 186.825714 831.136805 
L 188.30693 829.285085 
L 190.122613 826.924141 
L 191.364923 824.100266 
L 192.033859 821.739322 
L 192.033859 820.581997 
L 191.603828 819.10062 
L 190.552643 817.989588 
L 187.733556 816.693383 
L 183.194348 815.073127 
L 180.088574 812.851062 
L 178.607359 810.721583 
L 177.986204 809.240207 
L 177.603955 806.879263 
L 177.556174 804.749784 
L 176.9828 802.435133 
L 175.597147 800.39824 
L 172.730279 798.176175 
L 171.870218 797.111435 
L 171.10572 795.120836 
L 170.723471 791.417394 
L 170.723471 784.195683 
L 170.866814 778.316469 
L 171.010158 776.094404 
L 171.774656 774.242683 
L 173.351433 772.113204 
L 176.218302 769.474502 
L 181.904257 763.502703 
L 188.30693 757.02168 
L 192.033859 754.892201 
L 195.521882 754.105219 
L 198.866561 752.947894 
L 200.49112 751.605396 
L 200.968931 750.262899 
L 200.873369 748.874108 
L 200.252214 746.976094 
L 198.197625 744.846615 
L 192.9417 740.309899 
L 190.218175 737.486025 
L 189.358115 736.004648 
L 189.119209 734.615858 
L 189.071428 732.532672 
L 189.835926 730.542072 
L 190.934892 729.153281 
L 193.228387 726.236821 
L 194.18401 724.662858 
L 194.136229 723.412947 
L 193.706198 722.625966 
L 192.559451 721.746398 
L 191.26936 721.746398 
L 189.310334 722.070449 
L 186.491246 723.412947 
L 183.098786 724.755445 
L 181.61757 724.848031 
L 180.423042 724.940617 
L 178.941827 724.153635 
L 177.938423 723.320361 
L 176.361645 719.616919 
L 174.259275 714.756152 
L 172.825841 712.11745 
L 171.344626 710.960124 
L 169.624505 710.404608 
L 167.378791 710.404608 
L 163.699643 711.608227 
L 159.829371 712.950724 
L 157.344752 713.552534 
L 153.570042 714.246929 
L 152.136608 714.941324 
L 151.276547 716.144943 
L 151.228766 718.55218 
L 151.515453 720.866831 
L 151.228766 722.950017 
L 150.894298 724.246221 
L 149.556426 725.264668 
L 147.5974 725.264668 
L 145.877279 724.3851 
L 144.491626 722.3945 
L 143.440441 720.172435 
L 142.628161 715.080203 
L 142.15035 710.265729 
L 142.58038 708.043664 
L 143.679346 705.821599 
L 144.778312 703.830999 
L 144.873875 702.488502 
L 144.348282 701.331176 
L 142.867067 699.8498 
L 139.761293 698.414716 
L 133.310839 696.146358 
L 126.525918 694.896446 
L 122.655645 694.896446 
L 115.392912 695.127911 
L 112.143795 695.637135 
L 108.942459 696.79446 
L 105.454435 698.599888 
L 101.154133 701.608934 
L 99.481793 702.118158 
L 97.905016 702.395916 
L 96.280457 702.071864 
L 94.130306 700.405316 
L 92.840215 698.461009 
L 91.78903 694.989032 
L 91.502343 693.091019 
L 91.836811 690.683781 
L 92.601309 688.600596 
L 94.799242 686.609996 
L 98.908419 684.711982 
L 101.154133 683.276898 
L 102.30088 682.53621 
L 102.683129 681.841815 
L 102.587567 680.962247 
L 102.109756 677.351392 
L 101.679726 674.944155 
L 100.963008 673.416485 
L 99.911823 672.212866 
L 94.608117 669.018648 
L 90.737845 666.657704 
L 87.870976 664.713397 
L 83.427331 661.472886 
L 79.318153 658.602718 
L 75.877911 655.964016 
L 73.011042 653.510486 
L 71.577608 651.936523 
L 70.335299 649.575579 
L 70.144174 647.584979 
L 70.096393 646.52024 
L 70.526423 645.455501 
L 73.011042 641.289129 
L 73.584416 639.715166 
L 73.011042 636.10431 
L 72.342106 631.058371 
L 70.956453 626.012432 
L 70.478642 623.83666 
L 69.95305 623.049679 
L 68.854083 621.429423 
L 66.60837 619.207358 
L 63.932626 615.503916 
L 62.785879 613.096679 
L 61.448007 609.532117 
L 59.966792 604.023247 
L 58.581139 598.005155 
L 55.570927 590.73715 
L 54.663085 588.422499 
L 54.567523 587.728104 
L 54.85421 584.070955 
L 55.188678 578.515793 
L 55.332021 566.248143 
L 55.332021 563.285389 
L 55.236459 561.665134 
L 55.045334 558.23945 
L 55.28424 542.083186 
L 55.427583 518.381159 
L 54.663085 495.651286 
L 54.567523 472.088139 
L 53.898587 449.219387 
L 53.850806 443.849397 
L 53.803025 438.525699 
L 53.516338 425.05443 
L 53.468557 420.193663 
L 53.468557 417.740133 
L 53.468557 415.24031 
L 53.468557 408.620408 
L 53.134089 399.685855 
L 53.134089 395.149139 
L 53.372994 387.834842 
L 52.895183 381.029768 
L 52.417372 377.974429 
L 48.021507 377.650377 
L 41.379929 375.520898 
L 38.943091 374.085815 
L 38.130811 373.113661 
L 35.216162 368.299187 
L 32.062607 362.882904 
L 29.434644 358.762825 
L 28.622365 357.46662 
L 27.284493 356.170416 
L 24.560968 355.6149 
L 20.260665 354.179816 
L 15.482552 352.420681 
L 14.383585 351.355942 
L 12.47234 347.096984 
L 11.23003 344.319403 
L 10.8 343.486128 
L 10.8 342.930612 
L 11.23003 341.865873 
L 12.47234 340.523375 
L 14.813616 338.069845 
L 15.530333 337.097691 
L 15.864801 336.357003 
L 15.864801 335.477436 
L 15.243646 333.996059 
L 13.953555 331.588822 
L 12.328996 328.579776 
L 11.851185 326.820641 
L 11.851185 324.135646 
L 12.185653 322.839441 
L 12.47234 321.774702 
L 13.427963 320.154446 
L 13.905774 319.182293 
L 14.240242 318.163846 
L 14.383585 313.766009 
L 15.530333 311.590237 
L 16.820423 310.340326 
L 21.646318 308.164554 
L 24.513187 307.053521 
L 28.43124 307.840503 
L 31.680358 308.534898 
L 35.072818 309.414465 
L 37.557438 309.321879 
L 40.949898 307.933089 
L 44.199016 307.65533 
L 48.929349 308.25714 
L 49.83719 307.840503 
L 50.123877 306.544298 
L 50.601688 304.137061 
L 50.601688 295.38768 
L 50.983938 283.999597 
L 51.0795 272.611514 
L 50.792813 260.297571 
L 51.031719 250.622329 
L 51.843998 239.789763 
L 51.93956 229.096075 
L 51.843998 222.013243 
L 52.035123 220.43928 
L 52.799621 220.994796 
L 53.18187 221.504019 
L 53.898587 222.939103 
L 54.85421 224.281601 
L 55.427583 224.975996 
L 56.1443 225.34634 
L 59.154512 226.040735 
L 62.642535 226.688838 
L 64.267094 227.105475 
L 65.843872 228.2628 
L 66.656151 229.234954 
L 67.611774 230.762624 
L 68.041804 232.058828 
L 68.519615 232.753223 
L 69.188551 232.984689 
L 70.191955 233.030982 
L 72.724356 232.614344 
L 75.256756 231.873656 
L 77.693594 231.31814 
L 79.987089 231.132968 
L 81.850553 231.132968 
L 85.625263 231.179261 
L 88.348788 231.225554 
L 90.54672 230.901503 
L 92.64909 230.484865 
L 94.369211 230.484865 
L 96.614925 230.716331 
L 98.717295 231.086675 
L 100.485197 231.734777 
L 102.587567 232.845809 
L 104.116564 233.77167 
L 105.072186 234.651237 
L 105.788903 235.715977 
L 106.266715 236.919595 
L 106.457839 238.2158 
L 106.457839 239.373125 
L 106.027809 240.252693 
L 105.024405 241.13226 
L 102.348661 242.613637 
L 99.529574 243.909841 
L 98.335046 244.696823 
L 97.570548 245.437511 
L 97.140517 246.270785 
L 96.662706 248.122506 
L 96.567144 250.02052 
L 96.758268 250.992674 
L 97.188298 251.964827 
L 98.52617 253.399911 
L 101.154133 255.575683 
L 102.109756 257.195938 
L 104.642156 261.408603 
L 105.119967 262.519636 
L 105.167749 263.445496 
L 104.976624 264.88058 
L 104.833281 266.500835 
L 104.928843 267.195231 
L 105.167749 267.79704 
L 105.788903 268.306263 
L 107.3179 268.7229 
L 109.898081 269.556175 
L 112.096014 270.574621 
L 113.386104 271.77824 
L 113.577229 272.24117 
L 113.62501 272.842979 
L 113.481667 274.463235 
L 113.433886 275.296509 
L 113.290542 277.842625 
L 113.099418 280.157276 
L 113.099418 281.175723 
L 113.19498 282.147876 
L 113.863916 283.397788 
L 115.536256 285.388388 
L 118.068656 288.119676 
L 120.027683 290.063983 
L 121.17443 291.036136 
L 122.368959 291.637945 
L 123.897955 291.823118 
L 127.385978 292.100876 
L 132.594122 292.054583 
L 135.986583 291.823118 
L 137.993391 291.776824 
L 138.901232 291.869411 
L 140.143542 292.239755 
L 141.099165 292.656392 
L 141.863663 292.887857 
L 142.771505 292.887857 
L 143.870471 292.841564 
L 145.303905 292.47122 
L 146.402871 291.684238 
L 147.406275 290.388034 
L 148.075211 289.739932 
L 148.744147 289.323294 
L 149.460864 289.138122 
L 150.607611 289.138122 
L 152.757763 289.55476 
L 156.150223 290.434327 
L 159.494903 291.082429 
L 162.935145 291.776824 
L 165.563108 292.00829 
L 167.187666 292.100876 
L 168.860006 292.563806 
L 173.255871 294.693285 
L 174.4504 295.017336 
L 176.457207 295.063629 
L 179.754106 295.109922 
L 182.42985 295.156215 
L 184.723344 295.202508 
L 186.20456 295.063629 
L 186.921277 294.693285 
L 187.876899 293.767424 
L 188.975866 292.286048 
L 190.743768 289.230708 
L 191.986077 286.453127 
L 192.9417 284.231062 
L 193.515074 283.212616 
L 194.327353 282.471927 
L 194.757383 282.101583 
L 195.951912 281.59236 
L 198.962124 280.6665 
L 201.303399 279.972104 
L 204.026924 279.13883 
L 206.272638 278.305556 
L 209.28285 277.101937 
L 211.050752 276.268663 
L 212.006374 275.62056 
L 213.965401 274.046598 
L 217.071175 271.407896 
L 218.170141 270.528328 
L 219.125764 270.944965 
L 220.702542 271.685654 
L 221.944851 271.963412 
L 225.050625 272.009705 
L 225.719561 272.102291 
L 226.340716 272.287463 
L 226.91409 273.074444 
L 227.487463 274.463235 
L 228.060837 276.500128 
L 228.825335 278.444435 
L 229.542052 280.110983 
L 230.497675 281.453481 
L 231.835547 282.981151 
L 233.2212 284.231062 
L 234.129042 285.018044 
L 235.514695 286.545713 
L 236.470317 288.304848 
L 237.234816 289.55476 
L 239.52831 289.230708 
L 242.777428 288.860364 
L 244.54533 288.49002 
L 246.456575 287.888211 
L 248.702289 287.332695 
L 249.705693 287.378988 
L 250.900221 287.471574 
L 252.668123 288.073383 
L 253.958214 288.999243 
L 256.777301 291.823118 
L 258.83189 293.952596 
L 260.0742 295.433973 
L 260.886479 296.498713 
L 260.982041 296.961643 
L 260.982041 299.739224 
L 261.507634 300.942843 
L 262.463257 302.053875 
L 263.610004 302.840856 
L 265.425687 303.442666 
L 267.862525 303.766717 
L 270.920518 304.229647 
L 273.405137 304.73887 
L 275.746413 305.664731 
L 278.804406 307.099814 
L 282.674678 309.229293 
L 285.063735 310.895842 
L 286.067139 311.729116 
L 286.831637 312.377219 
L 287.261668 312.608684 
L 287.691698 312.654977 
L 288.312853 312.654977 
L 289.4596 311.914288 
L 292.039781 310.016275 
L 293.998808 308.673777 
L 295.049993 308.164554 
L 296.005616 308.025675 
L 296.961239 308.025675 
L 298.585797 308.396019 
L 299.923669 308.766363 
L 300.927073 308.72007 
L 310.148833 306.960935 
L 313.636856 306.312833 
L 315.022509 305.849903 
L 317.316004 304.368526 
L 320.039529 303.211201 
L 322.141899 302.239047 
L 322.141899 301.405773 
L 321.568525 299.183708 
L 321.234057 297.748624 
L 320.135091 295.017336 
L 319.466155 293.39708 
L 319.227249 292.563806 
L 319.27503 291.036136 
L 319.705061 290.01769 
L 321.234057 288.073383 
L 323.04974 286.453127 
L 324.913205 285.249509 
L 326.82445 283.860718 
L 325.821046 280.481328 
L 325.008767 277.425988 
L 322.380804 267.426696 
L 322.285242 266.963766 
L 322.18968 266.223077 
L 322.18968 265.297217 
L 322.715272 264.047305 
L 323.479771 263.075152 
L 324.435393 262.28817 
L 326.107733 261.778947 
L 327.923417 261.454896 
L 329.500194 261.084552 
L 330.216911 260.575329 
L 331.650345 258.90878 
L 332.558187 257.612575 
L 333.08378 256.316371 
L 333.227123 254.92758 
L 332.940436 254.094306 
L 331.84147 251.687069 
L 331.172534 249.835348 
L 331.029191 247.613283 
L 331.029191 246.64113 
L 332.988217 240.067521 
L 333.322685 239.419418 
L 334.756119 237.15106 
L 335.61618 235.76227 
L 336.715146 234.651237 
L 337.622988 234.280893 
L 338.913078 234.003135 
L 340.298731 234.142014 
L 342.878913 234.651237 
L 344.885721 234.882702 
L 346.414717 234.882702 
L 347.609246 234.512358 
L 349.233804 233.216154 
L 350.762801 231.642191 
L 352.291797 230.484865 
L 353.438545 229.883056 
L 354.680854 229.512712 
L 356.974349 228.86461 
L 358.790032 228.40168 
L 360.032342 228.170214 
L 360.844621 227.753577 
L 361.6569 226.920303 
L 362.086931 225.531512 
L 362.516961 223.633498 
L 362.946991 222.244708 
L 363.32924 221.272554 
L 364.237082 219.837471 
L 364.619331 219.235661 
L 366.100546 217.383941 
L 366.578358 216.643252 
L 366.769482 216.041443 
L 366.769482 214.837825 
L 366.626139 213.680499 
L 366.052765 212.01395 
L 365.43161 210.393695 
L 365.288267 209.977057 
L 363.424802 204.977411 
L 362.421399 201.505435 
L 361.895806 199.468542 
L 361.465776 198.635267 
L 360.79684 197.848286 
L 360.36681 196.783547 
L 359.936779 195.487342 
L 359.793436 194.700361 
L 359.793436 194.283723 
L 360.080123 193.635621 
L 360.653496 193.033812 
L 361.035746 192.663468 
L 365.288267 189.608128 
L 366.530576 188.358217 
L 367.581762 187.154598 
L 368.489603 186.089859 
L 368.967415 185.302878 
L 369.158539 184.377017 
L 369.20632 183.775208 
L 369.110758 183.03452 
L 368.537384 181.830901 
L 368.250697 180.997627 
L 367.964011 180.118059 
L 367.91623 179.331078 
L 367.964011 177.710822 
L 368.394041 176.553497 
L 368.680728 176.183153 
L 369.110758 175.812808 
L 375.991242 169.841009 
L 377.137989 169.146613 
L 378.332518 168.683683 
L 379.049235 168.591097 
L 379.67039 168.63739 
L 380.769356 169.192906 
L 382.441696 170.720576 
L 383.492881 171.322385 
L 385.021877 171.924195 
L 396.154882 175.99798 
L 396.871599 176.183153 
L 398.018347 176.368325 
L 399.165094 176.229446 
L 400.694091 175.812808 
L 401.888619 175.673929 
L 405.902235 175.349878 
L 407.144544 175.257292 
L 407.909042 175.349878 
L 408.864665 175.53505 
L 409.48582 175.812808 
L 410.154756 176.553497 
L 410.775911 177.294185 
L 411.014816 177.571943 
L 411.349284 177.895994 
L 411.827096 178.127459 
L 412.687156 178.59039 
L 414.598402 179.099613 
L 416.318523 179.145906 
L 417.321927 178.960734 
L 419.758765 178.312631 
L 423.294569 177.06272 
L 425.922532 175.53505 
L 428.120464 173.451864 
L 428.884962 172.433418 
L 429.697242 171.368678 
L 430.222834 170.257646 
L 430.557302 169.563251 
L 432.038517 167.71153 
L 435.526541 164.285846 
L 439.492375 160.304646 
L 442.120338 157.897409 
L 445.369455 154.749484 
L 446.086172 153.91621 
L 446.755108 152.85147 
L 447.041795 151.740438 
L 446.994014 150.953456 
L 446.659546 149.888717 
L 446.038391 148.777684 
L 444.461613 147.064843 
L 442.64593 145.352001 
L 435.813227 139.287615 
L 431.082895 136.417448 
L 428.35937 135.07495 
L 426.782592 134.102797 
L 426.257 133.593574 
L 425.492501 132.62142 
L 425.205815 131.69556 
L 425.158033 130.954872 
L 425.205815 129.982718 
L 425.874751 128.825393 
L 427.212622 127.390309 
L 430.222834 124.473849 
L 432.277423 123.223937 
L 434.475356 122.436956 
L 437.246662 121.788854 
L 446.659546 120.35377 
L 448.809697 120.029719 
L 450.338694 120.122305 
L 452.154377 120.35377 
L 453.683373 120.400063 
L 454.830121 120.261184 
L 461.806167 119.196444 
L 464.05188 117.807654 
L 464.720816 117.205844 
L 465.341971 116.511449 
L 465.72422 115.307831 
L 465.915345 113.91904 
L 466.202032 113.317231 
L 466.679843 112.622835 
L 471.840206 108.039826 
L 473.27364 107.113966 
L 474.898199 106.326985 
L 475.662697 105.910347 
L 480.775279 103.179059 
L 481.635339 102.947594 
L 484.358864 101.188459 
L 485.983423 99.984841 
L 489.997039 97.299846 
L 492.529439 95.67959 
L 494.153998 94.614851 
L 496.734179 93.503818 
L 499.409923 92.068734 
L 504.952535 89.059688 
L 507.150467 88.133828 
L 507.867184 87.902363 
L 508.344996 87.85607 
L 508.870588 87.948656 
L 509.252837 88.133828 
L 509.635086 88.457879 
L 509.921773 88.735637 
L 510.351804 88.828223 
L 510.63849 88.735637 
L 521.198122 84.754437 
L 524.829489 82.069442 
L 527.935263 79.199275 
L 559.566376 48.460709 
L 561.859871 46.192351 
L 576.672024 30.869361 
L 588.091716 19.018348 
L 591.961988 21.842222 
L 611.456693 35.915301 
L 628.992371 48.831053 
L 647.483671 60.543187 
L 666.070534 72.116443 
L 676.200135 78.504879 
L 691.155632 87.624604 
L 701.667482 93.318646 
L 714.090578 98.642343 
L 720.779938 102.438371 
L 732.056286 109.706375 
L 736.738838 114.150505 
L 737.837804 116.37257 
L 737.981148 121.74256 
L 736.882181 124.659021 
L 734.445343 128.732807 
L 733.394158 132.15849 
L 733.824189 137.389601 
L 735.353185 147.620359 
L 736.499932 156.508619 
L 737.742242 160.304646 
L 737.742242 162.295246 
L 736.786619 163.961795 
L 733.967532 166.600497 
L 732.056286 168.961441 
L 731.100664 171.877902 
L 731.674037 175.951687 
L 732.056286 177.664529 
L 733.489721 184.052966 
L 734.397562 187.062012 
L 734.397562 191.645021 
L 734.302 193.728207 
L 733.346377 195.857686 
L 731.960724 197.153891 
L 730.431728 199.051905 
L 729.428324 201.829486 
L 729.093856 204.329309 
L 731.339569 203.310862 
L 733.250815 202.940518 
L 734.779811 203.496035 
L 736.165464 205.625513 
L 739.462363 213.958257 
L 742.520356 219.467127 
L 748.684123 230.114521 
L 755.182357 239.60459 
L 760.820532 248.585436 
L 765.837551 255.112752 
L 773.291409 265.436096 
L 781.223078 274.972458 
L 790.11037 285.480974 
L 801.912311 299.970689 
L 807.072674 305.479559 
L 815.386592 313.488251 
L 826.567378 324.367111 
L 829.529809 327.931673 
L 830.103183 329.366757 
L 830.246526 330.801841 
L 830.055402 331.86658 
L 828.71753 334.088645 
L 831.871085 333.764594 
L 834.116798 333.949766 
L 837.413697 334.78304 
L 840.089441 336.31071 
L 843.43412 340.153031 
L 849.3112 347.282156 
L 857.147307 356.216709 
L 865.604569 364.271694 
L 877.215385 375.474605 
L 884.14365 381.631577 
L 897.379026 393.945521 
L 904.116166 399.639562 
L 915.440296 409.499975 
L 924.900962 417.416082 
L 943.774511 433.711225 
L 959.016695 447.321373 
L 972.347632 458.015061 
L 975.405625 460.60747 
L 979.036992 463.616516 
L 994.852548 475.791581 
L 1000.634066 480.004246 
L 1006.081116 484.679841 
L 1008.565735 487.27225 
L 1011.337041 490.281296 
L 1013.630536 492.503361 
L 1016.688529 494.771719 
L 1024.906885 499.493607 
L 1028.872719 501.715672 
L 1033.316365 504.493253 
L 1037.951135 508.289281 
L 1051.234292 517.547885 
L 1058.544806 522.454945 
L 1066.572037 528.148987 
L 1069.2 530.139587 
" clip-path="url(#p6c3c1f5e35)"/>
    <path d="M 1017.357465 34.943147 
L 1013.917223 36.933747 
L 1009.043547 36.007887 
L 1005.84221 33.878408 
L 1002.210844 30.452724 
L 1000.39516 23.64765 
L 1000.681847 20.546018 
L 1003.30981 16.935162 
L 1008.422392 15.3612 
L 1012.292664 15.592665 
L 1014.968408 17.074041 
L 1019.555397 22.397739 
L 1020.94105 25.591957 
L 1020.94105 28.369538 
L 1020.128771 31.980394 
L 1017.357465 34.943147 
" clip-path="url(#p6c3c1f5e35)"/>
   </g>
  </g>
 </g>
 <defs>
  <clipPath id="p6c3c1f5e35">
   <rect x="10.8" y="15.3612" width="1058.4" height="1049.277601"/>
  </clipPath>
 </defs>
</svg>
