<?xml version="1.0" encoding="utf-8" standalone="no"?>
<!DOCTYPE svg PUBLIC "-//W3C//DTD SVG 1.1//EN"
  "http://www.w3.org/Graphics/SVG/1.1/DTD/svg11.dtd">
<svg xmlns:xlink="http://www.w3.org/1999/xlink" width="1080pt" height="1080pt" viewBox="0 0 1080 1080" xmlns="http://www.w3.org/2000/svg" version="1.1">
 <metadata>
  <rdf:RDF xmlns:dc="http://purl.org/dc/elements/1.1/" xmlns:cc="http://creativecommons.org/ns#" xmlns:rdf="http://www.w3.org/1999/02/22-rdf-syntax-ns#">
   <cc:Work>
    <dc:type rdf:resource="http://purl.org/dc/dcmitype/StillImage"/>
    <dc:date>2022-07-01T13:43:28.639982</dc:date>
    <dc:format>image/svg+xml</dc:format>
    <dc:creator>
     <cc:Agent>
      <dc:title>Matplotlib v3.5.1, https://matplotlib.org/</dc:title>
     </cc:Agent>
    </dc:creator>
   </cc:Work>
  </rdf:RDF>
 </metadata>
 <defs>
  <style type="text/css">*{stroke-linejoin: round; stroke-linecap: butt}</style>
 </defs>
 <g id="figure_1">
  <g id="patch_1">
   <path d="M 0 1080 
L 1080 1080 
L 1080 0 
L 0 0 
L 0 1080 
z
" style="fill: none; opacity: 0"/>
  </g>
  <g id="axes_1">
   <g id="PatchCollection_1">
    <path d="M 1067.087792 81.222737 
L 1064.240902 81.445174 
L 1061.302178 81.400687 
L 1057.85836 82.690824 
L 1054.735965 84.559299 
L 1050.695219 87.984835 
L 1046.011627 90.03126 
L 1040.822941 90.698572 
L 1036.828113 90.120235 
L 1031.823098 88.207273 
L 1021.675315 85.982898 
L 1018.093744 85.271098 
L 1015.476443 84.826223 
L 1014.052998 83.803011 
L 1009.644911 75.083463 
L 1009.323488 72.636651 
L 1010.012252 71.302026 
L 1013.134646 68.988676 
L 1015.15502 67.031227 
L 1018.598837 65.118264 
L 1024.751792 63.872615 
L 1032.465944 63.42774 
L 1040.455601 63.96159 
L 1046.011627 64.406465 
L 1050.695219 64.406465 
L 1054.230872 65.296214 
L 1059.052217 66.274939 
L 1063.460304 67.342639 
L 1067.409215 67.698539 
L 1068.603072 68.232389 
L 1069.2 69.522526 
L 1068.740824 71.613438 
L 1067.86839 74.193713 
L 1067.776555 75.795263 
L 1068.373484 78.286562 
L 1068.006143 80.244012 
L 1067.087792 81.222737 
" clip-path="url(#pda21d36a1d)"/>
    <path d="M 996.925744 1011.456199 
L 996.604321 1011.144786 
L 993.481926 1009.231824 
L 989.808521 1007.585787 
L 986.869796 1005.628337 
L 983.288226 1001.268563 
L 980.211748 998.554826 
L 976.767931 996.152501 
L 972.727184 993.750177 
L 970.1558 991.57029 
L 967.033406 987.65539 
L 965.793631 986.498716 
L 963.084495 985.920378 
L 961.247792 984.719216 
L 958.676408 981.827529 
L 955.645848 977.690192 
L 953.992816 974.976455 
L 953.579557 972.529643 
L 954.360156 969.015131 
L 955.921354 964.610869 
L 956.013189 961.40777 
L 955.462178 954.423234 
L 954.727497 950.374872 
L 951.191844 944.280085 
L 946.462334 937.206574 
L 943.753197 932.8468 
L 940.906308 930.577938 
L 937.692078 929.421263 
L 933.88092 926.440601 
L 931.952382 924.127251 
L 926.855531 916.920278 
L 922.217857 911.003441 
L 916.248573 906.510205 
L 912.437414 904.46378 
L 910.692547 904.196855 
L 908.121163 905.131092 
L 905.182438 905.842892 
L 902.060043 905.753917 
L 898.570308 903.75198 
L 896.4581 901.082731 
L 894.483644 900.148493 
L 891.453085 900.682343 
L 887.412338 901.927993 
L 880.432868 902.951205 
L 876.759462 902.817743 
L 873.407479 901.349655 
L 867.438195 895.432819 
L 864.040295 892.541132 
L 858.622022 887.869945 
L 855.499627 886.579808 
L 853.571089 886.89122 
L 850.632364 890.672657 
L 841.678438 884.266458 
L 836.306082 880.751947 
L 832.219419 876.748072 
L 829.097024 874.034335 
L 825.01036 872.833173 
L 818.76557 872.076886 
L 814.678907 872.165861 
L 810.362655 873.633948 
L 809.031046 874.12331 
L 803.888278 875.991785 
L 796.449631 878.082697 
L 794.429258 879.105909 
L 793.143566 880.573997 
L 792.592555 882.887346 
L 791.398698 884.355433 
L 789.332408 885.067233 
L 786.07226 885.067233 
L 780.011141 885.645571 
L 774.317362 886.668783 
L 769.771523 887.60302 
L 764.628755 887.380583 
L 759.669657 885.779033 
L 754.297302 882.175546 
L 750.532061 880.307072 
L 744.976035 879.550784 
L 737.215965 879.595272 
L 733.450725 879.684247 
L 731.476269 880.440534 
L 729.639566 883.332221 
L 728.858967 887.42507 
L 728.537544 888.67072 
L 726.700842 889.293545 
L 724.037623 889.20457 
L 721.787662 887.202633 
L 719.124443 879.239372 
L 716.644894 876.881535 
L 713.292911 876.97051 
L 710.400104 879.595272 
L 708.01239 884.399921 
L 704.476738 891.16202 
L 701.354343 895.566281 
L 698.323783 897.523731 
L 694.099367 899.080793 
L 688.405588 901.705555 
L 684.318924 903.440568 
L 679.543497 904.686217 
L 672.150768 905.486992 
L 667.19167 906.198792 
L 658.88059 905.664942 
L 651.901119 905.53148 
L 648.686889 905.086605 
L 644.462473 901.61658 
L 637.942178 896.900906 
L 634.68203 896.545006 
L 632.523905 896.767444 
L 629.631098 899.570156 
L 625.957692 904.063392 
L 623.661813 907.533417 
L 623.34039 910.781004 
L 623.983236 913.939616 
L 626.18728 921.813902 
L 628.437241 929.154338 
L 629.493345 937.206574 
L 630.319861 946.237535 
L 630.503531 952.955146 
L 629.952521 956.825558 
L 628.758664 959.850708 
L 626.141362 962.875857 
L 624.442412 966.345882 
L 623.983236 969.059619 
L 624.396495 974.53158 
L 625.544434 981.249191 
L 626.416868 984.585753 
L 625.957692 986.587691 
L 624.120989 988.90104 
L 620.998594 991.481315 
L 617.325189 993.038377 
L 610.988564 994.906852 
L 605.38662 995.618651 
L 601.391792 996.686351 
L 597.07554 998.955213 
L 594.366403 999.578038 
L 592.208278 999.044188 
L 584.494126 993.216327 
L 576.642221 988.812065 
L 569.203575 984.719216 
L 564.795488 981.738554 
L 561.856764 978.713404 
L 560.662907 976.444542 
L 560.341484 974.53158 
L 561.259835 971.773356 
L 560.754742 970.260781 
L 558.826204 969.460006 
L 556.805831 969.949368 
L 555.336469 972.440668 
L 554.509952 977.601217 
L 553.270178 982.494841 
L 551.020217 987.566415 
L 548.770256 990.814002 
L 544.040746 993.883639 
L 539.357154 995.974551 
L 537.612286 995.752114 
L 535.27049 993.171839 
L 532.423601 990.85849 
L 530.862403 990.458102 
L 529.255289 990.769515 
L 527.694091 992.637989 
L 525.122707 995.930064 
L 524.433944 998.198926 
L 525.306377 1001.179588 
L 525.6278 1003.581913 
L 524.204356 1006.073212 
L 520.209527 1008.520024 
L 514.286161 1010.432986 
L 505.056729 1014.614811 
L 498.123176 1019.06356 
L 490.8682 1023.022947 
L 486.781536 1025.024884 
L 483.750976 1026.270534 
L 482.694872 1026.848871 
L 482.327531 1028.450421 
L 483.337718 1032.498782 
L 485.082586 1038.104206 
L 485.312174 1040.684481 
L 485.449926 1043.442706 
L 484.80708 1045.756055 
L 483.750976 1046.645805 
L 482.327531 1046.645805 
L 479.296972 1045.266693 
L 472.684842 1042.552956 
L 470.848139 1042.330518 
L 469.011436 1043.442706 
L 468.276755 1045.711568 
L 468.322672 1051.272504 
L 462.996234 1053.674829 
L 459.414664 1055.543303 
L 455.833093 1058.924353 
L 452.389275 1063.462077 
L 450.782161 1064.396314 
L 447.935271 1064.262852 
L 443.756772 1062.972715 
L 441.690482 1061.28219 
L 435.813033 1053.719316 
L 432.27738 1048.781205 
L 431.267193 1045.889518 
L 431.772286 1042.419493 
L 432.920226 1037.392407 
L 433.057978 1032.854682 
L 431.313111 1029.340171 
L 426.170343 1026.092584 
L 417.951098 1023.200897 
L 411.155297 1020.798572 
L 406.150282 1018.129322 
L 403.303393 1013.947498 
L 399.76774 1010.344011 
L 396.461675 1008.208612 
L 392.191341 1003.9823 
L 388.977111 1002.5587 
L 383.191497 1002.781138 
L 378.78341 1003.226013 
L 376.441614 1002.291775 
L 374.329406 999.622526 
L 370.059072 994.951339 
L 365.375479 989.301428 
L 361.472486 984.096391 
L 359.268443 981.160216 
L 355.962377 972.841055 
L 353.896087 966.212419 
L 351.692043 960.784945 
L 349.258412 959.09442 
L 345.585007 958.160183 
L 338.054525 958.471595 
L 333.692356 959.98417 
L 330.707714 960.87392 
L 328.228165 960.829433 
L 326.43738 960.073145 
L 323.820078 959.494808 
L 320.651766 959.80622 
L 315.830421 961.496745 
L 310.136642 961.674695 
L 306.646907 961.007383 
L 302.192902 959.27237 
L 298.198074 956.202733 
L 297.004217 953.533484 
L 296.636876 950.107947 
L 297.233805 946.593435 
L 299.667436 941.032499 
L 300.769458 937.740424 
L 301.825562 935.516049 
L 305.085709 932.4909 
L 309.769302 927.552788 
L 313.76413 921.724927 
L 318.264052 916.69784 
L 320.284425 912.249091 
L 322.488469 908.912529 
L 324.462924 905.264555 
L 328.044495 900.104006 
L 330.661796 896.233594 
L 333.187262 890.27227 
L 334.197449 887.380583 
L 334.059696 884.533383 
L 332.222993 882.220034 
L 329.927115 880.974384 
L 326.896555 881.196821 
L 324.187419 880.529509 
L 321.110941 877.415385 
L 317.667124 874.034335 
L 315.46308 871.632011 
L 315.46308 869.318661 
L 316.840607 867.761599 
L 320.468095 865.359274 
L 324.73843 861.844762 
L 329.743445 858.33025 
L 332.957675 854.949201 
L 334.702542 851.390202 
L 336.906586 846.852477 
L 339.753475 839.378579 
L 343.472798 829.724793 
L 345.355419 825.453994 
L 346.962534 821.983969 
L 348.569649 820.02652 
L 351.278785 818.291508 
L 352.564477 816.64547 
L 352.931818 813.842758 
L 351.737961 807.747972 
L 350.130846 804.94526 
L 346.962534 803.032298 
L 344.896243 800.540998 
L 343.564633 795.914299 
L 341.498343 787.595138 
L 339.891228 785.459738 
L 336.906586 783.546776 
L 331.763818 781.500351 
L 327.631236 780.076752 
L 323.911913 778.16379 
L 321.616035 774.96069 
L 319.549744 769.533216 
L 317.345701 764.283692 
L 314.590646 758.589293 
L 311.88151 752.805919 
L 301.917397 756.854281 
L 293.606317 759.301093 
L 285.984 761.48098 
L 277.213744 763.79433 
L 272.713822 764.995492 
L 269.821015 764.550617 
L 268.03023 762.593167 
L 265.963939 756.053506 
L 264.586412 752.494507 
L 262.841544 750.981932 
L 259.765067 750.092182 
L 254.484547 749.647307 
L 251.95908 749.42487 
L 249.755037 748.757557 
L 247.780581 747.600882 
L 244.750022 744.97612 
L 243.877588 742.840721 
L 241.352121 739.949034 
L 239.561336 737.190809 
L 238.642985 734.299122 
L 234.877744 732.964497 
L 231.112503 732.475135 
L 226.888087 732.875522 
L 222.158577 733.320397 
L 218.255584 733.320397 
L 214.674013 732.38616 
L 210.633267 730.07281 
L 206.592521 727.047661 
L 203.240538 726.202399 
L 199.337544 724.022512 
L 198.740616 723.355199 
L 195.342716 719.529275 
L 192.955002 716.504125 
L 188.363245 712.455764 
L 184.460252 708.451889 
L 182.072538 704.581477 
L 178.720555 701.378378 
L 176.56243 699.420928 
L 175.322655 697.152066 
L 173.669623 691.59113 
L 171.878837 688.121105 
L 170.455393 684.695568 
L 167.838091 676.020507 
L 165.909553 668.368659 
L 164.164685 663.119135 
L 163.200416 660.761298 
L 161.363714 658.358973 
L 160.353527 657.647173 
L 158.195401 657.469223 
L 155.669935 658.047561 
L 152.1802 660.049498 
L 150.251662 661.384122 
L 147.863948 661.206173 
L 145.75174 659.64911 
L 144.695636 657.602686 
L 145.292564 649.105575 
L 145.889492 643.678101 
L 145.246646 641.142314 
L 143.915037 639.718714 
L 141.02223 638.562039 
L 138.864104 637.494339 
L 137.256989 635.225477 
L 135.098863 632.645203 
L 132.757067 630.064928 
L 131.104035 628.641328 
L 129.451002 627.751578 
L 127.568382 627.173241 
L 125.042915 625.883104 
L 123.4358 624.948866 
L 121.966438 624.637454 
L 120.451158 624.770916 
L 117.97161 624.815404 
L 115.813484 624.548479 
L 113.42577 623.569754 
L 112.966594 620.81153 
L 111.956408 614.583281 
L 111.956408 611.113256 
L 112.277831 605.90822 
L 111.772738 604.039745 
L 110.21154 602.438195 
L 108.191167 601.192546 
L 106.262629 598.078421 
L 103.369822 589.714773 
L 102.864729 584.509736 
L 100.844356 582.819211 
L 97.079115 580.372399 
L 90.466985 575.256338 
L 86.242568 571.296951 
L 79.40085 567.204101 
L 74.533588 565.380114 
L 72.926473 563.734077 
L 72.60505 559.997128 
L 70.676512 559.730203 
L 69.39082 558.351091 
L 68.656139 555.014529 
L 67.094941 551.766942 
L 64.936816 549.409105 
L 60.482811 546.517418 
L 54.100269 542.291106 
L 49.370759 538.331719 
L 45.651436 532.948732 
L 44.595332 529.879096 
L 44.227991 524.763034 
L 42.804547 521.29301 
L 36.559757 514.441936 
L 32.335341 508.569587 
L 30.957813 505.233025 
L 30.682308 501.763 
L 31.325154 496.424501 
L 30.590473 493.399352 
L 28.156842 490.41869 
L 25.952798 489.084065 
L 23.794672 488.81714 
L 14.38157 483.167229 
L 17.917223 478.407067 
L 19.248833 473.37998 
L 18.146811 469.643031 
L 14.932581 466.173007 
L 13.83056 462.525032 
L 15.621345 455.451521 
L 17.825388 447.265822 
L 17.5958 440.503724 
L 14.427488 433.741625 
L 10.8 428.803513 
L 26.274221 422.486289 
L 31.233319 419.683577 
L 34.447549 415.946628 
L 36.651592 410.163254 
L 37.937284 405.002705 
L 38.304625 403.401155 
L 39.222976 398.240606 
L 37.110768 390.410807 
L 36.376087 384.805383 
L 37.432191 382.002671 
L 37.891367 380.845997 
L 41.79436 376.842122 
L 49.095254 373.016198 
L 54.375774 369.368224 
L 57.498169 365.720249 
L 59.151202 359.580975 
L 62.135844 352.196052 
L 67.140859 343.832403 
L 72.329544 335.468755 
L 79.630438 325.814969 
L 85.737475 320.431982 
L 87.849683 317.540295 
L 88.171106 313.892321 
L 86.839497 308.998697 
L 86.242568 305.706622 
L 88.308859 301.569286 
L 89.04354 298.366186 
L 88.538447 295.919374 
L 85.64564 294.006412 
L 79.676356 292.80525 
L 76.875384 291.73755 
L 76.140703 289.60215 
L 76.783549 286.665976 
L 78.390664 284.841988 
L 79.309015 283.818776 
L 87.849683 277.457065 
L 93.222039 270.383553 
L 95.28833 263.53248 
L 94.691401 259.039243 
L 91.293501 255.836144 
L 86.288486 254.546006 
L 78.758004 253.789719 
L 73.293813 254.412544 
L 70.355089 254.145619 
L 69.253067 252.010219 
L 68.288798 245.737483 
L 65.625579 241.377709 
L 64.202134 237.373834 
L 65.304156 234.882535 
L 70.9061 231.101098 
L 76.967219 226.963761 
L 80.135531 224.161049 
L 87.620095 220.379612 
L 90.053727 217.309975 
L 91.293501 214.106876 
L 92.25777 207.211315 
L 92.028182 202.540128 
L 90.099644 198.669716 
L 86.885414 196.400854 
L 86.104816 194.888279 
L 88.354777 191.68518 
L 93.405709 185.768343 
L 96.390351 181.719982 
L 99.512746 177.449182 
L 103.59941 172.644533 
L 107.869744 170.598108 
L 113.517605 169.930796 
L 119.532807 170.687083 
L 126.374525 171.576833 
L 133.308078 171.932733 
L 139.047774 172.511071 
L 150.113909 173.801208 
L 156.771957 175.847633 
L 158.424989 176.025583 
L 160.629033 176.24802 
L 163.062664 175.269295 
L 171.649249 169.085534 
L 177.159358 166.772184 
L 180.970516 166.149359 
L 185.149015 166.683209 
L 188.776503 168.551684 
L 191.623393 170.642596 
L 194.608035 171.843758 
L 198.235523 171.621321 
L 203.883384 170.197721 
L 205.995592 168.640659 
L 206.40885 165.971409 
L 206.454768 160.855348 
L 210.220009 158.364048 
L 215.546447 160.188035 
L 220.78105 162.189972 
L 224.133033 161.033298 
L 230.653328 155.027486 
L 234.418568 150.222837 
L 235.887931 141.102901 
L 241.627627 140.346614 
L 242.408226 140.257639 
L 244.428599 141.681239 
L 245.16328 151.246049 
L 246.311219 154.360174 
L 249.341779 156.718011 
L 254.392711 158.453023 
L 261.23443 159.164823 
L 267.433302 158.897898 
L 275.560711 158.764436 
L 286.580928 158.497511 
L 293.376729 158.942385 
L 298.611332 159.787648 
L 302.652078 159.654185 
L 307.289753 156.451086 
L 312.524356 151.690924 
L 317.758959 144.083563 
L 323.131315 141.147389 
L 327.631236 140.435589 
L 334.74846 141.592264 
L 340.396321 143.594201 
L 348.064555 146.396913 
L 350.81961 146.841788 
L 353.574664 145.0178 
L 357.477657 138.567114 
L 363.584694 134.474265 
L 370.426412 131.671553 
L 377.222213 130.158978 
L 384.477189 130.336928 
L 389.849544 130.336928 
L 395.772911 126.822416 
L 403.34931 121.350455 
L 410.282863 118.725693 
L 414.782785 118.325305 
L 416.665406 118.147355 
L 423.047948 119.170567 
L 429.843748 119.170567 
L 435.399774 118.05838 
L 438.430334 116.412343 
L 440.77213 112.586419 
L 443.80269 109.783707 
L 452.940286 108.271132 
L 457.302456 106.313682 
L 467.450239 101.686983 
L 477.184764 96.971309 
L 486.781536 93.901672 
L 496.33239 90.698572 
L 503.862872 89.85331 
L 508.225041 90.431647 
L 512.862716 93.412309 
L 518.510577 95.236297 
L 523.010499 94.835909 
L 531.137909 92.87846 
L 536.41843 91.98871 
L 551.112052 88.385223 
L 557.356842 87.71791 
L 562.775115 87.940348 
L 568.744399 87.584448 
L 574.39226 84.915198 
L 578.892182 79.532212 
L 594.641909 60.891953 
L 595.56026 58.356166 
L 597.351046 54.263316 
L 600.47344 56.621153 
L 607.682499 61.47029 
L 620.493501 66.942252 
L 625.774022 68.098926 
L 632.156564 69.166626 
L 634.865701 70.946126 
L 635.462629 74.727563 
L 636.335063 81.489662 
L 638.447271 87.050598 
L 639.0442 91.721785 
L 638.401354 95.547709 
L 636.105475 102.131858 
L 636.702403 109.294344 
L 635.095289 118.369793 
L 635.692217 122.329179 
L 636.564651 123.619317 
L 638.355436 124.953941 
L 640.789067 124.687016 
L 642.717605 124.553554 
L 647.72262 124.242142 
L 652.08479 122.729567 
L 651.947037 122.462642 
L 651.120521 120.54968 
L 649.329735 117.657993 
L 647.079774 114.721818 
L 646.482846 111.073844 
L 648.044043 98.039009 
L 648.686889 91.766272 
L 646.896104 86.650211 
L 643.727792 80.021574 
L 643.452286 73.8823 
L 643.727792 69.922914 
L 645.702247 67.876489 
L 647.952208 67.342639 
L 653.094976 66.897764 
L 660.487705 64.450952 
L 666.962082 61.381315 
L 673.160954 57.021541 
L 677.01803 52.795229 
L 677.339453 50.437392 
L 676.604772 48.124042 
L 672.701779 44.742993 
L 667.283505 38.559232 
L 664.574369 34.466382 
L 663.242759 30.062121 
L 664.298863 26.547609 
L 667.053918 26.280684 
L 668.70695 27.303896 
L 672.426273 32.153033 
L 675.870091 35.667545 
L 679.956755 38.292307 
L 683.26282 39.048594 
L 685.971957 38.336794 
L 691.436148 33.08727 
L 695.201388 31.619183 
L 699.747228 32.108545 
L 702.272694 34.421895 
L 702.272694 36.067932 
L 700.895167 38.247819 
L 697.910525 40.294244 
L 696.670751 42.607593 
L 696.349328 45.410305 
L 697.81869 49.41418 
L 700.344156 53.329079 
L 702.685952 54.797166 
L 704.889996 54.797166 
L 706.543028 54.930629 
L 707.369544 56.042816 
L 707.736885 57.377441 
L 708.104226 60.980928 
L 707.553215 62.938377 
L 704.522655 68.855214 
L 701.813518 73.971275 
L 701.905354 76.951937 
L 704.109397 82.245949 
L 710.354187 93.011922 
L 718.481597 104.40072 
L 722.017249 108.493569 
L 728.767132 113.965531 
L 733.267054 115.567081 
L 736.205779 115.834006 
L 738.409822 114.855281 
L 740.384278 112.897831 
L 743.093414 110.584481 
L 745.527046 109.694732 
L 748.09843 109.872682 
L 750.761649 110.317557 
L 751.817753 111.207306 
L 751.86367 112.363981 
L 751.174907 114.187968 
L 748.787193 116.590293 
L 746.58315 118.191843 
L 745.06787 120.683142 
L 744.746447 123.663804 
L 744.792364 126.599979 
L 745.297458 129.091278 
L 746.812738 131.805015 
L 749.935132 133.67349 
L 754.526889 135.230552 
L 759.256399 136.164789 
L 762.195124 136.031327 
L 765.455271 136.075815 
L 766.60321 136.787614 
L 767.797067 139.278914 
L 767.705232 140.969439 
L 766.924633 141.992651 
L 765.179766 143.104838 
L 764.077744 144.394976 
L 763.526733 146.7973 
L 763.113475 149.244112 
L 761.598195 151.646437 
L 757.603367 155.917236 
L 754.435054 160.45496 
L 752.873857 162.812797 
L 751.037154 166.460772 
L 750.256555 169.218996 
L 750.991236 172.600046 
L 752.185093 174.29057 
L 752.598351 174.868908 
L 756.455427 181.186132 
L 759.853328 186.969506 
L 774.54695 207.611702 
L 778.817284 212.905714 
L 784.097805 218.600113 
L 793.051731 226.919274 
L 798.515922 231.323535 
L 804.852547 234.126247 
L 808.617787 234.882535 
L 809.903479 234.97151 
L 814.862577 233.236497 
L 818.352312 233.236497 
L 827.076651 233.592397 
L 830.520469 235.950235 
L 832.632677 239.598209 
L 834.056121 245.826458 
L 834.561215 249.429945 
L 834.193874 252.633044 
L 832.265336 255.925119 
L 830.658221 257.660131 
L 829.877623 259.08373 
L 828.959271 261.75298 
L 828.454178 265.045054 
L 826.70931 268.426104 
L 824.82669 270.250091 
L 821.291037 273.45319 
L 819.592087 274.52089 
L 817.709466 274.965765 
L 816.148269 274.654353 
L 812.520781 271.495741 
L 811.464677 270.783941 
L 809.811644 270.383553 
L 807.010672 270.828428 
L 804.393371 271.896128 
L 804.577041 273.319728 
L 805.17397 275.811028 
L 806.964755 277.90194 
L 810.684078 280.348752 
L 811.648347 281.594402 
L 811.648347 282.751076 
L 810.408573 283.996726 
L 807.607601 285.553788 
L 806.184156 286.132126 
L 805.311722 286.043151 
L 804.898464 285.820713 
L 804.393371 285.019938 
L 804.02603 282.261714 
L 803.199514 281.149527 
L 801.316894 280.215289 
L 798.837345 279.903877 
L 797.367983 280.081827 
L 794.153753 281.105039 
L 790.80177 282.484151 
L 788.597727 283.863264 
L 786.852859 285.598276 
L 784.878403 287.6447 
L 783.592711 289.824588 
L 782.30702 292.894225 
L 780.608069 297.787849 
L 779.597883 303.571223 
L 779.230542 307.886509 
L 779.27646 315.360408 
L 780.148894 324.435857 
L 781.572338 333.06643 
L 783.317206 339.517116 
L 783.776382 344.366253 
L 783.454959 346.01229 
L 782.031514 346.590628 
L 782.352937 350.950402 
L 782.628443 354.820814 
L 783.041701 356.066463 
L 782.949866 358.913663 
L 782.031514 367.010387 
L 782.49069 374.662235 
L 785.475332 388.497845 
L 786.806941 394.637119 
L 788.414056 403.801543 
L 788.000798 405.26963 
L 787.266117 406.426305 
L 786.118178 407.582979 
L 785.659002 408.606192 
L 785.70492 409.629404 
L 786.347766 410.207741 
L 788.827315 411.053004 
L 789.194655 412.120704 
L 789.10282 419.238702 
L 789.194655 424.710664 
L 789.791584 430.583013 
L 794.061918 448.511472 
L 798.791427 468.308406 
L 810.867748 512.795899 
L 820.831861 539.621856 
L 835.295896 581.306637 
L 849.20892 613.738018 
L 849.346672 614.004943 
L 861.560746 643.010788 
L 878.228824 680.558232 
L 884.335861 691.41318 
L 899.488659 716.281688 
L 901.876373 720.819412 
L 903.207983 727.403561 
L 904.539592 732.38616 
L 907.661987 738.703384 
L 916.753666 752.227582 
L 943.339939 797.070974 
L 958.44682 818.78087 
L 972.681267 839.867941 
L 980.808677 852.146489 
L 987.971818 860.6436 
L 991.277883 864.336062 
L 992.425822 867.850574 
L 992.563575 870.920211 
L 990.910542 872.966635 
L 989.395262 875.146523 
L 989.533015 880.129122 
L 993.849267 890.09432 
L 998.165518 896.278081 
L 999.313458 902.417355 
L 998.395106 905.664942 
L 995.961475 909.134967 
L 992.196234 910.469591 
L 989.533015 909.846766 
L 987.74223 907.488929 
L 986.869796 901.216193 
L 987.099384 887.869945 
L 985.170846 881.864134 
L 982.323957 879.506297 
L 979.477067 879.372834 
L 978.420963 880.529509 
L 978.375046 883.465684 
L 981.176017 898.368993 
L 981.589275 905.575967 
L 979.752573 911.715241 
L 977.594447 919.72299 
L 977.548529 926.752014 
L 979.477067 942.811998 
L 983.747401 959.361345 
L 984.895341 970.794631 
L 985.905527 982.628304 
L 987.512642 992.015165 
L 993.252338 1002.2028 
L 995.915557 1006.340137 
L 997.38492 1008.697974 
L 997.247167 1011.189274 
L 996.925744 1011.456199 
" clip-path="url(#pda21d36a1d)"/>
    <path d="M 999.175705 24.011822 
L 995.640052 24.323234 
L 993.022751 23.566947 
L 991.966646 21.520522 
L 992.012564 18.851273 
L 994.078855 17.11626 
L 998.946117 15.603686 
L 1001.104243 15.692661 
L 1002.344017 16.048561 
L 1003.446039 16.76036 
L 1003.767462 18.00601 
L 1003.81338 20.49731 
L 1002.252182 22.632709 
L 999.175705 24.011822 
" clip-path="url(#pda21d36a1d)"/>
   </g>
  </g>
 </g>
 <defs>
  <clipPath id="pda21d36a1d">
   <rect x="10.8" y="15.603686" width="1058.4" height="1048.792629"/>
  </clipPath>
 </defs>
</svg>
