<?xml version="1.0" encoding="utf-8" standalone="no"?>
<!DOCTYPE svg PUBLIC "-//W3C//DTD SVG 1.1//EN"
  "http://www.w3.org/Graphics/SVG/1.1/DTD/svg11.dtd">
<svg xmlns:xlink="http://www.w3.org/1999/xlink" width="1080pt" height="1080pt" viewBox="0 0 1080 1080" xmlns="http://www.w3.org/2000/svg" version="1.1">
 <metadata>
  <rdf:RDF xmlns:dc="http://purl.org/dc/elements/1.1/" xmlns:cc="http://creativecommons.org/ns#" xmlns:rdf="http://www.w3.org/1999/02/22-rdf-syntax-ns#">
   <cc:Work>
    <dc:type rdf:resource="http://purl.org/dc/dcmitype/StillImage"/>
    <dc:date>2022-07-01T13:43:29.192766</dc:date>
    <dc:format>image/svg+xml</dc:format>
    <dc:creator>
     <cc:Agent>
      <dc:title>Matplotlib v3.5.1, https://matplotlib.org/</dc:title>
     </cc:Agent>
    </dc:creator>
   </cc:Work>
  </rdf:RDF>
 </metadata>
 <defs>
  <style type="text/css">*{stroke-linejoin: round; stroke-linecap: butt}</style>
 </defs>
 <g id="figure_1">
  <g id="patch_1">
   <path d="M 0 1080 
L 1080 1080 
L 1080 0 
L 0 0 
L 0 1080 
z
" style="fill: none; opacity: 0"/>
  </g>
  <g id="axes_1">
   <g id="PatchCollection_1">
    <path d="M 619.378628 133.137641 
L 619.598133 133.456645 
L 625.250397 140.634223 
L 627.664956 143.771091 
L 632.274568 149.725822 
L 637.103686 155.308383 
L 640.890154 160.890944 
L 642.316939 164.718986 
L 645.115632 171.79023 
L 654.389734 183.699693 
L 665.365002 197.735847 
L 674.309846 205.870435 
L 694.50434 226.499327 
L 707.619785 237.823951 
L 718.924312 248.032062 
L 726.387494 257.176829 
L 734.673822 268.979958 
L 737.088381 272.116825 
L 744.057676 281.10209 
L 748.722165 284.930132 
L 750.313579 286.206146 
L 754.429305 288.917675 
L 765.733831 293.171055 
L 776.599347 298.753616 
L 788.727018 307.738881 
L 790.64769 309.121229 
L 801.513206 317.787491 
L 803.872888 319.648344 
L 813.311619 331.345139 
L 814.409146 332.727487 
L 822.969855 342.563428 
L 830.158656 350.910686 
L 830.597667 351.442358 
L 831.14643 351.974031 
L 836.030425 356.386912 
L 846.566682 365.957017 
L 859.297993 379.036159 
L 878.9986 401.579072 
L 889.370229 412.425191 
L 897.272422 420.028107 
L 898.150443 420.878783 
L 915.326738 436.244117 
L 925.20448 445.814222 
L 942.106393 461.604894 
L 943.533178 462.827741 
L 966.142231 482.127452 
L 990.068315 502.384173 
L 1012.622492 517.962176 
L 1014.982175 519.23819 
L 1025.024545 524.767584 
L 1029.579281 527.266444 
L 1047.30434 536.836549 
L 1058.169855 544.226796 
L 1067.498833 550.181528 
L 1069.2 551.457542 
L 1053.395614 564.324016 
L 1051.035931 574.85113 
L 1043.572748 592.130486 
L 1034.573028 611.961869 
L 1026.286701 625.094179 
L 1021.841717 631.686918 
L 1017.122352 639.449336 
L 1006.970229 649.60428 
L 1002.250863 653.804492 
L 995.665702 657.632534 
L 989.464676 660.450398 
L 982.550257 664.437942 
L 979.532058 664.650611 
L 976.843117 663.480931 
L 953.465796 669.595165 
L 932.942044 675.018224 
L 933.271302 679.218437 
L 932.612786 684.854165 
L 930.033598 696.33829 
L 927.344657 708.460423 
L 924.381335 716.010172 
L 919.881475 723.134583 
L 908.412319 737.489739 
L 895.571255 753.652583 
L 892.114046 759.394645 
L 889.534858 764.392367 
L 887.99832 769.33692 
L 886.022772 771.888948 
L 882.400933 772.739624 
L 876.858423 775.185318 
L 872.303686 778.162684 
L 870.492767 779.545032 
L 868.297713 786.509941 
L 866.322165 792.783676 
L 872.029305 785.818767 
L 872.85245 785.18076 
L 873.510966 785.233927 
L 875.651143 786.988447 
L 877.462063 787.945457 
L 883.553336 789.540474 
L 886.077648 790.01898 
L 889.754363 790.284816 
L 898.369949 790.178481 
L 902.595427 791.348161 
L 903.528325 792.464673 
L 906.217266 795.282537 
L 909.89398 802.56645 
L 909.948857 804.001966 
L 908.576948 812.98723 
L 906.6014 820.217976 
L 906.272142 825.960039 
L 908.467196 831.648934 
L 908.906206 835.476976 
L 908.24769 837.71 
L 901.827158 847.599108 
L 899.083341 850.576474 
L 896.888287 852.437328 
L 876.14503 869.982519 
L 868.901353 874.02323 
L 858.474848 877.904439 
L 846.511806 885.082017 
L 844.810639 885.507355 
L 843.383854 885.507355 
L 841.463182 885.188352 
L 840.804666 885.241519 
L 839.597387 885.188352 
L 837.073075 885.61369 
L 835.536538 886.517533 
L 833.39636 888.591056 
L 829.994027 891.568422 
L 828.018479 893.003937 
L 825.658796 893.801446 
L 823.902753 893.801446 
L 819.073635 893.216606 
L 816.00056 892.791268 
L 810.842184 892.738101 
L 802.720485 892.684934 
L 798.769389 892.312763 
L 797.452357 891.089916 
L 796.958469 889.494899 
L 795.860943 888.165718 
L 794.324405 888.165718 
L 791.690341 888.431554 
L 787.025852 889.654401 
L 772.703126 895.130627 
L 737.033504 906.242582 
L 714.643957 913.42016 
L 681.608399 924.532115 
L 659.438357 931.816028 
L 641.054783 937.770759 
L 627.061316 942.927982 
L 616.79944 946.862359 
L 609.391134 949.414387 
L 586.013812 956.432463 
L 571.361829 961.004846 
L 550.673448 967.757087 
L 527.515632 975.732174 
L 496.730005 986.365623 
L 481.419505 992.107686 
L 480.431731 992.479857 
L 473.352683 995.244554 
L 463.529818 999.285264 
L 451.182641 1004.601989 
L 421.110406 1017.043125 
L 407.55595 1022.040846 
L 405.74503 1022.891522 
L 404.647503 1019.276149 
L 398.940364 1000.242275 
L 396.525805 992.373522 
L 396.141671 990.67217 
L 395.373402 987.269466 
L 394.660009 984.132599 
L 403.659729 977.805696 
L 403.385348 977.008188 
L 399.324498 954.093104 
L 393.397853 926.924641 
L 392.958843 924.904286 
L 392.629585 922.777596 
L 392.190574 920.331902 
L 390.873542 914.058167 
L 389.391881 907.465429 
L 388.897993 905.072902 
L 387.74559 899.596676 
L 385.001773 891.143084 
L 387.965096 889.494899 
L 391.80644 887.368209 
L 395.647783 885.241519 
L 398.611106 883.593335 
L 401.135418 882.157819 
L 401.574428 881.94515 
L 404.263369 880.669136 
L 406.95231 879.393122 
L 408.104713 878.86145 
L 408.818105 878.542446 
L 410.299767 877.904439 
L 412.275315 877.053763 
L 416.061783 875.511913 
L 418.915352 874.60807 
L 421.49454 873.810561 
L 424.018852 873.06622 
L 426.872422 872.162376 
L 428.024825 871.790206 
L 431.536911 870.673694 
L 433.786841 869.929352 
L 435.433131 869.39768 
L 435.927018 869.238178 
L 437.683061 868.440669 
L 438.067196 868.174833 
L 438.45133 867.908997 
L 438.945217 867.536826 
L 439.658609 866.951986 
L 439.932991 866.68615 
L 441.085394 865.463303 
L 442.567056 863.868286 
L 442.896314 863.549282 
L 444.487727 862.379603 
L 445.914512 861.901098 
L 447.286421 861.954265 
L 448.548577 862.273268 
L 449.207093 862.43277 
L 449.755856 862.911275 
L 451.127765 858.817397 
L 451.786281 856.424871 
L 451.786281 853.713342 
L 451.34727 851.267648 
L 449.865609 848.662453 
L 447.121792 845.312917 
L 443.829211 841.644377 
L 441.74391 838.986014 
L 441.250023 836.274485 
L 441.524405 834.679467 
L 442.512179 833.616122 
L 445.859636 831.5426 
L 446.84741 830.95776 
L 446.957163 829.78808 
L 446.024265 828.618401 
L 438.45133 823.195342 
L 435.323378 821.387655 
L 435.048997 820.536979 
L 435.103873 816.65577 
L 434.939244 813.997408 
L 433.457583 810.754206 
L 430.000373 806.288157 
L 426.213906 802.353781 
L 424.787121 801.715774 
L 422.756696 801.822108 
L 420.397014 803.204457 
L 418.037331 805.224812 
L 416.775175 806.713495 
L 412.275315 817.984952 
L 411.397294 819.154631 
L 410.683901 819.579969 
L 409.147364 819.633136 
L 407.336444 819.3673 
L 404.263369 817.24061 
L 402.232944 815.751927 
L 400.037891 815.060753 
L 398.55623 815.007586 
L 396.909939 815.911429 
L 396.525805 817.187443 
L 396.690434 819.633136 
L 397.568455 823.514345 
L 397.568455 825.587868 
L 397.294074 827.342387 
L 395.263649 832.552777 
L 394.111246 836.487154 
L 393.342977 841.00637 
L 392.958843 844.515408 
L 392.684461 846.376262 
L 391.971069 847.439607 
L 390.928418 848.237115 
L 389.830891 848.396617 
L 387.910219 848.34345 
L 385.276155 848.396617 
L 380.776295 847.067436 
L 371.886328 843.292561 
L 365.026785 840.581032 
L 359.539151 838.401175 
L 357.179468 837.178328 
L 356.081941 836.061816 
L 353.777135 832.074272 
L 352.514979 830.798258 
L 351.472329 830.107084 
L 349.990667 830.053917 
L 347.027345 830.479255 
L 345.271302 827.767725 
L 342.692114 824.418189 
L 337.917872 818.622959 
L 335.558189 815.273422 
L 345.929818 805.969154 
L 345.545684 805.65015 
L 342.911619 803.470293 
L 340.990947 802.725952 
L 339.180028 802.725952 
L 338.741017 802.938621 
L 337.478861 803.204457 
L 333.582641 797.994067 
L 332.70462 796.877555 
L 331.168082 794.538196 
L 330.235184 793.10268 
L 328.479141 790.869656 
L 322.003733 792.783676 
L 321.45497 792.677342 
L 320.796454 792.677342 
L 320.192814 793.049513 
L 318.546524 792.890011 
L 316.186841 792.358338 
L 313.991787 791.773499 
L 311.138217 792.14567 
L 309.327298 792.571007 
L 302.577508 794.910366 
L 296.431358 796.664886 
L 296.1021 796.77122 
L 293.797294 797.621896 
L 292.260756 798.844743 
L 291.60224 799.323248 
L 290.39496 800.492927 
L 288.419412 803.417126 
L 287.815772 805.703318 
L 286.827998 806.81983 
L 285.620719 807.032499 
L 283.754923 806.660328 
L 281.834251 805.756485 
L 280.517219 805.171645 
L 280.681848 812.880896 
L 280.023332 813.731572 
L 278.486794 813.997408 
L 272.944284 815.007586 
L 271.297993 814.901251 
L 269.651703 813.678405 
L 268.224918 813.253067 
L 266.688381 813.678405 
L 265.755483 814.848084 
L 265.096967 816.65577 
L 264.657956 816.549436 
L 262.462902 816.389934 
L 259.609333 816.868439 
L 255.164349 820.32431 
L 254.121699 820.430645 
L 253.133924 820.271143 
L 251.762016 819.633136 
L 250.390107 818.729293 
L 249.676715 818.197621 
L 249.347457 817.665948 
L 249.018199 816.177265 
L 248.798693 815.69876 
L 248.304806 815.167088 
L 247.865796 814.794917 
L 247.262156 814.422746 
L 242.54279 809.797196 
L 237.439291 810.966875 
L 237.00028 812.721394 
L 238.701447 816.2836 
L 238.756323 816.815272 
L 238.207559 820.377478 
L 238.097807 821.547157 
L 238.04293 823.301676 
L 237.988054 824.418189 
L 236.780775 831.861603 
L 236.39664 834.307296 
L 236.177135 835.955481 
L 235.957629 836.540321 
L 235.518619 837.071993 
L 234.366216 837.497331 
L 232.939431 837.869502 
L 231.951657 837.975837 
L 230.689501 837.869502 
L 228.713952 837.603666 
L 226.903033 837.018826 
L 224.707979 835.795979 
L 222.89706 835.21114 
L 219.330098 834.573133 
L 217.79356 834.466798 
L 215.927765 834.732634 
L 214.555856 834.998471 
L 211.482781 835.955481 
L 205.391507 828.139896 
L 203.361083 828.83107 
L 199.190481 828.83107 
L 196.391787 827.980394 
L 191.452916 820.430645 
L 190.135884 820.217976 
L 187.776202 820.590147 
L 184.428745 820.802816 
L 181.136164 821.121819 
L 179.050863 821.972495 
L 178.117965 822.07883 
L 174.166869 823.780182 
L 173.3986 824.046018 
L 171.368175 825.268864 
L 167.526832 826.970216 
L 166.703686 826.863882 
L 164.179375 825.960039 
L 158.966122 823.727014 
L 158.746617 823.354844 
L 158.636864 822.185164 
L 158.472235 816.921607 
L 157.429585 815.751927 
L 154.685768 812.934063 
L 151.612692 814.263244 
L 150.240784 814.848084 
L 148.759123 814.954419 
L 147.935978 814.901251 
L 143.820252 813.518903 
L 143.381241 813.306234 
L 140.692301 811.073209 
L 144.259263 805.969154 
L 144.972655 805.012143 
L 145.7958 803.52346 
L 146.234811 802.725952 
L 146.618945 801.077767 
L 146.564069 800.067589 
L 146.454316 798.791575 
L 145.7958 797.462394 
L 142.722725 793.900189 
L 140.088661 793.155847 
L 135.314419 791.826666 
L 129.826785 790.01898 
L 123.680635 788.477129 
L 122.25385 788.051791 
L 117.589361 786.137771 
L 117.040597 786.084603 
L 114.626038 788.423962 
L 112.760243 791.401328 
L 112.540737 792.358338 
L 112.705366 794.378694 
L 112.65049 795.388872 
L 112.485861 796.080046 
L 111.717592 796.452217 
L 111.113952 796.77122 
L 109.687168 797.037056 
L 106.50434 795.22937 
L 96.626598 786.882112 
L 96.29734 786.456774 
L 93.663276 783.426241 
L 92.126738 781.831224 
L 92.620625 780.714711 
L 93.00476 779.651366 
L 93.279141 778.42852 
L 92.840131 777.950015 
L 90.75483 775.823325 
L 87.956136 773.430799 
L 86.200093 775.876492 
L 84.114792 778.534854 
L 83.181895 778.109516 
L 82.19412 777.471509 
L 80.931965 776.727168 
L 79.395427 775.770157 
L 76.267476 774.015638 
L 73.084648 772.154785 
L 72.426132 771.676279 
L 61.780121 790.869656 
L 59.585068 788.583464 
L 58.65217 787.732788 
L 26.878768 751.898063 
L 12.117032 735.522551 
L 10.8 708.779426 
L 11.074382 705.961562 
L 11.184134 704.366544 
L 12.610919 698.890318 
L 14.805973 688.41637 
L 17.879048 657.419865 
L 18.263182 653.060151 
L 19.964349 637.375813 
L 21.171629 626.210691 
L 23.092301 610.526353 
L 25.067849 598.935893 
L 25.561736 595.054684 
L 26.494634 589.418956 
L 27.098273 583.304723 
L 26.439757 577.668995 
L 26.165376 573.628284 
L 25.616612 570.22558 
L 19.79972 557.146437 
L 15.464489 548.58651 
L 14.25721 547.363664 
L 17.440037 543.641956 
L 24.738591 535.028862 
L 29.732338 532.583169 
L 30.610359 530.615981 
L 30.226225 526.043598 
L 30.829865 522.640894 
L 34.177322 520.142033 
L 37.250397 518.28118 
L 40.65273 518.866019 
L 43.835558 522.215556 
L 46.908633 524.023242 
L 51.847503 519.663528 
L 53.329165 515.037977 
L 53.823052 509.721253 
L 54.810826 507.700897 
L 55.633971 507.009723 
L 59.25581 507.541396 
L 67.212879 511.528939 
L 73.468782 517.855842 
L 78.90154 523.066232 
L 80.602706 523.916908 
L 82.19412 524.023242 
L 83.072142 523.544737 
L 84.114792 521.577549 
L 85.04769 517.1115 
L 86.145217 514.612639 
L 89.382921 511.31627 
L 93.334018 506.743887 
L 96.29734 502.331005 
L 98.218012 500.523319 
L 100.083808 500.31065 
L 103.211759 501.108159 
L 105.516566 501.320828 
L 113.418759 501.161326 
L 115.997947 501.108159 
L 119.619785 500.682821 
L 130.869435 499.247305 
L 141.89958 496.004103 
L 146.509193 493.771079 
L 153.75287 493.079904 
L 154.35651 493.026737 
L 157.813719 480.266598 
L 163.026972 478.033573 
L 175.429025 472.823183 
L 181.191041 470.271155 
L 185.690901 482.127452 
L 208.245077 461.817563 
L 220.702007 447.940912 
L 231.348017 440.337995 
L 307.406626 392.487473 
L 336.216706 374.410609 
L 336.545964 374.19794 
L 337.588614 374.623278 
L 339.344657 375.101783 
L 355.862436 365.265842 
L 363.709753 360.640292 
L 364.697527 360.002285 
L 365.959683 359.311111 
L 396.909939 340.702574 
L 418.037331 327.995602 
L 427.476062 320.764856 
L 428.079701 315.979804 
L 429.725992 299.710627 
L 430.439384 297.690271 
L 434.774615 286.206146 
L 441.634158 247.553557 
L 443.829211 241.758327 
L 435.488007 239.631637 
L 437.628185 229.795697 
L 440.426878 218.045735 
L 446.902287 189.441756 
L 449.426598 182.742683 
L 452.499673 174.767596 
L 455.792254 175.884108 
L 460.34699 153.128526 
L 460.731125 151.108171 
L 460.840877 150.416997 
L 463.913952 137.816359 
L 462.542044 132.021129 
L 463.090807 131.117286 
L 463.749323 130.000774 
L 464.023705 129.628603 
L 465.505366 127.289244 
L 467.261409 124.311878 
L 463.420065 122.132021 
L 470.334484 109.744053 
L 469.895474 100.599286 
L 471.651517 89.859502 
L 472.20028 87.892314 
L 481.968269 76.833527 
L 487.785161 71.250966 
L 490.144844 69.921785 
L 492.559403 68.911607 
L 494.864209 69.336945 
L 496.016612 66.997586 
L 498.540924 63.967053 
L 502.931031 57.108478 
L 503.6993 57.64015 
L 504.412692 58.171823 
L 505.290714 58.80983 
L 506.113859 59.447837 
L 506.55287 59.76684 
L 507.376015 60.404847 
L 507.705273 60.670684 
L 508.144284 60.989687 
L 508.693047 61.415025 
L 510.942977 63.116377 
L 515.772095 65.987408 
L 518.131778 66.200077 
L 522.192627 66.625415 
L 529.875315 65.508903 
L 536.240971 67.954596 
L 553.19776 81.831248 
L 575.038544 97.675088 
L 586.397947 104.852666 
L 591.830705 108.042701 
L 598.525618 116.655795 
L 604.232758 123.51437 
L 608.787494 128.033586 
L 614.54951 131.383122 
L 619.378628 133.137641 
" clip-path="url(#p0e06ad97b4)"/>
   </g>
  </g>
 </g>
 <defs>
  <clipPath id="p0e06ad97b4">
   <rect x="10.8" y="57.108478" width="1058.4" height="965.783044"/>
  </clipPath>
 </defs>
</svg>
