<?xml version="1.0" encoding="utf-8" standalone="no"?>
<!DOCTYPE svg PUBLIC "-//W3C//DTD SVG 1.1//EN"
  "http://www.w3.org/Graphics/SVG/1.1/DTD/svg11.dtd">
<svg xmlns:xlink="http://www.w3.org/1999/xlink" width="1080pt" height="1080pt" viewBox="0 0 1080 1080" xmlns="http://www.w3.org/2000/svg" version="1.1">
 <metadata>
  <rdf:RDF xmlns:dc="http://purl.org/dc/elements/1.1/" xmlns:cc="http://creativecommons.org/ns#" xmlns:rdf="http://www.w3.org/1999/02/22-rdf-syntax-ns#">
   <cc:Work>
    <dc:type rdf:resource="http://purl.org/dc/dcmitype/StillImage"/>
    <dc:date>2022-07-01T13:43:29.542696</dc:date>
    <dc:format>image/svg+xml</dc:format>
    <dc:creator>
     <cc:Agent>
      <dc:title>Matplotlib v3.5.1, https://matplotlib.org/</dc:title>
     </cc:Agent>
    </dc:creator>
   </cc:Work>
  </rdf:RDF>
 </metadata>
 <defs>
  <style type="text/css">*{stroke-linejoin: round; stroke-linecap: butt}</style>
 </defs>
 <g id="figure_1">
  <g id="patch_1">
   <path d="M 0 1080 
L 1080 1080 
L 1080 0 
L 0 0 
L 0 1080 
z
" style="fill: none; opacity: 0"/>
  </g>
  <g id="axes_1">
   <g id="PatchCollection_1">
    <path d="M 424.612085 306.806249 
L 429.333075 309.461375 
L 431.797202 310.733159 
L 433.731656 312.473494 
L 433.823773 315.061684 
L 432.902604 319.858762 
L 432.856546 323.42868 
L 432.879575 324.43272 
L 433.155926 324.745088 
L 433.662569 324.990519 
L 440.916774 324.901272 
L 443.173637 324.856648 
L 446.558933 324.834336 
L 447.986745 324.901272 
L 449.437586 325.057455 
L 450.49693 325.459071 
L 451.533245 328.047262 
L 452.546531 328.02495 
L 455.425183 324.388096 
L 457.935368 322.692385 
L 460.123145 320.05957 
L 460.330408 320.528122 
L 463.001797 322.268457 
L 463.784791 322.335393 
L 465.212603 321.866841 
L 466.847677 321.487537 
L 467.561583 321.442913 
L 468.597898 321.599097 
L 469.818447 321.933777 
L 470.946879 322.491577 
L 472.835275 323.406368 
L 473.641298 324.008792 
L 473.756444 324.54428 
L 473.526152 327.110158 
L 478.131996 326.061495 
L 479.651925 325.860687 
L 481.056707 325.793751 
L 482.208168 325.816063 
L 483.313571 325.637567 
L 484.096564 325.459071 
L 484.718353 325.169015 
L 485.132879 324.834336 
L 485.501347 324.32116 
L 485.70861 323.718736 
L 488.05759 324.276536 
L 489.070876 324.633528 
L 489.623578 324.945896 
L 490.314454 325.726815 
L 490.959272 326.730855 
L 492.064675 327.57871 
L 494.87424 328.716622 
L 495.818438 329.051301 
L 496.440227 329.497541 
L 497.269279 330.791637 
L 498.236506 331.61718 
L 499.364938 332.17498 
L 501.276364 332.3981 
L 503.302935 332.84434 
L 506.41188 333.558323 
L 508.369364 334.205371 
L 510.925608 335.075538 
L 512.652799 335.633338 
L 513.896377 335.87877 
L 515.116926 336.146514 
L 516.544738 336.615066 
L 518.179812 337.708353 
L 519.354303 338.712393 
L 521.288757 340.274232 
L 522.532335 340.787408 
L 524.604965 341.122087 
L 527.092121 339.493312 
L 528.865371 338.400025 
L 529.694423 337.998409 
L 530.3853 338.288465 
L 531.536761 339.180944 
L 532.527018 339.337128 
L 533.885742 339.180944 
L 537.685563 338.422337 
L 538.906112 337.864537 
L 541.899911 335.499466 
L 544.387067 335.09785 
L 548.279005 334.517739 
L 550.259518 334.205371 
L 554.404778 334.116123 
L 556.362262 334.093811 
L 558.043395 333.937627 
L 559.471207 333.669883 
L 561.866246 333.223643 
L 563.616467 333.268267 
L 564.652782 333.558323 
L 566.656324 334.763171 
L 569.005305 336.10189 
L 571.423373 337.172865 
L 573.703266 337.306737 
L 576.443743 337.462921 
L 578.976958 337.619105 
L 581.27988 337.864537 
L 583.628861 338.043033 
L 584.619117 337.529857 
L 586.89901 335.276346 
L 588.902552 333.179019 
L 589.938867 332.041108 
L 592.564199 329.118237 
L 593.255075 328.337318 
L 593.738689 327.35559 
L 594.222302 326.217679 
L 594.659858 324.968207 
L 595.627085 324.09804 
L 597.123984 323.384056 
L 597.999095 323.384056 
L 600.463222 323.785672 
L 602.121326 323.830296 
L 604.193955 323.76336 
L 606.082352 324.008792 
L 607.556222 324.521968 
L 608.661624 324.923584 
L 609.813086 324.968207 
L 611.056664 324.856648 
L 613.22141 324.053416 
L 618.333898 324.053416 
L 619.232037 324.455032 
L 619.692622 325.012831 
L 619.784739 327.154782 
L 620.383498 328.158822 
L 621.23558 328.738934 
L 623.423356 328.783558 
L 624.712992 328.627374 
L 626.325038 328.181134 
L 627.453469 327.868766 
L 629.042486 327.779518 
L 630.861794 328.448878 
L 632.220518 329.028989 
L 633.901651 329.475229 
L 635.237346 329.809909 
L 637.49421 330.055341 
L 638.783846 330.055341 
L 639.612898 330.546205 
L 642.100054 333.000523 
L 643.527866 334.584675 
L 644.472064 335.09785 
L 646.475607 335.053226 
L 648.387032 334.651611 
L 650.782071 333.736819 
L 653.453461 332.777404 
L 654.697039 332.531972 
L 656.170909 333.156707 
L 658.22051 334.138435 
L 659.487117 334.294619 
L 661.306425 334.026875 
L 663.332997 333.781443 
L 666.603146 333.915315 
L 668.100046 334.339243 
L 668.767893 335.254034 
L 669.067273 337.797601 
L 669.113331 338.355401 
L 669.113331 340.385792 
L 668.652747 341.612951 
L 666.695263 343.018606 
L 665.589861 343.665654 
L 663.793581 344.044958 
L 663.471172 344.580446 
L 662.250623 347.235572 
L 661.237338 348.529668 
L 659.464088 349.355211 
L 658.79624 349.734515 
L 658.335656 350.426187 
L 657.138136 352.880506 
L 656.378172 354.397721 
L 655.503061 355.357136 
L 653.706782 356.428112 
L 651.242655 357.900703 
L 650.114224 358.971678 
L 649.077909 360.645078 
L 646.982249 362.095357 
L 644.633269 363.434076 
L 641.593412 364.014188 
L 639.405635 364.728172 
L 638.346291 365.866083 
L 638.277204 366.446195 
L 638.461437 366.803187 
L 639.612898 367.62873 
L 640.488009 368.677394 
L 641.201915 370.730097 
L 641.63947 371.912632 
L 641.93885 374.054583 
L 642.053996 374.857815 
L 642.629726 376.910518 
L 644.034509 382.086899 
L 643.988451 382.421579 
L 640.948593 383.202498 
L 639.290489 384.00573 
L 638.576583 384.67509 
L 636.688187 387.910328 
L 635.306434 389.516791 
L 635.145229 391.100942 
L 634.293148 391.926486 
L 632.75019 393.510637 
L 632.266577 394.336181 
L 632.197489 395.1171 
L 633.04957 396.56738 
L 633.763476 398.218467 
L 634.707674 400.695098 
L 635.651872 402.546993 
L 636.503954 403.64028 
L 639.359577 405.893791 
L 641.317061 408.772038 
L 641.869762 409.954573 
L 641.478265 411.739532 
L 641.386149 412.899756 
L 641.432207 413.702987 
L 641.823704 415.354074 
L 642.100054 416.625858 
L 642.583668 417.473713 
L 641.34009 422.739343 
L 638.922022 425.483717 
L 636.780304 428.228092 
L 636.457895 429.923803 
L 636.941509 431.24021 
L 637.379064 431.619514 
L 637.286947 432.088066 
L 635.974281 432.57893 
L 635.767018 432.868986 
L 635.674902 433.203665 
L 635.651872 433.806089 
L 635.859135 435.077872 
L 635.997311 436.104224 
L 636.02034 438.156927 
L 635.905194 439.183278 
L 635.605814 439.584894 
L 635.1222 440.142694 
L 635.42158 441.459101 
L 637.678444 444.716652 
L 638.945051 446.055371 
L 641.570382 447.95189 
L 641.892791 448.17501 
L 643.827246 448.933618 
L 645.853818 448.95593 
L 646.751957 449.781473 
L 647.327688 451.343312 
L 646.867103 452.481224 
L 645.899876 454.333119 
L 645.669584 456.006518 
L 645.439292 457.255989 
L 644.955678 459.28638 
L 644.748415 460.0673 
L 647.212542 460.892844 
L 647.511921 461.428331 
L 647.719184 462.99017 
L 650.022107 463.793402 
L 652.532292 464.351202 
L 653.821928 464.708194 
L 656.286055 465.712233 
L 657.161165 466.448529 
L 657.529633 467.988056 
L 658.450802 470.330815 
L 658.658065 470.910927 
L 659.325912 472.205022 
L 660.753724 473.856109 
L 663.356026 477.046723 
L 664.576575 477.693771 
L 666.096503 477.961515 
L 668.652747 477.805331 
L 671.139903 476.131932 
L 671.347166 475.55182 
L 671.324137 474.927085 
L 670.587202 473.320621 
L 670.541143 472.316582 
L 671.139903 471.669534 
L 672.061072 471.245606 
L 673.120416 471.245606 
L 674.985783 472.673574 
L 677.495968 474.547781 
L 678.371079 475.841876 
L 679.338306 477.448339 
L 681.019439 478.630875 
L 682.401192 481.442185 
L 685.233787 483.026336 
L 686.431306 483.62876 
L 687.030066 483.651072 
L 689.448134 482.803217 
L 691.35956 481.665305 
L 694.261242 481.085193 
L 695.988433 481.263689 
L 698.245297 482.133857 
L 700.294898 483.249456 
L 701.193037 484.320432 
L 702.620849 487.154054 
L 703.265667 487.957286 
L 704.532274 488.202718 
L 707.088518 489.072885 
L 708.700564 489.630685 
L 710.243521 490.166173 
L 711.510129 491.058652 
L 713.421554 493.669155 
L 715.586301 496.235034 
L 716.369294 497.796873 
L 716.415353 499.738016 
L 716.438382 500.652808 
L 715.954768 503.15175 
L 715.632359 504.535094 
L 715.747505 505.539133 
L 716.300207 506.186181 
L 720.767876 509.109051 
L 722.495067 509.510667 
L 724.544668 509.443731 
L 728.712957 508.060388 
L 731.453435 507.85958 
L 733.226685 508.149636 
L 735.828987 509.421419 
L 737.993734 509.867659 
L 742.553519 510.782451 
L 743.751039 511.027882 
L 745.869727 510.983259 
L 748.656263 510.291587 
L 750.429513 509.019803 
L 751.857325 507.435652 
L 752.686377 506.342365 
L 753.123932 504.579718 
L 753.561487 502.950943 
L 755.058387 501.723783 
L 759.503027 498.466233 
L 760.562371 498.019993 
L 761.75989 497.975369 
L 762.796205 497.663001 
L 764.062813 497.038265 
L 765.398507 495.833418 
L 766.411793 494.226955 
L 767.724459 492.2635 
L 768.737745 491.170212 
L 769.244387 490.634725 
L 770.34979 489.831493 
L 770.925521 489.072885 
L 770.994608 488.269654 
L 771.201871 485.369095 
L 773.251472 483.606448 
L 774.241728 481.933049 
L 775.001693 480.014218 
L 775.807716 478.675499 
L 777.097352 477.336779 
L 779.054836 475.55182 
L 780.068122 474.703965 
L 781.380787 474.436221 
L 784.996375 474.413909 
L 786.769625 474.703965 
L 789.625249 475.596444 
L 792.066346 476.912852 
L 793.171749 477.113659 
L 795.129233 477.202907 
L 797.224892 477.247531 
L 799.712048 477.002099 
L 802.867051 475.66338 
L 804.018512 475.618756 
L 806.321434 476.154244 
L 808.716473 477.760707 
L 809.223116 477.559899 
L 809.752788 476.823604 
L 809.983081 474.637029 
L 810.144285 473.365245 
L 810.30549 472.985942 
L 810.489723 472.495078 
L 811.1806 471.424102 
L 811.572097 470.821679 
L 812.746587 469.906887 
L 814.634983 469.282151 
L 816.431263 469.862263 
L 818.895389 471.245606 
L 821.198312 471.914966 
L 824.169081 473.253685 
L 825.458718 474.458533 
L 826.932588 477.403715 
L 827.254997 478.140011 
L 828.567662 480.170402 
L 829.627007 481.330625 
L 830.548176 481.709929 
L 831.768724 482.334665 
L 832.689893 482.825529 
L 833.219565 483.18252 
L 834.048617 483.918816 
L 835.545517 485.123663 
L 836.305481 485.369095 
L 837.940556 485.614527 
L 839.460484 486.529319 
L 840.565887 487.644918 
L 841.464027 488.515086 
L 843.651803 490.121549 
L 844.411767 490.478541 
L 848.119472 492.48662 
L 849.178816 492.48662 
L 850.353306 492.2635 
L 851.366592 491.7057 
L 851.689001 491.7057 
L 853.439222 492.754364 
L 855.903349 494.026147 
L 857.308131 494.316203 
L 858.321417 494.583947 
L 860.394047 495.208682 
L 862.351531 496.123474 
L 863.134524 496.391218 
L 865.04595 496.926706 
L 867.740369 496.85977 
L 869.836028 496.279658 
L 871.010518 495.40949 
L 871.954716 493.847651 
L 872.691651 492.553556 
L 873.152236 491.214836 
L 872.73771 488.425838 
L 872.622564 487.756478 
L 872.71468 485.993831 
L 872.898914 485.257535 
L 873.61282 482.557785 
L 874.464901 482.334665 
L 876.929028 482.647033 
L 877.827168 482.513161 
L 879.024687 481.397561 
L 880.014944 480.527394 
L 881.350639 479.456418 
L 882.133632 479.411794 
L 883.331152 479.902658 
L 884.735934 481.732241 
L 885.611045 482.535473 
L 890.170831 482.312353 
L 894.33912 482.111545 
L 895.928136 481.040569 
L 899.06011 478.943243 
L 899.451607 479.121738 
L 900.165513 480.281962 
L 900.326717 481.732241 
L 899.774016 483.427952 
L 899.35949 485.012103 
L 898.967993 487.488734 
L 899.037081 490.590101 
L 899.750987 493.245227 
L 900.372776 494.740131 
L 901.869675 495.85573 
L 902.813873 497.038265 
L 903.573838 498.733977 
L 904.771357 500.385064 
L 905.600409 501.344479 
L 906.084023 501.656847 
L 907.557893 501.790719 
L 908.202711 502.415455 
L 908.294828 503.285622 
L 908.087565 504.133478 
L 907.05125 504.802838 
L 907.097308 505.628381 
L 907.742127 508.41738 
L 908.24877 510.693203 
L 908.686325 511.22869 
L 909.400231 511.251002 
L 912.324942 510.470083 
L 912.877643 510.559331 
L 912.877643 512.411226 
L 913.614578 513.348329 
L 914.881185 514.040001 
L 916.032646 514.285433 
L 918.266481 513.705321 
L 919.579147 514.040001 
L 919.809439 514.954793 
L 919.579147 517.743791 
L 919.625205 520.733598 
L 920.08579 523.611844 
L 924.783751 526.088475 
L 925.244335 526.066163 
L 926.372767 525.396803 
L 928.790835 524.303516 
L 929.988355 523.723404 
L 932.060985 522.116941 
L 933.626972 521.112901 
L 935.239017 520.510478 
L 937.979495 522.429309 
L 939.223073 523.12098 
L 940.328475 523.388724 
L 941.848404 523.366412 
L 944.381618 522.741677 
L 945.832459 521.536829 
L 946.477278 522.228501 
L 947.974177 527.226386 
L 953.478161 531.42104 
L 955.550791 532.670512 
L 958.682765 533.072127 
L 962.436528 534.120791 
L 962.874083 534.633967 
L 963.357697 535.593382 
L 963.334668 536.552798 
L 962.897113 543.045586 
L 962.712879 546.392385 
L 962.68985 546.816313 
L 962.275324 550.207735 
L 962.045031 551.479518 
L 961.998973 551.769574 
L 963.196493 555.76342 
L 963.242551 557.347571 
L 961.906856 560.292754 
L 961.860798 562.390081 
L 962.874083 563.639552 
L 964.301895 564.911336 
L 966.627847 566.093871 
L 967.502957 566.718607 
L 967.618103 567.410278 
L 967.433869 568.54819 
L 967.341752 571.24794 
L 968.285951 575.442594 
L 968.700477 576.803626 
L 970.105259 580.038864 
L 966.282408 581.779199 
L 963.933428 583.787278 
L 963.979486 584.322766 
L 964.785509 585.282181 
L 966.052116 585.996165 
L 967.917483 586.598589 
L 969.644675 587.044828 
L 971.072486 588.026556 
L 972.408181 589.276027 
L 974.319607 592.44433 
L 975.332892 594.206977 
L 975.448038 595.211016 
L 975.079571 597.085223 
L 973.674788 600.588206 
L 972.983912 603.868068 
L 971.809421 607.304114 
L 967.986571 610.918657 
L 971.878509 613.350663 
L 972.500298 615.135622 
L 971.5561 617.567629 
L 970.35858 620.780556 
L 969.068944 624.127354 
L 968.562301 626.827105 
L 969.18409 628.500504 
L 971.832451 630.106967 
L 978.718188 632.27123 
L 979.777532 633.855381 
L 982.633156 636.153516 
L 984.590639 637.670731 
L 986.755386 638.340091 
L 994.470176 640.861346 
L 994.608351 643.092544 
L 997.786384 645.279119 
L 1001.678322 647.019455 
L 1003.014017 647.577254 
L 1003.82004 649.027533 
L 1004.188507 649.986949 
L 1004.142449 650.857117 
L 1001.217738 650.567061 
L 1000.434744 650.812493 
L 998.753611 651.883468 
L 995.690724 653.266811 
L 992.443604 654.270851 
L 989.288601 655.564946 
L 984.222172 657.907705 
L 981.827133 659.915784 
L 979.984795 662.258543 
L 979.892678 662.927903 
L 979.892678 663.485702 
L 980.652643 665.203725 
L 980.675672 666.163141 
L 980.491438 666.720941 
L 979.478152 667.970412 
L 978.580013 669.219883 
L 978.096399 671.071778 
L 977.889136 672.455122 
L 976.668587 672.142754 
L 971.602158 669.777683 
L 970.335551 670.848659 
L 968.677447 671.808074 
L 969.138032 672.901362 
L 969.460441 675.422616 
L 970.036171 677.229887 
L 971.85548 681.781533 
L 972.408181 683.276436 
L 972.661503 685.150643 
L 972.983912 686.489363 
L 973.697818 688.341258 
L 976.023769 693.182959 
L 976.346178 694.365495 
L 976.737675 697.355301 
L 977.267347 699.028701 
L 977.589756 700.03274 
L 982.587097 701.862323 
L 983.162828 702.197003 
L 985.304545 704.026586 
L 986.317831 705.766921 
L 987.492321 707.819624 
L 988.574695 708.823664 
L 989.841302 710.050823 
L 990.762471 711.077174 
L 990.992763 711.501102 
L 991.153968 712.348958 
L 991.476377 714.000045 
L 991.752727 716.29818 
L 992.029078 717.659211 
L 992.2824 718.930995 
L 993.272656 721.630745 
L 994.585322 723.661136 
L 996.819156 727.811166 
L 998.799669 729.663061 
L 1000.872299 731.180276 
L 1006.099933 734.794819 
L 1008.656176 736.579778 
L 1010.107017 738.253177 
L 1011.074244 739.368776 
L 1011.880267 740.685184 
L 1012.824465 742.916383 
L 1013.58443 744.545158 
L 1015.564943 747.958892 
L 1016.393995 749.498419 
L 1017.384251 751.439562 
L 1018.213303 753.916193 
L 1019.157501 755.254912 
L 1020.447138 756.549008 
L 1022.358563 757.798479 
L 1025.812946 759.181822 
L 1026.29656 759.427254 
L 1027.263787 760.319734 
L 1029.866089 763.733468 
L 1031.961749 766.165475 
L 1033.251385 766.968707 
L 1035.16281 767.414946 
L 1037.350586 767.504194 
L 1037.857229 767.526506 
L 1039.03172 768.418986 
L 1040.597707 769.936201 
L 1041.541905 771.431104 
L 1041.634022 772.903696 
L 1042.301869 778.213949 
L 1043.407272 781.203755 
L 1045.433843 783.323394 
L 1048.680963 786.670193 
L 1049.740308 788.834456 
L 1050.131804 791.221838 
L 1050.431184 792.448998 
L 1050.822681 794.144709 
L 1051.582645 795.371868 
L 1053.355895 797.714627 
L 1055.083087 799.99045 
L 1055.313379 800.682122 
L 1055.083087 801.708473 
L 1054.023743 802.957945 
L 1053.378925 805.233767 
L 1053.424983 806.393991 
L 1053.81648 806.706359 
L 1055.935168 806.483239 
L 1057.386009 806.639423 
L 1057.915681 806.884855 
L 1058.307178 807.130286 
L 1058.514441 807.50959 
L 1058.53747 807.95583 
L 1057.823564 809.584605 
L 1057.293892 810.588645 
L 1057.040571 811.637308 
L 1056.994513 812.351292 
L 1057.086629 813.355331 
L 1057.178746 813.846195 
L 1057.086629 814.225499 
L 1056.556957 814.850235 
L 1055.935168 815.58653 
L 1055.750935 815.854274 
L 1055.520642 816.47901 
L 1055.796993 818.174721 
L 1056.004256 819.044889 
L 1055.727905 819.915056 
L 1053.908597 822.726367 
L 1053.494071 824.10971 
L 1053.563158 824.645198 
L 1054.046772 825.046814 
L 1055.935168 825.046814 
L 1056.695133 825.381493 
L 1058.053857 826.318597 
L 1060.011341 828.058932 
L 1061.047656 829.174531 
L 1061.784591 829.977763 
L 1062.291233 830.357067 
L 1062.636672 830.468627 
L 1063.742074 830.401691 
L 1064.870506 830.156259 
L 1065.791675 830.133947 
L 1067.058282 830.290131 
L 1067.956422 830.557875 
L 1068.693357 830.959491 
L 1069.176971 831.40573 
L 1069.2 832.432082 
L 1068.854562 833.279937 
L 1067.610984 834.707905 
L 1065.400178 836.5598 
L 1063.926308 838.523255 
L 1063.28149 839.884286 
L 1062.797876 840.754454 
L 1062.567584 841.267629 
L 1062.268204 841.490749 
L 1061.968824 841.490749 
L 1061.485211 841.334565 
L 1059.481668 840.107406 
L 1058.744733 839.772726 
L 1058.192032 839.728102 
L 1058.030827 839.795038 
L 1057.777506 840.129718 
L 1057.869623 841.669245 
L 1057.892652 843.0749 
L 1057.777506 844.101252 
L 1057.086629 845.484595 
L 1055.935168 847.78273 
L 1055.58973 849.590001 
L 1055.221262 851.665016 
L 1054.599473 853.092983 
L 1052.987428 855.279558 
L 1051.099032 857.666941 
L 1050.200892 859.67502 
L 1049.924541 861.236859 
L 1050.085746 861.705411 
L 1050.26998 861.950843 
L 1050.983886 861.839283 
L 1052.089288 861.950843 
L 1053.770421 862.218587 
L 1055.935168 863.044131 
L 1059.619844 865.788505 
L 1061.393094 867.19416 
L 1062.037912 867.685024 
L 1062.268204 867.796584 
L 1062.590613 867.908144 
L 1062.797876 867.952768 
L 1063.166344 867.97508 
L 1062.98211 868.108952 
L 1062.705759 868.399008 
L 1062.498496 868.666752 
L 1061.830649 869.380735 
L 1061.093714 870.094719 
L 1060.080428 871.031823 
L 1059.13623 872.01355 
L 1058.26112 872.928342 
L 1057.339951 873.999317 
L 1055.88911 874.824861 
L 1053.5171 878.439403 
L 1052.112318 878.774083 
L 1044.835083 878.774083 
L 1042.417015 877.881603 
L 1040.20621 875.94046 
L 1037.281499 873.553077 
L 1033.366531 871.009511 
L 1029.704885 869.492295 
L 1025.006924 868.08664 
L 1021.529511 866.948729 
L 1018.558741 865.163769 
L 1014.344394 863.668866 
L 1012.156618 863.445746 
L 1009.600374 863.401122 
L 1007.205335 863.401122 
L 1004.99453 863.044131 
L 1003.79701 862.865635 
L 1000.572919 861.683099 
L 996.911273 859.987388 
L 996.289484 859.518836 
L 993.917474 857.756189 
L 992.812072 857.042206 
L 989.219513 854.766383 
L 985.511808 852.691368 
L 983.185857 852.401312 
L 981.61987 852.423624 
L 978.994539 853.918527 
L 977.612785 854.989503 
L 974.987454 857.042206 
L 974.457782 857.711565 
L 972.293035 860.255132 
L 970.35858 860.34438 
L 967.41084 860.366692 
L 964.324924 860.366692 
L 963.127405 861.459979 
L 959.949372 864.293602 
L 959.580905 865.520761 
L 959.603934 866.948729 
L 959.534846 869.581543 
L 959.534846 871.544998 
L 960.133606 872.080486 
L 962.897113 872.861406 
L 964.16372 873.597701 
L 963.772223 875.047981 
L 963.587989 875.739652 
L 962.505616 877.680795 
L 961.146892 880.068178 
L 961.100833 881.607705 
L 961.239009 882.277065 
L 961.561418 883.928152 
L 962.160178 884.820632 
L 963.841311 887.185702 
L 964.808538 888.27899 
L 965.775765 889.640021 
L 966.052116 889.952389 
L 966.305437 890.197821 
L 965.246093 890.733309 
L 962.160178 891.826596 
L 959.005174 892.09434 
L 958.521561 893.076067 
L 958.797911 894.370163 
L 960.156635 896.02125 
L 961.584447 898.654065 
L 961.722622 900.84064 
L 961.607476 903.138774 
L 961.607476 904.09819 
L 961.008716 905.726965 
L 961.008716 907.511924 
L 960.732366 908.5829 
L 960.087548 910.903347 
L 959.880285 911.795826 
L 959.811197 913.402289 
L 959.71908 915.811984 
L 961.146892 916.459032 
L 963.012259 918.400175 
L 964.002515 919.448838 
L 965.430327 920.631374 
L 962.98923 921.256109 
L 961.906856 921.501541 
L 958.498531 923.62118 
L 956.978603 924.580596 
L 954.261155 925.316891 
L 949.793485 927.191098 
L 948.526878 927.704274 
L 945.602167 928.77525 
L 943.759829 928.842186 
L 943.46045 931.073384 
L 942.930777 931.162632 
L 942.193842 931.742744 
L 941.848404 932.345168 
L 941.756287 933.438455 
L 941.756287 934.286311 
L 941.226615 935.379598 
L 938.900664 938.079349 
L 937.058326 939.462692 
L 936.758946 941.894699 
L 937.24256 942.787179 
L 938.601284 945.152249 
L 938.946722 945.910857 
L 938.946722 946.602529 
L 938.877634 947.338824 
L 938.301904 948.677544 
L 937.703144 950.462503 
L 937.54194 951.622726 
L 937.564969 952.515206 
L 938.370992 953.630805 
L 938.762488 954.456349 
L 939.084897 955.505012 
L 939.453365 957.646963 
L 939.522453 958.338635 
L 939.223073 958.941059 
L 937.864349 959.498858 
L 937.703144 959.565794 
L 935.814748 960.346714 
L 934.340878 960.41365 
L 932.705803 960.435962 
L 929.735033 959.945098 
L 928.468426 959.96741 
L 927.593316 960.19053 
L 926.741235 960.85989 
L 926.142475 961.707745 
L 925.774007 963.581952 
L 925.175248 964.429808 
L 924.346196 964.853736 
L 923.63229 964.89836 
L 922.365682 964.920672 
L 920.753637 964.407496 
L 920.06276 963.805072 
L 919.141591 961.685433 
L 918.773124 960.123594 
L 918.519802 959.476546 
L 917.253195 959.275738 
L 915.572062 959.208802 
L 914.74301 959.364986 
L 914.121221 960.235154 
L 912.601292 962.131673 
L 911.634065 963.358832 
L 907.465776 964.11744 
L 903.113253 965.679279 
L 902.076938 964.318248 
L 898.023795 959.811226 
L 895.789961 956.397492 
L 894.293061 953.898549 
L 893.602185 952.537518 
L 893.026454 949.971639 
L 892.450723 948.208992 
L 887.706704 947.2942 
L 883.561444 948.588296 
L 882.087574 948.655232 
L 880.199178 948.63292 
L 877.712022 948.365176 
L 876.56056 948.476736 
L 875.040632 950.685623 
L 874.142492 951.845846 
L 873.129206 952.180526 
L 870.020262 952.00203 
L 869.605736 951.600414 
L 869.882086 949.703895 
L 869.836028 947.651192 
L 869.628765 945.799297 
L 869.905115 944.014338 
L 870.112378 942.675619 
L 870.549934 941.626955 
L 870.480846 941.113779 
L 869.974203 940.533668 
L 869.306356 940.042804 
L 866.79617 939.128012 
L 863.825401 937.744669 
L 862.328501 936.495198 
L 856.962693 936.272078 
L 856.340904 934.085503 
L 854.959151 931.898928 
L 854.199186 930.537897 
L 853.116813 929.154553 
L 851.067212 927.034915 
L 847.612829 923.554244 
L 844.849322 920.720622 
L 842.983955 919.203406 
L 843.398481 918.110119 
L 843.766949 916.99452 
L 844.043299 915.120312 
L 844.204504 912.822178 
L 844.158446 911.974322 
L 843.536657 910.345547 
L 842.983955 909.274571 
L 842.500342 908.605212 
L 841.67129 908.002788 
L 840.865267 907.712732 
L 839.57563 907.422676 
L 837.917526 907.311116 
L 835.913984 907.444988 
L 832.920185 907.489612 
L 829.995474 907.110308 
L 828.222224 907.154932 
L 826.679266 907.288804 
L 824.698753 907.824292 
L 823.846672 907.891228 
L 822.695211 907.868916 
L 821.704954 907.668108 
L 820.875902 907.266492 
L 819.678383 906.351701 
L 819.263857 906.217829 
L 818.2736 906.262453 
L 817.006993 906.463261 
L 816.339146 906.374013 
L 815.809474 905.972397 
L 815.279802 905.347661 
L 815.095568 904.589054 
L 814.634983 904.053566 
L 813.85199 903.495766 
L 812.861733 902.960279 
L 812.401149 902.335543 
L 812.170857 901.643871 
L 812.147827 901.06376 
L 812.147827 900.037408 
L 812.309032 898.520193 
L 812.539324 897.047602 
L 812.470237 893.589243 
L 811.940564 892.473644 
L 811.456951 891.715036 
L 810.650928 890.599437 
L 809.591584 889.439213 
L 808.23286 888.234366 
L 806.344464 886.962583 
L 802.959168 884.664448 
L 802.360408 884.039712 
L 801.899824 883.34804 
L 801.669532 882.634057 
L 801.347122 882.254753 
L 800.425954 881.964697 
L 798.537557 881.630017 
L 796.879453 881.027594 
L 794.89894 880.268986 
L 793.747479 879.845058 
L 792.941457 879.733498 
L 792.066346 879.911994 
L 789.970687 880.402858 
L 788.197437 880.804474 
L 786.976888 880.960658 
L 785.456959 881.183777 
L 783.246154 881.585393 
L 779.768742 884.642136 
L 779.285128 885.066063 
L 779.054836 885.489991 
L 779.031807 885.980855 
L 779.031807 887.16339 
L 778.893631 887.921998 
L 778.571222 888.992974 
L 777.419761 890.331693 
L 776.475563 891.134924 
L 775.922862 891.31342 
L 774.909576 891.402668 
L 774.333845 891.402668 
L 774.057495 891.20186 
L 773.89629 890.889493 
L 773.504793 889.818517 
L 773.090267 889.327653 
L 772.583625 888.926038 
L 771.731543 888.368238 
L 770.257673 887.38651 
L 769.221358 886.851023 
L 767.425079 886.181663 
L 765.60577 885.713111 
L 763.417994 885.356119 
L 762.151387 884.776008 
L 760.378137 883.950464 
L 759.917553 883.548848 
L 759.456968 882.767929 
L 759.11153 881.674641 
L 758.720033 881.005282 
L 758.144303 880.447482 
L 757.476455 879.666562 
L 757.0389 878.796395 
L 756.255906 876.208204 
L 755.426854 874.467869 
L 755.150504 873.642325 
L 755.173533 872.23667 
L 755.127474 870.808703 
L 755.219591 868.242824 
L 755.772293 866.971041 
L 756.002585 866.145497 
L 756.002585 865.409201 
L 755.726234 864.672906 
L 755.104445 863.847362 
L 754.160247 862.597891 
L 753.100903 860.969116 
L 752.640319 859.719644 
L 751.926413 856.796774 
L 752.064588 855.770422 
L 752.340939 854.610199 
L 752.870611 853.427663 
L 753.216049 852.669056 
L 753.123932 852.26744 
L 752.847582 852.022008 
L 751.9955 851.754264 
L 749.968929 850.951033 
L 746.030932 849.166073 
L 745.547318 848.78677 
L 745.247938 848.162034 
L 744.856442 847.135682 
L 744.764325 846.020083 
L 744.787354 845.105291 
L 743.72801 845.216851 
L 742.25414 845.373035 
L 739.997276 845.239163 
L 738.615523 845.127603 
L 736.865302 844.815236 
L 734.999935 844.324372 
L 734.309058 843.878132 
L 733.894532 843.40958 
L 733.503035 842.695597 
L 732.950334 840.553646 
L 732.627925 839.192614 
L 732.581866 838.389383 
L 732.789129 836.849856 
L 732.7661 835.042585 
L 732.535808 834.306289 
L 732.282487 833.993921 
L 731.798873 833.860049 
L 730.463178 833.882361 
L 727.906934 834.016233 
L 727.331204 834.127793 
L 727.008795 834.440161 
L 726.340947 834.997961 
L 725.719158 835.176456 
L 724.636785 835.131832 
L 723.347149 835.020273 
L 722.495067 834.886401 
L 722.1266 835.10952 
L 720.790905 836.024312 
L 719.777619 836.582112 
L 718.87948 836.760608 
L 718.28072 836.760608 
L 716.760791 836.247432 
L 715.724476 835.89044 
L 715.379038 835.689632 
L 715.056629 835.354952 
L 714.619074 834.640969 
L 714.043343 833.904673 
L 713.559729 833.302249 
L 713.145203 832.900634 
L 712.753707 832.74445 
L 712.039801 832.74445 
L 711.46407 832.588266 
L 710.842281 831.96353 
L 709.828995 830.468627 
L 709.069031 829.531523 
L 708.769651 828.862164 
L 708.355125 827.47882 
L 707.940599 826.854085 
L 707.341839 826.407845 
L 705.292239 825.426117 
L 703.818369 824.756758 
L 703.104463 824.132022 
L 702.782054 823.641158 
L 702.712966 822.949487 
L 702.666907 822.168567 
L 702.29844 821.610767 
L 701.814826 821.142215 
L 700.433073 820.249736 
L 697.416245 818.620961 
L 696.126608 817.683857 
L 694.767884 817.126057 
L 692.257699 816.14433 
L 691.843173 816.14433 
L 691.474706 816.412074 
L 691.083209 817.014498 
L 690.991092 817.416113 
L 691.198355 817.862353 
L 692.096495 818.464777 
L 692.303758 818.866393 
L 692.303758 819.17876 
L 691.658939 821.052967 
L 691.267443 821.320711 
L 690.922004 821.253775 
L 689.770543 820.606728 
L 687.974264 819.669624 
L 686.937949 819.29032 
L 686.339189 819.044889 
L 685.901634 818.554025 
L 685.487108 817.706169 
L 685.210757 816.81369 
L 684.796231 815.988146 
L 682.239988 812.641348 
L 681.59517 811.838116 
L 679.914036 810.744829 
L 678.854692 810.097781 
L 677.035384 808.714438 
L 676.045127 808.06739 
L 674.294906 807.375718 
L 673.166474 806.706359 
L 672.867095 806.282431 
L 672.728919 805.702319 
L 672.821036 805.166831 
L 673.350708 804.207416 
L 673.419796 803.783488 
L 673.281621 803.404184 
L 672.913153 803.248 
L 672.314393 803.225688 
L 671.853809 803.381872 
L 670.287822 803.828112 
L 669.804208 803.850424 
L 669.320594 803.627304 
L 668.929098 803.270312 
L 667.247964 800.682122 
L 666.879497 800.012762 
L 666.78738 799.499586 
L 666.879497 798.740979 
L 666.879497 798.250115 
L 666.672234 798.004683 
L 666.349825 797.937747 
L 665.843182 798.026995 
L 665.497744 798.183179 
L 665.129276 798.540171 
L 664.553546 799.588834 
L 663.977815 800.615186 
L 663.655406 800.927554 
L 663.217851 800.927554 
L 662.780295 800.815994 
L 662.135477 800.32513 
L 661.122192 799.20953 
L 660.914929 798.807915 
L 660.86887 798.495547 
L 661.099162 798.116243 
L 662.734237 796.018916 
L 664.576575 793.497661 
L 666.004387 791.422646 
L 666.395883 790.909471 
L 666.349825 790.485543 
L 666.18862 790.150863 
L 665.843182 789.838495 
L 664.691721 789.124511 
L 664.346283 788.76752 
L 664.277195 788.410528 
L 664.277195 787.65192 
L 664.231136 785.889273 
L 664.162049 785.219913 
L 664.000844 784.684426 
L 661.790039 781.627683 
L 661.398542 781.114507 
L 658.19748 779.2403 
L 657.506604 779.061804 
L 656.815727 778.972557 
L 656.470289 778.816373 
L 656.401201 778.593253 
L 656.378172 778.213949 
L 656.42423 777.611525 
L 656.42423 776.98679 
L 656.332113 776.629798 
L 656.032734 776.451302 
L 653.108022 774.688655 
L 652.900759 774.443223 
L 652.87773 774.175479 
L 652.900759 773.617679 
L 652.87773 773.149127 
L 652.785613 772.903696 
L 652.463204 772.635952 
L 651.772328 772.212024 
L 651.219626 771.877344 
L 649.999077 771.587288 
L 649.239113 771.542664 
L 648.479149 771.207984 
L 647.811301 770.672497 
L 647.097396 769.713081 
L 646.65984 769.467649 
L 646.199256 769.445337 
L 645.876847 769.534585 
L 645.18597 769.936201 
L 644.679327 770.114697 
L 643.988451 770.047761 
L 643.320603 769.846953 
L 642.860019 769.445337 
L 642.053996 768.195866 
L 641.777645 767.548818 
L 641.800675 767.12489 
L 642.100054 766.500155 
L 642.307317 765.763859 
L 642.353376 765.206059 
L 642.123084 764.402828 
L 640.74133 761.591517 
L 640.372863 761.167589 
L 640.096512 761.122965 
L 639.612898 761.368397 
L 639.129285 761.658453 
L 638.461437 761.680765 
L 637.908736 761.546893 
L 636.688187 760.632102 
L 636.158515 759.94043 
L 636.043369 759.315694 
L 635.859135 759.04795 
L 635.1222 758.958703 
L 634.293148 759.003327 
L 633.602272 759.137198 
L 633.003512 759.538814 
L 632.47384 760.05199 
L 631.529642 761.680765 
L 631.022999 762.283189 
L 630.67756 762.394749 
L 630.032742 762.305501 
L 629.318836 762.216253 
L 628.60493 762.216253 
L 627.867995 762.461685 
L 625.887482 763.488036 
L 623.88394 764.42514 
L 623.077917 764.960628 
L 622.064632 766.834835 
L 621.857369 767.57113 
L 621.972515 768.061994 
L 622.248865 768.508234 
L 622.70945 768.932162 
L 623.400326 769.244529 
L 624.229378 769.824641 
L 624.367554 770.181633 
L 624.367554 770.516313 
L 624.091203 770.873305 
L 623.377297 771.38648 
L 621.880398 772.569016 
L 621.557989 773.037568 
L 621.581018 773.483807 
L 621.581018 774.510159 
L 621.350726 775.067958 
L 620.682878 775.737318 
L 620.314411 775.893502 
L 619.945943 775.848878 
L 619.370213 775.402638 
L 618.656307 774.978711 
L 617.643021 774.710967 
L 616.169151 774.443223 
L 615.201923 774.376287 
L 614.925573 774.175479 
L 614.764368 773.729239 
L 614.71831 773.059879 
L 614.441959 772.569016 
L 613.889258 771.855032 
L 613.24444 771.319544 
L 612.185095 770.761745 
L 611.425131 770.248569 
L 610.642138 769.601521 
L 609.767027 768.597482 
L 609.053121 767.23645 
L 607.740456 764.826756 
L 607.62531 764.291268 
L 607.740456 764.001212 
L 608.062865 763.733468 
L 608.914946 763.220292 
L 610.227612 762.149317 
L 610.987576 761.301461 
L 611.425131 760.185862 
L 611.74754 759.293382 
L 611.862686 756.906 
L 611.74754 756.258952 
L 611.286956 755.7904 
L 610.57305 755.433408 
L 608.178011 755.009481 
L 605.806001 754.830985 
L 605.092095 754.786361 
L 604.700598 754.496305 
L 604.470306 754.072377 
L 603.940634 752.75597 
L 603.664283 752.354354 
L 603.065524 752.153546 
L 601.98315 752.131234 
L 599.288731 752.220482 
L 597.722744 752.242794 
L 596.870663 752.666722 
L 596.271903 752.75597 
L 595.696173 752.577474 
L 595.258617 752.220482 
L 595.028325 751.86349 
L 594.959238 750.993323 
L 594.936208 750.368587 
L 594.659858 750.011595 
L 594.061098 749.632291 
L 592.955695 749.297611 
L 590.238247 748.293572 
L 589.409195 747.914268 
L 588.925581 747.958892 
L 586.760835 748.315884 
L 585.42514 748.360508 
L 584.319737 748.338196 
L 583.697948 748.137388 
L 583.260393 747.758084 
L 582.868896 747.133348 
L 582.500429 746.151621 
L 582.15499 742.961007 
L 582.016815 742.514767 
L 581.487143 742.135463 
L 580.796266 741.912343 
L 580.08236 741.867719 
L 579.299367 742.001591 
L 575.868013 742.760199 
L 575.154107 743.072566 
L 574.555347 743.251062 
L 574.094763 743.22875 
L 572.943302 743.027943 
L 571.51549 743.027943 
L 568.775013 742.938695 
L 562.64924 742.358583 
L 561.682012 742.358583 
L 557.122226 743.741926 
L 555.924707 744.143542 
L 554.197515 745.370701 
L 551.134629 746.687109 
L 550.21346 746.865605 
L 548.532327 746.731733 
L 547.127544 746.486301 
L 546.459697 746.062373 
L 546.045171 745.616133 
L 545.538528 744.388974 
L 545.054914 743.273374 
L 544.479184 741.867719 
L 544.364038 741.332231 
L 544.271921 740.97524 
L 544.202833 738.565545 
L 544.156775 737.650753 
L 544.041628 737.338385 
L 543.419839 736.82521 
L 542.705934 736.200474 
L 542.176261 735.531114 
L 541.255093 734.214707 
L 540.840567 733.656907 
L 540.379982 733.456099 
L 539.527901 733.188355 
L 538.261294 732.987548 
L 537.132862 732.630556 
L 536.626219 732.385124 
L 536.119576 732.11738 
L 535.520816 731.537268 
L 534.599648 730.934845 
L 532.573076 729.774621 
L 531.513732 729.261445 
L 530.98406 729.149885 
L 530.592563 729.261445 
L 530.224095 729.618437 
L 529.947745 730.064677 
L 529.372014 730.934845 
L 528.727196 731.581892 
L 526.769712 733.299915 
L 525.410988 734.817131 
L 524.627995 736.111226 
L 524.328615 736.82521 
L 523.960147 737.159889 
L 523.154124 737.516881 
L 519.239157 738.632481 
L 517.94952 739.034097 
L 517.327731 739.435712 
L 517.028351 739.926576 
L 516.867147 740.30588 
L 516.636855 740.395128 
L 516.429592 740.372816 
L 515.922949 739.9712 
L 515.370247 739.502648 
L 514.449079 739.234904 
L 513.52791 739.056408 
L 512.606741 739.07872 
L 512.03101 739.234904 
L 511.386192 739.569584 
L 511.040754 739.881952 
L 510.649257 740.238944 
L 509.313562 741.800783 
L 508.829948 742.380895 
L 508.507539 742.760199 
L 508.116043 742.916383 
L 507.31002 742.938695 
L 506.319763 742.938695 
L 505.444653 743.161814 
L 504.500455 743.719614 
L 503.510198 744.210478 
L 502.105416 744.656718 
L 500.332166 745.102957 
L 500.032786 745.281453 
L 499.986727 745.526885 
L 500.170961 745.839253 
L 500.470341 746.240869 
L 501.299393 747.26722 
L 503.441111 750.078531 
L 503.510198 750.547083 
L 503.441111 750.993323 
L 503.256877 751.551122 
L 502.566 752.86753 
L 501.806036 754.094689 
L 501.161218 754.875609 
L 500.240049 755.45572 
L 498.858295 756.169704 
L 498.328623 756.615944 
L 498.14439 757.129119 
L 498.052273 758.311655 
L 498.443769 760.855222 
L 498.674062 762.439373 
L 498.697091 763.822716 
L 498.72012 764.737508 
L 498.674062 765.696923 
L 498.558916 766.277035 
L 497.960156 767.035643 
L 495.17362 769.489961 
L 494.390626 770.092385 
L 494.068217 770.181633 
L 493.676721 770.159321 
L 492.755552 769.958513 
L 492.20285 769.891577 
L 491.742266 770.025449 
L 491.143506 770.382441 
L 490.567776 770.895617 
L 489.324198 772.1674 
L 488.172737 773.305311 
L 487.527918 773.639991 
L 486.837042 773.684615 
L 486.261311 773.639991 
L 485.455288 773.394559 
L 484.280798 772.792136 
L 482.829957 772.100464 
L 481.908788 772.011216 
L 477.947762 771.899656 
L 475.64484 771.72116 
L 474.124911 771.743472 
L 473.042538 771.788096 
L 472.328632 771.899656 
L 471.568668 772.100464 
L 470.440236 772.546704 
L 468.966366 772.769824 
L 466.341034 772.412832 
L 465.857421 772.234336 
L 465.535012 771.83272 
L 465.235632 770.917929 
L 464.890193 770.137009 
L 464.567784 769.668457 
L 463.969025 769.266841 
L 462.472125 768.820602 
L 461.620044 768.709042 
L 460.767963 768.79829 
L 459.317122 769.02141 
L 457.428726 769.244529 
L 456.829966 769.222217 
L 456.369381 769.066033 
L 456.046972 768.664418 
L 456.046972 767.861186 
L 455.977885 767.437258 
L 455.839709 767.169514 
L 455.724563 766.924083 
L 455.5173 766.745587 
L 455.310037 766.634027 
L 455.125803 766.567091 
L 453.74405 766.857147 
L 453.14529 768.418986 
L 452.753794 769.690769 
L 452.408355 770.895617 
L 452.132005 771.564976 
L 451.37204 772.145088 
L 446.973459 775.670382 
L 446.006232 776.250494 
L 445.338384 776.473614 
L 444.048748 776.473614 
L 443.10455 776.495926 
L 441.90703 776.87523 
L 438.498705 778.191637 
L 437.554507 778.370133 
L 437.18604 778.347821 
L 436.794543 778.035453 
L 436.333959 777.433029 
L 434.837059 774.733279 
L 434.284358 774.108543 
L 433.63954 773.684615 
L 429.402163 772.50208 
L 428.803403 772.39052 
L 428.342819 772.50208 
L 427.974351 772.7252 
L 427.076211 773.394559 
L 426.316247 773.639991 
L 423.829091 774.309351 
L 422.585513 774.443223 
L 421.549198 774.353975 
L 417.795435 773.238375 
L 416.022185 772.94832 
L 413.604117 772.524392 
L 411.761779 771.899656 
L 410.518201 771.252608 
L 409.9655 770.940241 
L 409.620061 770.940241 
L 409.228565 771.118736 
L 408.837068 771.475728 
L 408.16922 772.234336 
L 406.234766 773.996983 
L 404.945129 774.755591 
L 404.116077 775.157206 
L 403.379142 775.31339 
L 402.204652 775.469574 
L 401.421658 775.737318 
L 400.891986 776.161246 
L 400.362314 776.719046 
L 399.947788 777.343781 
L 399.717496 777.968517 
L 399.533262 779.12874 
L 399.418116 779.731164 
L 399.210853 780.13278 
L 398.796327 780.46746 
L 398.036363 780.936012 
L 397.000048 781.449187 
L 395.503148 782.877155 
L 394.743184 783.658074 
L 394.190483 785.041418 
L 393.937161 785.621529 
L 393.476577 786.134705 
L 391.887561 787.339552 
L 389.745843 789.057575 
L 388.548324 790.061615 
L 387.327775 790.753287 
L 386.913249 791.154902 
L 384.449122 794.457077 
L 384.103684 794.791757 
L 383.804304 795.28262 
L 383.297661 796.264348 
L 382.929193 797.246075 
L 382.491638 797.491507 
L 381.892878 797.558443 
L 379.612985 797.134515 
L 377.977911 796.643652 
L 376.434953 795.907356 
L 375.559842 795.193372 
L 374.707761 794.122397 
L 373.947797 793.162981 
L 372.566044 791.891198 
L 371.322466 791.087966 
L 370.470384 790.998719 
L 367.775966 791.288774 
L 366.854797 791.534206 
L 366.094832 791.980446 
L 365.242751 792.716742 
L 363.653735 794.122397 
L 362.847712 794.903317 
L 362.133806 795.104124 
L 361.396871 795.126436 
L 360.061176 794.903317 
L 359.439387 794.836381 
L 359.186066 794.992565 
L 359.07092 795.237996 
L 359.07092 795.684236 
L 359.255154 796.264348 
L 360.153293 798.049307 
L 360.176322 798.607107 
L 360.130264 800.637498 
L 359.923001 801.797721 
L 359.899972 802.154713 
L 359.64665 802.355521 
L 359.232124 802.355521 
L 358.310955 802.288585 
L 357.136465 802.199337 
L 355.915916 802.221649 
L 354.902631 802.534017 
L 354.050549 803.091816 
L 353.520877 803.761176 
L 353.382702 804.14048 
L 353.45179 804.854464 
L 353.72814 806.550175 
L 354.142666 808.06739 
L 354.257812 808.40207 
L 354.856572 810.320901 
L 355.52442 813.020652 
L 355.823799 814.403995 
L 355.731683 814.984107 
L 355.178981 815.898898 
L 353.659053 817.884665 
L 352.622738 819.357256 
L 351.816715 820.138176 
L 349.352588 822.057007 
L 347.740543 823.618846 
L 346.105468 825.069125 
L 342.397763 827.523444 
L 339.24276 829.888515 
L 338.851263 830.312443 
L 338.828234 830.714059 
L 338.828234 831.160298 
L 339.012468 831.718098 
L 339.956666 833.413809 
L 340.808747 834.886401 
L 340.992981 835.310328 
L 340.923893 835.756568 
L 340.532396 836.425928 
L 340.140899 837.229159 
L 340.140899 837.987767 
L 340.209987 838.590191 
L 340.578455 839.348798 
L 341.453565 840.241278 
L 342.605026 841.490749 
L 343.848604 843.030277 
L 345.322474 844.703676 
L 346.197585 845.573843 
L 346.381819 845.997771 
L 346.450906 846.377075 
L 346.427877 846.957187 
L 346.151526 848.385154 
L 345.667913 850.460169 
L 345.483679 851.59808 
L 344.977036 854.587887 
L 344.723715 855.815046 
L 344.677656 856.930646 
L 344.838861 857.711565 
L 345.184299 858.470173 
L 346.013351 859.808892 
L 346.681198 860.545188 
L 348.431419 861.995467 
L 348.730799 862.397083 
L 348.915033 862.754075 
L 348.822916 863.133378 
L 348.500507 863.668866 
L 347.2339 864.672906 
L 346.174556 865.186081 
L 345.43762 865.409201 
L 343.848604 865.721569 
L 342.904406 866.011625 
L 342.098383 866.502489 
L 341.269331 867.19416 
L 339.703344 868.488256 
L 336.732575 870.808703 
L 336.087756 871.12107 
L 335.535055 871.12107 
L 335.120529 870.987199 
L 334.314506 870.340151 
L 333.416367 869.447671 
L 333.070928 869.269175 
L 332.72549 869.269175 
L 331.896438 869.670791 
L 329.593516 871.054135 
L 327.175448 872.281294 
L 326.139133 872.660598 
L 325.356139 872.749846 
L 324.181649 872.57135 
L 320.934529 871.723494 
L 318.286168 871.522686 
L 315.062077 871.634246 
L 314.140908 871.857366 
L 313.726382 872.192046 
L 312.851272 873.954693 
L 312.505833 874.668677 
L 312.528863 875.404972 
L 312.690067 875.918148 
L 313.265798 877.390739 
L 313.265798 877.747731 
L 313.012476 878.193971 
L 312.02222 879.443442 
L 312.02222 880.001242 
L 312.229483 880.402858 
L 313.450032 881.830825 
L 314.739668 883.504224 
L 315.338428 884.485952 
L 316.44383 886.806399 
L 316.44383 887.230326 
L 316.374743 887.565006 
L 315.914158 888.301302 
L 315.384486 889.126845 
L 314.831785 890.644061 
L 314.808756 891.42498 
L 315.131165 895.061835 
L 315.154194 895.508074 
L 315.315399 895.79813 
L 315.56872 896.110498 
L 316.236567 896.512114 
L 317.249853 897.047602 
L 318.263139 897.650025 
L 319.092191 898.051641 
L 319.4146 898.497881 
L 321.832668 903.76351 
L 321.970844 904.254374 
L 321.947814 904.54443 
L 321.717522 904.968358 
L 320.980587 905.593093 
L 319.852155 906.530197 
L 316.098392 910.278611 
L 315.223282 910.769475 
L 312.551892 911.238026 
L 309.627181 911.706578 
L 308.521778 911.684266 
L 307.001849 911.304962 
L 304.998307 910.501731 
L 303.7317 910.367859 
L 303.13294 910.412483 
L 302.626297 910.546355 
L 301.797245 911.104154 
L 300.899106 911.61733 
L 299.632499 912.018946 
L 296.661729 912.710618 
L 294.473953 913.268417 
L 292.217089 913.580785 
L 290.052342 913.870841 
L 287.726391 914.272457 
L 285.999199 914.406329 
L 285.308323 914.250145 
L 284.732592 913.870841 
L 283.558102 912.911426 
L 280.587332 910.702539 
L 280.05766 910.122427 
L 279.873426 909.586939 
L 279.896456 909.073763 
L 280.05766 908.404404 
L 280.05766 907.69042 
L 279.942514 907.110308 
L 279.274667 905.838525 
L 278.88317 904.298998 
L 278.88317 903.808134 
L 279.18255 903.294958 
L 279.643134 902.759471 
L 279.620105 902.112423 
L 279.412842 901.599247 
L 278.998316 900.907576 
L 278.330468 900.238216 
L 277.639592 899.479608 
L 277.017803 897.739273 
L 276.257839 896.110498 
L 276.142692 895.262642 
L 276.188751 894.392475 
L 276.303897 892.942196 
L 276.21178 892.362084 
L 275.958459 891.938156 
L 275.474845 891.692724 
L 274.73791 891.692724 
L 273.816741 891.938156 
L 272.158637 892.942196 
L 269.671481 894.169355 
L 269.049692 894.124731 
L 267.944289 893.343811 
L 266.723741 892.339772 
L 265.618338 891.781972 
L 264.628082 891.625788 
L 263.937205 891.380356 
L 263.223299 890.420941 
L 262.325159 888.435174 
L 261.588224 886.360159 
L 259.492565 882.299377 
L 258.502309 880.64829 
L 257.719315 879.577314 
L 253.481938 877.658483 
L 252.745003 877.279179 
L 252.100185 876.855252 
L 251.432338 876.72138 
L 250.488139 876.743692 
L 249.336678 876.743692 
L 248.668831 876.409012 
L 247.010727 875.293412 
L 244.84598 873.620013 
L 244.155103 873.486141 
L 243.349081 873.463829 
L 241.875211 873.597701 
L 241.207363 873.597701 
L 241.046159 873.441517 
L 241.046159 873.129149 
L 241.253422 872.147422 
L 241.207363 871.188006 
L 241.023129 870.518647 
L 240.148019 869.090679 
L 238.236593 866.993353 
L 236.27911 865.699257 
L 235.657321 865.453825 
L 234.551918 865.364577 
L 228.56432 865.409201 
L 224.096651 865.096833 
L 221.010736 864.784466 
L 217.003651 864.27129 
L 215.414635 864.248978 
L 214.217115 864.472098 
L 213.134742 865.208393 
L 212.282661 865.989313 
L 210.394264 867.461904 
L 208.114372 865.632321 
L 207.193203 865.05221 
L 205.350865 863.735802 
L 201.504985 861.214547 
L 199.662647 860.411316 
L 198.787537 860.522876 
L 197.083374 860.991428 
L 193.67505 862.240899 
L 190.589134 862.687139 
L 189.23041 862.597891 
L 187.365043 861.839283 
L 183.61128 860.5675 
L 182.11438 859.741956 
L 181.170182 858.447861 
L 179.788429 855.792734 
L 178.982406 852.959112 
L 178.199413 849.322257 
L 174.814117 844.458244 
L 172.879662 842.472477 
L 171.797289 842.003925 
L 170.208273 842.227045 
L 169.333162 842.427853 
L 168.734402 842.249357 
L 168.527139 841.803117 
L 167.467795 838.947183 
L 167.053269 838.121639 
L 165.648487 836.849856 
L 165.326078 835.912752 
L 165.303048 834.529409 
L 166.293305 830.513251 
L 167.122357 828.639044 
L 167.122357 828.081244 
L 166.799948 827.434196 
L 165.809691 826.697901 
L 164.497026 826.095477 
L 163.691003 825.269933 
L 162.263191 823.44035 
L 159.223334 819.51344 
L 156.690119 816.858314 
L 155.79198 816.59057 
L 154.89384 816.81369 
L 152.176392 818.710209 
L 151.439457 819.17876 
L 149.919528 819.95968 
L 148.791096 820.249736 
L 147.409343 820.338984 
L 146.856642 820.450544 
L 146.349999 820.785224 
L 145.267625 823.32879 
L 143.747697 827.166452 
L 143.287112 829.330715 
L 143.264083 830.892555 
L 143.333171 833.726177 
L 143.171966 834.529409 
L 142.596236 835.511136 
L 141.490833 836.604424 
L 140.730869 837.028352 
L 140.132109 837.028352 
L 139.441232 836.5598 
L 138.013421 835.377264 
L 137.414661 835.310328 
L 135.019622 836.403616 
L 134.006336 836.67136 
L 132.877904 836.849856 
L 131.841589 836.715984 
L 129.930164 835.466512 
L 128.709615 834.908713 
L 127.926622 834.931025 
L 126.660014 835.77888 
L 124.794647 837.831583 
L 124.564355 838.724063 
L 124.264975 840.352838 
L 123.505011 841.267629 
L 121.731761 842.450165 
L 119.774277 843.364956 
L 119.152488 843.387268 
L 118.461611 842.985653 
L 117.586501 842.115485 
L 116.43504 841.490749 
L 115.329637 841.446125 
L 113.786679 842.048549 
L 112.750364 842.293981 
L 111.552845 842.249357 
L 109.733536 841.803117 
L 109.019631 841.579997 
L 108.582075 841.089133 
L 108.305725 840.285902 
L 107.430614 839.081054 
L 106.002802 837.653087 
L 102.893858 834.083169 
L 99.094036 829.776955 
L 98.311042 829.308403 
L 97.343815 829.085283 
L 96.491734 829.107595 
L 95.109981 829.219155 
L 94.188812 829.732331 
L 93.336731 830.624811 
L 92.415562 831.383418 
L 91.471364 831.807346 
L 90.619282 831.829658 
L 89.559938 831.450354 
L 88.431506 830.490939 
L 85.875263 828.527484 
L 82.628142 826.564029 
L 81.683944 826.407845 
L 81.085185 826.430157 
L 79.795548 826.385533 
L 79.173759 826.318597 
L 78.137444 825.760797 
L 76.732662 824.578262 
L 74.10733 822.837927 
L 72.702548 822.235503 
L 70.376597 821.722327 
L 67.497944 821.119903 
L 65.701665 821.164527 
L 64.158707 821.610767 
L 62.707866 821.945447 
L 61.648522 821.744639 
L 59.138336 820.807536 
L 57.917788 820.1828 
L 57.203882 819.468816 
L 56.743297 818.598649 
L 56.743297 817.862353 
L 57.710525 815.742714 
L 58.032934 814.604803 
L 58.102021 813.779259 
L 58.009904 813.065275 
L 57.641437 812.574412 
L 56.397859 811.458812 
L 54.670667 810.700205 
L 53.634352 810.566333 
L 52.252599 810.990261 
L 51.838073 811.414188 
L 51.861102 812.21742 
L 51.699898 812.77522 
L 50.939933 813.288395 
L 48.798216 814.225499 
L 43.685729 817.014498 
L 41.060397 818.844081 
L 40.047112 819.51344 
L 38.941709 819.870432 
L 36.523641 819.915056 
L 35.556413 819.535752 
L 34.934624 818.821769 
L 33.87528 817.549985 
L 32.217176 816.679818 
L 30.466955 815.831962 
L 28.970056 814.649427 
L 27.841624 813.957755 
L 26.713192 813.556139 
L 24.916913 813.846195 
L 24.133919 813.779259 
L 23.420013 813.310707 
L 22.452786 812.128172 
L 22.176436 811.235692 
L 22.03826 809.785413 
L 21.854026 809.205301 
L 21.16315 808.73675 
L 20.288039 808.424382 
L 19.182637 808.469006 
L 18.399643 808.40207 
L 18.123292 808.06739 
L 18.100263 807.17491 
L 18.123292 804.02892 
L 18.652965 801.262233 
L 18.79114 800.43669 
L 18.998403 798.250115 
L 19.159607 797.424571 
L 21.577676 793.899277 
L 22.406728 792.493622 
L 22.729137 791.511894 
L 22.706108 790.864847 
L 22.33764 790.150863 
L 21.278296 789.280695 
L 18.652965 787.629608 
L 17.869971 786.848689 
L 17.59362 786.290889 
L 17.409387 785.398409 
L 16.856685 784.193562 
L 11.99752 781.426875 
L 10.8 779.508044 
L 11.928432 778.169325 
L 18.123292 777.611525 
L 22.982458 778.593253 
L 26.644105 778.504005 
L 31.019657 778.191637 
L 32.608673 777.946205 
L 38.066598 775.224142 
L 43.109998 774.041607 
L 47.715842 774.599407 
L 50.916904 773.015256 
L 53.841615 770.784057 
L 53.081651 767.995058 
L 47.854018 761.189901 
L 46.172885 757.976975 
L 46.103797 755.165664 
L 47.854018 751.015635 
L 51.446576 747.49034 
L 54.90096 747.401092 
L 58.125051 747.557276 
L 59.691038 746.017749 
L 59.345599 741.042175 
L 59.184395 734.772507 
L 58.309284 727.231054 
L 55.039135 719.310298 
L 54.624609 719.131802 
L 53.795557 718.797123 
L 53.150739 718.217011 
L 52.575008 716.543612 
L 52.344716 715.18258 
L 52.920446 712.527454 
L 53.519206 711.077174 
L 55.614865 707.708064 
L 56.098479 706.815585 
L 56.443917 706.123913 
L 56.489976 704.495138 
L 56.466947 703.647282 
L 56.259684 703.156418 
L 55.614865 702.643243 
L 54.532492 701.996195 
L 53.795557 701.505331 
L 53.311943 700.992156 
L 52.367745 699.318756 
L 51.216284 696.284326 
L 50.479349 694.610927 
L 50.249057 694.097751 
L 49.696355 693.160647 
L 48.567924 691.911176 
L 47.462521 690.996385 
L 47.001937 690.416273 
L 46.195914 687.538026 
L 46.080768 685.686131 
L 46.195914 683.722676 
L 46.748615 680.39819 
L 47.255258 679.17103 
L 50.916904 678.523983 
L 54.417346 680.17507 
L 59.046219 680.73287 
L 62.500603 680.866742 
L 63.16845 679.996574 
L 63.122392 677.832311 
L 60.036476 674.217769 
L 56.190596 667.3903 
L 53.979791 661.812303 
L 55.77607 659.826536 
L 60.589177 659.514168 
L 69.133019 660.406648 
L 78.644087 663.017151 
L 87.7176 667.144868 
L 93.152497 672.43281 
L 98.725568 674.708633 
L 105.035575 677.809999 
L 108.305725 680.554374 
L 113.602446 680.442814 
L 121.639644 679.193342 
L 129.676842 678.590919 
L 132.647612 677.229887 
L 133.29243 676.1366 
L 133.522722 675.712672 
L 132.279144 671.20565 
L 126.475781 660.071968 
L 122.814134 651.281044 
L 122.675959 644.587448 
L 120.350008 634.480117 
L 117.90891 628.478192 
L 121.294206 625.153705 
L 124.863735 620.758244 
L 128.548411 620.468188 
L 130.436807 622.163899 
L 133.683927 622.967131 
L 138.427947 619.196404 
L 139.717583 615.492614 
L 140.915103 607.683418 
L 141.007219 601.636869 
L 139.026706 595.835752 
L 138.243713 591.529538 
L 138.704297 582.448559 
L 139.487291 575.933458 
L 137.783128 571.872676 
L 137.667982 567.54415 
L 140.98419 561.430665 
L 142.895616 554.268517 
L 142.319885 549.292943 
L 140.086051 543.067898 
L 137.13831 536.708982 
L 135.733528 533.652239 
L 131.035566 530.506249 
L 129.791989 529.926137 
L 127.995709 529.055969 
L 125.923079 529.100593 
L 118.369495 531.220232 
L 111.598903 527.672626 
L 106.923971 524.526636 
L 103.42353 523.522596 
L 101.765426 521.402957 
L 102.387215 518.792455 
L 108.4439 511.541058 
L 111.9904 505.204453 
L 111.921312 501.969215 
L 109.572332 500.072696 
L 105.864627 499.492584 
L 100.061263 498.310049 
L 97.228669 495.141746 
L 94.53425 488.715894 
L 87.74063 484.52124 
L 83.756574 481.799177 
L 82.259675 477.515275 
L 82.305733 476.488924 
L 82.559055 470.598559 
L 85.737087 468.59048 
L 94.027607 467.764936 
L 101.120607 465.444489 
L 107.292439 463.168666 
L 114.408468 461.495267 
L 115.329637 461.472955 
L 117.954969 463.21329 
L 119.958511 464.128082 
L 121.432381 464.507386 
L 123.758332 465.109809 
L 125.32432 465.801481 
L 125.946108 466.515465 
L 126.153371 467.162512 
L 126.268518 467.02864 
L 126.77516 466.850145 
L 127.719359 466.760897 
L 129.285346 467.117888 
L 130.321661 467.095576 
L 131.703414 467.006328 
L 133.407576 466.515465 
L 134.78933 466.136161 
L 137.253456 465.176745 
L 138.980648 464.909002 
L 140.869044 464.864378 
L 142.964703 464.618946 
L 143.908901 464.373514 
L 144.599778 463.949586 
L 146.373028 462.700115 
L 148.422629 461.049027 
L 147.639635 458.996324 
L 147.593577 457.322925 
L 148.998359 453.529887 
L 151.600661 449.848409 
L 152.130334 446.613171 
L 150.679493 442.039213 
L 150.426171 438.134615 
L 149.896499 434.363889 
L 148.906243 430.481603 
L 148.837155 427.53642 
L 149.620148 423.185582 
L 154.272051 417.652209 
L 158.094902 414.773963 
L 161.940782 412.877444 
L 167.145386 412.341956 
L 169.655571 411.04786 
L 172.557253 407.34407 
L 176.403133 405.447551 
L 177.186127 405.202119 
L 179.74237 404.4212 
L 181.354416 404.153456 
L 183.427046 404.599696 
L 185.338471 404.75588 
L 187.180809 404.688944 
L 187.664423 404.599696 
L 187.871686 404.242704 
L 187.871686 403.595656 
L 187.871686 402.948609 
L 188.101978 402.457745 
L 190.473988 398.999386 
L 190.612163 398.374651 
L 189.990374 394.983228 
L 189.092234 392.238854 
L 189.276468 387.977264 
L 189.414643 386.705481 
L 189.483731 386.571609 
L 191.510303 385.188265 
L 193.582933 386.058433 
L 195.839796 386.303865 
L 196.070089 382.600075 
L 196.047059 381.573723 
L 196.645819 377.758373 
L 196.208264 376.665086 
L 194.987715 375.460238 
L 194.895598 374.701631 
L 195.72465 373.362911 
L 197.428813 371.533328 
L 199.340238 370.350793 
L 200.077173 369.079009 
L 200.399582 366.959371 
L 200.629874 365.665275 
L 201.136517 365.107475 
L 202.771592 364.281932 
L 203.301264 364.25962 
L 204.268491 364.326556 
L 204.91331 364.304244 
L 205.143602 364.25962 
L 205.926595 363.835692 
L 206.202946 363.344828 
L 206.410209 362.675469 
L 206.38718 361.002069 
L 206.571414 360.734326 
L 209.473096 358.034575 
L 210.163972 356.227304 
L 211.891164 352.746634 
L 212.374778 351.742594 
L 212.582041 349.913011 
L 212.167515 348.596604 
L 207.538641 346.231533 
L 207.446524 344.915126 
L 207.538641 343.84415 
L 207.515612 343.464846 
L 206.98594 342.728551 
L 206.133858 342.215375 
L 203.554586 341.456767 
L 202.702504 340.519664 
L 202.610388 339.984176 
L 202.587358 338.757017 
L 202.771592 337.931473 
L 205.673274 335.945706 
L 209.473096 335.20941 
L 211.200287 333.536011 
L 213.20383 326.820103 
L 213.756531 325.882999 
L 216.75033 323.76336 
L 217.809674 320.595058 
L 220.665297 318.207675 
L 226.629866 315.68642 
L 229.186109 318.096115 
L 231.074506 320.684306 
L 231.650236 321.442913 
L 232.617463 321.956089 
L 233.584691 321.465225 
L 234.275567 320.483498 
L 234.690093 319.546394 
L 235.104619 318.363859 
L 235.196736 317.649875 
L 235.150678 317.114387 
L 234.759181 316.422716 
L 233.884071 315.35174 
L 231.581148 311.670262 
L 228.195853 306.092265 
L 227.551035 304.619674 
L 228.334028 302.611595 
L 226.49169 299.577164 
L 223.520921 294.110727 
L 222.760957 292.68276 
L 221.931905 290.072257 
L 221.17194 287.952618 
L 220.020479 285.855291 
L 220.227742 283.691028 
L 217.694528 282.151501 
L 215.000109 279.56331 
L 213.871677 277.956847 
L 213.664414 277.399047 
L 213.1808 273.963001 
L 211.292404 270.125339 
L 208.989482 267.983388 
L 203.462469 264.480406 
L 201.873452 262.115335 
L 202.218891 259.013968 
L 203.11703 256.916642 
L 204.867251 251.227084 
L 205.673274 249.977613 
L 205.466011 248.839702 
L 202.24192 245.381343 
L 201.251663 242.257665 
L 199.86991 240.85201 
L 199.662647 240.472706 
L 199.685676 240.138026 
L 201.689219 238.107635 
L 202.403125 236.456548 
L 202.357066 234.827773 
L 201.528014 232.618886 
L 199.57053 231.057046 
L 197.22155 230.276127 
L 194.181692 228.1788 
L 195.333153 224.876626 
L 194.987715 222.734675 
L 193.283553 219.945676 
L 191.533332 216.911246 
L 191.487273 216.554254 
L 190.796397 212.3596 
L 188.861942 211.221688 
L 185.108179 209.882969 
L 184.624565 209.525977 
L 183.242812 206.647731 
L 182.11438 205.866811 
L 179.880546 205.866811 
L 178.383646 205.621379 
L 176.357075 205.420571 
L 174.606854 204.50578 
L 172.971779 201.136669 
L 171.313675 196.495776 
L 170.024039 192.970481 
L 169.632542 191.364018 
L 170.438565 188.932012 
L 170.415536 187.481732 
L 169.885863 186.834685 
L 167.767175 185.607525 
L 166.339363 183.53251 
L 165.970896 182.416911 
L 166.454509 180.631952 
L 167.260532 178.177633 
L 167.559912 176.080306 
L 167.997467 173.335931 
L 168.112613 170.435373 
L 168.573198 168.471918 
L 170.27736 166.508463 
L 176.034666 161.778321 
L 177.946091 160.037986 
L 181.262299 158.096843 
L 181.193211 156.981243 
L 180.64051 155.530964 
L 179.995692 152.585782 
L 179.512078 151.626366 
L 178.982406 151.068566 
L 177.554594 150.309959 
L 176.034666 149.328231 
L 176.748572 148.547312 
L 177.99215 144.464218 
L 178.498792 143.995666 
L 180.225984 142.835443 
L 182.644052 141.585971 
L 183.058578 141.028171 
L 183.427046 140.3365 
L 184.163981 138.886221 
L 185.131208 137.859869 
L 185.983289 137.056637 
L 186.006319 136.52115 
L 185.868143 136.007974 
L 185.154237 134.468447 
L 185.016062 133.821399 
L 184.946974 133.397471 
L 184.970004 133.085103 
L 185.062121 132.884296 
L 185.637851 132.415744 
L 186.029348 132.03644 
L 186.881429 130.608473 
L 187.111721 129.425937 
L 187.111721 127.797162 
L 186.789312 126.815435 
L 185.568763 125.164347 
L 187.203838 124.004124 
L 189.368585 121.906797 
L 190.543075 119.92103 
L 191.487273 118.738495 
L 192.016946 118.292255 
L 192.753881 118.002199 
L 198.511186 116.306488 
L 200.491699 115.681752 
L 202.057686 115.2132 
L 203.900024 114.365345 
L 204.659988 114.320721 
L 205.466011 114.923144 
L 207.101086 116.908912 
L 208.413751 118.069135 
L 209.404008 118.515375 
L 210.463352 118.559999 
L 211.914193 118.314567 
L 213.342005 118.292255 
L 217.970878 119.608662 
L 219.145369 120.612702 
L 219.813216 120.947381 
L 220.688327 121.125877 
L 223.106395 121.326685 
L 225.685668 121.705989 
L 227.182567 121.951421 
L 229.830928 123.156268 
L 232.018704 124.093372 
L 232.594434 124.227244 
L 234.413743 124.584236 
L 237.223308 124.606548 
L 241.230392 128.801202 
L 246.158646 132.549616 
L 248.69186 133.955271 
L 250.142701 134.223015 
L 250.741461 134.423823 
L 251.800805 134.95931 
L 254.03464 136.63271 
L 256.406649 138.127613 
L 258.548367 136.610398 
L 261.772458 135.29399 
L 263.108153 135.160118 
L 264.927461 135.271678 
L 265.664397 135.40555 
L 266.493449 135.941038 
L 266.815858 136.431902 
L 266.861916 137.279757 
L 266.700712 140.046444 
L 266.792828 140.760428 
L 267.460676 141.228979 
L 269.510277 142.389203 
L 270.408416 142.924691 
L 270.615679 143.326306 
L 270.707796 143.527114 
L 271.053234 144.48653 
L 271.536848 145.914497 
L 271.928345 146.873913 
L 272.158637 147.610208 
L 272.181666 148.011824 
L 271.905316 148.926616 
L 271.283527 150.912383 
L 271.237468 151.827174 
L 271.513819 153.032021 
L 272.342871 154.794669 
L 273.816741 157.315923 
L 274.162179 158.096843 
L 274.185209 158.766203 
L 274.231267 159.435562 
L 274.484588 159.904114 
L 275.014261 160.64041 
L 275.497874 161.064337 
L 276.626306 162.001441 
L 278.238352 163.00548 
L 281.715764 163.540968 
L 284.732592 164.321888 
L 286.966427 164.991247 
L 287.956683 165.549047 
L 288.371209 166.441527 
L 288.394238 166.977014 
L 288.325151 168.449606 
L 288.762706 171.015484 
L 288.693618 171.707156 
L 288.486355 172.30958 
L 287.795479 172.86738 
L 287.542157 173.603675 
L 287.265806 174.295347 
L 287.104602 174.987018 
L 286.85128 175.477882 
L 286.045258 176.281114 
L 285.331352 176.838914 
L 285.008943 177.374401 
L 285.008943 178.110697 
L 286.57493 178.266881 
L 287.864566 179.025488 
L 289.108144 182.238415 
L 291.664388 182.573095 
L 293.575813 183.398638 
L 295.671472 185.272845 
L 296.730817 187.035492 
L 297.767132 188.619644 
L 298.089541 189.088195 
L 298.135599 189.378251 
L 298.135599 189.958363 
L 297.859248 191.631762 
L 297.51381 194.286889 
L 297.375635 197.522127 
L 297.352606 198.146863 
L 297.467752 198.860847 
L 297.790161 199.329398 
L 298.342862 199.552518 
L 299.471294 199.530206 
L 300.645784 199.440958 
L 302.050567 199.083966 
L 303.363232 198.704663 
L 303.570495 198.704663 
L 303.754729 198.883159 
L 303.685642 199.775638 
L 303.708671 200.645806 
L 303.985021 201.560597 
L 304.491664 202.118397 
L 305.067395 202.163021 
L 308.130281 202.229957 
L 308.199369 202.94394 
L 307.87696 205.465195 
L 307.646668 206.402299 
L 307.163054 207.65177 
L 304.675898 210.753137 
L 302.372976 213.363639 
L 300.346404 215.751022 
L 299.333119 218.383837 
L 298.941622 220.458852 
L 298.066511 223.560218 
L 297.582898 224.006458 
L 296.155086 224.519634 
L 294.635157 225.166681 
L 293.529755 225.813729 
L 292.700703 226.661585 
L 292.171031 228.781224 
L 291.664388 231.146294 
L 292.240118 232.730446 
L 292.884937 234.269973 
L 293.460667 234.716213 
L 295.993882 235.385572 
L 297.767132 235.541756 
L 299.28706 235.742564 
L 300.599726 236.054932 
L 301.474836 236.568108 
L 302.488122 237.460587 
L 302.810531 238.219195 
L 303.616554 240.18265 
L 304.008051 241.119753 
L 305.044366 242.190729 
L 305.182541 242.391537 
L 307.646668 244.198808 
L 308.798129 244.979727 
L 309.143567 245.024351 
L 310.24897 244.711984 
L 313.265798 243.618696 
L 315.384486 243.127832 
L 317.434087 243.038584 
L 320.128506 243.150144 
L 321.648434 243.641008 
L 322.477486 243.596384 
L 324.780409 242.882401 
L 326.000957 242.570033 
L 326.922126 242.614657 
L 328.096617 243.10552 
L 328.925669 243.641008 
L 329.363224 244.488864 
L 329.47837 245.359031 
L 329.202019 246.831623 
L 327.935412 249.464437 
L 326.622746 252.699676 
L 326.254279 254.417699 
L 325.954899 255.734106 
L 326.116103 257.853745 
L 326.139133 258.880097 
L 326.20822 259.951072 
L 326.691834 260.620432 
L 327.843295 261.445975 
L 328.395996 261.669095 
L 328.718406 261.646783 
L 328.925669 261.512911 
L 329.685633 260.241128 
L 330.008042 260.084944 
L 331.067386 259.951072 
L 332.333993 260.062632 
L 332.978812 260.330376 
L 333.992097 260.731992 
L 334.775091 261.088983 
L 335.39688 261.178231 
L 335.788377 261.155919 
L 336.755604 260.9328 
L 337.423451 260.731992 
L 337.953123 260.642744 
L 338.505825 260.59812 
L 339.726374 260.575808 
L 340.394221 260.665056 
L 340.762688 260.888176 
L 340.900864 261.111295 
L 341.062068 261.490599 
L 341.384477 262.673135 
L 341.91415 263.96723 
L 342.052325 264.145726 
L 342.236559 264.324222 
L 342.651085 264.725838 
L 342.904406 265.350573 
L 342.950465 266.153805 
L 342.766231 267.4479 
L 342.720172 268.072636 
L 342.812289 269.143611 
L 343.019552 269.723723 
L 343.457107 269.924531 
L 344.654627 269.946843 
L 346.842403 269.879907 
L 347.118754 270.103027 
L 347.487221 270.817011 
L 348.201127 272.71353 
L 349.00715 273.650633 
L 350.688283 274.498489 
L 351.517335 276.038016 
L 353.359673 278.581583 
L 353.72814 279.496374 
L 355.063835 282.597741 
L 355.50139 283.646404 
L 356.284384 284.04802 
L 358.748511 284.181892 
L 359.508475 284.114956 
L 360.636907 284.025708 
L 361.051433 284.04802 
L 361.71928 284.204204 
L 364.736108 285.721419 
L 366.440271 286.480027 
L 367.453556 286.703147 
L 368.144433 286.703147 
L 369.272865 286.413091 
L 370.585531 285.475987 
L 372.543014 281.928381 
L 374.822907 285.431363 
L 373.487213 286.926267 
L 372.635131 289.960697 
L 373.5563 292.727384 
L 373.947797 295.204014 
L 374.961083 297.524461 
L 375.306521 298.528501 
L 375.651959 300.514268 
L 375.721047 302.254603 
L 375.813164 303.057834 
L 376.388894 304.35193 
L 376.918567 305.512153 
L 377.540356 306.069953 
L 378.208203 306.449257 
L 379.589956 306.560817 
L 381.662586 306.471569 
L 382.468609 307.631792 
L 382.906164 309.595247 
L 383.481895 311.290958 
L 383.988538 311.938006 
L 384.403064 312.20575 
L 385.278174 312.250374 
L 385.969051 312.161126 
L 388.801645 311.179398 
L 392.50935 313.722965 
L 394.697126 314.950125 
L 395.75647 315.418676 
L 397.092165 315.664108 
L 397.944246 315.641796 
L 399.648408 315.24018 
L 401.053191 314.146893 
L 401.007132 310.108423 
L 401.007132 308.72508 
L 401.07622 303.861066 
L 401.191366 302.209979 
L 401.698009 302.209979 
L 405.889327 306.136889 
L 410.426084 307.72104 
L 411.876925 308.144968 
L 412.890211 308.72508 
L 413.442912 309.037447 
L 414.364081 309.996863 
L 415.077987 310.264607 
L 415.930068 310.264607 
L 418.555399 309.862991 
L 420.351679 309.528311 
L 421.364964 309.082071 
L 424.612085 306.806249 
" clip-path="url(#pd56acb7d7e)"/>
   </g>
  </g>
 </g>
 <defs>
  <clipPath id="pd56acb7d7e">
   <rect x="10.8" y="114.320721" width="1058.4" height="851.358558"/>
  </clipPath>
 </defs>
</svg>
