<?xml version="1.0" encoding="utf-8" standalone="no"?>
<!DOCTYPE svg PUBLIC "-//W3C//DTD SVG 1.1//EN"
  "http://www.w3.org/Graphics/SVG/1.1/DTD/svg11.dtd">
<svg xmlns:xlink="http://www.w3.org/1999/xlink" width="1080pt" height="1080pt" viewBox="0 0 1080 1080" xmlns="http://www.w3.org/2000/svg" version="1.1">
 <metadata>
  <rdf:RDF xmlns:dc="http://purl.org/dc/elements/1.1/" xmlns:cc="http://creativecommons.org/ns#" xmlns:rdf="http://www.w3.org/1999/02/22-rdf-syntax-ns#">
   <cc:Work>
    <dc:type rdf:resource="http://purl.org/dc/dcmitype/StillImage"/>
    <dc:date>2022-07-01T13:43:29.886559</dc:date>
    <dc:format>image/svg+xml</dc:format>
    <dc:creator>
     <cc:Agent>
      <dc:title>Matplotlib v3.5.1, https://matplotlib.org/</dc:title>
     </cc:Agent>
    </dc:creator>
   </cc:Work>
  </rdf:RDF>
 </metadata>
 <defs>
  <style type="text/css">*{stroke-linejoin: round; stroke-linecap: butt}</style>
 </defs>
 <g id="figure_1">
  <g id="patch_1">
   <path d="M 0 1080 
L 1080 1080 
L 1080 0 
L 0 0 
L 0 1080 
z
" style="fill: none; opacity: 0"/>
  </g>
  <g id="axes_1">
   <g id="PatchCollection_1">
    <path d="M 932.361307 148.974778 
L 932.514493 153.13041 
L 932.718742 158.918613 
L 934.199543 165.201533 
L 935.476096 170.099243 
L 935.680344 170.84132 
L 935.731407 173.908572 
L 939.867438 184.940787 
L 941.909923 187.760681 
L 947.067197 192.608918 
L 949.364992 197.655043 
L 950.539421 201.612789 
L 950.794731 206.708386 
L 950.079861 212.447116 
L 950.692607 217.493241 
L 953.041464 221.896233 
L 955.543508 224.963485 
L 960.700782 226.942358 
L 967.032484 229.069646 
L 972.445069 232.829504 
L 975.815168 236.737777 
L 976.530038 239.854501 
L 975.202423 242.080733 
L 973.619497 244.702739 
L 972.087634 247.621576 
L 972.598255 252.222455 
L 973.772684 255.339179 
L 974.844988 258.159073 
L 977.653405 264.244106 
L 978.98102 266.321922 
L 980.563945 275.27632 
L 980.768194 281.212938 
L 980.92138 282.449734 
L 979.134206 288.188464 
L 974.947112 294.174554 
L 970.147273 302.634234 
L 967.134609 308.026662 
L 958.913608 312.578069 
L 951.611725 315.942152 
L 943.697097 317.475778 
L 936.395214 316.634757 
L 927.510406 312.825428 
L 919.90215 312.8749 
L 914.744877 316.189511 
L 908.413174 321.928242 
L 905.706882 327.370141 
L 904.430329 332.910984 
L 901.213416 344.883164 
L 899.273055 352.106048 
L 896.566763 359.922595 
L 894.166843 365.760269 
L 894.524278 371.152697 
L 895.188086 375.654632 
L 897.026322 380.354455 
L 893.043477 384.510087 
L 889.673377 388.467832 
L 886.558588 393.810788 
L 882.218308 401.478919 
L 878.695022 407.959727 
L 874.354742 413.698458 
L 868.788971 417.656203 
L 863.018952 421.613948 
L 855.717069 426.363242 
L 849.130056 429.529438 
L 841.98136 431.953557 
L 834.424167 433.586127 
L 829.471141 433.981901 
L 826.662725 435.02081 
L 824.109619 438.533308 
L 822.373507 443.282603 
L 820.99483 449.565523 
L 820.484209 457.975732 
L 818.748097 464.258652 
L 814.714189 483.453716 
L 810.884531 501.956175 
L 809.097356 506.655997 
L 794.595715 535.201234 
L 773.762372 567.704216 
L 771.005017 572.008264 
L 769.422092 576.163896 
L 769.268905 578.884846 
L 771.056079 581.210022 
L 775.702732 584.524633 
L 785.098162 590.70861 
L 789.336317 595.012658 
L 791.531988 598.129382 
L 792.502168 601.493465 
L 792.553231 601.938712 
L 792.757479 604.560718 
L 790.408622 610.645751 
L 788.315075 616.730784 
L 785.455596 624.745218 
L 782.136559 631.819688 
L 781.115316 633.204899 
L 780.553633 635.43113 
L 780.911068 638.349967 
L 787.702329 650.520034 
L 789.898001 653.636758 
L 791.736237 654.923025 
L 792.961728 654.725138 
L 793.727659 653.933589 
L 794.034032 652.004188 
L 794.289343 648.936936 
L 795.310585 645.968627 
L 796.485014 644.830775 
L 798.221126 644.187641 
L 802.152909 644.781303 
L 805.216636 646.512817 
L 806.186816 647.70014 
L 807.054872 649.629541 
L 807.667617 651.163167 
L 807.667617 653.290455 
L 805.369822 660.810171 
L 801.642287 676.740095 
L 800.97848 679.015799 
L 801.029542 680.450481 
L 801.94866 681.093615 
L 809.097356 680.895728 
L 814.458879 680.005235 
L 816.143929 680.302066 
L 817.931103 682.132523 
L 818.033227 683.765093 
L 816.90986 685.892381 
L 814.356755 688.267028 
L 811.701524 689.899598 
L 803.174151 693.906815 
L 802.050784 694.846779 
L 801.284853 696.281462 
L 801.438039 698.260335 
L 804.450704 702.267552 
L 807.922928 706.86843 
L 812.110021 711.024063 
L 814.25463 711.964027 
L 816.501363 712.161915 
L 818.3396 710.925119 
L 820.688457 707.95681 
L 823.547936 705.681107 
L 825.079799 705.037973 
L 826.611663 704.988501 
L 828.041402 705.532691 
L 832.126371 711.419837 
L 835.036912 716.268075 
L 836.773024 721.611031 
L 837.947453 726.607684 
L 838.253825 732.247471 
L 838.304887 736.155745 
L 838.764446 738.233561 
L 844.125969 764.700982 
L 844.125969 765.393587 
L 844.279155 769.549219 
L 844.585528 772.171226 
L 845.708894 774.991119 
L 847.445006 777.761541 
L 849.436429 780.433019 
L 877.826966 796.165056 
L 883.290612 797.006076 
L 887.222395 797.995513 
L 895.800831 799.677554 
L 901.060229 801.161709 
L 902.796341 801.854314 
L 904.634577 803.684771 
L 906.983435 806.65308 
L 909.28123 809.720333 
L 911.272653 812.342339 
L 912.600268 815.013817 
L 912.65133 817.883182 
L 911.527963 820.356773 
L 908.923795 823.226138 
L 906.728124 825.848144 
L 905.757944 828.964869 
L 905.962192 831.141628 
L 907.187683 833.664691 
L 909.332292 836.484584 
L 915.663995 842.37173 
L 920.412772 844.301131 
L 924.344555 845.290567 
L 926.029604 845.142152 
L 914.33638 869.977003 
L 911.987522 875.023128 
L 902.592093 900.699 
L 897.843316 902.826288 
L 897.741192 909.15868 
L 897.434819 929.88737 
L 896.00508 938.149163 
L 893.962595 945.223633 
L 892.839228 952.891764 
L 892.89029 959.966234 
L 893.247725 970.850033 
L 888.243638 976.48982 
L 882.26937 980.645452 
L 878.133339 985.394746 
L 876.397227 990.391399 
L 875.529171 995.091222 
L 875.835543 999.543685 
L 877.980152 1005.084528 
L 880.431134 1010.378013 
L 878.031214 1011.862167 
L 873.282438 1013.989455 
L 865.265685 1017.551426 
L 858.372299 1019.678714 
L 852.091659 1020.321847 
L 842.543043 1020.964981 
L 834.781601 1020.420791 
L 826.152104 1022.251248 
L 810.322847 1025.912162 
L 807.922928 1031.700365 
L 801.335915 1022.894382 
L 793.319162 1027.841563 
L 791.174553 1022.548079 
L 788.723572 1018.738749 
L 783.923733 1014.38523 
L 774.324055 1009.734879 
L 765.592433 1004.490867 
L 756.6055 998.999495 
L 747.312195 994.349145 
L 738.325262 992.073441 
L 730.512758 989.797738 
L 726.325665 989.500907 
L 720.964143 990.737702 
L 716.777049 991.925026 
L 711.721899 995.239637 
L 708.198613 998.207946 
L 700.437172 990.638759 
L 697.526631 999.197382 
L 697.118134 1001.819389 
L 697.679817 1003.649846 
L 699.313805 1006.519211 
L 705.900818 1010.823259 
L 711.670837 1014.583117 
L 714.530316 1019.678714 
L 717.389794 1027.742619 
L 717.542981 1031.700365 
L 716.215366 1034.718145 
L 713.815446 1038.1317 
L 711.313402 1040.506348 
L 708.913483 1041.198953 
L 704.522141 1042.138917 
L 702.377532 1043.227297 
L 700.283985 1045.552473 
L 687.212083 1041.891558 
L 672.863628 1038.37906 
L 663.825634 1037.983285 
L 655.911006 1039.170609 
L 650.651607 1042.188389 
L 643.145476 1045.601944 
L 634.873413 1049.0155 
L 628.848084 1050.895429 
L 616.082554 1053.962681 
L 612.303958 1055.892082 
L 611.844399 1056.485744 
L 606.840311 1061.432925 
L 589.377067 1066.528522 
L 585.292098 1067.864261 
L 577.63278 1069.2 
L 563.539636 1068.804225 
L 559.250418 1061.383453 
L 558.024927 1059.206693 
L 557.61643 1057.178349 
L 557.463244 1053.913209 
L 557.718555 1049.708105 
L 557.565368 1047.729232 
L 556.952623 1046.591381 
L 555.727132 1045.453529 
L 554.297393 1044.66198 
L 557.003685 1045.404057 
L 587.99839 1057.574124 
L 609.444479 1052.874301 
L 609.444479 1050.351239 
L 599.538428 1032.39297 
L 595.96408 1010.823259 
L 590.959993 958.927325 
L 584.37298 947.202505 
L 581.870936 942.898458 
L 571.913823 925.23702 
L 547.250821 890.408862 
L 537.651143 888.182631 
L 523.915433 898.027522 
L 512.477519 903.073647 
L 506.503251 908.812377 
L 492.307983 922.713957 
L 484.546541 930.926278 
L 481.278565 930.926278 
L 476.734037 927.314836 
L 475.406422 913.957446 
L 458.606986 891.101468 
L 457.943178 890.210975 
L 448.956245 895.553931 
L 444.871276 895.603403 
L 431.135567 875.0726 
L 413.774447 859.835281 
L 380.788319 842.668561 
L 372.516256 835.890923 
L 369.96315 824.561877 
L 366.286678 786.864354 
L 365.163311 780.48249 
L 365.010125 779.591998 
L 361.282591 776.821576 
L 321.403077 767.867178 
L 302.510094 766.432495 
L 287.70208 762.919996 
L 262.119959 749.364719 
L 245.065212 730.466486 
L 230.104012 708.352585 
L 224.9978 693.807871 
L 226.580726 687.277592 
L 230.563571 676.690624 
L 230.512509 668.181471 
L 227.959403 659.721791 
L 220.504334 655.714574 
L 204.879326 650.618977 
L 192.522294 650.322146 
L 180.675883 654.527251 
L 174.548429 657.000841 
L 170.820894 655.813518 
L 167.910354 648.986407 
L 169.493279 645.276021 
L 177.203659 637.113172 
L 177.918528 630.830251 
L 177.969591 630.187118 
L 176.233479 621.282191 
L 172.40382 610.794167 
L 173.220814 605.945929 
L 180.931193 600.157726 
L 185.322535 589.174984 
L 193.645661 559.491895 
L 194.36053 547.717603 
L 193.083977 544.501935 
L 181.543939 537.724297 
L 178.888709 531.441376 
L 177.305783 527.632046 
L 181.33969 520.310218 
L 186.241654 515.758811 
L 186.599088 510.514799 
L 182.76943 502.005646 
L 187.262896 499.136281 
L 200.334798 490.478714 
L 199.211431 485.333645 
L 199.109307 482.266392 
L 200.436922 478.506535 
L 202.173034 474.251958 
L 204.624016 471.580481 
L 206.41119 470.244742 
L 209.525979 468.859531 
L 216.010868 467.226961 
L 218.00229 465.693335 
L 219.789464 462.774498 
L 220.606458 457.233654 
L 221.014955 452.138057 
L 221.014955 449.021333 
L 220.300086 445.904609 
L 217.338483 442.39211 
L 213.713072 438.879611 
L 212.43652 438.236478 
L 210.342973 437.148098 
L 206.258003 436.752323 
L 201.202854 436.999682 
L 197.424257 436.158661 
L 192.981853 433.338768 
L 187.773517 428.737889 
L 183.892796 424.334898 
L 183.280051 422.553912 
L 183.841734 419.338244 
L 188.130952 414.193176 
L 193.849909 402.023109 
L 196.505139 393.909732 
L 196.76045 386.983678 
L 195.177524 380.948116 
L 190.530871 377.089315 
L 189.560691 372.290549 
L 189.203256 365.710797 
L 189.458567 360.912031 
L 190.581933 358.042666 
L 194.666903 352.551295 
L 197.577444 346.664149 
L 198.394437 337.957109 
L 197.73063 331.476302 
L 194.258406 322.670319 
L 187.058647 309.213985 
L 183.688548 307.185641 
L 180.063137 303.920501 
L 171.586826 295.262934 
L 167.09336 288.040049 
L 165.714683 287.347443 
L 163.161577 288.287408 
L 159.638291 290.513639 
L 154.787389 293.877723 
L 150.242861 295.16399 
L 145.340898 293.679835 
L 133.3413 291.404132 
L 122.362945 290.909414 
L 117.716293 288.831598 
L 112.303708 286.654838 
L 108.065552 283.241283 
L 107.197496 275.672095 
L 109.188919 269.141815 
L 108.525112 265.431429 
L 105.563509 260.583192 
L 99.07862 248.165766 
L 104.235894 243.713303 
L 105.665633 240.002917 
L 107.605993 230.652744 
L 100.916856 219.37317 
L 102.499782 216.949051 
L 117.767355 218.779508 
L 122.260821 218.730036 
L 127.571281 213.436552 
L 131.911561 196.764551 
L 129.307393 181.378816 
L 133.392362 178.905226 
L 149.681178 165.349949 
L 161.936086 156.296607 
L 188.539449 145.462279 
L 194.717965 143.384463 
L 201.304978 146.946434 
L 247.66938 177.717902 
L 267.124047 187.265962 
L 280.349135 192.015257 
L 281.217191 192.015257 
L 286.476589 191.965785 
L 306.850374 173.117023 
L 318.237226 157.582874 
L 320.586083 144.176012 
L 318.288288 138.684641 
L 314.662878 130.027073 
L 318.594661 121.666336 
L 318.747847 121.320034 
L 343.615098 104.59856 
L 355.410447 89.064411 
L 360.210286 75.212303 
L 356.993373 41.175694 
L 362.610206 25.740488 
L 375.273611 15.846125 
L 376.243791 15.598766 
L 395.800582 10.8 
L 406.472564 11.096831 
L 425.416609 12.135739 
L 438.641698 14.460914 
L 449.773239 20.447004 
L 470.504459 35.684323 
L 473.67031 39.097878 
L 480.512634 46.51865 
L 485.874156 52.158437 
L 488.988945 53.939422 
L 490.878243 54.97833 
L 498.639685 55.423577 
L 500.324735 55.324633 
L 505.73732 54.285725 
L 510.639283 53.939422 
L 521.6687 55.126746 
L 527.132347 57.006675 
L 539.080882 63.14118 
L 543.62541 65.565299 
L 545.157274 65.565299 
L 547.71038 64.872693 
L 554.808014 58.490829 
L 563.590698 50.179564 
L 564.714065 49.833262 
L 567.777792 48.893297 
L 591.981235 45.232383 
L 596.985323 49.932205 
L 602.040472 58.936076 
L 614.244318 68.583079 
L 624.558866 73.678676 
L 634.567041 74.519697 
L 651.315415 77.240647 
L 659.127919 78.081668 
L 676.540101 80.555258 
L 680.62507 82.088885 
L 683.637735 84.265645 
L 693.850158 90.40015 
L 698.905308 96.979901 
L 698.905308 97.672506 
L 698.445749 98.909302 
L 695.279898 101.432364 
L 694.462904 103.609124 
L 694.820339 105.983771 
L 735.006225 144.274956 
L 736.282778 145.313864 
L 738.733759 145.412807 
L 755.941693 143.928653 
L 771.362452 132.253305 
L 774.9368 131.164925 
L 776.775036 131.511227 
L 778.102651 132.550136 
L 780.298323 135.419501 
L 783.208863 137.249958 
L 786.119404 137.052071 
L 790.663932 134.677424 
L 797.506256 130.917566 
L 804.654952 124.882004 
L 818.850221 119.093802 
L 828.654147 116.372852 
L 839.632502 112.76141 
L 843.206851 113.256128 
L 856.891498 120.281126 
L 868.840033 125.525138 
L 873.486686 129.087109 
L 879.512016 135.419501 
L 889.367004 141.801365 
L 908.157863 150.953651 
L 915.612933 151.102066 
L 927.714654 149.815799 
L 932.361307 148.974778 
" clip-path="url(#p0b04827227)"/>
   </g>
  </g>
 </g>
 <defs>
  <clipPath id="p0b04827227">
   <rect x="99.07862" y="10.8" width="881.84276" height="1058.4"/>
  </clipPath>
 </defs>
</svg>
