<?xml version="1.0" encoding="utf-8" standalone="no"?>
<!DOCTYPE svg PUBLIC "-//W3C//DTD SVG 1.1//EN"
  "http://www.w3.org/Graphics/SVG/1.1/DTD/svg11.dtd">
<svg xmlns:xlink="http://www.w3.org/1999/xlink" width="1080pt" height="1080pt" viewBox="0 0 1080 1080" xmlns="http://www.w3.org/2000/svg" version="1.1">
 <metadata>
  <rdf:RDF xmlns:dc="http://purl.org/dc/elements/1.1/" xmlns:cc="http://creativecommons.org/ns#" xmlns:rdf="http://www.w3.org/1999/02/22-rdf-syntax-ns#">
   <cc:Work>
    <dc:type rdf:resource="http://purl.org/dc/dcmitype/StillImage"/>
    <dc:date>2022-07-01T13:43:30.928504</dc:date>
    <dc:format>image/svg+xml</dc:format>
    <dc:creator>
     <cc:Agent>
      <dc:title>Matplotlib v3.5.1, https://matplotlib.org/</dc:title>
     </cc:Agent>
    </dc:creator>
   </cc:Work>
  </rdf:RDF>
 </metadata>
 <defs>
  <style type="text/css">*{stroke-linejoin: round; stroke-linecap: butt}</style>
 </defs>
 <g id="figure_1">
  <g id="patch_1">
   <path d="M 0 1080 
L 1080 1080 
L 1080 0 
L 0 0 
L 0 1080 
z
" style="fill: none; opacity: 0"/>
  </g>
  <g id="axes_1">
   <g id="PatchCollection_1">
    <path d="M 1020.42839 979.356484 
L 1019.787712 979.356484 
L 1019.147034 979.046121 
L 1018.586441 977.959854 
L 1018.586441 976.563224 
L 1018.986864 973.692374 
L 1020.108051 969.347303 
L 1022.190254 963.528012 
L 1023.551695 960.269209 
L 1026.034322 955.691366 
L 1026.915254 954.682689 
L 1027.716102 954.449917 
L 1028.436864 954.605098 
L 1029.397881 955.303413 
L 1029.798305 956.467272 
L 1029.317797 959.02776 
L 1025.553814 969.657665 
L 1022.670763 976.718405 
L 1021.549576 978.81335 
L 1020.42839 979.356484 
" clip-path="url(#p8f6aa35ae4)"/>
    <path d="M 1005.452542 951.501477 
L 1007.694915 951.656658 
L 1009.45678 950.803162 
L 1012.019492 948.553036 
L 1013.781356 947.311587 
L 1014.902542 947.311587 
L 1016.183898 947.69954 
L 1017.305085 949.561713 
L 1017.064831 952.665335 
L 1015.863559 960.50198 
L 1014.422034 973.382011 
L 1014.422034 977.339129 
L 1014.902542 979.201303 
L 1016.183898 980.597932 
L 1018.586441 981.60661 
L 1019.307203 982.615287 
L 1018.90678 984.167098 
L 1016.263983 990.762294 
L 1008.095339 1006.357995 
L 1002.008898 1016.289585 
L 997.283898 1022.108876 
L 993.359746 1026.065994 
L 990.236441 1026.764309 
L 988.554661 1026.764309 
L 987.673729 1026.376356 
L 987.19322 1025.52286 
L 982.708475 1017.453443 
L 977.90339 1008.996073 
L 975.420763 1005.271727 
L 968.373305 992.93483 
L 966.371186 986.106861 
L 966.93178 981.529019 
L 967.972881 973.692374 
L 968.213136 971.985381 
L 970.135169 968.261035 
L 975.580932 959.958846 
L 979.905508 954.372327 
L 982.548305 952.354973 
L 987.994068 950.027256 
L 990.39661 948.242673 
L 991.197458 945.992548 
L 992.719068 935.440233 
L 993.760169 933.57806 
L 995.522034 933.345288 
L 998.325 933.345288 
L 1000.086864 934.741918 
L 1001.448305 936.604091 
L 1001.928814 940.561209 
L 1001.928814 944.673508 
L 1002.409322 948.785807 
L 1003.530508 950.492799 
L 1005.452542 951.501477 
" clip-path="url(#p8f6aa35ae4)"/>
    <path d="M 1004.891949 693.978444 
L 1003.770763 694.288807 
L 1002.969915 694.288807 
L 1002.249153 693.978444 
L 1001.448305 692.504224 
L 1001.36822 691.495547 
L 1001.608475 690.719641 
L 1003.130085 688.391925 
L 1005.852966 685.133122 
L 1009.777119 680.477689 
L 1014.902542 674.96876 
L 1022.911017 666.588981 
L 1025.15339 663.71813 
L 1026.675 660.381737 
L 1027.555932 655.726304 
L 1027.796186 651.846776 
L 1027.475847 648.743154 
L 1027.155508 645.949895 
L 1026.514831 644.010131 
L 1024.192373 640.363375 
L 1022.510593 637.104572 
L 1022.670763 635.630352 
L 1023.231356 634.388903 
L 1024.512712 634.078541 
L 1026.274576 634.311312 
L 1028.276695 635.940714 
L 1030.438983 638.889155 
L 1031.960593 642.53591 
L 1033.402119 646.64821 
L 1033.482203 655.027989 
L 1033.001695 659.605831 
L 1031.720339 663.64054 
L 1029.157627 667.520067 
L 1023.391525 674.348036 
L 1013.621186 685.055531 
L 1008.575847 690.952413 
L 1006.013136 693.435311 
L 1004.891949 693.978444 
" clip-path="url(#p8f6aa35ae4)"/>
    <path d="M 1016.984746 594.895313 
L 1015.783475 595.050495 
L 1014.742373 594.740132 
L 1014.02161 593.731455 
L 1013.781356 591.946873 
L 1013.941525 589.153613 
L 1015.142797 585.662038 
L 1016.023729 579.920337 
L 1015.783475 575.420086 
L 1014.742373 571.77333 
L 1011.378814 564.71259 
L 1009.216525 559.979566 
L 1008.816102 556.953535 
L 1008.816102 555.324133 
L 1009.536864 553.306779 
L 1012.099576 549.892795 
L 1012.980508 548.185803 
L 1012.980508 546.711582 
L 1010.177542 542.754464 
L 1006.013136 532.590103 
L 1005.532627 530.727929 
L 1006.013136 529.40889 
L 1006.894068 529.253709 
L 1009.697034 529.874433 
L 1012.179661 531.736607 
L 1016.424153 537.633488 
L 1018.90678 543.375189 
L 1019.227119 546.866764 
L 1019.787712 552.298102 
L 1020.588559 562.384873 
L 1021.549576 569.290432 
L 1022.110169 576.04081 
L 1022.110169 582.791188 
L 1021.149153 589.463975 
L 1019.547458 592.722778 
L 1018.186017 594.041817 
L 1016.984746 594.895313 
" clip-path="url(#p8f6aa35ae4)"/>
    <path d="M 1058.06822 267.851149 
L 1059.109322 269.713323 
L 1062.633051 272.506582 
L 1065.355932 275.765385 
L 1067.598305 279.800094 
L 1068.639407 285.852157 
L 1069.2 294.076755 
L 1068.959746 298.266645 
L 1064.314831 310.991495 
L 1060.150424 318.75055 
L 1054.544492 325.81129 
L 1047.09661 334.501431 
L 1032.040678 346.140013 
L 1027.636017 348.234958 
L 1022.430508 350.174722 
L 1018.426271 352.967982 
L 1013.781356 357.933777 
L 1000.00678 376.78828 
L 995.28178 381.05576 
L 982.948729 391.452894 
L 971.816949 397.815319 
L 968.613559 399.289539 
L 964.449153 401.151713 
L 956.040254 405.729555 
L 954.518644 407.358957 
L 954.358475 409.22113 
L 955.8 410.850531 
L 958.442797 411.859208 
L 964.288983 411.471256 
L 968.052966 412.790295 
L 970.455508 415.661145 
L 972.217373 420.859712 
L 973.17839 427.066956 
L 975.420763 432.886247 
L 978.063559 437.386499 
L 978.063559 438.627948 
L 975.420763 440.722893 
L 967.172034 443.20579 
L 965.009746 446.154231 
L 962.847458 452.361475 
L 959.483898 467.646813 
L 958.202542 476.336955 
L 959.563983 482.544198 
L 963.167797 495.346639 
L 974.379661 534.917819 
L 980.626271 554.315456 
L 984.630508 565.410905 
L 985.111017 569.135251 
L 984.790678 573.092369 
L 983.589407 574.64418 
L 981.266949 575.032133 
L 980.626271 579.144432 
L 979.825424 584.342999 
L 981.507203 586.437944 
L 981.266949 596.136762 
L 981.026695 599.938699 
L 980.786441 604.28377 
L 981.587288 605.525219 
L 985.431356 608.628841 
L 990.316525 613.129092 
L 993.6 616.931029 
L 996.002542 621.2761 
L 1000.407203 631.440462 
L 1003.770763 640.363375 
L 1005.132203 644.475674 
L 1005.132203 646.7258 
L 1002.729661 652.855453 
L 999.526271 659.062697 
L 993.359746 665.968256 
L 992.07839 667.985611 
L 991.838136 670.080555 
L 992.07839 671.865138 
L 993.199576 672.873815 
L 997.764407 673.882492 
L 1001.047881 674.813579 
L 1001.047881 675.899847 
L 1000.487288 677.141295 
L 997.604237 684.046854 
L 994.400847 692.504224 
L 988.554661 707.324019 
L 985.111017 717.798743 
L 980.065678 731.609861 
L 975.821186 742.394947 
L 974.299576 748.5246 
L 973.01822 755.662931 
L 968.773729 774.595025 
L 967.492373 783.285166 
L 965.650424 787.397465 
L 962.687288 788.949276 
L 959.483898 790.190725 
L 956.200424 790.268316 
L 952.59661 788.871686 
L 949.072881 785.22493 
L 946.830508 781.655765 
L 946.430085 777.543466 
L 947.471186 769.086096 
L 947.311017 764.353072 
L 946.590254 763.034033 
L 944.66822 762.258128 
L 942.265678 762.258128 
L 940.343644 763.809939 
L 939.062288 768.698143 
L 938.261441 775.526111 
L 938.021186 781.422993 
L 939.702966 787.319875 
L 944.187712 794.613386 
L 947.391102 796.941103 
L 950.033898 797.717008 
L 953.877966 797.639418 
L 958.202542 798.182552 
L 960.364831 799.424001 
L 962.527119 801.441355 
L 964.128814 804.234615 
L 965.009746 809.355591 
L 965.890678 818.511276 
L 967.011864 827.434189 
L 967.332203 831.236126 
L 966.291102 836.357102 
L 965.490254 839.693495 
L 966.050847 841.478078 
L 967.412288 842.021212 
L 972.217373 842.253984 
L 974.459746 843.18507 
L 975.260593 845.745558 
L 975.500847 850.090629 
L 975.340678 857.22896 
L 975.180508 863.125841 
L 975.821186 868.246817 
L 977.182627 874.29888 
L 978.143644 879.264675 
L 983.669492 892.920612 
L 984.310169 894.162061 
L 984.790678 895.946643 
L 985.111017 898.739903 
L 985.191102 903.472927 
L 985.030932 909.912942 
L 984.950847 911.619934 
L 984.630508 912.706202 
L 983.749576 915.1891 
L 983.829661 917.206454 
L 985.751695 920.542847 
L 986.072034 922.172249 
L 986.472458 925.12069 
L 986.232203 932.646973 
L 985.351271 937.224816 
L 983.108898 942.11302 
L 980.065678 946.458091 
L 973.738983 954.372327 
L 969.013983 960.812342 
L 964.048729 966.010909 
L 959.644068 969.812846 
L 954.678814 972.295744 
L 948.752542 973.14924 
L 943.947458 972.994059 
L 938.822034 969.968027 
L 936.099153 974.390688 
L 927.369915 965.622956 
L 919.761864 958.019083 
L 907.669068 946.535681 
L 895.095763 934.741918 
L 885.485593 926.362139 
L 880.440254 921.396344 
L 874.834322 914.568375 
L 870.349576 908.516312 
L 866.105085 903.007383 
L 862.98178 900.679667 
L 862.341102 900.214124 
L 860.739407 899.360628 
L 858.016525 898.27436 
L 856.014407 898.35195 
L 853.772034 898.584722 
L 850.728814 899.67099 
L 846.003814 902.076297 
L 837.114407 907.973179 
L 831.027966 911.697525 
L 827.424153 913.79247 
L 822.138559 914.645966 
L 811.567373 913.947651 
L 802.91822 913.947651 
L 799.234322 915.033919 
L 795.710593 916.896092 
L 795.310169 917.284044 
L 792.026695 919.844533 
L 787.061441 924.655147 
L 784.498729 927.758769 
L 780.174153 932.879745 
L 774.648305 938.155902 
L 768.802119 942.423382 
L 762.395339 945.914957 
L 754.627119 949.406532 
L 747.980085 951.035933 
L 741.252966 952.122201 
L 731.002119 952.742925 
L 720.911441 952.277382 
L 711.141102 951.268705 
L 704.494068 949.716894 
L 693.602542 946.690863 
L 685.754237 943.587241 
L 672.540254 936.293729 
L 667.655085 932.879745 
L 666.133475 931.793477 
L 654.92161 921.085981 
L 649.555932 914.490785 
L 643.629661 907.740407 
L 635.140678 896.955321 
L 628.09322 886.713368 
L 623.608475 879.652628 
L 617.682203 872.281526 
L 613.758051 868.091636 
L 601.665254 857.927274 
L 588.77161 849.004361 
L 580.042373 844.116157 
L 575.077119 842.253984 
L 569.471186 841.555669 
L 563.464831 841.400488 
L 561.062288 841.322897 
L 553.854661 841.400488 
L 546.887288 840.624582 
L 540.400424 839.072771 
L 530.950424 835.503606 
L 520.859746 829.761905 
L 513.011441 823.709842 
L 507.085169 818.278504 
L 503.161017 813.002347 
L 498.035593 805.941607 
L 490.107203 793.061576 
L 487.304237 787.552647 
L 485.302119 783.595529 
L 481.938559 778.629733 
L 479.375847 775.758883 
L 478.014407 774.672615 
L 474.090254 774.750206 
L 471.607627 775.526111 
L 467.683475 778.16419 
L 460.475847 784.836977 
L 450.305085 795.699654 
L 440.614831 805.01052 
L 438.372458 807.027874 
L 434.768644 810.364268 
L 428.682203 814.631748 
L 422.595763 818.588866 
L 416.749576 823.166709 
L 405.697881 832.710346 
L 394.886441 843.10748 
L 387.438559 849.237133 
L 384.155085 851.487259 
L 378.549153 855.366786 
L 371.58178 859.867038 
L 359.969492 866.850188 
L 351.880932 871.660802 
L 344.112712 874.919605 
L 335.223305 877.324912 
L 330.258051 877.868046 
L 326.013559 877.945636 
L 321.528814 876.936959 
L 316.803814 874.609242 
L 312.559322 870.652124 
L 308.955508 866.695006 
L 308.074576 865.686329 
L 304.951271 860.1774 
L 302.148305 853.03907 
L 300.386441 846.754235 
L 299.505508 841.245306 
L 299.745763 836.434692 
L 300.786864 831.934441 
L 305.752119 821.382126 
L 311.758475 812.614394 
L 319.206356 803.303528 
L 327.294915 795.854835 
L 339.147458 786.854332 
L 346.915678 781.267812 
L 361.090678 769.241277 
L 365.495339 763.421986 
L 367.897881 758.3786 
L 368.458475 752.869671 
L 368.37839 748.369419 
L 367.497458 743.093262 
L 365.815678 738.59301 
L 362.13178 733.627215 
L 356.525847 728.428648 
L 351.160169 725.014664 
L 344.192797 722.454176 
L 331.299153 719.117782 
L 324.33178 717.876334 
L 316.24322 716.557294 
L 279.404237 716.867656 
L 267.952119 715.626208 
L 255.939407 713.919216 
L 243.125847 710.815594 
L 236.07839 707.246428 
L 232.714831 704.065216 
L 227.108898 698.090744 
L 224.386017 694.443988 
L 220.461864 689.16783 
L 216.297458 682.0295 
L 214.295339 676.520571 
L 213.734746 673.106587 
L 213.975 670.70128 
L 214.775847 667.830429 
L 221.422881 657.200524 
L 229.67161 645.018808 
L 233.515678 638.423611 
L 239.28178 626.474667 
L 242.485169 616.931029 
L 245.52839 606.378715 
L 246.249153 601.645691 
L 245.36822 594.274589 
L 243.125847 588.998432 
L 241.123729 585.041314 
L 236.879237 580.618652 
L 233.195339 577.747802 
L 220.061441 570.221519 
L 214.055085 568.359346 
L 211.652542 567.661031 
L 202.683051 566.652354 
L 183.702966 566.807535 
L 176.495339 566.10922 
L 171.129661 564.247047 
L 164.242373 560.367519 
L 160.47839 556.487992 
L 158.236017 551.98774 
L 155.112712 546.478811 
L 151.108475 537.245536 
L 150.788136 533.055646 
L 150.627966 520.175615 
L 151.909322 507.761127 
L 152.950424 494.570734 
L 152.710169 490.613616 
L 152.55 488.751442 
L 151.428814 480.061301 
L 148.465678 465.86223 
L 142.699576 447.706042 
L 137.814407 434.515649 
L 133.009322 426.679003 
L 126.522458 416.437051 
L 114.910169 400.996531 
L 108.743644 393.625429 
L 105.059746 390.521807 
L 101.135593 388.969996 
L 94.648729 387.418185 
L 82.315678 385.400831 
L 81.514831 385.16806 
L 75.108051 384.469745 
L 69.822458 382.3748 
L 65.337712 380.279855 
L 60.212288 376.633099 
L 57.969915 374.072611 
L 54.286017 368.25332 
L 51.162712 361.425352 
L 50.28178 354.364612 
L 50.201695 350.640265 
L 50.682203 343.036391 
L 51.483051 335.587699 
L 53.084746 327.130329 
L 53.805508 318.207416 
L 53.725424 312.620896 
L 52.283898 307.111967 
L 50.602119 302.922078 
L 44.675847 295.628566 
L 39.310169 290.895542 
L 31.942373 286.938424 
L 38.749576 282.282992 
L 43.074153 279.412141 
L 45.957203 277.239606 
L 48.279661 275.06707 
L 49.881356 273.360078 
L 50.441949 271.885858 
L 50.762288 270.101275 
L 50.441949 267.618378 
L 48.519915 263.894031 
L 45.797034 261.100772 
L 40.911864 257.376425 
L 31.702119 250.470866 
L 27.938136 248.220741 
L 25.215254 247.832788 
L 19.208898 248.14315 
L 15.124576 247.910378 
L 12.802119 246.74652 
L 11.200424 244.108441 
L 10.880085 242.401449 
L 10.8 238.21156 
L 12.161441 234.176851 
L 16.165678 231.15082 
L 20.25 229.211056 
L 28.578814 227.736836 
L 35.225847 227.426473 
L 40.67161 225.719481 
L 46.117373 222.150316 
L 46.998305 221.219229 
L 53.485169 214.468852 
L 60.052119 205.70112 
L 64.937288 202.442317 
L 69.822458 200.735325 
L 80.473729 200.657734 
L 86.239831 202.519907 
L 93.767797 207.873655 
L 109.224153 223.779718 
L 116.43178 228.667922 
L 121.397034 229.986962 
L 127.163136 229.909371 
L 130.286441 228.279969 
L 132.528814 224.16767 
L 132.528814 220.365733 
L 133.329661 212.451497 
L 135.572034 208.339198 
L 138.455085 204.770033 
L 141.898729 203.373403 
L 145.582627 203.373403 
L 152.309746 205.235576 
L 160.718644 209.658238 
L 178.897881 219.667419 
L 200.360593 232.54745 
L 207.327966 234.952757 
L 230.392373 238.056379 
L 242.164831 237.978788 
L 245.36822 236.039024 
L 245.288136 232.780221 
L 244.166949 229.211056 
L 232.794915 218.736332 
L 229.591525 215.167167 
L 228.390254 211.675592 
L 230.392373 208.416789 
L 235.037288 207.020159 
L 249.692797 204.692443 
L 256.259746 203.295813 
L 260.344068 200.812915 
L 262.105932 198.330018 
L 264.588559 194.760852 
L 269.713983 187.932884 
L 273.397881 184.441309 
L 275.159746 182.734317 
L 280.845763 178.466837 
L 282.847881 176.992617 
L 290.055508 173.656223 
L 303.830085 168.923199 
L 321.048305 162.793546 
L 327.375 160.000286 
L 333.141102 156.198349 
L 334.822881 153.715452 
L 335.063136 149.913515 
L 334.502542 146.887484 
L 332.420339 144.482177 
L 327.775424 143.163137 
L 318.005085 142.15446 
L 309.916525 141.145783 
L 304.390678 138.973248 
L 299.825847 135.714445 
L 294.860593 130.90383 
L 293.098729 127.645027 
L 293.899576 125.16213 
L 303.349576 118.877295 
L 313.440254 113.9115 
L 319.60678 111.351012 
L 322.65 110.730288 
L 324.652119 110.730288 
L 327.375 110.963059 
L 329.457203 111.894146 
L 331.138983 113.445957 
L 333.141102 115.928855 
L 339.307627 125.317311 
L 342.030508 128.886476 
L 345.794492 132.378051 
L 349.718644 134.162634 
L 353.562712 134.783358 
L 358.367797 134.550586 
L 365.175 133.231547 
L 377.988559 128.653705 
L 382.072881 127.412256 
L 384.155085 127.101894 
L 386.317373 127.722618 
L 389.440678 130.515878 
L 397.128814 138.119752 
L 399.93178 139.749153 
L 402.414407 139.904334 
L 405.777966 138.740476 
L 415.708475 132.145279 
L 417.710593 131.136602 
L 432.766525 123.222366 
L 441.175424 118.644524 
L 446.380932 113.989091 
L 454.069068 106.385217 
L 462.638136 98.858934 
L 468.324153 95.832902 
L 472.888983 94.979406 
L 476.412712 94.979406 
L 479.696186 95.755312 
L 482.258898 98.238209 
L 487.224153 105.143768 
L 491.06822 111.351012 
L 494.43178 114.532225 
L 497.234746 116.006445 
L 502.840678 117.480666 
L 507.645763 117.558256 
L 512.050424 117.015122 
L 517.656356 115.23054 
L 521.180085 113.445957 
L 528.547881 108.635343 
L 538.638559 101.574603 
L 545.205508 98.238209 
L 551.051695 95.910493 
L 563.304661 94.824225 
L 565.30678 94.591454 
L 567.789407 90.711926 
L 569.951695 88.616981 
L 572.514407 86.677218 
L 580.362712 81.40106 
L 585.648305 76.668037 
L 591.734746 71.46947 
L 595.17839 69.219344 
L 597.020339 68.210667 
L 599.102542 68.055486 
L 600.143644 65.107045 
L 602.065678 60.917155 
L 603.987712 58.899801 
L 609.273305 55.408226 
L 614.398729 53.235691 
L 615.680085 59.054982 
L 617.602119 69.452116 
L 618.322881 71.46947 
L 619.764407 73.331643 
L 628.974153 79.228525 
L 633.058475 81.711422 
L 633.138559 83.340824 
L 633.619068 86.909989 
L 633.378814 89.78084 
L 632.898305 91.487832 
L 632.177542 93.117233 
L 630.495763 95.52254 
L 627.452542 99.324477 
L 624.008898 103.669548 
L 621.926695 106.230036 
L 621.045763 108.557752 
L 620.965678 112.049327 
L 620.485169 112.592461 
L 613.838136 121.748146 
L 604.46822 132.30046 
L 602.466102 137.421437 
L 602.546186 140.913011 
L 604.227966 142.775184 
L 608.312288 144.637358 
L 612.316525 144.94772 
L 617.361864 147.430617 
L 631.616949 158.448475 
L 642.42839 166.673074 
L 647.553814 172.647546 
L 651.077542 179.397924 
L 652.198729 178.311656 
L 653.480085 177.225388 
L 654.681356 176.915026 
L 655.402119 176.915026 
L 655.962712 176.992617 
L 658.445339 178.93238 
L 664.772034 184.286128 
L 668.375847 187.31216 
L 674.942797 192.898679 
L 678.386441 195.84712 
L 679.988136 197.24375 
L 685.273729 202.98545 
L 687.035593 205.080395 
L 688.236864 206.632206 
L 689.758475 208.727151 
L 690.078814 209.425466 
L 690.078814 210.201372 
L 689.838559 211.36523 
L 689.51822 212.76186 
L 689.117797 213.770537 
L 688.637288 214.313671 
L 693.282203 220.288143 
L 705.455085 233.866489 
L 710.900847 240.539276 
L 712.262288 243.720489 
L 712.342373 247.444835 
L 711.62161 255.902205 
L 708.658475 264.514756 
L 703.212712 273.903212 
L 702.091525 277.86033 
L 702.091525 279.489732 
L 703.052542 281.196724 
L 705.695339 282.670944 
L 713.623729 284.067574 
L 716.50678 284.765889 
L 722.433051 286.162519 
L 731.802966 291.516267 
L 737.488983 297.956282 
L 737.809322 298.421826 
L 739.571186 301.059904 
L 741.413136 305.482566 
L 742.053814 311.069085 
L 742.694492 319.138502 
L 743.094915 321.388628 
L 744.69661 323.638754 
L 746.698729 325.112975 
L 750.863136 325.81129 
L 759.752542 325.733699 
L 764.877966 323.871526 
L 769.602966 320.069589 
L 776.490254 311.7674 
L 782.576695 302.999668 
L 785.459746 295.473385 
L 787.22161 290.58518 
L 788.983475 288.567826 
L 790.585169 288.490235 
L 808.924576 289.964456 
L 819.175424 291.593857 
L 828.705508 294.542298 
L 832.869915 296.404471 
L 835.672881 298.96496 
L 838.716102 301.9134 
L 840.477966 305.637747 
L 841.519068 309.362093 
L 842.560169 315.336565 
L 843.200847 316.500424 
L 845.122881 317.043557 
L 849.927966 317.35392 
L 851.209322 317.276329 
L 858.977542 316.578014 
L 866.505508 314.250298 
L 877.957627 308.586188 
L 883.24322 305.560156 
L 886.046186 302.378944 
L 887.96822 296.016519 
L 888.929237 290.352409 
L 888.448729 280.65359 
L 888.448729 277.317196 
L 889.810169 274.135984 
L 894.294915 270.334047 
L 900.541525 265.523433 
L 904.465678 265.13548 
L 910.792373 264.902709 
L 917.759746 265.833795 
L 923.686017 267.075244 
L 926.488983 268.394283 
L 930.893644 272.661763 
L 935.458475 278.015511 
L 938.42161 280.032866 
L 940.263559 280.575999 
L 942.986441 280.575999 
L 946.750424 279.412141 
L 961.966525 272.584173 
L 977.342797 265.213071 
L 979.745339 263.350898 
L 984.390254 256.988473 
L 989.916102 249.074237 
L 995.28178 245.2723 
L 999.366102 243.177355 
L 1005.132203 241.858316 
L 1011.458898 241.625544 
L 1018.586441 253.264126 
L 1022.670763 258.540284 
L 1026.915254 262.34222 
L 1031.720339 265.523433 
L 1038.927966 268.239102 
L 1048.057627 270.954771 
L 1052.702542 270.334047 
L 1058.06822 267.851149 
" clip-path="url(#p8f6aa35ae4)"/>
   </g>
  </g>
 </g>
 <defs>
  <clipPath id="p8f6aa35ae4">
   <rect x="10.8" y="53.235691" width="1058.4" height="973.528618"/>
  </clipPath>
 </defs>
</svg>
