<?xml version="1.0" encoding="utf-8" standalone="no"?>
<!DOCTYPE svg PUBLIC "-//W3C//DTD SVG 1.1//EN"
  "http://www.w3.org/Graphics/SVG/1.1/DTD/svg11.dtd">
<svg xmlns:xlink="http://www.w3.org/1999/xlink" width="1080pt" height="1080pt" viewBox="0 0 1080 1080" xmlns="http://www.w3.org/2000/svg" version="1.1">
 <metadata>
  <rdf:RDF xmlns:dc="http://purl.org/dc/elements/1.1/" xmlns:cc="http://creativecommons.org/ns#" xmlns:rdf="http://www.w3.org/1999/02/22-rdf-syntax-ns#">
   <cc:Work>
    <dc:type rdf:resource="http://purl.org/dc/dcmitype/StillImage"/>
    <dc:date>2022-07-01T13:43:30.995862</dc:date>
    <dc:format>image/svg+xml</dc:format>
    <dc:creator>
     <cc:Agent>
      <dc:title>Matplotlib v3.5.1, https://matplotlib.org/</dc:title>
     </cc:Agent>
    </dc:creator>
   </cc:Work>
  </rdf:RDF>
 </metadata>
 <defs>
  <style type="text/css">*{stroke-linejoin: round; stroke-linecap: butt}</style>
 </defs>
 <g id="figure_1">
  <g id="patch_1">
   <path d="M 0 1080 
L 1080 1080 
L 1080 0 
L 0 0 
L 0 1080 
z
" style="fill: none; opacity: 0"/>
  </g>
  <g id="axes_1">
   <g id="PatchCollection_1">
    <path d="M 875.417718 189.714182 
L 881.723593 192.051723 
L 884.465278 194.229886 
L 888.522972 197.948702 
L 893.622505 201.083131 
L 897.022195 202.305028 
L 900.36705 202.889413 
L 904.424744 203.84568 
L 911.553124 206.289472 
L 916.597824 208.467636 
L 919.339509 210.327043 
L 921.368356 213.142717 
L 922.081194 217.233414 
L 922.081194 219.730333 
L 921.094187 221.642866 
L 916.762325 224.511666 
L 915.446316 226.742955 
L 915.446316 229.55863 
L 917.804165 234.12746 
L 918.571837 235.56186 
L 918.900839 237.102512 
L 918.900839 239.333801 
L 917.639664 242.786986 
L 916.268822 243.424497 
L 911.553124 245.390157 
L 902.176562 248.312083 
L 899.160709 249.905861 
L 897.515698 252.721535 
L 896.528691 256.546602 
L 896.583525 260.956054 
L 897.954367 266.906158 
L 899.709046 270.678099 
L 900.038048 273.865655 
L 900.092882 277.318841 
L 898.776873 282.047048 
L 894.445011 288.103404 
L 891.812993 292.194101 
L 890.496985 296.337923 
L 890.551818 300.42862 
L 892.251663 304.784946 
L 896.693192 311.372561 
L 900.476717 317.375792 
L 901.84756 320.191466 
L 901.902394 322.369629 
L 900.531551 324.282162 
L 889.564812 336.341748 
L 887.206963 338.254282 
L 884.19111 338.944919 
L 880.462418 338.944919 
L 878.159403 339.954312 
L 874.814548 343.088742 
L 871.469692 348.188831 
L 870.153684 351.323261 
L 870.208517 354.829572 
L 873.279204 359.504654 
L 878.762574 367.048536 
L 884.520112 373.636151 
L 886.603792 377.354966 
L 886.658626 386.545752 
L 886.055455 392.814612 
L 886.110289 395.364656 
L 886.439291 397.542819 
L 888.139136 400.358494 
L 890.222816 403.492924 
L 893.622505 406.946109 
L 895.32235 407.902376 
L 900.36705 407.211739 
L 906.727759 405.88359 
L 917.146161 403.28042 
L 924.54871 401.952272 
L 928.222568 402.589783 
L 929.922412 404.44919 
L 931.019086 408.858642 
L 932.718931 412.949339 
L 934.19944 414.649369 
L 935.460615 416.083769 
L 941.930992 423.255769 
L 944.672676 428.302733 
L 944.72751 434.571592 
L 946.098353 436.484126 
L 949.443208 438.981045 
L 958.271433 443.284245 
L 964.357973 444.824897 
L 968.689835 445.090527 
L 971.760522 446.365549 
L 975.489214 450.084364 
L 989.416972 461.028305 
L 992.103823 463.206469 
L 995.010009 464.428365 
L 998.629033 464.375239 
L 1006.14125 462.993965 
L 1008.553932 463.365846 
L 1009.211937 465.065876 
L 1009.595772 467.722173 
L 1010.856947 470.165965 
L 1012.721293 472.822262 
L 1015.353311 473.725403 
L 1034.49027 482.916189 
L 1038.547964 483.978707 
L 1043.482997 482.969314 
L 1046.115014 479.197373 
L 1049.130867 476.009818 
L 1051.159714 475.637936 
L 1053.133727 475.637936 
L 1055.54641 476.912958 
L 1062.290954 480.950529 
L 1066.019646 484.350589 
L 1067.71949 488.12253 
L 1069.145166 493.169493 
L 1069.2 497.897701 
L 1068.541996 501.085256 
L 1066.23898 505.175953 
L 1064.264967 509.638531 
L 1063.277961 514.047983 
L 1062.07162 521.910621 
L 1061.63295 522.866888 
L 1057.959092 526.691955 
L 1055.765744 528.71074 
L 1053.353062 530.623273 
L 1050.775878 532.429555 
L 1050.337209 533.385822 
L 1050.392042 538.432785 
L 1052.749891 543.160993 
L 1053.462729 545.657912 
L 1052.146721 550.067364 
L 1047.156854 554.848697 
L 1042.441156 558.886268 
L 1037.286789 562.180076 
L 1032.680758 565.473883 
L 1027.526391 568.767691 
L 1025.552378 570.945854 
L 1025.004041 572.592758 
L 1025.607212 575.83344 
L 1025.333043 578.808492 
L 1024.181536 581.252284 
L 1021.330183 584.227336 
L 1017.601492 586.989885 
L 1009.869941 591.080581 
L 1007.292757 592.727485 
L 1004.989742 595.171278 
L 1004.167237 597.8807 
L 1004.22207 598.836967 
L 1004.496239 601.705767 
L 1005.373578 607.071486 
L 1009.047435 625.718688 
L 1010.802114 628.16248 
L 1012.830961 630.553147 
L 1012.830961 633.793829 
L 1011.131116 635.706362 
L 1005.428412 642.506481 
L 995.722847 654.247312 
L 995.503513 654.512942 
L 989.910476 651.909771 
L 982.398259 648.13783 
L 978.559901 644.631519 
L 976.256885 640.062689 
L 970.938017 633.740703 
L 963.370967 625.346806 
L 959.971278 624.337413 
L 947.962698 626.196821 
L 938.2023 628.056229 
L 934.473609 629.490629 
L 932.225427 630.925029 
L 927.345228 634.856348 
L 923.287535 637.353266 
L 918.0235 638.415785 
L 911.607958 638.468911 
L 902.944234 637.512644 
L 892.032328 632.99694 
L 881.833261 629.59688 
L 877.336898 628.215606 
L 873.169537 628.268732 
L 867.192664 629.331251 
L 858.912776 631.56254 
L 848.055704 634.803222 
L 845.807523 636.609503 
L 841.365993 641.178333 
L 838.733976 644.206511 
L 835.772956 647.606571 
L 832.482934 652.547282 
L 830.234753 653.981682 
L 826.835064 654.725445 
L 820.090519 655.84109 
L 817.842338 656.903608 
L 815.977992 658.70989 
L 815.265154 662.906838 
L 810.878458 677.038336 
L 807.972272 684.847847 
L 806.491763 687.663522 
L 802.379235 690.904203 
L 793.825179 695.898041 
L 788.615978 698.235582 
L 786.477463 699.244974 
L 784.174448 701.741893 
L 784.722785 703.282545 
L 784.777619 705.407582 
L 784.777619 708.223256 
L 784.667952 709.445153 
L 784.229282 710.242042 
L 781.597265 711.942072 
L 781.158595 712.73896 
L 781.871433 714.067109 
L 784.284116 715.926516 
L 785.600124 716.510901 
L 786.42263 716.351524 
L 787.354803 715.820264 
L 788.670811 715.023375 
L 790.809325 714.545242 
L 795.963693 715.395257 
L 800.131054 716.457776 
L 803.859745 717.998428 
L 805.504756 719.220324 
L 806.60143 720.654724 
L 807.698104 724.001658 
L 809.178614 726.126695 
L 812.194467 727.986102 
L 815.374821 728.836117 
L 813.72981 730.908028 
L 812.358968 732.97994 
L 810.384955 735.051851 
L 809.562449 736.11437 
L 809.397948 736.539377 
L 809.397948 737.070636 
L 810.16562 738.345659 
L 811.097793 739.833185 
L 812.523469 743.817629 
L 812.852471 745.623911 
L 812.852471 746.314548 
L 812.249301 747.536444 
L 811.262294 749.661482 
L 810.110786 751.680267 
L 809.397948 752.317778 
L 808.630277 752.849037 
L 807.752938 753.167793 
L 807.314268 753.274045 
L 806.656264 753.380297 
L 806.217594 753.5928 
L 805.943426 753.911556 
L 803.585577 758.905393 
L 801.885732 763.792979 
L 801.392229 765.971142 
L 800.734224 768.308683 
L 799.911719 771.549365 
L 799.144047 773.727528 
L 798.59571 774.418165 
L 797.55387 775.215054 
L 796.566864 776.065069 
L 796.183028 776.490076 
L 795.963693 776.649454 
L 795.854025 777.393217 
L 795.854025 778.13698 
L 796.07336 778.774491 
L 796.621697 779.358876 
L 797.55387 779.677632 
L 799.473049 780.262017 
L 800.51489 780.740151 
L 800.953559 781.324536 
L 801.008393 781.908921 
L 801.337395 785.893366 
L 801.337395 788.496536 
L 801.172894 790.462196 
L 800.843892 791.57784 
L 799.911719 793.065366 
L 799.144047 794.818522 
L 798.760211 796.040418 
L 798.486043 798.218581 
L 798.486043 800.343619 
L 798.266708 801.193633 
L 797.99254 801.884271 
L 796.621697 803.637426 
L 792.893006 809.003145 
L 791.686665 810.543797 
L 791.247995 811.712568 
L 791.302829 812.881338 
L 792.125334 814.050108 
L 794.59285 817.609546 
L 796.841032 819.25645 
L 800.405222 821.434613 
L 803.750078 823.719028 
L 805.285421 825.25968 
L 806.546596 827.544095 
L 806.546596 828.978495 
L 805.066086 831.422287 
L 803.421076 833.122317 
L 800.569723 835.725488 
L 798.924712 836.628629 
L 797.55387 836.628629 
L 796.183028 836.522377 
L 795.525023 837.053636 
L 795.250855 837.850525 
L 795.141187 839.391177 
L 795.141187 841.197459 
L 795.854025 843.481874 
L 798.924712 849.113222 
L 800.021386 850.388244 
L 800.624557 850.813252 
L 802.379235 852.035148 
L 805.011253 853.735178 
L 806.491763 854.213311 
L 807.752938 854.107059 
L 808.575443 854.053934 
L 809.233447 854.160185 
L 809.452782 855.116452 
L 809.288281 856.338348 
L 809.068946 858.569638 
L 808.904445 859.685282 
L 808.68511 860.588423 
L 809.178614 861.757193 
L 809.562449 862.660334 
L 809.726951 864.732245 
L 808.575443 866.751031 
L 805.011253 871.58549 
L 804.188747 873.763653 
L 804.024246 874.188661 
L 802.872739 878.279357 
L 801.666397 881.148158 
L 800.350389 881.413787 
L 798.924712 881.626291 
L 797.718371 881.945047 
L 796.347529 882.582558 
L 795.305689 883.326321 
L 793.112341 885.185728 
L 792.125334 885.876365 
L 791.083494 885.876365 
L 788.396643 884.813847 
L 787.080634 884.601343 
L 785.929127 884.601343 
L 785.051787 884.920099 
L 783.790612 885.398232 
L 782.364936 886.248247 
L 778.581411 890.020188 
L 775.89456 893.154618 
L 775.181722 894.482766 
L 774.743053 895.86404 
L 774.743053 896.767181 
L 775.784893 897.8297 
L 779.403917 900.911004 
L 780.994094 902.611033 
L 782.255269 904.523567 
L 783.297109 907.445493 
L 783.790612 910.261167 
L 783.790612 914.723745 
L 784.119615 916.583153 
L 785.435623 920.726975 
L 786.477463 924.605168 
L 786.806466 925.933316 
L 786.806466 926.517702 
L 786.203295 927.155213 
L 784.119615 928.005228 
L 782.693938 928.695865 
L 781.37793 929.652132 
L 780.281256 932.308428 
L 777.210569 939.321051 
L 775.236556 943.411747 
L 773.975381 945.164903 
L 772.494871 946.12117 
L 769.533851 946.068044 
L 766.737333 944.846147 
L 765.969661 943.624251 
L 765.969661 941.658592 
L 765.640659 938.896043 
L 764.160149 936.452251 
L 763.063475 935.336606 
L 760.705626 934.539717 
L 758.950948 934.274087 
L 756.318931 934.274087 
L 754.344918 933.636576 
L 752.75474 932.680309 
L 749.738887 930.502146 
L 748.422878 930.236517 
L 741.788001 930.555272 
L 738.388312 931.139658 
L 734.275785 932.14905 
L 731.808269 932.14905 
L 729.998757 931.617791 
L 728.682748 929.970887 
L 725.831396 925.986442 
L 725.337892 924.498916 
L 725.337892 922.001998 
L 724.734722 921.311361 
L 721.499534 920.355094 
L 720.457694 920.514472 
L 720.019024 921.098857 
L 718.867516 922.905138 
L 717.990177 923.54265 
L 716.893503 923.330146 
L 713.603482 922.161375 
L 708.613615 919.930086 
L 707.900777 919.451953 
L 705.817097 915.892516 
L 704.172086 912.864338 
L 703.075412 912.120575 
L 701.594902 911.748693 
L 700.114392 911.536189 
L 698.853217 910.367419 
L 694.137519 901.176633 
L 690.682997 893.845255 
L 688.873485 890.020188 
L 687.118806 887.735773 
L 686.570469 887.25764 
L 683.17078 887.895151 
L 683.335281 891.029581 
L 682.732111 894.16401 
L 680.154927 908.40176 
L 677.468076 915.520634 
L 675.219894 922.480131 
L 672.587877 928.377109 
L 670.504196 931.564665 
L 668.420516 933.58345 
L 662.717812 936.399125 
L 656.028101 938.630414 
L 654.98626 940.489821 
L 654.712092 941.977347 
L 655.260429 944.527392 
L 657.179608 947.28994 
L 659.976127 951.965022 
L 660.634131 955.311956 
L 659.318122 968.327808 
L 657.727945 973.056016 
L 654.273422 977.890476 
L 651.805906 978.952994 
L 649.94156 978.952994 
L 623.292384 973.374772 
L 616.767174 972.418505 
L 615.505999 972.418505 
L 614.02549 972.418505 
L 612.435312 972.949764 
L 610.570967 975.021675 
L 606.01977 986.284373 
L 603.113584 991.596966 
L 600.755735 995.687662 
L 597.794716 999.512729 
L 593.243519 1003.390922 
L 593.188685 1003.762803 
L 592.859683 1004.294063 
L 592.037177 1006.4191 
L 593.353186 1007.8535 
L 594.285359 1008.225382 
L 595.656201 1008.544137 
L 598.45272 1008.012878 
L 605.690768 1004.825322 
L 608.54212 1004.825322 
L 609.638794 1005.409707 
L 610.570967 1006.4191 
L 610.570967 1007.906626 
L 607.555113 1012.050448 
L 603.607087 1015.397382 
L 598.343053 1017.522419 
L 593.462854 1018.000553 
L 590.172832 1017.788049 
L 584.415294 1014.547367 
L 582.605782 1013.537975 
L 580.851104 1013.750478 
L 580.467268 1014.016108 
L 579.31576 1014.812997 
L 573.22922 1022.941264 
L 572.351881 1024.800672 
L 572.18738 1026.235072 
L 574.161393 1029.741383 
L 578.657756 1033.83208 
L 580.631769 1035.532109 
L 583.757289 1037.657147 
L 590.282499 1040.100939 
L 594.559528 1041.163458 
L 591.214672 1041.854095 
L 590.008331 1042.119725 
L 587.376313 1042.757236 
L 584.415294 1042.757236 
L 580.028598 1042.225977 
L 574.874231 1041.535339 
L 567.910351 1040.791576 
L 555.243767 1039.516554 
L 554.201927 1039.144673 
L 552.831085 1038.666539 
L 550.144234 1036.382124 
L 541.151508 1025.225679 
L 539.232328 1022.463131 
L 536.43581 1017.363041 
L 533.694125 1011.412937 
L 533.47479 1010.934804 
L 532.761952 1008.278507 
L 531.665278 999.565855 
L 532.378116 995.687662 
L 533.310289 992.925114 
L 535.064967 990.162565 
L 538.354989 987.771899 
L 540.767672 986.868758 
L 541.590177 986.018743 
L 542.357849 985.115602 
L 542.467516 983.521824 
L 542.248182 976.509202 
L 541.535343 974.809172 
L 540.219335 972.896638 
L 538.300155 971.727868 
L 536.929313 971.727868 
L 535.39397 972.206001 
L 530.95244 974.065409 
L 528.375256 974.384164 
L 527.607585 974.065409 
L 526.839913 973.374772 
L 525.140068 970.505971 
L 524.975567 970.080964 
L 513.131489 970.718475 
L 511.486478 971.515364 
L 509.073795 975.127927 
L 504.961268 976.615453 
L 503.535592 974.96855 
L 492.788188 968.274682 
L 486.317812 965.087127 
L 480.450606 962.643334 
L 477.763755 961.952697 
L 463.561828 959.82766 
L 460.600808 959.82766 
L 459.942804 959.82766 
L 451.827417 965.884016 
L 446.837551 970.39972 
L 443.821697 975.340431 
L 441.463848 980.546772 
L 440.641343 983.468698 
L 440.14784 986.97501 
L 438.831831 994.837647 
L 438.612496 995.528284 
L 437.460988 995.103277 
L 436.035312 994.678269 
L 431.374448 994.359514 
L 427.53609 993.987632 
L 426.494249 993.881381 
L 425.507243 992.818862 
L 424.629904 990.534447 
L 423.862232 987.612521 
L 423.862232 986.178121 
L 423.971899 984.265587 
L 423.862232 983.203069 
L 422.820392 981.662417 
L 417.337022 975.712313 
L 415.472676 973.693527 
L 413.498663 972.790386 
L 408.618464 971.143483 
L 404.341436 969.443453 
L 403.628598 968.487186 
L 403.738265 967.584045 
L 403.902767 967.052786 
L 404.99944 965.140253 
L 411.140814 953.399422 
L 411.414983 951.805644 
L 411.031147 949.149348 
L 409.989307 943.624251 
L 408.782965 939.480428 
L 407.357289 937.249139 
L 397.706559 924.180161 
L 394.087535 920.514472 
L 388.713833 916.848782 
L 386.904321 916.476901 
L 383.723966 916.530027 
L 378.788934 917.486294 
L 376.047249 918.655064 
L 373.6894 920.355094 
L 371.331551 922.214501 
L 367.383525 924.870798 
L 363.819335 926.039568 
L 361.625987 926.039568 
L 359.213304 924.870798 
L 357.019956 923.223894 
L 355.429779 922.055124 
L 350.330246 918.336308 
L 350.001243 917.486294 
L 350.056077 916.530027 
L 350.275412 915.786264 
L 352.084924 913.023716 
L 353.620267 909.3049 
L 354.881442 903.461048 
L 355.320112 899.742233 
L 354.662108 893.951507 
L 354.333105 892.888988 
L 353.620267 892.570233 
L 353.236431 892.517107 
L 351.481753 893.048366 
L 348.685235 894.057759 
L 344.024371 896.12967 
L 341.94069 897.032811 
L 339.85701 897.085937 
L 338.486167 896.448425 
L 338.102331 896.448425 
L 336.347653 894.960899 
L 331.906124 890.763951 
L 329.76761 887.842025 
L 327.629095 884.282588 
L 326.587255 883.645076 
L 325.709916 883.485699 
L 322.748896 883.538825 
L 317.539695 884.229462 
L 315.23668 883.910706 
L 309.15014 882.051298 
L 304.269941 880.138765 
L 303.228101 879.395002 
L 301.966926 878.544987 
L 300.047746 875.888691 
L 296.757725 871.426113 
L 290.287348 861.810319 
L 287.435996 859.366526 
L 284.749145 858.14463 
L 276.688592 856.072719 
L 273.453404 855.594585 
L 270.766553 855.594585 
L 266.325023 856.232097 
L 261.22549 857.135237 
L 253.877774 859.100897 
L 245.65272 849.697607 
L 244.556046 847.8382 
L 244.227044 845.500659 
L 243.569039 843.588125 
L 241.978862 841.409962 
L 240.388685 839.975562 
L 236.330992 837.213014 
L 231.615294 833.919206 
L 226.735095 830.200391 
L 225.144918 828.712865 
L 224.815915 827.278465 
L 224.761082 825.525309 
L 226.241592 817.768924 
L 227.173764 814.368864 
L 229.750948 809.534404 
L 228.489773 808.525012 
L 226.296425 807.090612 
L 225.03525 806.665604 
L 222.074231 805.974967 
L 218.290706 805.124952 
L 215.329686 803.424922 
L 203.37594 795.349781 
L 197.837737 791.896596 
L 197.234566 791.046581 
L 197.015232 788.868418 
L 197.2894 784.883973 
L 197.124899 782.280802 
L 196.137892 780.527647 
L 194.547715 778.933869 
L 191.696363 776.065069 
L 190.928691 774.311913 
L 190.873858 772.558757 
L 191.148026 769.902461 
L 191.148026 766.874283 
L 190.16102 764.642994 
L 186.048492 759.011645 
L 182.868138 756.249097 
L 180.07162 754.814697 
L 176.452596 753.85843 
L 171.407896 753.114667 
L 163.01834 751.999023 
L 160.441156 750.670874 
L 158.960647 748.917719 
L 158.302642 746.367674 
L 157.205968 744.030133 
L 154.683618 741.267585 
L 147.006901 734.733095 
L 140.207523 727.667347 
L 136.423998 724.161035 
L 133.901647 721.664117 
L 131.324464 718.423435 
L 127.650606 712.632709 
L 124.086416 705.779464 
L 121.070563 701.688767 
L 117.561206 699.191848 
L 114.65502 698.12933 
L 110.761828 697.810574 
L 105.333292 697.544945 
L 100.617594 696.69493 
L 100.672428 696.323048 
L 100.507927 695.579285 
L 95.51806 690.213566 
L 91.844203 686.282247 
L 90.199192 685.379107 
L 89.376686 685.219729 
L 85.757662 685.432233 
L 81.151632 685.007225 
L 79.013118 684.42284 
L 78.30028 683.785329 
L 77.642275 682.297803 
L 76.764936 679.694632 
L 75.448928 676.772706 
L 72.926578 673.107017 
L 62.892011 659.028646 
L 55.708797 650.687875 
L 50.664097 643.940881 
L 49.019086 642.612733 
L 47.209574 641.815844 
L 43.700218 640.647074 
L 41.342369 639.372052 
L 38.052347 635.015725 
L 37.997513 633.421947 
L 38.436183 631.190658 
L 40.519863 624.018658 
L 41.890706 619.927961 
L 42.329375 618.440435 
L 42.000373 616.102894 
L 41.013366 612.596583 
L 39.58769 608.665264 
L 38.107181 606.221471 
L 37.175008 605.318331 
L 34.488157 604.043308 
L 31.198135 601.918271 
L 29.443457 600.749501 
L 27.359776 594.905648 
L 22.808579 582.686685 
L 18.750886 571.052106 
L 17.105875 565.208254 
L 14.090022 558.673764 
L 13.870687 557.239364 
L 13.870687 555.911216 
L 14.638359 553.573675 
L 15.8447 551.342386 
L 16.941374 550.439245 
L 18.147715 549.85486 
L 22.534411 548.632964 
L 23.466584 547.729823 
L 23.960087 546.667304 
L 24.618091 544.382889 
L 25.605098 538.698415 
L 25.056761 535.776489 
L 24.069754 534.395214 
L 20.779733 531.632666 
L 13.048182 528.179481 
L 11.129002 527.063836 
L 10.854834 526.320073 
L 10.8 525.31068 
L 11.677339 524.40754 
L 14.199689 522.229377 
L 20.341063 517.87305 
L 22.260242 517.023035 
L 25.385763 516.651154 
L 27.140441 516.173021 
L 28.291949 515.429258 
L 28.949953 514.685494 
L 29.553124 513.144843 
L 30.540131 510.16979 
L 33.446316 501.722768 
L 34.159154 498.907093 
L 34.597824 497.632071 
L 36.407336 495.188278 
L 41.671371 488.281907 
L 47.483743 481.641166 
L 48.854585 479.941136 
L 50.335095 479.197373 
L 53.625117 478.294233 
L 55.324961 477.603596 
L 58.231147 475.531684 
L 61.740504 472.662884 
L 63.385514 471.440988 
L 64.043519 470.059714 
L 64.537022 467.987802 
L 64.756357 466.234647 
L 64.427355 465.54401 
L 63.440348 464.481491 
L 60.698663 462.622083 
L 58.834318 461.400187 
L 57.737644 459.540779 
L 56.476469 456.831357 
L 55.544296 453.590675 
L 55.270127 452.103149 
L 55.379795 451.253134 
L 55.763631 450.40312 
L 59.437488 447.00306 
L 61.795337 445.356156 
L 64.975692 444.081134 
L 66.675536 443.284245 
L 67.991545 442.1686 
L 69.691389 439.777934 
L 72.707243 435.527859 
L 76.106932 431.012155 
L 77.532608 428.408985 
L 77.642275 427.55897 
L 77.642275 426.443325 
L 76.545601 424.955799 
L 73.749083 423.255769 
L 70.513895 421.768243 
L 69.088219 420.865103 
L 65.195026 418.15568 
L 64.262854 417.836925 
L 62.946845 417.836925 
L 60.20516 418.740065 
L 53.570283 421.236984 
L 47.15474 423.362021 
L 44.522723 423.415147 
L 41.726205 421.874495 
L 37.778178 415.711887 
L 35.365496 412.258702 
L 35.310662 409.496154 
L 35.804165 407.105487 
L 37.394343 398.605338 
L 38.107181 395.31153 
L 38.600684 392.548982 
L 38.600684 391.327086 
L 37.997513 389.627056 
L 36.846006 387.661397 
L 35.310662 384.73947 
L 33.226982 376.558077 
L 33.007647 373.954907 
L 34.049487 369.279825 
L 34.707491 365.720388 
L 34.762325 357.85775 
L 33.884986 348.348209 
L 33.884986 345.532534 
L 33.830152 344.310638 
L 34.54299 341.707467 
L 35.529997 339.794934 
L 36.517003 338.838667 
L 39.697358 337.723023 
L 49.67709 336.288623 
L 53.07678 336.022993 
L 54.337955 336.129245 
L 56.311968 336.554252 
L 58.066646 337.563645 
L 59.218154 339.3168 
L 62.782344 344.204386 
L 63.604849 344.841897 
L 64.482188 344.841897 
L 65.524029 344.523142 
L 66.675536 343.301245 
L 69.855891 340.379319 
L 71.720236 339.051171 
L 78.464781 335.0136 
L 80.054958 333.791704 
L 80.987131 332.463556 
L 81.206466 331.507289 
L 81.261299 329.01037 
L 81.151632 327.204089 
L 81.4258 324.70717 
L 81.974137 319.607081 
L 82.248306 315.410132 
L 81.645135 310.681924 
L 81.041965 307.388117 
L 78.793783 300.587998 
L 73.420081 289.431552 
L 68.868884 278.062604 
L 68.21088 275.937566 
L 68.594716 271.421862 
L 70.020392 265.84364 
L 70.678396 264.727995 
L 72.926578 262.44358 
L 75.997265 260.424795 
L 79.78079 259.096647 
L 91.241032 256.918484 
L 93.105378 256.599728 
L 96.121231 256.334098 
L 98.753248 256.17472 
L 101.604601 255.537209 
L 103.08511 254.421565 
L 104.346285 253.146542 
L 105.717128 250.755876 
L 106.813802 248.205831 
L 106.813802 247.037061 
L 106.704134 244.912023 
L 104.949456 239.174423 
L 104.839789 238.111904 
L 105.00429 237.155638 
L 105.936463 236.093119 
L 107.197638 235.189978 
L 109.555486 233.755578 
L 113.777681 232.214926 
L 114.819521 231.789919 
L 115.532359 230.99303 
L 115.971029 229.877385 
L 116.958035 226.796081 
L 117.232204 224.9898 
L 117.17737 221.85537 
L 116.903202 217.924051 
L 116.409698 216.277147 
L 114.106683 214.258362 
L 113.339012 212.98334 
L 112.955176 211.336436 
L 112.626173 203.739428 
L 112.790675 198.74559 
L 113.722847 187.589145 
L 113.61318 181.904671 
L 113.119677 180.523397 
L 111.5295 178.717115 
L 110.871495 177.920226 
L 110.871495 176.857707 
L 111.255331 175.742063 
L 113.722847 170.376344 
L 116.025863 166.870033 
L 119.535219 162.248077 
L 121.454399 163.363721 
L 126.334597 164.744995 
L 128.966615 165.010625 
L 131.159963 165.010625 
L 144.92322 162.938714 
L 146.019894 162.513706 
L 146.184395 162.088699 
L 146.129562 161.504314 
L 143.387877 153.747928 
L 143.168542 151.144757 
L 143.168542 150.560372 
L 143.991048 150.082239 
L 145.142555 150.082239 
L 146.787566 150.507246 
L 148.432577 151.88852 
L 150.077588 153.535424 
L 151.393597 154.279187 
L 152.380603 154.279187 
L 152.983774 153.801054 
L 153.97078 151.941646 
L 153.915947 148.594713 
L 153.422443 146.947809 
L 151.393597 141.794594 
L 150.516257 139.350801 
L 150.351756 137.385142 
L 151.009761 135.57886 
L 152.106435 134.463216 
L 155.999627 131.381912 
L 156.164128 130.956904 
L 156.109294 129.894386 
L 155.45129 128.991245 
L 153.97078 127.928726 
L 152.983774 126.866208 
L 152.819273 125.803689 
L 152.983774 124.103659 
L 155.835126 118.312933 
L 157.260802 114.806622 
L 159.947653 109.281525 
L 161.044327 106.678354 
L 161.592664 105.084576 
L 161.53783 102.42828 
L 161.921666 100.303243 
L 163.895679 97.275065 
L 167.734038 93.981257 
L 171.462729 92.812487 
L 178.755611 90.15619 
L 180.510289 89.253049 
L 181.935965 87.499894 
L 182.977805 85.959242 
L 183.690643 85.481108 
L 184.348648 85.321731 
L 185.280821 85.321731 
L 191.860864 87.128012 
L 195.20572 87.446768 
L 203.485608 86.277997 
L 205.349953 85.374856 
L 207.049798 82.98419 
L 208.475474 80.327893 
L 209.90115 78.946619 
L 211.271993 78.41536 
L 223.664408 77.405967 
L 227.941436 77.140337 
L 229.03811 76.71533 
L 231.066957 75.546559 
L 233.753808 71.987122 
L 235.618154 68.427685 
L 236.879329 67.365166 
L 238.140504 67.099537 
L 239.237177 67.099537 
L 246.475225 68.799566 
L 250.752254 68.74644 
L 254.26161 68.480811 
L 258.045135 67.046411 
L 265.009015 63.646351 
L 266.87336 61.999447 
L 267.476531 60.777551 
L 267.970034 54.827447 
L 268.573205 50.630498 
L 268.902207 48.505461 
L 269.944047 46.646054 
L 275.701585 38.889668 
L 277.127261 37.933401 
L 278.717439 37.29589 
L 280.472117 37.242764 
L 281.897793 37.614646 
L 285.132981 38.305283 
L 295.770718 43.29912 
L 307.340628 47.86795 
L 311.507989 50.524247 
L 313.75617 52.383654 
L 315.510849 55.57121 
L 317.704196 59.502529 
L 320.665216 63.540099 
L 325.380914 68.427685 
L 328.451601 70.765226 
L 332.015791 72.199626 
L 336.128318 73.049641 
L 340.953684 73.209019 
L 344.792042 72.305878 
L 348.4659 71.455863 
L 350.714081 71.402737 
L 353.017097 71.827744 
L 357.348959 74.324663 
L 360.309978 77.246589 
L 363.545166 81.231034 
L 364.916009 81.656041 
L 366.944855 81.443538 
L 371.934722 79.690382 
L 376.705253 79.212249 
L 380.159776 79.796634 
L 387.452658 82.506056 
L 392.278023 86.490501 
L 393.210196 88.349909 
L 393.758533 97.275065 
L 394.471371 101.100132 
L 395.403544 103.384547 
L 396.774386 105.084576 
L 397.322723 106.572102 
L 398.090395 111.884695 
L 398.419397 114.859747 
L 398.9129 115.60351 
L 401.764252 117.781674 
L 404.889773 120.43797 
L 407.686292 122.616133 
L 408.673298 123.519274 
L 408.892633 124.422415 
L 408.947467 128.725615 
L 408.728132 130.106889 
L 407.905626 132.656934 
L 406.150948 136.428875 
L 405.547777 138.766416 
L 404.451104 144.45089 
L 404.505937 146.788431 
L 405.054274 148.488461 
L 409.989307 153.801054 
L 413.663164 157.785499 
L 415.143674 159.698032 
L 417.00802 164.001232 
L 418.48853 166.179396 
L 419.969039 167.348166 
L 422.326888 168.463811 
L 424.026733 169.473203 
L 424.794405 170.854477 
L 426.329748 179.885885 
L 428.358595 194.229886 
L 428.358595 196.939309 
L 428.413429 198.320583 
L 428.029593 199.489353 
L 426.823251 201.561265 
L 423.697731 205.811339 
L 418.543363 212.823962 
L 412.676158 219.677207 
L 410.811812 222.280377 
L 410.537644 222.971014 
L 411.414983 224.086659 
L 416.021013 226.849207 
L 418.543363 228.602363 
L 419.585204 229.611756 
L 420.133541 231.418037 
L 420.298042 244.221386 
L 421.01088 246.558927 
L 423.368729 249.321476 
L 429.729437 254.687194 
L 431.867952 256.599728 
L 432.58079 257.927876 
L 432.416288 258.777891 
L 430.66161 259.415402 
L 423.807398 260.637299 
L 421.175381 261.327936 
L 419.640037 262.656084 
L 419.036867 264.196736 
L 418.598197 265.31238 
L 418.378862 267.703047 
L 418.817532 268.924944 
L 420.846379 271.156233 
L 421.723718 273.600025 
L 421.778551 275.246929 
L 421.339882 276.893833 
L 419.804538 279.178248 
L 418.817532 280.98453 
L 417.446689 283.534574 
L 415.96618 287.040886 
L 415.746845 289.697182 
L 415.801679 292.778486 
L 417.391856 296.869183 
L 417.391856 298.941094 
L 417.227355 301.59739 
L 414.869506 306.378724 
L 410.976313 314.613243 
L 406.260615 321.678992 
L 404.780106 324.229036 
L 402.641592 329.647881 
L 401.709419 333.472948 
L 401.270749 335.810489 
L 401.161082 337.457393 
L 401.161082 338.041778 
L 401.490084 338.785541 
L 403.080261 339.794934 
L 404.505937 341.388712 
L 405.43811 343.248119 
L 406.260615 346.010668 
L 406.315449 348.666964 
L 405.712279 350.42012 
L 403.847933 353.235794 
L 403.244762 354.72332 
L 403.244762 355.573335 
L 404.176935 356.582728 
L 411.469817 361.629691 
L 414.924339 363.807854 
L 417.940193 364.923499 
L 422.326888 365.507884 
L 428.303761 366.464151 
L 430.168107 367.154788 
L 433.019459 369.173573 
L 436.967485 372.520507 
L 439.654336 374.964299 
L 441.409015 375.708062 
L 445.960211 375.336181 
L 454.569102 375.283055 
L 457.091452 375.123677 
L 458.791296 374.486166 
L 460.162139 373.476773 
L 460.655642 372.414255 
L 463.726329 357.007735 
L 465.590675 345.054401 
L 465.864843 341.973097 
L 466.303513 339.369926 
L 466.906683 337.298015 
L 469.209698 333.31357 
L 476.009077 324.919674 
L 480.121604 321.30711 
L 482.753621 319.925836 
L 485.879142 318.757066 
L 487.853155 318.332058 
L 489.607833 317.960177 
L 495.913708 317.907051 
L 520.972707 319.87271 
L 528.046254 320.510221 
L 531.829779 320.350844 
L 541.809512 318.650814 
L 543.838359 318.013303 
L 545.264035 317.00391 
L 548.334722 312.594458 
L 549.102394 309.778784 
L 549.04756 307.016235 
L 548.225054 303.350546 
L 547.292882 300.003613 
L 547.073547 298.834842 
L 547.238048 298.250457 
L 548.00572 297.931701 
L 548.992726 297.931701 
L 552.282748 299.206724 
L 555.737271 301.066131 
L 558.753124 303.244294 
L 560.946472 304.094309 
L 562.372148 304.253687 
L 563.907491 303.934931 
L 571.913211 302.394279 
L 573.667889 301.650516 
L 575.3129 299.897361 
L 582.441281 287.997152 
L 584.579795 282.472056 
L 588.801989 275.459433 
L 590.830836 273.706277 
L 596.149705 269.349951 
L 599.055891 265.84364 
L 608.432453 253.943431 
L 613.038483 250.118365 
L 617.260678 248.524587 
L 621.702207 248.099579 
L 627.295244 249.26835 
L 633.052782 250.43712 
L 635.849301 250.596498 
L 639.961828 250.543372 
L 643.087348 249.799609 
L 645.664532 248.046453 
L 651.915574 242.786986 
L 654.163755 241.724468 
L 658.769786 240.661949 
L 663.046814 239.386927 
L 666.007833 238.324408 
L 670.9977 235.189978 
L 677.08424 231.152408 
L 680.374262 227.646096 
L 682.348275 224.139785 
L 682.896612 219.092822 
L 683.225614 215.480258 
L 683.390115 213.408347 
L 684.102953 211.814569 
L 685.199627 211.123932 
L 687.063973 210.752051 
L 690.079826 210.592673 
L 691.889338 210.539547 
L 695.398694 209.795784 
L 696.714703 209.105147 
L 697.043705 208.255132 
L 697.043705 207.351991 
L 696.276034 203.58005 
L 696.056699 201.136257 
L 696.001865 198.373709 
L 696.934038 194.017383 
L 699.072552 190.032938 
L 700.882064 188.17353 
L 703.130246 187.376642 
L 705.378427 187.536019 
L 729.121417 191.467338 
L 732.57594 192.74236 
L 734.988623 193.964257 
L 737.62064 195.558035 
L 738.991483 196.673679 
L 740.526826 197.31119 
L 741.897669 196.514301 
L 744.474852 194.548642 
L 747.381038 192.74236 
L 752.15157 190.13919 
L 754.893255 188.492286 
L 757.305937 186.526627 
L 759.608952 183.604701 
L 761.857134 179.56713 
L 762.898974 176.4327 
L 763.776313 169.526329 
L 764.160149 168.145055 
L 764.543985 167.29504 
L 767.230836 162.566832 
L 770.84986 157.041736 
L 773.152875 152.951039 
L 776.168729 151.038506 
L 779.568418 150.347868 
L 780.390923 150.71975 
L 782.584271 151.622891 
L 790.699658 154.704195 
L 794.428349 156.244847 
L 800.569723 160.919929 
L 805.998259 165.913766 
L 808.739944 168.72944 
L 810.439789 172.182626 
L 811.152627 176.910833 
L 812.194467 180.948404 
L 813.565309 182.223426 
L 816.306994 183.445323 
L 819.65185 184.667219 
L 823.380541 185.30473 
L 833.469941 183.923456 
L 839.556481 183.551575 
L 846.630028 183.498449 
L 858.419273 185.30473 
L 868.892509 187.429767 
L 874.979049 189.554805 
L 875.417718 189.714182 
" clip-path="url(#p989914ab38)"/>
   </g>
  </g>
 </g>
 <defs>
  <clipPath id="p989914ab38">
   <rect x="10.8" y="37.242764" width="1058.4" height="1005.514472"/>
  </clipPath>
 </defs>
</svg>
