<?xml version="1.0" encoding="utf-8" standalone="no"?>
<!DOCTYPE svg PUBLIC "-//W3C//DTD SVG 1.1//EN"
  "http://www.w3.org/Graphics/SVG/1.1/DTD/svg11.dtd">
<svg xmlns:xlink="http://www.w3.org/1999/xlink" width="1080pt" height="1080pt" viewBox="0 0 1080 1080" xmlns="http://www.w3.org/2000/svg" version="1.1">
 <metadata>
  <rdf:RDF xmlns:dc="http://purl.org/dc/elements/1.1/" xmlns:cc="http://creativecommons.org/ns#" xmlns:rdf="http://www.w3.org/1999/02/22-rdf-syntax-ns#">
   <cc:Work>
    <dc:type rdf:resource="http://purl.org/dc/dcmitype/StillImage"/>
    <dc:date>2022-07-01T13:43:31.821264</dc:date>
    <dc:format>image/svg+xml</dc:format>
    <dc:creator>
     <cc:Agent>
      <dc:title>Matplotlib v3.5.1, https://matplotlib.org/</dc:title>
     </cc:Agent>
    </dc:creator>
   </cc:Work>
  </rdf:RDF>
 </metadata>
 <defs>
  <style type="text/css">*{stroke-linejoin: round; stroke-linecap: butt}</style>
 </defs>
 <g id="figure_1">
  <g id="patch_1">
   <path d="M 0 1080 
L 1080 1080 
L 1080 0 
L 0 0 
L 0 1080 
z
" style="fill: none; opacity: 0"/>
  </g>
  <g id="axes_1">
   <g id="PatchCollection_1">
    <path d="M 913.191717 959.948093 
L 912.088579 960.304354 
L 911.475724 960.138099 
L 910.446129 958.214292 
L 910.348072 956.694247 
L 911.034469 955.340457 
L 911.009955 954.319176 
L 909.784246 949.806542 
L 908.705621 948.120242 
L 907.602483 945.222656 
L 907.185742 943.797614 
L 907.185742 942.966339 
L 907.406369 942.443824 
L 908.435965 941.232538 
L 912.015036 937.456176 
L 912.578863 937.361173 
L 912.97109 937.503677 
L 913.608459 938.334952 
L 913.951657 940.876277 
L 913.902629 943.441353 
L 913.682001 944.795143 
L 913.069146 946.433942 
L 912.358235 948.096491 
L 913.093661 950.542814 
L 913.755544 952.134111 
L 914.662569 953.844162 
L 914.858682 955.934224 
L 914.90771 958.190541 
L 914.343884 959.116819 
L 913.191717 959.948093 
" clip-path="url(#p970eae2d0b)"/>
    <path d="M 963.225172 937.93119 
L 962.808431 937.978691 
L 961.92592 937.693683 
L 961.141466 937.337422 
L 960.430555 936.909909 
L 959.327416 935.888629 
L 958.959704 935.461116 
L 958.910675 935.128606 
L 958.861647 934.891099 
L 959.082274 933.537309 
L 959.425473 933.181049 
L 959.842214 933.22855 
L 960.626668 933.822318 
L 961.729807 934.891099 
L 963.519342 937.384923 
L 963.568371 937.646181 
L 963.225172 937.93119 
" clip-path="url(#p970eae2d0b)"/>
    <path d="M 946.849695 932.326023 
L 946.653582 932.397275 
L 946.236841 932.278522 
L 945.942671 931.922261 
L 945.697529 931.257241 
L 945.697529 930.663474 
L 945.893642 930.069706 
L 946.163298 929.689695 
L 946.383926 929.689695 
L 946.751639 929.85595 
L 946.996781 930.164709 
L 947.192894 930.52097 
L 947.266437 931.019734 
L 947.241922 931.613502 
L 947.045809 932.159768 
L 946.849695 932.326023 
" clip-path="url(#p970eae2d0b)"/>
    <path d="M 982.248181 934.629842 
L 981.95401 934.629842 
L 981.414698 934.392335 
L 978.914251 932.991043 
L 978.669109 932.587281 
L 978.718138 930.54472 
L 978.889737 929.167179 
L 979.232936 928.52591 
L 979.649677 928.16965 
L 980.01739 928.122148 
L 980.556702 928.122148 
L 981.439213 928.668415 
L 982.248181 929.19093 
L 982.615893 929.52344 
L 982.689436 930.045956 
L 982.444294 930.85348 
L 982.346237 931.637253 
L 982.297209 932.777287 
L 982.41978 934.036074 
L 982.41978 934.511088 
L 982.248181 934.629842 
" clip-path="url(#p970eae2d0b)"/>
    <path d="M 943.883479 928.929672 
L 943.638337 928.929672 
L 942.902911 928.478409 
L 942.339085 928.122148 
L 942.290057 927.813389 
L 942.461656 927.552131 
L 942.878397 927.290874 
L 943.71188 927.029616 
L 944.055078 926.982115 
L 944.30022 927.053367 
L 944.520848 927.267123 
L 944.618904 927.623384 
L 944.569876 928.027146 
L 944.422791 928.478409 
L 944.153135 928.810919 
L 943.883479 928.929672 
" clip-path="url(#p970eae2d0b)"/>
    <path d="M 966.338474 922.136971 
L 965.84819 922.208223 
L 965.504991 922.018217 
L 965.08825 921.4482 
L 964.622481 920.308166 
L 964.475395 919.880654 
L 964.573452 919.358138 
L 964.965679 919.144382 
L 965.455963 919.144382 
L 965.872704 919.42939 
L 966.338474 920.141911 
L 966.804243 921.186943 
L 966.755215 921.756959 
L 966.338474 922.136971 
" clip-path="url(#p970eae2d0b)"/>
    <path d="M 981.267613 913.444213 
L 982.762979 914.869255 
L 983.547433 915.676779 
L 983.743546 916.246796 
L 983.694518 916.864314 
L 983.522918 917.505583 
L 982.910064 918.431861 
L 982.272695 919.239385 
L 981.855954 920.213164 
L 981.390184 921.875713 
L 980.997957 923.657016 
L 980.752815 924.274534 
L 979.674191 925.604574 
L 977.762085 926.934613 
L 977.051173 927.124619 
L 976.438318 927.077117 
L 975.776435 926.625854 
L 974.624269 925.414568 
L 972.663134 923.158251 
L 971.682566 921.804461 
L 971.094226 921.4482 
L 970.481371 921.281945 
L 969.329204 920.949435 
L 968.838921 920.450671 
L 968.667321 919.7619 
L 968.642807 918.170603 
L 969.133091 912.375431 
L 969.353719 912.090422 
L 969.721431 911.924167 
L 970.015602 911.971669 
L 970.383314 912.256677 
L 971.314854 913.847975 
L 971.927708 914.584246 
L 972.148336 914.703 
L 972.761191 914.584246 
L 973.300503 914.227986 
L 974.183013 913.301708 
L 976.217691 912.137924 
L 977.664028 911.3304 
L 978.20334 911.259148 
L 978.816195 911.496655 
L 981.267613 913.444213 
" clip-path="url(#p970eae2d0b)"/>
    <path d="M 1029.952787 583.214408 
L 1029.070277 583.428164 
L 1027.869082 583.333162 
L 1026.349202 583.238159 
L 1025.466691 582.62064 
L 1025.34412 581.908119 
L 1025.662805 581.171847 
L 1026.741429 580.744335 
L 1028.50645 580.625581 
L 1029.487018 581.029343 
L 1030.148901 581.433105 
L 1030.369529 582.478136 
L 1029.952787 583.214408 
" clip-path="url(#p970eae2d0b)"/>
    <path d="M 738.013341 302.481073 
L 738.282997 305.022398 
L 738.920366 308.10999 
L 739.876419 309.748789 
L 742.254295 312.693876 
L 742.376866 313.240142 
L 742.156239 315.567712 
L 742.205267 318.987813 
L 742.57298 320.531609 
L 743.038749 321.172878 
L 744.117373 321.932901 
L 746.568792 323.025433 
L 748.333814 323.999212 
L 750.809746 325.495506 
L 751.30003 326.27928 
L 751.177459 327.158056 
L 750.981346 328.369342 
L 750.638147 330.364401 
L 751.226488 331.243177 
L 751.716771 331.551936 
L 752.182541 331.551936 
L 753.677906 330.768163 
L 754.511389 330.435653 
L 754.977158 330.411902 
L 755.590013 330.483154 
L 759.978052 333.404491 
L 761.620503 334.164514 
L 762.89524 334.259517 
L 764.880889 333.998259 
L 768.607046 332.858225 
L 769.661156 332.739471 
L 771.058464 332.715721 
L 772.235145 333.261987 
L 773.90211 334.568276 
L 775.323933 336.325828 
L 778.755919 341.028468 
L 779.834543 342.999776 
L 780.569969 345.968614 
L 781.060252 347.298654 
L 784.14904 350.790007 
L 785.325721 351.763786 
L 786.379831 352.405055 
L 787.679083 352.951321 
L 796.332591 355.183888 
L 801.137371 356.228919 
L 803.368162 357.297701 
L 804.961584 358.223978 
L 807.682659 360.955309 
L 814.546631 367.272997 
L 815.968454 369.244305 
L 816.336167 370.241835 
L 816.458738 372.213143 
L 816.82645 372.878163 
L 817.29222 373.424429 
L 817.659933 373.638186 
L 818.934671 373.851942 
L 820.92032 374.041948 
L 821.631231 374.255704 
L 822.440199 374.706967 
L 822.685341 375.585744 
L 822.832426 377.129539 
L 823.445281 378.982094 
L 824.499391 380.312134 
L 826.043785 381.950932 
L 827.465607 382.805958 
L 831.436906 384.539759 
L 832.04976 385.181028 
L 832.172331 385.727295 
L 832.172331 386.938581 
L 832.074274 387.841107 
L 831.633019 389.59866 
L 831.633019 389.812416 
L 831.976218 390.144926 
L 833.152899 390.904948 
L 837.810594 393.446274 
L 841.683836 395.940098 
L 848.400723 400.40523 
L 858.990851 407.364187 
L 860.633302 408.765479 
L 861.123585 409.763008 
L 861.466784 410.641784 
L 861.246156 411.52056 
L 861.1481 412.636844 
L 861.859011 413.18311 
L 864.555572 414.038135 
L 869.360352 415.748186 
L 873.111023 416.816968 
L 880.832991 418.265761 
L 881.76453 418.598271 
L 882.720584 419.358293 
L 883.774694 420.332072 
L 884.583662 420.783335 
L 886.814453 421.638361 
L 891.962432 422.137126 
L 893.359741 422.350882 
L 894.11968 422.61214 
L 895.222819 423.372162 
L 896.129844 424.013431 
L 900.248227 426.744762 
L 907.185742 430.521125 
L 911.524753 432.37368 
L 916.206962 434.08373 
L 916.917874 434.511243 
L 917.751356 435.057509 
L 918.217126 435.722529 
L 918.928037 437.266325 
L 919.761519 438.358857 
L 921.158828 439.11888 
L 922.923849 439.522642 
L 925.375268 440.068908 
L 927.26286 440.591424 
L 928.439541 441.13769 
L 933.146265 444.17778 
L 934.960315 445.389066 
L 935.548655 445.769077 
L 939.61801 448.856669 
L 941.72623 450.376714 
L 944.177649 451.469247 
L 946.187812 452.063014 
L 954.302008 453.93932 
L 956.385714 454.580589 
L 957.856565 455.364362 
L 959.768672 457.074413 
L 964.818594 461.325789 
L 965.946247 461.895806 
L 967.66224 462.133313 
L 970.603942 462.418322 
L 972.589591 462.798333 
L 973.741758 463.344599 
L 974.844896 464.247126 
L 975.80095 465.553415 
L 977.222772 467.975987 
L 978.669109 470.849822 
L 979.453563 471.823601 
L 980.115446 472.346116 
L 981.537269 473.438649 
L 984.82217 475.599963 
L 987.616787 477.785028 
L 994.578816 483.983962 
L 998.035317 486.810296 
L 998.746228 486.9528 
L 1001.589874 487.095304 
L 1004.26192 486.739044 
L 1005.242488 486.549038 
L 1009.924697 485.622761 
L 1013.528283 485.100245 
L 1015.685531 485.100245 
L 1017.352496 485.2665 
L 1029.217362 487.095304 
L 1030.394043 487.546568 
L 1031.08044 488.187837 
L 1032.183578 489.30412 
L 1032.968032 489.945389 
L 1033.850543 490.396652 
L 1035.909735 490.752913 
L 1037.772813 490.752913 
L 1039.047551 490.776664 
L 1040.714515 490.800414 
L 1044.318101 490.65791 
L 1046.181179 490.182896 
L 1050.005392 488.876607 
L 1052.015555 488.615349 
L 1058.95307 487.522817 
L 1065.915099 486.667792 
L 1067.09178 486.739044 
L 1068.096862 487.522817 
L 1069.2 489.185366 
L 1068.660688 493.721751 
L 1065.547386 500.490702 
L 1063.341109 505.549602 
L 1063.022425 508.470939 
L 1061.796716 512.461057 
L 1060.47295 516.237419 
L 1059.075641 518.731244 
L 1056.599708 523.31513 
L 1054.834687 525.500194 
L 1052.701953 526.592727 
L 1050.912417 527.091492 
L 1046.990147 527.115242 
L 1046.548892 527.138993 
L 1045.396725 527.400251 
L 1043.288505 528.279027 
L 1041.400913 529.989078 
L 1039.366235 532.74416 
L 1038.434696 535.332986 
L 1038.263097 536.021757 
L 1037.919898 537.541802 
L 1037.919898 539.394357 
L 1037.993441 546.757076 
L 1037.650242 546.947081 
L 1037.086416 547.445846 
L 1035.125281 548.91839 
L 1031.301068 551.29346 
L 1029.756674 552.029732 
L 1028.261309 548.538379 
L 1026.226631 548.087115 
L 1025.80989 547.873359 
L 1024.657723 547.23209 
L 1023.652642 546.638322 
L 1023.186872 546.448316 
L 1022.721102 546.472067 
L 1022.279847 546.519569 
L 1022.083734 546.780826 
L 1022.059219 547.065835 
L 1022.623046 548.799636 
L 1022.721102 549.512157 
L 1022.868188 551.530967 
L 1022.721102 554.357301 
L 1022.451446 554.99857 
L 1021.152195 557.373641 
L 1019.926485 558.846185 
L 1019.142031 559.582456 
L 1018.284035 560.03372 
L 1011.910346 563.477572 
L 1009.973726 564.475102 
L 1008.18419 565.615136 
L 1003.50198 568.46522 
L 999.530682 571.14905 
L 998.304973 572.17033 
L 997.226349 573.16786 
L 996.221267 574.402896 
L 994.186589 577.181729 
L 993.181508 579.22429 
L 992.568653 581.338102 
L 991.244887 585.708232 
L 990.632032 590.767132 
L 990.411405 592.04967 
L 990.26432 592.453432 
L 990.190777 593.355959 
L 989.945635 595.944786 
L 989.528894 596.08729 
L 989.308266 596.182293 
L 988.1561 596.229794 
L 985.435025 596.372299 
L 985.263426 596.396049 
L 983.449376 596.396049 
L 981.512755 596.4198 
L 979.698705 596.586055 
L 977.247287 597.156072 
L 975.310666 597.916095 
L 973.668215 598.628616 
L 972.295421 599.45989 
L 970.996169 600.148661 
L 970.06463 600.433669 
L 969.574346 600.504921 
L 969.133091 600.362417 
L 968.765378 599.887403 
L 968.177038 598.747369 
L 967.637726 598.201103 
L 967.294527 598.129851 
L 966.877786 598.272355 
L 966.706186 598.391109 
L 966.43653 598.628616 
L 966.313959 599.293635 
L 966.313959 600.053658 
L 966.755215 601.4787 
L 967.564183 602.499981 
L 968.593779 603.117499 
L 969.525318 603.236252 
L 971.314854 602.951244 
L 974.991981 601.336196 
L 977.222772 600.219913 
L 979.085851 599.45989 
L 980.458645 599.246134 
L 982.12561 599.222383 
L 986.366564 599.246134 
L 989.626951 598.866123 
L 993.25505 598.248604 
L 995.632926 597.559834 
L 998.084345 596.562304 
L 999.187483 596.253545 
L 999.702281 596.253545 
L 999.996452 596.324797 
L 1000.437707 596.443551 
L 1000.854448 596.799811 
L 1000.854448 597.061069 
L 1000.829934 597.369828 
L 999.113941 599.697397 
L 997.790175 601.217443 
L 992.127398 608.033895 
L 988.229642 614.232829 
L 986.954904 616.987911 
L 985.042798 621.096783 
L 981.512755 630.810821 
L 980.385102 634.088418 
L 979.919333 636.962254 
L 979.453563 641.284882 
L 979.330992 645.892519 
L 979.55162 647.388813 
L 980.164475 649.95389 
L 981.316642 652.946478 
L 982.468808 654.965288 
L 982.88555 655.796563 
L 982.910064 656.414081 
L 982.71395 657.150353 
L 981.145042 658.955407 
L 981.218585 661.971746 
L 981.243099 663.563044 
L 980.826358 665.035587 
L 980.336074 665.914363 
L 980.507673 666.175621 
L 980.409617 666.650635 
L 980.041904 667.006896 
L 977.345343 669.999485 
L 974.673297 672.825819 
L 970.309772 678.288481 
L 966.657158 683.371132 
L 965.308878 685.864956 
L 962.710374 690.543845 
L 960.651182 695.198983 
L 959.621587 698.262824 
L 959.155817 699.687866 
L 958.690047 700.851651 
L 958.224278 701.445418 
L 957.537881 701.777928 
L 956.116058 701.777928 
L 953.468526 700.899152 
L 952.43893 700.329135 
L 951.875104 699.687866 
L 951.311277 698.357827 
L 950.208139 697.004036 
L 948.565688 695.935255 
L 947.830263 695.673997 
L 947.241922 695.673997 
L 946.457468 696.077759 
L 943.24611 698.80909 
L 939.201269 702.466699 
L 938.122645 703.630483 
L 936.16151 706.100557 
L 933.906205 709.140647 
L 932.214726 711.61072 
L 928.611141 718.094663 
L 926.20875 723.74733 
L 922.556137 732.8201 
L 920.521459 737.997754 
L 918.511296 744.60045 
L 916.868845 750.110613 
L 914.760625 758.019598 
L 913.534916 763.197252 
L 913.118175 765.857331 
L 911.794409 775.998882 
L 910.960926 781.034031 
L 910.323558 783.884116 
L 909.784246 785.499164 
L 909.122362 786.472943 
L 907.357341 787.897985 
L 905.88649 788.871764 
L 904.660781 789.156773 
L 903.77827 789.08552 
L 903.287986 788.895515 
L 903.01833 788.658008 
L 902.895759 788.254246 
L 903.01833 787.874234 
L 905.763919 784.121623 
L 906.867057 782.197816 
L 908.141795 778.730213 
L 909.122362 775.571369 
L 909.318476 774.288831 
L 909.367504 773.196299 
L 909.220419 772.032514 
L 908.656593 770.346214 
L 907.308313 766.474849 
L 906.769001 765.477319 
L 906.278717 764.717297 
L 906.009061 764.456039 
L 905.714891 764.194781 
L 905.003979 763.957274 
L 903.287986 763.767269 
L 902.454504 763.767269 
L 901.792621 763.862272 
L 901.057195 764.123529 
L 899.806972 764.717297 
L 898.017436 766.071087 
L 896.3995 767.638634 
L 895.124762 769.111177 
L 894.58545 769.847449 
L 894.29128 770.346214 
L 894.168709 771.082486 
L 894.095166 773.528809 
L 893.899053 775.26261 
L 893.506826 776.497647 
L 892.844943 777.400173 
L 892.109517 778.183947 
L 891.349577 778.445204 
L 890.540609 778.397703 
L 889.731641 778.088944 
L 886.961538 774.692593 
L 885.735829 773.433806 
L 884.902346 772.792537 
L 884.559148 772.531279 
L 884.019836 772.602531 
L 883.87275 772.673783 
L 883.75018 772.935041 
L 883.676637 773.315052 
L 883.75018 773.837568 
L 884.314006 775.238859 
L 885.441658 777.352672 
L 886.201598 778.373952 
L 886.814453 779.157726 
L 888.334332 780.487765 
L 889.412957 781.580298 
L 889.952269 782.387822 
L 890.319981 783.171595 
L 890.540609 783.884116 
L 890.810265 784.382881 
L 891.276035 784.430382 
L 891.570205 784.192875 
L 893.727453 781.817805 
L 896.007273 779.062723 
L 896.98784 777.685182 
L 897.45361 776.972661 
L 897.723266 775.880128 
L 897.821323 773.291301 
L 898.140007 772.198769 
L 898.409663 771.5575 
L 898.948975 770.916231 
L 899.071546 770.797477 
L 900.346284 769.704945 
L 901.155252 769.301183 
L 901.96422 769.20618 
L 902.822217 769.277432 
L 903.116387 769.467438 
L 903.557642 770.037455 
L 904.047926 771.082486 
L 904.881408 773.362554 
L 904.930437 773.93257 
L 904.905922 774.26508 
L 904.440153 775.737624 
L 902.895759 777.827686 
L 901.621021 779.442734 
L 900.640454 781.010281 
L 899.708915 783.147844 
L 899.439259 783.979119 
L 899.194117 785.522915 
L 899.26766 786.306688 
L 899.537316 787.209215 
L 900.174684 788.349249 
L 900.591426 789.441781 
L 901.057195 791.08058 
L 901.20428 792.43437 
L 901.081709 793.408149 
L 901.081709 793.859412 
L 901.155252 794.310676 
L 901.768107 795.260704 
L 902.72416 796.234483 
L 903.410557 796.8045 
L 903.753756 796.923253 
L 904.170497 796.923253 
L 904.587238 796.733247 
L 904.636266 796.281984 
L 904.36661 795.236953 
L 903.925355 794.025667 
L 903.802784 793.503152 
L 903.925355 793.194392 
L 904.195011 793.051888 
L 905.347178 793.170642 
L 906.033575 793.431899 
L 906.64643 793.859412 
L 907.210256 794.951945 
L 907.357341 796.234483 
L 907.038657 797.469519 
L 906.695458 798.51455 
L 905.984547 800.842119 
L 904.807866 805.283501 
L 903.631185 811.339931 
L 903.01833 817.681369 
L 902.062277 827.252904 
L 901.939706 834.591871 
L 901.449422 842.049593 
L 901.547479 847.060992 
L 901.743592 855.682498 
L 902.111305 863.18772 
L 902.773188 869.172898 
L 903.410557 874.2793 
L 904.170497 877.200637 
L 905.028493 879.243197 
L 905.763919 881.048251 
L 905.911004 882.639548 
L 905.911004 883.993338 
L 905.690376 884.682109 
L 905.445235 885.014619 
L 904.611752 885.252126 
L 904.023412 885.038369 
L 902.577075 883.684579 
L 901.473936 882.782052 
L 900.885596 882.568296 
L 900.174684 882.568296 
L 898.630291 883.162064 
L 896.497556 884.777111 
L 894.511907 887.41344 
L 893.899053 889.551003 
L 893.335226 894.087388 
L 893.261684 895.726187 
L 893.384255 897.649994 
L 893.286198 898.55252 
L 892.869457 899.241291 
L 891.962432 900.025064 
L 891.521177 900.21507 
L 890.883808 899.977563 
L 890.442552 898.671274 
L 890.099354 896.794968 
L 890.270953 895.84494 
L 890.712208 894.538651 
L 891.398606 893.279864 
L 891.496662 892.401088 
L 891.030893 891.379808 
L 890.418038 890.881043 
L 890.221925 890.833541 
L 889.412957 890.619785 
L 886.471254 890.263524 
L 885.073946 890.501031 
L 883.554066 891.071048 
L 882.181272 891.926074 
L 881.76453 892.757348 
L 882.009672 893.042357 
L 884.485605 894.277394 
L 885.6868 895.274923 
L 886.593825 896.224951 
L 887.696964 898.433767 
L 887.893077 899.288792 
L 888.089191 900.310073 
L 888.138219 902.518888 
L 888.089191 902.993902 
L 888.481417 910.475374 
L 889.707127 917.648087 
L 891.643748 925.058307 
L 893.580368 930.235961 
L 895.737617 934.392335 
L 897.625209 937.669932 
L 899.09606 939.427484 
L 901.400394 941.850056 
L 903.77827 944.367631 
L 905.175578 946.36269 
L 907.381855 948.143993 
L 908.337909 951.207834 
L 908.877221 952.585375 
L 908.75465 953.08414 
L 907.70054 953.725409 
L 905.690376 953.844162 
L 903.753756 954.152921 
L 902.503532 954.532933 
L 901.106224 954.295425 
L 900.052113 953.250394 
L 900.052113 952.490372 
L 900.959138 950.922825 
L 901.057195 949.901545 
L 900.370798 948.785262 
L 899.047032 948.547755 
L 897.600695 948.547755 
L 895.615046 948.690259 
L 894.953163 949.07027 
L 894.953163 949.592786 
L 896.007273 951.136582 
L 896.840755 953.08414 
L 897.257496 954.722938 
L 897.74778 956.385488 
L 897.919379 956.78925 
L 898.630291 957.14551 
L 901.057195 956.908003 
L 902.920273 957.383017 
L 904.415639 958.000536 
L 905.12655 958.784309 
L 905.249121 959.401827 
L 904.219525 961.301884 
L 901.49845 965.933271 
L 900.493369 968.949611 
L 900.32177 968.498347 
L 898.850918 963.178189 
L 898.311606 962.418167 
L 897.429096 962.346915 
L 896.007273 962.940682 
L 893.923567 963.86696 
L 891.398606 965.101996 
L 889.3149 965.125747 
L 886.544797 965.078246 
L 884.608176 965.814518 
L 882.328357 967.477067 
L 881.053619 968.545849 
L 880.171108 968.759605 
L 878.087402 968.712104 
L 876.518494 968.094585 
L 875.685012 967.049554 
L 875.047643 964.840739 
L 874.067076 962.86943 
L 870.438976 959.639334 
L 869.384866 959.591833 
L 868.35527 960.375606 
L 867.105047 962.726926 
L 866.001909 962.964433 
L 865.315511 962.394416 
L 864.482029 960.49436 
L 862.717008 955.910473 
L 862.300266 953.630406 
L 862.20221 950.946576 
L 861.883525 949.236525 
L 858.696681 951.611596 
L 856.024635 952.561624 
L 853.499673 952.727879 
L 851.19534 952.395369 
L 849.749003 952.205363 
L 850.778599 957.359266 
L 849.405804 957.668026 
L 846.929871 960.043096 
L 844.772623 961.753147 
L 843.5224 962.133158 
L 841.585779 962.085657 
L 837.173225 961.420637 
L 833.643182 960.874371 
L 832.392959 961.18313 
L 831.265306 962.038155 
L 830.088625 962.964433 
L 828.911944 963.20194 
L 827.563664 962.86943 
L 825.970242 961.18313 
L 822.219572 954.200423 
L 821.900887 952.917885 
L 821.97443 951.231585 
L 821.655745 950.234055 
L 820.675178 949.877794 
L 819.939752 950.186554 
L 817.194163 952.324117 
L 814.546631 954.414179 
L 813.639606 954.366678 
L 813.173837 953.654156 
L 813.173837 952.157862 
L 813.517035 949.117772 
L 813.66412 947.858984 
L 814.448574 945.246407 
L 815.894911 940.330011 
L 815.968454 939.688742 
L 815.64977 938.928719 
L 814.59566 938.026192 
L 812.806124 937.337422 
L 811.972642 937.194918 
L 811.457844 937.194918 
L 810.036021 937.717433 
L 809.521223 937.717433 
L 808.761283 937.361173 
L 808.025858 936.743654 
L 807.560088 935.817377 
L 806.947233 933.632312 
L 806.211808 932.326023 
L 805.574439 931.661003 
L 804.740957 931.257241 
L 803.392676 931.114737 
L 801.161885 930.782227 
L 800.328403 930.093457 
L 798.563382 926.5071 
L 798.416296 925.652075 
L 798.465325 924.084529 
L 798.465325 923.46701 
L 798.31824 922.825741 
L 797.705385 922.255724 
L 796.945445 921.923214 
L 796.651275 921.923214 
L 795.768764 922.208223 
L 793.758601 923.300755 
L 793.096718 923.443259 
L 791.871009 921.186943 
L 791.625867 919.999407 
L 791.772952 918.574365 
L 792.042608 915.605527 
L 791.944551 914.821754 
L 791.405239 914.109232 
L 790.155016 913.135453 
L 790.007931 913.087952 
L 789.321533 912.802944 
L 787.973253 912.660439 
L 786.919143 912.68419 
L 786.110175 912.969199 
L 784.492239 914.061731 
L 781.305394 916.983068 
L 781.084767 917.41058 
L 781.109281 918.978127 
L 780.962196 919.619396 
L 780.52094 920.260665 
L 779.63843 920.75943 
L 778.290149 920.996937 
L 776.966383 920.711928 
L 774.49045 919.548144 
L 773.951138 919.476892 
L 772.774457 919.571895 
L 770.837837 920.118161 
L 768.754131 920.236914 
L 768.459961 920.141911 
L 767.356822 919.714399 
L 765.101517 917.41058 
L 762.870726 914.227986 
L 762.380442 913.0167 
L 762.355928 911.472904 
L 762.699127 909.691601 
L 762.552042 908.266559 
L 762.184329 907.269029 
L 760.541878 905.297721 
L 760.051595 904.846457 
L 758.188517 903.136407 
L 755.271328 901.616361 
L 754.094647 900.405075 
L 751.00586 895.369926 
L 747.328732 890.429779 
L 741.298242 883.328318 
L 737.988827 879.053192 
L 736.444433 875.63309 
L 733.870444 868.864139 
L 732.963419 866.964083 
L 731.296454 865.325284 
L 727.545783 862.380197 
L 726.025904 861.620174 
L 724.162826 861.430168 
L 715.705431 862.190191 
L 713.229499 862.427698 
L 711.611562 862.665205 
L 710.214254 863.567732 
L 702.492285 870.170428 
L 698.815157 873.305521 
L 698.006189 873.329272 
L 697.197221 872.996762 
L 696.02054 872.355493 
L 691.436387 868.531629 
L 690.259706 867.344094 
L 689.548794 867.130338 
L 688.617255 867.462847 
L 688.396628 867.795357 
L 687.268975 870.027924 
L 686.460007 871.144207 
L 685.185269 872.26049 
L 683.567333 873.044263 
L 677.536843 874.873067 
L 676.850446 874.778065 
L 675.428623 873.471776 
L 673.197832 871.072955 
L 670.599328 868.88789 
L 668.245966 867.035335 
L 666.726087 866.607822 
L 664.446268 866.251561 
L 656.650756 865.800298 
L 655.866302 865.800298 
L 655.081848 865.919052 
L 653.365855 867.676604 
L 651.625348 869.742915 
L 650.865408 870.384184 
L 649.222958 870.597941 
L 646.967653 870.431686 
L 645.987085 870.075425 
L 645.006518 869.172898 
L 643.118925 866.797828 
L 642.334471 865.135278 
L 642.309957 863.85274 
L 643.167954 862.356446 
L 644.124007 861.335165 
L 644.124007 860.670146 
L 643.903379 860.12388 
L 643.216982 859.031347 
L 641.550017 857.297546 
L 639.956595 855.302486 
L 639.368255 854.542464 
L 636.769751 850.148583 
L 634.489932 846.300969 
L 632.994566 844.448414 
L 629.145839 840.624551 
L 623.017292 834.686874 
L 623.899803 833.475588 
L 625.223569 831.813039 
L 625.689339 830.221742 
L 626.057052 827.727918 
L 625.934481 826.160371 
L 625.419683 823.476541 
L 624.414601 821.196474 
L 621.325814 817.063851 
L 620.443303 815.876316 
L 619.462735 815.425052 
L 618.482168 815.068792 
L 615.957207 814.926288 
L 612.721334 815.140044 
L 611.34854 816.161324 
L 609.264834 817.610117 
L 608.529408 818.132633 
L 607.524327 819.39142 
L 606.249589 822.312757 
L 603.822684 826.967895 
L 602.91566 829.247963 
L 602.719546 829.627974 
L 602.621489 830.625504 
L 602.572461 831.314274 
L 602.44989 832.145549 
L 602.229262 832.786818 
L 601.665436 833.618093 
L 600.856468 834.354364 
L 599.679787 835.043135 
L 598.331507 835.446897 
L 596.762599 835.826908 
L 595.610432 836.586931 
L 593.55124 838.819497 
L 592.521644 839.983282 
L 592.080389 840.695803 
L 591.418506 841.883338 
L 590.707595 843.237128 
L 589.702513 844.709672 
L 588.035548 846.609728 
L 587.373665 847.060992 
L 586.515669 848.082272 
L 585.780243 849.269807 
L 585.486073 850.196085 
L 585.314474 851.644878 
L 585.044818 852.38115 
L 584.162307 853.568685 
L 582.617913 854.779971 
L 582.397285 853.829943 
L 580.656778 847.060992 
L 580.092952 846.039711 
L 579.749753 845.32719 
L 579.161413 844.733423 
L 577.567991 843.9734 
L 576.68548 843.759644 
L 576.121654 843.783394 
L 574.994001 843.807145 
L 573.572178 844.139655 
L 573.204466 844.092154 
L 572.787724 844.044652 
L 572.444526 843.735893 
L 572.321955 843.023372 
L 572.370983 841.907089 
L 573.032866 840.173287 
L 573.841834 837.465707 
L 573.890863 836.420676 
L 573.743778 835.494398 
L 573.449607 834.520619 
L 573.008352 833.428087 
L 572.665153 832.288053 
L 572.027785 830.482999 
L 571.586529 829.034206 
L 571.145274 828.13168 
L 570.851104 827.704167 
L 567.688774 822.597765 
L 566.953348 821.125222 
L 567.051405 820.460202 
L 568.963511 816.066321 
L 569.772479 813.382492 
L 570.434362 810.437404 
L 570.409848 809.154866 
L 570.140192 808.014832 
L 569.233167 805.093496 
L 569.233167 804.21472 
L 569.625394 803.21719 
L 570.507905 801.792148 
L 571.537501 801.055876 
L 573.327036 800.53336 
L 574.185033 800.129598 
L 574.675317 799.535831 
L 575.092058 798.15829 
L 575.239143 796.210732 
L 574.944973 793.12314 
L 574.846916 792.386868 
L 573.449607 789.964296 
L 571.243331 785.855424 
L 570.262763 784.169124 
L 570.262763 783.765362 
L 570.851104 783.266598 
L 572.910295 782.577827 
L 574.356632 782.079062 
L 575.214629 781.509045 
L 575.704913 780.677771 
L 576.072625 779.30023 
L 576.538395 776.236389 
L 576.538395 775.666372 
L 576.244225 775.26261 
L 574.381146 773.885069 
L 572.836753 773.362554 
L 570.483391 772.887539 
L 569.60088 772.697534 
L 569.30671 772.436276 
L 569.135111 771.937511 
L 569.061568 770.963732 
L 568.816426 769.372435 
L 568.350657 767.282373 
L 566.977862 764.028526 
L 566.070837 762.365977 
L 565.629582 761.677207 
L 564.354844 760.228414 
L 563.251706 758.850873 
L 563.006564 757.75834 
L 562.957536 754.765751 
L 562.736908 753.649468 
L 562.344681 752.818194 
L 560.260975 749.849355 
L 558.446925 747.236778 
L 557.025102 745.312971 
L 554.500141 742.557889 
L 553.298946 741.58411 
L 552.931233 741.536609 
L 552.220322 741.536609 
L 551.264269 741.607861 
L 550.381758 742.106626 
L 550.014045 742.747895 
L 549.621818 744.837957 
L 549.205077 746.64301 
L 548.469651 747.711792 
L 547.685197 748.543067 
L 546.729144 748.851826 
L 546.140804 748.709322 
L 544.669953 747.830546 
L 543.002988 746.856767 
L 541.605679 746.476755 
L 539.742601 746.381753 
L 538.713005 745.930489 
L 535.133934 743.294161 
L 534.226909 742.462886 
L 533.88371 741.869119 
L 532.314803 739.280292 
L 531.211664 738.045255 
L 530.304639 737.403986 
L 528.417047 736.430207 
L 526.602997 735.551431 
L 520.670564 731.941324 
L 516.576695 729.4475 
L 515.105844 728.426219 
L 513.904649 727.119931 
L 513.340822 726.668667 
L 512.997624 726.621166 
L 512.531854 726.621166 
L 511.208088 726.834922 
L 508.315414 727.072429 
L 507.334847 726.953676 
L 506.378793 726.644917 
L 504.221545 725.219874 
L 502.603609 724.008588 
L 502.186867 723.153563 
L 502.088811 722.251036 
L 502.211382 720.279728 
L 502.309438 717.382142 
L 502.55458 715.743343 
L 502.55458 715.482085 
L 501.990754 715.054572 
L 500.078647 713.724533 
L 497.333058 711.016953 
L 496.009292 709.971921 
L 495.64158 709.473157 
L 495.64158 708.855638 
L 495.93575 708.333123 
L 496.867289 707.311843 
L 499.245165 705.388035 
L 500.078647 704.485509 
L 500.765045 703.012965 
L 501.157272 701.255413 
L 501.034701 700.756648 
L 500.495389 700.210382 
L 499.710935 699.949124 
L 497.038888 699.972875 
L 496.573119 699.877872 
L 495.788665 699.212852 
L 494.661012 698.334076 
L 493.974615 697.431549 
L 493.508845 696.814031 
L 492.895991 695.602745 
L 492.30765 694.985227 
L 490.812285 693.987697 
L 487.159671 691.636377 
L 485.835905 690.591346 
L 485.002423 689.71257 
L 483.948313 688.71504 
L 483.409001 687.812514 
L 483.409001 687.432502 
L 483.629628 686.624978 
L 484.732767 684.629919 
L 484.830823 684.083653 
L 484.512139 682.492356 
L 484.316025 680.924809 
L 483.87477 679.333512 
L 483.507057 678.668492 
L 482.722603 677.718464 
L 482.575518 677.433455 
L 482.575518 677.029693 
L 483.016774 676.435926 
L 483.531572 675.842158 
L 484.92888 674.702124 
L 485.296593 674.298362 
L 485.39465 673.87085 
L 485.39465 673.372085 
L 485.075965 672.445807 
L 483.11483 668.693196 
L 482.085235 667.101899 
L 481.619465 666.175621 
L 481.594951 665.178092 
L 482.011692 662.565514 
L 482.085235 660.950466 
L 481.791064 659.620427 
L 481.055639 657.577866 
L 480.001529 653.397742 
L 479.511245 650.500156 
L 479.65833 649.360122 
L 479.9525 648.647601 
L 480.614383 647.768825 
L 481.643979 646.842547 
L 481.938149 646.486287 
L 481.938149 646.058774 
L 481.619465 644.633732 
L 481.129181 642.804927 
L 480.957582 641.87865 
L 480.957582 640.88112 
L 481.349809 637.389767 
L 481.864607 636.320985 
L 482.305862 635.750968 
L 482.967745 635.442209 
L 486.081047 634.017166 
L 487.79704 633.043387 
L 489.169834 631.879603 
L 490.346515 630.549563 
L 490.738742 629.789541 
L 490.910342 629.290776 
L 491.032913 628.459501 
L 491.081941 626.963207 
L 491.327083 624.754391 
L 491.866395 620.33676 
L 492.234108 618.840466 
L 492.626335 618.460455 
L 493.214675 618.009191 
L 494.072672 617.866687 
L 494.88164 617.842936 
L 498.411683 618.507956 
L 500.005105 618.531707 
L 501.721098 618.341701 
L 505.251141 617.96169 
L 510.227521 617.652931 
L 513.169223 617.059163 
L 514.811673 616.370392 
L 515.571613 615.990381 
L 516.208982 615.349112 
L 516.576695 614.446585 
L 516.895379 613.757815 
L 516.944408 611.477747 
L 516.846351 610.503968 
L 516.699266 610.052705 
L 516.208982 609.292682 
L 515.571613 608.675164 
L 514.14979 606.965113 
L 513.929163 606.276343 
L 513.904649 605.825079 
L 514.247847 604.756298 
L 514.345904 604.281284 
L 514.247847 603.83002 
L 513.831106 603.283754 
L 513.169223 602.903743 
L 512.262198 602.452479 
L 511.306145 601.834961 
L 510.913918 601.431199 
L 510.717804 601.074938 
L 510.619748 600.196162 
L 510.031407 595.992287 
L 509.859808 594.424741 
L 509.663694 592.904696 
L 509.418552 591.170894 
L 509.075354 589.460844 
L 508.707641 587.347031 
L 508.315414 583.048153 
L 508.143815 582.359383 
L 507.579988 581.480607 
L 506.354279 580.103066 
L 505.545311 579.153037 
L 504.8344 578.701774 
L 504.148002 578.440516 
L 503.167435 578.298012 
L 501.549499 578.060505 
L 501.083729 577.846749 
L 498.926481 576.611712 
L 497.847856 576.160449 
L 497.553686 576.136698 
L 497.014374 576.231701 
L 496.131863 576.682964 
L 495.46998 577.062975 
L 495.200324 577.015474 
L 493.141133 576.20795 
L 492.724391 576.849219 
L 492.062508 577.300482 
L 491.768338 577.419236 
L 491.081941 577.419236 
L 489.292405 577.110477 
L 486.644873 575.922942 
L 486.032019 575.637933 
L 485.786877 575.590432 
L 485.419164 575.590432 
L 485.247565 575.637933 
L 484.463111 576.279202 
L 484.070884 576.967973 
L 482.158777 576.184199 
L 479.094504 574.711656 
L 477.697195 574.117888 
L 476.545028 573.19161 
L 474.534865 571.030296 
L 473.872982 570.412778 
L 473.211099 569.914013 
L 472.27956 569.438999 
L 466.690325 567.325186 
L 466.101985 567.206433 
L 465.758786 567.206433 
L 464.998847 567.301436 
L 463.55251 567.515192 
L 462.719027 567.538943 
L 461.885545 567.348937 
L 460.757892 566.921424 
L 458.845786 565.923895 
L 458.380016 565.78139 
L 457.865218 565.805141 
L 456.786594 566.351407 
L 455.511856 566.897674 
L 454.286147 567.253934 
L 450.633533 567.942705 
L 446.466122 568.631475 
L 438.915752 569.985265 
L 436.390791 570.365277 
L 430.335787 570.507781 
L 429.036535 570.602784 
L 428.668822 570.365277 
L 428.619794 570.127769 
L 428.399166 568.726478 
L 428.227567 567.610195 
L 428.006939 566.731419 
L 427.197971 565.140121 
L 426.830258 564.688858 
L 425.947748 564.07134 
L 425.212322 563.833833 
L 425.114265 564.023838 
L 424.182726 565.377628 
L 423.32473 565.75764 
L 422.785417 565.686388 
L 422.368676 565.235124 
L 422.049992 564.285096 
L 421.80485 563.026309 
L 421.388109 562.575045 
L 420.775254 562.432541 
L 419.794687 562.456292 
L 418.05418 562.028779 
L 416.583328 561.482513 
L 415.455676 560.864994 
L 414.13191 559.772462 
L 412.9062 558.656179 
L 411.067636 557.373641 
L 410.234154 557.112383 
L 409.376157 556.969879 
L 407.04731 557.064882 
L 405.674515 557.159884 
L 403.174068 557.706151 
L 402.634756 557.706151 
L 402.046416 557.34989 
L 401.261962 556.447363 
L 400.330423 553.027262 
L 399.938196 552.124735 
L 396.824894 549.963421 
L 391.407259 546.875829 
L 388.588127 544.88077 
L 387.60756 543.906991 
L 386.406365 542.766957 
L 385.965109 542.553201 
L 385.082599 542.52945 
L 384.494258 542.624453 
L 382.287981 543.455728 
L 381.209357 543.835739 
L 379.566907 543.598232 
L 378.782453 543.19447 
L 378.292169 542.030685 
L 377.875428 540.035626 
L 377.94897 536.425519 
L 377.703829 535.570493 
L 377.115488 534.644216 
L 376.331034 533.907944 
L 374.909211 532.506653 
L 374.296357 532.292896 
L 373.879616 532.340398 
L 373.291275 532.672907 
L 372.506821 533.290426 
L 371.550768 533.717938 
L 368.976778 534.477961 
L 366.795016 535.047978 
L 361.37738 535.095479 
L 360.151671 535.095479 
L 355.248834 534.525462 
L 353.312213 534.026698 
L 352.772901 533.670437 
L 352.405188 532.625406 
L 352.012961 531.295367 
L 351.154965 529.751571 
L 350.860794 529.490313 
L 350.591138 529.537814 
L 350.100855 529.680319 
L 348.041663 530.606596 
L 347.551379 530.179083 
L 346.61984 529.537814 
L 346.129556 528.872795 
L 345.810872 528.279027 
L 345.614759 527.637758 
L 345.467673 527.067741 
L 345.516702 526.806483 
L 346.546298 524.075152 
L 349.389943 518.493736 
L 349.537028 518.161227 
L 351.743305 516.284921 
L 353.459298 514.836128 
L 353.949582 514.171108 
L 354.366323 513.434836 
L 354.734036 511.701035 
L 356.425515 509.587222 
L 358.362135 507.140899 
L 358.950476 506.357126 
L 360.396813 504.409568 
L 361.524466 503.293285 
L 362.235377 502.675767 
L 368.780665 498.709399 
L 369.565119 498.543144 
L 370.937913 498.471892 
L 373.560931 497.640617 
L 375.350467 496.500583 
L 376.01235 495.669309 
L 376.429091 494.909286 
L 376.60069 494.03051 
L 376.992917 492.842975 
L 377.385144 492.249207 
L 378.978566 491.34668 
L 382.116382 490.040392 
L 382.92535 489.517876 
L 383.611748 488.591599 
L 383.709804 488.045332 
L 383.415634 486.810296 
L 383.293063 485.646511 
L 384.347173 481.846398 
L 384.7394 480.183849 
L 385.254198 478.996314 
L 388.048815 475.124949 
L 388.514585 474.578683 
L 390.108007 473.581153 
L 392.363312 471.966105 
L 393.196794 471.158581 
L 394.103819 469.852292 
L 395.329529 469.163522 
L 388.980354 467.643477 
L 386.063166 467.310967 
L 382.998893 466.835953 
L 379.566907 466.170933 
L 378.218627 465.672168 
L 377.311602 465.05465 
L 376.502633 464.270877 
L 376.085892 463.629608 
L 375.669151 462.869585 
L 375.644637 462.37082 
L 375.644637 461.729551 
L 376.036864 460.35201 
L 376.134921 459.235727 
L 376.085892 458.689461 
L 375.791722 458.285699 
L 374.811155 457.905688 
L 372.286193 457.026912 
L 371.403683 456.670651 
L 370.864371 456.148135 
L 370.521172 455.578119 
L 370.227002 454.936849 
L 369.638661 454.081824 
L 368.976778 453.345552 
L 367.800097 452.348023 
L 367.187243 452.086765 
L 365.716391 451.754255 
L 364.833881 451.540499 
L 362.701146 450.994232 
L 360.960639 450.352963 
L 360.0291 449.830448 
L 359.26916 448.951672 
L 358.68082 448.072896 
L 358.141508 447.336624 
L 357.381568 446.671604 
L 355.81266 445.365315 
L 354.366323 443.821519 
L 352.160046 441.090188 
L 351.59622 440.615174 
L 351.400107 440.14016 
L 351.375592 438.287605 
L 351.571706 437.622585 
L 352.184561 437.005067 
L 356.450029 434.891254 
L 357.406082 434.344988 
L 357.455111 434.08373 
L 355.641061 430.069861 
L 355.273348 429.452343 
L 354.954664 429.286088 
L 353.974096 429.499844 
L 351.253021 430.141113 
L 345.957957 431.304898 
L 345.247046 431.566156 
L 344.732248 432.136173 
L 343.482024 433.561215 
L 342.525971 434.178733 
L 341.422833 434.74875 
L 339.167528 435.651277 
L 337.328964 436.292546 
L 336.152283 436.506302 
L 335.098173 436.43505 
L 330.906247 436.601305 
L 329.656023 436.743809 
L 322.743023 437.693838 
L 321.983083 438.050098 
L 320.414175 438.738869 
L 318.74721 439.261384 
L 317.276359 439.593894 
L 315.830022 439.617645 
L 314.702369 439.403888 
L 313.010891 438.905123 
L 312.275465 438.45386 
L 311.956781 438.12135 
L 311.343926 437.290076 
L 310.265302 436.363798 
L 309.26022 436.007537 
L 307.372628 435.390019 
L 306.09789 435.057509 
L 305.092808 435.105011 
L 303.597443 435.556274 
L 302.518819 435.74628 
L 301.832422 435.508773 
L 301.317624 435.223764 
L 300.876368 434.558744 
L 298.988776 431.827413 
L 298.400435 430.877385 
L 298.032723 430.782382 
L 297.493411 430.829884 
L 296.561871 431.162394 
L 295.899988 431.37615 
L 295.041992 431.186144 
L 294.20851 430.734881 
L 291.315836 428.882326 
L 290.531382 428.074802 
L 290.237211 427.386031 
L 290.016584 425.98474 
L 289.501786 424.345941 
L 288.937959 422.707143 
L 288.349619 421.733364 
L 287.736764 421.353352 
L 286.805225 421.044593 
L 285.407917 420.640831 
L 283.912551 419.975811 
L 281.804331 418.550769 
L 279.86771 417.291982 
L 278.176232 416.531959 
L 277.073093 415.938192 
L 276.484753 415.415676 
L 275.871898 414.489399 
L 273.24888 412.066827 
L 272.807625 411.734317 
L 271.827057 411.306804 
L 270.969061 410.950544 
L 270.160093 410.451779 
L 268.517642 408.931734 
L 267.610617 408.171711 
L 267.095819 407.957955 
L 265.968167 407.81545 
L 264.717943 407.577943 
L 263.982518 407.387938 
L 263.050979 407.079179 
L 262.192982 406.604164 
L 261.384014 406.034148 
L 260.329904 405.10787 
L 259.202251 404.324097 
L 258.074599 403.75408 
L 256.726318 403.42157 
L 256.187006 403.397819 
L 255.132896 403.730329 
L 254.471013 404.181593 
L 253.80913 404.252845 
L 252.804049 404.134091 
L 251.725424 403.872833 
L 250.254573 403.492822 
L 249.323034 403.350318 
L 248.734694 403.445321 
L 247.95024 403.801581 
L 247.067729 404.252845 
L 246.160704 404.347847 
L 244.248598 404.252845 
L 240.1057 404.300346 
L 239.247704 404.229094 
L 238.242622 403.849083 
L 235.693146 402.709049 
L 234.418409 402.210284 
L 233.658469 402.186533 
L 232.628873 402.376539 
L 230.937394 402.899054 
L 229.123345 403.279066 
L 227.824093 403.374069 
L 226.745468 403.326567 
L 225.985529 403.184063 
L 225.250103 402.7328 
L 224.784334 402.210284 
L 224.171479 401.165253 
L 223.485082 400.38148 
L 223.117369 400.072721 
L 222.430972 400.04897 
L 221.523947 400.238975 
L 220.66595 400.333978 
L 219.783439 400.215225 
L 218.753844 400.001468 
L 217.944876 399.668959 
L 217.20945 399.170194 
L 216.547567 398.528925 
L 216.228882 397.816404 
L 215.68957 396.937627 
L 215.125744 396.415112 
L 214.022606 395.821344 
L 212.331127 395.251327 
L 208.629485 394.016291 
L 206.006467 393.256268 
L 204.486587 393.042512 
L 202.991222 393.113764 
L 200.588831 393.351271 
L 198.161927 393.422523 
L 196.543991 393.32752 
L 195.735023 392.99501 
L 194.117086 392.187486 
L 193.651317 391.759974 
L 193.577774 391.356212 
L 193.577774 390.548688 
L 193.455203 389.171147 
L 192.891377 386.748575 
L 192.548178 386.202309 
L 191.788239 385.774796 
L 191.003785 385.442286 
L 190.783157 385.038524 
L 190.292873 383.850989 
L 189.581962 382.972213 
L 188.895565 382.615952 
L 187.865969 382.615952 
L 187.007972 382.687204 
L 185.537121 382.995964 
L 184.262383 383.185969 
L 183.232787 383.138468 
L 181.737422 382.805958 
L 179.261489 382.140938 
L 177.986752 382.117187 
L 177.300354 382.259692 
L 176.295273 382.758456 
L 174.505737 383.850989 
L 173.255514 384.682264 
L 172.00529 385.252281 
L 171.220836 385.371034 
L 170.583467 385.323533 
L 169.725471 384.872269 
L 168.622332 383.945992 
L 167.102453 382.330944 
L 165.827715 381.333414 
L 164.700063 380.359635 
L 160.679736 377.723307 
L 159.94431 377.058287 
L 159.429512 376.417018 
L 159.282427 375.704497 
L 159.282427 374.944474 
L 159.282427 373.566934 
L 159.282427 372.379398 
L 159.086314 371.358118 
L 158.645058 370.455591 
L 158.154775 369.861824 
L 157.076151 369.07805 
L 156.978094 368.816793 
L 156.95358 368.508033 
L 157.174207 367.985518 
L 157.664491 367.201745 
L 158.30186 365.396691 
L 158.375402 364.731671 
L 158.424431 363.116623 
L 158.399917 361.145315 
L 158.30186 360.147785 
L 157.811576 359.197757 
L 157.909633 357.131446 
L 158.00769 355.92016 
L 158.228317 354.566369 
L 158.424431 354.067605 
L 158.547002 353.853848 
L 158.865686 353.687593 
L 159.306942 353.545089 
L 160.287509 353.331333 
L 160.606193 353.141327 
L 160.949392 352.737565 
L 161.366133 351.90629 
L 161.366133 347.1799 
L 161.684818 346.253623 
L 163.891094 343.973555 
L 164.283321 343.593544 
L 164.528463 343.189782 
L 164.087208 343.451039 
L 163.621438 343.522292 
L 163.131155 343.47479 
L 162.763442 343.261034 
L 162.101559 342.382258 
L 161.807389 341.907244 
L 161.684818 339.722179 
L 160.99842 336.183324 
L 160.802307 334.615777 
L 160.802307 333.760752 
L 161.635789 331.314429 
L 162.175101 330.221897 
L 163.180183 329.081863 
L 163.498867 328.416843 
L 163.621438 327.918078 
L 163.621438 327.371812 
L 163.400811 326.778044 
L 162.469272 324.59298 
L 162.371215 323.904209 
L 162.395729 323.120436 
L 162.591843 321.980402 
L 162.836984 320.127847 
L 162.959555 319.462827 
L 163.940123 318.037785 
L 164.602006 316.208981 
L 164.651034 315.306454 
L 164.454921 314.736437 
L 164.062694 314.190171 
L 163.327268 313.382647 
L 162.81247 312.978885 
L 162.003502 312.81263 
L 161.317105 312.408868 
L 160.973906 312.100109 
L 160.728764 311.530092 
L 160.655222 310.79382 
L 160.581679 309.938794 
L 160.679736 308.941265 
L 160.875849 306.851203 
L 160.900364 305.283656 
L 161.047449 304.143622 
L 161.268076 303.597356 
L 161.586761 303.146093 
L 164.16075 300.866025 
L 164.700063 300.486014 
L 171.098265 297.754683 
L 175.241163 296.020881 
L 177.202298 294.595839 
L 180.144 292.339522 
L 181.66388 291.294491 
L 188.380767 288.634412 
L 195.097654 285.380565 
L 197.00976 283.86052 
L 199.11798 282.17422 
L 200.17209 280.962934 
L 201.937112 278.374107 
L 202.917679 277.162821 
L 203.456991 276.996566 
L 204.633672 277.305326 
L 205.761325 277.80409 
L 206.619321 278.184102 
L 208.433371 278.659116 
L 212.478212 279.704147 
L 213.017524 279.79915 
L 213.900035 279.79915 
L 215.248315 279.656645 
L 216.523053 279.49039 
L 217.013336 279.49039 
L 217.871333 279.656645 
L 218.998986 279.870402 
L 220.813035 279.870402 
L 221.89166 279.276634 
L 223.019312 278.46911 
L 223.558624 277.946595 
L 224.318564 275.975286 
L 224.686277 275.239014 
L 224.833362 274.930255 
L 224.784334 274.526493 
L 224.661763 274.288986 
L 224.146965 274.003978 
L 223.411539 273.932725 
L 221.818117 273.718969 
L 220.788521 273.362708 
L 220.004067 272.911445 
L 216.596595 269.823853 
L 214.954145 267.567536 
L 214.169691 266.237497 
L 213.238152 264.171186 
L 212.085985 262.104874 
L 211.840843 261.487356 
L 211.693758 261.131095 
L 211.154446 260.561078 
L 210.296449 260.228569 
L 208.384343 259.848557 
L 207.42829 259.658552 
L 206.913492 259.27854 
L 206.472236 258.756025 
L 205.883896 257.473487 
L 205.14847 255.977192 
L 204.780757 254.575901 
L 204.633672 253.269612 
L 204.265959 252.818349 
L 203.555048 252.414587 
L 202.010654 251.892071 
L 199.951463 251.155799 
L 198.921867 250.490779 
L 198.088384 249.873261 
L 196.593019 248.519471 
L 195.882108 248.068207 
L 194.852512 247.80695 
L 192.474636 247.14193 
L 191.567611 246.833171 
L 191.346983 246.405658 
L 191.15087 245.811891 
L 190.587043 243.056809 
L 190.562529 242.296786 
L 190.881214 241.821772 
L 191.396012 241.394259 
L 194.950569 239.3992 
L 195.244739 239.04294 
L 195.244739 238.449172 
L 195.171196 237.784152 
L 194.60737 236.71537 
L 193.970001 235.907846 
L 193.283604 235.456583 
L 187.106029 233.01026 
L 186.46866 232.915258 
L 184.948781 232.98651 
L 181.49228 234.174045 
L 180.90394 234.530306 
L 180.021429 235.314079 
L 179.212461 236.0266 
L 178.550578 236.454113 
L 171.809177 239.707959 
L 170.902152 240.016718 
L 169.872556 240.230475 
L 168.695875 240.349228 
L 167.690793 240.610486 
L 167.151481 241.014248 
L 164.749091 244.10184 
L 163.964637 244.885613 
L 162.077045 247.47444 
L 159.478541 250.134519 
L 159.331456 250.538281 
L 159.429512 250.965794 
L 160.164938 252.20083 
L 160.70425 252.628343 
L 162.028016 253.032105 
L 162.591843 253.245861 
L 162.665385 253.459618 
L 162.738928 253.839629 
L 162.616357 254.504649 
L 162.5183 256.974722 
L 162.22413 257.996002 
L 160.900364 260.228569 
L 160.164938 261.867367 
L 159.037285 263.624919 
L 158.130261 264.622449 
L 156.48781 265.619979 
L 154.698274 266.498755 
L 151.68303 268.185055 
L 150.579891 268.660069 
L 149.672866 268.968828 
L 147.809788 269.325089 
L 144.671972 269.776352 
L 141.607699 270.03761 
L 138.813082 269.942607 
L 136.508748 269.610097 
L 135.013383 268.921327 
L 134.302471 268.778822 
L 131.262712 268.968828 
L 129.546719 269.04008 
L 124.055541 270.868884 
L 123.540743 271.130142 
L 122.609204 271.72391 
L 121.211896 272.840193 
L 120.353899 273.362708 
L 119.177218 273.695218 
L 117.77991 273.837723 
L 116.7258 273.861473 
L 115.598147 273.623966 
L 114.298895 273.243955 
L 112.460331 273.030199 
L 110.278569 272.721439 
L 109.739257 272.460182 
L 109.17543 271.747661 
L 108.41549 270.868884 
L 107.36138 270.560125 
L 106.724012 270.512624 
L 106.282756 270.750131 
L 105.988586 271.05889 
L 105.890529 271.628907 
L 106.086643 273.243955 
L 106.47887 274.977756 
L 106.576926 276.307796 
L 106.552412 277.47158 
L 106.282756 279.205382 
L 106.086643 280.15541 
L 105.645387 281.271693 
L 104.272593 283.551761 
L 103.218483 284.976803 
L 102.875284 285.380565 
L 101.551518 286.591851 
L 100.570951 286.971863 
L 99.198156 287.541879 
L 97.947933 288.016894 
L 97.11445 288.278151 
L 95.913255 288.325653 
L 93.854064 288.396905 
L 91.745844 288.705664 
L 87.33329 289.513188 
L 86.597865 289.631942 
L 85.98501 289.988202 
L 85.592783 290.439466 
L 85.274098 291.056984 
L 84.881871 291.912009 
L 84.072903 292.814536 
L 82.160797 293.978321 
L 80.077091 294.595839 
L 77.601158 295.759623 
L 76.228364 297.042162 
L 73.237633 299.34598 
L 71.717753 299.987249 
L 70.124331 300.201005 
L 67.158115 300.058501 
L 64.559611 298.965969 
L 62.157221 297.517176 
L 61.250196 296.400893 
L 60.343171 295.189607 
L 59.92643 294.500836 
L 59.509688 293.147046 
L 59.191004 292.577029 
L 56.200273 291.555749 
L 55.611933 291.864508 
L 54.508794 292.814536 
L 53.748855 293.313301 
L 51.469035 294.002071 
L 50.292354 294.049573 
L 49.385329 293.859567 
L 47.791907 293.550808 
L 45.487574 292.862037 
L 43.477411 292.244519 
L 42.521357 292.292021 
L 41.663361 292.577029 
L 40.78085 293.313301 
L 40.167995 293.693312 
L 39.677712 293.740814 
L 38.770687 293.313301 
L 37.61852 292.410774 
L 34.431676 289.703194 
L 33.10791 288.183149 
L 31.391917 286.021834 
L 30.681005 284.620543 
L 30.313292 283.361755 
L 30.288778 282.649234 
L 30.362321 281.889212 
L 30.019122 278.872872 
L 29.77398 277.899093 
L 29.749466 276.996566 
L 29.970094 275.215263 
L 30.337807 271.913915 
L 30.386835 271.581406 
L 30.582948 270.607627 
L 31.342888 269.016329 
L 32.323456 267.591287 
L 34.235562 265.714981 
L 35.142587 264.503695 
L 35.632871 262.769894 
L 33.818821 262.152376 
L 31.686087 261.202347 
L 29.847523 259.991061 
L 28.327643 259.088535 
L 25.606569 257.829747 
L 24.993714 257.544739 
L 24.184746 256.855968 
L 22.027497 254.528399 
L 20.973387 253.625873 
L 18.497455 252.53334 
L 17.663972 252.248332 
L 16.634376 252.224581 
L 15.678323 252.248332 
L 15.040954 252.390836 
L 14.281014 252.960853 
L 13.496561 253.222111 
L 13.128848 253.222111 
L 12.589536 253.032105 
L 12.172794 252.604592 
L 12.14828 252.248332 
L 12.344394 251.654564 
L 13.055305 250.84704 
L 13.790731 250.277023 
L 15.040954 249.778258 
L 15.506724 249.398247 
L 15.555752 248.923233 
L 15.408667 248.210712 
L 15.040954 247.118179 
L 14.599699 245.550633 
L 13.619131 242.249285 
L 13.20239 241.465511 
L 12.638564 240.942996 
L 11.55994 240.06422 
L 10.996113 239.351699 
L 10.824514 238.876685 
L 10.8 238.187914 
L 10.8 237.451642 
L 10.996113 236.69162 
L 11.952167 235.551586 
L 13.96233 233.437773 
L 14.697756 232.749003 
L 15.48221 232.345241 
L 17.369802 231.727722 
L 19.796706 230.872697 
L 21.095958 230.30268 
L 21.3411 229.97017 
L 21.316586 229.63766 
L 20.679217 228.806386 
L 19.576079 227.476346 
L 18.767111 226.288811 
L 18.620025 225.338783 
L 18.595511 224.388754 
L 18.816139 223.296222 
L 20.237962 224.174998 
L 20.973387 224.531259 
L 21.414643 224.673763 
L 22.762923 224.673763 
L 24.356345 224.602511 
L 26.636164 223.88999 
L 28.817927 223.319973 
L 29.847523 223.201219 
L 30.975175 223.177468 
L 34.063963 223.367474 
L 36.049612 223.248721 
L 38.108804 222.607452 
L 39.72674 221.966183 
L 40.633765 221.396166 
L 41.197591 220.778647 
L 41.589818 220.089877 
L 41.933017 219.282353 
L 42.423301 218.878591 
L 43.477411 218.52233 
L 44.948262 217.762308 
L 46.394599 216.764778 
L 47.693851 215.695996 
L 48.45379 214.864722 
L 48.821503 213.962195 
L 49.483386 212.44215 
L 49.998184 211.587124 
L 50.512982 211.230864 
L 50.929723 211.135861 
L 51.640635 211.135861 
L 52.425089 211.373368 
L 53.062457 211.77713 
L 54.043025 212.347147 
L 54.459766 212.370898 
L 54.999078 212.180892 
L 56.445415 211.064609 
L 57.131812 210.542093 
L 57.916266 210.233334 
L 58.921348 209.948326 
L 62.377848 209.045799 
L 64.657668 208.452031 
L 66.07949 208.119521 
L 68.212225 208.000768 
L 69.511477 207.715759 
L 72.134494 206.694479 
L 72.943463 206.266966 
L 73.482775 205.863204 
L 74.095629 205.05568 
L 74.585913 204.248156 
L 75.002654 203.773142 
L 75.541966 203.535635 
L 77.356016 202.870616 
L 78.263041 202.134344 
L 78.60624 201.564327 
L 78.826867 200.804304 
L 78.851382 200.139284 
L 78.826867 199.023001 
L 78.90041 198.31048 
L 79.48875 197.2892 
L 80.837031 195.721653 
L 81.964683 195.555398 
L 82.185311 195.531648 
L 83.754219 194.93788 
L 84.072903 194.557869 
L 84.195474 194.201608 
L 84.195474 193.631591 
L 84.195474 192.349053 
L 84.244503 191.446526 
L 84.514159 191.090266 
L 85.22507 190.496498 
L 87.161691 189.261462 
L 88.142258 188.976453 
L 89.196368 188.905201 
L 89.931794 188.952702 
L 91.329102 189.261462 
L 92.726411 189.712725 
L 93.486351 189.736476 
L 94.246291 189.522719 
L 95.202344 189.047705 
L 96.084855 188.358935 
L 97.163479 187.385156 
L 97.482163 186.648884 
L 97.898904 186.150119 
L 98.389188 186.007615 
L 98.977529 186.078867 
L 100.178724 186.577632 
L 100.840607 186.648884 
L 101.870203 186.482629 
L 103.071398 186.031366 
L 104.223565 185.200091 
L 105.400246 184.107558 
L 106.380813 182.278754 
L 106.454356 181.851242 
L 106.209214 181.399978 
L 104.542249 179.45242 
L 104.002937 178.858653 
L 103.90488 178.43114 
L 103.831338 177.837372 
L 103.929394 177.291106 
L 105.351217 173.134733 
L 105.890529 172.184705 
L 106.331785 171.68594 
L 107.042696 171.258427 
L 109.788285 169.66713 
L 110.327597 169.025861 
L 110.572739 168.598348 
L 110.670796 167.814575 
L 110.670796 167.125804 
L 110.52371 165.62951 
L 110.52371 164.038213 
L 110.719824 162.898179 
L 111.185594 162.019403 
L 111.45525 161.663142 
L 112.019076 161.045624 
L 112.729987 160.404355 
L 113.024157 160.166848 
L 113.39187 159.169318 
L 114.078268 157.340514 
L 114.593065 156.271732 
L 114.91175 155.630463 
L 115.377519 155.226701 
L 116.603229 154.51418 
L 119.471389 153.4929 
L 120.206814 153.350395 
L 122.118921 153.207891 
L 122.658233 153.065387 
L 123.369144 152.542871 
L 123.93297 151.759098 
L 124.496797 150.904073 
L 124.889024 150.500311 
L 125.648964 150.14405 
L 126.899187 149.78779 
L 127.85524 149.692787 
L 130.968542 149.645285 
L 134.326986 150.286554 
L 135.724294 150.357806 
L 137.611887 150.239053 
L 138.39634 150.001546 
L 139.107252 149.360277 
L 140.014277 148.529002 
L 140.67616 148.291495 
L 141.877355 148.267744 
L 142.392153 148.291495 
L 143.274664 148.576504 
L 144.034603 149.004016 
L 144.647458 149.051518 
L 145.382884 148.814011 
L 146.093795 148.719008 
L 148.986469 149.360277 
L 149.795437 149.692787 
L 150.261207 150.025297 
L 150.972118 150.619064 
L 151.584973 151.070328 
L 151.9772 151.14158 
L 152.369427 151.046577 
L 153.006796 150.619064 
L 153.570622 149.859042 
L 154.330562 148.909013 
L 155.458214 146.890204 
L 155.948498 145.370158 
L 156.267182 144.776391 
L 156.659409 144.277626 
L 157.443863 143.778861 
L 157.83609 143.446351 
L 158.056718 142.876334 
L 158.522488 142.116312 
L 159.135342 141.498793 
L 159.821739 141.071281 
L 160.900364 140.596267 
L 162.05253 140.145003 
L 164.724577 139.527485 
L 166.538627 139.004969 
L 167.298566 138.648709 
L 167.715307 138.197445 
L 168.916503 135.727372 
L 169.676442 134.824845 
L 170.166726 134.112324 
L 170.411868 133.376052 
L 170.534439 132.426024 
L 170.607981 129.742194 
L 170.779581 128.340903 
L 171.24535 127.177118 
L 172.446545 124.445787 
L 172.912315 123.590762 
L 173.770312 122.450728 
L 174.57928 121.52445 
L 176.564929 123.139498 
L 179.506631 126.155838 
L 183.183759 129.860948 
L 185.365522 132.117265 
L 186.517688 133.589809 
L 187.326657 135.038602 
L 188.797508 137.366171 
L 189.459391 139.69374 
L 195.171196 139.931247 
L 196.764618 141.261286 
L 199.926948 142.73383 
L 202.598995 143.707609 
L 203.309906 144.230125 
L 203.849218 144.847643 
L 203.922761 145.393909 
L 203.456991 146.510192 
L 203.236364 147.935235 
L 202.942193 149.835291 
L 203.162821 151.806599 
L 203.211849 153.991664 
L 202.917679 156.010474 
L 203.358935 156.437987 
L 206.66835 156.627993 
L 207.746974 156.271732 
L 208.703027 155.036695 
L 210.320964 152.685376 
L 211.546673 152.566622 
L 214.194205 152.851631 
L 216.204368 152.875381 
L 217.773276 152.804129 
L 222.18583 151.426588 
L 227.235752 152.400367 
L 227.848607 154.276673 
L 228.461461 157.008004 
L 229.196887 158.456797 
L 230.790309 161.116876 
L 233.168185 164.750734 
L 237.482682 169.548376 
L 238.58582 170.997169 
L 243.219002 169.33462 
L 247.656069 168.527096 
L 248.685665 167.220807 
L 250.303602 165.201997 
L 250.965485 164.27572 
L 251.847995 164.109465 
L 253.637531 164.180717 
L 254.985811 164.394473 
L 255.255467 165.083244 
L 255.647694 166.745793 
L 256.628262 169.00211 
L 257.363687 169.643379 
L 259.07968 170.189645 
L 260.427961 170.165895 
L 261.1879 170.118393 
L 262.070411 169.66713 
L 262.70778 168.764603 
L 263.100007 166.769544 
L 263.737376 165.867017 
L 264.644401 165.154496 
L 265.57594 164.916989 
L 266.92422 164.893238 
L 270.08655 165.415754 
L 271.827057 165.392003 
L 273.395965 165.320751 
L 275.406129 164.489476 
L 275.577728 164.418224 
L 277.024065 163.824456 
L 277.342749 163.183187 
L 277.269207 162.446915 
L 276.87698 160.166848 
L 276.533781 159.050565 
L 276.11704 158.171788 
L 275.259043 156.984253 
L 275.234529 156.034225 
L 275.406129 154.799188 
L 276.043497 152.899132 
L 276.656352 151.47409 
L 276.729895 150.690316 
L 276.729895 149.954044 
L 276.362182 149.14652 
L 274.915845 146.628946 
L 274.401047 145.678918 
L 274.719731 143.090091 
L 276.680866 141.617547 
L 279.156799 138.743712 
L 279.720625 137.579927 
L 279.720625 136.6774 
L 279.818682 135.513616 
L 280.186395 134.872347 
L 280.970849 134.254828 
L 281.534675 134.159826 
L 281.85336 131.784755 
L 283.814494 131.713503 
L 286.927796 130.573469 
L 288.276076 130.027203 
L 293.031829 128.032144 
L 295.924503 127.24837 
L 297.542439 126.22709 
L 301.170539 123.970773 
L 302.322705 123.709515 
L 304.921209 123.044496 
L 307.372628 118.341856 
L 308.79445 116.014287 
L 312.324493 116.869312 
L 315.805508 116.821811 
L 319.605207 116.275545 
L 324.48353 115.681777 
L 327.155576 113.947975 
L 329.974708 111.169143 
L 331.077846 111.050389 
L 336.593538 111.477902 
L 343.334939 115.206763 
L 345.467673 116.275545 
L 348.262291 117.676836 
L 350.664681 119.48189 
L 353.042557 121.381946 
L 357.822823 125.110807 
L 360.127157 126.060835 
L 365.079023 127.438376 
L 366.623416 127.747135 
L 368.339409 130.217208 
L 369.761232 132.354772 
L 372.948076 135.133604 
L 375.080811 137.199916 
L 375.644637 140.596267 
L 374.002186 143.992617 
L 374.026701 145.132651 
L 374.78664 147.270215 
L 376.01235 149.716537 
L 380.596503 152.186611 
L 382.312496 153.564152 
L 383.489177 156.057976 
L 385.03357 157.934281 
L 385.523854 158.385545 
L 386.725049 158.314293 
L 388.95584 158.741805 
L 389.691266 159.549329 
L 390.524748 160.665613 
L 390.76989 163.040683 
L 390.696347 164.156966 
L 390.451206 165.392003 
L 388.514585 168.028331 
L 387.877216 169.263368 
L 387.877216 169.857135 
L 388.563613 170.617158 
L 389.617723 171.329679 
L 390.255092 170.997169 
L 391.995599 169.643379 
L 392.559426 169.382121 
L 395.893355 168.693351 
L 397.143578 168.503345 
L 398.124146 168.503345 
L 398.638944 168.835855 
L 400.305909 169.928388 
L 401.212933 170.735911 
L 403.12504 171.472183 
L 404.669434 172.303458 
L 406.311884 173.633498 
L 407.684679 174.963537 
L 411.386321 177.457361 
L 412.759115 178.787401 
L 413.66614 179.78493 
L 413.764197 180.354947 
L 417.88258 180.212443 
L 420.137885 180.259944 
L 421.682279 180.164941 
L 425.653577 179.42867 
L 426.094833 179.499922 
L 426.560602 179.666177 
L 427.663741 180.497451 
L 428.472709 180.829961 
L 429.208134 180.829961 
L 432.34595 179.167412 
L 433.498117 178.383639 
L 433.767773 177.528613 
L 434.184514 174.702279 
L 434.527713 173.918506 
L 434.870911 173.348489 
L 437.32233 171.68594 
L 438.572554 170.807164 
L 440.77883 170.522155 
L 445.313955 170.118393 
L 448.794969 169.548376 
L 449.97165 169.548376 
L 451.148331 169.69088 
L 453.550721 170.783413 
L 455.389285 171.970948 
L 458.723215 174.916036 
L 459.090928 175.106041 
L 459.801839 174.654778 
L 462.694513 172.730971 
L 464.14085 171.852195 
L 464.876276 171.662189 
L 465.513644 171.662189 
L 465.979414 172.160954 
L 467.572836 174.892285 
L 469.4114 177.1011 
L 470.563567 177.813622 
L 473.774925 178.122381 
L 475.098691 178.336137 
L 475.245776 178.359888 
L 475.956688 178.621146 
L 477.795252 179.45242 
L 480.565355 180.948715 
L 481.570437 181.732488 
L 483.433515 184.107558 
L 485.39465 187.337654 
L 486.130075 188.097677 
L 487.159671 188.786447 
L 487.993153 189.118957 
L 490.714228 189.427716 
L 493.999129 189.641473 
L 494.734555 189.807728 
L 495.568037 190.401495 
L 499.294193 194.177857 
L 500.201218 195.294141 
L 500.765045 196.861687 
L 500.985672 198.666741 
L 500.716016 199.783024 
L 500.201218 201.849335 
L 500.397332 202.443103 
L 500.863101 202.538106 
L 501.402413 202.870616 
L 502.407495 203.36938 
L 503.437091 204.058151 
L 504.07446 204.651918 
L 505.005999 206.528224 
L 505.104056 206.789482 
L 505.569825 207.193244 
L 506.133651 207.288247 
L 506.672964 207.264496 
L 509.492095 206.38572 
L 512.458312 204.533165 
L 513.880134 203.70189 
L 514.591046 203.70189 
L 515.522585 204.0344 
L 517.165035 205.126933 
L 518.562344 205.791952 
L 519.910624 205.863204 
L 521.479532 205.839454 
L 525.009575 205.36444 
L 525.745001 205.435692 
L 526.848139 205.673199 
L 527.951277 206.195714 
L 531.064579 207.525754 
L 531.898061 208.024519 
L 533.0012 209.212054 
L 535.86936 212.10964 
L 537.707924 213.10717 
L 538.639463 213.439679 
L 540.183856 213.677186 
L 542.292076 213.748439 
L 543.027502 214.152201 
L 543.395215 214.579713 
L 543.493272 215.102229 
L 542.978474 217.16854 
L 543.07653 217.691056 
L 543.5423 218.379826 
L 545.380864 219.733616 
L 546.484002 220.398636 
L 547.685197 220.802398 
L 548.322566 220.897401 
L 549.229591 221.301163 
L 550.063074 221.89493 
L 551.999694 224.032494 
L 552.293865 224.626262 
L 552.244836 225.267531 
L 549.842446 228.640131 
L 549.229591 229.946419 
L 549.327648 230.63519 
L 549.597304 231.490215 
L 549.989531 232.083983 
L 550.6269 232.772753 
L 552.465464 233.604028 
L 561.094457 237.190385 
L 562.565309 238.116662 
L 563.300734 239.232945 
L 563.692961 240.087971 
L 564.6245 242.059279 
L 565.923752 245.051868 
L 566.046323 245.811891 
L 565.605068 247.711947 
L 564.379358 251.51206 
L 563.864561 252.818349 
L 561.045429 257.710994 
L 564.256787 259.302291 
L 568.571284 261.226098 
L 569.674423 261.202347 
L 570.483391 260.846087 
L 571.758129 259.896059 
L 572.46904 259.872308 
L 573.032866 260.038563 
L 573.596693 260.727333 
L 574.528232 262.532387 
L 574.699831 262.769894 
L 575.533313 263.624919 
L 579.308498 266.166245 
L 581.882488 267.591287 
L 584.53002 268.422562 
L 585.461559 268.493814 
L 586.442126 268.137553 
L 587.447208 267.092522 
L 588.256176 266.403752 
L 589.065144 266.380001 
L 589.62897 266.807514 
L 591.565591 269.277587 
L 593.134499 270.631377 
L 596.370372 273.006448 
L 600.488755 275.619025 
L 603.896227 277.47158 
L 608.529408 279.252883 
L 610.466029 280.274164 
L 612.378135 281.794209 
L 615.074696 284.430537 
L 615.883664 284.929302 
L 618.825367 285.499319 
L 619.634335 285.499319 
L 620.271704 285.21431 
L 621.448384 284.264282 
L 622.18381 284.074277 
L 623.090835 284.240531 
L 626.841506 285.309313 
L 627.74853 285.641823 
L 628.312357 286.069336 
L 629.243896 287.446877 
L 629.783208 288.040644 
L 630.61669 288.539409 
L 644.663319 293.408304 
L 651.993061 295.545867 
L 653.807111 295.617119 
L 655.081848 295.355861 
L 656.08693 294.904598 
L 657.337153 293.764564 
L 659.322803 291.93576 
L 661.749707 289.679443 
L 664.470782 287.399375 
L 665.010094 287.328123 
L 665.377807 287.304372 
L 667.486027 287.708134 
L 673.688116 289.441936 
L 682.219053 292.26827 
L 683.763446 292.95704 
L 685.77361 293.859567 
L 686.803206 294.382083 
L 687.514117 294.524587 
L 689.450738 294.595839 
L 695.039972 294.667091 
L 696.143111 294.64334 
L 697.148192 294.904598 
L 698.888699 295.902128 
L 702.663884 298.01594 
L 709.993626 301.982308 
L 713.670754 303.573605 
L 715.75446 303.811113 
L 719.946386 303.929866 
L 723.868655 303.977367 
L 724.873737 303.787362 
L 725.413049 303.431101 
L 725.584649 303.098591 
L 726.025904 301.6973 
L 726.369102 300.414762 
L 726.540702 300.177255 
L 727.34967 298.847215 
L 728.158638 297.802184 
L 729.16372 297.374671 
L 730.438457 297.089663 
L 732.448621 297.255918 
L 735.19421 298.34845 
L 736.027692 298.965969 
L 736.199291 299.108473 
L 736.934717 299.868495 
L 738.013341 302.481073 
" clip-path="url(#p970eae2d0b)"/>
   </g>
  </g>
 </g>
 <defs>
  <clipPath id="p970eae2d0b">
   <rect x="10.8" y="111.050389" width="1058.4" height="857.899221"/>
  </clipPath>
 </defs>
</svg>
