<?xml version="1.0" encoding="utf-8" standalone="no"?>
<!DOCTYPE svg PUBLIC "-//W3C//DTD SVG 1.1//EN"
  "http://www.w3.org/Graphics/SVG/1.1/DTD/svg11.dtd">
<svg xmlns:xlink="http://www.w3.org/1999/xlink" width="1080pt" height="1080pt" viewBox="0 0 1080 1080" xmlns="http://www.w3.org/2000/svg" version="1.1">
 <metadata>
  <rdf:RDF xmlns:dc="http://purl.org/dc/elements/1.1/" xmlns:cc="http://creativecommons.org/ns#" xmlns:rdf="http://www.w3.org/1999/02/22-rdf-syntax-ns#">
   <cc:Work>
    <dc:type rdf:resource="http://purl.org/dc/dcmitype/StillImage"/>
    <dc:date>2022-07-01T13:43:32.188315</dc:date>
    <dc:format>image/svg+xml</dc:format>
    <dc:creator>
     <cc:Agent>
      <dc:title>Matplotlib v3.5.1, https://matplotlib.org/</dc:title>
     </cc:Agent>
    </dc:creator>
   </cc:Work>
  </rdf:RDF>
 </metadata>
 <defs>
  <style type="text/css">*{stroke-linejoin: round; stroke-linecap: butt}</style>
 </defs>
 <g id="figure_1">
  <g id="patch_1">
   <path d="M 0 1080 
L 1080 1080 
L 1080 0 
L 0 0 
L 0 1080 
z
" style="fill: none; opacity: 0"/>
  </g>
  <g id="axes_1">
   <g id="PatchCollection_1">
    <path d="M 1069.2 678.961986 
L 1066.712492 680.066586 
L 1061.495636 681.372022 
L 1054.965928 683.012185 
L 1050.474594 684.886657 
L 1047.434307 685.42222 
L 1045.223189 685.054021 
L 1038.140702 682.945239 
L 1036.378717 683.279967 
L 1033.234784 685.589584 
L 1029.676266 687.731838 
L 1025.979553 689.037274 
L 1023.146558 691.012164 
L 1018.724322 695.196254 
L 1014.613024 698.10838 
L 1011.814578 700.719252 
L 1009.050681 702.560252 
L 1005.941296 703.832215 
L 1003.419239 704.367778 
L 1000.482598 704.367778 
L 998.340578 703.832215 
L 996.198557 703.062342 
L 993.365562 701.321761 
L 989.945239 699.982852 
L 987.077695 699.715071 
L 985.488454 700.183689 
L 983.484629 701.689961 
L 981.653547 703.966106 
L 980.617085 705.104178 
L 979.304234 705.37196 
L 977.334957 704.869869 
L 974.778352 703.89916 
L 971.772613 703.229706 
L 969.216008 703.062342 
L 966.590305 703.229706 
L 963.135433 703.664851 
L 960.164244 703.330124 
L 956.916664 702.560252 
L 955.223777 702.727615 
L 953.945474 703.497488 
L 952.148941 705.539324 
L 950.317859 706.443087 
L 948.763166 706.376141 
L 946.413853 704.903342 
L 941.887971 701.823852 
L 935.772848 698.309217 
L 931.972489 696.267381 
L 930.659638 695.76529 
L 928.655812 695.497508 
L 926.341048 695.229727 
L 923.715345 694.459854 
L 920.536863 693.957763 
L 916.84015 693.355254 
L 914.179899 693.455673 
L 912.487012 693.689982 
L 911.139612 693.187891 
L 909.82676 691.681619 
L 907.926581 689.639783 
L 905.577268 686.024729 
L 904.748099 684.786239 
L 903.607991 683.614694 
L 901.984201 682.945239 
L 899.842181 682.20884 
L 897.492868 681.137713 
L 894.279837 680.100058 
L 892.58695 679.296713 
L 890.824965 677.455714 
L 889.33937 676.317641 
L 888.233811 676.284169 
L 886.817314 677.054041 
L 884.640744 678.593786 
L 882.567821 680.568676 
L 881.600457 682.543567 
L 881.013129 684.351093 
L 880.460349 685.79042 
L 879.423888 686.794602 
L 878.145585 687.731838 
L 876.521795 688.36782 
L 874.794359 689.037274 
L 873.550606 690.443128 
L 872.272303 692.518437 
L 870.855805 693.656509 
L 868.195554 694.593745 
L 864.982523 695.564454 
L 862.184077 696.802944 
L 860.352995 697.572817 
L 858.798303 697.505871 
L 856.863574 697.003781 
L 854.790651 695.999599 
L 852.337692 694.426381 
L 849.919282 693.388727 
L 846.602605 692.786218 
L 843.21683 692.3176 
L 840.245641 691.413837 
L 837.412646 690.041455 
L 834.786943 687.865729 
L 832.230338 685.79042 
L 828.67182 682.242312 
L 826.287958 679.865749 
L 824.249584 676.92015 
L 822.073015 674.94526 
L 821.140199 674.57706 
L 819.965543 675.079151 
L 818.790886 675.480823 
L 817.132548 675.547769 
L 816.096086 675.849023 
L 815.128722 676.685841 
L 814.09226 678.627259 
L 813.090348 679.765331 
L 810.810132 681.305076 
L 808.115332 682.911767 
L 806.698835 683.547748 
L 805.420532 683.547748 
L 803.796742 682.844821 
L 802.933024 682.744403 
L 802.24205 683.045658 
L 802.069306 684.083312 
L 801.862014 685.656529 
L 800.791004 687.062384 
L 799.82364 687.832256 
L 798.165301 688.166983 
L 795.401404 688.736019 
L 792.499311 689.874092 
L 790.011803 691.112582 
L 789.28628 692.049818 
L 789.217183 692.987055 
L 790.219096 694.694163 
L 791.324655 696.602108 
L 791.566496 697.405453 
L 791.151911 698.242271 
L 790.011803 698.945198 
L 786.626029 700.384525 
L 783.482096 701.589543 
L 782.54928 702.359415 
L 782.583829 703.196233 
L 783.482096 704.233888 
L 785.036788 705.706687 
L 786.487834 707.179487 
L 787.835234 709.55605 
L 789.009891 711.966085 
L 789.977255 714.141812 
L 790.184547 715.648084 
L 790.11545 718.526738 
L 789.700865 721.238028 
L 789.148086 723.145973 
L 788.077075 724.417936 
L 786.522383 725.221281 
L 784.069424 725.656427 
L 781.098234 725.957681 
L 778.818019 726.827972 
L 776.814193 728.066462 
L 775.708634 729.238007 
L 775.259501 731.11248 
L 774.775819 734.660588 
L 774.223039 737.974387 
L 774.050295 740.183586 
L 774.223039 742.024585 
L 775.01766 743.095712 
L 775.777731 744.066421 
L 775.881378 745.204494 
L 775.121306 747.179384 
L 773.186577 750.995274 
L 771.77008 753.773509 
L 771.597336 755.614509 
L 772.184665 758.09149 
L 772.806542 761.271398 
L 772.599249 763.078925 
L 770.940911 764.852979 
L 768.453403 767.028705 
L 765.551311 769.438741 
L 761.232721 772.150031 
L 757.432362 774.560067 
L 754.495721 776.93663 
L 752.215505 779.514029 
L 750.626264 781.689755 
L 748.726085 783.497282 
L 747.067746 785.472173 
L 745.962187 787.78179 
L 745.029372 789.221117 
L 743.19829 790.894753 
L 742.541864 792.267134 
L 742.403669 793.672988 
L 742.749156 795.54746 
L 743.336484 797.02026 
L 743.958361 798.225278 
L 744.787531 799.497241 
L 745.202115 800.869623 
L 745.06392 801.806859 
L 744.2693 802.777567 
L 742.472766 804.919821 
L 741.367207 807.028602 
L 740.538038 809.405165 
L 739.67432 813.120637 
L 738.534213 815.095527 
L 736.944971 816.836109 
L 734.802951 817.371672 
L 732.453638 817.371672 
L 730.726202 817.137363 
L 729.447899 816.501381 
L 727.927756 814.660382 
L 725.267504 811.647837 
L 722.296315 809.539056 
L 717.28675 807.095548 
L 714.246463 805.120658 
L 711.931699 804.585094 
L 708.580473 804.417731 
L 703.121776 804.551621 
L 700.530622 804.953294 
L 700.876109 807.430275 
L 700.910658 809.806838 
L 700.288781 811.614365 
L 699.045027 813.221055 
L 697.283042 815.965818 
L 695.45196 817.84029 
L 693.379037 818.844472 
L 689.993263 820.016017 
L 686.607488 822.292162 
L 682.219801 824.635252 
L 676.03558 826.844451 
L 668.193021 830.52645 
L 661.870606 834.241922 
L 659.141257 836.785848 
L 658.139344 840.434374 
L 658.933964 845.154028 
L 659.279452 849.605899 
L 658.51938 853.923879 
L 656.239164 857.036842 
L 651.747831 860.618423 
L 646.945559 863.697913 
L 643.317944 866.041003 
L 640.623143 867.413385 
L 638.066538 867.882003 
L 634.369825 867.84853 
L 630.223979 867.614221 
L 625.629 866.911294 
L 621.275861 866.141421 
L 617.579148 865.003349 
L 616.508138 863.932222 
L 614.607958 860.986623 
L 611.32583 855.53057 
L 609.183809 851.948989 
L 606.143522 849.304644 
L 602.619553 847.564063 
L 601.652189 847.363227 
L 599.233778 846.827663 
L 595.398871 846.760718 
L 592.18584 845.9239 
L 589.041906 843.94901 
L 583.790501 840.50132 
L 579.160973 837.856975 
L 575.533357 836.651957 
L 571.491157 836.250285 
L 568.278126 835.915558 
L 566.516142 835.112212 
L 565.47968 833.505522 
L 565.341485 830.593395 
L 567.414408 826.275415 
L 569.660075 822.894671 
L 570.489244 820.250326 
L 569.867367 816.200127 
L 568.658162 812.752437 
L 565.445131 807.396802 
L 557.913511 810.07462 
L 551.487449 811.949092 
L 548.930844 813.020219 
L 545.579618 813.656201 
L 540.120921 814.091346 
L 534.869515 814.559964 
L 529.134428 815.530673 
L 525.264971 815.965818 
L 520.911833 816.769163 
L 518.044289 817.773345 
L 514.623966 819.413508 
L 509.199817 823.229398 
L 507.265089 824.869561 
L 506.677761 826.476251 
L 507.368735 828.149887 
L 509.061622 831.296323 
L 512.309202 835.21263 
L 513.311115 836.953212 
L 513.518407 839.02852 
L 513.483858 842.47621 
L 513.276566 844.484573 
L 511.894617 846.693773 
L 509.683499 849.505481 
L 506.332274 852.183298 
L 503.119243 853.756516 
L 500.942673 854.258607 
L 497.971484 854.05777 
L 495.449427 853.321371 
L 492.581883 852.116353 
L 487.01954 850.308826 
L 483.115535 849.204226 
L 480.835319 849.271172 
L 477.933227 850.041044 
L 477.069509 850.10799 
L 475.203878 850.208408 
L 471.92175 849.304644 
L 469.054206 847.865318 
L 466.912185 845.723064 
L 465.288396 842.041065 
L 463.215472 836.518066 
L 461.038903 833.572467 
L 457.34219 830.459505 
L 454.820134 828.785869 
L 452.021688 828.049469 
L 450.086959 827.915578 
L 447.253964 830.426032 
L 445.422882 832.233559 
L 442.728082 833.371631 
L 438.893174 835.279576 
L 435.818339 837.522248 
L 431.534297 841.572447 
L 430.566933 840.702156 
L 429.530472 839.530611 
L 428.839497 839.02852 
L 428.010328 838.626848 
L 425.073687 838.593375 
L 424.17542 838.29212 
L 423.622641 837.354884 
L 423.10441 835.112212 
L 422.275241 833.706358 
L 421.722461 832.903013 
L 420.271415 831.697995 
L 417.887553 830.660341 
L 415.089107 830.024359 
L 413.914451 829.354905 
L 413.67261 828.685451 
L 413.707158 827.547378 
L 413.879902 824.869561 
L 413.534415 820.953253 
L 413.223476 817.672927 
L 413.223476 816.936527 
L 413.327123 816.200127 
L 413.914451 815.062055 
L 414.950912 813.857037 
L 415.469143 813.120637 
L 416.09102 812.350765 
L 417.092933 810.877965 
L 417.611164 809.505584 
L 417.922102 808.400984 
L 418.336687 807.262912 
L 419.131307 805.288021 
L 419.995025 803.882167 
L 420.789646 803.145767 
L 421.549718 802.677149 
L 423.484446 801.940749 
L 425.937405 800.635313 
L 426.282892 800.166695 
L 426.282892 799.497241 
L 426.213795 798.928205 
L 425.384625 796.819424 
L 424.071774 794.007715 
L 422.413436 791.765043 
L 421.48062 790.526553 
L 420.513256 789.087226 
L 418.267589 786.777609 
L 416.505605 784.970082 
L 415.02001 784.534936 
L 414.190841 784.668827 
L 413.223476 785.8069 
L 412.221564 788.283881 
L 411.876076 789.120699 
L 410.770517 790.49308 
L 409.181276 791.262953 
L 405.691856 792.300607 
L 403.066153 792.83617 
L 400.233158 793.873825 
L 398.367527 794.67717 
L 396.67464 794.811061 
L 393.150671 794.844533 
L 390.939553 794.811061 
L 389.453958 794.30897 
L 388.452045 793.505625 
L 386.69006 791.831989 
L 384.444394 790.091408 
L 383.546127 789.823626 
L 381.991435 789.656262 
L 380.471291 789.823626 
L 379.400281 790.526553 
L 377.327358 793.037007 
L 375.807214 795.078842 
L 375.63447 795.714824 
L 375.703568 797.02026 
L 375.841763 798.760841 
L 375.807214 800.032805 
L 375.772665 801.505604 
L 375.599922 803.145767 
L 375.288983 805.221076 
L 374.56346 806.827766 
L 373.561547 808.099729 
L 372.179598 808.434457 
L 371.315881 808.467929 
L 370.210322 808.367511 
L 368.828373 808.166675 
L 367.031839 808.200148 
L 366.237219 808.367511 
L 364.820721 808.668766 
L 363.50787 808.869602 
L 362.747798 808.869602 
L 361.676788 807.798475 
L 359.362024 804.919821 
L 356.529029 801.873804 
L 354.041521 799.229459 
L 353.177803 798.894732 
L 352.763219 798.961678 
L 351.070331 799.999332 
L 349.619285 801.304768 
L 348.928311 802.509786 
L 348.064593 804.953294 
L 346.440803 807.229439 
L 344.678818 808.735711 
L 343.055029 809.70642 
L 341.189398 810.108092 
L 339.841998 810.07462 
L 338.356403 809.672947 
L 336.732613 809.371693 
L 334.763336 809.271275 
L 331.135721 809.371693 
L 326.851679 809.33822 
L 325.74612 809.472111 
L 324.744208 809.806838 
L 323.638649 810.677129 
L 322.947674 812.317292 
L 321.911213 813.354946 
L 319.976484 814.493018 
L 317.696269 815.363309 
L 315.588797 815.564145 
L 314.586884 815.329836 
L 314.068654 814.995109 
L 312.54851 813.421892 
L 311.546597 812.216874 
L 310.959269 810.911438 
L 310.751976 809.773365 
L 310.786525 805.689694 
L 310.613782 804.953294 
L 309.750064 803.748276 
L 308.402664 803.346604 
L 306.951617 802.877986 
L 303.565843 802.509786 
L 301.907504 802.175058 
L 300.318263 801.237822 
L 298.832669 799.765023 
L 291.439243 792.233661 
L 290.299135 790.392662 
L 288.640796 787.04539 
L 287.155202 784.501464 
L 284.633145 780.618629 
L 282.767514 778.91152 
L 281.040078 776.769266 
L 280.107263 775.028685 
L 279.692678 773.020322 
L 279.208996 771.413631 
L 277.723401 768.267196 
L 275.995965 766.560087 
L 274.752212 765.555906 
L 272.299252 763.748379 
L 271.470083 761.940852 
L 271.159145 759.965962 
L 270.813658 759.396926 
L 270.329976 759.396926 
L 269.39716 759.865544 
L 266.598714 761.405289 
L 265.251314 761.873907 
L 262.314673 761.840434 
L 260.276298 761.639598 
L 258.687057 760.501525 
L 256.959621 758.359271 
L 255.957709 755.88229 
L 254.126626 751.999455 
L 253.642944 749.388583 
L 252.848324 744.970185 
L 252.364642 743.664749 
L 251.60457 743.396967 
L 250.775401 743.396967 
L 248.149698 744.032948 
L 246.042226 744.501567 
L 244.971216 744.200312 
L 243.554718 743.363494 
L 240.894467 741.120822 
L 239.132482 739.380241 
L 238.476057 738.007859 
L 237.992375 736.133387 
L 237.335949 734.894897 
L 236.50678 734.158497 
L 235.43577 733.957661 
L 233.570139 733.790297 
L 231.63541 734.158497 
L 228.767867 735.363515 
L 224.760215 737.204514 
L 221.719928 738.643841 
L 219.439713 739.581077 
L 215.984841 740.284004 
L 214.257405 740.284004 
L 213.531882 740.150113 
L 212.426323 740.049695 
L 211.320764 739.815386 
L 209.80062 739.447186 
L 208.280477 738.777732 
L 206.03481 737.137569 
L 204.272825 736.200333 
L 202.925425 735.966024 
L 201.681671 735.932551 
L 199.988784 736.16686 
L 197.190338 736.869787 
L 195.25561 737.003678 
L 193.35543 736.602005 
L 192.146225 736.233805 
L 190.729727 735.330042 
L 187.96583 732.953479 
L 185.996553 731.514152 
L 185.029189 730.945116 
L 183.785435 730.074825 
L 182.472584 729.371898 
L 180.572404 727.932571 
L 177.739409 725.689899 
L 176.253814 724.551827 
L 175.666486 723.648064 
L 174.664573 721.673173 
L 173.524465 719.932592 
L 172.038871 718.125065 
L 171.002409 717.622975 
L 168.411255 717.622975 
L 166.13104 717.355193 
L 163.194399 716.652266 
L 161.605157 715.648084 
L 160.292306 714.007921 
L 159.877722 712.869849 
L 159.877722 711.966085 
L 160.154111 710.024668 
L 160.050465 709.254795 
L 159.635881 707.915886 
L 158.668516 704.568615 
L 158.150286 703.095815 
L 157.424763 701.957743 
L 155.662778 700.451471 
L 154.004439 698.978671 
L 152.933429 697.572817 
L 152.518844 695.932654 
L 152.553393 694.459854 
L 153.140721 692.083291 
L 153.244368 690.175346 
L 152.864332 688.36782 
L 150.515019 684.92013 
L 148.994875 680.401313 
L 148.614839 677.28835 
L 148.614839 674.777896 
L 149.582203 671.430625 
L 151.793321 668.083353 
L 156.111911 663.86579 
L 157.459311 660.987137 
L 157.459311 659.447392 
L 156.664691 658.510156 
L 155.248193 656.970411 
L 154.695414 656.033175 
L 154.488121 654.928575 
L 154.79906 653.455775 
L 156.284655 650.811431 
L 158.081188 646.225668 
L 158.806711 643.614796 
L 159.152198 641.204761 
L 159.048552 639.296816 
L 158.461224 637.556235 
L 155.87007 634.878417 
L 155.144547 633.606454 
L 154.488121 631.899345 
L 153.969891 629.054164 
L 152.622491 627.916092 
L 151.344188 626.878438 
L 149.789496 626.008147 
L 148.131157 625.070911 
L 144.918126 622.96213 
L 142.085131 621.154603 
L 139.908562 619.581385 
L 135.417229 616.301059 
L 130.753152 613.121151 
L 128.058352 611.347097 
L 126.330916 610.142079 
L 123.048787 607.966353 
L 119.939403 605.790626 
L 116.311787 603.213227 
L 113.133305 600.736246 
L 109.747531 598.593992 
L 107.950997 597.255083 
L 105.636233 595.882702 
L 103.390566 594.276011 
L 102.388654 593.506139 
L 100.833961 592.301121 
L 98.381002 590.292758 
L 95.755299 589.322049 
L 93.751474 588.619122 
L 92.265879 589.188158 
L 90.434797 590.527067 
L 88.396422 592.468484 
L 86.668986 594.543793 
L 85.563427 596.250901 
L 83.87054 597.154665 
L 81.348484 597.288556 
L 79.724694 597.054247 
L 77.306284 596.71952 
L 75.544299 596.451738 
L 73.36773 596.050065 
L 71.640294 595.715338 
L 70.085601 595.347138 
L 68.980042 594.677684 
L 68.150873 594.476847 
L 67.494448 594.51032 
L 67.079863 594.711156 
L 66.457986 595.112829 
L 65.974304 595.581447 
L 65.490622 596.35132 
L 64.45416 597.723701 
L 62.795822 599.5647 
L 61.379324 600.3011 
L 60.377411 600.434991 
L 58.235391 599.9329 
L 56.818893 598.627464 
L 55.609688 597.656756 
L 54.089545 596.585629 
L 52.845791 595.949647 
L 51.636586 595.447556 
L 49.943698 594.309484 
L 48.699945 593.104466 
L 47.939873 591.966394 
L 47.041606 590.962212 
L 46.488827 590.69443 
L 46.005144 590.660958 
L 45.175975 590.928739 
L 44.346806 591.263467 
L 43.517637 592.100285 
L 42.688467 593.40572 
L 41.375616 595.61492 
L 40.615544 596.752992 
L 39.786375 597.757174 
L 38.991755 598.024955 
L 38.231683 598.024955 
L 37.50616 592.501957 
L 33.98219 586.142141 
L 28.419847 579.548016 
L 21.959236 573.857654 
L 15.567723 569.573146 
L 12.631082 566.527128 
L 11.560072 565.322111 
L 11.07639 564.619184 
L 10.834549 563.648475 
L 10.8 562.677766 
L 10.869097 561.238439 
L 11.283682 559.497858 
L 12.1474 557.020877 
L 13.183862 554.309587 
L 14.220323 551.899551 
L 14.738554 551.129679 
L 15.498626 550.694533 
L 16.74238 550.292861 
L 18.124328 550.058552 
L 20.197252 549.991606 
L 21.613749 549.824243 
L 22.857503 549.322152 
L 23.859416 548.719643 
L 24.861329 547.882825 
L 26.105082 546.71128 
L 26.796057 546.242662 
L 28.661688 545.640153 
L 30.078185 545.372371 
L 30.769159 545.405844 
L 31.28739 545.673626 
L 31.771072 546.142244 
L 32.807534 547.380734 
L 33.46396 548.016716 
L 33.809447 548.31797 
L 34.327677 548.418388 
L 34.673165 548.418388 
L 35.087749 548.31797 
L 35.60598 547.916298 
L 36.435149 547.179898 
L 36.711539 546.845171 
L 37.540708 545.071117 
L 38.093488 544.133881 
L 38.784462 543.364008 
L 40.788288 541.857736 
L 43.241247 540.251045 
L 45.072329 539.213391 
L 47.145252 538.108791 
L 49.494565 536.870301 
L 51.636586 536.066956 
L 52.534852 535.531392 
L 53.329473 534.627629 
L 53.433119 531.916339 
L 53.225827 527.12974 
L 53.260375 525.15485 
L 54.400483 523.213432 
L 56.680699 521.071178 
L 58.062647 518.025161 
L 58.062647 516.28458 
L 57.648063 513.004253 
L 57.026186 510.828527 
L 57.475319 509.087946 
L 59.755535 506.711383 
L 61.828458 501.958257 
L 62.519432 498.711403 
L 63.694088 496.301368 
L 69.498273 488.870424 
L 71.778489 486.694698 
L 74.473289 484.987589 
L 78.308197 484.150771 
L 90.296602 479.6989 
L 97.482735 478.694718 
L 108.538325 478.159155 
L 119.110233 476.518992 
L 133.897085 473.640338 
L 134.518962 473.037829 
L 135.071741 472.468793 
L 135.417229 471.933229 
L 135.866362 471.096411 
L 136.211849 470.46043 
L 136.799177 469.657085 
L 138.112029 468.385121 
L 139.597624 467.113158 
L 140.668634 465.640358 
L 141.014121 464.770068 
L 141.083219 464.134086 
L 141.04867 462.661287 
L 140.288598 459.782633 
L 139.113942 455.966743 
L 138.595711 454.192689 
L 137.593798 451.61529 
L 137.041018 450.14249 
L 136.557336 449.138309 
L 135.38268 447.029528 
L 132.895172 443.548365 
L 131.927808 441.874729 
L 131.167736 440.669711 
L 130.062177 439.330803 
L 127.712864 437.021185 
L 126.123623 435.816167 
L 123.394275 434.276422 
L 119.766659 432.368477 
L 117.071859 430.828732 
L 115.41352 429.858024 
L 114.204315 429.32246 
L 113.133305 429.088151 
L 112.235038 429.088151 
L 111.578613 429.69066 
L 110.749443 431.364296 
L 109.678433 432.669732 
L 109.263849 432.837095 
L 108.780166 432.803623 
L 108.192838 432.234587 
L 107.916449 431.66555 
L 107.743705 430.929151 
L 107.536413 429.657187 
L 107.121828 427.883133 
L 106.914536 427.447988 
L 105.947172 425.50657 
L 105.325295 424.26808 
L 105.290746 423.866407 
L 105.221648 423.230426 
L 105.325295 422.594444 
L 105.567136 421.858044 
L 105.567136 421.55679 
L 105.290746 421.289008 
L 105.014356 421.155117 
L 104.63432 420.987754 
L 103.217823 420.954281 
L 101.490387 421.289008 
L 100.142987 421.858044 
L 98.657392 422.393608 
L 97.240894 422.460553 
L 95.651653 422.259717 
L 94.546094 421.791099 
L 93.820571 421.121644 
L 93.371438 420.284826 
L 93.095048 419.448009 
L 92.50772 418.544245 
L 91.885843 418.142573 
L 91.644002 418.042154 
L 90.953028 417.841318 
L 90.296602 417.774373 
L 89.156494 417.673955 
L 88.638263 417.673955 
L 87.567253 417.540064 
L 87.325412 417.506591 
L 85.321586 416.937555 
L 84.388771 416.6363 
L 83.283212 416.335046 
L 81.002997 415.196973 
L 78.895525 413.489865 
L 76.615309 411.715811 
L 74.335094 409.573557 
L 73.09134 408.033812 
L 71.882135 405.958503 
L 71.502099 404.853904 
L 71.363904 404.284868 
L 71.398453 403.314159 
L 71.571196 402.34345 
L 72.227622 400.87065 
L 73.298632 398.962706 
L 74.611484 396.351834 
L 75.717043 393.406234 
L 75.855237 392.335108 
L 75.855237 391.364399 
L 75.440653 389.757708 
L 74.784227 387.615454 
L 74.646032 386.443909 
L 74.680581 385.908346 
L 74.99152 385.372782 
L 75.578848 384.97111 
L 76.373468 384.870692 
L 77.962709 385.071528 
L 80.89935 386.008764 
L 83.248663 386.778636 
L 85.390684 386.644746 
L 87.152669 385.975291 
L 89.53653 384.569437 
L 90.08931 384.435546 
L 91.16032 384.368601 
L 93.716925 384.435546 
L 95.513458 384.535964 
L 97.137248 384.636383 
L 98.139161 384.636383 
L 98.899233 384.368601 
L 100.073889 383.49831 
L 101.559484 381.724256 
L 102.354105 381.054802 
L 103.874248 380.41882 
L 110.403956 379.146857 
L 111.578613 378.979493 
L 113.167854 379.113384 
L 114.929838 379.582002 
L 116.173592 379.883257 
L 117.59009 380.05062 
L 119.973951 380.184511 
L 122.081423 380.151038 
L 123.808859 380.017148 
L 124.741675 379.883257 
L 126.227269 379.648948 
L 127.436475 379.381166 
L 128.334741 379.012966 
L 129.025716 378.142675 
L 129.474849 375.933476 
L 129.613044 373.690804 
L 129.820336 372.351895 
L 130.891346 370.745205 
L 131.651418 369.674078 
L 132.791526 368.536005 
L 133.827988 367.799606 
L 135.486326 367.130151 
L 137.662895 366.427224 
L 139.908562 365.657352 
L 140.806829 365.255679 
L 142.188778 364.318443 
L 144.53809 362.67828 
L 145.298162 362.176189 
L 146.023685 361.975353 
L 148.131157 361.774517 
L 150.929603 361.038117 
L 153.693501 360.167826 
L 154.52267 359.833099 
L 155.420937 359.498372 
L 156.388301 359.264063 
L 156.802886 359.297535 
L 157.597506 359.464899 
L 158.495773 359.933517 
L 159.186747 360.167826 
L 160.085014 360.167826 
L 161.501511 359.833099 
L 164.818188 358.695027 
L 168.065768 357.155282 
L 169.482265 356.653191 
L 170.898763 356.318464 
L 173.213527 355.849846 
L 176.461107 355.615537 
L 184.234568 354.812191 
L 188.76045 354.845664 
L 190.315143 354.778719 
L 191.73164 354.377046 
L 192.733553 354.109264 
L 194.080953 353.674119 
L 195.290158 353.272446 
L 196.464815 353.004665 
L 197.777666 352.602992 
L 198.537738 352.569519 
L 199.125066 352.569519 
L 199.988784 352.870774 
L 200.921599 353.841483 
L 201.854415 354.879137 
L 202.441743 355.347755 
L 203.270912 355.682482 
L 204.68741 355.7829 
L 208.660512 355.816373 
L 210.284302 355.849846 
L 211.735348 355.883318 
L 214.741087 355.816373 
L 217.194046 355.582064 
L 219.163323 355.448173 
L 220.959856 355.314282 
L 221.443538 355.247337 
L 222.376354 354.91261 
L 223.170974 354.443991 
L 224.760215 353.506755 
L 225.900323 352.837301 
L 226.902236 352.33521 
L 236.092195 349.155302 
L 236.886816 348.920993 
L 237.785082 348.820575 
L 238.614252 348.987939 
L 239.132482 349.356138 
L 239.47797 350.192956 
L 239.443421 352.201319 
L 239.788908 353.406337 
L 240.894467 355.347755 
L 242.656452 357.322645 
L 245.14396 359.130172 
L 247.804211 360.736862 
L 250.153524 361.741044 
L 252.157349 362.343553 
L 254.092078 363.013007 
L 254.955796 363.381207 
L 255.612221 363.715934 
L 256.303196 364.318443 
L 257.616047 365.38957 
L 258.514314 366.427224 
L 258.928898 366.594588 
L 259.516227 366.594588 
L 260.103555 366.159443 
L 262.176478 364.017189 
L 264.042109 362.075771 
L 264.525791 361.707571 
L 264.836729 361.473262 
L 265.216765 361.305899 
L 265.838642 361.004644 
L 266.667811 360.636444 
L 267.877016 360.167826 
L 268.913478 359.833099 
L 269.846293 359.464899 
L 270.675463 359.264063 
L 272.230155 359.029754 
L 273.059324 358.761972 
L 274.061237 358.092518 
L 275.926868 356.552773 
L 277.585206 354.979555 
L 278.82896 354.142737 
L 281.869248 352.536047 
L 284.702243 350.862411 
L 288.191663 349.021411 
L 290.575525 347.582084 
L 293.373971 345.841503 
L 297.588915 342.795486 
L 300.594653 340.485868 
L 302.667576 338.845705 
L 304.084074 337.67416 
L 307.15891 334.929397 
L 307.538946 334.527725 
L 309.715515 329.707653 
L 309.231833 329.305981 
L 307.849884 327.398036 
L 306.364289 324.954528 
L 305.293279 322.611437 
L 304.636853 321.205583 
L 303.876781 320.067511 
L 302.771222 319.096802 
L 301.009238 318.326929 
L 297.381622 317.22233 
L 295.896027 316.352039 
L 295.27415 315.448276 
L 295.101407 314.544512 
L 295.101407 313.707694 
L 295.377797 312.335313 
L 296.552453 309.188878 
L 298.24534 306.812315 
L 299.558192 305.105206 
L 300.041874 304.034079 
L 300.041874 302.829061 
L 299.730935 301.624044 
L 298.970863 300.820698 
L 298.107145 300.419026 
L 297.070684 300.35208 
L 296.310612 300.954589 
L 295.896027 301.992243 
L 295.896027 303.699352 
L 295.654186 304.502697 
L 295.101407 305.071733 
L 294.47953 305.439933 
L 293.857653 305.439933 
L 292.752094 305.138679 
L 291.439243 303.833243 
L 290.402781 301.590571 
L 291.957473 299.883462 
L 296.863392 295.699373 
L 298.694474 293.724482 
L 299.454545 292.753773 
L 301.700212 291.983901 
L 303.427648 291.280974 
L 304.46411 290.511101 
L 304.947792 289.172193 
L 304.705951 287.866757 
L 303.773135 286.561321 
L 301.976602 285.289357 
L 301.527469 283.883503 
L 301.527469 282.845849 
L 302.149346 281.707777 
L 304.360464 280.034141 
L 305.984253 279.431632 
L 308.091725 279.565523 
L 310.302843 279.431632 
L 311.684792 278.929541 
L 312.583059 276.753815 
L 312.203023 273.875161 
L 312.444864 271.364707 
L 314.414141 267.448399 
L 316.728905 264.201546 
L 321.323884 259.749674 
L 326.506192 254.862657 
L 331.757598 250.912877 
L 333.726874 250.611622 
L 334.417849 250.57815 
L 335.005177 249.942168 
L 335.385213 249.071877 
L 335.523408 248.101169 
L 335.488859 247.063514 
L 333.623228 245.891969 
L 333.001351 245.490297 
L 332.344926 245.021679 
L 331.895792 244.653479 
L 330.721136 243.515406 
L 330.548392 242.745534 
L 332.724962 240.101189 
L 334.037813 241.038425 
L 335.627054 238.025881 
L 338.667341 232.837609 
L 340.947557 228.921302 
L 342.847736 225.440139 
L 343.746003 224.000812 
L 346.5099 219.615886 
L 350.068418 218.377396 
L 352.659572 217.272796 
L 355.838055 215.699578 
L 358.360111 214.728869 
L 360.052998 213.825106 
L 362.056824 212.117997 
L 365.822634 214.929706 
L 369.761188 217.808359 
L 380.22945 225.440139 
L 384.306199 228.787411 
L 393.219768 236.184881 
L 398.816661 240.804116 
L 405.173625 245.65766 
L 411.806979 250.879404 
L 421.238779 257.841729 
L 426.317441 261.724564 
L 436.543862 269.824962 
L 442.2444 274.645033 
L 452.436272 282.745431 
L 457.687677 287.197302 
L 460.209734 289.172193 
L 467.948647 295.130336 
L 473.407345 299.147062 
L 485.326653 307.883442 
L 488.677878 310.393895 
L 502.359171 320.201402 
L 515.86772 329.439872 
L 518.251582 331.046562 
L 520.635443 332.686725 
L 533.625761 341.590468 
L 541.157382 346.510957 
L 545.303228 349.021411 
L 548.101675 350.494211 
L 551.694741 352.000483 
L 554.631382 353.640646 
L 558.949972 357.188754 
L 560.193726 358.427245 
L 560.642859 359.59879 
L 565.652424 361.20548 
L 568.139931 362.008826 
L 570.731085 362.845644 
L 571.802096 362.142716 
L 573.805921 362.142716 
L 581.026604 364.854007 
L 592.807717 370.510896 
L 593.947824 371.012987 
L 596.642624 373.121768 
L 597.85183 374.460676 
L 598.128219 375.799585 
L 600.892117 376.736821 
L 602.895943 377.406276 
L 603.725112 376.636403 
L 604.623378 376.636403 
L 607.421825 378.176148 
L 613.74424 382.895801 
L 619.064743 386.5778 
L 625.35261 390.192854 
L 629.049323 392.703307 
L 638.273831 399.197015 
L 643.387041 402.912486 
L 650.573174 408.268121 
L 659.383098 415.330864 
L 667.536595 421.791099 
L 676.484714 428.21786 
L 689.129545 437.924949 
L 693.966365 441.372638 
L 700.634268 446.895637 
L 708.615022 453.523235 
L 720.016099 463.163377 
L 726.096674 468.485539 
L 739.639772 480.20099 
L 753.010126 491.983387 
L 763.340193 501.087966 
L 766.345931 503.765783 
L 779.336249 515.514707 
L 792.672055 527.196686 
L 799.443604 533.154829 
L 802.449342 535.364029 
L 807.562553 538.778246 
L 810.568291 540.418409 
L 813.228543 541.489536 
L 816.199732 542.493717 
L 818.583594 543.765681 
L 823.834999 548.217552 
L 825.596984 549.723824 
L 831.193876 552.937205 
L 832.783117 554.778205 
L 835.374271 558.326313 
L 838.449107 561.74053 
L 839.969251 563.280275 
L 841.662138 564.351402 
L 843.562318 565.087802 
L 846.429861 565.422529 
L 848.640979 565.255165 
L 849.781087 564.686129 
L 850.437513 563.782366 
L 850.437513 562.97902 
L 850.437513 560.234258 
L 851.093938 559.163131 
L 851.957656 559.062713 
L 853.063215 559.464385 
L 855.136138 561.974839 
L 857.52 564.250984 
L 858.798303 566.225874 
L 860.2148 569.204946 
L 864.222451 573.556399 
L 868.644687 577.673543 
L 874.414323 581.991524 
L 876.487247 583.732105 
L 877.834647 584.90365 
L 878.732913 585.27185 
L 880.909483 585.64005 
L 884.74439 586.945486 
L 891.412293 588.284395 
L 898.252939 588.284395 
L 902.675175 588.686067 
L 905.059037 588.451758 
L 908.133873 588.016613 
L 912.037878 586.309504 
L 916.287371 583.464323 
L 919.707694 580.485252 
L 920.916899 578.510361 
L 921.469678 576.635889 
L 920.813253 575.230035 
L 918.498489 572.886945 
L 915.596396 571.313727 
L 913.627119 569.606618 
L 912.901596 567.832564 
L 913.281632 565.690311 
L 914.214448 563.079439 
L 915.872786 561.74053 
L 918.18755 561.573166 
L 919.569499 562.276093 
L 922.437043 566.292819 
L 924.199027 567.932983 
L 926.444694 568.535492 
L 928.275776 569.00411 
L 929.104945 570.2426 
L 929.104945 571.949709 
L 929.865017 574.359744 
L 932.179781 578.309525 
L 934.943679 583.66516 
L 935.427361 585.907832 
L 935.427361 587.347159 
L 934.390899 588.686067 
L 932.836207 590.024976 
L 932.49072 591.229994 
L 932.870756 593.204884 
L 933.803571 595.547974 
L 936.291079 601.070973 
L 937.845771 603.447536 
L 942.786238 611.01237 
L 951.9071 625.405638 
L 958.264064 634.075072 
L 969.526946 650.242395 
L 973.603695 657.137774 
L 975.711167 660.351155 
L 976.747629 662.426464 
L 976.643982 663.664954 
L 976.194849 664.401354 
L 974.8129 664.468299 
L 972.947269 664.033154 
L 971.081639 662.694245 
L 969.803336 660.250737 
L 966.383013 652.819794 
L 962.513556 647.464159 
L 960.820669 644.88676 
L 959.335074 642.476724 
L 958.575002 642.075051 
L 958.125869 642.108524 
L 957.331249 642.54367 
L 956.640274 643.179651 
L 955.327423 643.246597 
L 954.498254 642.644088 
L 954.083669 641.874215 
L 953.150854 640.367943 
L 952.528977 639.296816 
L 952.148941 637.188035 
L 951.250674 635.581344 
L 949.557787 633.706872 
L 948.38313 633.003945 
L 945.031905 632.133654 
L 941.231546 631.430727 
L 939.884146 631.531146 
L 938.225807 632.334491 
L 935.945592 633.80729 
L 934.494545 634.409799 
L 931.868843 634.811472 
L 930.936027 635.112726 
L 929.899566 636.250799 
L 928.794007 638.091798 
L 928.517617 639.731961 
L 929.035848 644.116887 
L 929.24314 647.363741 
L 930.072309 650.376285 
L 932.421622 655.999702 
L 933.388986 660.183792 
L 934.11451 662.024791 
L 936.53292 664.836499 
L 941.058802 668.083353 
L 944.202735 670.225607 
L 948.486777 673.606351 
L 950.145115 673.807188 
L 952.839915 672.367861 
L 955.983849 669.756989 
L 959.300526 667.715153 
L 963.031787 666.275826 
L 965.346551 666.376244 
L 969.596044 667.280008 
L 973.396403 669.321843 
L 975.158387 669.857407 
L 976.71308 669.790461 
L 979.027844 668.183771 
L 980.617085 666.81139 
L 982.10268 666.543608 
L 984.210152 666.911808 
L 987.457731 668.518498 
L 993.849244 672.200497 
L 998.375126 674.710951 
L 1001.79545 677.054041 
L 1003.695629 677.355296 
L 1005.28487 676.719314 
L 1007.97967 675.112623 
L 1010.087142 674.242333 
L 1014.543927 673.874133 
L 1016.685947 674.141915 
L 1019.829881 675.480823 
L 1021.522768 676.685841 
L 1022.662876 676.987096 
L 1023.699337 676.853205 
L 1024.321214 676.217223 
L 1024.873994 675.346933 
L 1025.219481 672.736061 
L 1025.875907 671.162843 
L 1027.154209 670.091716 
L 1028.121573 669.756989 
L 1029.192584 669.756989 
L 1030.263594 670.091716 
L 1032.198322 671.363679 
L 1034.443989 673.47246 
L 1035.687743 674.074969 
L 1038.002507 674.811369 
L 1039.833589 676.016387 
L 1042.977522 678.091695 
L 1045.257738 679.196295 
L 1047.330661 679.966168 
L 1048.539866 679.966168 
L 1049.887266 679.430604 
L 1051.545605 678.02475 
L 1052.75481 677.623077 
L 1055.17322 677.321823 
L 1056.451523 677.187932 
L 1057.453436 676.752787 
L 1058.006215 676.217223 
L 1058.213507 675.547769 
L 1058.489897 674.610533 
L 1059.284518 674.242333 
L 1060.355528 674.376224 
L 1063.188523 676.04986 
L 1065.330543 677.321823 
L 1067.679856 678.158641 
L 1069.061805 678.794622 
L 1069.2 678.961986 
" clip-path="url(#p4d82c217fc)"/>
   </g>
  </g>
 </g>
 <defs>
  <clipPath id="p4d82c217fc">
   <rect x="10.8" y="212.117997" width="1058.4" height="655.764005"/>
  </clipPath>
 </defs>
</svg>
