<?xml version="1.0" encoding="utf-8" standalone="no"?>
<!DOCTYPE svg PUBLIC "-//W3C//DTD SVG 1.1//EN"
  "http://www.w3.org/Graphics/SVG/1.1/DTD/svg11.dtd">
<svg xmlns:xlink="http://www.w3.org/1999/xlink" width="1080pt" height="1080pt" viewBox="0 0 1080 1080" xmlns="http://www.w3.org/2000/svg" version="1.1">
 <metadata>
  <rdf:RDF xmlns:dc="http://purl.org/dc/elements/1.1/" xmlns:cc="http://creativecommons.org/ns#" xmlns:rdf="http://www.w3.org/1999/02/22-rdf-syntax-ns#">
   <cc:Work>
    <dc:type rdf:resource="http://purl.org/dc/dcmitype/StillImage"/>
    <dc:date>2022-07-01T13:43:33.205801</dc:date>
    <dc:format>image/svg+xml</dc:format>
    <dc:creator>
     <cc:Agent>
      <dc:title>Matplotlib v3.5.1, https://matplotlib.org/</dc:title>
     </cc:Agent>
    </dc:creator>
   </cc:Work>
  </rdf:RDF>
 </metadata>
 <defs>
  <style type="text/css">*{stroke-linejoin: round; stroke-linecap: butt}</style>
 </defs>
 <g id="figure_1">
  <g id="patch_1">
   <path d="M 0 1080 
L 1080 1080 
L 1080 0 
L 0 0 
L 0 1080 
z
" style="fill: none; opacity: 0"/>
  </g>
  <g id="axes_1">
   <g id="PatchCollection_1">
    <path d="M 972.966832 426.938826 
L 978.159713 434.725133 
L 989.287317 455.009462 
L 993.655932 463.354786 
L 993.779572 463.594365 
L 994.274133 464.313101 
L 1004.165336 479.286769 
L 1015.457794 491.864649 
L 1017.724528 494.260436 
L 1024.689584 501.567586 
L 1033.179534 509.713261 
L 1033.88016 510.352138 
L 1040.63915 518.737392 
L 1043.482871 524.008123 
L 1044.966551 527.002856 
L 1051.560687 546.40873 
L 1062.605864 581.866375 
L 1066.644772 594.763694 
L 1069.2 602.989229 
L 1039.691243 616.365705 
L 1022.340423 626.188431 
L 1022.175569 631.379303 
L 1022.175569 635.931298 
L 1020.238542 642.75929 
L 1017.642101 647.311285 
L 1014.715953 651.224404 
L 1008.492738 656.495135 
L 1009.193365 674.822904 
L 1009.976418 693.549971 
L 1010.594619 693.949269 
L 1013.768046 697.023862 
L 1016.570554 700.897051 
L 1020.733102 708.164271 
L 1021.062809 710.280549 
L 1021.062809 712.396828 
L 1020.774316 713.994019 
L 1019.785195 716.270016 
L 1017.971808 717.907137 
L 1014.67474 720.422714 
L 1013.644406 747.335386 
L 1005.525377 747.574964 
L 994.150493 747.215596 
L 986.60845 745.857984 
L 977.953647 742.224374 
L 965.795709 736.115117 
L 952.607437 728.32881 
L 951.41225 727.490285 
L 941.150127 720.063346 
L 930.104949 709.601743 
L 923.139893 704.131363 
L 915.391784 700.178315 
L 908.261875 698.022107 
L 903.027779 697.303371 
L 901.420459 697.063792 
L 889.551014 696.424915 
L 877.393077 694.707935 
L 865.358779 692.03264 
L 850.151053 688.678538 
L 842.402944 687.600434 
L 825.958818 685.683804 
L 821.095643 684.445981 
L 805.228504 678.137076 
L 783.055722 671.828171 
L 765.086702 666.637299 
L 761.130221 665.080038 
L 756.390686 661.845725 
L 751.527511 656.535065 
L 747.900736 652.422297 
L 746.664336 651.543842 
L 743.779401 650.1463 
L 730.261423 645.115147 
L 725.109754 642.080484 
L 716.001604 635.372281 
L 707.388014 629.382814 
L 701.123586 626.38808 
L 699.598692 625.669344 
L 696.548904 625.190187 
L 687.111047 625.309976 
L 677.67319 625.709274 
L 673.263362 625.709274 
L 670.666921 625.230117 
L 650.10146 612.692166 
L 628.835372 599.315689 
L 623.39521 596.360885 
L 621.54061 595.362641 
L 620.510276 595.043203 
L 620.221783 594.963343 
L 614.575554 593.246362 
L 602.541256 591.649171 
L 593.309466 590.930435 
L 589.682691 591.569312 
L 587.251104 591.968609 
L 579.008434 593.925169 
L 572.373085 596.121307 
L 547.356583 604.426701 
L 528.893003 610.975185 
L 521.886733 612.891814 
L 518.548452 612.891814 
L 516.116865 612.133149 
L 507.544488 605.145437 
L 507.008715 604.706209 
L 504.412274 603.029159 
L 502.351606 603.228808 
L 476.593264 608.858907 
L 466.413566 610.815466 
L 449.887014 612.332798 
L 434.473221 614.209497 
L 423.963818 616.605284 
L 419.471563 617.883037 
L 418.317589 618.242405 
L 417.246042 618.521914 
L 404.511117 625.030468 
L 395.361754 629.861971 
L 382.338336 636.130947 
L 378.299428 638.087506 
L 368.985211 642.719361 
L 360.577688 646.313041 
L 353.118072 649.148055 
L 352.582298 649.267845 
L 348.254897 650.02651 
L 345.576029 650.06644 
L 340.671641 650.10637 
L 334.159931 649.786932 
L 323.980234 649.267845 
L 316.190912 649.707072 
L 312.687777 650.465738 
L 303.86812 654.778154 
L 299.417079 656.574994 
L 295.707877 657.094082 
L 290.514996 656.934362 
L 287.011861 656.455205 
L 282.437179 654.937873 
L 276.213964 651.90321 
L 259.646198 643.717605 
L 255.607289 641.761046 
L 239.575297 633.974739 
L 233.434508 629.382814 
L 217.155235 617.28409 
L 215.630341 616.046267 
L 207.428885 609.497783 
L 200.216549 603.747895 
L 197.043121 601.791335 
L 194.529107 600.593442 
L 188.965305 600.433723 
L 182.659663 602.030914 
L 182.412383 602.190633 
L 175.570967 607.101996 
L 168.976831 612.851885 
L 156.736467 623.553066 
L 139.42686 637.32884 
L 130.978124 645.674164 
L 126.733149 648.628968 
L 125.785242 649.307774 
L 124.095495 650.505668 
L 110.453876 656.535065 
L 104.560368 658.771132 
L 99.903259 659.929096 
L 96.441338 659.489868 
L 92.567283 657.972537 
L 84.15976 650.226159 
L 75.834664 643.877324 
L 71.507262 641.481537 
L 62.811246 638.327085 
L 53.167322 636.530245 
L 36.970476 634.813264 
L 34.332822 634.733404 
L 31.489101 628.504359 
L 30.458767 627.146746 
L 26.955633 625.549555 
L 22.339738 625.349906 
L 19.496017 623.712785 
L 17.105642 621.915945 
L 16.775936 620.558332 
L 16.940789 619.08093 
L 17.682629 618.202475 
L 25.224672 613.890059 
L 24.936178 613.450831 
L 22.957938 612.093219 
L 14.344348 609.737362 
L 11.995187 609.098485 
L 14.303135 595.56229 
L 13.808574 586.37844 
L 12.242467 575.677259 
L 11.995187 573.241542 
L 11.500627 567.771162 
L 10.964853 562.141063 
L 10.8 558.866821 
L 11.624267 558.906751 
L 31.942448 559.865066 
L 40.926958 563.658395 
L 56.58803 519.975215 
L 56.71167 519.615847 
L 91.701803 482.60094 
L 99.120206 474.774703 
L 138.973513 432.848434 
L 142.394221 429.374543 
L 142.641501 429.055105 
L 143.589409 412.604035 
L 143.671835 385.531644 
L 144.166395 385.851082 
L 169.471391 387.528133 
L 203.925751 389.644411 
L 204.956084 389.764201 
L 291.298049 398.548752 
L 291.833823 398.588682 
L 310.544683 399.786575 
L 310.62711 394.715493 
L 310.62711 393.55753 
L 310.62711 391.281532 
L 310.62711 389.524622 
L 310.544683 388.646167 
L 310.462256 385.531644 
L 310.338616 383.694874 
L 310.297403 380.181053 
L 310.256189 378.583862 
L 310.256189 375.668988 
L 310.256189 373.752359 
L 310.132549 370.877414 
L 310.132549 368.681276 
L 310.091336 366.964296 
L 310.008909 365.127526 
L 309.967696 363.011248 
L 309.926483 361.134548 
L 309.885269 359.457497 
L 309.844056 357.301289 
L 309.885269 355.185011 
L 309.844056 351.910769 
L 309.679203 344.40397 
L 337.95156 343.206076 
L 342.979588 342.966498 
L 356.209073 342.367551 
L 357.692753 342.287691 
L 371.416798 341.688745 
L 410.899186 339.851975 
L 412.630147 339.652326 
L 418.070309 340.65057 
L 503.50558 332.425036 
L 513.396784 342.966498 
L 528.480869 355.105151 
L 538.042366 350.193788 
L 542.410981 353.947187 
L 554.610132 370.717695 
L 558.690253 373.55271 
L 568.00447 377.10646 
L 567.551123 394.116547 
L 571.796098 396.751912 
L 573.568272 397.869946 
L 577.689607 400.225803 
L 581.069102 398.269244 
L 590.259678 405.097236 
L 589.435411 425.062127 
L 589.476625 425.581214 
L 590.259678 435.004642 
L 602.82975 443.948913 
L 611.484553 448.860276 
L 612.720953 449.539082 
L 621.78789 439.277128 
L 625.332238 429.97349 
L 631.14332 432.329347 
L 639.839336 435.803238 
L 640.210257 441.912494 
L 646.268619 444.867298 
L 655.253129 451.894939 
L 661.682411 457.724687 
L 664.938266 462.116963 
L 665.556466 464.47282 
L 665.680106 464.912048 
L 666.051026 466.26966 
L 667.32864 467.946711 
L 669.595374 469.623762 
L 676.06587 472.977863 
L 678.497457 474.814633 
L 675.983443 475.174001 
L 672.356668 475.45351 
L 669.018387 477.13056 
L 664.938266 481.442977 
L 659.910237 485.515814 
L 651.543927 489.828231 
L 645.320712 491.545211 
L 640.952097 491.345562 
L 637.366536 491.625071 
L 636.665909 494.220507 
L 636.913189 496.137136 
L 643.466111 504.841828 
L 645.197072 509.353893 
L 647.875939 514.065608 
L 650.307527 515.982237 
L 665.680106 512.747925 
L 668.81232 512.747925 
L 672.892442 513.66631 
L 676.271936 514.345116 
L 680.393271 517.659288 
L 683.525486 521.173108 
L 684.761886 522.850159 
L 682.124232 524.52721 
L 678.744737 525.485525 
L 675.612523 524.56714 
L 673.469429 524.327561 
L 671.285121 524.846648 
L 671.326335 527.202505 
L 672.768802 529.797941 
L 676.395576 531.914219 
L 682.907286 533.072183 
L 685.998287 529.478503 
L 688.141381 527.362224 
L 690.284475 526.204261 
L 699.681118 530.03752 
L 705.780694 531.474992 
L 723.049087 512.268767 
L 732.899077 505.600494 
L 737.473759 502.166533 
L 740.0702 501.168288 
L 741.883587 500.84885 
L 745.881282 500.968639 
L 748.477723 500.130114 
L 757.585873 493.142402 
L 765.663689 506.079651 
L 769.043184 501.447797 
L 771.309918 498.852361 
L 773.288159 497.534678 
L 775.596106 497.095451 
L 777.409493 497.654468 
L 786.641283 502.006814 
L 787.795257 503.604005 
L 787.506764 508.954596 
L 787.053417 512.548276 
L 787.21827 513.985748 
L 788.537097 515.143712 
L 790.680192 514.944063 
L 794.96638 514.424976 
L 800.695035 513.905888 
L 808.278291 512.867714 
L 814.831214 510.711506 
L 817.304015 508.914666 
L 818.416775 506.31923 
L 818.045855 502.925199 
L 817.757361 500.569342 
L 817.510081 500.449552 
L 815.408201 497.894046 
L 814.79 496.216996 
L 814.748787 494.100717 
L 815.284561 490.746616 
L 818.705268 489.588652 
L 819.117402 489.508792 
L 819.818029 489.428933 
L 820.312589 489.468863 
L 820.601083 489.468863 
L 821.425349 489.708441 
L 822.496897 490.067809 
L 823.815724 490.387248 
L 824.887271 490.546967 
L 826.741871 490.546967 
L 828.555259 490.187599 
L 831.481406 488.989705 
L 833.583287 487.791812 
L 836.097302 486.154691 
L 838.982236 483.878693 
L 840.218636 482.880449 
L 841.86717 481.802345 
L 843.515704 480.88396 
L 847.595826 478.767681 
L 850.315907 477.449999 
L 853.242054 476.491684 
L 855.879709 475.653159 
L 858.022803 474.894493 
L 858.558576 474.535125 
L 859.918617 473.816389 
L 861.196231 472.698355 
L 863.050831 470.622006 
L 864.246018 469.264394 
L 865.070285 467.986641 
L 865.606059 466.988396 
L 865.606059 466.708888 
L 866.553966 463.594365 
L 867.5843 458.084055 
L 867.872793 456.407004 
L 868.655847 452.933113 
L 869.274047 450.816835 
L 869.933461 448.900206 
L 870.798941 446.903717 
L 872.117768 444.947157 
L 872.694755 444.38814 
L 873.395382 443.829123 
L 874.260862 443.110387 
L 876.774876 441.672915 
L 879.000397 440.83439 
L 880.813785 440.475022 
L 881.885332 440.395162 
L 882.874452 440.435092 
L 883.863572 440.514952 
L 884.811479 440.75453 
L 885.718173 441.113898 
L 886.212733 441.433337 
L 887.696414 442.55137 
L 889.715868 444.50793 
L 891.034695 446.105121 
L 891.405615 446.624208 
L 892.023815 447.622453 
L 892.559589 448.540838 
L 893.301429 450.337678 
L 893.960843 453.57199 
L 894.290549 457.24553 
L 894.372976 462.276682 
L 894.208123 464.592609 
L 893.672349 473.137582 
L 893.713563 474.894493 
L 893.713563 475.852807 
L 893.795989 476.890982 
L 894.125696 478.807611 
L 895.03239 480.564522 
L 896.433644 482.72073 
L 896.969417 483.239817 
L 897.999751 484.397781 
L 899.689498 485.755393 
L 901.997446 486.993216 
L 903.439913 487.432444 
L 904.346606 487.632093 
L 906.036354 487.911601 
L 907.684888 487.951531 
L 910.652249 487.791812 
L 913.00141 487.472374 
L 915.35057 487.033146 
L 917.452451 486.31441 
L 919.100985 485.316165 
L 920.543452 484.238061 
L 922.068346 482.800589 
L 924.706001 479.845786 
L 926.931521 476.531614 
L 927.137588 476.212176 
L 929.074615 472.099408 
L 930.640723 469.024815 
L 932.660177 465.071767 
L 934.597204 461.797525 
L 937.440925 457.24553 
L 939.336739 454.889673 
L 940.69678 453.452201 
L 941.80954 452.254307 
L 944.117488 450.217888 
L 949.351583 445.665893 
L 953.720198 441.513196 
L 956.440279 438.99762 
L 959.325213 436.681693 
L 965.053869 432.449136 
L 970.658884 428.735666 
L 972.966832 426.938826 
" clip-path="url(#p40849713dc)"/>
   </g>
  </g>
 </g>
 <defs>
  <clipPath id="p40849713dc">
   <rect x="10.8" y="332.425036" width="1058.4" height="415.149929"/>
  </clipPath>
 </defs>
</svg>
