<?xml version="1.0" encoding="utf-8" standalone="no"?>
<!DOCTYPE svg PUBLIC "-//W3C//DTD SVG 1.1//EN"
  "http://www.w3.org/Graphics/SVG/1.1/DTD/svg11.dtd">
<svg xmlns:xlink="http://www.w3.org/1999/xlink" width="1080pt" height="1080pt" viewBox="0 0 1080 1080" xmlns="http://www.w3.org/2000/svg" version="1.1">
 <metadata>
  <rdf:RDF xmlns:dc="http://purl.org/dc/elements/1.1/" xmlns:cc="http://creativecommons.org/ns#" xmlns:rdf="http://www.w3.org/1999/02/22-rdf-syntax-ns#">
   <cc:Work>
    <dc:type rdf:resource="http://purl.org/dc/dcmitype/StillImage"/>
    <dc:date>2022-07-01T13:43:33.291772</dc:date>
    <dc:format>image/svg+xml</dc:format>
    <dc:creator>
     <cc:Agent>
      <dc:title>Matplotlib v3.5.1, https://matplotlib.org/</dc:title>
     </cc:Agent>
    </dc:creator>
   </cc:Work>
  </rdf:RDF>
 </metadata>
 <defs>
  <style type="text/css">*{stroke-linejoin: round; stroke-linecap: butt}</style>
 </defs>
 <g id="figure_1">
  <g id="patch_1">
   <path d="M 0 1080 
L 1080 1080 
L 1080 0 
L 0 0 
L 0 1080 
z
" style="fill: none; opacity: 0"/>
  </g>
  <g id="axes_1">
   <g id="PatchCollection_1">
    <path d="M 903.58094 911.232026 
L 901.976058 912.155247 
L 900.321024 911.717932 
L 900.020109 910.69753 
L 900.571787 909.482766 
L 901.675143 908.219411 
L 904.132618 905.6927 
L 905.787652 903.263171 
L 907.542992 900.201965 
L 907.843907 898.063979 
L 907.743602 895.683041 
L 906.790703 893.447874 
L 906.489788 891.115527 
L 907.342382 888.831769 
L 908.897111 886.305059 
L 910.301382 884.798751 
L 911.505044 884.069893 
L 912.909315 884.167074 
L 913.511146 884.993114 
L 913.511146 885.819153 
L 912.758857 887.665595 
L 911.354586 889.463447 
L 910.602298 891.018345 
L 910.602298 892.330291 
L 910.903213 893.690827 
L 911.655501 895.828813 
L 912.157027 898.598476 
L 911.805959 901.222367 
L 910.401687 903.263171 
L 908.144822 905.64411 
L 906.590093 907.539142 
L 905.637195 909.8229 
L 903.58094 911.232026 
" clip-path="url(#pecae44eb08)"/>
    <path d="M 735.8708 338.786411 
L 736.121562 338.980773 
L 738.177817 343.596878 
L 740.284224 351.760095 
L 741.538038 357.493784 
L 742.440784 361.138077 
L 743.34353 362.595795 
L 747.255429 366.725994 
L 751.167329 370.904784 
L 751.418091 371.682233 
L 751.418091 373.771628 
L 750.465193 376.881425 
L 748.509243 381.011624 
L 747.004667 385.093233 
L 746.452988 387.036856 
L 746.302531 388.931889 
L 747.45604 393.25645 
L 751.167329 400.982352 
L 757.185635 412.49832 
L 761.448602 418.42637 
L 768.269349 426.055091 
L 774.789181 433.052135 
L 778.450318 436.939381 
L 779.252759 437.814012 
L 785.220913 443.887834 
L 787.828845 447.191993 
L 790.486931 452.974272 
L 791.389677 455.986888 
L 791.489982 457.687559 
L 789.28327 462.740979 
L 787.026405 466.676816 
L 785.120608 468.426077 
L 776.494368 474.888624 
L 770.476062 479.747682 
L 769.422858 481.30258 
L 768.921333 483.197613 
L 769.172095 485.870095 
L 770.124994 487.959489 
L 776.293758 495.976935 
L 777.798335 497.677605 
L 778.701081 498.698008 
L 778.951843 499.281094 
L 781.309013 504.237334 
L 781.710234 506.764044 
L 781.309013 509.485116 
L 779.252759 511.671692 
L 775.892538 513.178 
L 770.325604 513.809678 
L 766.71462 512.935047 
L 760.194788 507.006997 
L 755.179533 501.904986 
L 752.671905 501.030355 
L 750.164277 500.350087 
L 744.797954 500.495859 
L 741.237123 501.710623 
L 739.281173 502.342301 
L 733.062257 507.201359 
L 728.398069 512.449141 
L 723.583424 518.571554 
L 722.028695 519.932091 
L 721.075796 520.320815 
L 720.574271 520.223634 
L 718.618321 519.932091 
L 717.214049 519.446185 
L 716.210998 518.522964 
L 715.609168 516.870884 
L 715.859931 513.761087 
L 718.618321 505.549279 
L 719.821982 502.002167 
L 719.821982 499.815591 
L 719.470914 498.114921 
L 717.916185 496.171297 
L 716.160846 494.567808 
L 714.505812 493.693178 
L 713.10154 493.450225 
L 710.794523 493.547406 
L 708.136437 494.324855 
L 703.422097 497.434652 
L 698.808062 501.564852 
L 696.80196 503.362703 
L 694.6454 506.083776 
L 692.789756 509.242163 
L 691.184874 513.469544 
L 690.883959 514.246993 
L 689.630145 517.211018 
L 688.526789 518.814507 
L 684.865652 521.146855 
L 677.9446 524.499605 
L 668.114699 528.386852 
L 657.482358 533.148728 
L 652.065882 536.404297 
L 651.614509 536.793022 
L 648.505051 539.514094 
L 644.292236 544.130199 
L 643.79071 544.664696 
L 640.179727 550.252612 
L 630.299673 562.788982 
L 626.387774 569.980387 
L 625.184113 573.57609 
L 624.983503 576.88025 
L 624.782892 580.233 
L 625.485028 589.222257 
L 625.836096 590.242659 
L 628.744944 598.988963 
L 630.299673 602.147351 
L 637.270878 610.40775 
L 644.643304 617.307612 
L 652.81817 624.839152 
L 653.119085 625.033514 
L 655.676866 626.588412 
L 656.629764 627.122909 
L 659.137392 628.434854 
L 667.462716 632.079148 
L 671.023547 633.92559 
L 676.891396 638.444514 
L 684.263822 644.275383 
L 689.981213 647.725314 
L 696.40074 651.272427 
L 698.507147 653.847727 
L 700.212334 659.09551 
L 703.522402 670.465706 
L 708.78842 677.802883 
L 715.408558 684.508383 
L 719.119847 687.472408 
L 723.382814 689.124488 
L 728.598679 689.367441 
L 728.9999 689.31885 
L 732.159511 688.541401 
L 734.667138 687.715361 
L 736.522783 686.014691 
L 736.924003 684.459792 
L 737.927054 679.795097 
L 738.879953 677.268387 
L 740.835902 675.373354 
L 745.650548 673.769865 
L 749.111074 673.38114 
L 753.624804 673.526912 
L 757.235788 674.644495 
L 761.548907 676.393756 
L 763.003331 676.588119 
L 764.55806 676.199394 
L 767.567214 673.769865 
L 773.083995 669.396713 
L 776.544521 666.384097 
L 778.801386 663.031347 
L 781.008098 661.816582 
L 788.982354 662.059535 
L 790.888151 662.399669 
L 791.239219 662.691213 
L 792.292423 663.468662 
L 793.646542 666.432688 
L 795.351729 672.166376 
L 808.842766 683.196437 
L 812.152834 686.597778 
L 817.519157 691.408245 
L 820.076938 694.566633 
L 821.631667 697.725021 
L 823.988837 705.450923 
L 826.195549 710.26139 
L 827.850584 712.253604 
L 829.55577 713.516959 
L 830.909889 713.711321 
L 833.216907 713.079644 
L 836.777738 711.08743 
L 838.432772 710.601524 
L 839.285366 710.650115 
L 840.9404 711.038839 
L 843.397875 713.225415 
L 847.359927 717.549977 
L 854.130522 721.19427 
L 858.594099 722.992122 
L 859.747608 723.478028 
L 874.291849 726.976549 
L 878.404358 728.920173 
L 889.538225 731.689836 
L 892.19631 732.515875 
L 898.816447 735.334129 
L 901.474533 736.889028 
L 905.93811 742.13681 
L 907.843907 745.052245 
L 909.850009 746.704325 
L 912.708705 747.19023 
L 915.015722 746.704325 
L 916.670757 747.336002 
L 920.733114 750.154256 
L 919.027927 756.471031 
L 915.5674 765.557469 
L 915.015722 768.035589 
L 915.116027 770.027803 
L 916.319689 772.31156 
L 918.125181 774.109411 
L 923.240741 778.628335 
L 925.497606 781.300817 
L 926.049284 783.050078 
L 926.149589 787.520411 
L 925.597911 789.90135 
L 923.641962 794.371683 
L 922.488453 798.599063 
L 921.986927 800.299734 
L 921.986927 803.701074 
L 922.538605 806.519328 
L 924.293945 810.212212 
L 925.698216 812.010063 
L 927.804624 813.613552 
L 931.114692 814.585364 
L 934.525066 814.585364 
L 941.947644 812.010063 
L 944.455272 811.572748 
L 947.665035 812.350197 
L 950.32312 813.662143 
L 958.146919 820.221871 
L 957.595241 821.096502 
L 957.143868 822.165494 
L 955.187918 829.599853 
L 953.081511 832.904012 
L 950.523731 835.819447 
L 947.865645 838.394748 
L 946.210611 839.706694 
L 944.003899 840.970049 
L 943.552526 841.164411 
L 942.449169 841.747498 
L 940.994745 842.962262 
L 939.941542 845.100248 
L 939.038796 847.481186 
L 938.637575 850.007896 
L 938.33666 852.097291 
L 933.973388 886.790965 
L 931.214997 886.985327 
L 906.239025 876.538353 
L 904.383381 879.891103 
L 901.976058 885.576201 
L 899.568736 893.496465 
L 898.916753 897.821027 
L 898.014007 898.549885 
L 897.010955 898.695657 
L 894.954701 897.578074 
L 884.92419 919.492425 
L 874.943832 941.649729 
L 882.316257 946.75174 
L 893.901497 953.262878 
L 900.421329 954.866367 
L 904.032313 955.498044 
L 907.743602 956.226903 
L 909.097721 957.587439 
L 909.348484 959.774015 
L 909.147874 962.835222 
L 907.492839 965.993609 
L 904.433533 969.297769 
L 898.064159 971.630117 
L 882.015342 977.80112 
L 830.558821 1000.44433 
L 819.92648 1004.720301 
L 810.598105 1006.906877 
L 801.520493 1007.830098 
L 790.687541 1007.684327 
L 788.029456 1007.489964 
L 786.725489 1007.441374 
L 779.001996 1028.383913 
L 770.676672 1051.221486 
L 726.993797 1066.235975 
L 726.993797 1066.770471 
L 721.577322 1069.2 
L 718.467863 1059.190341 
L 713.552913 1043.495584 
L 700.112029 1000.347149 
L 692.08762 976.732127 
L 690.282128 973.087834 
L 686.821602 966.673878 
L 678.596583 956.469856 
L 677.743989 955.692407 
L 667.412563 945.779928 
L 658.936782 936.887852 
L 656.178391 933.972418 
L 642.436591 918.666385 
L 630.399979 900.444918 
L 629.798148 899.570287 
L 629.64769 899.278744 
L 624.33152 889.123313 
L 610.79033 864.439299 
L 604.471108 854.964136 
L 605.724922 854.089505 
L 606.527363 853.020512 
L 606.677821 852.534607 
L 606.828278 852.048701 
L 607.430109 849.619172 
L 608.282702 846.849509 
L 609.787279 843.885483 
L 612.345059 838.977835 
L 616.006196 833.292737 
L 618.112603 829.988578 
L 620.0184 825.469654 
L 621.121756 820.0761 
L 621.372519 817.840933 
L 621.071604 815.557176 
L 620.971298 815.168451 
L 620.0184 811.475567 
L 617.962145 798.696245 
L 616.858789 791.990745 
L 615.354212 783.390212 
L 614.301009 775.081223 
L 614.200704 771.825654 
L 613.949941 766.529281 
L 614.050246 763.176531 
L 614.551771 760.261096 
L 617.66123 753.749959 
L 613.247805 747.96768 
L 608.83438 743.108622 
L 606.176295 741.359361 
L 604.12004 743.108622 
L 602.665616 745.149426 
L 601.512107 747.773317 
L 597.700513 748.939491 
L 595.644259 748.356404 
L 594.189835 746.364191 
L 591.832665 743.205803 
L 588.873664 737.423524 
L 586.466341 730.523662 
L 585.26268 725.907557 
L 585.011917 721.242861 
L 584.961765 720.125278 
L 587.21863 713.468368 
L 590.428393 709.095216 
L 593.638156 705.062198 
L 595.945174 700.980589 
L 596.496852 697.822202 
L 598.502954 683.925296 
L 596.998378 679.017648 
L 593.738462 674.98463 
L 589.024122 669.250941 
L 584.008866 664.92638 
L 575.332474 659.678597 
L 562.593726 655.74276 
L 557.829233 655.402626 
L 540.426297 652.292829 
L 540.476449 652.681554 
L 540.576754 653.750546 
L 539.974924 657.44343 
L 537.567601 660.941952 
L 533.104024 663.905977 
L 532.301583 664.294702 
L 526.082666 667.50168 
L 522.672293 670.368524 
L 518.961004 672.895235 
L 517.9078 672.700872 
L 517.50658 672.603691 
L 515.500477 672.020604 
L 509.632629 671.194564 
L 499.953186 674.15859 
L 494.135489 679.406372 
L 490.073133 682.856303 
L 486.562454 686.646369 
L 483.653606 691.651198 
L 481.998571 691.213883 
L 476.933163 689.950528 
L 476.48179 689.950528 
L 473.422485 689.658984 
L 469.61089 689.367441 
L 470.162569 684.168249 
L 470.062263 672.603691 
L 469.460433 670.319934 
L 459.730837 659.387054 
L 454.715582 655.354035 
L 439.419053 647.968267 
L 438.265544 649.668938 
L 435.105933 655.208264 
L 434.604408 657.297659 
L 434.25334 658.949738 
L 433.902272 658.998329 
L 431.595255 658.706785 
L 426.880915 655.839941 
L 423.06932 655.013901 
L 418.655896 654.722358 
L 412.537284 653.653365 
L 384.150939 659.581416 
L 381.492853 661.087724 
L 377.681259 660.213093 
L 371.763258 654.479405 
L 370.960817 653.604775 
L 366.748002 649.03726 
L 367.901511 644.955651 
L 371.963868 640.048003 
L 373.117377 632.808007 
L 372.766309 627.025728 
L 370.358986 618.668148 
L 367.349833 612.15701 
L 352.705287 613.954862 
L 349.997049 614.197815 
L 349.194608 612.302782 
L 330.086485 566.093141 
L 316.645601 573.624681 
L 290.867188 560.505224 
L 282.240949 549.572344 
L 272.160285 536.890203 
L 260.725503 522.507391 
L 305.662192 487.327812 
L 307.467683 483.294794 
L 317.197279 461.234671 
L 321.761161 442.72166 
L 338.81303 375.666661 
L 350.348117 339.029364 
L 299.9448 315.122799 
L 298.841444 315.074208 
L 245.128059 288.300799 
L 200.793201 254.093031 
L 191.565131 247.095988 
L 143.067612 253.16981 
L 121.853081 224.69573 
L 124.210251 219.010633 
L 139.757543 215.41493 
L 148.233325 213.617078 
L 155.856513 214.151575 
L 165.23504 213.519897 
L 171.403805 212.88822 
L 178.174399 210.798825 
L 186.04835 207.300303 
L 190.712538 205.210908 
L 193.069708 203.753191 
L 190.662385 198.553999 
L 188.555978 193.111854 
L 188.255063 188.738702 
L 189.107656 184.122597 
L 190.812843 179.214948 
L 194.8752 174.550253 
L 200.743049 170.468644 
L 205.657999 164.929318 
L 205.306931 154.23939 
L 205.256778 147.290937 
L 206.360135 139.759398 
L 208.366237 132.810945 
L 209.770508 124.696318 
L 210.071424 104.336865 
L 210.171729 98.117271 
L 214.835916 96.027876 
L 224.063986 70.809366 
L 226.371004 65.853126 
L 237.855939 41.460656 
L 240.413719 41.266293 
L 244.375771 39.954348 
L 246.53233 37.864953 
L 248.68889 35.046699 
L 249.892552 30.333413 
L 248.989806 27.61234 
L 247.384924 25.765898 
L 243.924398 22.267377 
L 242.620431 20.518116 
L 242.520126 19.108989 
L 242.620431 16.485098 
L 242.971499 14.347112 
L 244.476076 12.45208 
L 246.582483 11.091543 
L 249.190416 10.8 
L 253.302925 10.848591 
L 256.813604 10.945772 
L 259.271079 11.62604 
L 264.186029 14.249931 
L 266.141979 16.387917 
L 267.295488 18.623083 
L 266.894267 20.712478 
L 264.687555 23.773685 
L 263.584199 25.717308 
L 263.985419 27.806703 
L 266.793962 30.139051 
L 268.549302 31.548177 
L 271.307692 32.325627 
L 273.664862 33.005895 
L 277.325999 33.248848 
L 282.943085 32.665761 
L 288.510018 31.645359 
L 294.428019 31.596768 
L 298.991902 32.714351 
L 305.762497 35.14388 
L 312.081718 39.031127 
L 315.191177 41.557837 
L 316.344686 42.772601 
L 321.961772 48.700652 
L 327.82962 54.191387 
L 333.045486 57.446956 
L 338.61242 60.362391 
L 339.164098 61.479974 
L 340.016691 63.375007 
L 340.016691 67.79675 
L 339.515165 75.522652 
L 337.308453 80.964797 
L 334.550063 82.762648 
L 327.82962 84.463318 
L 327.478553 84.706271 
L 325.923823 86.30976 
L 325.372145 88.496336 
L 327.077332 92.334992 
L 331.039384 97.582775 
L 334.550063 98.84613 
L 337.308453 98.84613 
L 340.468064 97.339822 
L 343.427065 96.756735 
L 345.834387 97.096869 
L 347.489422 98.554586 
L 347.890642 99.817941 
L 346.987896 101.664383 
L 344.430116 105.357267 
L 340.367759 110.653641 
L 336.907233 114.881021 
L 335.603266 118.18518 
L 335.753724 121.246387 
L 335.954334 122.31538 
L 346.436218 138.30168 
L 358.823899 148.700064 
L 364.440985 152.830264 
L 370.058071 155.259792 
L 385.75582 157.397778 
L 388.815126 157.349187 
L 391.322754 155.940061 
L 393.228551 147.922615 
L 395.435263 144.861409 
L 397.692128 144.278322 
L 399.347162 145.104361 
L 400.751434 146.464898 
L 404.462723 150.595097 
L 405.917147 154.336571 
L 408.174012 161.090662 
L 409.728741 165.415224 
L 410.330572 165.94972 
L 412.386826 167.747571 
L 414.894454 167.990524 
L 417.452234 167.941934 
L 420.51154 166.532807 
L 421.865659 160.993481 
L 423.370236 158.709724 
L 425.175728 157.106235 
L 427.58305 155.988651 
L 429.839915 155.697108 
L 433.300441 157.057644 
L 435.557306 159.535763 
L 435.858222 161.479387 
L 435.858222 164.492003 
L 431.093729 170.565825 
L 426.479694 178.145955 
L 426.479694 183.102194 
L 427.38244 188.884473 
L 431.244187 194.278028 
L 434.05273 195.930107 
L 451.204903 198.408227 
L 454.565124 199.768763 
L 456.821989 202.246883 
L 458.527176 204.725002 
L 458.878244 210.021375 
L 457.774888 214.686071 
L 453.060548 222.509154 
L 452.308259 225.861904 
L 454.815887 229.943513 
L 459.028702 234.073712 
L 464.69594 238.93277 
L 469.510585 241.556661 
L 474.726451 242.820017 
L 478.939266 242.23693 
L 486.211386 239.127132 
L 489.270692 238.592636 
L 491.226641 238.544046 
L 492.881676 239.078542 
L 494.586862 241.022165 
L 495.489608 245.735451 
L 496.442507 266.435038 
L 496.442507 281.060802 
L 496.442507 287.620531 
L 496.191744 293.159857 
L 495.940981 297.338647 
L 497.345253 300.934349 
L 501.758678 306.81381 
L 506.32256 310.409512 
L 518.258868 315.26857 
L 522.020309 315.025617 
L 525.129768 313.810853 
L 533.404939 311.575686 
L 537.567601 311.818639 
L 540.376144 314.053806 
L 546.595061 325.32682 
L 552.011537 338.835001 
L 552.061689 345.491911 
L 551.810926 348.79607 
L 548.851926 355.161436 
L 548.199943 356.570563 
L 544.889874 361.866936 
L 545.491705 365.171095 
L 551.108791 372.313911 
L 557.478165 379.942632 
L 561.991895 383.003838 
L 567.558828 383.829878 
L 569.615083 383.829878 
L 572.473779 383.829878 
L 574.981406 384.898871 
L 579.695746 377.804646 
L 575.884152 369.349885 
L 575.583237 367.309081 
L 576.987509 362.838748 
L 578.141017 356.32761 
L 578.993611 352.003048 
L 580.147119 348.261574 
L 582.454137 345.929226 
L 586.265731 348.212983 
L 599.20509 352.440364 
L 605.123091 357.056469 
L 606.226448 358.368414 
L 606.577515 358.757139 
L 614.250856 365.073914 
L 616.307111 366.531632 
L 617.510772 369.106932 
L 617.811687 374.306124 
L 618.463671 378.630686 
L 620.820841 386.745313 
L 638.424387 380.282766 
L 637.170573 373.625856 
L 635.665997 367.552034 
L 634.512488 364.976733 
L 639.427438 357.736737 
L 647.602305 348.990432 
L 651.714814 353.606538 
L 657.632815 360.214856 
L 661.795477 364.247874 
L 663.249901 368.572436 
L 663.300054 372.896998 
L 661.293952 378.387733 
L 660.993036 380.720081 
L 662.447461 381.060215 
L 670.672479 382.955247 
L 696.149977 374.74344 
L 705.177437 363.713378 
L 714.806727 353.217813 
L 721.828084 347.14399 
L 729.100205 342.479295 
L 735.8708 338.786411 
" clip-path="url(#pecae44eb08)"/>
   </g>
  </g>
 </g>
 <defs>
  <clipPath id="pecae44eb08">
   <rect x="121.853081" y="10.8" width="836.293838" height="1058.4"/>
  </clipPath>
 </defs>
</svg>
