<?xml version="1.0" encoding="utf-8" standalone="no"?>
<!DOCTYPE svg PUBLIC "-//W3C//DTD SVG 1.1//EN"
  "http://www.w3.org/Graphics/SVG/1.1/DTD/svg11.dtd">
<svg xmlns:xlink="http://www.w3.org/1999/xlink" width="1080pt" height="1080pt" viewBox="0 0 1080 1080" xmlns="http://www.w3.org/2000/svg" version="1.1">
 <metadata>
  <rdf:RDF xmlns:dc="http://purl.org/dc/elements/1.1/" xmlns:cc="http://creativecommons.org/ns#" xmlns:rdf="http://www.w3.org/1999/02/22-rdf-syntax-ns#">
   <cc:Work>
    <dc:type rdf:resource="http://purl.org/dc/dcmitype/StillImage"/>
    <dc:date>2022-07-01T13:43:33.870111</dc:date>
    <dc:format>image/svg+xml</dc:format>
    <dc:creator>
     <cc:Agent>
      <dc:title>Matplotlib v3.5.1, https://matplotlib.org/</dc:title>
     </cc:Agent>
    </dc:creator>
   </cc:Work>
  </rdf:RDF>
 </metadata>
 <defs>
  <style type="text/css">*{stroke-linejoin: round; stroke-linecap: butt}</style>
 </defs>
 <g id="figure_1">
  <g id="patch_1">
   <path d="M 0 1080 
L 1080 1080 
L 1080 0 
L 0 0 
L 0 1080 
z
" style="fill: none; opacity: 0"/>
  </g>
  <g id="axes_1">
   <g id="PatchCollection_1">
    <path d="M 1069.2 548.620013 
L 1046.488109 583.664282 
L 1010.770263 638.769671 
L 1012.258507 639.772727 
L 1016.723238 642.907277 
L 1020.799731 650.367506 
L 1024.423281 661.526504 
L 1025.264462 680.898024 
L 1023.711512 712.431597 
L 1023.970337 718.011096 
L 1024.423281 719.452989 
L 1026.558587 720.14259 
L 1029.405661 718.700697 
L 1033.870392 719.829135 
L 1036.717467 722.587539 
L 1037.946885 727.0386 
L 1039.24101 741.018693 
L 1038.982185 755.24955 
L 1036.717467 769.04157 
L 1030.246842 789.165382 
L 1018.340894 819.821281 
L 1009.023195 839.945092 
L 996.987834 859.630066 
L 996.729009 860.068903 
L 985.081885 876.995473 
L 970.846512 894.36088 
L 965.346482 900.943435 
L 955.511133 912.415889 
L 935.322785 928.214021 
L 918.952106 939.999929 
L 908.599107 947.522849 
L 876.051868 959.872976 
L 847.387003 970.342373 
L 819.822143 978.241439 
L 796.98084 985.20014 
L 778.992505 991.406549 
L 770.774812 994.290335 
L 764.174775 995.481464 
L 758.998276 994.60379 
L 757.315914 992.472296 
L 758.739451 991.093094 
L 763.204182 987.08087 
L 764.821838 984.761303 
L 765.145369 982.943264 
L 765.015956 982.379045 
L 763.592419 981.501371 
L 760.292401 981.501371 
L 757.251207 981.187916 
L 755.115901 980.372933 
L 753.951189 978.993731 
L 752.980595 977.238383 
L 752.592358 977.113001 
L 752.010002 977.363765 
L 746.315853 980.874461 
L 741.139353 985.20014 
L 735.833441 989.149673 
L 729.49223 990.84233 
L 718.233344 993.287279 
L 711.633307 994.979936 
L 707.815639 994.541099 
L 704.774445 992.409605 
L 704.256795 988.209308 
L 704.903858 983.131337 
L 707.233282 979.119113 
L 711.245069 976.548782 
L 712.409782 975.608417 
L 712.409782 974.166524 
L 698.562646 956.801117 
L 693.450853 950.782781 
L 680.897842 938.746109 
L 666.597762 926.019836 
L 650.680027 909.782867 
L 637.091716 901.25689 
L 628.744611 895.050481 
L 620.268093 891.85324 
L 605.256245 887.652943 
L 585.71496 903.451075 
L 583.709066 901.946491 
L 572.709005 894.925099 
L 559.897169 886.21105 
L 538.997053 874.92667 
L 533.626435 871.980193 
L 521.785193 865.460329 
L 519.002824 863.955745 
L 492.408559 845.587282 
L 464.196638 821.702011 
L 437.537666 798.945178 
L 435.855304 797.503285 
L 415.925781 778.884057 
L 404.278657 767.599677 
L 384.025604 749.481978 
L 382.990304 748.478922 
L 373.672605 739.514109 
L 361.443125 726.725145 
L 338.213584 700.144161 
L 323.201736 684.722175 
L 310.778138 673.437795 
L 305.019282 668.234442 
L 304.37222 667.607532 
L 303.85457 666.980622 
L 295.378052 657.138134 
L 285.283878 645.540299 
L 283.989754 643.910333 
L 272.86028 630.118313 
L 270.077912 627.924128 
L 257.266076 617.705495 
L 255.001357 616.075529 
L 240.701278 605.48075 
L 227.889442 598.898195 
L 214.559956 593.882915 
L 209.706988 590.685674 
L 207.830507 589.18109 
L 202.330476 584.667338 
L 194.112784 574.072559 
L 191.265709 570.37379 
L 181.495066 556.456388 
L 172.695017 545.673536 
L 159.365532 533.636863 
L 143.90074 520.28368 
L 120.088843 495.959572 
L 109.541725 486.367849 
L 96.600477 469.817425 
L 85.665122 455.774641 
L 82.365104 447.436738 
L 80.682741 442.922986 
L 76.218011 436.340431 
L 70.523861 429.757876 
L 65.088537 422.736484 
L 62.241462 419.037715 
L 55.576719 410.574429 
L 55.317894 410.198283 
L 53.376707 407.001042 
L 48.070795 398.224302 
L 44.835483 392.958258 
L 42.700177 390.325236 
L 20.700055 365.374218 
L 11.31765 353.086782 
L 10.8 350.955288 
L 11.641181 348.008811 
L 17.529449 345.877317 
L 27.753035 349.388013 
L 42.247234 360.108174 
L 51.95317 367.254948 
L 62.435581 379.29162 
L 69.294443 377.849727 
L 80.294504 375.53016 
L 84.370997 372.583683 
L 90.194559 367.004184 
L 101.518151 360.735084 
L 109.606431 356.597478 
L 111.418206 354.403293 
L 112.453506 350.014923 
L 113.359394 347.068446 
L 117.824124 332.774898 
L 120.024136 328.888056 
L 130.247723 334.78101 
L 137.171291 337.790178 
L 143.512502 338.730543 
L 147.783114 337.978251 
L 150.112539 336.912504 
L 151.277251 335.219847 
L 151.859608 332.210679 
L 153.283145 329.389584 
L 155.09492 327.320781 
L 157.230226 325.502742 
L 161.500838 321.427827 
L 164.089087 319.860552 
L 168.489112 317.979822 
L 173.536199 314.782581 
L 175.477386 313.528761 
L 175.606798 313.089924 
L 175.41268 310.95843 
L 175.283267 307.573116 
L 175.283267 305.755077 
L 208.930513 311.836104 
L 226.789436 282.434024 
L 272.34263 319.672479 
L 272.601455 319.421715 
L 277.130892 314.657199 
L 281.789741 309.641919 
L 283.407397 307.949262 
L 283.860341 307.447734 
L 286.060353 304.877403 
L 290.266259 299.987505 
L 293.242746 296.226045 
L 294.989815 294.031859 
L 295.313346 293.655713 
L 296.413352 292.088438 
L 299.583958 287.637377 
L 303.33692 282.622097 
L 303.466332 282.18326 
L 303.983982 277.544126 
L 304.825164 269.64506 
L 305.536932 261.996758 
L 306.183995 254.975366 
L 306.313407 252.781181 
L 306.378113 250.775069 
L 306.378113 249.960086 
L 306.183995 249.333176 
L 305.92517 248.643575 
L 302.81927 237.547268 
L 302.30162 235.478465 
L 302.107501 234.914246 
L 302.042795 233.973881 
L 302.107501 233.346971 
L 302.30162 232.406606 
L 302.883976 230.588567 
L 304.307514 226.325579 
L 306.572232 220.620698 
L 306.378113 219.49226 
L 308.578126 179.181947 
L 308.707538 178.805801 
L 334.137091 190.591709 
L 397.743327 177.050453 
L 404.149245 177.551981 
L 407.255145 179.746166 
L 409.972807 186.015266 
L 412.819881 193.475495 
L 419.290506 200.873033 
L 419.872862 201.499943 
L 420.196393 201.750707 
L 420.58463 202.126853 
L 425.437599 207.204824 
L 428.155261 209.963228 
L 436.502366 212.282795 
L 437.408253 212.470868 
L 438.443553 212.721632 
L 438.767084 212.470868 
L 444.590646 203.756819 
L 447.373015 199.493831 
L 449.896558 195.66968 
L 459.278963 188.648288 
L 464.002519 185.01221 
L 465.943706 183.382244 
L 467.884893 180.059621 
L 467.884893 175.922015 
L 467.496656 169.527532 
L 467.43195 161.25232 
L 467.108418 151.159069 
L 452.937751 146.394553 
L 460.637794 116.177491 
L 463.549575 104.642347 
L 464.8437 99.18823 
L 470.214318 91.602619 
L 483.220273 84.518536 
L 485.16146 85.020064 
L 511.885138 96.743281 
L 539.708822 120.565861 
L 562.161888 135.862465 
L 576.850205 156.926641 
L 587.526735 169.778296 
L 597.297377 180.435767 
L 613.344525 191.093237 
L 614.185706 191.657456 
L 623.891643 197.048882 
L 630.168148 200.496887 
L 632.432867 201.562634 
L 672.680149 220.495316 
L 688.85671 237.547268 
L 702.509727 249.458558 
L 703.221495 250.085468 
L 707.039164 252.216962 
L 713.833319 255.978422 
L 724.574555 262.059449 
L 741.657003 271.651172 
L 744.957021 274.221503 
L 750.586465 278.484491 
L 764.110069 288.828506 
L 786.886666 301.617471 
L 803.774995 311.648031 
L 824.739818 319.797861 
L 842.857566 327.070017 
L 859.681188 335.784066 
L 860.069426 336.097521 
L 877.928349 348.071502 
L 894.816678 362.741196 
L 906.334389 375.216705 
L 920.310937 390.826764 
L 941.211053 415.150872 
L 950.39934 425.432197 
L 954.86407 430.447477 
L 971.881812 446.433682 
L 993.364284 463.611016 
L 1000.611384 470.256262 
L 1014.587932 482.982535 
L 1026.429174 493.890769 
L 1038.20571 509.814283 
L 1045.77634 521.161354 
L 1055.029333 535.016065 
L 1069.2 548.620013 
" clip-path="url(#p0a5375bcce)"/>
   </g>
  </g>
 </g>
 <defs>
  <clipPath id="p0a5375bcce">
   <rect x="10.8" y="84.518536" width="1058.4" height="910.962928"/>
  </clipPath>
 </defs>
</svg>
