<?xml version="1.0" encoding="utf-8" standalone="no"?>
<!DOCTYPE svg PUBLIC "-//W3C//DTD SVG 1.1//EN"
  "http://www.w3.org/Graphics/SVG/1.1/DTD/svg11.dtd">
<svg xmlns:xlink="http://www.w3.org/1999/xlink" width="1080pt" height="1080pt" viewBox="0 0 1080 1080" xmlns="http://www.w3.org/2000/svg" version="1.1">
 <metadata>
  <rdf:RDF xmlns:dc="http://purl.org/dc/elements/1.1/" xmlns:cc="http://creativecommons.org/ns#" xmlns:rdf="http://www.w3.org/1999/02/22-rdf-syntax-ns#">
   <cc:Work>
    <dc:type rdf:resource="http://purl.org/dc/dcmitype/StillImage"/>
    <dc:date>2022-07-01T13:43:33.924188</dc:date>
    <dc:format>image/svg+xml</dc:format>
    <dc:creator>
     <cc:Agent>
      <dc:title>Matplotlib v3.5.1, https://matplotlib.org/</dc:title>
     </cc:Agent>
    </dc:creator>
   </cc:Work>
  </rdf:RDF>
 </metadata>
 <defs>
  <style type="text/css">*{stroke-linejoin: round; stroke-linecap: butt}</style>
 </defs>
 <g id="figure_1">
  <g id="patch_1">
   <path d="M 0 1080 
L 1080 1080 
L 1080 0 
L 0 0 
L 0 1080 
z
" style="fill: none; opacity: 0"/>
  </g>
  <g id="axes_1">
   <g id="PatchCollection_1">
    <path d="M 782.716197 65.203108 
L 795.623487 63.281809 
L 798.928588 63.248102 
L 803.346986 63.618879 
L 812.288155 65.540178 
L 810.583419 71.607439 
L 810.235513 76.292713 
L 810.270304 77.708408 
L 811.105277 79.090395 
L 815.801999 83.843083 
L 826.308742 94.258548 
L 827.526411 95.505707 
L 827.665573 96.247261 
L 827.42204 97.393299 
L 826.378323 100.831414 
L 826.13479 103.224611 
L 826.16958 105.516688 
L 826.343533 107.673936 
L 826.761019 109.561529 
L 828.570127 112.460331 
L 831.31858 115.460255 
L 835.458654 118.460178 
L 837.546086 121.089325 
L 839.772681 124.628561 
L 840.746816 127.89814 
L 841.477417 129.414955 
L 842.138438 130.055389 
L 843.390897 130.15651 
L 848.435525 130.089096 
L 851.010025 130.695822 
L 853.619316 132.212637 
L 856.820045 135.583338 
L 859.70766 138.852917 
L 862.073417 141.212408 
L 864.473964 144.852764 
L 865.100193 146.639236 
L 865.761214 149.706573 
L 866.909302 151.99865 
L 868.196551 154.459261 
L 868.614038 156.414268 
L 870.736261 165.481452 
L 870.771051 166.661197 
L 870.457937 168.346548 
L 869.553383 170.166726 
L 866.630977 173.84079 
L 866.1787 174.852 
L 865.865585 175.694675 
L 865.865585 176.301401 
L 866.526606 184.930395 
L 867.535531 188.166268 
L 868.509666 190.121274 
L 869.866497 191.874038 
L 870.527518 192.918955 
L 870.527518 193.424561 
L 870.318774 193.829045 
L 869.588173 194.166115 
L 866.422234 195.076204 
L 863.673781 196.593019 
L 852.819133 204.143389 
L 844.504194 210.648841 
L 837.650458 216.85093 
L 836.954647 217.626191 
L 836.50237 218.637401 
L 835.249911 224.199057 
L 834.797634 230.603389 
L 834.5541 234.547108 
L 834.067033 237.445911 
L 833.89308 238.086344 
L 833.545174 238.389707 
L 829.4051 238.490828 
L 828.187431 238.524535 
L 827.700364 238.659363 
L 827.561202 238.962726 
L 827.561202 239.232382 
L 828.361384 240.951439 
L 831.214208 245.063694 
L 831.910019 246.344561 
L 831.94481 247.052408 
L 831.596904 248.535516 
L 830.414026 250.760178 
L 829.4051 252.782599 
L 829.196357 253.793809 
L 828.918033 254.400535 
L 829.265938 256.052178 
L 829.683425 258.782446 
L 830.066121 259.557707 
L 830.866303 260.568917 
L 832.257924 261.411592 
L 833.510384 262.052025 
L 836.154465 262.726166 
L 836.432789 262.726166 
L 837.372134 262.355389 
L 840.572863 258.816153 
L 844.22587 255.613987 
L 845.373958 255.108382 
L 846.452464 254.90614 
L 847.078694 255.007261 
L 847.287437 255.310624 
L 847.287437 255.883643 
L 845.54791 258.344255 
L 841.512208 265.15307 
L 839.250823 268.726013 
L 838.207107 269.602395 
L 836.919857 270.006879 
L 834.728053 270.141707 
L 825.752094 267.579975 
L 819.489797 265.692382 
L 817.611107 265.119363 
L 816.010743 265.15307 
L 814.445168 265.557554 
L 804.390703 268.793427 
L 803.138243 269.602395 
L 801.468297 270.883261 
L 801.050811 271.961885 
L 800.946439 273.242752 
L 799.450446 285.410981 
L 799.03296 286.894089 
L 797.815291 289.92772 
L 796.875946 292.017554 
L 796.667203 293.568076 
L 796.667203 295.826446 
L 797.328223 297.478089 
L 798.371939 299.129732 
L 799.172122 301.017325 
L 799.06775 303.275694 
L 797.7805 310.893478 
L 797.328223 316.623669 
L 796.597622 318.07307 
L 795.588696 319.016866 
L 793.014196 319.657299 
L 786.647528 320.66851 
L 784.351352 321.410064 
L 782.194339 322.488688 
L 781.185413 323.70214 
L 781.220204 324.881885 
L 782.542244 328.084051 
L 782.820568 330.106471 
L 782.716197 333.376051 
L 782.194339 337.724255 
L 781.950805 340.488229 
L 781.707271 341.26349 
L 781.01146 342.578064 
L 779.759001 343.252204 
L 777.219291 343.926344 
L 775.236231 343.825223 
L 772.696521 343.589274 
L 771.444062 343.85893 
L 769.043515 345.342038 
L 767.130035 348.13972 
L 765.912366 351.678955 
L 765.773204 353.667669 
L 765.807995 355.083363 
L 766.121109 356.80242 
L 767.686684 358.892255 
L 772.244244 361.723643 
L 775.653717 363.644943 
L 776.767014 364.68986 
L 776.801805 365.465121 
L 776.105994 366.139261 
L 762.502893 371.66721 
L 757.77138 372.948076 
L 752.413637 373.655924 
L 750.360995 373.992994 
L 749.943509 374.228943 
L 749.769556 374.566013 
L 749.699975 375.206446 
L 750.63932 376.217656 
L 752.030941 377.262573 
L 755.127299 378.644561 
L 757.980123 380.532153 
L 759.789231 382.25121 
L 760.137137 382.959057 
L 760.137137 383.296127 
L 759.963184 383.666904 
L 754.988137 388.588127 
L 752.726752 390.779083 
L 751.439502 391.183567 
L 750.500157 391.048739 
L 747.125475 389.329682 
L 745.594691 388.453299 
L 744.724928 388.082522 
L 743.889955 388.082522 
L 743.437678 388.318471 
L 742.28959 390.172357 
L 741.593779 390.745376 
L 740.236948 391.217274 
L 730.112901 394.385732 
L 728.651699 394.958752 
L 728.164631 395.498064 
L 727.921097 396.071083 
L 728.582118 399.846268 
L 729.208347 403.284382 
L 729.764996 406.789911 
L 731.121827 413.463898 
L 732.304705 418.654777 
L 732.513449 420.137885 
L 732.443868 420.913146 
L 732.165543 421.182803 
L 731.400151 421.519873 
L 729.556253 421.991771 
L 728.547327 422.868153 
L 727.816726 423.91307 
L 727.642773 425.059108 
L 727.573192 426.171439 
L 727.086125 430.688178 
L 726.912172 431.733096 
L 726.529476 432.440943 
L 726.18157 432.946548 
L 725.416179 433.317325 
L 724.2333 433.688102 
L 724.059348 434.092586 
L 724.059348 436.013885 
L 725.033483 438.339669 
L 727.677564 441.103643 
L 731.052246 444.440637 
L 732.304705 445.687796 
L 735.575016 449.092204 
L 737.871192 452.631439 
L 739.471556 455.193172 
L 741.176293 457.181885 
L 742.498333 458.125682 
L 743.855164 458.900943 
L 744.655347 459.305427 
L 745.107624 459.305427 
L 745.559901 459.069478 
L 746.534036 458.125682 
L 747.43859 457.586369 
L 747.821286 457.451541 
L 748.343144 457.451541 
L 749.073745 457.822318 
L 749.595603 458.900943 
L 752.204894 464.192943 
L 752.413637 465.001911 
L 752.378847 465.473809 
L 752.239684 465.743465 
L 751.404711 466.720968 
L 750.743691 467.496229 
L 750.569738 468.102955 
L 750.465367 469.013045 
L 750.360995 471.237707 
L 750.465367 472.417452 
L 751.161178 474.271338 
L 753.039867 477.304968 
L 756.066644 481.349809 
L 757.910542 483.203694 
L 759.023839 482.731796 
L 762.433312 480.979032 
L 763.5814 480.641962 
L 764.764278 480.844204 
L 774.122934 484.383439 
L 777.14971 485.327236 
L 778.054264 486.271032 
L 778.089055 487.888968 
L 778.228217 489.709146 
L 778.123846 490.990013 
L 777.77594 491.630446 
L 777.219291 492.068637 
L 772.174663 493.753987 
L 769.078305 495.944943 
L 762.95517 502.551516 
L 762.398522 503.529019 
L 762.29415 504.371694 
L 762.781218 506.967134 
L 763.163914 510.068178 
L 763.198704 511.686115 
L 762.850799 512.86586 
L 761.946245 513.607414 
L 759.545698 514.180433 
L 758.293238 514.618624 
L 757.701799 515.056815 
L 754.431488 518.764586 
L 753.074657 521.124076 
L 752.413637 523.180204 
L 752.100522 526.382369 
L 752.204894 529.314879 
L 752.657171 531.10135 
L 753.561725 533.494548 
L 754.257536 534.067567 
L 756.797245 534.134981 
L 757.562637 534.202395 
L 758.362819 534.438344 
L 759.406535 535.618089 
L 761.111272 538.213529 
L 761.63313 539.089911 
L 761.63313 539.730344 
L 758.571562 543.505529 
L 756.762454 545.730191 
L 756.275387 546.842522 
L 756.310177 548.089682 
L 756.762454 550.651414 
L 756.797245 552.471592 
L 756.275387 554.022115 
L 755.405623 555.134446 
L 752.378847 557.628764 
L 751.856988 558.538854 
L 751.856988 559.14558 
L 752.413637 559.954548 
L 757.179941 564.302752 
L 758.501981 566.12293 
L 760.763366 570.370013 
L 763.859724 574.515975 
L 766.399434 577.044 
L 771.791967 581.695567 
L 773.670656 583.886522 
L 775.097069 586.077478 
L 774.992697 588.066191 
L 774.888325 590.493096 
L 774.923116 593.189656 
L 775.479765 596.998548 
L 776.523481 599.695108 
L 777.184501 600.874854 
L 777.671569 601.751236 
L 778.297798 603.504 
L 778.471751 606.43651 
L 778.784866 611.15549 
L 778.924028 613.616102 
L 779.585048 615.335159 
L 780.837508 616.616025 
L 781.150622 616.649732 
L 784.83842 616.919389 
L 786.82148 616.885682 
L 788.595798 617.458701 
L 789.222028 618.267669 
L 789.256818 620.121554 
L 788.943703 626.02028 
L 788.73496 631.177452 
L 788.943703 631.919006 
L 789.639514 632.559439 
L 793.640426 634.076255 
L 799.03296 636.975057 
L 804.947351 640.446879 
L 806.025858 641.458089 
L 806.860831 642.536713 
L 808.182871 645.50293 
L 811.835878 651.570191 
L 812.63606 652.952178 
L 813.331871 653.693732 
L 813.853729 653.929682 
L 815.83679 654.772357 
L 818.341709 656.053223 
L 819.837702 656.592535 
L 821.820763 656.727363 
L 824.395263 656.997019 
L 827.178506 657.43521 
L 829.37031 658.041936 
L 830.587979 658.581248 
L 831.770857 659.862115 
L 833.475593 662.289019 
L 831.248999 665.221529 
L 829.787796 667.446191 
L 828.222222 670.850599 
L 827.978688 671.558446 
L 827.978688 672.232586 
L 828.396175 672.738191 
L 829.4051 673.884229 
L 829.718215 674.760611 
L 829.787796 678.367261 
L 829.196357 685.445732 
L 829.091985 688.614191 
L 829.300729 693.434293 
L 829.544262 694.47921 
L 830.03133 695.288178 
L 831.492533 696.569045 
L 831.805647 697.613962 
L 831.9796 700.10828 
L 832.014391 702.096994 
L 831.840438 703.243032 
L 831.214208 705.198038 
L 830.935884 705.905885 
L 830.483607 706.41149 
L 829.822587 706.681146 
L 827.143715 707.65865 
L 825.647722 708.568739 
L 824.84754 709.141758 
L 824.2561 709.815898 
L 824.151729 710.422624 
L 824.22131 711.096764 
L 825.334607 714.737121 
L 825.404188 716.085401 
L 825.404188 716.826955 
L 824.708377 718.444892 
L 823.838614 719.961707 
L 823.038432 720.770675 
L 822.099087 721.478522 
L 820.289979 721.883006 
L 818.620033 721.984127 
L 816.706553 722.152662 
L 815.523675 722.354904 
L 808.252452 723.736892 
L 805.851905 724.579567 
L 803.903635 725.860433 
L 802.477223 727.309834 
L 802.059736 728.017682 
L 801.155182 731.556917 
L 800.911649 734.422013 
L 801.329135 735.770293 
L 804.21675 742.983592 
L 807.626223 750.062064 
L 809.052635 754.376561 
L 809.435331 756.466395 
L 809.818027 759.466318 
L 809.644074 762.129172 
L 809.296169 765.365045 
L 809.122216 766.949274 
L 809.191797 768.095312 
L 809.157006 769.679541 
L 809.017844 770.286268 
L 808.426405 771.128943 
L 807.41748 771.904204 
L 803.138243 774.465936 
L 801.955365 775.308611 
L 799.937514 777.162497 
L 799.206912 777.937758 
L 798.545892 778.14 
L 797.989243 778.14 
L 797.467385 777.735516 
L 795.206 774.634471 
L 794.475399 773.52214 
L 793.362102 772.881707 
L 792.109642 772.612051 
L 791.30946 772.544637 
L 789.152446 772.713172 
L 782.820568 773.623261 
L 780.802717 774.331108 
L 780.176487 774.937834 
L 779.550258 776.151287 
L 779.097981 777.80293 
L 779.132771 778.578191 
L 779.132771 780.364662 
L 779.68942 786.398217 
L 779.654629 791.386854 
L 779.237143 793.645223 
L 778.576123 796.611439 
L 778.715285 798.263083 
L 780.037325 803.453962 
L 781.01146 805.307847 
L 781.742062 806.555006 
L 782.124758 807.633631 
L 782.124758 808.408892 
L 781.811643 810.161656 
L 781.359366 812.25149 
L 780.35044 817.644611 
L 780.037325 819.161427 
L 780.072116 820.914191 
L 781.602899 823.105146 
L 784.107818 827.015159 
L 785.882136 827.992662 
L 787.552082 827.958955 
L 791.622575 826.610675 
L 795.83223 825.026446 
L 797.571757 824.453427 
L 798.40673 824.453427 
L 798.998169 824.655669 
L 801.468297 826.374726 
L 802.372851 826.947745 
L 804.425493 827.891541 
L 806.199811 828.970166 
L 806.895621 829.913962 
L 806.895621 830.621809 
L 806.82604 831.161121 
L 805.921486 832.812764 
L 803.764473 835.67786 
L 801.850993 838.37442 
L 800.772487 839.891236 
L 799.937514 840.599083 
L 798.859007 841.104688 
L 796.841156 841.913656 
L 795.345162 842.958573 
L 793.014196 845.115822 
L 792.770663 845.655134 
L 792.701081 846.194446 
L 792.875034 847.138242 
L 793.466473 849.194369 
L 794.266656 850.913427 
L 794.962466 852.093172 
L 796.145345 852.868433 
L 797.884872 854.048178 
L 798.511101 854.722318 
L 798.719845 855.16051 
L 798.580683 856.272841 
L 798.267568 857.587414 
L 797.850081 858.463796 
L 796.806365 859.239057 
L 794.579771 861.059236 
L 792.735872 862.373809 
L 791.657365 862.812 
L 789.569933 863.385019 
L 788.630588 863.856917 
L 787.760825 864.935541 
L 784.073028 869.148917 
L 780.733136 873.530828 
L 779.585048 875.08135 
L 779.306724 875.890318 
L 778.854447 877.67679 
L 777.010548 883.036204 
L 776.384319 884.923796 
L 776.001623 885.901299 
L 775.584136 886.373197 
L 774.853535 886.845096 
L 773.740238 887.148459 
L 771.757177 887.384408 
L 770.539508 887.92372 
L 766.642968 890.687694 
L 765.042603 892.069682 
L 764.485954 892.642701 
L 764.520745 893.283134 
L 764.694697 893.755032 
L 765.912366 894.462879 
L 770.817832 896.653834 
L 772.905265 898.406599 
L 773.531494 899.282981 
L 773.8794 901.136866 
L 773.25317 904.743516 
L 772.835684 906.192917 
L 772.522569 906.867057 
L 771.93113 907.440076 
L 769.147886 908.215338 
L 768.382495 908.586115 
L 767.686684 909.159134 
L 766.921292 910.574828 
L 766.434224 912.057936 
L 766.434224 912.900611 
L 766.573387 913.810701 
L 768.486866 917.956662 
L 769.530582 921.664433 
L 772.105082 929.046268 
L 774.992697 936.798879 
L 776.314737 940.50665 
L 777.428035 941.248204 
L 779.515467 942.596484 
L 781.220204 943.405452 
L 781.811643 943.978471 
L 782.750987 945.528994 
L 783.655541 948.023312 
L 784.281771 950.247975 
L 784.490514 951.731083 
L 784.21219 952.674879 
L 783.342426 955.270318 
L 782.020386 959.820764 
L 781.742062 961.236459 
L 781.776852 962.247669 
L 783.864284 965.011643 
L 785.360278 965.820611 
L 787.586872 966.562166 
L 788.73496 967.067771 
L 789.778676 967.910446 
L 792.979406 972.191236 
L 797.536966 977.483236 
L 803.903635 986.415592 
L 805.504 988.741376 
L 806.338973 990.595261 
L 806.895621 992.246904 
L 807.313108 993.190701 
L 807.765385 993.595185 
L 809.122216 993.965962 
L 812.044621 994.235618 
L 814.340797 994.10079 
L 814.862655 994.201911 
L 815.906371 994.77493 
L 818.237337 997.269248 
L 821.403276 1000.673656 
L 821.507648 1001.145554 
L 821.472857 1001.381503 
L 821.403276 1001.920815 
L 818.759195 1006.842038 
L 817.019668 1009.100408 
L 813.92331 1011.965503 
L 812.079412 1014.156459 
L 811.140067 1015.437325 
L 810.653 1016.785605 
L 809.887608 1020.998981 
L 808.843892 1024.167439 
L 808.426405 1025.111236 
L 807.591432 1025.987618 
L 806.895621 1026.729172 
L 806.547716 1027.20107 
L 806.269392 1027.740382 
L 805.643162 1029.122369 
L 804.495074 1033.403159 
L 804.008007 1034.481783 
L 803.242615 1035.594115 
L 802.198899 1036.470497 
L 801.503088 1036.706446 
L 800.076676 1036.504204 
L 798.650264 1035.931185 
L 797.502176 1035.358166 
L 796.562831 1035.155924 
L 795.727858 1035.155924 
L 794.649352 1035.627822 
L 793.396892 1036.672739 
L 789.604723 1040.784994 
L 788.387055 1041.964739 
L 786.891061 1042.672586 
L 782.890149 1044.492764 
L 782.159548 1044.695006 
L 781.881224 1043.582675 
L 780.802717 1041.560255 
L 780.246068 1041.560255 
L 779.932954 1041.627669 
L 779.132771 1042.06586 
L 778.43696 1042.874828 
L 777.532406 1045.470268 
L 776.906177 1047.627516 
L 776.419109 1048.840968 
L 775.82767 1049.71735 
L 774.296886 1050.829682 
L 773.044427 1051.436408 
L 772.313825 1051.503822 
L 771.165738 1051.234166 
L 767.860636 1049.852178 
L 764.451164 1048.166828 
L 761.737502 1046.650013 
L 761.076481 1046.447771 
L 760.693785 1046.650013 
L 760.067556 1047.425274 
L 759.023839 1049.515108 
L 758.4324 1050.290369 
L 757.73659 1050.829682 
L 755.579576 1051.63865 
L 752.239684 1052.616153 
L 751.613455 1052.548739 
L 750.882853 1052.211669 
L 749.526022 1051.166752 
L 748.865002 1050.829682 
L 748.169191 1050.661146 
L 747.716914 1050.694854 
L 747.090685 1050.998217 
L 745.977387 1051.908306 
L 745.733854 1052.177962 
L 745.52511 1052.515032 
L 745.594691 1052.919516 
L 745.942597 1054.402624 
L 745.838225 1055.481248 
L 745.52511 1056.526166 
L 744.933671 1057.166599 
L 744.585766 1057.402548 
L 743.437678 1057.537376 
L 739.819462 1057.402548 
L 732.061172 1058.27893 
L 731.365361 1058.380051 
L 728.686489 1059.728331 
L 727.225287 1060.436178 
L 725.972827 1060.773248 
L 723.676652 1061.312561 
L 722.806888 1061.582217 
L 722.215449 1061.919287 
L 721.136942 1062.694548 
L 719.67574 1064.346191 
L 718.527652 1065.829299 
L 717.936213 1066.705682 
L 717.483936 1067.716892 
L 717.170821 1068.559567 
L 716.962078 1068.964051 
L 716.788125 1069.2 
L 716.47501 1069.2 
L 714.839855 1066.604561 
L 713.413443 1064.177656 
L 712.961166 1063.166446 
L 712.369726 1061.110318 
L 712.195774 1060.267643 
L 711.95224 1059.762038 
L 711.465172 1059.256433 
L 708.020909 1056.59358 
L 706.664078 1055.68349 
L 706.003058 1055.481248 
L 704.85497 1055.34642 
L 698.453511 1054.705987 
L 697.618538 1054.807108 
L 696.922727 1055.076764 
L 695.009247 1056.323924 
L 693.408883 1057.368841 
L 692.817443 1057.60479 
L 692.365166 1057.638497 
L 687.494491 1056.829529 
L 686.937842 1056.526166 
L 686.520356 1056.121682 
L 685.998498 1055.110471 
L 685.47664 1053.088051 
L 685.337477 1051.200459 
L 685.024363 1050.39149 
L 684.432923 1049.751057 
L 683.945856 1049.413987 
L 680.710336 1047.593809 
L 679.840572 1047.223032 
L 678.936018 1046.919669 
L 676.431099 1046.751134 
L 674.691572 1046.582599 
L 673.578275 1046.279236 
L 671.630005 1045.402854 
L 670.829823 1045.133197 
L 670.134012 1045.032076 
L 669.090296 1044.964662 
L 668.429275 1044.964662 
L 667.42035 1045.166904 
L 665.611242 1045.706217 
L 664.985012 1046.043287 
L 664.497945 1046.447771 
L 664.010877 1047.155618 
L 663.280276 1048.36907 
L 662.236559 1049.413987 
L 661.436377 1049.751057 
L 659.383735 1050.324076 
L 656.148215 1050.694854 
L 654.269526 1050.728561 
L 652.008141 1050.290369 
L 650.546938 1050.088127 
L 649.607594 1050.121834 
L 648.73783 1050.324076 
L 647.311418 1050.762268 
L 646.372074 1051.30158 
L 642.231999 1055.953146 
L 641.64056 1056.728408 
L 641.014331 1057.672204 
L 640.666425 1058.851949 
L 640.666425 1059.863159 
L 641.292655 1061.278854 
L 642.475533 1062.829376 
L 642.614695 1063.23386 
L 642.475533 1063.436102 
L 642.197209 1063.503516 
L 637.952763 1063.065325 
L 636.074074 1062.357478 
L 633.673527 1061.447389 
L 632.142743 1060.908076 
L 631.133817 1060.773248 
L 629.603034 1060.806955 
L 629.498662 1059.458675 
L 629.289919 1058.447465 
L 628.280993 1057.132892 
L 626.645838 1055.852025 
L 624.83673 1055.110471 
L 623.271156 1054.975643 
L 620.557494 1055.34642 
L 614.260406 1058.481172 
L 612.103392 1059.189019 
L 610.294284 1059.054191 
L 608.902663 1058.616 
L 606.397744 1056.526166 
L 605.145285 1055.043057 
L 604.17115 1053.222879 
L 603.649291 1051.267873 
L 603.301386 1049.009503 
L 603.266596 1046.211822 
L 603.614501 1043.818624 
L 604.553845 1040.549045 
L 604.693008 1039.032229 
L 604.345102 1037.616535 
L 602.953481 1035.223338 
L 602.048927 1034.009885 
L 600.170238 1032.762726 
L 597.978434 1031.785223 
L 595.856211 1030.841427 
L 591.820508 1029.695389 
L 584.514495 1029.22349 
L 581.174603 1028.448229 
L 580.826698 1028.380815 
L 579.609029 1027.639261 
L 578.460941 1026.021325 
L 578.078245 1024.571924 
L 578.147826 1023.762955 
L 578.530522 1023.122522 
L 579.400286 1022.077605 
L 584.82761 1016.853019 
L 585.279887 1015.369911 
L 585.279887 1014.324994 
L 584.897191 1013.549732 
L 584.027427 1012.167745 
L 582.531434 1010.718344 
L 580.061306 1009.134115 
L 575.260211 1005.999363 
L 569.658935 1001.583745 
L 565.310117 997.067006 
L 562.839989 993.325529 
L 562.074597 991.707592 
L 561.657111 989.48293 
L 561.448367 987.157146 
L 561.309205 984.393172 
L 560.926509 983.17972 
L 559.500097 981.191006 
L 558.178057 979.842726 
L 558.282428 979.57307 
L 559.082611 978.157376 
L 560.369861 976.842803 
L 561.378786 976.067541 
L 563.501009 975.595643 
L 564.127239 975.258573 
L 564.335982 974.651847 
L 564.301192 973.876586 
L 564.19682 972.224943 
L 563.605381 970.33735 
L 562.735617 968.247516 
L 561.030881 965.079057 
L 560.369861 964.37121 
L 559.917584 964.135261 
L 559.430516 963.966726 
L 557.690989 963.730777 
L 553.690077 963.157758 
L 549.167307 962.449911 
L 548.401915 962.281376 
L 547.845267 961.843185 
L 546.905922 960.562318 
L 544.261841 957.124204 
L 542.661476 954.46135 
L 541.687341 952.337809 
L 541.687341 951.360306 
L 542.27878 950.281682 
L 543.392078 949.573834 
L 546.244902 947.618828 
L 548.923773 944.652611 
L 551.324321 941.281911 
L 552.368037 938.855006 
L 552.368037 936.933707 
L 551.602645 933.360764 
L 549.654375 926.518242 
L 540.608834 925.776688 
L 527.597173 924.29358 
L 524.639977 923.38349 
L 522.90045 922.574522 
L 513.994072 917.349936 
L 512.56766 915.597172 
L 512.56766 914.282599 
L 512.880775 911.855694 
L 512.845984 911.046726 
L 511.802268 910.237758 
L 510.236694 910.10293 
L 509.019025 910.10293 
L 505.052903 909.833274 
L 503.139424 908.889478 
L 501.886964 907.305248 
L 501.330316 905.687312 
L 501.121572 903.091873 
L 500.669295 901.87842 
L 499.764741 901.54135 
L 498.547073 901.372815 
L 490.232134 900.597554 
L 489.084046 900.462726 
L 488.144701 900.698675 
L 486.509546 901.844713 
L 484.21337 903.833427 
L 482.23031 906.058089 
L 481.708452 906.125503 
L 481.360546 905.990675 
L 481.186593 905.350242 
L 481.290965 903.496357 
L 480.455992 901.271694 
L 479.65581 900.294191 
L 477.637958 898.84479 
L 476.141965 896.856076 
L 475.376573 894.732535 
L 475.202621 891.29442 
L 472.697702 890.013554 
L 471.653986 889.777605 
L 470.575479 889.811312 
L 465.078574 891.766318 
L 461.425567 892.912357 
L 460.242689 892.912357 
L 459.442506 892.474166 
L 458.120466 891.193299 
L 455.337223 888.024841 
L 454.049973 887.047338 
L 452.380027 886.305783 
L 450.153433 885.901299 
L 446.848331 885.935006 
L 445.074014 885.833885 
L 443.54323 885.530522 
L 438.672555 884.148535 
L 434.880386 882.665427 
L 434.184575 882.024994 
L 433.801879 880.71042 
L 433.767089 878.384637 
L 433.384393 876.631873 
L 432.54942 875.75549 
L 431.470913 875.216178 
L 429.940129 874.575745 
L 424.269271 872.789274 
L 423.190765 872.452204 
L 422.147048 872.587032 
L 419.537758 873.73307 
L 417.798231 870.800561 
L 416.545772 869.014089 
L 410.492218 860.519924 
L 409.448502 859.036815 
L 408.091671 857.722242 
L 405.865076 856.104306 
L 403.394948 854.183006 
L 401.725002 853.171796 
L 399.915894 852.362828 
L 398.211158 851.654981 
L 393.096948 850.037045 
L 392.783833 849.935924 
L 392.749043 849.261783 
L 392.818624 848.419108 
L 393.270901 847.576433 
L 393.931921 846.902293 
L 394.210246 846.767465 
L 394.697313 846.700051 
L 396.610793 847.374191 
L 397.167441 847.374191 
L 397.72409 847.104535 
L 397.967624 846.700051 
L 402.177279 845.385478 
L 403.53411 844.846166 
L 403.951596 844.542803 
L 404.299502 844.00349 
L 404.647407 843.228229 
L 404.890941 842.621503 
L 405.586752 841.30693 
L 406.665259 840.093478 
L 406.839211 839.924943 
L 407.187117 839.722701 
L 407.569813 839.655287 
L 407.813346 839.62158 
L 408.126461 839.486752 
L 408.300414 839.28451 
L 408.543948 838.947439 
L 408.648319 838.71149 
L 408.68311 838.441834 
L 408.648319 838.03735 
L 408.474367 837.531745 
L 408.161252 836.587949 
L 408.02209 835.913809 
L 408.196042 835.34079 
L 408.543948 834.970013 
L 410.596589 832.779057 
L 412.649231 830.217325 
L 413.414623 828.902752 
L 413.797319 828.060076 
L 413.901691 827.419643 
L 413.762529 826.711796 
L 413.414623 826.10507 
L 411.570725 824.790497 
L 407.708975 821.891694 
L 407.117536 821.318675 
L 406.804421 820.374879 
L 406.700049 819.262548 
L 406.839211 818.352459 
L 407.361069 817.307541 
L 410.492218 814.341325 
L 411.083657 814.105376 
L 412.057792 813.936841 
L 412.927556 813.768306 
L 413.310252 813.464943 
L 413.971272 812.25149 
L 416.4414 806.453885 
L 416.893677 805.004484 
L 417.137211 803.453962 
L 417.485116 802.004561 
L 418.667995 799.105758 
L 419.746501 797.083338 
L 420.755427 795.667643 
L 421.938305 794.69014 
L 424.060528 793.274446 
L 427.330839 791.926166 
L 429.940129 791.218318 
L 430.705521 790.914955 
L 430.983845 790.611592 
L 430.949055 789.971159 
L 430.670731 788.757707 
L 430.00971 787.274599 
L 429.244318 786.195975 
L 428.444136 785.521834 
L 426.14796 784.308382 
L 424.999873 783.533121 
L 424.304062 782.791567 
L 423.712623 781.40958 
L 422.91244 779.555694 
L 422.042677 778.241121 
L 421.068542 777.196204 
L 420.372731 776.656892 
L 419.746501 776.45465 
L 417.345954 776.252408 
L 414.145224 776.050166 
L 412.196954 775.645682 
L 410.979285 774.937834 
L 405.656333 769.342471 
L 403.499319 766.54479 
L 399.846313 761.724688 
L 397.932833 759.33149 
L 396.784745 756.668637 
L 395.323543 752.320433 
L 394.697313 750.972153 
L 394.210246 750.432841 
L 393.653597 750.163185 
L 390.487658 749.960943 
L 389.130827 749.691287 
L 386.347584 747.871108 
L 382.694577 744.972306 
L 381.998766 743.994803 
L 380.815888 740.893758 
L 380.085287 737.792713 
L 379.841753 732.905197 
L 379.702591 727.781732 
L 379.493847 726.871643 
L 378.519712 725.388535 
L 375.214611 721.343694 
L 373.85778 720.534726 
L 371.492023 720.298777 
L 369.613334 720.332484 
L 367.247578 720.703261 
L 365.995118 720.736968 
L 364.81224 720.197656 
L 363.594571 719.085325 
L 362.794389 718.613427 
L 362.098578 718.512306 
L 361.159233 718.57972 
L 360.045936 718.714548 
L 359.524078 718.680841 
L 359.071801 718.377478 
L 355.627538 715.242726 
L 354.931727 714.366344 
L 354.722984 713.692204 
L 354.722984 713.152892 
L 355.453585 707.557529 
L 355.871071 706.782268 
L 358.3412 704.422777 
L 359.767612 702.535185 
L 361.228814 699.703796 
L 361.646301 698.625172 
L 362.516064 692.557911 
L 362.516064 691.984892 
L 362.307321 691.546701 
L 361.889835 691.344459 
L 360.463422 690.670318 
L 359.698031 689.962471 
L 359.141382 688.917554 
L 358.967429 688.344535 
L 359.245754 686.962548 
L 359.698031 684.839006 
L 359.941564 683.726675 
L 359.941564 683.355898 
L 359.906774 682.850293 
L 359.767612 682.54693 
L 359.524078 682.310981 
L 359.141382 682.142446 
L 358.793477 682.041325 
L 352.461598 680.928994 
L 351.765788 680.928994 
L 350.896024 681.063822 
L 347.243018 682.513223 
L 346.199301 683.052535 
L 345.747024 683.389605 
L 344.390193 684.704178 
L 343.068153 686.794013 
L 341.467788 688.108586 
L 340.215329 688.142293 
L 333.465964 686.018752 
L 333.152849 684.90642 
L 333.013687 684.097452 
L 332.457038 682.917707 
L 331.865599 682.176153 
L 331.482903 681.636841 
L 331.413322 681.333478 
L 331.27416 680.187439 
L 331.134998 678.704331 
L 331.134998 677.592 
L 331.726437 675.367338 
L 332.874525 674.120178 
L 333.257221 671.389911 
L 333.674707 670.176459 
L 334.579261 669.097834 
L 336.562322 667.648433 
L 336.771065 666.637223 
L 337.953944 661.716 
L 338.510592 659.457631 
L 338.684545 657.266675 
L 338.197477 654.772357 
L 337.188552 652.48028 
L 336.42316 651.098293 
L 336.110045 650.558981 
L 336.040464 650.053376 
L 336.075255 649.581478 
L 337.258133 646.783796 
L 338.406221 644.963618 
L 341.293835 639.503083 
L 341.850484 638.121096 
L 342.511504 636.402038 
L 342.511504 635.323414 
L 342.372342 634.649274 
L 340.94593 632.963924 
L 339.345565 631.244866 
L 337.675619 630.874089 
L 335.066329 630.806675 
L 334.892376 630.537019 
L 334.961957 630.199949 
L 335.622978 629.155032 
L 336.144836 628.514599 
L 336.388369 628.008994 
L 335.588187 626.053987 
L 334.927167 625.480968 
L 334.405309 624.907949 
L 334.022613 624.267516 
L 333.779079 623.694497 
L 333.744288 623.256306 
L 333.84866 622.481045 
L 334.822795 620.020433 
L 336.840646 615.908178 
L 338.475802 613.852051 
L 339.345565 612.40265 
L 339.449937 611.897045 
L 339.449937 611.526268 
L 339.241194 611.121783 
L 338.754126 610.649885 
L 337.7452 609.975745 
L 336.527532 608.829707 
L 336.353579 607.987032 
L 336.353579 607.245478 
L 337.953944 598.043465 
L 338.197477 595.953631 
L 340.145748 589.616713 
L 340.771977 587.594293 
L 340.458862 586.380841 
L 339.728261 585.94265 
L 337.953944 585.639287 
L 334.50968 585.470752 
L 332.491829 585.639287 
L 329.499843 586.61679 
L 325.777255 587.223516 
L 319.549748 588.436968 
L 317.636269 589.852662 
L 316.662134 591.57172 
L 315.13135 594.908713 
L 313.983262 597.470446 
L 312.139364 598.582777 
L 310.365046 599.054675 
L 309.32133 598.88614 
L 297.457756 594.672764 
L 295.091999 593.25707 
L 293.17852 591.066115 
L 291.230249 587.594293 
L 290.499648 586.010064 
L 290.673601 583.987643 
L 290.986716 580.010217 
L 290.499648 578.425987 
L 288.968864 576.673223 
L 286.220412 574.280025 
L 281.384527 571.718293 
L 279.01877 571.280102 
L 277.174872 571.583465 
L 273.800189 572.628382 
L 271.121318 573.066573 
L 270.321135 572.999159 
L 256.509291 568.111643 
L 254.421859 565.549911 
L 251.91694 562.988178 
L 249.551184 561.437656 
L 246.976684 561.134293 
L 245.132785 561.572484 
L 242.140799 562.482573 
L 239.566299 561.875847 
L 238.522583 561.168 
L 236.330779 559.684892 
L 232.677772 556.179363 
L 231.390522 554.426599 
L 223.145164 539.393274 
L 223.319117 537.202318 
L 223.945347 532.820408 
L 224.119299 529.820484 
L 223.875766 527.427287 
L 223.040793 524.629605 
L 220.466293 517.787083 
L 219.318205 514.686038 
L 219.248624 512.360255 
L 219.387786 505.382904 
L 219.735691 504.675057 
L 220.396712 503.663847 
L 222.066658 500.731338 
L 222.310191 499.720127 
L 221.857914 498.270726 
L 221.092522 495.877529 
L 218.37886 490.855185 
L 217.926583 489.911389 
L 217.230773 489.068713 
L 215.873942 487.75414 
L 214.725854 486.338446 
L 214.412739 485.360943 
L 214.412739 484.012662 
L 211.28159 471.001758 
L 209.99434 466.013121 
L 209.472482 464.765962 
L 209.228949 463.518803 
L 209.263739 461.597503 
L 209.576854 461.563796 
L 210.029131 461.327847 
L 210.724942 460.889656 
L 213.299442 458.799822 
L 214.656273 457.148178 
L 215.004178 455.766191 
L 215.178131 452.833682 
L 215.456455 451.316866 
L 216.187056 450.137121 
L 223.423489 446.597885 
L 223.980137 446.294522 
L 225.058644 446.395643 
L 226.659009 446.800127 
L 229.790157 447.406854 
L 232.295076 447.743924 
L 233.095259 448.283236 
L 233.721488 449.227032 
L 233.686698 450.238242 
L 233.025677 451.182038 
L 232.016752 451.822471 
L 231.808009 452.496611 
L 232.086333 453.406701 
L 233.443164 455.867312 
L 235.1479 459.035771 
L 236.40036 460.586293 
L 237.478866 461.024484 
L 238.592164 461.193019 
L 240.088157 461.024484 
L 241.758103 460.788535 
L 243.845535 460.923363 
L 245.306738 461.260433 
L 246.698359 462.136815 
L 248.124771 463.350268 
L 248.820582 463.451389 
L 249.34244 463.316561 
L 250.281785 462.608713 
L 251.395082 461.024484 
L 251.708197 459.440255 
L 251.742988 456.777401 
L 252.369217 451.788764 
L 254.352278 445.75521 
L 254.978508 444.744 
L 257.413845 438.238548 
L 257.796541 437.294752 
L 258.840258 436.216127 
L 259.362116 436.18242 
L 260.057926 436.620611 
L 262.006197 438.137427 
L 263.154284 438.643032 
L 264.719859 438.204841 
L 265.659203 436.890268 
L 266.494176 435.103796 
L 266.563757 433.283618 
L 266.250642 431.935338 
L 265.241717 429.744382 
L 265.137345 428.227567 
L 265.206926 421.317631 
L 265.241717 420.272713 
L 265.346088 417.643567 
L 265.554832 416.295287 
L 266.041899 415.587439 
L 266.633338 415.01442 
L 267.329149 414.576229 
L 268.964304 413.868382 
L 270.042811 413.497605 
L 270.321135 413.227949 
L 270.425507 412.958293 
L 270.008021 412.587516 
L 267.711845 410.362854 
L 264.859021 407.228102 
L 262.562845 404.497834 
L 261.693082 402.643949 
L 261.171224 399.677732 
L 260.684156 397.486777 
L 259.918764 395.700306 
L 257.448636 393.576764 
L 252.54317 389.531924 
L 250.873224 388.318471 
L 249.133697 387.273554 
L 248.0204 386.363465 
L 247.533332 385.723032 
L 247.220217 384.812943 
L 247.428961 383.936561 
L 247.846447 383.363541 
L 249.412021 382.082675 
L 250.664481 381.273707 
L 251.569035 381.105172 
L 252.751913 381.105172 
L 254.561021 381.678191 
L 256.648454 382.318624 
L 258.318399 382.520866 
L 259.118582 382.487159 
L 259.918764 381.91414 
L 261.484338 380.262497 
L 262.493264 378.88051 
L 263.745724 376.655847 
L 264.058838 375.745758 
L 264.232791 375.172739 
L 264.232791 372.34135 
L 264.615487 371.161605 
L 265.415669 369.98186 
L 266.250642 369.038064 
L 267.050825 368.599873 
L 267.851007 368.465045 
L 268.894723 368.465045 
L 270.251554 368.869529 
L 271.9215 369.611083 
L 272.652102 369.611083 
L 273.347912 369.206599 
L 273.626237 368.700994 
L 273.626237 367.858318 
L 273.556656 367.015643 
L 270.59946 357.375439 
L 270.147183 356.094573 
L 269.834068 355.521554 
L 264.893811 349.82507 
L 264.267582 349.083516 
L 263.606561 348.544204 
L 260.579784 347.600408 
L 257.448636 346.521783 
L 256.230967 346.21842 
L 255.291623 346.117299 
L 253.447724 346.353248 
L 252.334427 346.353248 
L 251.777778 346.184713 
L 249.34244 343.252204 
L 247.707285 340.960127 
L 247.011474 339.645554 
L 247.011474 339.038828 
L 247.255008 338.297274 
L 248.124771 337.488306 
L 250.142623 336.106318 
L 251.395082 335.027694 
L 251.951731 334.218726 
L 252.125683 333.308637 
L 252.125683 332.331134 
L 251.429873 329.027847 
L 251.29071 327.64586 
L 251.360292 326.095338 
L 251.673406 325.353783 
L 253.795629 316.118064 
L 256.891987 315.983236 
L 259.779602 316.084357 
L 261.971406 316.657376 
L 262.736798 317.432637 
L 263.50219 319.320229 
L 263.989257 320.904459 
L 264.441534 323.499898 
L 266.842082 330.275006 
L 267.537892 331.454752 
L 268.929514 332.398548 
L 271.051737 332.668204 
L 275.609297 333.038981 
L 278.462122 332.60079 
L 282.184709 331.522166 
L 287.40329 330.713197 
L 288.864493 330.713197 
L 289.560304 331.286217 
L 290.812763 332.533376 
L 292.517499 335.128815 
L 294.744094 337.724255 
L 297.631709 340.58935 
L 300.27579 342.17358 
L 303.128614 342.746599 
L 306.294553 343.488153 
L 310.504208 343.420739 
L 314.365958 343.18479 
L 317.07962 342.679185 
L 320.349931 341.162369 
L 324.385633 338.634344 
L 325.151025 338.162446 
L 325.846836 338.162446 
L 326.75139 338.330981 
L 328.003849 338.870293 
L 329.012775 339.510726 
L 336.388369 346.420662 
L 337.118971 347.195924 
L 337.466876 348.106013 
L 337.814781 351.038522 
L 338.023525 352.454217 
L 338.858498 357.105783 
L 338.962869 357.678803 
L 339.136822 358.04958 
L 339.763052 358.521478 
L 340.876349 358.959669 
L 342.094018 359.330446 
L 344.390193 359.836051 
L 347.243018 361.285452 
L 348.530268 362.43149 
L 349.36524 363.813478 
L 349.608774 365.498828 
L 348.739011 368.498752 
L 346.547207 373.622217 
L 346.09493 374.667134 
L 346.09493 375.206446 
L 346.790741 376.049121 
L 348.878173 377.835592 
L 349.573984 379.082752 
L 349.713146 380.262497 
L 349.539193 383.026471 
L 350.026261 386.093809 
L 350.756862 387.340968 
L 351.487463 388.149936 
L 352.705132 388.925197 
L 354.131544 389.700459 
L 355.036098 389.767873 
L 356.358139 389.093732 
L 357.819342 387.576917 
L 359.350125 384.914064 
L 361.367977 381.91414 
L 364.533916 379.318701 
L 368.360875 376.723261 
L 373.892571 373.655924 
L 379.772172 371.66721 
L 383.773084 370.790828 
L 384.886381 369.712204 
L 385.512611 368.63358 
L 386.034469 366.948229 
L 386.208421 365.768484 
L 385.999678 360.678726 
L 385.199496 358.555185 
L 382.798949 355.049656 
L 381.685651 353.633962 
L 381.476908 352.555338 
L 381.998766 350.869987 
L 383.077273 349.521707 
L 383.981827 349.184637 
L 385.582192 348.81386 
L 393.688387 348.544204 
L 394.592941 348.510497 
L 395.14959 348.173427 
L 395.323543 347.499287 
L 395.219171 341.971338 
L 396.054144 336.578217 
L 396.158516 332.870446 
L 395.427914 331.387338 
L 392.853414 329.567159 
L 388.504597 327.780688 
L 387.3913 326.29758 
L 386.069259 321.949376 
L 383.494759 318.443847 
L 380.398401 316.286599 
L 379.00678 315.342803 
L 378.971989 314.061936 
L 379.876543 312.882191 
L 381.859604 311.297962 
L 384.016618 310.118217 
L 385.547401 309.646318 
L 392.505509 309.578904 
L 397.758881 310.219338 
L 411.709887 313.893401 
L 413.8669 313.724866 
L 416.302238 312.545121 
L 417.972184 310.657529 
L 418.563623 309.107006 
L 419.155062 307.48907 
L 419.155062 306.208204 
L 418.633204 303.916127 
L 415.15415 297.781452 
L 411.014076 292.084968 
L 407.500231 287.939006 
L 406.839211 286.99521 
L 406.804421 285.377274 
L 407.43065 283.388561 
L 409.30934 277.692076 
L 410.144312 276.613452 
L 411.2924 275.770777 
L 412.788393 275.534828 
L 415.571637 275.939312 
L 419.746501 276.478624 
L 421.62519 276.242675 
L 422.87765 275.501121 
L 424.478015 272.905682 
L 426.948143 268.42265 
L 430.983845 260.602624 
L 431.436122 256.25442 
L 431.123008 253.928637 
L 428.131021 246.445682 
L 425.800055 244.018777 
L 423.155974 242.535669 
L 421.207704 240.445834 
L 420.581474 238.254879 
L 420.546684 237.479618 
L 420.790217 236.940306 
L 422.425373 236.131338 
L 429.209528 233.064 
L 445.178385 223.861987 
L 446.465635 222.378879 
L 446.813541 221.839567 
L 446.77875 219.716025 
L 446.291683 218.738522 
L 444.239041 217.423949 
L 441.838494 215.435236 
L 440.864359 214.25549 
L 440.446872 211.154446 
L 440.412082 207.480382 
L 440.794777 203.132178 
L 441.59496 198.581732 
L 441.560169 197.36828 
L 441.073102 195.68293 
L 439.055251 193.154904 
L 438.637764 192.615592 
L 438.115906 191.638089 
L 438.185487 190.357223 
L 438.185487 189.548255 
L 438.742136 187.997732 
L 440.377291 185.166344 
L 443.299696 181.357452 
L 447.265818 174.885707 
L 452.206074 162.548943 
L 454.780574 155.504178 
L 455.198061 152.571669 
L 455.16327 149.773987 
L 454.328297 145.055006 
L 453.388953 142.122497 
L 449.701156 136.324892 
L 449.35325 134.976611 
L 449.31846 132.920484 
L 449.631574 129.650904 
L 449.596784 126.415032 
L 448.344324 123.010624 
L 446.74396 120.617427 
L 444.760899 117.819745 
L 444.760899 116.909656 
L 444.934852 116.201809 
L 445.561081 115.190599 
L 449.35325 111.786191 
L 451.997331 109.258166 
L 453.075838 108.584025 
L 455.372013 107.775057 
L 458.503162 106.190828 
L 460.207898 104.808841 
L 460.9385 103.763924 
L 460.9385 103.157197 
L 460.834128 102.752713 
L 459.616459 101.471847 
L 458.224838 100.123567 
L 457.355074 98.235975 
L 455.685128 92.168713 
L 455.685128 90.820433 
L 455.7895 90.078879 
L 457.73777 88.090166 
L 459.616459 86.640764 
L 463.269466 85.056535 
L 465.252527 83.573427 
L 466.017918 82.52851 
L 466.435405 81.079108 
L 466.887682 76.023057 
L 467.444331 74.034344 
L 468.627209 73.326497 
L 469.740506 73.191669 
L 470.749432 73.393911 
L 472.662911 74.708484 
L 476.594242 77.843236 
L 477.811911 78.045478 
L 480.595154 77.506166 
L 483.239235 75.921936 
L 483.656722 75.180382 
L 483.656722 74.573656 
L 482.856539 72.820892 
L 479.099161 65.472764 
L 473.984952 54.956178 
L 471.827938 49.832713 
L 470.331945 48.349605 
L 468.557628 47.102446 
L 467.061635 45.888994 
L 466.435405 44.035108 
L 466.74852 41.170013 
L 466.087499 39.012764 
L 465.356898 38.102675 
L 463.408628 37.125172 
L 459.372925 35.102752 
L 458.190047 34.024127 
L 458.190047 33.65335 
L 458.259628 32.945503 
L 459.233763 31.462395 
L 461.216824 28.900662 
L 462.469283 26.911949 
L 464.80025 20.339083 
L 465.774385 18.518904 
L 467.687864 16.327949 
L 469.670925 14.507771 
L 472.697702 11.81121 
L 473.776209 10.901121 
L 474.193695 10.8 
L 483.274026 13.429146 
L 490.927944 16.361656 
L 493.363282 17.878471 
L 494.51137 19.058217 
L 496.216106 21.114344 
L 498.37312 22.530038 
L 512.672031 26.035567 
L 518.064565 27.01307 
L 523.143984 27.35014 
L 524.396443 27.720917 
L 525.683693 28.631006 
L 526.970943 30.046701 
L 527.840707 31.833172 
L 529.232328 35.642064 
L 529.99772 36.720688 
L 531.702456 38.540866 
L 534.52049 40.428459 
L 536.43397 41.068892 
L 538.41703 41.102599 
L 543.496449 40.226217 
L 546.453645 39.855439 
L 547.358199 39.990268 
L 549.167307 40.900357 
L 553.342172 43.360968 
L 556.612482 45.888994 
L 557.273503 46.900204 
L 557.830151 48.383312 
L 558.421591 50.237197 
L 559.082611 51.551771 
L 559.952374 50.843924 
L 560.752557 50.169783 
L 561.170043 49.832713 
L 561.483158 49.563057 
L 561.865854 49.293401 
L 563.222685 48.349605 
L 564.162029 48.383312 
L 565.831975 48.754089 
L 568.858752 49.765299 
L 577.382434 51.956255 
L 580.548373 52.562981 
L 586.915042 55.259541 
L 590.602839 57.989809 
L 593.455663 61.057146 
L 595.19519 64.427847 
L 597.10867 70.731057 
L 596.969508 73.056841 
L 596.343278 76.933146 
L 596.238907 79.562293 
L 596.725974 80.640917 
L 599.265684 81.820662 
L 608.589548 82.798166 
L 617.07844 83.944204 
L 618.087365 84.55093 
L 618.435271 85.157656 
L 618.817967 87.786803 
L 619.131081 88.696892 
L 620.34875 90.382242 
L 622.018696 91.460866 
L 622.853669 91.595694 
L 623.688642 91.427159 
L 623.827804 90.51707 
L 623.827804 90.112586 
L 623.827804 89.741809 
L 622.784088 86.202573 
L 622.401392 83.573427 
L 622.679716 80.303847 
L 623.619061 75.517452 
L 624.767149 73.96693 
L 626.263142 73.62986 
L 628.594108 72.989427 
L 629.950939 71.877096 
L 630.472797 70.056917 
L 630.438007 67.899669 
L 630.890284 63.079567 
L 631.377351 62.236892 
L 633.325621 61.36051 
L 641.466608 60.416713 
L 647.798486 59.978522 
L 656.739654 60.484127 
L 661.262424 60.78749 
L 662.166978 61.158268 
L 662.827999 61.731287 
L 664.289201 63.517758 
L 665.50687 64.528968 
L 672.082282 66.551389 
L 681.162613 70.528815 
L 682.554234 70.629936 
L 683.945856 70.629936 
L 685.824545 70.259159 
L 687.703234 69.652433 
L 690.695221 69.247949 
L 691.843308 69.34907 
L 693.617626 70.158038 
L 697.027099 72.584943 
L 699.07974 74.169172 
L 701.236754 76.730904 
L 704.333112 81.820662 
L 705.863896 84.247567 
L 706.629287 84.719465 
L 707.394679 84.820586 
L 712.056612 86.067745 
L 718.840767 87.314904 
L 722.94605 87.618268 
L 723.954976 88.090166 
L 726.77301 90.045172 
L 727.607983 88.83172 
L 728.72128 87.584561 
L 729.208347 87.281197 
L 729.973739 87.011541 
L 730.982665 86.944127 
L 731.539314 86.944127 
L 731.9568 86.977834 
L 732.513449 87.314904 
L 732.791773 87.584561 
L 732.896145 88.056459 
L 732.930935 89.202497 
L 733.070097 90.51707 
L 733.24405 90.887847 
L 733.418003 91.056382 
L 733.765908 91.022675 
L 734.183395 90.786726 
L 738.671374 87.517146 
L 739.889043 86.741885 
L 740.515273 86.505936 
L 740.828387 86.57335 
L 741.385036 86.708178 
L 741.837313 86.876713 
L 742.2548 87.078955 
L 743.750793 87.719389 
L 744.272651 87.921631 
L 744.585766 87.955338 
L 745.52511 87.989045 
L 746.951522 87.685682 
L 748.447516 87.281197 
L 749.073745 86.876713 
L 749.595603 86.404815 
L 752.100522 84.314981 
L 753.666096 82.86558 
L 755.127299 81.921783 
L 762.224569 78.348841 
L 763.824934 77.506166 
L 764.729488 77.506166 
L 766.712549 77.843236 
L 770.226393 78.854446 
L 771.722386 78.820739 
L 772.974846 78.58479 
L 776.314737 75.517452 
L 779.167562 73.056841 
L 780.628764 71.169248 
L 782.333501 67.66372 
L 782.716197 65.203108 
" clip-path="url(#pd69938e097)"/>
   </g>
  </g>
 </g>
 <defs>
  <clipPath id="pd69938e097">
   <rect x="209.228949" y="10.8" width="661.542103" height="1058.4"/>
  </clipPath>
 </defs>
</svg>
