<?xml version="1.0" encoding="utf-8" standalone="no"?>
<!DOCTYPE svg PUBLIC "-//W3C//DTD SVG 1.1//EN"
  "http://www.w3.org/Graphics/SVG/1.1/DTD/svg11.dtd">
<svg xmlns:xlink="http://www.w3.org/1999/xlink" width="1080pt" height="1080pt" viewBox="0 0 1080 1080" xmlns="http://www.w3.org/2000/svg" version="1.1">
 <metadata>
  <rdf:RDF xmlns:dc="http://purl.org/dc/elements/1.1/" xmlns:cc="http://creativecommons.org/ns#" xmlns:rdf="http://www.w3.org/1999/02/22-rdf-syntax-ns#">
   <cc:Work>
    <dc:type rdf:resource="http://purl.org/dc/dcmitype/StillImage"/>
    <dc:date>2022-07-01T13:43:34.233431</dc:date>
    <dc:format>image/svg+xml</dc:format>
    <dc:creator>
     <cc:Agent>
      <dc:title>Matplotlib v3.5.1, https://matplotlib.org/</dc:title>
     </cc:Agent>
    </dc:creator>
   </cc:Work>
  </rdf:RDF>
 </metadata>
 <defs>
  <style type="text/css">*{stroke-linejoin: round; stroke-linecap: butt}</style>
 </defs>
 <g id="figure_1">
  <g id="patch_1">
   <path d="M 0 1080 
L 1080 1080 
L 1080 0 
L 0 0 
L 0 1080 
z
" style="fill: none; opacity: 0"/>
  </g>
  <g id="axes_1">
   <g id="PatchCollection_1">
    <path d="M 1069.2 638.908266 
L 1045.353185 622.662143 
L 1015.802376 597.360802 
L 987.419856 584.909879 
L 985.358172 584.377219 
L 971.544887 591.901039 
L 965.840893 599.957519 
L 964.466437 605.750194 
L 961.373911 618.001369 
L 953.195896 650.094122 
L 968.246192 655.15439 
L 968.589806 665.874169 
L 968.658529 674.663055 
L 969.070866 681.454468 
L 969.070866 685.848911 
L 967.009181 689.377782 
L 964.947497 691.108927 
L 959.930732 694.97071 
L 949.965924 702.427947 
L 947.285735 706.489478 
L 944.330654 711.017087 
L 938.145601 720.272051 
L 937.801987 720.538381 
L 936.702422 720.272051 
L 935.740303 720.072303 
L 926.87506 717.608752 
L 923.988702 714.679123 
L 918.834491 709.285942 
L 918.422154 708.886447 
L 918.07854 708.620118 
L 917.460035 707.954293 
L 910.587754 700.097561 
L 907.56395 692.174246 
L 904.677592 685.515999 
L 901.378897 683.185612 
L 894.575339 682.652952 
L 827.020817 697.034767 
L 800.012752 684.517262 
L 799.875307 684.916757 
L 797.538731 727.729288 
L 797.7449 728.927772 
L 795.339601 734.986778 
L 793.8277 739.514386 
L 793.209194 741.445278 
L 793.003026 742.444015 
L 792.934303 743.10984 
L 793.003026 744.108577 
L 793.209194 744.707819 
L 793.758977 746.905041 
L 797.057672 758.690139 
L 797.332563 759.422546 
L 797.538731 760.088371 
L 797.538731 760.953943 
L 797.470008 763.084582 
L 797.332563 765.414969 
L 796.645335 772.872206 
L 795.889384 780.995268 
L 794.995987 789.38466 
L 794.446205 794.311763 
L 794.308759 794.77784 
L 790.322836 800.104438 
L 786.955418 804.831794 
L 785.787131 806.496356 
L 785.443517 806.89585 
L 783.588001 809.226237 
L 780.426752 813.221186 
L 775.959769 818.414619 
L 773.623193 821.1445 
L 773.142134 821.67716 
L 771.424063 823.474887 
L 766.476021 828.801485 
L 761.665424 833.861753 
L 761.390533 834.128083 
L 713.009675 794.578093 
L 694.042179 825.805273 
L 658.306318 819.346773 
L 658.306318 821.277665 
L 658.443763 824.873119 
L 658.649932 827.136923 
L 658.512486 827.603 
L 656.450802 828.93465 
L 651.090423 832.330356 
L 646.417272 834.32783 
L 643.668359 835.992392 
L 639.132654 840.320253 
L 636.864801 842.251145 
L 634.940562 844.448366 
L 633.42866 847.444578 
L 632.810155 850.640536 
L 631.573145 852.438263 
L 629.099123 853.570165 
L 624.563418 854.369155 
L 617.828583 853.370418 
L 610.475242 850.174459 
L 599.617038 843.915707 
L 597.280462 848.04382 
L 592.538588 863.224624 
L 591.576469 866.354001 
L 590.476904 871.014774 
L 588.552665 873.34516 
L 579.962314 877.739604 
L 567.935822 884.397851 
L 561.750769 890.323691 
L 557.421232 893.453068 
L 545.738355 895.916619 
L 538.453737 897.448016 
L 527.320642 884.664181 
L 517.01222 877.073779 
L 501.61831 865.688176 
L 490.760106 861.959557 
L 484.506331 864.223361 
L 483.612934 867.352738 
L 484.162717 869.616542 
L 494.127524 882.666707 
L 517.49328 909.166532 
L 519.761132 911.962996 
L 523.197273 917.555924 
L 528.832543 926.87747 
L 530.894228 930.273176 
L 524.84662 928.075955 
L 517.630725 923.881259 
L 511.926732 918.221748 
L 504.77956 909.632609 
L 496.395377 898.846248 
L 489.591819 894.8513 
L 475.366197 885.862666 
L 448.014519 866.021088 
L 426.77917 848.643062 
L 418.807324 845.580268 
L 409.186131 846.9785 
L 404.100643 846.445841 
L 401.145562 846.179511 
L 395.097955 842.584057 
L 392.280319 840.453418 
L 391.593091 839.920758 
L 391.043309 839.521263 
L 390.630972 839.188351 
L 389.60013 838.389361 
L 389.050347 837.989866 
L 388.019505 837.190877 
L 386.91994 836.391887 
L 386.026544 835.726062 
L 385.064424 835.060237 
L 361.904837 819.546521 
L 361.217609 819.080443 
L 353.932991 813.354351 
L 349.191117 809.492567 
L 331.254464 795.110752 
L 330.567236 794.51151 
L 321.564548 786.255283 
L 317.71607 782.726412 
L 293.525641 757.225324 
L 292.975859 756.626082 
L 280.262139 741.045783 
L 277.513226 737.583494 
L 270.366054 728.728025 
L 259.301682 714.812288 
L 256.209155 709.48569 
L 240.609077 682.253458 
L 226.795792 660.747318 
L 221.36669 653.156916 
L 219.030115 649.894375 
L 214.219518 643.169545 
L 209.408921 636.444715 
L 206.453841 632.383184 
L 205.69789 631.317864 
L 194.496072 615.87073 
L 188.723356 609.745142 
L 184.66871 606.882096 
L 178.07132 602.221323 
L 156.217466 590.369642 
L 149.139017 584.510384 
L 135.531901 573.324529 
L 133.332771 571.593384 
L 128.109837 568.730338 
L 118.763535 564.069565 
L 100.620713 555.61359 
L 92.855035 550.22041 
L 84.40213 543.22925 
L 69.48928 530.911492 
L 60.486592 524.452992 
L 55.469827 521.323616 
L 53.064528 519.792219 
L 12.586793 494.357713 
L 10.8 493.159229 
L 16.022934 485.768574 
L 13.548912 480.175646 
L 23.51372 465.793832 
L 27.568366 460.067739 
L 29.080268 457.67077 
L 34.921706 448.881883 
L 38.082956 444.554022 
L 43.030998 436.830455 
L 44.06184 434.832981 
L 50.727953 425.11194 
L 60.69276 410.730125 
L 63.37295 406.868342 
L 67.496318 401.142249 
L 67.977378 400.476424 
L 80.691098 381.899913 
L 84.608298 375.974073 
L 85.845309 374.376094 
L 89.55634 369.315826 
L 93.885878 371.3133 
L 96.978404 372.778114 
L 108.936173 377.50547 
L 123.986468 383.631058 
L 124.742419 382.632321 
L 125.017311 382.965233 
L 126.116876 384.097135 
L 129.346848 388.025501 
L 129.759184 388.691326 
L 132.989157 392.886022 
L 134.226167 394.683749 
L 135.944237 396.88097 
L 138.968041 401.208831 
L 141.029725 404.13846 
L 143.847361 407.467584 
L 144.534589 408.333156 
L 154.018336 415.590646 
L 171.748822 396.281728 
L 172.298604 397.014135 
L 173.329446 398.412367 
L 175.322408 401.075666 
L 181.919797 409.465058 
L 183.844036 411.92861 
L 213.188676 450.013785 
L 214.288241 451.412017 
L 217.861827 455.806461 
L 220.61074 456.672033 
L 225.696228 458.403177 
L 230.712993 460.200904 
L 239.715681 463.396863 
L 243.770327 464.861677 
L 247.481358 466.193327 
L 255.453204 466.992316 
L 259.920187 467.192064 
L 261.363366 467.058899 
L 263.42505 466.992316 
L 264.181001 466.992316 
L 268.098201 466.459657 
L 269.472658 466.459657 
L 270.091163 466.393074 
L 270.640945 466.193327 
L 277.788118 465.660667 
L 282.667437 465.594084 
L 291.738848 465.394337 
L 296.824336 465.327754 
L 300.604091 465.394337 
L 303.902786 452.677084 
L 305.277242 447.616816 
L 326.718759 456.672033 
L 331.185741 458.602924 
L 335.171664 458.136847 
L 338.676527 457.803935 
L 344.999026 436.897038 
L 337.645685 432.436012 
L 349.534732 408.865816 
L 348.641335 396.61464 
L 365.959483 396.88097 
L 371.044971 396.947553 
L 381.903175 402.607063 
L 388.638011 392.553109 
L 413.309499 391.22146 
L 421.075177 368.516836 
L 424.305149 358.995542 
L 423.34303 355.799583 
L 421.418791 354.135021 
L 419.013493 350.140073 
L 416.333303 343.61499 
L 415.714798 342.017011 
L 413.378222 335.824841 
L 412.003766 332.828629 
L 411.179092 331.963057 
L 409.804636 330.498243 
L 402.794909 325.704305 
L 395.647737 320.910366 
L 393.654776 319.578717 
L 393.311162 319.046057 
L 393.242439 318.446815 
L 393.448607 300.402964 
L 373.518992 301.135371 
L 363.69163 283.690763 
L 349.878346 265.713495 
L 351.45897 265.513747 
L 356.613181 264.648175 
L 357.300409 264.51501 
L 357.850192 264.315263 
L 358.399974 264.115515 
L 360.25549 263.316526 
L 362.523343 261.851711 
L 364.722473 259.987402 
L 366.921602 258.32284 
L 368.502227 256.791443 
L 369.189455 256.192201 
L 370.28902 255.060299 
L 372.281982 252.863077 
L 377.711084 247.336732 
L 379.497877 245.67217 
L 385.957821 248.202304 
L 391.730537 248.934711 
L 399.496215 247.003819 
L 409.323576 243.275201 
L 432.070827 233.221247 
L 434.888462 231.223773 
L 436.469086 230.091871 
L 443.547536 225.164768 
L 457.635712 211.24903 
L 486.499292 188.278077 
L 506.909967 170.433973 
L 517.905617 160.846097 
L 529.313603 152.656452 
L 529.72594 152.390123 
L 540.24053 149.726824 
L 549.518109 149.993153 
L 553.710201 151.990628 
L 559.001857 155.253169 
L 571.028349 164.841045 
L 584.704188 175.760571 
L 587.246932 177.824628 
L 614.392442 197.999118 
L 624.632141 205.656102 
L 616.729018 222.235139 
L 614.942225 229.292881 
L 614.59861 249.667118 
L 625.731706 254.461057 
L 624.769586 278.031253 
L 624.700864 279.02999 
L 624.632141 279.895562 
L 626.144043 283.957093 
L 630.404857 289.882933 
L 631.229531 291.014835 
L 639.338822 296.274851 
L 648.066619 299.20448 
L 661.53629 300.802459 
L 691.980495 302.400438 
L 707.236959 302.666768 
L 725.379781 304.131583 
L 743.385157 307.460707 
L 760.0848 313.786042 
L 779.395909 324.439238 
L 789.017103 332.762047 
L 794.308759 338.421557 
L 799.46297 344.014485 
L 810.389897 362.923908 
L 813.619869 368.450254 
L 822.21022 378.30446 
L 826.264866 382.365991 
L 841.108993 390.42247 
L 843.857905 391.887285 
L 849.287007 394.484001 
L 853.479099 398.146037 
L 870.178742 421.849398 
L 870.728524 422.315476 
L 871.484475 422.848135 
L 872.171703 423.380795 
L 874.439556 423.647125 
L 877.738251 423.647125 
L 885.366483 420.917244 
L 891.482813 420.184836 
L 894.025557 420.184836 
L 898.286371 423.24763 
L 912.718161 432.569177 
L 920.346393 438.894512 
L 936.358808 456.472285 
L 947.148289 467.791306 
L 949.072528 469.78878 
L 961.373911 482.70578 
L 966.73429 489.763523 
L 971.751055 498.086332 
L 985.152003 519.792219 
L 996.972326 536.171508 
L 1008.380313 548.822178 
L 1026.523135 570.261735 
L 1042.191936 592.966359 
L 1046.177859 598.825617 
L 1051.744406 607.081843 
L 1069.2 638.908266 
" clip-path="url(#pdd484e252e)"/>
   </g>
  </g>
 </g>
 <defs>
  <clipPath id="pdd484e252e">
   <rect x="10.8" y="149.726824" width="1058.4" height="780.546353"/>
  </clipPath>
 </defs>
</svg>
