<?xml version="1.0" encoding="utf-8" standalone="no"?>
<!DOCTYPE svg PUBLIC "-//W3C//DTD SVG 1.1//EN"
  "http://www.w3.org/Graphics/SVG/1.1/DTD/svg11.dtd">
<svg xmlns:xlink="http://www.w3.org/1999/xlink" width="1080pt" height="1080pt" viewBox="0 0 1080 1080" xmlns="http://www.w3.org/2000/svg" version="1.1">
 <metadata>
  <rdf:RDF xmlns:dc="http://purl.org/dc/elements/1.1/" xmlns:cc="http://creativecommons.org/ns#" xmlns:rdf="http://www.w3.org/1999/02/22-rdf-syntax-ns#">
   <cc:Work>
    <dc:type rdf:resource="http://purl.org/dc/dcmitype/StillImage"/>
    <dc:date>2022-07-01T13:43:34.347484</dc:date>
    <dc:format>image/svg+xml</dc:format>
    <dc:creator>
     <cc:Agent>
      <dc:title>Matplotlib v3.5.1, https://matplotlib.org/</dc:title>
     </cc:Agent>
    </dc:creator>
   </cc:Work>
  </rdf:RDF>
 </metadata>
 <defs>
  <style type="text/css">*{stroke-linejoin: round; stroke-linecap: butt}</style>
 </defs>
 <g id="figure_1">
  <g id="patch_1">
   <path d="M 0 1080 
L 1080 1080 
L 1080 0 
L 0 0 
L 0 1080 
z
" style="fill: none; opacity: 0"/>
  </g>
  <g id="axes_1">
   <g id="PatchCollection_1">
    <path d="M 1056.631834 548.592804 
L 1059.12764 552.392636 
L 1060.553815 558.178746 
L 1064.564932 566.29657 
L 1066.704194 570.873641 
L 1068.843456 576.65975 
L 1069.2 578.559667 
L 1068.665184 580.459583 
L 1067.149874 582.44586 
L 1064.297524 583.568537 
L 1059.57332 584.691215 
L 1054.938252 585.727533 
L 1051.996766 586.936571 
L 1047.629106 589.527366 
L 1038.626377 597.127032 
L 1037.645882 599.286028 
L 1030.960687 612.499083 
L 1029.177969 616.730714 
L 1028.197473 621.394146 
L 1026.860435 626.230296 
L 1025.255988 628.821092 
L 1020.353512 636.679837 
L 1016.164123 641.256908 
L 1011.707327 645.22946 
L 1006.537443 650.92921 
L 1004.665589 654.038164 
L 1002.972006 657.665277 
L 1001.634967 661.551469 
L 1001.189288 665.869461 
L 1001.724103 668.287537 
L 1003.685093 675.196324 
L 989.601617 684.954985 
L 975.429005 696.786283 
L 973.289742 698.34076 
L 972.309247 699.031638 
L 969.456897 697.131722 
L 968.654674 698.2544 
L 967.228499 700.413396 
L 960.186761 709.826618 
L 959.384538 710.603856 
L 958.582314 711.035656 
L 957.156139 711.381095 
L 952.788479 711.122015 
L 950.025265 710.949296 
L 948.777362 711.294735 
L 946.19242 714.05825 
L 944.67711 716.389965 
L 943.607479 719.585279 
L 943.78575 722.262434 
L 944.67711 724.939589 
L 944.498838 729.171221 
L 940.487721 736.339088 
L 935.317837 742.556996 
L 927.652148 751.797498 
L 924.175846 754.647373 
L 917.579788 758.533566 
L 916.599293 764.233315 
L 917.044972 767.601348 
L 917.75806 769.328545 
L 918.382011 770.105784 
L 928.008691 795.063776 
L 928.989186 799.295408 
L 928.989186 801.886203 
L 928.097827 805.340597 
L 922.036584 811.558505 
L 922.12572 814.23566 
L 924.354118 816.135576 
L 927.830419 816.049217 
L 934.426478 813.890221 
L 938.97241 813.544781 
L 941.82476 814.32202 
L 946.816372 820.194489 
L 949.133906 824.6852 
L 949.133906 826.844196 
L 947.172916 827.966874 
L 944.320566 827.966874 
L 942.626983 827.362355 
L 940.042041 828.657753 
L 938.883274 830.816748 
L 937.902779 834.271142 
L 925.512885 845.58428 
L 918.471147 852.320348 
L 909.201011 842.561686 
L 906.437797 847.743276 
L 904.209399 850.852231 
L 903.407175 851.802189 
L 901.802729 852.233988 
L 887.630116 853.529385 
L 883.886407 852.924867 
L 875.95331 849.384113 
L 874.527135 855.602021 
L 869.892067 865.015244 
L 860.443658 852.838507 
L 856.432542 855.342942 
L 862.226377 877.62378 
L 862.048105 879.178257 
L 861.06761 880.387294 
L 860.176251 880.387294 
L 858.126124 878.660098 
L 854.560687 874.860265 
L 841.279434 862.856248 
L 832.722385 850.593151 
L 831.028802 844.461603 
L 831.028802 842.561686 
L 831.028802 841.179929 
L 831.831026 839.625452 
L 833.613744 837.466456 
L 836.644366 835.739259 
L 837.713997 834.357502 
L 837.892269 833.062104 
L 838.070541 831.507627 
L 836.55523 831.421267 
L 827.552501 829.78043 
L 822.11521 831.162188 
L 819.530268 834.962021 
L 818.193229 838.761853 
L 816.945326 842.648046 
L 813.558161 846.620599 
L 810.08186 847.225117 
L 806.694694 846.10244 
L 803.664073 843.770724 
L 800.455179 840.57541 
L 797.513694 836.602858 
L 795.463567 833.234824 
L 791.452451 822.958003 
L 789.848004 820.712648 
L 787.797878 820.712648 
L 785.480344 821.921685 
L 782.806266 826.066958 
L 777.814654 829.607711 
L 769.79242 830.471309 
L 763.820313 829.521351 
L 760.254876 825.894238 
L 756.243759 823.303443 
L 753.480546 823.303443 
L 742.516827 827.535075 
L 738.773118 830.557669 
L 738.238302 835.739259 
L 740.288428 846.10244 
L 743.497322 848.693235 
L 749.023749 849.729553 
L 753.034866 849.643193 
L 759.274381 847.397837 
L 761.681051 847.311477 
L 766.048711 851.37039 
L 770.059828 856.897419 
L 771.307731 859.833653 
L 769.970692 862.597168 
L 767.38575 864.324365 
L 762.305003 867.00152 
L 760.700556 867.606039 
L 752.054371 870.801353 
L 745.369176 872.701269 
L 737.970894 872.960349 
L 734.672865 872.09675 
L 726.561496 871.578591 
L 722.817787 872.18311 
L 722.193835 872.18311 
L 720.76766 874.687545 
L 720.856796 876.673822 
L 722.728651 880.300935 
L 726.739768 886.864282 
L 727.185447 889.195998 
L 726.828903 891.268634 
L 725.937544 892.132232 
L 722.282971 892.736751 
L 715.419505 891.268634 
L 707.842951 888.332399 
L 701.603436 886.518843 
L 696.70096 886.605203 
L 686.985144 887.9006 
L 684.311066 888.332399 
L 681.726124 891.268634 
L 677.715008 896.536584 
L 676.021425 899.818258 
L 675.754017 901.977254 
L 676.645376 904.740768 
L 681.993532 915.881187 
L 683.508843 918.903781 
L 686.717736 921.062777 
L 691.620212 924.344451 
L 695.274785 927.712485 
L 702.227388 938.939263 
L 703.653562 943.775414 
L 703.653562 946.27985 
L 703.029611 948.697925 
L 699.909853 957.938427 
L 699.55331 960.701942 
L 699.642446 964.674495 
L 700.088125 970.633323 
L 694.650834 969.251566 
L 686.985144 966.401691 
L 681.726124 964.760854 
L 677.4476 964.242695 
L 674.060435 964.588135 
L 666.751289 966.401691 
L 644.110763 975.210395 
L 622.094189 981.860102 
L 609.16948 985.659935 
L 578.506721 994.986797 
L 579.39808 1004.918178 
L 579.576352 1007.163534 
L 551.855078 1016.404037 
L 544.902476 1017.181275 
L 534.384437 1016.231317 
L 528.768873 1015.281359 
L 518.785649 1013.467802 
L 517.537746 1013.295082 
L 515.48762 1013.036003 
L 512.902678 1012.776923 
L 511.030824 1012.604204 
L 509.158969 1012.431484 
L 506.217484 1012.086045 
L 505.41526 1011.999685 
L 504.791309 1011.999685 
L 480.457201 1010.531568 
L 461.114704 1009.23617 
L 450.150985 1008.458932 
L 449.437898 1008.372572 
L 444.535422 1007.854413 
L 443.733199 1007.422614 
L 442.39616 1007.249894 
L 439.365538 1006.731735 
L 434.908742 1005.954496 
L 430.897625 1005.263618 
L 426.886508 1004.572739 
L 424.390702 1004.14094 
L 417.88378 1003.018262 
L 416.368469 1002.759182 
L 411.376857 1001.463785 
L 397.382516 997.923032 
L 378.931379 989.287048 
L 377.326933 988.509809 
L 375.187671 987.473491 
L 373.315816 986.091734 
L 370.37433 983.760018 
L 367.521981 981.428303 
L 360.74765 976.160353 
L 352.903689 969.942445 
L 348.625164 966.574411 
L 344.435776 963.206377 
L 342.653057 961.82462 
L 341.316018 960.615582 
L 346.30763 955.261273 
L 340.335523 932.807715 
L 336.23527 907.331563 
L 329.01526 883.755328 
L 320.458211 858.970055 
L 318.497221 853.097586 
L 308.781405 834.789301 
L 301.026579 823.648882 
L 295.589288 815.703777 
L 283.021122 803.6134 
L 282.664578 773.301098 
L 277.762102 762.506118 
L 296.569783 762.419758 
L 297.639414 747.738586 
L 297.72855 746.097749 
L 299.511268 728.825782 
L 302.09621 710.776576 
L 305.215968 700.845195 
L 305.661647 698.42712 
L 301.293987 695.749965 
L 299.956948 694.972726 
L 297.461142 692.81373 
L 297.28287 691.259253 
L 297.461142 689.877496 
L 298.174229 687.977579 
L 298.798181 686.682182 
L 299.422132 685.645864 
L 300.937443 684.005027 
L 302.987569 682.62327 
L 306.90955 680.291554 
L 307.890045 679.514315 
L 309.7619 678.046198 
L 311.72289 675.628123 
L 313.238201 672.173729 
L 313.951289 667.510298 
L 313.951289 662.415068 
L 312.16857 657.751637 
L 305.839919 646.956657 
L 292.736938 630.375569 
L 290.954219 628.907451 
L 281.773219 621.135066 
L 270.898636 612.240003 
L 259.756645 606.367534 
L 238.274886 596.867952 
L 212.068924 582.704939 
L 195.757049 572.255399 
L 186.219505 563.533055 
L 179.712582 555.84703 
L 175.077514 548.161005 
L 170.798989 539.697741 
L 168.035776 530.543598 
L 167.94664 526.311966 
L 168.124912 523.548451 
L 168.303183 521.734895 
L 168.927135 513.185271 
L 168.837999 507.917321 
L 167.05528 490.558994 
L 167.94664 480.886692 
L 171.422941 471.732549 
L 178.375543 452.819745 
L 182.297524 436.411376 
L 182.208388 428.725351 
L 179.97999 421.039326 
L 169.46195 404.285517 
L 160.637494 393.317818 
L 150.20859 385.199994 
L 140.403638 380.968362 
L 130.687822 378.809366 
L 127.122385 378.895726 
L 118.119656 381.400161 
L 106.086306 386.84083 
L 93.696412 396.340412 
L 88.348257 401.953802 
L 82.019606 411.194304 
L 78.988984 414.389618 
L 76.136635 415.598656 
L 73.373421 415.857735 
L 70.521071 415.944095 
L 64.370692 414.821417 
L 60.716119 412.403342 
L 57.061546 408.34443 
L 54.387468 404.026438 
L 53.05043 397.290371 
L 52.961294 393.490538 
L 56.615867 374.836813 
L 58.220313 362.832796 
L 57.596362 356.787607 
L 55.991915 349.619741 
L 50.465488 332.434134 
L 42.888934 307.217061 
L 37.27337 287.267939 
L 33.35139 268.268775 
L 30.231632 261.791788 
L 26.844467 257.819235 
L 17.930874 248.751452 
L 14.276301 244.433461 
L 11.869631 240.115469 
L 10.8 236.056556 
L 10.8 231.738565 
L 14.187165 220.857225 
L 15.61334 215.071116 
L 19.535321 214.984756 
L 22.120263 215.330196 
L 26.042244 216.711953 
L 32.192623 219.043669 
L 37.005963 220.857225 
L 47.880546 221.979903 
L 48.593633 221.807183 
L 48.950177 221.289024 
L 48.593633 220.252706 
L 45.563012 216.280154 
L 43.958565 212.653041 
L 43.958565 210.062246 
L 44.849924 207.039651 
L 46.454371 204.621576 
L 47.969682 202.6353 
L 58.576857 190.717642 
L 60.983527 189.335885 
L 64.6381 188.213207 
L 66.866498 187.695048 
L 69.273168 187.608688 
L 73.016877 188.126847 
L 78.810712 189.249525 
L 83.624053 189.163165 
L 91.913694 188.213207 
L 97.172713 186.74509 
L 99.22284 185.881492 
L 101.896918 183.204337 
L 103.768772 180.095383 
L 105.016675 178.281826 
L 106.264578 177.245508 
L 107.869025 176.38191 
L 112.504093 175.000152 
L 115.089035 174.481993 
L 116.782617 174.481993 
L 119.456695 174.654713 
L 121.239414 174.913792 
L 123.28954 175.604671 
L 128.281152 177.850027 
L 131.133502 178.627265 
L 135.590298 179.059064 
L 142.008085 179.490864 
L 144.325619 180.268102 
L 146.554017 181.21806 
L 154.843658 185.881492 
L 156.091561 186.74509 
L 157.606872 188.385927 
L 158.409096 190.458563 
L 158.765639 195.294714 
L 160.102678 200.476304 
L 161.439717 203.067099 
L 162.509348 204.103417 
L 163.935523 204.880656 
L 176.414553 206.953292 
L 177.57332 206.866932 
L 179.088631 206.262413 
L 183.188883 203.585258 
L 188.091359 200.389944 
L 189.874078 199.699065 
L 192.01334 199.439986 
L 208.414351 201.080823 
L 211.355836 201.426262 
L 213.049419 201.944421 
L 216.52572 204.276137 
L 225.350177 211.098564 
L 226.59808 212.393961 
L 227.222031 213.689359 
L 227.667711 215.848355 
L 229.183022 221.116305 
L 230.341789 223.7071 
L 233.996362 229.925008 
L 238.18575 236.574715 
L 238.987974 236.574715 
L 239.433653 235.970197 
L 239.968469 234.933879 
L 240.770692 232.774883 
L 241.929459 230.184088 
L 243.44477 227.938732 
L 246.386256 224.138899 
L 250.129965 219.907267 
L 252.893178 217.920991 
L 254.408489 217.057392 
L 256.636887 216.366514 
L 262.519859 214.984756 
L 265.728752 214.121158 
L 269.472461 212.307601 
L 276.335927 208.853208 
L 278.118646 208.594128 
L 297.995958 206.348773 
L 307.266094 206.694212 
L 310.20758 206.348773 
L 311.098939 205.744254 
L 312.61425 204.103417 
L 313.416473 201.426262 
L 313.683881 198.662747 
L 312.792521 194.862915 
L 312.61425 193.826596 
L 313.149065 192.962998 
L 313.773017 192.272119 
L 316.625366 189.940404 
L 318.229813 189.163165 
L 319.38858 189.076805 
L 321.171299 189.508605 
L 322.864881 190.372203 
L 326.341182 193.049358 
L 328.213037 193.912956 
L 329.817484 194.085676 
L 338.374533 191.581241 
L 343.90096 189.508605 
L 345.683679 188.126847 
L 347.198989 186.140571 
L 349.873067 180.786261 
L 351.477514 178.799985 
L 352.458009 178.281826 
L 354.151592 178.799985 
L 361.104194 182.686178 
L 369.839515 187.004169 
L 378.307428 190.544923 
L 381.248914 191.235801 
L 383.120768 191.063082 
L 386.329661 189.508605 
L 390.251642 186.65873 
L 391.766953 184.413374 
L 393.014856 181.30442 
L 394.619303 175.777391 
L 396.936837 169.127683 
L 398.719555 167.055047 
L 400.769682 165.932369 
L 401.571905 165.75965 
L 402.99808 165.75965 
L 405.761294 170.94124 
L 406.474381 173.791114 
L 408.346235 173.272955 
L 418.596867 168.609524 
L 422.429712 166.795968 
L 425.549469 163.773373 
L 435.265285 153.237473 
L 438.474179 150.560319 
L 441.237393 149.351281 
L 443.376655 149.351281 
L 445.783325 149.86944 
L 448.724811 151.337557 
L 452.379384 152.805674 
L 456.033957 153.323833 
L 457.816675 152.719314 
L 460.490753 150.473959 
L 462.451743 147.624084 
L 463.699646 144.860569 
L 466.641132 133.89287 
L 468.245579 130.352117 
L 468.958666 128.970359 
L 469.850025 127.761322 
L 471.632744 125.861405 
L 473.772006 123.61605 
L 474.841637 121.197974 
L 477.515715 113.08015 
L 479.476705 102.28517 
L 480.724608 98.830777 
L 483.131278 95.549103 
L 487.855483 89.935713 
L 495.78858 82.595127 
L 500.245376 76.809018 
L 507.019707 64.200482 
L 507.197979 62.818725 
L 514.863669 64.200482 
L 523.688125 64.632281 
L 530.016776 65.15044 
L 534.74098 66.877637 
L 540.44568 70.93655 
L 545.348156 77.586257 
L 551.141991 88.726676 
L 557.114098 98.139898 
L 561.303487 103.407848 
L 565.403739 107.46676 
L 571.554118 113.166509 
L 582.606973 124.652368 
L 595.086003 135.274628 
L 599.186256 139.765339 
L 600.968974 143.565172 
L 602.038605 147.710444 
L 604.445275 150.560319 
L 608.634664 152.719314 
L 622.272461 154.532871 
L 630.472966 155.741909 
L 636.355937 157.296386 
L 640.90187 159.628101 
L 646.071753 164.118813 
L 652.756948 173.272955 
L 654.361395 176.900069 
L 654.361395 181.822579 
L 653.915715 186.140571 
L 654.004851 188.990446 
L 655.252754 191.84032 
L 659.887822 196.503751 
L 662.472764 199.094546 
L 664.077211 201.944421 
L 664.344618 206.176053 
L 663.898939 212.653041 
L 664.255483 216.193794 
L 665.235978 217.575551 
L 674.238706 223.188941 
L 693.670339 236.315636 
L 698.483679 239.079151 
L 704.634058 240.460908 
L 709.447398 241.583586 
L 711.497524 242.274465 
L 715.062961 244.60618 
L 717.113087 246.247017 
L 712.923699 254.105762 
L 711.408388 259.632792 
L 709.001718 272.241328 
L 709.090854 275.091202 
L 709.62567 277.422918 
L 712.210611 279.840993 
L 720.143709 285.886182 
L 727.809399 291.240492 
L 734.405457 295.731203 
L 736.990399 298.062919 
L 739.575341 301.603672 
L 740.644972 304.712626 
L 741.179788 308.512459 
L 742.962506 311.535053 
L 756.332895 326.820744 
L 768.27711 323.62543 
L 776.566751 322.157313 
L 783.786761 321.120995 
L 788.154421 321.120995 
L 793.413441 321.898234 
L 806.516422 325.266267 
L 810.884083 327.252543 
L 815.519151 331.225096 
L 826.037191 346.856226 
L 831.385346 354.110453 
L 834.505104 358.428444 
L 836.55523 359.810202 
L 838.248813 361.019239 
L 846.18191 364.128194 
L 856.075998 367.150788 
L 859.819707 367.668947 
L 868.28762 366.546269 
L 873.10096 366.459909 
L 874.527135 366.718989 
L 876.220718 367.755307 
L 879.697019 373.541416 
L 883.17332 378.291207 
L 890.39333 385.113634 
L 893.24568 387.531709 
L 893.869631 387.531709 
L 896.098029 388.568027 
L 899.485195 388.481667 
L 902.87236 387.01355 
L 910.448914 383.645517 
L 914.994846 382.00468 
L 917.847196 381.141081 
L 918.471147 381.227441 
L 919.629914 381.7456 
L 920.16473 383.472797 
L 921.234361 392.886019 
L 920.521273 398.931208 
L 918.471147 408.43079 
L 915.975341 414.475978 
L 913.033855 418.96669 
L 912.677312 420.175727 
L 912.588176 421.730204 
L 913.122991 423.111962 
L 921.412633 429.15715 
L 923.997575 431.057067 
L 927.563012 433.734222 
L 931.484992 435.634138 
L 935.05043 435.634138 
L 940.844265 433.734222 
L 947.262052 429.41623 
L 951.094896 426.393635 
L 954.927741 423.630121 
L 959.384538 421.730204 
L 967.406771 420.175727 
L 972.576655 420.089367 
L 975.51814 420.693886 
L 984.253461 426.652715 
L 990.136433 432.611544 
L 1005.824356 453.856063 
L 1008.14189 457.483176 
L 1010.10288 464.219244 
L 1011.796463 473.200667 
L 1012.420414 477.518658 
L 1011.974735 480.109454 
L 1001.991511 499.194977 
L 1000.208792 502.303931 
L 999.941385 503.16753 
L 999.763113 504.635647 
L 1000.92188 506.190124 
L 1007.874482 508.953639 
L 1015.80758 511.630794 
L 1019.016473 513.098911 
L 1022.047094 516.380585 
L 1030.960687 526.052886 
L 1032.65427 528.557322 
L 1032.832542 530.284518 
L 1032.65427 533.393473 
L 1032.65427 535.725188 
L 1033.902173 540.474979 
L 1035.328348 544.188452 
L 1036.932794 545.915649 
L 1038.626377 546.088368 
L 1044.865892 546.692887 
L 1052.442446 547.211046 
L 1054.75998 547.901925 
L 1056.631834 548.592804 
" clip-path="url(#p5ae775b9cf)"/>
   </g>
  </g>
 </g>
 <defs>
  <clipPath id="p5ae775b9cf">
   <rect x="10.8" y="62.818725" width="1058.4" height="954.36255"/>
  </clipPath>
 </defs>
</svg>
