<?xml version="1.0" encoding="utf-8" standalone="no"?>
<!DOCTYPE svg PUBLIC "-//W3C//DTD SVG 1.1//EN"
  "http://www.w3.org/Graphics/SVG/1.1/DTD/svg11.dtd">
<svg xmlns:xlink="http://www.w3.org/1999/xlink" width="1080pt" height="1080pt" viewBox="0 0 1080 1080" xmlns="http://www.w3.org/2000/svg" version="1.1">
 <metadata>
  <rdf:RDF xmlns:dc="http://purl.org/dc/elements/1.1/" xmlns:cc="http://creativecommons.org/ns#" xmlns:rdf="http://www.w3.org/1999/02/22-rdf-syntax-ns#">
   <cc:Work>
    <dc:type rdf:resource="http://purl.org/dc/dcmitype/StillImage"/>
    <dc:date>2022-07-01T13:43:34.822437</dc:date>
    <dc:format>image/svg+xml</dc:format>
    <dc:creator>
     <cc:Agent>
      <dc:title>Matplotlib v3.5.1, https://matplotlib.org/</dc:title>
     </cc:Agent>
    </dc:creator>
   </cc:Work>
  </rdf:RDF>
 </metadata>
 <defs>
  <style type="text/css">*{stroke-linejoin: round; stroke-linecap: butt}</style>
 </defs>
 <g id="figure_1">
  <g id="patch_1">
   <path d="M 0 1080 
L 1080 1080 
L 1080 0 
L 0 0 
L 0 1080 
z
" style="fill: none; opacity: 0"/>
  </g>
  <g id="axes_1">
   <g id="PatchCollection_1">
    <path d="M 850.221874 210.826931 
L 850.187514 212.72447 
L 850.428036 213.956206 
L 850.943441 215.187942 
L 852.214771 220.114885 
L 855.307197 232.964885 
L 855.307197 234.296491 
L 855.61644 235.261906 
L 856.75033 236.660093 
L 858.090381 237.958409 
L 858.777587 238.790663 
L 859.22427 239.722787 
L 861.904373 244.68302 
L 862.660299 247.046621 
L 863.106983 248.478098 
L 862.866461 249.476803 
L 861.217167 252.373047 
L 860.564322 253.371751 
L 860.220719 254.070845 
L 860.083278 260.961907 
L 860.151998 263.258928 
L 861.285888 266.321622 
L 863.828549 273.079524 
L 864.653196 275.842607 
L 864.893718 278.206208 
L 864.721917 281.169032 
L 864.103431 285.496752 
L 863.93163 287.660613 
L 872.075019 302.508022 
L 873.346349 304.239111 
L 876.95418 307.701287 
L 879.118878 309.166054 
L 880.149687 309.865147 
L 882.692348 310.46437 
L 885.647333 309.565536 
L 887.468428 309.132764 
L 890.01109 309.432375 
L 892.34759 310.963722 
L 894.82153 313.493774 
L 896.883148 316.023826 
L 910.524183 320.850899 
L 911.314469 320.917479 
L 913.960212 320.484707 
L 917.29316 319.452712 
L 919.114255 319.153101 
L 921.450755 319.585873 
L 926.226835 322.115925 
L 928.941298 324.479526 
L 930.453151 326.210614 
L 930.934195 327.775251 
L 930.624952 331.70349 
L 930.453151 333.700899 
L 931.174717 335.265537 
L 933.098893 338.694423 
L 934.988709 340.858283 
L 937.325209 342.256469 
L 949.042067 346.417739 
L 950.072876 346.58419 
L 951.825251 346.118128 
L 953.646346 345.019552 
L 954.780236 342.489501 
L 956.292088 339.193775 
L 957.254177 337.495977 
L 959.143992 336.097791 
L 965.294484 334.899345 
L 968.971035 334.300122 
L 971.92602 333.334707 
L 973.918917 333.168257 
L 977.320586 333.334707 
L 979.07296 333.634319 
L 979.794527 334.067091 
L 980.103769 335.265537 
L 979.485284 337.262946 
L 977.561108 343.521495 
L 977.320586 345.585485 
L 975.740012 354.673698 
L 975.740012 355.406081 
L 975.911814 356.238335 
L 977.114424 357.370201 
L 978.110872 358.036004 
L 978.591916 358.502066 
L 978.798078 358.901548 
L 978.798078 359.26774 
L 978.694997 359.767092 
L 977.83599 361.198569 
L 976.221056 363.229268 
L 974.22816 367.290667 
L 973.266071 369.720849 
L 973.162991 370.486522 
L 973.197351 370.919294 
L 973.437873 371.485227 
L 973.815836 372.11774 
L 974.33124 372.683673 
L 974.984086 373.249605 
L 975.774373 375.180434 
L 975.533851 375.679787 
L 975.018446 376.3123 
L 974.365601 377.344295 
L 974.29688 377.677196 
L 974.468682 377.943517 
L 977.045703 378.010098 
L 978.694997 378.376289 
L 980.275571 380.074087 
L 981.684342 381.738595 
L 981.821784 382.404398 
L 981.821784 383.469683 
L 981.168938 385.167481 
L 980.619173 386.532378 
L 977.767269 391.925383 
L 976.63338 393.723052 
L 975.46513 396.486135 
L 975.43077 396.952197 
L 975.49949 397.451549 
L 975.808733 397.984192 
L 976.564659 399.349088 
L 977.561108 401.612819 
L 978.042152 404.07629 
L 977.87035 406.240151 
L 977.320586 408.470591 
L 976.152336 413.330954 
L 975.946174 414.329659 
L 973.987638 415.761135 
L 973.09427 416.82642 
L 972.681947 418.024866 
L 972.303983 420.721369 
L 971.170094 421.953105 
L 970.585969 424.150255 
L 970.585969 425.24883 
L 970.72341 426.713597 
L 970.860851 427.845462 
L 970.929572 428.145074 
L 971.307535 428.677716 
L 971.89166 429.4101 
L 972.441425 430.575255 
L 972.578866 431.374219 
L 972.888108 432.472794 
L 979.554004 434.570074 
L 980.790975 434.536784 
L 982.371548 433.238468 
L 983.677239 431.174478 
L 985.017291 429.876162 
L 985.463974 429.54326 
L 986.494783 429.010618 
L 990.102613 427.579141 
L 990.961621 427.44598 
L 991.648826 427.44598 
L 997.902399 428.544556 
L 998.246002 428.644426 
L 998.623965 428.810877 
L 998.864487 429.043908 
L 999.001928 429.343519 
L 999.036289 429.842872 
L 999.036289 430.209063 
L 998.795767 431.307639 
L 998.349083 433.404918 
L 998.074201 434.769815 
L 998.246002 435.335747 
L 998.795767 436.367742 
L 999.551693 437.066836 
L 1000.960465 437.732639 
L 1001.372788 437.93238 
L 1001.57895 438.365152 
L 1001.57895 438.931084 
L 1000.719943 444.923313 
L 1000.307619 445.988598 
L 998.864487 448.784971 
L 997.455715 450.64922 
L 995.016135 452.979531 
L 994.603811 453.745204 
L 993.882245 459.27137 
L 993.882245 459.804013 
L 994.088407 460.469816 
L 994.775613 461.33536 
L 998.177281 464.431344 
L 998.623965 464.730956 
L 999.13937 464.764246 
L 1000.238899 464.631085 
L 1001.166627 464.564505 
L 1001.853832 464.664375 
L 1002.644119 465.130438 
L 1003.846729 466.229013 
L 1005.014979 466.761655 
L 1006.251949 466.728365 
L 1008.588449 466.362173 
L 1010.443905 466.328883 
L 1012.780405 466.561914 
L 1014.120456 467.360878 
L 1017.384683 471.355697 
L 1018.346771 472.820464 
L 1018.552933 473.719298 
L 1018.690374 478.779402 
L 1018.930896 483.606475 
L 1019.652462 486.669169 
L 1020.820712 489.731863 
L 1021.507918 490.697278 
L 1025.115748 493.560231 
L 1027.864572 495.3579 
L 1029.204623 495.624221 
L 1032.331409 495.823962 
L 1032.881174 496.090283 
L 1033.362218 496.622926 
L 1033.980703 497.954532 
L 1035.423835 502.248962 
L 1036.557725 504.878885 
L 1038.447541 507.242486 
L 1042.055371 512.002978 
L 1044.185709 514.766061 
L 1049.442833 520.292227 
L 1050.645444 520.991321 
L 1052.56962 521.390802 
L 1055.730766 521.590543 
L 1058.101626 521.790284 
L 1058.720112 521.990025 
L 1059.407317 522.522668 
L 1060.369406 523.554663 
L 1061.228413 524.852979 
L 1062.018699 526.683937 
L 1062.602824 528.048834 
L 1063.29003 528.781217 
L 1064.42392 529.546891 
L 1066.691699 530.745336 
L 1067.481986 531.41114 
L 1068.237912 532.476425 
L 1068.890757 533.941191 
L 1069.16564 535.139637 
L 1069.2 535.77215 
L 1068.925118 536.071762 
L 1068.169191 536.371373 
L 1065.59217 537.070466 
L 1062.362302 538.402072 
L 1060.266325 539.800259 
L 1059.098075 540.765674 
L 1058.101626 542.16386 
L 1057.036457 544.16127 
L 1055.868208 547.024223 
L 1055.524605 548.4557 
L 1055.284083 549.987047 
L 1054.837399 551.418524 
L 1052.397818 557.144431 
L 1051.744973 558.342876 
L 1051.36701 558.642488 
L 1050.508002 558.808939 
L 1049.545914 558.975389 
L 1048.961789 559.20842 
L 1045.869363 562.137954 
L 1045.353959 563.169949 
L 1045.216518 564.068783 
L 1045.319599 565.167358 
L 1045.628841 566.099483 
L 1046.212966 566.665415 
L 1050.026958 569.528369 
L 1051.848054 570.826685 
L 1052.191657 571.425908 
L 1052.329098 572.125001 
L 1052.226017 572.757514 
L 1051.848054 573.589768 
L 1051.092127 574.888084 
L 1049.06487 577.418136 
L 1047.037613 579.581996 
L 1046.69401 579.948188 
L 1046.522209 580.514121 
L 1046.65965 581.179924 
L 1046.968893 582.112048 
L 1047.140694 582.611401 
L 1047.175054 583.010882 
L 1047.140694 583.277204 
L 1047.037613 583.510235 
L 1046.797091 583.843136 
L 1046.62529 584.042877 
L 1046.316047 584.176038 
L 1046.075525 584.209328 
L 1045.697562 584.275908 
L 1045.353959 584.475649 
L 1045.182158 584.6421 
L 1044.116989 585.840546 
L 1043.429783 587.138862 
L 1043.189261 587.738085 
L 1042.845658 588.503758 
L 1042.502055 589.036401 
L 1042.089732 589.336012 
L 1040.74968 589.868655 
L 1036.592085 591.166971 
L 1036.351563 591.566453 
L 1035.801799 591.832774 
L 1035.252034 591.832774 
L 1033.362218 591.166971 
L 1032.881174 591.233551 
L 1032.606292 591.366712 
L 1031.953446 592.032515 
L 1031.506762 592.864769 
L 1031.438042 593.697023 
L 1031.472402 594.362826 
L 1031.781645 594.462696 
L 1036.832607 596.060624 
L 1038.516261 596.759717 
L 1040.302996 597.558681 
L 1041.95229 598.557386 
L 1044.391871 600.454924 
L 1046.590929 602.052852 
L 1047.930981 603.351168 
L 1048.961789 604.815935 
L 1054.94048 613.205054 
L 1056.17745 614.969433 
L 1057.895465 617.865676 
L 1059.647839 620.8285 
L 1060.88481 623.058941 
L 1061.056611 623.458423 
L 1061.090972 624.490418 
L 1060.403766 626.021765 
L 1058.788832 627.486532 
L 1057.758024 629.117749 
L 1057.448781 630.515936 
L 1057.448781 631.28161 
L 1058.273428 632.546635 
L 1059.888362 633.279019 
L 1064.045957 633.54534 
L 1065.214206 634.177853 
L 1065.798331 635.176558 
L 1067.447625 639.304537 
L 1068.581515 644.930574 
L 1068.650235 646.29547 
L 1067.756868 649.557906 
L 1065.59217 649.691066 
L 1062.465383 649.424745 
L 1061.056611 649.358165 
L 1059.888362 649.391455 
L 1056.14309 649.724356 
L 1053.188105 649.757646 
L 1050.473642 649.524615 
L 1043.670305 647.793527 
L 1041.230724 647.227595 
L 1039.54707 646.029149 
L 1036.042321 643.099615 
L 1035.389475 642.766714 
L 1035.114593 642.766714 
L 1034.80535 642.933164 
L 1034.461747 643.266066 
L 1034.221225 644.431221 
L 1033.740181 645.463216 
L 1032.915534 646.095729 
L 1031.747284 646.362051 
L 1029.720027 646.16231 
L 1026.593241 645.030444 
L 1022.470006 643.199486 
L 1020.683271 642.03433 
L 1015.735389 637.340418 
L 1013.811213 635.54275 
L 1011.06239 633.41218 
L 1010.272103 633.312309 
L 1009.85978 633.345599 
L 1008.966412 634.011402 
L 1006.595552 636.741195 
L 1004.808817 637.906351 
L 1003.606207 638.305833 
L 1002.231796 638.305833 
L 1000.719943 637.972931 
L 999.895296 638.239252 
L 999.311171 639.204667 
L 999.13937 640.336532 
L 999.17373 642.400522 
L 998.898848 643.898579 
L 998.486524 644.264771 
L 997.902399 644.464512 
L 996.184385 644.298061 
L 992.198591 644.06503 
L 985.841937 643.965159 
L 983.677239 644.19819 
L 981.546901 644.830703 
L 981.100218 645.796118 
L 981.34074 646.595082 
L 982.955673 647.726947 
L 983.230555 648.559201 
L 982.955673 649.857517 
L 982.440269 651.721766 
L 982.027945 652.054667 
L 980.584813 652.320989 
L 978.763718 652.154538 
L 974.743564 653.952206 
L 971.89166 655.217232 
L 967.768425 656.482258 
L 964.882161 657.514253 
L 964.572918 658.080186 
L 969.623881 661.875264 
L 969.658241 663.639642 
L 969.795682 666.968657 
L 969.48644 668.100523 
L 965.638087 668.866196 
L 963.370308 669.065937 
L 961.27433 670.563994 
L 960.449683 671.063347 
L 959.659397 671.362958 
L 959.075272 671.69586 
L 957.597779 672.461533 
L 954.883317 674.359072 
L 953.818148 675.091456 
L 953.130942 675.357777 
L 952.168854 675.557518 
L 951.584729 675.590808 
L 950.313398 675.291197 
L 949.145148 674.525523 
L 947.805097 672.328373 
L 944.64395 668.832906 
L 941.826407 668.167103 
L 941.03612 669.232388 
L 940.314554 669.931481 
L 938.940142 670.830316 
L 937.943694 671.362958 
L 936.019518 672.494823 
L 934.679466 673.327077 
L 931.930643 675.091456 
L 928.838217 676.09016 
L 927.94485 676.389772 
L 928.082291 676.822544 
L 928.116651 678.487052 
L 927.566886 680.118269 
L 926.158114 681.882648 
L 924.062137 684.312829 
L 922.378483 685.045213 
L 918.770652 685.411404 
L 913.169925 686.276948 
L 910.18058 687.808296 
L 907.088154 689.805705 
L 902.105912 693.367752 
L 902.243353 693.600783 
L 899.357089 696.929798 
L 898.017037 698.494436 
L 897.879596 701.357389 
L 898.841684 704.286923 
L 899.735052 710.678633 
L 899.803772 713.375136 
L 895.543096 713.241975 
L 889.633127 713.508296 
L 886.884303 712.875783 
L 884.857046 712.276561 
L 888.189994 717.136924 
L 888.636678 718.868012 
L 888.430517 722.396768 
L 889.014641 726.791069 
L 890.423413 732.283945 
L 891.2137 735.146898 
L 892.656832 739.108427 
L 893.069156 741.538608 
L 893.069156 742.936795 
L 892.691192 745.300396 
L 892.41631 749.594826 
L 892.862994 752.42449 
L 891.900906 753.589645 
L 886.746862 756.885371 
L 881.902061 758.350137 
L 877.229062 759.115811 
L 874.136636 759.581873 
L 871.662695 759.615163 
L 870.941129 760.114516 
L 869.87596 761.246381 
L 867.814343 763.876303 
L 867.161497 765.27449 
L 867.024056 765.973583 
L 867.333299 771.399879 
L 867.951784 772.631615 
L 871.697055 775.028506 
L 873.655592 776.260242 
L 876.679297 779.056615 
L 878.500393 782.25247 
L 880.149687 785.847807 
L 881.317937 788.5776 
L 881.317937 789.776045 
L 881.317937 790.208817 
L 880.012246 791.573714 
L 879.39376 801.094699 
L 882.245664 809.317367 
L 883.379554 812.979285 
L 883.963679 813.977989 
L 887.090465 818.838352 
L 889.289524 822.067497 
L 889.598766 824.231358 
L 889.564406 825.529674 
L 889.495685 828.059726 
L 891.419862 833.552601 
L 892.897354 836.415555 
L 898.601162 844.371902 
L 904.511132 853.526695 
L 905.816823 860.78395 
L 905.782463 862.581618 
L 905.610661 865.910634 
L 905.060897 867.475271 
L 900.216096 870.837577 
L 900.456618 873.434209 
L 901.349985 875.365038 
L 901.727949 877.129416 
L 902.105912 880.05895 
L 902.140272 882.389261 
L 901.556147 884.020479 
L 900.456618 885.352085 
L 897.295471 887.582526 
L 896.264663 888.54794 
L 895.371295 891.077992 
L 893.069156 896.903769 
L 890.389053 901.797423 
L 886.746862 901.531101 
L 884.06676 901.464521 
L 882.520547 902.196904 
L 880.355848 903.794832 
L 879.840444 904.893407 
L 879.32504 906.058563 
L 878.947077 909.320998 
L 879.118878 910.486153 
L 881.73026 913.748589 
L 880.974334 917.676827 
L 880.733812 919.075014 
L 881.077415 919.774107 
L 882.623628 921.804807 
L 889.839288 927.164522 
L 893.000435 932.524237 
L 894.75281 935.620222 
L 895.336935 937.018408 
L 895.543096 937.684211 
L 895.233854 939.148978 
L 893.825082 941.512579 
L 892.931714 942.977346 
L 892.41631 943.8096 
L 891.729104 944.475403 
L 886.300179 945.573979 
L 882.86415 946.273072 
L 880.49329 946.273072 
L 879.187599 945.773719 
L 878.15679 945.141206 
L 873.311989 942.278253 
L 871.765776 941.046517 
L 868.261027 936.785377 
L 867.883063 935.586932 
L 867.058416 933.12346 
L 865.580924 930.426957 
L 864.206512 927.930195 
L 862.660299 926.199107 
L 861.629491 925.866206 
L 855.204116 926.73175 
L 855.101036 929.394962 
L 855.169756 933.423071 
L 855.204116 937.051698 
L 854.963594 937.48447 
L 853.520462 937.850662 
L 850.084433 937.3846 
L 847.954095 937.3846 
L 847.129448 937.983823 
L 846.820206 938.782787 
L 847.026368 939.681621 
L 847.610492 940.946647 
L 847.988456 941.912061 
L 849.569029 945.374238 
L 851.012161 948.503512 
L 850.943441 949.002865 
L 849.534669 949.768538 
L 848.50386 950.001569 
L 844.689868 950.867113 
L 839.741986 950.600792 
L 833.11045 949.701958 
L 829.433899 949.136025 
L 825.92915 949.668668 
L 823.55829 950.367761 
L 819.400695 953.796647 
L 817.235996 955.594316 
L 813.456365 956.52644 
L 811.188586 956.55973 
L 809.539292 956.160248 
L 807.683836 955.128253 
L 803.594962 952.2653 
L 801.189741 953.164134 
L 798.853242 954.662191 
L 795.760816 957.059083 
L 793.97408 957.924627 
L 790.36625 959.555844 
L 788.682596 960.554549 
L 787.99539 960.587839 
L 780.985891 956.892632 
L 780.298685 952.598202 
L 780.229965 948.137321 
L 780.573568 943.976051 
L 780.229965 942.611155 
L 778.271428 942.111802 
L 774.93848 942.977346 
L 773.220466 942.611155 
L 771.33065 941.57916 
L 770.23112 940.180973 
L 770.23112 937.41789 
L 769.406473 937.284729 
L 765.042717 938.449885 
L 763.977548 938.416595 
L 763.324702 937.617631 
L 762.568776 934.222035 
L 761.606688 930.060766 
L 761.537967 928.82903 
L 763.08418 927.830325 
L 763.393423 926.565299 
L 763.255982 925.266983 
L 762.293893 924.334859 
L 760.094835 924.135118 
L 759.373269 923.669055 
L 758.136298 922.237579 
L 756.349563 919.774107 
L 755.215674 917.244055 
L 753.806902 915.479677 
L 751.573483 913.815169 
L 750.645755 911.584729 
L 749.580586 907.6232 
L 749.477505 902.995868 
L 750.06163 899.300661 
L 750.680116 896.93706 
L 751.504763 894.407008 
L 751.26424 892.243148 
L 750.199072 890.512059 
L 749.614947 890.245738 
L 744.941947 893.375013 
L 742.571087 894.97294 
L 736.351875 895.272552 
L 729.548537 895.605453 
L 728.242846 894.407008 
L 726.146869 891.677215 
L 724.360134 890.944831 
L 723.191884 891.011412 
L 721.198987 892.609339 
L 719.721495 893.907655 
L 717.93476 895.572163 
L 716.594708 895.771904 
L 712.918157 895.305842 
L 711.646827 895.638744 
L 710.581658 899.666852 
L 710.306775 900.765428 
L 710.169334 903.39535 
L 710.341136 904.394055 
L 710.959621 908.555324 
L 710.272415 910.552734 
L 709.172886 912.483563 
L 707.764114 914.813874 
L 706.011739 916.11219 
L 702.884953 916.977734 
L 698.864799 917.077604 
L 696.012895 916.278641 
L 694.844645 915.879159 
L 691.92402 914.514262 
L 688.831594 913.582138 
L 687.319742 913.182656 
L 685.223764 912.749884 
L 681.547213 910.852345 
L 678.935831 909.287708 
L 678.454787 909.287708 
L 676.942934 910.119962 
L 675.190559 910.452863 
L 673.609986 910.452863 
L 668.077979 907.456749 
L 666.94409 906.924107 
L 663.679862 904.527215 
L 662.339811 903.228899 
L 660.690517 901.564391 
L 658.422738 900.199495 
L 655.983157 899.833303 
L 654.849268 899.467112 
L 652.615849 897.669443 
L 651.378879 896.570868 
L 650.588592 896.038225 
L 649.21418 895.305842 
L 647.393085 894.373718 
L 646.018674 893.807785 
L 644.4381 892.076697 
L 642.479564 889.047293 
L 641.99852 887.948717 
L 639.799461 883.554417 
L 637.875285 881.756748 
L 633.442808 879.759339 
L 630.006779 878.760634 
L 626.330228 876.696644 
L 623.650125 875.8311 
L 620.832581 876.763225 
L 619.080206 878.128121 
L 618.496082 879.026955 
L 617.465273 880.624883 
L 617.190391 881.357266 
L 616.949869 881.923199 
L 616.709346 883.820738 
L 616.365744 887.083173 
L 615.575457 888.181748 
L 614.819531 888.48136 
L 611.24606 886.084469 
L 607.810031 885.285505 
L 606.092017 885.352085 
L 601.384657 887.349495 
L 597.673746 887.715686 
L 594.54696 887.649106 
L 591.626335 887.515945 
L 589.977041 887.216334 
L 586.334851 885.252215 
L 582.074175 883.920608 
L 579.428432 883.487836 
L 574.033867 883.521127 
L 572.07533 883.920608 
L 570.563478 885.185634 
L 567.642853 887.848847 
L 565.718677 889.846256 
L 564.516067 891.843666 
L 563.382177 894.706619 
L 561.904685 897.203381 
L 558.846619 899.833303 
L 558.537376 904.161024 
L 558.434295 905.359469 
L 557.575288 906.491335 
L 555.925994 907.68978 
L 555.170068 908.488744 
L 553.658215 910.119962 
L 551.699679 913.049495 
L 550.187826 915.446387 
L 548.194929 917.244055 
L 546.305113 918.17618 
L 544.7589 918.642242 
L 542.972165 918.708822 
L 541.391592 919.374625 
L 534.760056 924.234988 
L 532.526637 926.065947 
L 531.873792 928.496128 
L 531.220946 931.126051 
L 529.983976 932.757268 
L 527.853638 935.120869 
L 525.207895 937.018408 
L 521.0503 938.050403 
L 517.889154 938.116983 
L 516.102419 937.750792 
L 509.299081 936.385895 
L 506.069214 935.720092 
L 502.186501 933.822553 
L 499.540759 933.389781 
L 495.451885 933.689393 
L 489.232672 935.753382 
L 486.174606 935.853253 
L 483.597585 935.25403 
L 476.931688 930.893019 
L 476.107042 929.927605 
L 475.93524 928.429548 
L 476.416284 926.365558 
L 477.13785 922.637061 
L 477.10349 921.272164 
L 477.034769 918.375921 
L 475.866519 916.04561 
L 472.636652 912.217242 
L 469.784748 908.322293 
L 467.894932 906.990687 
L 465.592793 906.191723 
L 463.187573 905.359469 
L 459.37358 904.061153 
L 457.483765 903.694961 
L 456.521676 902.496516 
L 454.391339 898.268666 
L 453.051287 896.670738 
L 449.993221 895.006231 
L 446.625913 893.707914 
L 444.048891 893.441593 
L 439.719495 894.307137 
L 436.867591 896.004935 
L 433.25976 897.269961 
L 432.366393 897.236671 
L 430.579658 896.337837 
L 426.353342 893.974236 
L 424.291725 889.779676 
L 421.783424 888.015298 
L 420.340292 885.618406 
L 419.034601 883.687577 
L 415.289329 880.891204 
L 412.506146 878.760634 
L 410.925572 878.760634 
L 409.551161 879.393147 
L 408.657793 880.358562 
L 408.726514 881.856619 
L 409.826043 884.25351 
L 409.860403 885.185634 
L 409.551161 886.051178 
L 405.840249 888.54794 
L 402.026257 888.780971 
L 399.758478 888.381489 
L 397.937383 887.416075 
L 394.05467 882.655582 
L 391.924332 880.192111 
L 390.927884 878.261282 
L 390.618641 877.395738 
L 389.244229 873.900271 
L 388.694465 871.60325 
L 387.388774 870.504675 
L 383.712223 869.006618 
L 381.788047 868.473976 
L 378.042775 867.641722 
L 374.606746 866.443276 
L 374.297503 864.112965 
L 373.85082 863.314001 
L 370.174269 862.082266 
L 370.483511 860.91711 
L 371.205077 857.887706 
L 371.54868 856.023457 
L 371.892283 853.526695 
L 373.335415 850.763612 
L 374.022621 849.065814 
L 373.163614 846.735503 
L 371.823563 845.503768 
L 368.799857 845.470477 
L 365.913593 844.338612 
L 365.432549 844.005711 
L 361.515476 841.176047 
L 359.62566 839.178638 
L 356.258351 834.318275 
L 355.811668 832.354156 
L 356.533234 831.521902 
L 356.979918 830.922679 
L 357.151719 829.391332 
L 357.117359 826.328637 
L 356.911197 824.79729 
L 356.601954 822.899751 
L 356.636315 822.000917 
L 356.773756 821.501565 
L 357.082998 821.068793 
L 359.041535 820.336409 
L 359.178976 819.637316 
L 358.526131 819.071383 
L 357.804564 817.107264 
L 358.285609 814.577212 
L 361.481115 810.482523 
L 365.088946 806.387834 
L 366.944402 798.531357 
L 366.222835 797.266331 
L 365.810512 795.368792 
L 365.226387 792.90532 
L 365.157666 791.706874 
L 365.295108 789.975786 
L 365.879233 787.312574 
L 365.054586 785.548195 
L 362.133961 781.253765 
L 357.873285 777.891459 
L 356.601954 776.260242 
L 355.193182 773.497159 
L 353.784411 769.801951 
L 352.719242 767.33848 
L 351.447911 765.17462 
L 351.550992 764.009464 
L 352.272558 762.777728 
L 354.574697 760.414127 
L 355.846028 759.182391 
L 356.08655 756.81879 
L 358.148167 754.421899 
L 360.965711 749.594826 
L 362.03088 748.596122 
L 364.504821 747.397676 
L 369.040379 746.23252 
L 369.1091 745.733168 
L 367.013122 738.009852 
L 366.154115 734.947157 
L 365.982313 733.748712 
L 365.53563 730.552857 
L 364.882784 728.788478 
L 363.817615 725.725784 
L 362.511924 724.161147 
L 360.79391 722.929411 
L 360.519027 722.396768 
L 360.622108 721.531224 
L 362.202682 719.833426 
L 365.466909 718.768141 
L 370.002467 717.902597 
L 373.507217 715.905188 
L 376.634003 713.741328 
L 378.180216 711.244566 
L 379.86387 709.646638 
L 383.540421 707.449488 
L 386.220524 705.85156 
L 387.526215 704.420084 
L 388.660105 702.156353 
L 390.44684 698.494436 
L 391.134045 697.462441 
L 392.130494 696.896508 
L 394.776236 695.664773 
L 396.288089 693.733943 
L 398.109184 689.772415 
L 398.590228 688.973451 
L 401.270331 688.407518 
L 402.919625 687.442104 
L 405.840249 685.344824 
L 406.527455 683.513865 
L 406.527455 680.484461 
L 406.458735 679.652207 
L 406.012051 675.857129 
L 405.015602 674.492233 
L 402.782184 673.85972 
L 397.903022 673.659979 
L 394.879317 674.026171 
L 392.164854 674.425653 
L 390.275038 674.192621 
L 387.216972 672.727855 
L 385.017914 671.79573 
L 383.162458 672.161922 
L 379.176665 673.593399 
L 375.603194 674.958295 
L 372.75129 675.557518 
L 369.761945 675.624098 
L 368.353173 674.858425 
L 366.222835 672.494823 
L 362.511924 668.832906 
L 361.274954 668.100523 
L 359.350778 668.100523 
L 355.983469 667.734331 
L 353.990572 667.234979 
L 351.482271 666.569176 
L 349.455014 665.703632 
L 346.740551 664.704927 
L 344.369691 664.838087 
L 342.686037 665.30415 
L 340.280817 665.969953 
L 338.356641 666.202984 
L 335.092413 666.136404 
L 333.821082 665.270859 
L 332.927715 663.772802 
L 332.790274 660.576947 
L 332.103068 659.744693 
L 330.763017 659.145471 
L 323.135032 659.145471 
L 319.905165 660.343916 
L 318.049709 660.510367 
L 316.331695 660.443787 
L 314.682401 659.844564 
L 312.483343 659.07889 
L 309.665799 658.712699 
L 306.573373 658.812569 
L 304.099432 658.745989 
L 300.422881 658.146766 
L 299.11719 658.146766 
L 296.883771 659.212051 
L 295.440639 660.510367 
L 294.787793 662.374616 
L 294.066227 664.072414 
L 293.344661 665.537181 
L 292.313853 666.702336 
L 288.39678 671.063347 
L 286.850567 672.761145 
L 283.861221 675.890419 
L 280.459553 679.252725 
L 278.98206 680.018399 
L 275.477311 679.752078 
L 272.041282 679.385886 
L 268.26165 679.152855 
L 264.172775 678.919824 
L 260.771107 678.720083 
L 257.163276 677.122155 
L 253.658527 675.124746 
L 250.669182 673.327077 
L 249.122969 672.894305 
L 246.511587 672.827725 
L 242.938116 673.493528 
L 240.807778 673.89301 
L 238.299477 674.126041 
L 235.378853 674.159331 
L 229.194001 674.292492 
L 226.239016 674.758554 
L 220.432127 675.624098 
L 216.721215 676.223321 
L 212.254378 679.752078 
L 210.433282 680.584332 
L 204.763835 681.716197 
L 202.736578 681.949228 
L 201.259085 681.716197 
L 199.541071 680.384591 
L 198.510262 679.951819 
L 197.273292 680.551041 
L 194.627549 682.182259 
L 190.916638 684.61244 
L 187.824212 684.113088 
L 185.968756 683.347415 
L 183.082492 681.017104 
L 181.330117 679.519047 
L 178.890537 677.887829 
L 176.760199 677.188736 
L 174.939103 676.789254 
L 173.083648 676.423062 
L 170.506626 675.590808 
L 166.692634 674.292492 
L 163.772009 673.327077 
L 159.13337 672.261792 
L 156.109665 671.595989 
L 153.257761 671.263088 
L 151.574106 670.430834 
L 150.130974 669.199098 
L 148.894004 667.268269 
L 147.966276 666.602466 
L 146.557504 666.103113 
L 142.365549 664.405315 
L 140.716255 663.140289 
L 139.754167 661.642232 
L 138.723358 660.477077 
L 137.898711 660.011015 
L 136.386858 659.478372 
L 132.882109 658.646118 
L 132.572866 659.544953 
L 132.023102 660.310626 
L 131.404616 660.809978 
L 130.476889 661.242751 
L 129.308639 661.509072 
L 127.659345 661.775393 
L 125.94133 661.742103 
L 123.845353 661.841973 
L 121.577574 662.141585 
L 114.705516 663.706222 
L 115.049119 659.877854 
L 114.877317 659.07889 
L 113.674707 658.180056 
L 110.857163 656.81516 
L 109.173509 655.982906 
L 107.352414 655.483553 
L 105.806201 655.250522 
L 104.741032 655.317103 
L 102.301451 655.883035 
L 100.171113 656.582129 
L 99.002863 656.482258 
L 95.01707 653.885626 
L 94.707827 653.186533 
L 91.4436 657.114771 
L 87.698328 659.644823 
L 83.403292 665.071119 
L 81.891439 665.104409 
L 80.345226 661.242751 
L 78.764653 660.643528 
L 76.599955 660.410497 
L 74.469617 660.310626 
L 69.418654 660.343916 
L 66.051346 660.410497 
L 55.227854 660.543657 
L 54.471928 660.177466 
L 54.059605 659.711403 
L 54.025244 658.213346 
L 54.093965 652.886921 
L 55.468376 645.729538 
L 55.330935 641.867879 
L 52.444671 639.271247 
L 48.76812 637.373708 
L 41.724261 633.41218 
L 42.445827 631.048578 
L 41.792981 628.218915 
L 41.311937 627.253501 
L 39.662643 625.355962 
L 33.443431 620.162697 
L 33.821394 619.496894 
L 36.91382 615.868267 
L 37.566666 614.769692 
L 38.769276 612.17306 
L 39.490842 610.375391 
L 39.490842 609.543137 
L 37.772827 605.281997 
L 36.570217 603.517619 
L 37.016901 602.984976 
L 38.494393 602.152722 
L 43.236113 600.022152 
L 49.798929 597.026038 
L 56.189943 595.761012 
L 64.23025 595.894173 
L 68.422206 598.490805 
L 69.075051 598.058033 
L 69.418654 593.364121 
L 67.80372 584.808551 
L 73.919852 584.442359 
L 77.355881 584.60881 
L 77.974366 584.508939 
L 78.764653 582.211919 
L 80.86063 574.02254 
L 80.82627 573.256866 
L 80.379586 572.457903 
L 78.833373 571.7921 
L 77.390241 570.660234 
L 74.366536 566.299224 
L 70.964867 558.043265 
L 67.494478 556.445337 
L 67.116515 555.846115 
L 67.082154 555.313472 
L 67.082154 554.581089 
L 67.357037 552.916581 
L 67.838081 550.61956 
L 67.631919 547.290544 
L 65.707743 545.126684 
L 56.464825 535.572409 
L 53.5442 530.179404 
L 45.022848 524.287046 
L 38.356952 521.424093 
L 37.841548 519.759585 
L 40.556011 517.828756 
L 40.178048 514.632901 
L 33.615232 508.04145 
L 27.670902 503.114506 
L 22.68866 498.853366 
L 13.720625 489.998185 
L 12.999059 481.409324 
L 12.655456 477.114894 
L 11.830809 465.097148 
L 10.8 454.411007 
L 12.586735 449.550644 
L 15.747882 441.561007 
L 21.073727 441.727458 
L 31.278733 439.297276 
L 32.996747 437.599478 
L 39.009798 431.940152 
L 42.617628 432.872276 
L 49.93637 438.864504 
L 53.063156 441.028364 
L 56.052501 442.593002 
L 60.65678 443.525126 
L 68.697088 435.568779 
L 74.091653 429.776291 
L 77.458962 425.681602 
L 78.42105 418.024866 
L 82.269402 411.233674 
L 83.540733 409.036524 
L 90.378431 406.905954 
L 94.570386 403.277327 
L 96.460202 401.180047 
L 100.102393 402.777974 
L 105.256436 408.836783 
L 107.180612 416.75984 
L 106.802649 417.525514 
L 103.504061 422.385877 
L 102.438892 424.583027 
L 102.301451 426.114374 
L 103.126098 428.611136 
L 105.806201 433.271758 
L 109.517112 437.699349 
L 119.412875 443.192224 
L 134.290881 444.956603 
L 142.606071 445.722276 
L 148.41296 446.121758 
L 153.2234 447.153753 
L 161.53859 450.81567 
L 168.135766 453.578753 
L 173.564692 455.343132 
L 176.96636 455.842484 
L 179.474662 456.042225 
L 181.192676 455.443002 
L 187.789852 446.354789 
L 189.714028 445.955307 
L 191.810006 445.755567 
L 194.421388 446.188339 
L 199.128747 447.886137 
L 205.519761 450.68251 
L 209.883518 451.115282 
L 214.556517 451.980826 
L 217.133539 452.81308 
L 221.531656 454.843779 
L 227.098023 459.737432 
L 232.080265 462.334065 
L 234.279323 463.366059 
L 237.062507 464.031863 
L 242.457072 464.331474 
L 247.885998 464.930697 
L 250.944064 465.69637 
L 258.84693 467.094557 
L 266.440554 468.259712 
L 271.732039 468.992096 
L 277.264046 469.591319 
L 280.562634 469.524738 
L 282.624251 469.324997 
L 288.49986 467.127847 
L 292.897977 466.328883 
L 296.093484 465.69637 
L 300.560322 463.43264 
L 307.39802 460.536396 
L 310.490446 458.272665 
L 311.280732 455.04352 
L 311.315093 447.087173 
L 311.589975 442.027069 
L 308.463189 436.800514 
L 300.594682 429.010618 
L 293.860066 425.18225 
L 291.557926 421.919814 
L 291.557926 421.487042 
L 292.760536 418.79054 
L 295.887323 416.75984 
L 299.048469 416.893001 
L 303.89327 418.357768 
L 312.483343 421.453752 
L 320.798533 424.483156 
L 326.261819 428.178364 
L 330.316333 430.908157 
L 334.164685 431.940152 
L 341.998831 431.041317 
L 348.458566 428.711006 
L 357.28916 424.516447 
L 359.728741 428.011913 
L 365.192027 434.969556 
L 370.861475 436.933675 
L 383.609142 441.161525 
L 393.126942 443.724867 
L 393.985949 448.784971 
L 396.356809 453.645334 
L 399.105633 459.1715 
L 401.270331 463.632381 
L 406.115132 472.187951 
L 409.310639 474.385101 
L 417.660189 480.144298 
L 420.065409 480.077718 
L 438.104561 467.327588 
L 446.488472 459.737432 
L 447.588001 449.750385 
L 455.009824 442.593002 
L 461.297757 442.2601 
L 475.419836 432.239763 
L 482.120092 428.810877 
L 486.999253 418.424348 
L 482.429335 410.534581 
L 483.357063 406.772793 
L 483.631945 402.544943 
L 484.456592 399.71528 
L 484.662754 396.852326 
L 484.525312 394.122534 
L 483.253982 389.328751 
L 482.154452 385.600253 
L 478.374821 377.477455 
L 477.309652 374.947403 
L 477.034769 373.249605 
L 477.206571 372.617092 
L 477.344012 371.818129 
L 477.344012 371.218906 
L 477.10349 369.98717 
L 476.691166 368.688854 
L 476.072681 367.82331 
L 475.110593 366.524994 
L 473.907983 364.061522 
L 473.770542 362.896367 
L 473.358218 355.239631 
L 473.117696 353.342092 
L 472.464851 350.279397 
L 470.952998 347.016962 
L 469.200623 344.653361 
L 467.998013 343.920977 
L 466.4518 343.288464 
L 465.524072 342.556081 
L 462.053683 337.229656 
L 459.442301 333.268127 
L 448.137766 318.520588 
L 447.656722 317.921365 
L 445.973068 316.623049 
L 443.396046 314.82538 
L 441.884193 314.126287 
L 441.403149 313.560354 
L 441.128267 312.861261 
L 441.128267 311.862556 
L 441.265708 310.763981 
L 441.265708 310.098178 
L 441.162627 308.40038 
L 440.853384 305.470846 
L 440.30362 301.043256 
L 440.166179 296.382634 
L 440.406701 294.152193 
L 440.887745 292.887167 
L 441.196987 292.421105 
L 441.781112 291.955043 
L 442.67448 291.555561 
L 445.251501 290.823177 
L 448.859332 289.857763 
L 449.443457 289.391701 
L 449.78706 288.692607 
L 449.993221 286.828359 
L 450.130663 283.166441 
L 450.302464 282.234317 
L 455.319066 273.512296 
L 455.525228 273.146104 
L 455.937552 272.979653 
L 457.071441 272.480301 
L 458.583294 271.980949 
L 459.717183 271.714628 
L 461.503918 271.348436 
L 462.156764 271.181985 
L 462.809609 271.015534 
L 464.424543 270.1167 
L 461.71008 260.828746 
L 461.091595 259.696881 
L 459.820264 257.766052 
L 457.964809 255.16942 
L 457.346323 254.370456 
L 455.593949 252.040145 
L 455.284706 251.773824 
L 457.861728 250.90828 
L 458.514573 250.375637 
L 458.926897 249.576673 
L 460.198227 245.881466 
L 460.644911 242.252839 
L 458.239691 235.361776 
L 457.861728 234.729263 
L 456.96836 234.06346 
L 455.353427 233.197916 
L 453.738493 232.765144 
L 452.776405 232.765144 
L 451.848677 232.831725 
L 451.436354 232.765144 
L 451.230192 232.532113 
L 450.95531 231.999471 
L 449.890141 227.771621 
L 446.28231 221.31333 
L 444.907899 219.981724 
L 444.907899 219.249341 
L 445.217141 218.483667 
L 445.869987 218.283926 
L 447.931604 218.117475 
L 451.505074 218.383797 
L 454.391339 218.150765 
L 455.73139 217.418382 
L 456.865279 215.986905 
L 458.583294 211.825636 
L 460.885433 208.097138 
L 462.706529 205.866698 
L 472.258689 198.176671 
L 473.59874 197.577449 
L 475.694718 197.644029 
L 480.402078 198.576153 
L 483.425783 199.708019 
L 487.342856 202.371231 
L 489.610635 204.13561 
L 491.29429 206.499211 
L 492.634341 208.962682 
L 493.630789 210.360869 
L 494.970841 211.026672 
L 497.376061 211.259703 
L 498.647391 211.026672 
L 500.88081 210.194418 
L 502.392663 210.194418 
L 505.107126 210.56061 
L 505.759971 210.926801 
L 506.481538 211.659185 
L 507.340545 212.924211 
L 507.821589 214.122657 
L 507.99339 215.953615 
L 508.233912 218.483667 
L 508.508795 222.145584 
L 508.921118 223.843382 
L 509.573964 225.308149 
L 511.017096 226.406724 
L 512.322787 226.772916 
L 514.556206 227.072527 
L 516.205499 227.57188 
L 518.713801 228.836906 
L 521.325183 230.967476 
L 522.390352 232.299082 
L 529.193689 240.255429 
L 531.770711 244.250248 
L 533.454365 246.414108 
L 534.897497 247.512684 
L 543.281408 252.905689 
L 552.867928 258.098953 
L 558.709178 261.661 
L 563.176015 264.324213 
L 564.85967 265.95543 
L 578.706866 279.670975 
L 584.479395 284.364887 
L 585.441483 285.263721 
L 586.781534 286.828359 
L 589.014953 291.089499 
L 589.977041 291.888462 
L 590.97349 292.321235 
L 592.519703 292.820587 
L 594.959283 293.752711 
L 596.436776 294.551675 
L 599.3574 296.083022 
L 600.250768 296.382634 
L 601.109775 296.316053 
L 602.346745 295.450509 
L 603.618076 293.58626 
L 608.359796 286.861649 
L 608.669039 286.295716 
L 608.669039 285.929524 
L 608.256715 284.631208 
L 608.153634 283.765664 
L 608.050554 283.233022 
L 608.084914 282.600509 
L 608.462877 281.734965 
L 609.012642 280.869421 
L 611.967627 276.375249 
L 612.620472 275.809317 
L 613.342038 275.443125 
L 615.060053 275.010353 
L 617.568354 274.843902 
L 619.045846 274.610871 
L 619.389449 274.37784 
L 619.389449 274.111519 
L 618.805324 273.412426 
L 617.362192 272.24727 
L 616.159582 271.248565 
L 614.71645 268.751804 
L 614.682089 267.386907 
L 616.468824 252.539497 
L 616.468824 251.574083 
L 616.846788 250.841699 
L 618.118118 249.476803 
L 620.007934 247.545974 
L 620.317177 246.846881 
L 620.317177 246.214368 
L 619.939214 245.282243 
L 618.908405 243.417994 
L 617.740155 239.822657 
L 617.018589 237.425766 
L 616.984229 236.660093 
L 617.12167 236.260611 
L 617.877596 235.794549 
L 618.942765 235.494937 
L 621.141824 235.028875 
L 622.619316 234.163331 
L 623.272162 233.597398 
L 623.409603 232.865015 
L 623.443963 232.132631 
L 622.928559 231.433538 
L 620.66078 228.437424 
L 619.767412 226.473305 
L 619.49253 224.742216 
L 619.389449 223.044419 
L 619.252008 221.24675 
L 618.667883 217.884444 
L 620.557699 217.318512 
L 622.756757 216.153356 
L 623.753206 215.354392 
L 624.852735 213.922916 
L 625.368139 214.189237 
L 625.883544 214.588719 
L 626.330228 214.85504 
L 627.395397 214.85504 
L 628.013882 214.721879 
L 630.075499 213.556724 
L 631.41555 212.957501 
L 632.308918 212.79105 
L 633.064844 212.82434 
L 633.511528 213.024081 
L 634.233094 213.590014 
L 634.576697 214.089366 
L 634.714138 214.655299 
L 634.817219 215.520843 
L 634.782859 217.251931 
L 634.782859 217.884444 
L 634.9203 218.350506 
L 635.401344 218.949729 
L 636.08855 219.382501 
L 636.810116 219.449082 
L 637.566042 219.449082 
L 646.018674 219.449082 
L 646.499718 219.415791 
L 646.946401 219.14947 
L 647.874129 218.250636 
L 648.733136 217.318512 
L 649.14546 216.98561 
L 649.557783 216.95232 
L 649.832666 216.95232 
L 650.176269 217.08548 
L 650.726033 217.817864 
L 651.825562 219.18276 
L 653.234334 220.580947 
L 654.058981 221.24675 
L 655.158511 221.879263 
L 655.811356 222.178874 
L 654.986709 218.317216 
L 654.917989 217.218641 
L 654.643106 216.419677 
L 654.127702 215.554133 
L 651.344518 212.258408 
L 649.867026 208.296879 
L 649.1111 205.267475 
L 647.393085 200.04092 
L 646.671519 195.613329 
L 646.568438 192.317604 
L 646.980762 191.51864 
L 649.351622 188.688977 
L 649.901386 187.956593 
L 651.48196 186.991179 
L 654.574386 184.694158 
L 658.113495 181.764624 
L 658.285297 181.398433 
L 658.147856 181.132111 
L 657.838613 180.8325 
L 656.739084 180.333148 
L 651.997364 177.736515 
L 650.932195 176.937552 
L 647.97721 176.072007 
L 645.60635 175.838976 
L 643.785255 176.038717 
L 641.757998 176.870971 
L 638.562491 178.868381 
L 631.41555 181.731334 
L 630.728345 181.831205 
L 629.182132 181.498303 
L 627.361036 180.86579 
L 625.711742 180.233277 
L 622.962919 177.936256 
L 621.554147 176.970842 
L 621.073103 176.138588 
L 619.767412 170.579132 
L 619.561251 170.17965 
L 619.561251 169.813458 
L 619.698692 169.280816 
L 621.004383 159.793121 
L 621.382346 156.730426 
L 621.691588 153.634442 
L 621.279265 146.610219 
L 620.970022 143.680685 
L 621.279265 142.215918 
L 622.138272 140.5847 
L 623.409603 138.787032 
L 624.26861 137.755037 
L 625.093257 137.089234 
L 626.020985 136.656462 
L 627.601558 135.657757 
L 628.288764 134.925374 
L 630.21294 132.328742 
L 634.645418 124.938327 
L 636.569594 122.042083 
L 638.596851 120.677187 
L 640.417946 119.711772 
L 641.723637 119.412161 
L 642.651365 119.478741 
L 644.575541 119.478741 
L 656.739084 121.27641 
L 659.144304 122.374985 
L 661.446444 124.006202 
L 664.57323 126.602835 
L 667.218972 128.333923 
L 686.151492 133.860089 
L 688.006947 133.926669 
L 688.934675 133.394027 
L 689.5188 132.894674 
L 690.240366 131.463198 
L 690.927572 130.797394 
L 691.511697 130.630944 
L 692.370704 130.630944 
L 693.504594 130.863975 
L 694.466682 131.596358 
L 695.841093 133.194286 
L 699.861247 138.32097 
L 701.854144 140.784441 
L 706.905107 143.747265 
L 709.68829 144.546229 
L 711.062702 144.546229 
L 712.815076 144.180037 
L 715.529539 143.580815 
L 719.824576 142.382369 
L 723.569847 142.448949 
L 724.394494 142.64869 
L 730.029582 143.680685 
L 734.908743 144.67939 
L 739.30686 146.87654 
L 740.268948 147.642214 
L 740.921793 148.873949 
L 741.265396 149.406592 
L 741.437198 150.605038 
L 746.48816 167.483147 
L 746.48816 171.777577 
L 745.869675 176.238458 
L 744.976308 177.669935 
L 742.021323 180.199987 
L 738.550933 183.861904 
L 738.550933 185.792733 
L 739.650463 191.085868 
L 740.646911 195.74649 
L 741.437198 197.91035 
L 743.017771 199.541568 
L 746.007116 201.372527 
L 747.896932 201.672138 
L 751.332961 202.337941 
L 752.947895 203.436516 
L 753.806902 204.568382 
L 754.219225 206.066439 
L 754.219225 208.296879 
L 754.940791 209.561905 
L 755.90288 210.427449 
L 757.17421 210.494029 
L 758.3081 210.360869 
L 760.850761 209.395454 
L 762.534415 209.395454 
L 765.4894 209.761646 
L 767.963341 210.56061 
L 768.99415 211.392864 
L 769.715716 212.79105 
L 769.956238 214.222527 
L 769.715716 215.753874 
L 769.165951 218.516957 
L 769.475194 220.813978 
L 770.849606 222.079004 
L 773.873311 223.876672 
L 786.724059 227.63846 
L 788.407714 227.771621 
L 789.679044 227.272268 
L 790.40061 226.606465 
L 790.469331 225.54118 
L 789.988287 223.776802 
L 789.988287 223.011128 
L 790.538051 222.511776 
L 791.50014 222.145584 
L 793.115073 221.845973 
L 795.898257 221.612942 
L 800.055852 221.746102 
L 801.876947 221.746102 
L 803.698042 222.112294 
L 805.862741 223.244159 
L 807.477674 223.810092 
L 808.817726 223.510481 
L 818.88529 221.413201 
L 823.661371 216.353097 
L 824.039334 215.221232 
L 824.142415 214.056076 
L 824.004974 213.123952 
L 823.523929 212.191827 
L 822.699283 210.993382 
L 822.630562 210.69377 
L 822.733643 210.427449 
L 822.939805 210.260998 
L 823.214687 210.260998 
L 823.730091 210.327579 
L 824.451657 210.56061 
L 825.757348 211.126542 
L 828.609252 212.391568 
L 831.770399 214.388978 
L 832.491965 215.187942 
L 833.213531 216.419677 
L 833.522774 216.91903 
L 833.832016 217.185351 
L 834.24434 217.251931 
L 834.725384 217.152061 
L 840.291751 215.387682 
L 841.631802 215.387682 
L 842.490809 215.187942 
L 843.281096 214.75517 
L 843.933941 214.089366 
L 845.239633 212.957501 
L 847.507412 211.559314 
L 848.606941 211.059962 
L 849.259786 210.860221 
L 849.981352 210.826931 
L 850.221874 210.826931 
" clip-path="url(#pe3a4e26a35)"/>
   </g>
  </g>
 </g>
 <defs>
  <clipPath id="pe3a4e26a35">
   <rect x="10.8" y="119.412161" width="1058.4" height="841.175678"/>
  </clipPath>
 </defs>
</svg>
